<?xml version="1.0" encoding="UTF-8"?>
<svg id="Contours" xmlns="http://www.w3.org/2000/svg" viewBox="0 0 814.8 580.35">
  <defs>
    <style>
      .cls-1 {
        fill: #3f3f3f;
        stroke-width: 0px;
      }
    </style>
  </defs>
  <path class="cls-1" d="M483.6,399.18c1.2.7,2.1,1.4,3.1,2,1.6.9,3.4,1.5,5,2.5,1.4.9,2.6,2.2,3.9,3.3.4-2,1-4,1.2-6,1.5-15.2.9-30.7,5.9-45.5,5-14.7,12.9-26.3,29.1-29.6,4.2-.8,4.6-3.3,3.9-6.3-4.5-21.1-10.2-41.8-18.9-61.6-7.2-16.2-16.1-31.2-29.2-43.4-7.6-7-16.6-11.5-26.9-12.2-7.1-.4-13.6,3-19.9,6.2-1.6.8-3.8.3-5.8.4,1.1-1.9,1.8-4.5,3.4-5.7,6-4.6,13.1-6.6,20.6-7,11-.5,20.3,4,28.6,10.4,16.3,12.5,26,29.7,34.5,48.1s13.2,37.9,18.7,57.3c.5,1.8,1,3.7,1,5.6-.1,4.8,3.3,4.1,5.7,3.3,8.2-2.6,16.4-5.5,24.5-8.4,9.9-3.5,19.6-7.4,29.6-10.5,17.6-5.5,35.2-11.1,53-15.6,10-2.5,20.6-2.3,30.8-4.4,9.8-2,19.3-5.7,29.1-8,9.9-2.3,20-4.2,30.1-5.8,8-1.2,13.7,7.1,14.2,13.7.6,9.4,1.8,18.8,1.8,28.2,0,6.3-1.3,12.7-2.3,19-1.4,8.4-3.1,16.7-4.4,25.1-.5,2.9,0,4.4,4,3.1,12-4.1,24.2-7.5,36.4-11.1,5.1-1.5,10.1-3,15.3-4.1,1.6-.3,3.5.6,5.2.9-1.1,1.7-1.9,4.4-3.4,4.9-8.2,2.7-16.6,5-25,7.3-10,2.8-20.2,5.2-30.1,8.2-1.8.6-3.9,3-4.3,4.9-.9,3.7-1,7.7-1.1,11.5-.4,15.2-.6,30.4-1.1,45.6-.2,5.2-1.1,10.5-2,15.7-.2,1.2-1.8,2.1-2.7,3.1-1.1-1.3-3-2.5-3-3.8,0-5,.8-10,1.1-15,.2-4.8.1-9.6.1-14.4,0-3.5-.3-6.9-.2-10.4,0-1.9.7-3.7.9-5.6,1.4-12.6,2.5-25.2,4.1-37.8,1.4-11.7,4-23.2,4.8-34.9.8-13,.5-26.1.1-39.2-.2-7.5-7-9.2-12-8.6-17.6,2.3-33.9,9.2-51,13.4-8.3,2.1-17.2,1.8-25.7,3.3-8.3,1.5-16.4,3.6-24.5,5.9-16.8,4.8-33.7,9.6-50.3,15-20.5,6.7-40.8,14.1-61.2,21.1-11.1,3.8-15.8,13.3-19.1,23.2-2.4,7.4-3.5,15.4-4.1,23.3-1.1,15.9-1.3,31.8-2.2,47.7-.7,12.6-2.1,25.2-2.9,37.8-.6,9.5-.7,19.1-1.1,28.6-.1,1.7-.5,3.4-1,5.1-2.3,7.5-3.8,8.1-11.5,6.2-18.5-4.4-37.1-8.6-55.6-13.1-12.1-2.9-24.2-5.8-36.3-9.1-3.8-1-7-3.6-11.3-3-2.8.4-5.9,0-6.2,3.8-.4,4-1,8.4,4.2,10.1,9.7,3.1,19.4,6.5,29.2,9.1,6,1.6,12.5,1.1,18.4,2.8,9.5,2.6,18.6,6.7,28.1,9.3,11.6,3.2,23.4,5.5,35.2,8.1,4.9,1.1,9.8,2.7,14.8,2.8,5.2.1,10.5-.8,15.6-2,27.4-6.3,54.2-14.2,80.6-23.9,9.8-3.6,19.4-8,29.5-10.9,13.8-3.9,27.9-6.7,41.8-10.1,10.2-2.4,20.3-4.9,30.4-7.4,8.3-2.1,16.6-4.1,24.8-6.6,6.9-2.1,11.3-6.7,12.5-14.1.2-1.1,2-2.6,3-2.6s2.7,1.8,2.8,2.8c.3,7.7-3.9,13.5-10.1,16.8-7,3.7-14.9,6.1-22.6,8.1-12.2,3.2-24.7,5.7-37,8.4-9,2-18.3,3.2-27.1,5.9-12.7,3.8-25.1,8.6-37.7,12.8-12.9,4.4-25.7,8.9-38.6,12.9-12.1,3.8-24.4,7.4-36.7,10.3-10.3,2.5-20.7,4.9-31.2,5.4-7.4.4-14.9-2.1-22.3-3.7-11.1-2.5-22.2-5-33.2-8-8.3-2.3-16.2-6-24.5-8.3-6.5-1.8-13.6-1.7-20.1-3.4-9.4-2.5-18.5-6-27.9-8.6-4.9-1.3-7.5-4.2-8.6-8.8-.4-1.6-.6-3.3-.3-4.9,1-5.8.3-6.4-5.7-7-7.2-.7-13.8,1.8-20.5,3.7-21.6,6.1-43.3,12.2-64.9,18.4-15.8,4.5-31.5,9.4-47.2,14-22,6.4-44.1,12.7-66.1,19-29.4,8.4-58.8,16.6-88.1,25-19.6,5.7-39.1,11.8-58.7,17.6-4.5,1.3-9,2.6-13.5,3.5-1.6.3-3.5-.5-5.3-.8,1.1-1.7,1.9-4.4,3.3-4.9,9.3-3.1,18.7-5.7,28-8.4,12.1-3.4,24.2-6.7,36.3-10.2,8.6-2.5,17.1-5.5,25.8-7.6,3.6-.9,4.4-2.9,4.5-5.6.1-15.3.2-30.7,0-46-.2-17.7-.8-35.4-.9-53.1,0-3.7,1.1-7.5,2-11.1.3-1,1.9-1.6,2.9-2.4.7,1.1,1.9,2.3,1.9,3.4-.1,4-.9,8.1-.8,12.1.2,28.5.6,57.1.9,85.6,0,3.9-.2,7.8.1,11.7.1,1,2.1,2.9,2.8,2.7,7.2-2.3,14.2-5.2,21.4-7.3,14.4-4.3,28.9-8.2,43.4-12.3,6.6-1.9,13.1-3.9,19.6-5.7,3.9-1.1,5.9-2.9,5.7-7.4-.4-9.3-.2-18.7-.1-28,.1-6.3.3-6-5.9-4.3-18.4,5-36.7,5.8-54.4-2.3-2.8-1.3-5.3-3.4-7.6-5.6-.7-.6-.5-3.1.2-3.9.6-.7,3-1,3.8-.4,8.6,6.5,18.2,8.6,28.8,9.1,17.4.8,33.6-2.7,48.1-12.3,4.9-3.3,9.8-7.6,8.8-14.5-.4-2.9-2.8-5.5-4.1-8.3-.5-1.1-.6-2.3-.9-3.5,1.5-.3,3.3-1.3,4.4-.8,6.5,2.7,8.8,12.2,5.9,19.8-3.3,8.7-10.9,12.4-17.7,17.4-1.5,1.1-3.2,3.3-3.3,5-.3,11-.1,22-.2,33,0,3.9,1.4,4,4.6,2.9,10.4-3.5,20.8-6.9,31.4-10,12.1-3.5,24.3-6.6,36.3-10.1,18.2-5.2,36.2-10.7,54.4-15.9,2.3-.7,4.7-.6,7.1-1.1.8-.2,1.5-1,2.2-1.5-.8-.5-1.6-1.3-2.4-1.4-15.2-.7-29.5-5.8-43.8-10.1-12.6-3.7-25-8.1-37.6-11.9-10.5-3.2-18.7-8.8-19.7-20.4-.6-6,1.1-12.3,2-18.4,1.1-7.5,2.5-15,3.6-22.5,1.1-7.4,1.9-14.8,3.1-22.2,1.2-7.8,2.7-15.6,3.9-23.4,1.8-11.6,3.9-23.2,4.9-34.9.8-9.7,2.9-18.9,6.1-28,3.2-9,8.7-16.6,14.4-24.1,13-17,31.5-27.9,46.4-42.8,7.9-7.9,18.3-13.5,27.6-20,1.2-.8,3.1-.6,4.4-1.4,1.3-.7,2.3-1.9,3.3-3.1.8-.9,1.3-1.9,2-2.9,1,.8,2.5,1.4,2.9,2.4.9,2.1,1.1,4.5,1.8,6.8,4.1,13.5,14.8,20.1,27.2,23.7,13.7,3.9,27.3,3.8,40-4.1,1-.6,2.9,0,4.4.1-.2,1.4,0,3.5-.8,4-4.5,2.6-9.1,6.1-14,7-14,2.6-27.9,2.1-41.1-4.7-10.1-5.2-17.7-12.5-21.5-23.4-.2-.5-1.7-1.1-2.2-.8-14.3,7.2-26.2,17.5-37.8,28.5-10.3,9.9-21.8,18.5-32.1,28.5-13.6,13.2-21.9,29.3-24,48.5-1.6,15-3.7,30-6,45-2.1,13.9-4.7,27.7-6.9,41.6-1.8,11.8-3.9,23.6-4.9,35.4-1.2,14.7,4.9,15.9,14.4,19.4,9.4,3.5,19.5,5.3,29.1,8.2,11.4,3.5,22.5,7.6,34,10.9,6.5,1.9,13.2,3.8,19.8,3.8,12.1,0,23.9,1.7,35.8,3.2,5.9.7,11.4-.3,16.4-3.8,1.2-.8,3.5.2,5.4.4-.4,1.4-.5,3-1.3,4.1-1.7,2.3-.4,2,1.4,2.4,10.6,2.5,21.1,5.3,31.7,7.9,14.5,3.6,29,7.2,43.5,10.8,5.7,1.4,11.5,3,17.3,4,.9.2,3.1-2.1,3.2-3.3.3-6.7.2-13.3.2-20,0-5.5,0-5.1-5.1-4.7-4.3.3-8.2.3-11.5,4-.9,1-4,0-6,.2-2.5.3-5.2.4-7.3,1.6-3.6,1.9-9.4,2.1-12.3-1.4-4.1-4.8-7.2-9.7-7.9-16.3-.3-3-3.1-5.6-4.7-8.5-1.1-1.9-3.8-4-.8-6.1,2.5-1.7,4.6.1,5.8,2.5,2.4,5.2,4.9,10.3,7,15.6,1.8,4.5,7.7,10.5,8.2,9.3,1.6-3.8,3.3-8.4,2.6-12.2-1.2-6.8-4.2-13.2-6.2-19.8-.3-1.1.5-2.9,1.4-4,.3-.4,2.9.2,3.2.9,2.5,5.8,4.9,11.7,6.8,17.7.9,2.8.2,6.2,1.3,9,.8,2.2,2.9,4.8,4.9,5.3,2.9.8,3.3-2.1,4.1-4.7,2.3-8-1-14.8-3.5-21.8-.9-2.4-2.2-4.8-3.7-7s-.8-3.9,1.1-4.6c1.2-.4,3.8.4,4.3,1.4,2.8,6.2,5.5,12.4,7.5,18.9,1.1,3.5.7,7.4,1.2,11,.2,1.4,1.2,2.7,1.8,4,1.1-1.1,2.8-2.1,3-3.3,1.2-6.6,3.5-13.1.4-20-2.1-4.6-3.8-9.5-5.3-14.3-.4-1.4.5-3.2.8-4.8,1.3.5,3.2.7,3.7,1.7,2,4,3.6,8.2,5.4,12.2.4.9,1.2,1.7,1.8,2.5.4-.9,1.1-1.7,1.1-2.6.1-5.6.6-11.2-.1-16.7-1.3-10.1-7.2-15.8-17.4-17.7-14.3-2.7-28.4-1.2-41.7,4.8-7.7,3.5-14.9,8.2-22.5,12.2-2.4,1.3-5.2,2-7.8,3-1.3.5-3,.8-3.7,1.7-3.1,4.5-6.6,8.9-8.8,13.8-2.9,6.6-.4,13.7,5.5,17.3,2.4,1.5,5.3,2.6,8.1,3.3,8.7,2.1,17.4,2.9,25.6-2.1,2.3-1.4,4.8-1.1,6,1.1.4.8-1.2,3.5-2.6,4.3-7.6,4.5-16,5.5-24.5,4.1-5.6-.9-11.2-1.9-16.2-5.5-9.8-7-12.9-21.6-5.5-31.1,3.5-4.5,8-8.3,12.2-12.3,2.1-2,1.2-3.1-1-3.7-3.7-1.1-7.4-2.4-11.3-3-11.4-1.8-22.9-3.5-34.4-5-2.1-.3-4.4.8-6.6.8-1.5-.1-3-1.1-4.6-1.6.9-1.4,1.7-4.1,2.6-4.1,5.2-.4,10.5-.5,15.7,0,6.6.6,13.2,1.9,19.8,2.9,9.1,1.5,18.9.7,26.1,8.4.9,1,4.3,1,5.6.1,13.7-9.9,29-14.7,45.7-16.7,8.3-.7,15.6,1.4,23.5,2.5Z"/>
  <path class="cls-1" d="M412.8,63.18c-2.3.8-4.8,1.1-5.9,2.6-6.8,9.4-13.4,19.1-19.8,28.8-1.3,2-1.4,4.7-2.4,7-1.3,3-2.3,6.8-4.7,8.3-1.7,1-5.5-1.1-8.2-2.2-1.3-.5-2.2-2-3.2-3.1-2.3-2.6-5.1-4.4-8.5-3.1-4,1.5-4.2,6-4.1,9.1.2,3.8,1.8,8,4,11.2,2.7,4,6.3,7.2,12.2,6.6,5.3-.6,6,1,6.5,6.4,1.1,10.7-3.5,20.1-6.8,29.7-1,3-2.7,5.9-3.8,8.9-1,2.7-2.8,3.8-5,2.5-.9-.5-.9-3.4-.4-4.9.8-2.9,2.3-5.7,3.4-8.6,3.1-7.8,4.4-15.7.6-23.5-1.5-2.9-3.5-5.9-6-8-8.5-7.2-13.3-16.7-9.4-26.8,2.7-7.2,2.9-13.4,1.4-20.2-2.2-9.6,2.3-18.3,2.9-27.5,1.3-19.1,11.9-32.7,25.3-44.5,9.2-8.1,20-13.2,33.2-9.8,2.8.7,6-.4,9-.9,7.3-1.2,14.6-3,20.8,3.4,1.7,1.7,4.5,1.8,7.4,1.8,15,.1,29.2,3.7,40.4,14.4,4.8,4.6,7.4,12.1,2.7,18.4-.7.9-.1,3.4.7,4.6,4.2,6,5.3,12,1.8,18.7-2.3,4.5-2.8,8.9-2.5,14.3,1,16,.2,32-3.4,47.9-3.2,14.2-8,27.4-16.3,39.3-7.1,10.2-16.4,17.4-28.4,20.9-2.6.8-5.4,1.3-8,1.1-5.2-.5-5.7,3.3-6.5,6.6-.9,3.8-1.3,7.8-2.1,11.6-.2,1-1,1.9-1.5,2.9-.9-.6-2.3-1-2.7-1.8-.8-1.9-1.5-4.1-1.3-6.1.5-3.9,1.9-7.6,2.3-11.5.1-1.2-1.3-3.2-2.5-3.7-12.2-4.7-22.3-12.3-30.8-22.1-2.2-2.5-4.3-5.2-5.9-8.1-.6-1,.2-2.9.4-4.3,1.4.4,3.2.3,4,1.2,5,5,9.5,10.5,14.6,15.4,10.2,9.6,22.4,14.9,36.6,12.8,9.7-1.4,17.6-7.1,23.7-14.6,8.8-10.9,14.5-23.6,17.5-37.2,1.7-7.7,2.5-15.7,3.6-23.5.5-4,.5-8.1,1.1-12.1.8-4.7-2.1-6.1-5.7-6.3-3-.2-6.1.8-9.1.8-1.8,0-3.5-.9-5.3-1.5,1.2-1.5,2-3.5,3.6-4.4,4.3-2.4,8.9-2.4,13.5-.5,1.9.8,3.8.7,2.8-1.7-2.6-6.4-1.2-11.9,2.1-17.6,3.6-6.1,2.6-11.3-2.5-16.3-1.9-1.9-2.9-3.4-1.1-6,4.8-7.2,3.3-12.8-4.6-17.1-9.2-5-18.9-9-29.7-7.9-6.1.6-10.1-3.1-14.8-5.4-4-2-7.7-1.6-11.9-.9-5.8.9-11.8.6-17.7.3-6.8-.4-13,1.7-18.2,5.2-12.6,8.5-22.3,19.9-26.7,34.6-3.4,11.6-5.6,23.7-4.7,36,.2,2.9,1.2,5.8,2,8.7.2.7.6,1.7,1.2,2,4.4,2.2,8.8,4.4,13.4,6.2.8.3,2.7-.9,3.3-1.9,3.4-5.7,6.3-11.8,10-17.3,6-8.8,12.8-17,19-25.7,1.7-2.4,2.9-2.9,4.8-.7,2.6,2.9,4.6,1.9,6.9-.4,3.1-3.1,6.2-6.6,9.9-8.6,2.3-1.3,6.7-1.3,8.8.1,3.4,2.2,6.3,1.8,9.6,1,5.4-1.3,10.7-3.3,16.3-.6.7.4,2.1-.3,3-.7,5.7-2.4,11.3-.5,16.7,1.1,1.6.4,2.6,2.6,3.9,4-1.7.6-3.7,2.2-5,1.7-7.5-3-14.9,1.2-22.6-.5-4.4-1-9.6,1.4-14.4,2.1-2.2.3-5.3,1.3-6.6.3-6.7-5.4-10.2.5-14.3,3.7-3.2,3-6.3,6.6-11.9,5.9Z"/>
  <path class="cls-1" d="M82.6,434.98c-4.5-.3-9.1-.1-12.9-1.7-7.1-3-8.6-7.8-6.3-15.1,3.8-12,12.5-19.9,22.3-26.9,5.5-3.9,11.7-6.3,18.5-7.2,1.7-.2,3.5-1.8,4.6-3.2,8-10.2,16.9-19.1,29.8-23,7.4-2.2,14.8-2.1,22.2-.2,3.3.9,4.9,1.2,6.4-3.5,3.5-11.2,11.1-18.8,23.4-21.1,12-2.3,22.9.1,33.2,6.2,5.7,3.4,10.6,10.2,8.2,16.9-2.1,5.7-9.4,11-15.5,11-1.3,0-2.7.1-4,0-10.2-.5-10.6,1.1-11.1,9.2-.4,7.1-1.7,14.7,2.8,21.9,3.9,6.3,6.1,13.7,9,20.7.5,1.3.9,2.8.7,4.1-.1,1.1-1.1,2.1-1.7,3.1-1.1-.7-2.7-1.2-3.1-2.2-3.8-8.2-6.9-16.9-11.2-24.8-7.4-13.6-16.6-25.9-31.2-32.7-15.5-7.3-28.3-5.1-41.4,6-3.8,3.2-6.9,7.3-10.2,11.2-.7.8-1.1,2.9-.7,3.3,5.7,4.6,2.6,10.8,1,14.9-5.5,14.5-15.5,25.5-29.7,32.2-1,.3-2,.4-3.1.9M185.8,340.68c-2.2,1.5-5.1,2.6-6.5,4.7-2.9,4.5-5.6,9.4-7.2,14.4-.4,1.3,3.8,4.1,5.9,6.2,4.6,4.6,9.1,9.2,13.7,13.7,1,1,1.9,2,2.9,3.1.2-1.6.8-3.3.4-4.7-2.3-8.5,3.9-16.9,12.5-16.9,2.7,0,5.4.2,8,0,6.4-.7,13.4-6.9,8.9-12.5-2.2-2.7-5.5-4.9-8.8-6.4-9.3-4.4-19.2-5.5-29.8-1.6M75.8,408.68c-1.8,2.8-3.9,5.4-5.2,8.3-.9,2-1.5,5-.6,6.7,3.6,6.5,6.6,7.2,13.8,3.9,13-5.9,21.1-16.2,25.9-29.4.7-2,.8-4.2,1.2-6.3-2.8-.3-5.6-.6-8.5-.9-.6-.1-1.3,0-1.9.2-9.8,3-18.2,8.3-24.7,17.5Z"/>
  <path class="cls-1" d="M529.6,504.98c-5,1.3-9.7,2.5-14.4,3.3-1.3.2-2.9-.5-4.3-.8.9-1.5,1.4-3.7,2.6-4.2,5.9-2.3,11.9-4.3,18-6.1,14-4.1,28-8.1,42-12,19.4-5.4,38.9-10.6,58.3-16,22.7-6.3,45.4-12.6,68.1-19,9.7-2.7,19.3-5.6,29-8.4.3-.1.5-.6.8-.5,2.4.5,6.7.5,7,1.6,1,3.7-2.6,3.7-5.2,4.4-21.2,5.9-42.3,11.9-63.5,18-16.1,4.6-32.1,9.4-48.2,14-21.6,6.1-43.3,12-65,18.1-8.5,2.2-16.7,4.8-25.2,7.6Z"/>
  <path class="cls-1" d="M484,399.18c-3.8-3.8-2.2-8.4-2.1-12.7,0-4.1,1.4-8.1,1.8-12.2.8-8.9,1.1-17.8,2.1-26.6,1.3-11.2,3.4-22.2,4.9-33.4,1.2-8.7,2-17.5,3.1-26.2.6-4.9,1.2-9.8,2.2-14.6.3-1.3,2.2-2.3,3.4-3.4.8,1.3,2.3,2.8,2.2,4-.7,7.1-1.8,14.2-2.7,21.3-.8,5.9-1.4,11.7-2.2,17.6-1.6,11.6-3.4,23.2-4.9,34.9-.6,4.5-.6,9.1-1.1,13.6-1.3,11.6-2.6,23.2-4.1,34.8,0,1.1-1.5,2-2.6,2.9Z"/>
  <path class="cls-1" d="M424.6,215.98c-16.8,8.6-31.2,3.4-45.1-6.5-8.5-6.1-13.9-14.2-17.5-23.7-.5-1.3.2-3,.3-4.5,1.5.7,3.6,1,4.5,2.2,4.4,5.8,7.7,12.5,12.8,17.6,8.5,8.5,19,13.8,31.4,13,3.7-.3,7.3-2.5,11-3.3,1.8-.4,3.8.5,5.7.9-1,1.3-1.9,2.6-3.1,4.3Z"/>
  <path class="cls-1" d="M463.8,282.18c.7-2.5,1-4.9,2.2-6.6,3.7-4.9,6.7-5.4,11.3-2.5,6.2,4,6.7,6,3.8,12.4-.7,1.5-.5,3.8.1,5.4,1.7,4.3,2.3,6.5-3.4,11.8-3.1,2.9-6.4,3.4-9.9,1.1-3.2-2.1-4.2-7.1-2.1-11.2,2.1-4-1-6.7-2-10.4M472.8,293.68c-.7,1.3-1.4,2.7-1.9,4.1-.1.3,1.5,1.5,1.7,1.3,1.8-1.1,3.5-2.4,5.2-3.7-1.5-.7-3-1.4-5-1.7M476.8,282.68c.2-.8.4-1.6.6-2.4-1.6-.2-3.3-.9-4.6-.4-1,.4-1.3,2.3-2,3.5,1.8,0,3.7-.1,6-.7Z"/>
  <path class="cls-1" d="M175.8,435.18c5.8-2.1,10.9-1.5,15.3,1.9,5.6,4.3,4.7,11.1-1.8,15.1-2.7,1.7-14,2-16.7-.9-2.1-2.2-4.5-5.2-4.5-7.9-.1-4,2.8-7.2,7.7-8.2Z"/>
  <path class="cls-1" d="M331,363.48c-1.3,7.3-2.2,14.4-3.5,21.4-.2,1.3-1.9,2.2-2.9,3.3-.9-1.4-2.8-2.9-2.6-4.2.7-7.3,1.7-14.5,2.9-21.8,1.5-9.5,3.2-19,5.1-28.4.4-1.7,2.5-4.5,3.7-4.4,2.7.1,3.7,2.3,2.3,5.1-.4.8.1,2-.1,3-1.6,8.6-3.1,17.2-4.9,26Z"/>
  <path class="cls-1" d="M471.8,129.18c-.9,2.4-1.4,5-2.9,6.1-1.6,1.1-4.2.8-6.3,1.1.3-1.8.2-4,1.1-5.4,2.6-3.8.4-6.9-.7-10.2-1.5-4.5-3-9.1-4-13.8-.2-1.1,1.2-2.5,1.9-3.8,1.1.9,2.7,1.6,3.2,2.8,2.6,7.5,5.1,15.1,7.7,23.2Z"/>
  <path class="cls-1" d="M151.8,411.18c.3-2.2.3-4.1,1.1-5.5.6-1.1,2.5-2.5,3.3-2.3,1.4.4,3.2,1.9,3.5,3.3.7,4.1,1,8.4,1.1,12.6.1,2.7-.3,6.4-3.8,5.7-2-.4-4-3.5-4.9-5.8-1-2.2-.3-5-.3-8Z"/>
  <path class="cls-1" d="M182.8,415.18c.3-3.7.2-7,1.2-10,.5-1.4,3.4-3,4.7-2.7s2.7,2.9,2.9,4.7c.5,3.4.7,7.1-.1,10.4-.4,2.1-2.8,3.7-4.3,5.6-1.2-1.6-2.4-3.2-3.5-4.9-.4-.8-.6-1.7-.9-3.1Z"/>
  <path class="cls-1" d="M452.8,151.18c-4.2,0-7.9.1-11.6-.2-2-.2-4-.8-5.7-1.8-1.1-.6-1.8-2.1-2.7-3.2,1.2-.6,2.3-1.8,3.5-1.8,3,0,6,.8,9.1.8s6.4-.8,9.6-.8c1.6,0,3.2.9,4.9,1.4-.8,1.5-1.3,3.3-2.5,4.4-1,.9-2.7.9-4.6,1.2Z"/>
  <path class="cls-1" d="M434.8,78.18c2.7,1.5,5,2.8,6.9,4.6.7.6.3,2.4.4,3.7-1.5,0-3.5.7-4.3,0-4.2-3.6-8.6-2.2-13.1-1.3-1.5.3-3.2-.3-4.8-.5,1-1.8,1.7-4.8,3.1-5.2,3.5-1.1,7.5-1,11.8-1.3Z"/>
  <path class="cls-1" d="M367,109.98c1.7,3,3.2,5.7,4.4,8.5.5,1.2.4,2.7.5,4.1-1.6-.1-3.6.3-4.7-.5-3.1-2.5-6.4-5.3-5.5-10.1.2-1.2.6-3.1,1.3-3.3,1.2-.3,2.5.6,4,1.3Z"/>
  <path class="cls-1" d="M478.8,102.18c-.3,1.5-.5,2.6-1,3.6-.9,1.8-2,3.6-3,5.4-1.2-1.7-3.2-3.4-3.5-5.2-.3-2,1-4.3,1.7-6.4,1.9.7,3.9,1.4,5.8,2.6Z"/>
  <path class="cls-1" d="M429,97.48c1.8.9,4.6,2.2,4.5,3.1-.4,2.6-2,5.1-3.3,7.5-.1.2-2.3-.1-2.5-.5-.8-1.9-1.7-4-1.6-6,.1-1.4,1.8-2.6,2.9-4.1Z"/>
</svg>