<?xml version="1.0" encoding="utf-8"?>
<!-- Generator: Adobe Illustrator 28.1.0, SVG Export Plug-In . SVG Version: 6.00 Build 0)  -->
<svg version="1.1" id="레이어_1" xmlns="http://www.w3.org/2000/svg" xmlns:xlink="http://www.w3.org/1999/xlink" x="0px"
	 y="0px" viewBox="0 0 269.9 289" style="enable-background:new 0 0 269.9 289;" xml:space="preserve">
<style type="text/css">
	.st0{fill:#3F3F3F;}
	.st1{fill:none;stroke:#3F3F3F;stroke-width:0.2;stroke-miterlimit:10;}
</style>
<g id="레이어_2_00000096054784078987229550000008804142901372556973_">
	<g id="레이어_2-2">
		<path class="st0" d="M20.5,123.7c-0.4-0.5-0.8-1-1.3-1.4c-0.4-0.3-1-0.4-1.5-0.3c-0.5,0.2-0.9,0.5-1.2,0.8
			c-0.3,0.3-0.6,0.7-0.7,1.2c-0.2,1-0.1,2.1,0.3,3.1c0.4,1.1,0.8,2.1,1.3,3.2c1,2,2.2,4,3.5,5.9c1.2,1.9,2.5,3.7,4,5.5
			c1.5,1.7,3,3.3,4.3,5.1c1.3,1.8,2.5,3.7,3.6,5.7c0.9,2.1,2.3,3.9,4,5.4c0.6,0.4,1.2,0.8,1.9,1.1c0.7,0.3,1.4,0.6,2.1,0.7
			c1.1,0.3,2,0.4,3.3,0.6c-1.2,0.4-2.4,0.5-3.7,0.4c-1.3-0.1-2.5-0.5-3.6-1.2c-2.1-1.4-3.8-3.3-5-5.5c-1.2-2-2.5-4-3.9-5.8
			c-1.4-1.8-3.1-3.4-4.7-5.2c-1.5-1.8-2.9-3.7-4.1-5.7c-1.1-2-2.2-4-3.3-6.1c-0.5-1.1-1-2.2-1.4-3.4c-0.2-0.6-0.3-1.2-0.4-1.9
			c-0.1-0.7-0.1-1.4,0.1-2.1c0.2-0.7,0.7-1.4,1.3-1.9c0.5-0.5,1.2-0.8,1.9-1c0.8-0.2,1.7,0.1,2.3,0.7
			C20.1,122.2,20.5,123,20.5,123.7z"/>
		<path class="st0" d="M92.1,89.4c0,1.7,2,2.8,2.2,2.8c0.6,0.3,1.2,0.4,1.8,0.5c1.5,0.1,3-0.5,4.1-1.5c0.9-0.5,1.4-1.3,1.6-2.3
			c0.1-0.6,0.1-1.3-0.2-1.8c-0.2-0.6-0.6-1.1-1.1-1.4c-0.6-0.3-1.3-0.5-1.9-0.4c-0.9-0.1-1.7-0.1-2.6,0.1c-1.3,0.4-2.4,1.2-3.1,2.4
			C92.4,88.2,92.2,88.8,92.1,89.4z"/>
		<path class="st0" d="M43.7,112.9c0,1.7,2,2.8,2.2,2.8c0.6,0.3,1.2,0.4,1.8,0.5c1.5,0.1,3-0.5,4.2-1.5c0.8-0.5,1.4-1.3,1.6-2.2
			c0.2-0.6,0.1-1.3-0.2-1.8c-0.2-0.6-0.6-1.1-1.1-1.5c-0.6-0.3-1.3-0.5-2-0.4c-0.9-0.1-1.7-0.1-2.6,0.1c-1.3,0.4-2.4,1.2-3.1,2.4
			C44,111.7,43.7,112.3,43.7,112.9z"/>
		<path class="st0" d="M76.8,83.6c-0.1-1,0-2.1,0.4-3.1c0.2-0.8,0.5-1.6,1.1-2.2c1-1.2,2.2-2.4,3.4-3.4c1.2-1.1,2.5-2.1,3.8-3
			c1.3-0.9,2.7-1.7,4.2-2.3c2.8-1,5.6-1.8,8.5-2.3c1.5-0.4,3.1-0.6,4.7-0.8c1.1-0.2,2.2,0,3.3,0.3c0.9,0.3,1.7,0.9,2,1.8
			c-0.6,0.4-1.3,0.8-2,1.1c-0.6,0.3-1.3,0.5-2,0.7c-1.3,0.4-2.7,0.9-4.1,1.4c-2.6,1.1-5.3,2.2-8,3.5c-1.4,0.6-2.5,1-3.8,1.6
			c-1.2,0.5-2.4,1.1-3.5,1.9c-1.1,0.8-2.2,1.7-3.3,2.7c-0.6,0.5-1.3,0.9-2,1.2C78.7,82.9,78,83.8,76.8,83.6z"/>
		<path class="st0" d="M55.8,91.6c-0.3,0.5-0.7,0.9-1.1,1.2c-0.4,0.3-0.7,0.5-1,0.8c-0.5,0.5-1.2,0.9-1.8,1.1
			c-1.3,0.4-2.5,0.9-3.8,1.4c-2.5,1.1-4.6,2.7-7.2,3.8s-4.6,1.7-6.7,3.1c-1,0.7-2,1.5-2.8,2.5c-0.6,0.7-1.3,1.3-2,1.8
			c-0.7,0.5-1.5,0.9-2.4,1.1c-0.3-0.8-0.3-1.7-0.1-2.6c0.1-0.8,0.4-1.6,0.8-2.3c0.4-0.7,0.8-1.4,1.3-2c0.5-0.7,1-1.3,1.6-1.9
			c2.3-2.2,4.9-4,7.7-5.4c2.6-1.2,5.3-2.1,8.1-2.9c1.5-0.5,3-0.8,4.5-1.1c0.8-0.1,1.6-0.1,2.4,0.2C53.9,90.8,55,90.7,55.8,91.6z"/>
		<path class="st0" d="M73.4,102.2c0.6,0.8,1,1.7,1.3,2.6c0.4,0.8,0.7,1.6,0.9,2.5l1.4,5.1l1.4,5l0.7,2.5l0.4,1.3
			c0.1,0.4,0.2,0.9,0.3,1.3c0.4,1.8,0.7,3.3,0.9,4.9l0.2,1.2c0.1,0.4,0.1,0.8,0.2,1.1l0.7,2.4c0.1,0.3,0.2,0.6,0.3,0.9
			c0,0,0,0,0.1,0.1l0.2,0.1c0.2,0.1,0.4,0.1,0.6,0.1c0.8,0.2,1.7,0.3,2.6,0.3c0.9,0.1,2.6,0.2,3.5,0.3c0.8,0,1.7,0.2,2.5,0.4
			c-0.9,0.3-1.7,0.5-2.7,0.6c-0.9,0.1-1.8,0.2-2.7,0.2c-0.9,0-1.8,0-2.7-0.1c-0.5,0-1-0.1-1.4-0.2c-0.2,0-0.3-0.1-0.5-0.2
			c-0.2-0.1-0.3-0.2-0.5-0.3c-0.1-0.1-0.2-0.3-0.3-0.5c-0.1-0.1-0.1-0.3-0.2-0.4c-0.4-0.9-0.6-1.7-0.9-2.6l-0.2-0.6l-0.1-0.2
			l-0.1-0.3l-0.1-0.3l-0.3-1.3c-0.4-1.7-0.8-3.4-1.2-5.2c-0.8-3.4-1.6-6.5-2.4-9.9l-1.3-5.2c-0.2-0.9-0.4-1.7-0.5-2.6
			C73.5,104.3,73.4,103.2,73.4,102.2z"/>
		<path class="st0" d="M73.1,155c1.1-0.1,2.4,0.2,3.4,0.2h1.6H78c0.5,0,1,0,1.5,0c2-0.1,3.9-0.6,5.7-1.4c3.8-1.6,7.1-3.5,10.8-5.5
			s6.6-3.5,10.2-5.6l5-2.9h0.1l0.1-0.1c0.5-0.5,1-1,1.5-1.5c0.5-0.4,0.9-0.8,1.3-1.4c0.5-0.8,0.9-1.7,1.2-2.6c0.1,1.1,0,2.2-0.4,3.3
			c-0.2,0.6-0.6,1.1-1,1.5c-0.4,0.3-0.7,0.7-1,1.1l-0.4,0.5c-0.2,0.2-0.4,0.4-0.6,0.6l-4.2,2.7c-3.5,2.2-7.1,4.4-10.7,6.4
			c-3.6,2-7.2,3.7-11,5.1c-0.5,0.2-1,0.4-1.5,0.5c-0.5,0.1-1,0.4-1.5,0.5s-1,0.3-1.6,0.3l-0.9,0.1H80h-0.4c-0.6,0-1.1-0.1-1.6-0.2
			h-0.1c-0.5-0.1-1-0.2-1.5-0.3C75.3,156,74.1,155.6,73.1,155z"/>
		<path class="st0" d="M33.8,142.4c2.3,3,5,6.9,7.3,10l6.8,9.1c1.2,1.5,2.3,3,3.5,4.5s2.3,3,3.6,4.4c1.3,1.4,2.7,2.5,4.3,3.5
			c1.6,1,3.3,1.8,5,2.6l10.3,4.8c1.7,0.8,3.4,1.5,5.1,2.1c1.7,0.6,3.5,1,5.3,1.5l5.4,1.4c1.7,0.4,3.5,0.6,5.3,0.6
			c1.8-0.1,3.6-0.4,5.3-0.9c1.8-0.5,3.6-1.1,5.3-1.7c3.5-1.4,6.9-2.8,10.2-4.1c1.6-0.7,3.2-1.4,4.7-2.2c1.5-0.8,2.8-1.8,4-2.9
			c0.1-0.1,0.3-0.3,0.4-0.4l0.2-0.3l0.2-0.2c0.3-0.3,0.6-0.6,0.9-0.9c0.6-0.6,1.1-1.3,1.6-2c1-1.4,1.9-2.9,2.7-4.4
			c1.7-3.1,3.6-6.2,5.2-9.7c1.5-3.4,2.9-6.8,4-10.3l0.9-2.6c0.3-0.9,0.7-1.8,1-2.6c0.7-1.7,1.3-3.4,1.7-5.2l0.5,0.1l-0.5-0.2l0,0
			v-0.1V136l0.1-0.3c0.3-1.1,0.5-2.2,0.6-3.3c0.1-1.3,0.2-2.7,0.2-4.1c0-2.8-0.1-5.7-0.2-7.6c-0.1-3.8-0.4-6.8-0.6-10.6
			c0.6,3.8,1.1,7.6,1.4,11.4c0.4,3.8,0.4,7.7,0.2,11.5c-0.2,1.2-0.4,2.4-0.7,3.6l0,0c-0.4,1.6-0.9,3.2-1.5,4.7l-0.9,2.2l-0.8,2.3
			c-1,3.1-2,6.2-3.3,9.2c-1.5,3.6-3.2,7-5.1,10.3c-0.9,1.6-1.8,3.4-2.8,5c-1,1.7-2.3,3.2-3.6,4.6l-0.5,0.5c-0.1,0.1-0.3,0.4-0.5,0.6
			c-0.4,0.4-0.7,0.7-1.1,1c-0.8,0.6-1.6,1.2-2.4,1.7c-1.7,1-3.4,1.9-5.2,2.6c-3.5,1.5-7,3-10.6,4.4c-1.8,0.7-3.6,1.3-5.5,1.8
			c-1.8,0.5-3.7,0.8-5.7,0.9c-1.9,0-3.8-0.2-5.7-0.6l-5.1-1.4c-1.8-0.5-3.5-0.9-5.3-1.5c-1.8-0.6-3.5-1.3-5.2-2.1L64.4,178
			c-1.8-0.8-3.5-1.7-5.2-2.6c-1.7-1-3.3-2.2-4.6-3.6c-0.7-0.7-1.3-1.5-1.9-2.2l-1.8-2.3l-3.5-4.6c-2.3-3.1-4.5-6.2-6.6-9.4
			C38.7,150.1,35.7,145.8,33.8,142.4z"/>
		<path class="st0" d="M135.2,71.9c-0.4-0.7-0.6-1.5-0.7-2.3c0-0.8,0.1-1.6,0.2-2.4c0.1-0.8,0.3-1.6,0.6-2.3c0.2-0.4,0.4-0.7,0.7-1
			c0.3-0.3,0.5-0.5,0.8-0.8c1.3-1.3,3.2-1.6,4.8-0.8c0.8,0.3,1.5,0.8,2.1,1.4c0.6,0.5,1.1,1.1,1.6,1.7c0.9,1.1,1.8,2.3,2.6,3.4
			c0.4,0.6,0.8,1.2,1.1,1.8l0.5,0.9l0.2,0.5l0.1,0.2l0.1,0.1v0.1l0.1,0.2v-0.1c1.3,2.8,2.3,5.6,3.1,8.6l0.6,2.1
			c0.2,0.7,0.4,1.4,0.5,2.1c0.1,0.7,0.2,1.4,0.2,2.1c0,0.7,0,1.4,0,2.1c-0.1,2.7-0.5,5.4-0.8,8.3c-0.1,1.5-0.2,2.9-0.3,4.3
			c0,0.8-0.1,1.5-0.2,2.3c-0.1,0.8-0.2,1.4-0.3,2.2c-0.1,0.5-0.2,0.9-0.4,1.4c-0.2,0.5-0.5,1.1-0.8,1.5c-0.4,0.5-0.8,0.9-1.4,1.1
			c-0.4,0.2-0.9,0.4-1.4,0.5c-1.4,0.3-2.9,0-4.1-0.8c1.4,0.3,2.8,0.2,4.1-0.3c0.6-0.2,1.1-0.6,1.5-1.1c0.2-0.2,0.4-0.5,0.5-0.8
			c0.1-0.3,0.3-0.6,0.4-0.9c0.2-0.7,0.3-1.3,0.4-2c0.1-0.7,0.2-1.4,0.2-2.2c0-0.3,0-0.7,0-1V101c0-0.8,0-1.5,0.1-2.2
			c0.2-3,0.5-5.9,0.6-8.8c0-0.7,0-1.5,0-2.1l-0.1-1c0-0.3-0.1-0.7-0.1-1c-0.1-0.7-0.3-1.3-0.5-2l-0.6-2.1c-0.8-2.8-1.7-5.6-2.9-8.3
			l0.9-0.4c-1.3,0.4-0.8,0.3-0.9,0.3l0,0v-0.1l-0.1-0.1l-0.1-0.2l-0.2-0.4l-0.4-0.9c-0.3-0.6-0.6-1.1-1-1.7
			c-0.7-1.1-1.5-2.2-2.3-3.3c-0.4-0.6-0.9-1.1-1.4-1.6c-0.4-0.5-0.9-0.9-1.5-1.1c-1-0.7-2.3-0.6-3.2,0.1c-0.2,0.2-0.5,0.4-0.8,0.7
			c-0.2,0.2-0.5,0.4-0.6,0.7c-0.3,0.6-0.6,1.2-0.8,1.8l-0.4,1.1c-0.1,0.4-0.2,0.8-0.3,1.2C135.1,70.3,135.1,71.1,135.2,71.9z"/>
		<path class="st0" d="M146,171.7c0.3,1,0.6,2.1,0.7,3.2c0.2,1,0.3,2,0.4,3l0.6,6c0.4,4,0.7,7.8,1,11.8s0.1,7.3,0.2,11.3l0.1,6
			c0,1,0,3-0.1,4c0,0.9-0.1,1.9-0.3,2.8c-0.1-1-0.2-2-0.3-3s-0.1-2-0.2-3l-0.2-6c-0.1-2-0.1-4-0.2-6s-0.2-4-0.3-6
			c-0.2-4-0.4-7.6-0.7-11.6l-0.5-6c-0.1-1-0.1-2-0.2-3S145.9,172.8,146,171.7z"/>
		<path class="st0" d="M146,133.6c0.4,1.1,0.7,2.1,1,3.2c0.3,1,0.6,2,0.8,3c0.5,2,1.1,4,1.7,5.9c1.3,3.8,2.8,7.5,4.6,11.1
			c0.9,1.9,1.7,3.5,2.6,5.1s1.7,3.3,2.8,5.1c1,1.8,2.2,3.4,3.5,5c0.3,0.4,0.8,1,1.4,1.5s1,1.2,1.4,1.5c0.6,0.7,1.3,1.4,2,2
			c-1-0.4-1.8-1-2.6-1.8c-0.4-0.4-0.8-0.7-1.1-1.1s-0.8-0.7-1.1-1.1c-1.4-1.5-2.7-3.2-3.8-5c-1.1-1.7-2.1-3.6-3.1-5.4
			s-2-3.6-2.9-5.5c-1.7-3.6-3.2-7.4-4.3-11.2c-0.6-2-1.2-4-1.6-6c-0.2-1-0.4-2-0.6-3.1C146.2,135.9,146.1,134.8,146,133.6z"/>
		<path class="st0" d="M74.7,181.6c0.6,0.6,1.2,1.2,1.7,1.9c0.5,0.6,0.9,1.2,1.4,1.9l2.5,3.9c1.7,2.6,3.3,5,4.9,7.8s2.8,4.9,4.3,7.6
			l2.3,4.1c0.4,0.7,1.1,2,1.4,2.8c0.3,0.6,0.6,1.3,0.8,2c-0.5-0.6-1-1.2-1.4-1.9s-0.8-1.3-1.2-2l-2.4-4c-1.6-2.7-3.2-5.3-4.8-8
			s-3-5.1-4.6-7.8l-2.4-4c-0.4-0.7-0.8-1.3-1.1-2C75.4,183.2,75,182.4,74.7,181.6z"/>
		<path class="st1" d="M71.5,150l2.1-7.3c0,0,0.6,8.1,0.9,7.9s2.2-6.9,2.2-6.9l2.2,6.9l0.9-7.1l3.1,5.7v-7.5l3.2,6.6v-6.6l3.1,4.9
			l-1.1-6.8"/>
		<path class="st1" d="M111.6,133l-6.6-3.9c0,0,5.2,6.3,4.8,6.3s-6.3-3.5-6.3-3.5l3.2,6.5l-5.6-4.6l1.6,6.3l-5.1-5.4l2.2,7l-4.5-4.8
			l1.1,5.7l-3.9-5.7"/>
		<polyline class="st1" points="84.1,184.3 85.5,179.4 86,185.9 87.9,179.4 88.9,185.9 90,180.4 92.6,187.6 92.7,179.8 95.6,187.6 
			95.1,180.4 99.2,186.5 97.2,179.4 101.1,185.9 100.3,179 103.6,185.1 103.6,177.6 106.8,184.9 106,177.6 109.7,183.6 108.4,175.4 
			113.7,182.2 112.7,173.8 118.2,179.8 115.6,170.9 120.8,177.5 118.6,170.9 124.4,175.2 120.4,168.7 125.4,172.4 121.7,167.8 
			128.1,169.6 123.5,165.7 129.9,168.3 124.3,163 131.8,164.5 126.7,161.4 133.1,162.4 		"/>
	</g>
	<g id="레이어_8">
		<path class="st0" d="M44.9,50.6c-0.3,0-0.5,0-0.8-0.1c-0.2,0-0.4-0.1-0.6-0.2c-0.3-0.2-0.7-0.4-1.1-0.6c-0.7-0.4-1.5-0.6-2.2-0.9
			s-1.3-0.6-2.1-0.9L37,47.5c-0.3-0.1-0.5-0.2-0.8-0.3c-0.2-0.1-0.4-0.2-0.5-0.4c0.2-0.1,0.4-0.1,0.7-0.2c0.2,0,0.4,0,0.6,0
			c0.4,0.1,0.8,0.1,1.3,0.2c0.8,0.2,1.7,0.4,2.5,0.7c0.8,0.3,1.5,0.7,2.3,1.2c0.4,0.2,0.7,0.5,1.1,0.7c0.2,0.1,0.3,0.3,0.5,0.5
			C44.6,50.1,44.8,50.3,44.9,50.6z"/>
		<path class="st0" d="M39.4,51.5c-0.2,0-0.4,0-0.5-0.1c-0.1,0-0.3-0.1-0.3-0.2L38,50.6c-0.3-0.4-0.7-0.7-1-1.1l-0.9-1.1l-0.5-0.6
			c-0.1-0.1-0.2-0.3-0.2-0.5c0-0.2,0-0.3,0-0.5c0.1,0,0.3,0,0.4,0.1c0.1,0.1,0.2,0.1,0.3,0.2l0.6,0.5c0.4,0.3,0.8,0.7,1.2,1
			c0.3,0.4,0.6,0.8,0.8,1.3c0.2,0.2,0.3,0.4,0.4,0.7c0.1,0.1,0.1,0.2,0.1,0.4C39.3,51.2,39.5,51.3,39.4,51.5z"/>
		<path class="st0" d="M38.8,51.4c-0.2,0.2-0.4,0.3-0.6,0.4c-0.2,0.1-0.4,0.1-0.5,0.1h-1.1c-0.7,0-1.4,0.2-2.1,0.2s-1.3,0.1-2,0.2
			c-0.4,0-0.7,0.1-1.1,0.2c-0.2,0-0.5,0-0.7,0c-0.2,0-0.4-0.1-0.6-0.2c0.1-0.2,0.3-0.3,0.5-0.4c0.2-0.1,0.3-0.2,0.5-0.2l1.1-0.3
			c0.7-0.2,1.5-0.3,2.2-0.5c0.7-0.1,1.4-0.1,2.2,0l1.1,0.1c0.2,0,0.4,0.1,0.5,0.1C38.3,51.2,38.6,51.2,38.8,51.4z"/>
		<path class="st0" d="M33.8,54c-0.1,0.1-0.3,0.2-0.5,0.2c-0.1,0-0.2,0-0.3,0L32.5,54c-0.3-0.1-0.7-0.2-1-0.3s-0.6-0.3-1-0.5L30,53
			c-0.3-0.1-0.5-0.4-0.5-0.6c0.1-0.1,0.2-0.1,0.3-0.2c0.1,0,0.2,0,0.3,0l0.6,0.1c0.4,0.1,0.8,0.2,1.2,0.3c0.4,0.1,0.7,0.3,1,0.6
			l0.5,0.3c0.1,0.1,0.2,0.1,0.2,0.2C33.7,53.7,33.8,53.8,33.8,54z"/>
		<path class="st0" d="M33.5,54.4c-0.2,0.3-0.5,0.5-0.7,0.6c-0.2,0.2-0.5,0.3-0.8,0.4c-0.5,0.2-1.1,0.3-1.6,0.5
			c-1,0.3-2.1,0.6-3.2,0.8c-1,0.1-2.1,0.2-3.1,0.3c-0.6,0-1.1,0-1.7,0c-0.4,0-0.7,0-1.1-0.1c-0.3,0-0.5-0.2-0.8-0.3
			c0.3-0.1,0.5-0.2,0.8-0.2c0.3-0.1,0.5-0.1,0.8-0.1c0.5,0,1.1-0.1,1.6-0.2c1.1-0.2,2.2-0.3,3.2-0.5s2.1-0.3,3.1-0.5l1.6-0.4
			c0.3-0.1,0.5-0.1,0.8-0.1C32.9,54.4,33.2,54.4,33.5,54.4z"/>
		<path class="st0" d="M24.7,57.8c-0.1,0.2-0.3,0.3-0.5,0.4c-0.1,0.1-0.3,0.1-0.4,0.1H23c-0.6,0-1.1,0-1.7-0.1
			c-0.5-0.1-1-0.3-1.5-0.5L19,57.4c-0.2-0.1-0.3-0.2-0.5-0.3c-0.1-0.1-0.2-0.3-0.2-0.5c0.2-0.1,0.3-0.1,0.5-0.1c0.1,0,0.3,0,0.4,0
			l0.8,0.2c0.5,0.1,1.1,0.2,1.6,0.3s1,0.2,1.5,0.3l0.8,0.1c0.1,0,0.3,0.1,0.4,0.1C24.4,57.6,24.6,57.6,24.7,57.8z"/>
		<path class="st0" d="M24.3,58.1c-0.3,0.4-0.6,0.8-1,1.1c-0.3,0.3-0.7,0.6-1.1,0.8L20,61.5c-1.5,1-2.9,1.9-4.4,2.9
			c-1.5,0.9-2.7,1.7-4.2,2.7l-2.3,1.4c-0.5,0.3-1,0.6-1.6,0.9c-0.4,0.2-0.8,0.3-1.2,0.4c0.3-0.3,0.6-0.7,1-0.9
			C7.6,68.5,8,68.3,8.3,68l2.2-1.6l4.4-3.1c1.5-1,3-1.7,4.5-2.7l2.3-1.4c0.4-0.2,0.8-0.4,1.2-0.6C23.4,58.5,23.8,58.3,24.3,58.1z"/>
		<path class="st0" d="M14.3,68.6c-0.1,0.2-0.2,0.4-0.4,0.6c-0.1,0.1-0.3,0.3-0.5,0.3c-0.3,0.1-0.7,0.3-1,0.4
			c-0.7,0.3-1.4,0.5-2.1,0.7c-0.7,0.1-1.4,0.2-2.1,0.2c-0.4,0-0.7,0-1.1,0c-0.3,0-0.5,0-0.7-0.1c-0.2-0.1-0.4-0.2-0.5-0.3
			c0.2-0.1,0.3-0.2,0.5-0.2c0.2-0.1,0.4-0.1,0.6-0.1c0.3,0,0.7-0.1,1-0.2c0.7-0.1,1.4-0.3,2.1-0.4s1.3-0.2,2-0.4l1-0.3
			c0.2-0.1,0.4-0.1,0.5-0.1C13.8,68.6,14,68.5,14.3,68.6z"/>
		<path class="st0" d="M14.4,69c0,0.3-0.1,0.5-0.3,0.7c-0.1,0.2-0.2,0.4-0.4,0.5l-0.9,0.9c-0.6,0.6-1,1.2-1.6,1.8s-1.1,1-1.6,1.7
			l-0.8,1c-0.2,0.2-0.4,0.4-0.6,0.6c-0.2,0.1-0.4,0.3-0.6,0.3c0-0.2,0.1-0.5,0.2-0.7c0.1-0.2,0.1-0.4,0.3-0.6
			c0.2-0.4,0.5-0.7,0.7-1.1c0.5-0.7,1-1.4,1.6-2.1c0.6-0.6,1.2-1.2,1.8-1.7c0.3-0.3,0.6-0.6,1-0.8c0.2-0.1,0.4-0.2,0.6-0.3
			C13.9,69.1,14.2,69,14.4,69z"/>
		<path class="st0" d="M13.6,74c0,0.2,0,0.4-0.1,0.6c0,0.2-0.1,0.3-0.2,0.4c-0.2,0.2-0.4,0.4-0.7,0.6c-0.5,0.4-1,0.7-1.5,1
			c-0.5,0.2-1.1,0.4-1.7,0.5c-0.3,0.1-0.6,0.1-0.9,0.2c-0.2,0-0.4,0-0.6-0.1c-0.2,0-0.3-0.1-0.5-0.3c0.1-0.1,0.3-0.2,0.4-0.3
			c0.1-0.1,0.3-0.1,0.4-0.2c0.3-0.1,0.5-0.2,0.8-0.3c0.5-0.2,1-0.4,1.5-0.7c0.5-0.3,1-0.4,1.5-0.7c0.2-0.2,0.5-0.3,0.7-0.5
			c0.1-0.1,0.3-0.2,0.4-0.2C13.2,74.1,13.4,73.9,13.6,74z"/>
		<path class="st0" d="M9.2,81.9c-0.1-0.2-0.1-0.5,0-0.7c0-0.2,0.1-0.4,0.1-0.5l0.5-1c0.3-0.6,0.6-1.3,1-1.9s0.7-1.1,1.1-1.7
			l0.6-0.9c0.1-0.2,0.3-0.4,0.5-0.5c0.2-0.1,0.3-0.2,0.6-0.3c0,0.2,0,0.4-0.1,0.6c-0.1,0.2-0.1,0.3-0.2,0.5l-0.5,1l-1,1.9
			c-0.4,0.6-0.8,1.1-1.2,1.7l-0.6,0.9c-0.1,0.2-0.2,0.3-0.4,0.4C9.5,81.6,9.4,81.8,9.2,81.9z"/>
		<path class="st0" d="M12.5,79.2c0.1,0.1,0.1,0.3,0.1,0.5c0,0.1,0,0.2-0.1,0.3l-0.4,0.4c-0.2,0.3-0.5,0.6-0.8,0.8
			c-0.3,0.2-0.6,0.3-0.9,0.5c-0.2,0.1-0.4,0.1-0.5,0.2c-0.1,0-0.3,0-0.4,0c-0.1,0-0.3-0.1-0.4-0.2c0-0.1,0.1-0.2,0.1-0.3
			c0-0.1,0.1-0.1,0.2-0.2l0.4-0.3c0.3-0.2,0.5-0.4,0.8-0.7s0.6-0.3,0.8-0.6l0.4-0.3c0.1-0.1,0.2-0.1,0.3-0.1
			C12.2,79.2,12.3,79.1,12.5,79.2z"/>
		<path class="st0" d="M12.5,79.5c0.2,0.2,0.2,0.3,0.2,0.4c0.1,0.1,0.1,0.2,0.1,0.4L12.7,81c-0.1,0.4-0.2,0.9-0.3,1.3
			c-0.2,0.4-0.4,0.7-0.7,1.1c-0.1,0.2-0.3,0.4-0.4,0.6c-0.1,0.1-0.2,0.2-0.4,0.3c-0.1,0.1-0.3,0.1-0.4,0.1c0-0.1,0-0.3,0-0.4
			c0-0.1,0.1-0.2,0.1-0.3l0.3-0.6c0.2-0.4,0.3-0.8,0.5-1.2s0.4-0.7,0.5-1.1L12,80c0-0.1,0.1-0.2,0.2-0.3
			C12.2,79.7,12.3,79.6,12.5,79.5z"/>
		<path class="st0" d="M12.8,82.2c0.1,0.1,0.1,0.2,0.2,0.4c0,0.1,0,0.2,0,0.2l-0.2,0.3c-0.1,0.2-0.3,0.5-0.4,0.7
			c-0.2,0.1-0.4,0.3-0.7,0.3l-0.4,0.2c-0.1,0-0.2,0-0.3,0c-0.1,0-0.2-0.1-0.3-0.2c0-0.1,0-0.2,0-0.3c0-0.1,0.1-0.1,0.1-0.2l0.2-0.3
			c0.2-0.2,0.3-0.3,0.5-0.5s0.4-0.2,0.6-0.4l0.2-0.2c0.1,0,0.1-0.1,0.2-0.1C12.5,82.2,12.6,82.1,12.8,82.2z"/>
		<path class="st0" d="M12.7,82.5c0.2,0.1,0.3,0.3,0.3,0.5c0,0.1,0,0.3,0,0.4l-0.2,0.7c-0.1,0.5-0.2,0.9-0.4,1.4
			c-0.2,0.4-0.4,0.8-0.7,1.2l-0.4,0.6c-0.1,0.1-0.2,0.3-0.4,0.3c-0.1,0.1-0.3,0.1-0.4,0.1c0-0.1-0.1-0.3-0.1-0.4
			c0-0.1,0-0.2,0.1-0.3l0.3-0.7c0.2-0.4,0.3-0.9,0.5-1.3c0.1-0.4,0.4-0.8,0.6-1.2l0.3-0.7c0-0.1,0.1-0.2,0.2-0.3
			C12.5,82.7,12.5,82.5,12.7,82.5z"/>
		<path class="st0" d="M11,87.6c0.5,1,0.9,2.1,1.2,3.2c0.4,1,0.7,2,1,3c0.6,2,1.2,4,1.8,6c1.3,4,2.6,7.6,4,11.5s2.6,7,4.2,10.9
			c0.8,1.9,1.6,3.8,2.5,5.7c0.4,1,1.3,2.8,1.6,3.8c0.4,0.9,0.7,1.8,1,2.7c-0.6-0.9-1.1-1.8-1.6-2.7s-1-1.8-1.4-2.8
			c-0.9-1.9-1.8-3.8-2.6-5.7c-1.7-3.8-3.3-7.7-4.8-11.6c-1.5-3.9-2.6-7.5-3.8-11.5c-0.6-2-1.2-4-1.7-6c-0.3-1-0.5-2-0.7-3
			S11.1,88.6,11,87.6z"/>
		<path class="st0" d="M41.6,45.8c0.2,0,0.4,0,0.5,0c0.1,0,0.2,0.1,0.3,0.2c0.2,0.2,0.3,0.3,0.5,0.5c0.3,0.3,0.6,0.6,0.9,1
			c0.2,0.4,0.4,0.8,0.5,1.2c0.1,0.2,0.2,0.4,0.2,0.7c0,0.2,0,0.3,0,0.5c0,0.2-0.1,0.3-0.2,0.4c-0.1,0-0.2-0.1-0.3-0.2
			c-0.1-0.1-0.2-0.2-0.2-0.3l-0.3-0.6c-0.2-0.4-0.5-0.7-0.8-1.1s-0.4-0.7-0.6-1.1l-0.4-0.5c-0.1-0.1-0.1-0.2-0.1-0.3
			C41.7,46.1,41.5,46,41.6,45.8z"/>
		<path class="st0" d="M42.1,45.8c0.2-0.1,0.4-0.1,0.6-0.1c0.1,0,0.3,0,0.4,0.1c0.2,0.1,0.5,0.3,0.7,0.4c0.5,0.3,0.9,0.6,1.3,1
			c0.3,0.4,0.6,0.8,0.9,1.2c0.2,0.2,0.3,0.5,0.4,0.7c0.1,0.2,0.1,0.4,0.1,0.5c0,0.2,0,0.3-0.1,0.5c-0.1-0.1-0.3-0.1-0.4-0.2
			c-0.1-0.1-0.2-0.2-0.3-0.3c-0.2-0.2-0.3-0.4-0.5-0.6c-0.3-0.4-0.7-0.7-1-1.1c-0.3-0.3-0.6-0.7-1-1c-0.2-0.2-0.4-0.3-0.6-0.5
			c-0.1-0.1-0.2-0.2-0.3-0.3C42.3,46.1,42.2,46,42.1,45.8z"/>
		<path class="st0" d="M45.3,45.1c0.2,0,0.3,0.1,0.5,0.2c0.1,0.1,0.2,0.2,0.2,0.3l0.2,0.6c0.2,0.4,0.3,0.8,0.4,1.1
			c0.1,0.4,0.1,0.8,0.1,1.2V49c0,0.1,0,0.3-0.1,0.4c-0.1,0.1-0.2,0.3-0.3,0.3c-0.1-0.1-0.2-0.2-0.3-0.3C46,49.4,46,49.3,46,49.2
			l-0.2-0.6c-0.1-0.4-0.2-0.8-0.4-1.1c-0.1-0.4-0.1-0.8-0.2-1.1l-0.1-0.6c0-0.1,0-0.2,0-0.3C45.2,45.4,45.2,45.2,45.3,45.1z"/>
		<path class="st0" d="M48.2,49.8c-0.2,0.1-0.3,0.1-0.5,0c-0.1,0-0.2-0.1-0.3-0.2l-0.4-0.5c-0.3-0.3-0.5-0.6-0.7-1
			c-0.1-0.4-0.3-0.8-0.3-1.2l-0.2-0.6c0-0.1,0-0.3,0-0.4c0-0.1,0.1-0.3,0.2-0.4c0.1,0,0.2,0.1,0.3,0.2c0.1,0.1,0.2,0.1,0.2,0.2
			l0.3,0.5c0.2,0.3,0.4,0.7,0.6,1s0.3,0.7,0.5,1l0.3,0.5c0.1,0.1,0.1,0.2,0.1,0.3C48.3,49.5,48.3,49.6,48.2,49.8z"/>
		<path class="st0" d="M46.5,40.3c0.2,0.1,0.5,0.2,0.6,0.5c0.2,0.1,0.3,0.3,0.4,0.5c0.2,0.4,0.3,0.8,0.5,1.1
			c0.3,0.7,0.6,1.5,0.7,2.3c0.1,0.8,0.2,1.5,0.2,2.3c0,0.4,0,0.8,0,1.2c0,0.3-0.1,0.6-0.2,0.8c-0.1,0.2-0.2,0.4-0.4,0.5
			c-0.1-0.2-0.2-0.4-0.2-0.6c0-0.2-0.1-0.4-0.1-0.6c0-0.4-0.1-0.8-0.1-1.2c-0.1-0.8-0.3-1.5-0.5-2.2c-0.2-0.8-0.2-1.5-0.5-2.2
			c-0.1-0.4-0.2-0.8-0.4-1.1c-0.1-0.2-0.1-0.4-0.1-0.6C46.5,40.8,46.5,40.6,46.5,40.3z"/>
		<path class="st0" d="M54.5,44.9c-0.2,0.1-0.5,0.1-0.7,0c-0.2,0-0.3-0.1-0.5-0.2l-0.9-0.5c-0.6-0.3-1.2-0.6-1.8-0.9s-1-0.7-1.6-1
			l-0.9-0.5c-0.2-0.1-0.4-0.2-0.6-0.4c-0.2-0.1-0.3-0.3-0.3-0.5c0.2,0,0.4-0.1,0.6,0c0.2,0,0.4,0,0.5,0.1l1,0.3
			c0.7,0.2,1.3,0.5,2,0.8c0.6,0.3,1.2,0.7,1.7,1.1c0.3,0.2,0.6,0.4,0.8,0.6c0.1,0.1,0.3,0.2,0.3,0.4C54.3,44.5,54.5,44.7,54.5,44.9z
			"/>
		<path class="st0" d="M51.7,40.6c0.2-0.1,0.4-0.1,0.5,0c0.1,0,0.2,0.1,0.3,0.1c0.2,0.1,0.3,0.3,0.5,0.5c0.3,0.3,0.6,0.6,0.9,1
			c0.2,0.4,0.4,0.8,0.5,1.2c0.1,0.2,0.1,0.5,0.2,0.7c0,0.2,0,0.3,0,0.5c0,0.2-0.1,0.3-0.2,0.4c-0.1-0.1-0.2-0.1-0.3-0.2
			c-0.1-0.1-0.1-0.2-0.2-0.3c-0.1-0.2-0.2-0.4-0.3-0.6c-0.2-0.3-0.4-0.7-0.7-1c-0.2-0.3-0.3-0.7-0.6-1c-0.1-0.2-0.2-0.3-0.4-0.5
			c-0.1-0.1-0.1-0.2-0.1-0.3C51.7,40.9,51.6,40.8,51.7,40.6z"/>
		<path class="st0" d="M57.6,42.7c-0.2,0.1-0.3,0.2-0.5,0.2c-0.1,0-0.3,0-0.4,0L56,42.7c-0.5-0.2-1-0.2-1.4-0.4s-0.8-0.4-1.3-0.6
			l-0.7-0.3c-0.2-0.1-0.3-0.2-0.4-0.3c-0.1-0.1-0.2-0.3-0.2-0.5c0.1-0.1,0.3-0.1,0.4-0.1c0.1,0,0.3,0,0.4,0.1l0.7,0.2l1.5,0.4
			c0.5,0.2,0.9,0.5,1.3,0.7l0.7,0.3c0.1,0.1,0.2,0.1,0.3,0.2C57.4,42.4,57.6,42.5,57.6,42.7z"/>
		<path class="st0" d="M57.7,42.7c-0.1,0-0.3,0-0.4,0c-0.1,0-0.2,0-0.2-0.1l-0.2-0.3c-0.2-0.2-0.3-0.4-0.5-0.6
			c-0.1-0.2-0.2-0.4-0.2-0.7L56,40.7c0-0.1,0-0.2,0-0.3c0-0.1,0.1-0.3,0.2-0.4c0.1,0,0.2,0,0.3,0c0.1,0,0.1,0.1,0.2,0.1l0.3,0.3
			c0.2,0.2,0.3,0.4,0.5,0.6s0.1,0.5,0.2,0.7l0.1,0.4c0,0.1,0,0.1,0,0.2C57.8,42.5,57.9,42.6,57.7,42.7z"/>
		<path class="st0" d="M62.3,41.9c-0.1,0.1-0.3,0.2-0.5,0.2c-0.1,0-0.3,0-0.4,0L60.6,42c-0.5-0.1-1-0.2-1.5-0.3
			c-0.5-0.2-0.9-0.4-1.4-0.6L57,40.8c-0.2-0.1-0.3-0.2-0.4-0.3c-0.1-0.1-0.2-0.3-0.2-0.5c0.1-0.1,0.3-0.1,0.5-0.1c0.1,0,0.3,0,0.4,0
			l0.8,0.2l1.5,0.4c0.5,0.2,0.9,0.4,1.4,0.5l0.7,0.2c0.1,0,0.2,0.1,0.3,0.2C62,41.7,62.2,41.7,62.3,41.9z"/>
		<path class="st0" d="M62.3,41.9c-0.2,0-0.4,0-0.5-0.2c-0.1,0-0.2-0.1-0.3-0.2l-0.4-0.6c-0.3-0.4-0.6-0.8-0.8-1.2
			c-0.2-0.5-0.3-0.9-0.5-1.3l-0.3-0.7c-0.1-0.2-0.1-0.3-0.1-0.5c0-0.2,0.1-0.3,0.2-0.5c0.1,0.1,0.3,0.1,0.4,0.2
			c0.1,0.1,0.2,0.2,0.2,0.3l0.4,0.6l0.8,1.3c0.2,0.4,0.3,0.9,0.6,1.3l0.3,0.7c0.1,0.1,0.1,0.2,0.1,0.4
			C62.3,41.6,62.4,41.7,62.3,41.9z"/>
		<path class="st0" d="M69.4,38.4c-0.2,0.2-0.4,0.4-0.7,0.5c-0.2,0.1-0.4,0.2-0.7,0.2c-0.4,0-0.9,0-1.3,0c-0.9,0-1.8-0.1-2.6-0.4
			c-0.8-0.2-1.6-0.5-2.3-0.8l-1.2-0.5c-0.3-0.1-0.5-0.3-0.8-0.4c-0.2-0.1-0.3-0.3-0.5-0.5c0.2,0,0.5,0,0.7,0c0.2,0,0.4,0.1,0.6,0.1
			l1.2,0.3c0.8,0.2,1.7,0.4,2.5,0.6c0.8,0.2,1.5,0.4,2.3,0.6c0.4,0,0.8,0.1,1.2,0.1c0.2,0,0.4,0,0.6,0.1
			C69,38.2,69.2,38.3,69.4,38.4z"/>
		<path class="st0" d="M70,38.3c-0.2,0-0.4-0.1-0.5-0.3c-0.1-0.1-0.2-0.2-0.3-0.3l-0.4-0.8c-0.3-0.5-0.5-1-0.7-1.5
			c-0.1-0.5-0.2-1-0.3-1.5l-0.2-0.8c0-0.2,0-0.4,0-0.6c0-0.2,0.1-0.3,0.2-0.4c0.1,0.1,0.2,0.2,0.3,0.3c0.1,0.1,0.1,0.2,0.2,0.4
			l0.3,0.8l0.6,1.5c0.2,0.5,0.3,1,0.4,1.5l0.3,0.8c0,0.1,0,0.3,0,0.4C70,37.9,70.1,38.1,70,38.3z"/>
		<path class="st0" d="M76.8,35.6c-0.2,0.1-0.5,0.2-0.7,0.2c-0.2,0-0.4,0-0.6,0l-1.2-0.3c-0.8-0.2-1.6-0.4-2.3-0.7
			c-0.7-0.3-1.4-0.7-2.1-1.1L68.8,33c-0.2-0.1-0.5-0.3-0.7-0.5c-0.2-0.2-0.3-0.4-0.3-0.6c0.2,0,0.4,0,0.7,0.1
			c0.2,0.1,0.4,0.1,0.6,0.2l1.1,0.5c0.7,0.3,1.5,0.6,2.2,0.9s1.4,0.6,2.1,0.9l1.2,0.4c0.2,0.1,0.4,0.2,0.6,0.3
			C76.4,35.3,76.7,35.3,76.8,35.6z"/>
		<path class="st0" d="M74.6,33.4c0.1-0.1,0.3-0.1,0.4-0.1c0.1,0,0.2,0,0.2,0l0.3,0.2c0.2,0.1,0.4,0.3,0.6,0.5
			c0.2,0.2,0.3,0.4,0.4,0.7l0.2,0.3c0.1,0.1,0.1,0.2,0.1,0.3c0,0.1,0,0.3-0.1,0.4c-0.1,0-0.2,0-0.3,0c-0.1,0-0.1,0-0.2-0.1L76,35.4
			c-0.2-0.2-0.5-0.3-0.7-0.5c-0.2-0.2-0.3-0.4-0.5-0.7l-0.3-0.3c-0.1-0.1-0.1-0.1-0.1-0.2C74.5,33.6,74.5,33.5,74.6,33.4z"/>
		<path class="st0" d="M74.8,33.5c0.1-0.1,0.2-0.2,0.3-0.2c0.1-0.1,0.1-0.1,0.2-0.1l0.3,0.1c0.2,0,0.5,0,0.7,0s0.4,0.2,0.6,0.3
			l0.3,0.1c0.1,0,0.2,0.1,0.2,0.2c0.1,0.1,0.1,0.2,0.2,0.3c0,0.1-0.1,0.2-0.2,0.2c-0.1,0-0.1,0.1-0.2,0.1h-0.4c-0.3,0-0.5,0-0.8,0
			c-0.2-0.1-0.5-0.2-0.7-0.3c-0.1,0-0.2-0.1-0.4-0.2c-0.1,0-0.1-0.1-0.1-0.2C74.8,33.8,74.7,33.7,74.8,33.5z"/>
		<path class="st0" d="M76.3,32c0.1,0,0.3,0,0.4,0c0.1,0,0.2,0,0.2,0.1l0.2,0.3c0.2,0.1,0.3,0.3,0.4,0.5c0.1,0.2,0.2,0.4,0.2,0.6
			l0.1,0.3C78,33.8,78,33.9,78,34c0,0.1-0.1,0.3-0.2,0.4c-0.1,0-0.2,0-0.3,0c-0.1,0-0.1,0-0.2-0.1L77.1,34c-0.2-0.2-0.4-0.3-0.5-0.5
			c-0.1-0.2-0.2-0.4-0.3-0.7c0-0.1-0.1-0.2-0.1-0.3c0-0.1,0-0.1,0-0.2C76.2,32.2,76.2,32.1,76.3,32z"/>
		<path class="st0" d="M83.2,34.3c-0.2,0.1-0.4,0.2-0.6,0.2c-0.2,0-0.3,0-0.5,0l-0.9-0.2c-0.6-0.1-1.2-0.2-1.8-0.4
			c-0.6-0.2-1.1-0.5-1.6-0.9c-0.3-0.2-0.5-0.4-0.8-0.5c-0.2-0.1-0.3-0.3-0.4-0.5c-0.1-0.2-0.2-0.3-0.2-0.5c0.2,0,0.4,0,0.5,0.1
			c0.1,0,0.3,0.1,0.4,0.2c0.3,0.1,0.5,0.3,0.8,0.4c0.6,0.2,1.1,0.4,1.7,0.6s1.1,0.4,1.7,0.6l0.9,0.3c0.2,0.1,0.3,0.1,0.4,0.2
			C82.8,34,83.1,34.1,83.2,34.3z"/>
		<path class="st0" d="M80.5,31c0.2,0,0.3,0,0.5,0c0.1,0,0.2,0.1,0.3,0.1l0.4,0.4c0.3,0.2,0.5,0.5,0.7,0.8c0.2,0.3,0.3,0.6,0.4,0.9
			l0.2,0.5c0.1,0.1,0.1,0.2,0.1,0.4c0,0.1-0.1,0.3-0.1,0.4c-0.1,0-0.2,0-0.3-0.1c-0.1,0-0.2-0.1-0.2-0.2l-0.4-0.4
			c-0.2-0.3-0.5-0.5-0.7-0.8c-0.2-0.3-0.4-0.6-0.5-0.9l-0.3-0.4c0-0.1-0.1-0.2-0.1-0.3C80.5,31.3,80.4,31.2,80.5,31z"/>
		<path class="st0" d="M88.3,33.4c-0.2,0.1-0.4,0.2-0.7,0.1c-0.2,0-0.4,0-0.5,0l-1-0.3c-0.6-0.2-1.3-0.3-1.9-0.5s-1.1-0.5-1.8-0.7
			l-1-0.3c-0.2-0.1-0.4-0.2-0.6-0.3c-0.2-0.1-0.3-0.3-0.4-0.5c0.2-0.1,0.4-0.1,0.6-0.1c0.2,0,0.3,0,0.5,0l1,0.2
			c0.7,0.1,1.3,0.3,2,0.5c0.6,0.2,1.3,0.5,1.8,0.8l0.9,0.4c0.2,0.1,0.3,0.2,0.4,0.3C88,33.1,88.3,33.2,88.3,33.4z"/>
		<path class="st0" d="M86.5,30.8c0.1-0.1,0.3-0.1,0.4-0.1c0.1,0,0.2,0,0.3,0.1l0.3,0.3c0.2,0.2,0.4,0.4,0.6,0.6
			c0.1,0.3,0.2,0.5,0.2,0.8c0,0.2,0.1,0.3,0.1,0.4c0,0.1,0,0.2-0.1,0.3c-0.1,0.1-0.2,0.2-0.3,0.3c-0.1,0-0.2-0.1-0.3-0.1
			c-0.1,0-0.1-0.1-0.2-0.2L87.6,33c-0.2-0.2-0.3-0.4-0.4-0.6s-0.2-0.5-0.3-0.7l-0.2-0.3c0-0.1,0-0.1,0-0.2
			C86.5,31.1,86.4,31,86.5,30.8z"/>
		<path class="st0" d="M91.8,33.4c-0.2,0-0.4,0-0.6,0c-0.1,0-0.3,0-0.4-0.1l-0.6-0.4c-0.4-0.2-0.8-0.4-1.2-0.6s-0.7-0.5-1.1-0.7
			c-0.2-0.1-0.4-0.2-0.6-0.3c-0.2-0.1-0.3-0.2-0.4-0.3c-0.1-0.1-0.2-0.3-0.2-0.4c0.1-0.1,0.3-0.1,0.4-0.1c0.1,0,0.3,0,0.4,0l0.7,0.2
			c0.5,0.2,1,0.4,1.4,0.6c0.4,0.3,0.8,0.6,1.2,0.9c0.2,0.2,0.4,0.3,0.6,0.5c0.1,0.1,0.2,0.2,0.2,0.3C91.7,33.1,91.8,33.2,91.8,33.4z
			"/>
		<path class="st0" d="M90.9,31.9c0.1-0.1,0.2-0.1,0.4-0.1c0.1,0,0.1,0,0.2,0c0.1,0.1,0.2,0.1,0.2,0.2c0.2,0.1,0.3,0.3,0.4,0.5
			c0,0.2,0,0.4,0,0.6c0,0.1,0,0.2,0,0.3c0,0.1-0.1,0.2-0.1,0.2c-0.1,0.1-0.2,0.1-0.3,0.2c-0.1,0-0.2,0-0.2-0.1c0,0-0.1-0.1-0.1-0.1
			c0-0.1-0.1-0.1-0.1-0.2c-0.1-0.1-0.2-0.2-0.2-0.4s0-0.3-0.1-0.4l-0.1-0.2c0,0,0-0.1,0-0.2S90.8,32,90.9,31.9z"/>
		<path class="st0" d="M94.1,33.2c-0.1,0.1-0.2,0.2-0.4,0.2c-0.1,0-0.2,0-0.3,0l-0.4-0.2c-0.3-0.1-0.5-0.2-0.8-0.3
			c-0.2-0.1-0.4-0.3-0.6-0.5l-0.3-0.3c-0.1-0.1-0.1-0.2-0.2-0.3c0-0.1,0-0.3,0-0.4c0.1-0.1,0.2-0.1,0.3-0.1c0.1,0,0.2,0,0.2,0
			l0.4,0.1c0.3,0.1,0.6,0.2,0.8,0.3c0.2,0.2,0.5,0.3,0.7,0.5l0.4,0.2c0.1,0,0.1,0.1,0.1,0.2C94.1,33,94.2,33,94.1,33.2z"/>
		<path class="st0" d="M91.8,29.7c0.2-0.1,0.3-0.1,0.5,0c0.1,0,0.2,0,0.3,0.1c0.1,0.1,0.3,0.3,0.4,0.4c0.3,0.3,0.5,0.6,0.7,0.9
			c0.2,0.3,0.3,0.7,0.4,1c0.1,0.2,0.1,0.4,0.2,0.6c0,0.1,0,0.3,0,0.4c0,0.1-0.1,0.3-0.2,0.4c-0.1,0-0.2-0.1-0.3-0.2
			c-0.1-0.1-0.1-0.1-0.2-0.2l-0.3-0.5c-0.2-0.3-0.4-0.6-0.6-0.9s-0.3-0.6-0.5-0.9L92,30.4c-0.1-0.1-0.1-0.2-0.1-0.3
			C91.8,30,91.8,29.9,91.8,29.7z"/>
		<path class="st0" d="M92,29.8c0.4-0.1,0.8-0.1,1.2,0c0.3,0,0.7,0.1,1,0.2c0.7,0.2,1.4,0.5,2,0.9c1.2,0.6,2.4,1.4,3.5,2.3
			c1,0.9,1.8,1.7,2.8,2.7l1.5,1.4c0.3,0.3,0.6,0.6,0.9,1c0.2,0.3,0.4,0.6,0.5,0.9c-0.3-0.1-0.6-0.3-0.9-0.5
			c-0.3-0.2-0.6-0.4-0.8-0.6l-1.6-1.3L98.9,34c-1-0.9-2-1.6-3.1-2.3c-0.6-0.3-1.2-0.6-1.8-0.9c-0.3-0.1-0.6-0.3-0.9-0.5
			C92.7,30.2,92.3,30,92,29.8z"/>
		<path class="st0" d="M102.7,41.1c0.1-0.2,0.2-0.3,0.4-0.3c0.1-0.1,0.2-0.1,0.3-0.1h0.6c0.4,0,0.8-0.1,1.2-0.1s0.7,0.1,1.2,0.1h0.6
			c0.2,0,0.3,0,0.4,0.1c0.1,0.1,0.3,0.2,0.3,0.3c-0.1,0.1-0.2,0.2-0.3,0.3c-0.1,0.1-0.2,0.1-0.3,0.1l-0.6,0.1
			c-0.4,0.1-0.9,0.2-1.3,0.2c-0.4,0-0.8,0-1.3-0.1l-0.6-0.1c-0.1,0-0.2-0.1-0.3-0.1C103,41.3,102.8,41.3,102.7,41.1z"/>
		<path class="st0" d="M102.8,41.3c0.2-0.1,0.3-0.1,0.5-0.1c0.1,0,0.2,0,0.4,0c0.2,0.1,0.4,0.2,0.6,0.2c0.4,0.1,0.8,0.2,1.3,0.3
			s0.7,0.3,1.2,0.4c0.2,0.1,0.4,0.1,0.7,0.2c0.2,0,0.3,0.1,0.4,0.2c0.1,0.1,0.2,0.2,0.3,0.3c-0.1,0.1-0.2,0.2-0.4,0.2
			c-0.1,0-0.2,0.1-0.4,0.1h-0.7c-0.5,0-1-0.1-1.5-0.2c-0.5-0.1-0.9-0.3-1.3-0.6c-0.2-0.1-0.4-0.2-0.6-0.4c-0.1-0.1-0.2-0.2-0.3-0.3
			C103,41.6,102.8,41.5,102.8,41.3z"/>
		<path class="st0" d="M105,43.2c0.3,0,0.5,0,0.8,0.1c0.2,0,0.4,0.1,0.6,0.2c0.4,0.2,0.7,0.4,1.1,0.6c0.7,0.3,1.5,0.6,2.2,0.9
			s1.3,0.6,2.1,0.9c0.4,0.1,0.8,0.2,1.2,0.3c0.3,0.1,0.5,0.2,0.8,0.3c0.2,0.1,0.4,0.2,0.5,0.4c-0.2,0.1-0.4,0.1-0.7,0.1
			c-0.2,0-0.4,0-0.7,0c-0.4,0-0.8-0.1-1.3-0.2c-0.8-0.2-1.7-0.4-2.5-0.7c-0.8-0.3-1.5-0.7-2.3-1.1c-0.4-0.2-0.7-0.4-1.1-0.7
			c-0.2-0.1-0.3-0.3-0.5-0.4C105.3,43.6,105.1,43.5,105,43.2z"/>
		<path class="st0" d="M107.7,47.8c0.2-0.2,0.4-0.2,0.5-0.3c0.1-0.1,0.2-0.2,0.4-0.2c0.3-0.1,0.5-0.2,0.8-0.3
			c0.6-0.2,1.1-0.4,1.7-0.5c0.7,0,1,0.1,1.6,0.1c0.3,0,0.6,0,0.8-0.1c0.2,0,0.4,0,0.6,0c0.2,0,0.3,0.1,0.5,0.2
			c-0.1,0.1-0.2,0.3-0.4,0.3c-0.1,0.1-0.3,0.1-0.4,0.2c-0.3,0.1-0.6,0.2-0.9,0.2c-0.3,0.1-0.6,0.1-0.9,0.1h-0.4h-0.4
			c-0.5,0.1-1,0.1-1.6,0.2c-0.3,0.1-0.6,0.1-0.9,0.2c-0.2,0-0.3,0-0.5,0C108.1,48.1,107.8,48.1,107.7,47.8z"/>
		<path class="st0" d="M108.1,49c0.2-0.1,0.4-0.1,0.7-0.1c0.2,0,0.4,0,0.6,0.1l1,0.4c0.7,0.2,1.3,0.5,2,0.8c0.6,0.4,1.1,0.8,1.7,1.3
			l0.8,0.7c0.2,0.2,0.4,0.3,0.5,0.5c0.1,0.2,0.2,0.4,0.2,0.6c-0.2,0-0.4,0-0.6-0.1c-0.2-0.1-0.3-0.1-0.5-0.2l-0.9-0.6
			c-0.6-0.4-1.2-0.8-1.8-1.1s-1.2-0.7-1.8-1l-1-0.5c-0.2-0.1-0.3-0.2-0.4-0.3C108.5,49.3,108.2,49.3,108.1,49z"/>
		<path class="st0" d="M112.4,52.8c0.1-0.1,0.2-0.2,0.3-0.3c0.1-0.1,0.1-0.1,0.2-0.1h0.4c0.3,0,0.5,0,0.8,0c0.3,0,0.5,0.2,0.7,0.2
			l0.4,0.1c0.1,0,0.2,0.1,0.3,0.2c0.1,0.1,0.2,0.2,0.2,0.4c-0.1,0.1-0.1,0.2-0.2,0.2c-0.1,0-0.1,0.1-0.2,0.1h-0.4
			c-0.3,0-0.6,0-0.9,0c-0.3-0.1-0.6-0.1-0.8-0.2l-0.4-0.1c-0.1,0-0.2-0.1-0.2-0.2C112.5,53,112.4,53,112.4,52.8z"/>
		<path class="st0" d="M118.4,58.4c-0.2,0.1-0.5,0.1-0.7,0.1c-0.2,0-0.4,0-0.6-0.1c-0.3-0.2-0.7-0.3-1-0.5c-0.6-0.3-1.2-0.7-1.8-1.2
			c-0.5-0.5-0.9-1-1.3-1.6c-0.2-0.3-0.4-0.6-0.6-0.9c-0.1-0.2-0.2-0.4-0.3-0.7c-0.1-0.2-0.1-0.4,0-0.6c0.2,0.1,0.3,0.2,0.5,0.3
			c0.1,0.1,0.3,0.2,0.4,0.4c0.2,0.3,0.4,0.5,0.7,0.8c0.5,0.5,0.9,1,1.5,1.4c0.5,0.4,0.9,0.9,1.5,1.3c0.3,0.2,0.6,0.4,0.8,0.6
			c0.1,0.1,0.3,0.2,0.4,0.3C118.1,58,118.3,58.1,118.4,58.4z"/>
		<path class="st0" d="M141,96.2c-0.7-0.8-1.3-1.6-1.8-2.4c-0.5-0.8-1-1.5-1.5-2.3l-2.8-4.7c-1.9-3.2-3.7-6.1-5.6-9.3l-5.1-9
			c-0.9-1.6-1.8-3.2-2.8-4.7c-0.5-0.8-1.4-2.3-1.9-3.1c-0.4-0.7-0.8-1.5-1.1-2.3c0.6,0.7,1.2,1.4,1.7,2.2s1.1,1.5,1.6,2.2
			c1,1.5,2,3.1,3,4.7c2,3.1,3.8,6.3,5.7,9.4s3.5,6.1,5.3,9.3l2.7,4.9c0.4,0.8,0.9,1.6,1.3,2.4C140.1,94.3,140.6,95.3,141,96.2z"/>
		<path class="st0" d="M135.4,65.9c-0.7-1.1-1.3-2.2-1.9-3.3c-0.5-1-1.1-2.1-1.5-3.1c-0.9-2.1-1.9-4.2-2.9-6.3c-2-4.2-4.1-8-6.4-12
			s-4.1-7.3-6.5-11.2c-1.2-2-2.5-3.9-3.8-5.8c-0.6-1-1.9-2.9-2.5-3.9c-0.6-0.9-1.1-1.8-1.6-2.8c0.8,0.9,1.5,1.8,2.2,2.7
			s1.4,1.9,2.1,2.8c1.3,1.9,2.6,3.8,3.9,5.8c2.6,3.9,5,7.9,7.3,11.9s4.1,7.8,6.1,12c1,2.1,1.9,4.3,2.8,6.4c0.5,1.1,0.9,2.1,1.3,3.2
			C134.5,63.3,135.1,64.8,135.4,65.9z"/>
		<path class="st0" d="M24.7,127.7c-0.9-0.8-1.7-1.6-2.3-2.6c-0.7-0.8-1.3-1.7-1.8-2.6c-1.1-1.8-2.1-3.7-3.1-5.6s-2-3.7-3-5.4
			s-2.1-3.5-3.1-5.4c-2.1-3.7-3.7-6.8-5.6-10.6c-1-1.9-1.8-3.8-2.7-5.8c-0.6-1.3-1-2.6-1.4-4c-0.3-0.9-0.5-1.9-0.6-2.9
			c0.4,1,0.8,2,1.2,2.9l1.2,2.9c0.8,1.9,1.8,3.8,2.7,5.7c1.9,3.8,4,7.4,6.1,11.1c1.1,1.8,2,3.6,3,5.4s1.9,3.6,2.9,5.5s2,3.8,3,5.6
			l1.5,2.8C23.3,125.6,24.2,126.8,24.7,127.7z"/>
		<path class="st0" d="M51.5,13.1c-0.6,0.2-1.2,0.4-1.8,0.4c-0.5,0.1-1.1,0.2-1.7,0.2l-3.3,0.1L41.5,14c-1.1,0.1-2.1,0.1-3.2,0.2
			c-2.2,0.1-4,0.2-6.2,0.3l-3.3,0.1c-0.7,0-1.5,0-2.2,0c-0.5,0-1.1-0.1-1.6-0.2c0.5-0.1,1.1-0.3,1.6-0.3c0.5-0.1,1.1-0.1,1.6-0.2
			l3.3-0.3l6.6-0.6c1.1-0.1,2.1-0.1,3.2-0.1h3.2h3.3c0.6,0,1.1,0,1.7,0.1C50.2,13,50.8,13,51.5,13.1z"/>
		<path class="st0" d="M38.4,14.9c-0.3,0.2-0.6,0.3-0.9,0.3c-0.3,0.1-0.6,0.1-0.8,0.1h-1.7c-1.1,0-2.2,0-3.3,0l-3.1-0.2L26.9,15
			c-0.4,0-0.7-0.1-1.1-0.2c-0.3-0.1-0.5-0.2-0.8-0.4c0.3-0.1,0.6-0.2,0.8-0.2c0.3,0,0.6-0.1,0.8-0.1h1.7c1.1,0,2.2,0,3.3,0
			c1.1,0,2.1,0.2,3.2,0.3l1.7,0.1c0.3,0,0.6,0.1,0.8,0.1C37.8,14.7,38.1,14.8,38.4,14.9z"/>
		<path class="st0" d="M36.2,15.2c-0.1,0.2-0.2,0.4-0.4,0.5c-0.1,0.1-0.3,0.3-0.5,0.3l-1,0.4c-0.7,0.3-1.2,0.6-1.9,0.8
			c-0.7,0.2-1.3,0.3-2,0.4l-1,0.2c-0.2,0-0.5,0-0.7,0c-0.2,0-0.4-0.1-0.6-0.2c0.1-0.2,0.3-0.3,0.5-0.4c0.1-0.1,0.3-0.2,0.5-0.2
			l1-0.4c0.6-0.2,1.3-0.4,2-0.7s1.3-0.4,1.9-0.6l1-0.3c0.2-0.1,0.4-0.1,0.5-0.1C35.7,15.2,36,15.1,36.2,15.2z"/>
		<path class="st0" d="M32.3,17.8C32.2,18,32,18,31.9,18.1c-0.1,0.1-0.2,0.1-0.4,0.1h-0.7c-0.5,0-0.9,0.2-1.4,0.2s-0.9,0-1.4,0
			l-0.7,0.1c-0.2,0-0.3,0-0.5,0c-0.2,0-0.3-0.1-0.4-0.3c0.1-0.1,0.2-0.2,0.3-0.3c0.1-0.1,0.2-0.1,0.4-0.2l0.8-0.2
			c0.5-0.1,1-0.2,1.5-0.3c0.5,0,1,0,1.5,0c0.3,0,0.5,0,0.8,0.1c0.1,0,0.3,0.1,0.4,0.1C32.1,17.6,32.2,17.6,32.3,17.8z"/>
		<path class="st0" d="M22.9,23.8c0,0.2-0.1,0.3-0.2,0.5c0,0.1-0.1,0.2-0.2,0.2L22,24.7c-0.4,0.2-0.7,0.3-1.1,0.4
			c-0.4,0.1-0.8,0.1-1.1,0.1c-0.2,0-0.4,0-0.6,0c-0.1,0-0.3-0.1-0.4-0.1c-0.1-0.1-0.2-0.2-0.2-0.4c0.1-0.1,0.2-0.2,0.3-0.2
			c0.1,0,0.2-0.1,0.3-0.1l0.5-0.1c0.4-0.1,0.7-0.2,1.1-0.3s0.7-0.1,1.1-0.2l0.6-0.1c0.1,0,0.2,0,0.3,0
			C22.7,23.7,22.8,23.6,22.9,23.8z"/>
		<path class="st0" d="M31,18.1c-0.1,0.3-0.3,0.5-0.5,0.7c-0.2,0.2-0.3,0.4-0.5,0.5c-0.4,0.3-0.8,0.5-1.2,0.8
			c-0.4,0.3-0.7,0.6-1,0.9c-0.4,0.3-0.8,0.7-1.2,0.9c-0.9,0.5-1.5,0.8-2.4,1.3c-0.4,0.2-0.9,0.5-1.4,0.6c-0.3,0.1-0.7,0.2-1,0.1
			c-0.3,0-0.5-0.1-0.7-0.3l0.6-0.3l0.6-0.3c0.4-0.2,0.8-0.4,1.2-0.7c0.4-0.3,0.8-0.5,1.2-0.8s0.8-0.5,1.2-0.8l2.3-1.6
			c0.4-0.3,0.8-0.5,1.3-0.8c0.2-0.1,0.4-0.2,0.7-0.3C30.4,18.2,30.7,18.1,31,18.1z"/>
		<path class="st0" d="M17.8,32.9c-0.4,0.4-0.8,0.7-1.3,1c-0.4,0.3-0.8,0.6-1.2,0.9c-0.8,0.6-1.6,1.2-2.3,1.9
			c-1.4,1.3-2.6,2.8-3.6,4.4c-1,1.6-1.9,3.2-2.7,4.8c-0.4,0.9-0.9,1.8-1.3,2.7c-0.3,0.6-0.6,1.2-1,1.7c-0.3,0.4-0.6,0.8-0.9,1.1
			c0.1-0.5,0.3-1,0.5-1.4c0.2-0.5,0.4-0.9,0.6-1.4l1.2-2.7c0.7-1.9,1.6-3.7,2.7-5.5c1.1-1.7,2.4-3.2,3.9-4.5
			c0.8-0.7,1.6-1.3,2.5-1.8c0.4-0.3,0.9-0.5,1.4-0.7C16.7,33.2,17.2,33,17.8,32.9z"/>
		<path class="st0" d="M11.4,44c0,0.3-0.1,0.5-0.3,0.8c-0.1,0.2-0.2,0.4-0.4,0.6l-0.9,1C9.2,47,8.6,47.6,8,48.2l-1.9,1.6l-1,0.9
			c-0.2,0.2-0.5,0.4-0.7,0.5c-0.2,0.1-0.4,0.2-0.7,0.2C3.7,51.2,3.8,51,4,50.8c0.1-0.2,0.3-0.4,0.4-0.5l0.9-1c0.6-0.7,1.2-1.3,1.8-2
			s1.3-1.1,2-1.7l1-0.9c0.2-0.1,0.4-0.3,0.6-0.4C10.9,44.2,11.1,44,11.4,44z"/>
		<path class="st0" d="M22.9,24c-0.2,0.3-0.4,0.6-0.7,0.9c-0.2,0.3-0.4,0.5-0.7,0.7c-0.5,0.4-1,0.8-1.4,1.3
			c-0.9,0.9-1.7,1.8-2.5,2.8c-0.8,0.9-1.5,1.8-2.2,2.8c-0.4,0.5-0.7,1.1-1,1.6c-0.2,0.4-0.4,0.7-0.7,1.1c-0.2,0.3-0.4,0.5-0.7,0.7
			c0-0.3,0.1-0.7,0.2-1c0.1-0.3,0.2-0.6,0.4-0.9c0.3-0.6,0.6-1.2,0.9-1.8c0.6-1.2,1.4-2.3,2.2-3.3c0.8-1,1.8-1.9,2.7-2.7
			c0.5-0.4,1-0.9,1.6-1.2c0.3-0.2,0.6-0.4,0.9-0.5C22.2,24.2,22.5,24.1,22.9,24z"/>
		<path class="st0" d="M7.4,48.4c-0.1,0.3-0.2,0.7-0.4,1c-0.1,0.3-0.3,0.6-0.4,0.8c-0.3,0.5-0.6,1.1-0.9,1.6c-0.4,1.1-0.7,2.3-1,3.5
			c-0.3,1.2-0.6,2.2-0.9,3.4c-0.1,0.6-0.3,1.2-0.4,1.9c-0.1,0.4-0.2,0.9-0.4,1.3c-0.1,0.3-0.3,0.6-0.5,0.8c-0.1-0.3-0.1-0.7-0.1-1
			c0-0.3,0-0.7,0-1c0.1-0.7,0.1-1.3,0.2-1.9c0.2-1.3,0.4-2.5,0.7-3.8c0.3-1.2,0.8-2.4,1.3-3.6c0.3-0.6,0.6-1.2,1-1.7
			c0.2-0.3,0.4-0.5,0.7-0.7C6.6,48.7,7,48.5,7.4,48.4z"/>
		<path class="st0" d="M1.4,82.9C1.2,82.5,1,82,0.9,81.6c-0.1-0.4-0.2-0.8-0.3-1.3c-0.1-0.8-0.3-1.7-0.3-2.6C0,76.1-0.1,74.4,0,72.7
			c0.1-1.6,0.4-3.2,0.8-4.8c0.2-0.8,0.4-1.7,0.7-2.5c0.2-0.5,0.4-1.1,0.6-1.6c0.2-0.4,0.4-0.7,0.7-1c0,0.4-0.1,0.9-0.2,1.3
			c-0.1,0.4-0.2,0.8-0.3,1.2C2.1,66.1,2,67,1.8,67.8c-0.3,1.7-0.5,3.3-0.6,5c-0.1,1.6-0.1,3.2,0,4.9c0.1,0.8,0.2,1.7,0.2,2.5
			c0,0.4,0,0.8,0,1.3C1.5,81.9,1.5,82.4,1.4,82.9z"/>
		<path class="st0" d="M62.7,10.1c-0.5,0.1-1.1,0.2-1.6,0.2c-0.5,0-1,0-1.5-0.1c-1-0.2-1.9-0.4-2.9-0.6c-1.9-0.4-3.7-1-5.5-1.8
			C49.7,7,48,6.1,46.5,5.1c-0.8-0.5-1.6-1.1-2.4-1.7c-0.5-0.4-1-0.8-1.5-1.3c-0.3-0.3-0.6-0.7-0.8-1.1c0.4,0.2,0.9,0.5,1.3,0.7
			c0.4,0.3,0.8,0.5,1.2,0.8c0.8,0.5,1.6,1.1,2.4,1.5c1.6,1,3.3,1.8,5.1,2.6c1.7,0.8,3.4,1.4,5.2,2c0.9,0.3,1.8,0.5,2.8,0.7
			c0.5,0.1,0.9,0.2,1.4,0.4C61.7,9.7,62.2,9.9,62.7,10.1z"/>
		<path class="st0" d="M51.3,13c-0.4,0-0.7-0.1-1.1-0.3c-0.3-0.1-0.6-0.3-0.9-0.5c-0.5-0.4-1-0.8-1.5-1.2c-1-0.8-1.9-1.7-2.7-2.7
			c-0.7-1-1.4-2-1.9-3.1c-0.3-0.6-0.6-1.2-0.8-1.8C42.1,3,42,2.6,41.9,2.1c-0.1-0.3-0.1-0.7,0-1c0.2,0.2,0.4,0.5,0.6,0.8
			c0.2,0.3,0.3,0.5,0.5,0.8c0.3,0.6,0.6,1.1,0.9,1.7c0.7,1.1,1.4,2.1,2.2,3.1c0.7,1,1.5,1.9,2.4,2.8c0.5,0.4,0.9,0.9,1.4,1.3
			c0.2,0.2,0.5,0.4,0.7,0.7C50.8,12.4,51.1,12.7,51.3,13z"/>
		<path class="st0" d="M60,9.4c-0.3-0.1-0.5-0.3-0.7-0.5c-0.2-0.1-0.4-0.3-0.5-0.5l-0.8-1.2c-0.5-0.8-1-1.5-1.5-2.2
			s-0.9-1.4-1.3-2.2l-0.7-1.2c-0.2-0.3-0.3-0.6-0.4-0.9C54,0.5,54,0.3,54,0c0.2,0.1,0.4,0.3,0.6,0.4C54.7,0.6,54.9,0.8,55,1l0.9,1.1
			l1.7,2.2c0.5,0.8,0.9,1.6,1.3,2.4L59.6,8c0.1,0.2,0.2,0.4,0.2,0.7C59.9,8.9,60,9.1,60,9.4z"/>
		<path class="st0" d="M63.8,8.9c-0.3-0.2-0.5-0.4-0.7-0.7c-0.2-0.2-0.4-0.4-0.5-0.7c-0.3-0.5-0.6-0.9-1-1.3
			c-0.7-0.8-1.4-1.6-2.2-2.3c-0.7-0.7-1.5-1.3-2.3-1.9c-0.5-0.3-0.9-0.6-1.4-0.9c-0.3-0.2-0.6-0.4-0.9-0.6C54.4,0.5,54.2,0.3,54,0
			c0.3,0,0.6,0.1,0.9,0.1c0.3,0.1,0.6,0.2,0.8,0.3c0.5,0.2,1,0.5,1.5,0.7c1,0.5,2,1.2,2.9,1.9c0.8,0.8,1.6,1.6,2.2,2.6
			c0.3,0.5,0.6,1,0.9,1.5c0.1,0.3,0.3,0.5,0.3,0.8C63.7,8.3,63.8,8.6,63.8,8.9z"/>
		<path class="st0" d="M64.1,8.2c-0.1-0.1-0.2-0.3-0.3-0.5c-0.1-0.1-0.1-0.3,0-0.4c0.1-0.3,0.1-0.5,0.2-0.8c0.1-0.5,0.3-1,0.5-1.4
			c0.3-0.4,0.6-0.8,1-1.1c0.2-0.2,0.4-0.3,0.6-0.5c0.1-0.1,0.3-0.2,0.5-0.2c0.2-0.1,0.3-0.1,0.5,0c0,0.1-0.1,0.3-0.1,0.4
			c-0.1,0.1-0.1,0.2-0.2,0.3c-0.2,0.2-0.3,0.4-0.4,0.6c-0.3,0.4-0.5,0.8-0.7,1.2c-0.2,0.4-0.5,0.7-0.7,1.1c-0.1,0.2-0.2,0.4-0.3,0.7
			c0,0.1-0.1,0.2-0.2,0.3C64.3,8,64.3,8.1,64.1,8.2z"/>
		<path class="st0" d="M66.7,9.2c-0.2,0-0.4-0.1-0.5-0.2C66.1,8.9,66,8.8,66,8.6c-0.1-0.3-0.1-0.5-0.2-0.8c-0.1-0.5-0.2-1-0.2-1.6
			c0.1-0.5,0.2-1,0.4-1.4c0.1-0.2,0.2-0.5,0.3-0.7c0.1-0.2,0.2-0.3,0.3-0.4c0.1-0.1,0.3-0.2,0.5-0.2c0.1,0.1,0.1,0.3,0.1,0.4
			c0,0.1,0,0.2,0,0.4C67.1,4.5,67,4.8,67,5c-0.1,0.5-0.1,0.9-0.1,1.4c0,0.5-0.1,0.9-0.1,1.3c0,0.2,0,0.5,0.1,0.7c0,0.1,0,0.2,0,0.4
			C66.8,8.9,66.8,9.1,66.7,9.2z"/>
		<path class="st0" d="M67.5,9.1c-0.1-0.1-0.1-0.3-0.1-0.5c0-0.1,0-0.2,0-0.3l0.2-0.6C67.7,7.4,67.8,7,68,6.6s0.4-0.6,0.5-1l0.2-0.6
			C68.8,5,68.9,4.8,69,4.7c0.1-0.1,0.3-0.2,0.4-0.2c0.1,0.1,0.1,0.2,0.2,0.4c0,0.1,0,0.2,0,0.3l-0.1,0.6c-0.1,0.4-0.2,0.8-0.3,1.3
			c-0.2,0.4-0.4,0.7-0.7,1.1c-0.1,0.2-0.2,0.4-0.3,0.5C68,8.8,67.9,8.9,67.8,9C67.8,9,67.7,9.2,67.5,9.1z"/>
		<path class="st0" d="M70,9.6c-0.2-0.1-0.3-0.2-0.4-0.3c-0.1-0.1-0.1-0.2-0.2-0.3l-0.1-0.6l-0.2-1.2c0-0.4,0-0.7,0-1.1V5.5
			c0-0.2,0-0.3,0.1-0.5c0.1-0.1,0.2-0.3,0.3-0.4c0.1,0.1,0.2,0.2,0.3,0.3c0.1,0.1,0.1,0.2,0.1,0.3l0.2,0.6c0.1,0.4,0.2,0.8,0.3,1.2
			c0,0.4,0,0.8,0,1.2v0.6c0,0.1,0,0.2-0.1,0.3C70.2,9.3,70.2,9.4,70,9.6z"/>
		<path class="st0" d="M75.5,8.5c0.8-0.2,1.5-0.3,2.3-0.4c0.7-0.1,1.4-0.1,2.1-0.1c1.4,0.1,2.8,0.1,4.3,0.3C87,8.7,89.7,9,92.5,9.5
			c2.7,0.5,5.2,1.3,7.7,2.3c1.3,0.6,2.6,1.2,3.9,1.8c0.8,0.5,1.6,1,2.4,1.5c0.5,0.4,1,0.8,1.5,1.3c-0.7-0.3-1.3-0.6-1.9-0.9l-1.9-1
			c-3.7-1.9-7.8-3.2-11.9-3.9c-2.8-0.5-5.3-1-8.1-1.4C82.8,9.2,81.4,9.1,80,9c-0.7,0-1.4-0.1-2.1-0.2S76.2,8.7,75.5,8.5z"/>
		<path class="st0" d="M70.8,9.2c0-0.2,0.1-0.3,0.2-0.4c0-0.1,0.1-0.2,0.2-0.2l0.4-0.3c0.3-0.2,0.5-0.5,0.8-0.7s0.5-0.3,0.8-0.6
			s0.3-0.2,0.4-0.3c0.1-0.1,0.2-0.2,0.3-0.2c0.1,0,0.3,0,0.4,0c0,0.1,0,0.2,0,0.4c0,0.1,0,0.2-0.1,0.3c-0.1,0.2-0.2,0.4-0.3,0.5
			c-0.2,0.3-0.5,0.7-0.8,0.9c-0.3,0.2-0.7,0.4-1.1,0.6c-0.2,0.1-0.4,0.2-0.6,0.2c-0.1,0-0.2,0-0.3,0C71.1,9.3,71,9.4,70.8,9.2z"/>
		<path class="st0" d="M74.2,9.1C74.1,9,74.1,8.9,74,8.8c0-0.1-0.1-0.1-0.1-0.2c0-0.1,0-0.2,0-0.3s-0.1-0.4,0-0.6S74,7.3,74.1,7
			s0-0.2,0-0.3c0-0.1,0-0.2,0.1-0.3c0.1-0.1,0.2-0.2,0.3-0.2c0.1,0,0.2,0.1,0.3,0.1c0.1,0,0.1,0.1,0.1,0.2c0,0.1,0.1,0.3,0.1,0.4
			c0.1,0.3,0.1,0.5,0.1,0.8c0,0.3-0.1,0.5-0.2,0.8c0,0.1-0.1,0.3-0.2,0.4C74.7,9,74.6,9,74.5,9C74.4,9.1,74.4,9.2,74.2,9.1z"/>
		<path class="st0" d="M140.6,95.6c-0.4-0.4-0.7-0.9-0.9-1.4c-0.2-0.4-0.4-0.9-0.6-1.4c-0.3-1-0.6-1.9-0.9-2.9l-0.8-2.8l-0.2-0.7
			c-0.1-0.2-0.1-0.4-0.2-0.7c-0.2-0.5-0.4-0.9-0.5-1.4c-0.6-1.8-0.9-3.7-1.1-5.6c-0.1-1-0.2-2-0.3-3c-0.1-0.7-0.1-1.3,0-2
			c0-0.5,0.1-0.9,0.4-1.4c0.1,0.5,0.1,1,0.2,1.4s0.1,1,0.2,1.5c0.1,1,0.3,2,0.4,2.9c0.3,2,0.7,3.9,1.3,5.8c0.2,0.5,0.3,0.9,0.5,1.4
			c0.1,0.2,0.2,0.5,0.2,0.7l0.2,0.7c0.2,0.9,0.4,1.9,0.7,2.8s0.5,1.9,0.8,2.9c0.1,0.5,0.2,1,0.3,1.4C140.4,94.5,140.5,95,140.6,95.6
			z"/>
	</g>
	<g id="레이어_10">
		<path class="st0" d="M153.6,232.1c0.9-0.6,1.8-1.1,2.8-1.4c0.9-0.4,1.8-0.8,2.7-1.1l1.3-0.5c0.2-0.1,0.4-0.2,0.6-0.2l0.3-0.1
			l0.4-0.2c0.6-0.2,1.2-0.3,1.8-0.2c0.3,0.1,0.6,0.1,0.9,0.3c0.2,0.1,0.5,0.1,0.7,0.2c3.7,0.9,7.2,1.7,10.8,2.8
			c1.8,0.5,3.5,1.1,5.1,1.5c1.7,0.4,3.4,0.7,5.1,0.9c1.9,0.2,3.7,0.3,5.6,0.3c1,0,2.8,0,3.8,0c0.9,0,1.8,0.1,2.7,0.3
			c-0.9,0.3-1.9,0.5-2.8,0.7c-1,0.2-1.9,0.3-2.9,0.3c-1.9,0.1-3.9,0.2-5.8,0.1c-2-0.1-3.9-0.3-5.8-0.7c-1.9-0.4-3.8-1-5.6-1.4
			c-3.7-1-7-2.1-10.7-3.2l-0.7-0.2c-0.2-0.1-0.3-0.1-0.5-0.2c-0.3-0.1-0.7-0.1-1,0c-0.3,0.1-0.9,0.4-1.3,0.5l-1.4,0.4
			c-0.9,0.3-1.9,0.5-2.8,0.6C155.7,231.8,154.6,232,153.6,232.1z"/>
		<path class="st0" d="M162,171.7c0.4-0.3,0.8-0.5,1.3-0.6l0.6-0.2c0.2-0.1,0.5-0.2,0.7-0.2c0.5-0.1,1,0,1.5,0.3
			c0.2,0.1,0.4,0.3,0.6,0.4l0.4,0.3c1.3,0.8,2.8,1.6,4.3,2.4c2.9,1.5,5.7,2.8,8.6,4.4s5.2,3,8,4.8c1.4,0.9,2.8,1.8,4.2,2.6
			c0.7,0.4,2.1,1.2,2.8,1.7c0.7,0.4,1.3,0.9,1.9,1.5c-0.8-0.2-1.6-0.4-2.4-0.7c-0.8-0.3-1.5-0.6-2.3-1c-1.5-0.7-3-1.5-4.4-2.4
			c-2.8-1.6-5.8-3.2-8.7-4.7s-5.5-3.1-8.4-4.7c-1.4-0.8-2.9-1.6-4.3-2.6c-0.2-0.1-0.4-0.3-0.6-0.5c-0.2-0.2-0.2-0.2-0.4-0.4
			c-0.2-0.2-0.5-0.3-0.8-0.4c-0.2,0-0.3,0-0.5,0c-0.2,0-0.5,0.1-0.7,0.1C163,171.8,162.5,171.8,162,171.7z"/>
		<path class="st0" d="M198,234.1c0.1-1.1,0.3-2.1,0.6-3.2c0.2-1,0.4-1.9,0.7-2.8c0.5-1.9,1-3.7,1.3-5.6c0.6-3.7,0.9-7.5,0.8-11.3
			c0-3.6-0.5-7.2-1.2-10.7c-0.4-1.9-0.9-3.8-1.5-5.6c-0.3-0.9-0.9-2.8-1.1-3.7c-0.3-0.9-0.5-1.8-0.6-2.7c0.6,0.8,1.1,1.7,1.5,2.6
			c0.4,0.9,0.8,1.8,1.2,2.7c0.7,1.9,1.3,3.8,1.8,5.6c2.3,7.6,2.5,15.6,0.7,23.3c-0.4,1.9-0.9,3.9-1.5,5.8c-0.3,0.9-0.7,1.9-1.1,2.8
			C199.2,232.2,198.6,233.2,198,234.1z"/>
		<path class="st0" d="M164.8,171.6c0.7,1.2,1.5,2.2,2.5,3.2c0.9,1,1.6,2.1,1.9,3.4c0.3,1.3,0.4,2.5,0.7,3.7l0.6,3.7
			c0.4,2.4,0.7,4.8,0.9,7.3c0.2,2.5,0.1,5-0.3,7.4c-0.4,2.5-0.9,4.7-1.5,6.8s-1.1,4.3-1.7,6.7l-1.9,7.2c-0.3,1.2-1,3.5-1.5,4.7
			c-0.4,1.1-0.8,2.2-1.4,3.2c0.1-1.2,0.3-2.5,0.5-3.7s0.5-2.4,0.8-3.6l1.7-7.2c0.6-2.4,1.1-4.8,1.6-7.2s1-4.8,1.4-7.2
			c0.4-2.3,0.5-4.6,0.4-6.9c-0.1-2.3-0.3-4.6-0.6-7.1l-0.5-3.7l-0.2-1.8l-0.1-0.9c-0.1-0.3-0.1-0.6-0.1-0.8
			c-0.3-1.1-0.7-2.2-1.3-3.2c-0.3-0.5-0.7-1.1-1.1-1.8C165,173.1,164.8,172.3,164.8,171.6z"/>
		<path class="st0" d="M153.8,232c0.3,1.3,0.4,2.7,0.4,4c0,1.2,0,2.4-0.1,3.7c-0.3,2.4-0.7,4.9-1.2,7.2c-0.5,2.4-1.3,4.7-1.9,6.9
			c-0.6,2.2-1.1,4.5-1.5,6.8s-0.7,4.5-1,6.6s-0.6,4.4-0.9,6.8c-0.2,1.2-0.4,2.4-0.5,3.6c-0.1,1.2-0.2,2.3-0.1,3.5
			c0.1,1.6,0.4,3.1,0.8,4.6c0.2,1.2,0.6,2,0.8,3.3c-0.7-1-1.3-2.1-1.8-3.2c-0.5-1.2-0.8-2.4-1-3.6c-0.2-1.2-0.3-2.5-0.2-3.8
			c0-1.3,0.2-2.5,0.4-3.7c0.3-2.4,0.5-4.8,0.8-7.2c0.2-2.4,0.4-4.9,0.9-7.3c0.4-2.3,1-4.7,1.7-6.9c0.7-2.2,1.6-4.4,2.1-6.7
			c0.6-2.3,1-4.6,1.4-7c0.2-1.2,0.4-2.4,0.6-3.6S153.4,233.2,153.8,232z"/>
		<path class="st0" d="M145.7,276.1c-1.5-1.6-2.9-3.3-4.3-5.1c-0.7-0.8-1.2-1.7-1.8-2.6c-0.5-0.8-1.1-1.6-1.7-2.4
			c-0.6-0.7-1.4-1.4-2.2-1.9c-0.8-0.5-1.7-1-2.6-1.5l-5.3-3c-3.6-2-7-4-10.5-5.9c-3.6-1.9-7-4.2-10.1-6.8c-3-2.5-5.7-5.4-8-8.6
			c-2.3-3.2-4.2-6.6-5.8-10.1c-1.6-3.8-3-7.7-4.2-11.6c-0.6-1.9-1.8-5.8-2.2-7.8c-0.5-1.8-0.9-3.7-1.2-5.6c0.8,1.9,1.5,3.8,2.2,5.7
			s1.4,3.9,2,5.8c1.3,3.9,2.6,7.8,4.2,11.4c1.6,3.7,3.6,7.2,6,10.5c2.4,3.2,5.2,6.2,8.2,8.7c3,2.5,6.2,4.7,9.6,6.6
			c3.4,1.9,6.7,4,10.2,6l5.3,3.1c0.9,0.5,1.8,1,2.7,1.6c0.9,0.6,1.7,1.3,2.5,2.1c0.7,0.8,1.3,1.7,1.8,2.7c0.3,0.5,0.4,0.9,0.7,1.4
			l0.7,1.3C143.2,272,144.8,274.3,145.7,276.1z"/>
		<path class="st0" d="M85.2,200.2c0.2,0.5,0.4,1.1,0.4,1.6c0.1,0.5,0.1,1,0,1.5c-0.2,1-0.4,1.9-0.6,2.9c-0.4,1.9-1.1,3.8-1.9,5.5
			c-0.9,1.7-1.9,3.2-3.2,4.6c-0.6,0.8-1.3,1.5-2.1,2.2c-0.5,0.4-1,0.8-1.6,1.1c-0.4,0.3-0.9,0.4-1.4,0.5c0.2-0.4,0.5-0.9,0.8-1.3
			c0.3-0.4,0.6-0.7,1-1.1c0.7-0.7,1.3-1.4,1.8-2.1c1.1-1.5,2-3.2,2.8-4.9c0.8-1.6,1.6-3.3,2.2-5c0.3-0.9,0.5-1.8,0.8-2.7
			c0.1-0.5,0.3-0.9,0.5-1.4C84.7,201.2,84.9,200.7,85.2,200.2z"/>
		<path class="st0" d="M104,240.7c-0.1,1-0.2,2-0.5,3c-0.2,0.9-0.5,1.8-0.8,2.6c-0.7,1.7-1.3,3.4-1.9,5.1s-1,3.4-1.7,5.1
			c-0.6,1.8-1.6,3.5-2.9,4.9c-1.2,1.3-2.6,2.5-4.1,3.5c-1.5,0.9-3,1.8-4.6,2.6c-1.7,0.8-3.4,1.5-5.2,2c-1.2,0.3-2.4,0.6-3.6,0.6
			c-0.9,0.1-1.8,0-2.6-0.2c0.9-0.3,1.8-0.5,2.6-0.8l2.6-0.8c1.7-0.5,3.4-1.2,5-2c1.6-0.8,3.1-1.7,4.6-2.8c1.5-1,2.8-2.1,3.9-3.5
			c1.1-1.2,2-2.7,2.6-4.2c0.7-1.5,1.2-3.2,1.9-4.9s1.3-3.4,2-5.1c0.4-0.9,0.8-1.7,1.2-2.5C102.9,242.5,103.4,241.5,104,240.7z"/>
		<path class="st0" d="M75,220.4c-0.1,1.2-0.2,2.4-0.5,3.5c-0.2,1.1-0.4,2.1-0.8,3.1c-0.7,2-1.2,4.1-1.7,6.2
			c-1.1,4-1.6,8.1-1.5,12.2c0.1,1.9,0.3,3.9,0.7,5.8c0.4,1.9,0.8,3.8,1.3,5.8s1.1,4.1,1.7,6.2c0.3,1,0.9,3,1.2,4.1
			c0.3,1,0.5,2,0.6,3c-0.6-0.9-1.1-1.9-1.6-2.9c-0.5-1-0.9-2-1.2-3c-0.7-2-1.4-4.1-2-6.1s-1.2-4.2-1.8-6.2c-0.6-2.1-0.9-4.3-1.1-6.5
			c-0.2-4.5,0.8-8.4,2-12.5c0.6-2.1,1.2-4.1,1.9-6.2c0.4-1,0.8-2,1.2-3C73.9,222.6,74.4,221.5,75,220.4z"/>
		<path class="st0" d="M74.2,221.9c-1.1,1.4-2.3,2.6-3.5,3.8c-1.1,1.2-2.3,2.3-3.5,3.3l-7.2,6.3c-4.8,4.2-9.3,8.2-14.3,12.2
			s-9,7.3-14.1,11.1c-0.6,0.5-1.3,1-2,1.4s-1.4,0.9-2,1.4c-1.3,0.9-2.5,1.9-3.7,3c-1.6,1.4-3.4,2.7-5.2,3.8
			c-1.4,0.8-2.8,0.8-3.7,2.4c0.2-0.9,0.8-1.6,1.5-2.1c0.7-0.4,1.3-0.8,2-1.3c1.3-0.9,2.4-1.9,3.6-3s2.4-2.1,3.6-3.2
			c0.6-0.5,1.3-1,2-1.5s1.3-0.9,1.9-1.4c5-3.9,9.9-8.1,14.8-12.2s9.4-7.7,14.3-11.8l7.3-6.1c1.2-1,2.5-2,3.8-3
			C71.3,224,72.7,222.9,74.2,221.9z"/>
		<path class="st0" d="M197.1,189.2c1.6-0.4,3.2-0.7,4.9-0.9c1.5-0.2,3-0.4,4.5-0.4c3-0.1,6.1-0.3,9.1-0.4
			c6.1-0.2,11.8-0.4,17.9-0.3s11,0.4,17.1,0.8c3,0.2,6.1,0.3,9.1,0.5c1.5,0.1,4.5,0.2,6,0.4c1.4,0.1,2.8,0.3,4.2,0.7
			c-1.5,0.2-3,0.2-4.6,0.3s-3,0-4.5,0c-3-0.1-6.1-0.1-9.1-0.2c-6.1-0.2-12.1-0.4-18.2-0.4s-11.5-0.2-17.6-0.1c-3,0-6.1,0.1-9.1,0.2
			c-1.5,0-3,0-4.6,0S198.7,189.4,197.1,189.2z"/>
		<path class="st0" d="M150.3,282.2c0.1-0.4,0.3-0.7,0.5-0.9c0.3-0.2,0.6-0.4,0.9-0.5c0.7-0.1,1.4,0,2,0.4c0.6,0.4,1.1,0.9,1.3,1.6
			c0.5,1.3-0.2,2.7-1.5,3.2c-0.1,0-0.3,0.1-0.4,0.1c-1.4,0.3-2.8-0.4-3.4-1.8c-0.2-0.4-0.2-0.9-0.1-1.4
			C149.8,282.6,150,282.4,150.3,282.2c-0.1,0.3-0.2,0.6-0.2,0.9c0,0.3,0.1,0.6,0.2,0.8c0.2,0.5,0.6,1,1.1,1.2c1,0.6,2.2,0.3,2.8-0.7
			c0.5-1,0.2-2.2-0.8-2.7c-0.5-0.3-1-0.4-1.6-0.4c-0.3,0-0.5,0.1-0.8,0.2C150.7,281.8,150.5,282,150.3,282.2z"/>
		<path class="st0" d="M203.1,260.2c0.2,0.2,0.5,0.4,0.6,0.6c0.2,0.2,0.3,0.4,0.4,0.6c0.2,0.4,0.4,0.9,0.5,1.3
			c0.4,0.9,0.7,1.7,1,2.6s0.5,1.6,0.7,2.6c0.1,0.5,0.3,0.9,0.4,1.4c0.1,0.3,0.1,0.6,0.2,0.9c0,0.2,0,0.5-0.1,0.7
			c-0.2-0.2-0.3-0.4-0.4-0.6c-0.1-0.2-0.2-0.4-0.3-0.6l-0.5-1.3c-0.4-0.9-0.7-1.8-1-2.6s-0.5-1.7-0.8-2.6c-0.1-0.5-0.3-0.9-0.4-1.4
			c-0.1-0.2-0.1-0.5-0.1-0.7C203.1,260.8,203.1,260.5,203.1,260.2z"/>
		<path class="st0" d="M203.6,261.7c0.2-0.4,0.6-0.7,1-0.9c0.4-0.2,0.8-0.4,1.2-0.4c0.9-0.1,1.7-0.1,2.6,0.1
			c1.7,0.5,3.1,1.7,3.7,3.4c0.6,1.6,0.3,3.4-0.8,4.7c-0.5,0.7-1.2,1.3-1.9,1.7c-0.5,0.3-1,0.4-1.6,0.5c-0.4,0.1-0.8,0-1.2-0.2
			c0.4-0.1,0.8-0.3,1.1-0.4c0.3-0.1,0.7-0.3,1-0.5c0.6-0.4,1.2-0.9,1.6-1.5c0.9-1.1,1.1-2.7,0.6-4c-0.4-1.3-1.5-2.4-2.8-2.9
			c-0.7-0.2-1.4-0.3-2.1-0.2c-0.4,0-0.7,0.1-1.1,0.1S204,261.7,203.6,261.7z"/>
		<path class="st0" d="M212.6,259c0.1-0.2,0.2-0.4,0.4-0.5c0.1-0.1,0.2-0.2,0.4-0.3l0.9-0.4c0.6-0.2,1.1-0.5,1.7-0.8
			s1.1-0.3,1.7-0.5l0.9-0.2c0.2-0.1,0.4-0.1,0.6-0.1c0.2,0,0.4,0.1,0.5,0.2c-0.1,0.1-0.2,0.3-0.4,0.4c-0.1,0.1-0.3,0.2-0.4,0.2
			l-0.9,0.4c-0.6,0.3-1.2,0.5-1.8,0.7s-1.2,0.3-1.8,0.5l-0.9,0.3c-0.2,0-0.3,0.1-0.5,0.1C213,259,212.8,259.1,212.6,259z"/>
		<path class="st0" d="M213.5,258.6c0.3,0.2,0.5,0.5,0.7,0.8c0.2,0.3,0.4,0.5,0.5,0.8l0.7,1.8l1.4,3.4c0.2,0.6,0.4,0.8,0.8,0.9
			c0.5,0.1,1,0.1,1.5,0c0.6-0.2,1.1-0.4,1.7-0.7c0.4-0.2,0.7-0.4,1.1-0.5c0.3-0.1,0.6-0.2,0.9-0.2c-0.2,0.3-0.4,0.5-0.6,0.8
			c-0.2,0.2-0.5,0.4-0.8,0.6c-0.6,0.4-1.1,0.7-1.8,0.9c-0.7,0.3-1.4,0.4-2.1,0.3c-0.4-0.1-0.8-0.3-1.1-0.5c-0.3-0.3-0.5-0.6-0.7-1
			c-0.6-1.2-0.8-2.3-1.2-3.5c-0.2-0.6-0.4-1.2-0.6-1.8c-0.1-0.3-0.2-0.6-0.2-0.9C213.5,259.3,213.5,259,213.5,258.6z"/>
		<path class="st0" d="M215.3,263.1c0-0.2,0.1-0.4,0.2-0.5c0.1-0.1,0.2-0.2,0.3-0.3l0.7-0.4c0.5-0.2,0.9-0.5,1.4-0.7
			s0.9-0.2,1.4-0.4l0.8-0.2c0.2-0.1,0.4-0.1,0.6,0c0.2,0,0.3,0.1,0.5,0.2c-0.1,0.1-0.2,0.3-0.3,0.4c-0.1,0.1-0.2,0.2-0.3,0.2
			l-0.7,0.4c-0.5,0.2-1,0.5-1.4,0.7s-1,0.3-1.5,0.5l-0.7,0.3c-0.1,0-0.3,0-0.4,0C215.7,263.1,215.5,263.2,215.3,263.1z"/>
		<path class="st0" d="M230.5,254.2c-0.5-0.1-1-0.3-1.4-0.3s-0.9-0.1-1.2-0.1c-0.8-0.1-1.5,0.2-2,0.8c-0.5,0.6-0.7,1.4-0.7,2.2
			c-0.1,0.8,0,1.6,0.2,2.4c0.1,0.8,0.4,1.5,0.7,2.2c0.3,0.6,0.9,1.1,1.6,1.2c0.8,0.1,1.6,0,2.3-0.4c0.5-0.3,1-0.6,1.4-0.9
			c0.3-0.3,0.7-0.5,1-0.8c-0.2,0.4-0.4,0.9-0.7,1.2c-0.9,1.2-2.3,1.9-3.8,1.9c-1.1,0-2.1-0.6-2.7-1.4c-0.6-0.8-0.9-1.7-1.1-2.7
			c-0.2-0.9-0.2-1.8-0.1-2.8c0.1-1,0.5-1.9,1.1-2.7c0.7-0.8,1.8-1.2,2.8-1.1c0.5,0,1,0.2,1.4,0.4
			C229.7,253.5,230.2,253.8,230.5,254.2z"/>
	</g>
</g>
</svg>
