<?xml version="1.0" encoding="UTF-8"?>
<svg id="Contours" xmlns="http://www.w3.org/2000/svg" viewBox="0 0 390.22 626.11">
  <defs>
    <style>
      .cls-1 {
        fill: #3f3f3f;
        stroke-width: 0px;
      }
    </style>
  </defs>
  <path class="cls-1" d="M225.2,417.03c-.7,4.1-1.6,7.8-2.2,11.6-2.7,16.1-7.6,31.4-17.1,44.8-2.2,3.1-5.1,5.6-8,8.1-3.1,2.6-8.5.9-11.6-3.7-6.4-9.5-13.2-18.8-18.9-28.7-4.7-8.2-8.2-17.2-12.1-25.9-2.6-5.7-5.1-11.4-7.5-17.1-1-2.4-1.7-4.9-2.9-7.3-.4-.8-2-1.6-2.7-1.4-9.3,3-18.6,6.1-27.8,9.3-11,3.8-22.1,7.7-33.1,11.7-14,5.1-27.8,10.8-39.4,20.4-7.9,6.5-12.5,15.2-14.7,25.2-2.1,9.8-4.6,19.5-6.5,29.3-1.4,7-2,14.2-3,21.2-.8,5.4-2,10.7-2.8,16.1-.7,4.3-1.1,8.6-1.6,13-1,9.7-2,19.3-3,29v1.1c-.2,9.7-.4,19.4-.8,29.1-.2,4.4-1,8.7-1.4,13-.2,1.6-.4,3.3.1,4.7.9,3-.5,4.5-2.9,5.5-1.7.6-5.4-2.2-5.3-4.2.4-9.6.9-19.2,1.4-28.8v-1.8c.5-11.8.6-23.7,1.6-35.5,1-11.3,2.7-22.6,4.4-33.9,1.8-11.9,3.5-23.7,5.9-35.5,2.2-11,4.8-22,8.2-32.7,1.7-5.3,5-10.4,8.7-14.8,11.4-13.5,26.9-20.5,43.1-26.3,17.8-6.5,35.6-13.1,53.4-19.5,4.8-1.7,9.8-3,14.7-4.5,6.2-1.8,6.3-2.1,5.9-8.4-.4-5-.5-10.1-.8-15.2-.3-6.2-.2-12.3-.9-18.5-.2-1.5-2.4-3.3-4-3.9-13.2-4.3-24.7-11.3-35-20.5-16.7-14.9-26.8-33.4-31.4-55-1.6-7.4-2.6-15.1-2.8-22.7-.2-4.1-1.5-6-5.2-6.4-11.8-1.4-21-7.7-28.5-16.4-5.1-5.9-8.1-12.9-9.3-20.8-1.6-10.7,1.5-19.6,9.3-26.8,2-1.8,4.6-3.1,7-4.5,1.8-1.1,2.4-2.2,1.8-4.6-1.4-6-2.6-12.1-3.2-18.2-.7-6.4-1.1-12.8-.7-19.2.9-13.2,3.1-26.2,11-37.4,2.9-4.1,6.1-7.7,11.3-9.2,1.5-.4,3.2-2.2,3.8-3.8,5-13,12.9-23.9,23.1-33.1,7.3-6.5,15.6-11.1,26-11,2,0,4.2-1.9,5.9-3.4,9.4-8.3,20-14.6,31.2-19.9,8.6-4,17.6-7.1,27.1-8.2,5.3-.6,10.7-1.6,16-1.4,12.4.4,24,4.1,33.4,12.5,3.1,2.8,5.4,6.7,7.7,10.4,1.7,2.8,3.4,4.2,7,4.3,7,.2,13.1,3.5,18.4,7.9,15.9,13.3,23.7,31.4,29.2,50.8,2.6,9.3,4.8,18.7,6.6,28.2,1.1,5.6,1.3,11.3,1.5,17,.4,8.1.5,16.2.9,24.4,0,.9,1.7,2.6,2.3,2.5,5.8-1,10.9.5,15.8,3.3,9.6,5.4,13.6,13.9,13.6,24.8s-4.5,20.5-11.5,28.8c-6.2,7.3-13.7,12.4-22.9,14.7-4.1,1-8.4,1.2-12.7,1.4-2.4.1-3.2.8-3.1,3.2.2,4,.2,8.1,0,12.1-.8,16.8-4,33.1-10.5,48.7-6.1,14.7-14.4,27.9-26.7,38.2-5.2,4.4-11.4,7.7-17.4,11.2-2.6,1.5-3.8,3-3.7,6.1.4,8.2.6,16.5.8,24.7.1,3.9,2.7,5.2,5.8,6.1,3.2.9,6.5,1.7,9.8,2.2,1.3.2,2.8-.7,4.1-.6,4.8.3,9.7.9,14.5,1.3.5,0,1,0,1.4.1,3.7.2,7.4.7,11.1.7s7.4-.7,11.1-.6c8.7.1,17,2.1,25.1,5.1,3.8,1.4,7.9,2.4,11.7,3.7,6.1,2.1,11.4,5.5,14.8,11.2,4.6,7.6,9.3,15,12.2,23.7,5.6,16.3,10,32.8,13.1,49.8,3.2,16.8,6.7,33.5,10.3,50.2,2.1,9.7,5,19.3,7.2,29,1.2,5.1,1.3,10.5,2.3,15.6,1.6,8.4,3.6,16.7,5.3,25,.6,2.9.9,5.8,1.3,8.7.3,2.3.4,4.7,1.1,6.9.9,2.7-.2,4.8-2.2,5.7-2.1,1-4.8.5-5.7-2.4-.9-3.1-1.5-6.3-2.1-9.4-1.3-6.7-2.5-13.5-3.7-20.2-1.2-7-2.3-14-3.7-20.9-1.7-8.3-3.8-16.6-5.6-24.9-2.1-9.7-4.1-19.4-6.2-29.1-2.1-9.9-4.3-19.8-6.3-29.8-1.7-8-3-16.1-5-24.1-2.3-8.7-5.5-17.1-7.9-25.8-2.2-7.9-6.5-14.6-10.5-21.4-3.1-5.3-7.9-8.6-13.7-10.3-6.9-2.1-13.8-4.1-20.8-5.9-3.2-.8-6.4-1.3-9.7-1.5-5.8-.2-11.5.1-17.3-.1-10.1-.4-20.2-.9-30.3-1.5-2.1-.1-4.3-.9-6.3-1.6-4.6-1.4-5.1-.9-5.5,3.6-.6,7.8-1.5,15.4-2.2,23.3M98.1,299.93c.3.5.4,1.1.8,1.5,6.6,6.7,12.8,13.9,20,19.8,11.7,9.6,25.6,14.8,40.5,17.7,4.2.8,8.5,1.4,12.7,2.2,2.6.5,3.8,2.5,2.8,4.7-.6,1.4-2.5,3.1-3.9,3.2-2.9.3-6,0-8.8-.7-7.7-1.8-7.5-1.9-7.8,5.7-.1,4,1.5,5.8,5,7,8.9,3,17.7,6.5,26.6,9.4,2.2.7,4.9.2,7.3-.3,1.7-.4,3.2-1.7,4.8-2.6,5.9-3.4,11.9-6.9,17.8-10.3,2.7-1.6,1.9-4.3,1.6-6.6-.1-.6-2.3-1.5-3.4-1.4-2.9.2-4.1-1.8-4.3-3.7-.1-1.3,1.7-2.9,2.9-4.1.7-.6,1.9-.9,2.8-1,11.3-1.8,20.5-7.7,28.6-15.2,10-9.2,17-20.6,22.1-33.1,5.8-14.2,9.2-28.9,9.5-44.2.2-8-.6-16-.5-24,0-2.1,1-4.9,2.5-6.1,1.9-1.5,3.8.6,5.4,2.2,1.1,1.1,2.6,2.4,4,2.6,10.8,1.3,19.7-3.1,27.3-10.3,6.6-6.3,10.7-14,12-23,.8-5.6-.5-11.2-4.4-15.8-7.2-8.2-16.5-8.4-25.3-4.5-5,2.2-9.8,5.1-14.2,8.4-4.7,3.5-6,1.4-8.2-2.2-.5-.8-.5-1.8-.8-2.6-3.5-7.9-7.7-15.2-16.4-18.4-3.1-1.2-4.5-3.7-4.9-6.7-1.1-10.7-2.2-21.5-2.9-32.3-.2-3-1.4-4.9-3.9-5.6-8-2.3-16.1-4.6-24.3-6.1-7.4-1.3-15.1-2.1-22.6-2.2-11.7-.2-23.4.1-35,.7-10,.5-20.1,1.3-30,3-9.3,1.6-18.5,4.3-27.7,6.9-1.5.4-3.4,2.6-3.6,4.2-1.1,6-1.9,12.1-2.3,18.2-.5,7.6-.6,15.2-.8,22.9-.1,2.6-1,4.1-3.7,5.2-5.7,2.4-10.9,5.5-12.8,12.2-1,3.7-4.9,5.2-8.7,3.8-5.7-2-11.4-3.5-17.6-2.9-14,1.2-21,12.5-18.9,24.7,1.5,9.2,6.4,16.8,14.1,22.4,5.7,4.1,11.7,7.5,19,7.4,7.8-.1,9.9,3.9,10.2,10.4.3,7.4.1,15,1.6,22.2,2.9,13.1,7.5,25.8,15.8,37.3M78.3,164.43c3.1-2.6,6-5.5,9.4-7.7,2.3-1.5,3.3-3.2,3.5-5.6.8-11,2.2-22,2-32.9-.1-9.9,4.2-12.1,11.4-15,12.2-4.9,25.1-6.9,38-8.6,10.3-1.4,20.7-1.9,31.1-2.2,7.4-.3,14.8.3,22.1.7,7,.4,14.1.9,21.1,1.4,10.6.8,20.9,2.8,30.8,6.6,6.7,2.6,10.7,5.7,10.7,14.5,0,6.4.4,12.8.7,19.2.1,2,.4,4,.7,5.9.7,3.3,1.7,6,5.5,7.7,3.2,1.5,5.9,4.5,8.3,7.4,2.4,2.8,4.2,6.1,6.1,9.2,1.1,1.9,1.9,3,4.2.9,2.1-1.9,4.7-3.6,7.3-4.4,3.3-.9,4-2.9,4-5.7-.1-4.8-.4-9.6-.7-14.4-.7-8.3-1-16.6-2.3-24.8-1.6-10-3.8-19.9-6.4-29.7-3.6-13.2-9.2-25.6-17.7-36.5-6.7-8.5-14.7-14.3-25.9-14.9-3.6-.2-6.4-1.5-8.1-5.3-3.4-7.9-9.2-13.8-17.1-17.3-11.9-5.2-24.5-5.2-36.8-2.2-19.6,4.7-37.1,14.1-52.3,27.6-2.7,2.4-5.4,6-9.8,4.6-5.2-1.7-9.4.4-13.2,3.1-12.4,8.7-21.7,20-27.1,34.3-1.3,3.5-3.4,6.2-7.3,7.7-2.8,1.1-5.8,2.9-7.7,5.3-7.4,9.5-9.8,20.8-10.5,32.4-.5,8.1,0,16.3.7,24.3.4,4.8,1.7,9.5,3.1,14.2.3,1.1,2.2,2.1,3.6,2.4,3.4.7,7,.9,10.4,1.6,5.4,1,5.1,1.8,8.2-3.8M162.2,371.33c-.8-.3-1.5-.5-2.3-.8-4.7-1.6-4.6-1.6-4.8,3.4-.2,6.7,1.2,13.6-2.1,20.1-.5,1-.1,2.7.4,3.8,2.2,5.3,4.6,10.6,6.9,15.9,3.9,8.9,7.8,17.8,11.8,26.7.3.6,1.1,1,1.7,1.5.2-.8.4-1.5.5-2.3.8-6.1,1.7-12.1,2.1-18.2.3-4.2,1.3-8.8-2.7-12.2-3-2.6-2.9-5.9-1.3-9.2,2.8-5.7,5.7-11.4,8.8-16.9,2.2-3.9,2.1-4.6-2.1-6-5.3-1.8-10.7-3.8-16.9-5.8M211.2,398.93c2.5,4.1,2.2,7.3-.8,11.1-.7.9-1.5,2.1-1.4,3,1,5.4,2.3,10.8,3.6,16.1.1.4.9.7,1.4,1,.3-.4.7-.8.7-1.3.3-1.8.6-3.7.8-5.6.8-6.9,1.7-13.8,2.2-20.8.7-9,1.1-18,1.5-27,.1-2.5.1-5,0-7.5-.1-1.4-.5-2.6-2.5-1.3-4.6,2.8-9.3,5.5-13.9,8.1-3.2,1.8-3.4,2.9-1.6,6.1,3.4,5.9,6.7,11.7,10,18.1Z"/>
  <path class="cls-1" d="M264.9,476.63c1.1-3.9,2-7.6,3.4-11.1,1.4-3.4,4.8-3.5,6.8-.4.9,1.3,1.7,2.7,2.5,4.1.4-1.4.5-3.1,1.4-4.1,1.5-1.6,3.6-3.9,5.2-3.7,1.6.2,3.7,2.9,4.1,4.8,1,4.7,1.1,9.6,1.6,14.4.2,2.3.6,4.7.7,7,0,.7-.7,1.4-1.1,2.1-.7-.4-1.7-.7-2-1.3-.6-1.3-1.1-2.8-1.3-4.2-.6-5.3-1-10.6-1.5-15.9-.1-.6-.6-1.2-.8-1.8-.6.5-1.6.8-1.8,1.4-.7,2.2-1.5,4.4-1.7,6.6-.5,3.7-.4,7.4-.8,11.1-.2,1.5-1,2.8-1.5,4.3-1.1-1.2-2.8-2.3-3-3.6-.8-3.7-.9-7.5-1.3-11.2-.1-.6.1-1.3,0-1.8-.5-1.6-1.2-3.1-1.8-4.7-.6,1.4-1.6,2.9-1.7,4.4-.7,5-.9,10.1-1.6,15.2-.2,1.2-1.4,2.2-2.1,3.3-.6-.9-1.6-1.8-1.6-2.8-.3-4-.1-7.8-.1-12.1Z"/>
  <path class="cls-1" d="M326,468.53c-.9,1.7-1.6,3.2-2.6,4.4-1.5,1.7-1.5,2.5.6,3.8,2.9,1.8,5.5,4.1,8,6.3.7.6.8,2,1.2,3-1.2.2-2.7.9-3.4.4-2.9-2-5.5-4.4-8.3-6.6-.6-.5-1.4-.9-2.1-1.3-.2,1-.7,2-.6,3,.3,1.8,1,3.5,1.3,5.3.1.7-.5,1.5-.9,2.2-.7-.3-1.7-.4-2-1-1.1-2.6-2.3-5.2-2.9-8-1.1-4.6-2-9.2-2.7-13.9-.2-1.2.5-3.4,1.4-3.9,2.9-1.5,5.9-3.5,9.7-1.9,3.9,1.7,5,3.7,3.3,8.2M318.7,464.53c-3.2.9-2.1,3.5-2.1,5.6,0,.5,1.9,1.4,2,1.3,1.6-1.6,3.1-3.4,4.5-5.1-1.4-.8-2.7-1.5-4.4-1.8Z"/>
  <path class="cls-1" d="M309.6,475.33c.4,3.1.9,6.1.8,9.1,0,1.1-1.1,2.2-1.7,3.3-.9-1.1-2.2-2-2.6-3.2-.6-1.9-.7-3.9-.7-5.9,0-3.8-3-2.9-4.6-2.4-1.4.4-3,2.2-3.4,3.7-.6,2,0,4.4-.2,6.6-.1.9-.7,1.8-1.1,2.8-.8-.8-2.4-1.5-2.4-2.2.2-7.9-1.9-16.4,3.7-23.4,1.2-1.5,3.6-3,5.3-2.8,1.5.2,3.4,2.4,4,4.2,1.3,3.1,1.9,6.6,2.9,10.2M301.4,472.23c.7-.4,1.7-.7,1.9-1.3.4-1.1.6-2.5.4-3.6-.2-.7-1.4-1.1-2.1-1.7-.9,1.4-2.1,2.7-2.7,4.2-.3.8.6,2.1,1,3.1.2-.2.5-.5,1.5-.7Z"/>
  <path class="cls-1" d="M267.3,235.33c-6.6,13-16.6,21.3-30.8,24.1-10,2-19.6.8-28.5-4.3-1.9-1.1-3.3-.4-4.8.8-2.1,1.7-4.2,3.4-6.7,4.3-1.4.6-4.1.4-5-.6-1.5-1.7-1.6-4.1.7-5.9,4.4-3.4,8.7-7,10.9-12.4,2-5.1,2.7-10.5.6-15.5-2.5-6-7.8-6.7-14.1-1.5-2.7,2.2-4.3,6-6.3,9.1-.7,1-1,2.4-1.9,3.2-1.4,1.5-3,3.2-5.4,1.4-1.9-1.4-2.6-2.8-1.8-5.3,1.7-5.3,4.5-9.9,8.6-13.8,3.5-3.2,2.7-8.2-1.2-9.5-4.4-1.5-7.6,1-7.9,5.7-.6,9.4-3.5,18-9,25.7-5.7,8-13.4,13.6-22.6,16.3-12.6,3.7-25,2.3-35.8-5.3-10.9-7.6-17.5-18.2-19.4-31.6-2.4-16.2,2.3-30.1,13.6-41.6,5.8-5.9,13-9.9,21.4-11.3,1.4-.2,2.7-1.3,3.8-2.3,4.5-4.2,9.2-3.8,13.2.8,1.3,1.5,3.4,2.3,5.3,3,10.6,3.7,18.1,10.9,23.6,20.4,1.6,2.8,2.6,6,3.7,9.1.9,2.5,2.4,3.4,5.1,2.7,1.7-.4,3.6-.2,5.4.1,2.7.4,4.7.2,5.7-2.9,4.5-14.3,14.7-23.2,28.2-28.6,1.3-.5,2.6-1.4,3.3-2.5,4.9-7,12.6-7.2,18.1-.6,1.3,1.6,3.3,3,5.3,3.7,15,5.5,23.8,16.6,28.1,31.4,3.3,11.5,1.6,22.7-3.4,33.7M95.6,203.13c0,6.5-1.3,13.4.2,19.6,4,16.6,18.5,30,38.6,27.2,9.8-1.4,17.2-6.5,23-14.1,7.1-9.3,8.8-19.9,6.7-31.2-2.2-11.7-8.7-20.3-18.9-26.1-1.6-.9-2.8-1.3-3.3,1.5-.9,4.6-.5,9.5-3.5,13.6-2.4,3.3-4.9,6.3-9.2,6.1-3.9-.2-6.3-2.5-8-6.2-2.1-4.7-2-9.4-1-14.2.2-.7.1-1.5.2-2.2-.8.1-1.8-.1-2.5.2-11.3,5-18.8,13.3-22.3,25.8M211.9,240.63c-.2.9-.4,1.8-.8,2.6-1.3,2.7-.6,4,2.3,5.2,6.5,2.6,12.8,4.1,19.9,3,12.1-1.8,22.8-11.5,27.1-21.8,3.2-7.8,3.9-15.7,2.2-23.9-2.4-11.7-8.6-20.6-19.5-25.9-3.1-1.5-4.2-.9-4,2.6.2,4.1-1.1,7.7-2.9,11.3-2.9,5.6-11,5.8-14.2,1.9-3.3-4-3.7-8.5-3.6-13.3.1-3.8-.7-4.2-4.3-2.5-6.4,2.9-11,7.6-14.8,13.3-3.5,5.2-5.3,10.9-5.8,17.1-.1.8,1.5,2.4,2.1,2.3,4.4-.7,10.7,2,13.3,5.7,4.9,6.9,5.4,14.3,3,22.4Z"/>
  <path class="cls-1" d="M194.2,289.63c-6.4-.1-12.4.2-18.3-.5-3.1-.4-6-2.6-8.8-4.3-.8-.5-1.3-2.7-.9-3.4.8-1.2,2.5-2.7,3.8-2.7,2.4.1,4.8,1.3,7.2,2,9,2.8,17.5,2,24.8-4.5,2.4-2.1,4.2-1.9,6.1.3,1.9,2.2.9,4.3-.6,6-3.5,3.8-7.9,6.1-13.3,7.1Z"/>
  <path class="cls-1" d="M228.1,154.83c-4-.5-6.2,2.2-8.6,4-2.2,1.6-3.6,1.7-5.6-.1-2.1-1.9-1.6-4.2-.3-5.7,6.7-8.1,19.7-10.6,27.2-.3.9,1.2.4,4.4-.6,5.7-1.4,1.8-3.6,1.2-5.6-.4-1.9-1.4-4.1-2.1-6.5-3.2Z"/>
  <path class="cls-1" d="M118.2,154.73c6.2-9.2,16.5-10.4,23.6-2.5,1.6,1.8,2.7,4.7.2,6.3-1.4.9-4.5.5-6-.6-4.3-2.9-6.8-3.1-10.9,1-1.8,1.8-4,2.7-5.7,1.5-1.1-.9-.9-3.6-1.2-5.7Z"/>
</svg>