<?xml version="1.0" encoding="utf-8"?>
<!-- Generator: Adobe Illustrator 28.1.0, SVG Export Plug-In . SVG Version: 6.00 Build 0)  -->
<svg version="1.1" id="레이어_1" xmlns="http://www.w3.org/2000/svg" xmlns:xlink="http://www.w3.org/1999/xlink" x="0px"
	 y="0px" viewBox="0 0 443.4 422.2" style="enable-background:new 0 0 443.4 422.2;" xml:space="preserve">
<style type="text/css">
	.st0{fill:#3F3F3F;}
	.st1{fill:none;stroke:#3F3F3F;stroke-width:0.25;stroke-miterlimit:10;}
</style>
<g id="레이어_2_00000106125128686440206460000001915008161971552667_">
	<g id="레이어_3">
		<path class="st0" d="M87.4,234.1c0.1-1.6,0.4-3.1,0.8-4.7c0.3-1.4,0.9-2.8,1.6-4.1c1-1.8,2.2-3.4,3.6-4.9l0,0
			c0.7-0.7,1.4-1.3,2.3-1.8c1.3-0.8,2.7-1.4,4.1-1.9c0.7-0.3,1.4-0.5,2.1-0.7l1.1-0.3l0.5-0.1l0.3-0.1h0.1l0,0l0,0h0.1
			c2.8-0.6,5.5-1,8.4-1.3c2.7-0.2,5.5-0.2,8.2,0c2.7,0.2,5.5,0.5,8.2,1c2.9,0.5,5.7,1.3,8.5,2.2c1.8,0.6,3.6,1.3,5.4,2.2
			c1.2,0.6,2.4,1.3,3.4,2.1c-1.4-0.4-2.7-0.9-4.1-1.4s-2.7-0.9-4.1-1.3c-2.7-0.8-5.5-1.5-8.3-2c-5.6-1-11.3-1.2-17-0.8
			c-2.8,0.2-5.5,0.6-8.1,1.1h0.1l-1.1,0.2l-1,0.2c-0.7,0.2-1.3,0.3-2,0.6c-1.3,0.4-2.6,0.9-3.8,1.6c-0.4,0.2-0.8,0.5-1.2,0.8
			c-0.2,0.1-0.3,0.3-0.5,0.4l-0.6,0.5l0.1-0.1c-1.3,1.3-2.4,2.7-3.3,4.3c-0.7,1.2-1.3,2.5-1.9,3.7C88.7,230.8,88.2,232.8,87.4,234.1
			z"/>
		<path class="st0" d="M146.1,221.5c0.5,0.2,0.9,0.4,1.3,0.8c0.3,0.3,0.7,0.6,0.9,0.9c0.5,0.7,1,1.4,1.4,2.1
			c0.9,1.4,1.7,2.9,2.4,4.4c0.6,1.5,1.1,3,1.4,4.6l0.6,2.4c0.1,0.5,0.2,1.1,0.2,1.7c0,0.4-0.1,0.9-0.2,1.3c-0.3-0.3-0.5-0.7-0.7-1.1
			c-0.2-0.4-0.4-0.8-0.5-1.2l-0.8-2.4c-0.5-1.5-1.1-3.1-1.9-4.5c-0.7-1.5-1.2-2.9-2-4.4c-0.4-0.7-0.8-1.4-1.2-2.1
			c-0.2-0.4-0.4-0.7-0.5-1.1C146.3,222.5,146.1,222,146.1,221.5z"/>
		<path class="st0" d="M87.3,234.2c2.2-0.5,4.4-0.8,6.6-1c2.1-0.3,4.1-0.5,6.2-0.6c4.1-0.2,8.2-0.4,12.4-0.4c4.1-0.1,8.1,0,12.2,0.3
			c4,0.4,8,1,12,1.9c4.1,0.8,7.7,1.6,11.3,2.6c0.9,0.2,1.9,0.6,2.8,0.9c0.5,0.2,0.8,0.4,1.2,0.5c0.4,0.2,0.8,0.3,1.2,0.4
			c0.4,0.1,0.9,0.1,1.3,0.1c0.2,0,0.4,0,0.7,0c0.3,0,0.6,0,0.9,0.1c1.1,0.2,2.2,0.7,3.1,1.5c0.2,0.2,0.4,0.4,0.6,0.6
			c0.2,0.1,0.3,0.3,0.5,0.4l1.2,0.9l2.5,1.8l5.1,3.5c1.7,1.2,5.1,3.4,6.8,4.5s3.1,1.8,4.9,3c-1-0.3-1.9-0.7-2.9-1.1
			s-1.9-0.9-2.8-1.3c-1.8-0.9-3.6-2-5.4-3.1c-3.5-2.3-6.9-4.5-10.3-6.8c-0.2-0.2-0.5-0.3-0.7-0.5c-0.2-0.2-0.4-0.3-0.5-0.5
			c-0.3-0.3-0.7-0.5-1.1-0.7c-0.4-0.2-0.8-0.3-1.2-0.4c-0.2,0-0.4,0-0.6,0c-0.2,0-0.6,0-0.8,0c-1.1,0-2.3-0.3-3.3-0.7
			c-0.3-0.1-0.5-0.2-0.8-0.3l-0.6-0.2c-0.5-0.1-0.9-0.3-1.4-0.4c-3.9-1.1-8-1.9-12-2.6s-7.8-1.5-11.7-2c-3.9-0.4-7.9-0.6-11.8-0.6
			c-4.1,0-8.2,0.1-12.3,0.3c-2.1,0.1-4.1,0.2-6.2,0.2C92.2,234.1,89.4,234.4,87.3,234.2z"/>
		<path class="st0" d="M87.2,233.7c-2.6,0.6-5,1.6-7.3,2.9c-1.2,0.7-2.2,1.5-3.4,2.1s-2.3,1.2-3.5,1.7c-2.2,1-4.5,1.8-6.7,2.8
			s-4.3,2.1-6.5,3.2L47,253.3c-2.1,1.1-4.2,2.3-6.2,3.6c-1.9,1.4-3.7,3-5.5,4.6c-0.9,0.8-1.9,1.6-2.9,2.3c-1,0.7-1.9,1.4-2.7,2.2
			c-0.4,0.3-0.8,0.7-1.2,1.1c-0.3,0.4-0.4,0.8-0.5,1.3c0,0.1,0,0.3-0.1,0.5s-0.1,0.4-0.1,0.5c-0.1,0.3-0.2,0.6-0.3,0.9
			c-0.2,0.6-0.5,1.1-0.7,1.7c-2.1,4.3-3.9,8.6-5.8,12.9c-0.9,2.1-1.9,4.3-2.7,6.5c-0.7,2.2-1.4,4.4-1.8,6.7c-1,4.6-1.8,9.3-2.6,14.1
			s-1.8,9.3-2.6,13.7c-0.4,2.2-0.8,4.4-1.2,6.6c-0.2,1.1-0.4,2.2-0.7,3.3s-0.6,2.1-0.9,3.2c-0.6,2.1-1.3,4.2-1.7,6.3
			c-0.2,1-0.4,2.1-0.3,3.1c0.1,1.2,0.1,2.4-0.1,3.6c-0.2,0.6-0.4,1.2-0.8,1.8c-0.3,0.4-0.5,0.8-0.6,1.3c-0.1,0.5-0.2,1-0.2,1.5v0.8
			c0,0.3,0,0.6,0,0.9c0,2.4-0.3,4.7-0.4,7.1c-0.1,2.4-0.1,4.8,0.1,7.2c0.1,1.2,0.1,2.5,0.1,3.7c0,0.6-0.1,1.3-0.3,1.9l-0.4,1.8
			c-0.3,1.2-0.5,2.3-0.7,3.5c0,1.1,0.3,2.2,0.9,3.1c1.1,2.1,2.2,4.3,3.2,6.6c0.3,0.7,0.5,1.3,0.7,2c0.1,0.7,0.3,1.5,0.5,2.2
			c0.3,0.7,0.7,1.4,1.3,2c0.6,0.7,1.2,1.4,1.7,2.1c0.9,1.6,1.9,3.1,2.6,4.6s1.4,2.8,2,3.9c0.3,0.5,0.6,1,1,1.4
			c0.4,0.5,0.7,0.9,1,1.5c0.6,1,1,2,1.4,3c0.8,2,1.7,3.9,2.7,6.2c-1.2-2.1-2.4-4.2-3.5-6.4c-0.5-1.1-1.1-2.1-1.8-3.1
			c-0.3-0.4-0.8-0.9-1.1-1.4s-0.7-1-1-1.5c-0.7-1.1-1.2-2.2-1.8-3.2s-1.2-2.1-1.8-3.1c-0.3-0.5-0.6-1-1-1.5
			c-0.3-0.5-0.7-0.9-1.1-1.3c-1-0.9-1.7-2.1-2.1-3.4c-0.2-0.6-0.3-1.2-0.4-1.8c-0.2-0.6-0.3-1.1-0.6-1.6c-0.4-1.1-1-2.2-1.5-3.2
			l-1.7-3.2c-0.7-1.2-1.1-2.5-1.1-3.9c0.2-1.3,0.4-2.5,0.7-3.7l0.4-1.8c0.1-0.5,0.2-1.1,0.3-1.7c0-1.2,0-2.3-0.1-3.5
			c-0.1-1.2-0.2-2.5-0.2-3.7c-0.1-2.5,0-4.9,0.2-7.3c0.1-1.2,0.2-2.4,0.1-3.6c0-0.6-0.1-1.1-0.1-1.8c0-0.7,0.1-1.4,0.3-2.1
			c0.1-0.3,0.3-0.7,0.4-1c0.2-0.3,0.4-0.6,0.5-0.8c0.2-0.4,0.4-0.9,0.4-1.4c0.1-0.5,0.1-1.1,0-1.6c-0.1-0.6-0.1-1.3-0.1-1.9
			c0.3-2.5,0.8-4.9,1.5-7.3c0.7-2.3,1.4-4.7,1.8-7s0.9-4.8,1.3-7.1l2.6-14.3c0.9-4.8,1.7-9.4,2.7-14c0.5-2.3,1.1-4.6,1.9-6.8
			c0.8-2.2,1.8-4.3,2.7-6.5c1.9-4.2,3.7-8.5,5.8-12.7c0.5-1,1-2,1.3-3.1c0-0.1,0.1-0.2,0.1-0.3c0-0.2,0-0.3,0.1-0.5
			c0.1-0.3,0.2-0.7,0.4-1c0.2-0.3,0.4-0.7,0.6-0.9l0.4-0.4l0.3-0.3c0.9-0.8,1.8-1.6,2.8-2.3c0.5-0.4,1-0.7,1.5-1
			c0.5-0.3,0.9-0.7,1.4-1.1c1.8-1.5,3.7-3.2,5.6-4.7c1-0.7,2-1.4,3.1-2c1.1-0.6,2.1-1.2,3.2-1.8l12.9-6.7c2.2-1.1,4.3-2.2,6.6-3.2
			c2.3-1,4.6-1.7,6.8-2.5c1.1-0.4,2.3-0.9,3.6-1.5c0.6-0.3,1.2-0.6,1.8-1s1.2-0.8,1.9-1.1C81.7,235,84.4,234.1,87.2,233.7z"/>
		<path class="st0" d="M36.3,318.7c0.7,2.2,1.2,4.5,1.6,6.8c0.5,2.1,0.8,4.2,1.1,6.3l1.9,12.7c1.2,8.5,2.5,16.4,3.7,24.9
			s1.9,15.4,2.9,23.9l1.5,12.7c0.2,2.1,0.7,6.3,0.8,8.5c0.2,2,0.2,4,0.2,6c-0.5-2.1-0.9-4.2-1.2-6.3s-0.7-4.2-1-6.3L46.2,395
			c-1.2-8.5-2.2-16.9-3.6-25.4s-2.1-16.1-3.3-24.6l-1.7-12.7c-0.3-2.1-0.5-4.2-0.7-6.4S36.3,320.9,36.3,318.7z"/>
		<path class="st0" d="M80.4,160.5c-0.3-0.1-0.4-0.3-0.6-0.5c-0.1-0.2-0.2-0.4-0.3-0.6c-0.1-0.4-0.2-0.8-0.2-1.3
			c-0.1-0.9,0-1.7,0.3-2.5c0.5-1.1,1.3-2.1,2.3-2.9c0.2-0.2,0.5-0.3,0.8-0.4c0.2-0.1,0.4-0.1,0.7,0c-0.1,0.2-0.2,0.4-0.4,0.5
			c-0.1,0.1-0.3,0.3-0.4,0.4c-0.3,0.3-0.5,0.5-0.8,0.8c-0.4,0.6-0.8,1.2-1,1.9c-0.4,1-0.6,2.1-0.4,3.2c0,0.2,0,0.4,0,0.6
			C80.4,160,80.5,160.2,80.4,160.5z"/>
		<path class="st0" d="M83.4,152.2c-0.1-0.7-0.2-1.4-0.1-2.1c0-0.6,0.2-1.3,0.3-1.9c0.4-1.2,0.9-2.4,1.6-3.5
			c0.6-1.1,1.4-2.1,2.2-3.1c2.4-2.8,5.4-4.9,8.8-6.3c1.2-0.5,2.4-0.9,3.6-1.2c0.8-0.2,1.6-0.4,2.5-0.5c0.6-0.1,1.2-0.1,1.8-0.1
			c-0.6,0.2-1.2,0.4-1.8,0.6s-1.2,0.4-1.8,0.5c-1.2,0.3-2.3,0.7-3.5,1.3c-2.2,1.1-4.3,2.4-6.2,4c-1.9,1.5-3.5,3.2-4.8,5.2
			c-0.6,1-1.2,2.1-1.6,3.3l-0.6,1.7C83.8,150.7,83.6,151.6,83.4,152.2z"/>
		<path class="st0" d="M101.2,135.8c0.6-0.8,1.3-1.5,2.1-2.2c0.7-0.6,1.4-1.2,2.2-1.7c1.6-1,3.3-1.8,5.1-2.4c3.4-1.2,7-2.1,10.6-2.5
			c3.5-0.3,7-0.1,10.4,0.6c0.9,0.2,1.8,0.4,2.7,0.6c0.9,0.2,1.8,0.3,2.7,0.3c0.9,0.1,2.7,0.1,3.6,0.1s1.6,0,2.6,0.1
			c-0.9,0.2-1.8,0.4-2.7,0.5c-0.9,0.1-1.9,0.2-2.8,0.1c-0.9,0-1.9-0.1-2.8-0.2c-0.9-0.1-1.9-0.3-2.7-0.5c-3.6-0.6-7.2-0.8-10.8-0.4
			c-3.5,0.3-6.9,1.1-10.3,2.1c-1.7,0.6-3.4,1.3-4.9,2.2c-0.8,0.4-1.6,0.9-2.3,1.4S102,135.3,101.2,135.8z"/>
		<path class="st0" d="M138.3,132.1c0.2-0.2,0.4-0.3,0.6-0.4c0.2-0.1,0.4-0.2,0.6-0.2l1.1-0.2c0.8-0.1,1.5-0.3,2.2-0.3
			s1.4-0.1,2.2-0.1l1.1-0.1c0.3,0,0.5,0,0.8,0c0.2,0,0.4,0.1,0.6,0.2c-0.2,0.1-0.3,0.2-0.5,0.3c-0.2,0.1-0.4,0.1-0.6,0.2l-1.1,0.3
			c-0.8,0.2-1.5,0.4-2.3,0.4c-0.8,0.1-1.5,0-2.3,0.1l-1.2,0.1c-0.2,0-0.4,0-0.6-0.1C138.8,132.2,138.5,132.3,138.3,132.1z"/>
		<path class="st0" d="M140.8,130.1c0.1-0.1,0.3-0.3,0.5-0.3c0.1-0.1,0.3-0.1,0.4-0.1l0.8,0.1c0.6,0.1,1.1,0,1.6,0.1l1.5,0.3
			l0.8,0.1c0.2,0,0.4,0.1,0.5,0.2c0.2,0.1,0.3,0.2,0.4,0.4c-0.1,0.1-0.3,0.2-0.4,0.2c-0.1,0-0.3,0-0.4,0h-0.9c-0.6,0-1.1,0-1.7-0.1
			c-0.6-0.1-1.1-0.2-1.6-0.4l-0.8-0.2c-0.1,0-0.3-0.1-0.4-0.2C141.1,130.4,140.9,130.4,140.8,130.1z"/>
		<path class="st0" d="M139.6,130.2c0.1-0.1,0.2-0.3,0.3-0.4c0.1-0.1,0.1-0.1,0.2-0.1c0.2,0,0.3-0.1,0.4-0.1
			c0.3-0.1,0.5-0.2,0.8-0.4c0.3-0.1,0.5-0.1,0.8-0.3c0.1-0.1,0.3-0.1,0.4-0.2c0.1-0.1,0.2-0.1,0.3-0.1c0.1,0,0.3,0,0.4,0.1
			c0,0.1,0,0.2,0,0.4c0,0.1-0.1,0.2-0.1,0.2c-0.1,0.1-0.3,0.3-0.4,0.4c-0.3,0.3-0.6,0.5-0.9,0.7c-0.3,0.1-0.7,0.2-1.1,0.2
			c-0.2,0-0.4,0-0.6,0c-0.1,0-0.2,0-0.3-0.1C139.8,130.3,139.7,130.4,139.6,130.2z"/>
		<path class="st0" d="M81.1,163.2c-0.2,0.2-0.4,0.3-0.6,0.3c-0.2,0.1-0.3,0.1-0.5,0.1h-1c-0.7,0-1.3,0-2-0.1
			c-0.7-0.1-1.2-0.3-1.9-0.4l-1-0.2c-0.2,0-0.4-0.1-0.6-0.2c-0.2-0.1-0.3-0.2-0.4-0.4c0.2-0.1,0.4-0.1,0.5-0.2c0.2,0,0.3,0,0.5,0
			l1,0.1l2,0.2c0.7,0.1,1.3,0.2,1.9,0.3l1,0.1c0.2,0,0.3,0.1,0.5,0.2C80.7,163,80.9,163,81.1,163.2z"/>
		<path class="st0" d="M80.7,170.1c-0.2,0.3-0.5,0.5-0.9,0.6c-0.3,0.1-0.6,0.2-0.9,0.3c-0.6,0.1-1.2,0.1-1.8,0
			c-0.6,0-1.2-0.1-1.8-0.2c-0.3-0.1-0.6-0.2-0.9-0.3c-0.2-0.1-0.4-0.2-0.5-0.3c0,0-0.1-0.1-0.1-0.1c-0.1-0.1-0.1-0.2-0.1-0.3
			c0-0.2,0-0.4,0.1-0.5c0.1-0.1,0.1-0.1,0.2-0.1l0.1-0.1c0.1,0,0.2-0.1,0.3-0.1h0.2c0.7,0,1.1,0,1.7,0c0.5,0,1,0,1.6-0.1
			c0.6-0.1,1.1-0.3,1.6-0.5c0.3-0.1,0.8-0.3,1.1-0.4c0.3-0.1,0.6-0.1,0.9-0.2c-0.2,0.3-0.4,0.5-0.6,0.7c-0.2,0.2-0.5,0.4-0.8,0.5
			c-0.6,0.3-1.1,0.5-1.7,0.7c-1.2,0.3-2.4,0.5-3.6,0.4c-0.1,0,0,0.2-0.2-0.4c0,0-0.1-0.1-0.1-0.1l0,0l0,0l0.1-0.1
			c0.1,0,0.1-0.1,0.2-0.2l0.1-0.1l0,0l0,0l0.2,0.1c0.2,0.1,0.5,0.2,0.7,0.3c0.5,0.2,1,0.3,1.6,0.4c0.6,0.1,1.2,0.1,1.8,0.1
			c0.3,0,0.6,0,0.8,0C80.1,170,80.4,170,80.7,170.1z"/>
		<path class="st0" d="M76.6,171.5c0.9-0.4,1.8-0.6,2.7-0.8c1.1-0.3,2.3-0.5,3.3-0.7h0.2l-5,2.9l-0.3,0.2l-0.4-0.9l6-2.2
			c-0.7,0.7-1.4,1.4-2.3,2.2l-0.2,0.2c1.2-0.4,2.3-0.8,3.3-1.1l-2.3,2l-1.3,1.1l-0.3,0.3l-0.3,0.3l-0.2,0.1l-0.1,0.1l0.1-0.1
			l0.5-0.4c0.1-0.1,0,0,0,0l0,0l-0.1,0.1l-0.2,0.2l-0.2,0.1c0,0-0.1,0,0,0l0.9-0.3c0.5-0.2,1.3-0.4,2-0.6c-0.5,0.6-0.9,1-1.2,1.4
			s-0.6,0.6-0.8,0.9c-0.2,0.2-0.5,0.4-0.7,0.6c0.1-0.3,0.3-0.6,0.4-0.8l0.2-0.4l0.1-0.2l-0.3,0.1l-0.2,0.1h-0.1l-0.7,0.2l-3.1,1
			l1.3-1.2l2.3-2.1l-0.6,0.6l-0.1,0.1l0,0l0,0l0,0l-3.5,1.3l0.2-0.1c0.8-0.8,1.8-1.6,2.7-2.5c-0.3,0.1-0.7,0.2-1,0.3l-0.4-0.9l0,0
			l1-0.5l0,0c-0.1,0-0.2,0-0.3-0.1c-0.1,0-0.3,0-0.4,0C77.1,171.7,76.8,171.6,76.6,171.5z"/>
		<path class="st0" d="M99.2,217.4c-0.3-1-0.6-2-0.8-3c-0.2-0.9-0.4-1.8-0.6-2.8l-0.5-2.8c-0.2-0.9-0.4-1.8-0.6-2.7
			s-0.5-1.8-0.8-2.7c-0.1-0.4-0.2-0.9-0.3-1.4c-0.1-0.4-0.2-0.7-0.5-1c-0.6-0.6-1.2-1.4-1.8-2.1s-1.1-1.6-1.6-2.4
			c-0.9-1.5-1.9-3-2.9-4.3c-1.1-1.4-2.2-2.9-3.1-4.4c-1-1.6-2-3.2-2.9-4.9c-0.5-0.8-1.4-2.5-1.8-3.3c-0.4-0.8-0.7-1.6-1-2.4
			c0.6,0.8,1.1,1.5,1.7,2.3s1,1.6,1.5,2.4c1,1.6,2,3.2,3,4.8c1,1.6,2.1,3.1,3.3,4.5c1.3,1.5,2.4,3,3.4,4.7c0.5,0.8,1,1.6,1.5,2.3
			s1.1,1.3,1.7,2.1c0.4,0.4,0.6,0.9,0.7,1.5c0.1,0.4,0.2,0.9,0.3,1.3l0.7,2.7c0.2,0.9,0.4,1.9,0.6,2.8s0.3,1.9,0.4,2.8
			s0.3,1.9,0.3,2.8C99.1,215.2,99.1,216.3,99.2,217.4z"/>
		<path class="st0" d="M140.2,133.1c0.2-0.2,0.4-0.4,0.6-0.5c0.2-0.1,0.4-0.2,0.6-0.2c0.5-0.1,0.9-0.1,1.4-0.1
			c0.9,0,1.8,0.1,2.7,0.4c0.8,0.3,1.6,0.7,2.3,1.3c0.4,0.3,0.7,0.5,1.1,0.9c0.2,0.2,0.4,0.4,0.6,0.7c0.1,0.2,0.2,0.4,0.2,0.7
			c-0.2-0.1-0.4-0.2-0.6-0.3c-0.2-0.1-0.4-0.2-0.5-0.4c-0.3-0.2-0.7-0.5-1-0.7c-0.7-0.4-1.5-0.8-2.2-1c-0.8-0.3-1.5-0.4-2.3-0.5
			c-0.4,0-0.8,0-1.2,0c-0.2,0-0.4,0-0.6-0.1C140.8,133.2,140.5,133.2,140.2,133.1z"/>
		<path class="st0" d="M145.3,135.9c0.1-0.1,0.1-0.3,0.3-0.4c0.1-0.1,0.2-0.1,0.3-0.1l0.6-0.1c0.4-0.1,0.7-0.1,1.1-0.1
			c0.3,0.1,0.7,0.1,1,0.3l0.5,0.1c0.1,0,0.2,0.1,0.3,0.2c0.1,0.1,0.2,0.2,0.2,0.4c-0.1,0.1-0.2,0.2-0.3,0.2c-0.1,0-0.2,0.1-0.3,0.1
			h-1.6c-0.3,0-0.7-0.1-1-0.1h-0.5c-0.1,0-0.2-0.1-0.3-0.1C145.6,136.1,145.4,136.1,145.3,135.9z"/>
		<path class="st0" d="M143.5,135.4c0.3-0.1,0.7-0.2,1-0.1c0.3,0,0.6,0.1,0.9,0.2c1.7,0.6,3.1,1.6,4.2,3c0.7,0.9,1.2,1.9,1.5,2.9
			c0.2,0.5,0.4,1.1,0.5,1.7c0.1,0.4,0.1,0.8,0.1,1.1c0,0.3-0.1,0.6-0.2,0.8c-0.2-0.2-0.3-0.5-0.4-0.8c-0.1-0.3-0.2-0.5-0.3-0.8
			c-0.1-0.5-0.3-1-0.5-1.5c-0.4-1-1-1.9-1.6-2.7c-0.6-0.8-1.3-1.5-2.2-2.1c-0.4-0.3-0.9-0.5-1.4-0.8c-0.2-0.1-0.5-0.2-0.7-0.4
			C144,135.8,143.7,135.7,143.5,135.4z"/>
		<path class="st0" d="M144.1,139c0.2-0.1,0.5-0.2,0.8-0.2c0.2,0,0.4,0,0.6,0.1c0.4,0.1,0.8,0.3,1.2,0.5c0.8,0.3,1.5,0.8,2.2,1.3
			c0.6,0.5,1.1,1.2,1.6,1.8c0.2,0.3,0.5,0.7,0.7,1.1c0.1,0.2,0.2,0.5,0.3,0.8c0.1,0.2,0.1,0.5,0,0.7c-0.2-0.1-0.3-0.3-0.5-0.4
			c-0.1-0.1-0.3-0.3-0.4-0.5c-0.2-0.3-0.5-0.6-0.7-0.9c-0.5-0.6-1.1-1.1-1.7-1.6c-0.6-0.5-1.2-1-1.8-1.4c-0.3-0.2-0.7-0.4-1.1-0.5
			c-0.2-0.1-0.4-0.2-0.5-0.3C144.5,139.3,144.2,139.2,144.1,139z"/>
		<path class="st0" d="M147.7,140.8c0.5,1,1,2.1,1.4,3.1c0.4,1,0.8,2,1.1,3s0.6,2,1,3c0.3,1,0.8,1.9,1.4,2.7
			c0.6,0.8,1.2,1.7,1.8,2.6c0.6,0.9,1.1,1.9,1.4,2.9c0.3,1,0.5,2.1,0.6,3.2c0.1,1.1,0.1,2.1,0,3.2c-0.1,2.1-0.3,4-0.4,5.9
			c-0.1,2-0.1,3.9,0,5.9c0,1,0.2,2.1,0.3,3.1l0.4,3.1c0.1,1,0.4,3.1,0.4,4.2c0.1,1,0.1,2,0.1,3c-0.3-1-0.5-2.1-0.7-3.1
			s-0.4-2.1-0.5-3.1c-0.3-2.1-0.7-4.2-1-6.3c-0.2-2.1-0.3-4.3-0.2-6.4c0.1-2.1,0.3-4.2,0.3-6.3c0-1,0-2.1,0-3.1c0-1-0.2-1.9-0.4-2.8
			c-0.3-0.9-0.7-1.8-1.2-2.6c-0.5-0.9-1-1.8-1.6-2.6c-0.6-0.9-1.2-1.9-1.5-2.9c-0.4-1-0.6-2-0.9-3.1s-0.6-2-0.9-3
			S147.9,141.8,147.7,140.8z"/>
		<path class="st0" d="M149.9,147.1c0.9,1.6,2.1,3.1,3.5,4.3c0.7,0.5,1.4,1,2.1,1.5c0.3,0.2,0.6,0.4,1,0.6c0.3,0.2,0.8,0.2,1.2,0.5
			c0.9,0.4,1.6,1.2,1.8,2.2c0.2,0.9,0.4,1.7,0.5,2.6c0.2,1.7,0.2,3.5,0.3,5.2s0.2,3.4,0.2,5.2c0,0.9,0,1.7-0.1,2.6
			c-0.1,0.8-0.1,1.6-0.1,2.4c0,0.4,0.1,0.8,0.2,1.1c0.1,0.4,0.3,0.8,0.5,1.1l1.1,2.2c0.4,0.8,0.7,1.5,1.1,2.3c0.4,0.8,0.7,1.6,1,2.5
			c0.2,0.9,0.4,1.7,0.4,2.6c0,0.8,0,1.7-0.1,2.5c-0.1,1.6-0.2,3.2-0.4,4.7s-0.2,3.1-0.2,4.7c0,0.8-0.1,1.7-0.2,2.5
			c-0.2,0.9-0.4,1.6-0.6,2.5c-0.3,0.8-0.7,1.7-1.1,2.4c-0.4,0.8-0.8,1.5-1.2,2.3c-0.9,1.5-1.7,3-2.6,4.5c-0.3,0.5-0.6,0.9-1,1.3
			c-0.5,0.5-0.9,0.9-1.4,1.3c-0.9,0.7-1.9,1.4-2.9,1.9c-1.4,0.8-2.8,1.5-4.4,2.1c1.5-0.9,2.9-1.8,4.4-2.8c0.7-0.5,1.4-1,2-1.5
			c0.7-0.5,1.3-1.1,1.9-1.7c1-1.4,1.9-2.8,2.6-4.4l1.2-2.3c0.4-0.8,0.8-1.6,1.1-2.3c0.2-0.4,0.3-0.7,0.4-1.1
			c0.1-0.4,0.2-0.8,0.3-1.2c0.2-0.8,0.3-1.6,0.4-2.5c0-1.7,0-3.5,0.1-5.2l0.3-5.2c0-0.9,0.1-1.7,0.1-2.5c0-0.8-0.2-1.6-0.4-2.4
			c-0.2-0.8-0.5-1.6-0.9-2.3l-1.1-2.3c-0.4-0.8-0.7-1.5-1-2.3c-0.2-0.4-0.4-0.8-0.5-1.2c-0.1-0.4-0.2-0.9-0.2-1.3
			c0-0.9,0-1.7,0.1-2.6c0.1-0.8,0.1-1.6,0.1-2.4c0.1-1.7,0-3.3-0.1-5c-0.1-1.8,0-3.5-0.2-5.2c-0.1-0.8-0.2-1.7-0.4-2.5
			c-0.1-0.7-0.5-1.4-1.2-1.8c-0.4-0.2-0.7-0.4-1.1-0.5c-0.4-0.2-0.8-0.4-1.2-0.7c-0.7-0.5-1.4-1.1-2-1.7
			C151.7,150.7,150.6,149,149.9,147.1z"/>
		<path class="st0" d="M149,215.9c0.1,0.2,0.2,0.3,0.2,0.6c0,0.2,0,0.3,0,0.5l-0.1,0.8c-0.1,0.6-0.1,1.1-0.2,1.6s-0.3,1-0.4,1.5
			l-0.2,0.8c-0.1,0.2-0.1,0.4-0.3,0.5c-0.1,0.2-0.2,0.3-0.4,0.4c-0.1-0.1-0.1-0.3-0.2-0.4c0-0.1,0-0.3,0-0.4l0.1-0.9l0.2-1.7
			c0.1-0.6,0.2-1.1,0.4-1.6l0.2-0.8c0-0.1,0.1-0.3,0.2-0.4C148.8,216.2,148.8,216,149,215.9z"/>
		<path class="st0" d="M151.3,186c-0.7-0.4-1.5-0.6-2.2-0.6c-0.7,0.1-1.4,0.2-2,0.5c-0.6,0.3-1.1,0.7-1.6,1.2
			c-0.4,0.5-0.8,1.1-1,1.8c-0.4,1.3-0.6,2.6-0.6,4c0,1.4,0.2,2.8,0.5,4.1l0.2,1.1V198l0.2,0.9l0.2,0.8c0.1,0.6,0.3,1.1,0.5,1.6
			c0.3,1.1,0.8,2.2,1.3,3.2c0.6,1.2,1.7,2.2,2.9,2.7c0.4,0.2,0.8,0.3,1.3,0.4c0.4,0,0.9,0,1.3-0.2c0.6-0.3,1.1-0.7,1.5-1.3
			c-0.2,0.8-0.7,1.5-1.4,1.9c-0.7,0.4-1.6,0.5-2.4,0.2c-0.7-0.2-1.4-0.6-2.1-1c-0.7-0.4-1.2-1-1.7-1.7c-0.7-1.1-1.2-2.3-1.7-3.6
			c-0.2-0.6-0.4-1.2-0.6-1.9l-0.3-0.9l-0.1-0.5l-0.1-0.2v-0.1c0,0,0-0.1,0,0v-0.1l-0.2-1.1c-0.6-2.9-0.5-5.9,0.4-8.6
			c0.5-1.5,1.6-2.8,3-3.5c0.7-0.3,1.5-0.4,2.3-0.3C149.9,184.9,150.7,185.3,151.3,186z"/>
		<path class="st0" d="M154.5,193.1c-0.4-0.2-0.8-0.6-1-1l-0.5-1.1c-0.3-0.7-0.7-1.3-1-2.1s-0.5-1.3-0.8-2l-0.4-1.1
			c-0.1-0.2-0.2-0.5-0.2-0.8c0-0.2,0-0.4,0.1-0.7c0.2,0.1,0.3,0.2,0.5,0.4c0.1,0.1,0.2,0.3,0.3,0.5l0.6,1c0.4,0.7,0.8,1.4,1.1,2.1
			s0.5,1.4,0.7,2.2l0.4,1.1c0.1,0.2,0.1,0.4,0.1,0.6C154.5,192.6,154.6,192.9,154.5,193.1z"/>
		<path class="st0" d="M269.4,181.3c-0.5-0.4-1-0.9-1.3-1.5c-0.4-0.5-0.7-1-0.9-1.6c-0.5-1.1-0.8-2.3-1-3.6l-0.5-3.5
			c-0.2-1.1-0.3-2.3-0.5-3.5s-0.3-2.2-0.4-3.3s-0.2-2.1-0.4-3.3s-0.4-2.4-0.5-3.6c0-0.6-0.1-1.8-0.1-2.4c0-0.6,0-1.1,0.2-1.7
			c0.2,0.6,0.3,1.2,0.4,1.8c0.1,0.6,0.2,1.2,0.3,1.8c0.1,1.2,0.4,2.4,0.6,3.5c0.5,2.3,0.8,4.7,1.1,7.1c0.2,1.2,0.3,2.3,0.4,3.5
			s0.2,2.3,0.3,3.4c0.1,1.2,0.4,2.3,0.8,3.4l0.6,1.6C268.7,180,269.2,180.7,269.4,181.3z"/>
		<path class="st0" d="M180.3,157.2c1.1,0.9,2.1,1.9,3.1,3c1,0.9,1.9,1.9,2.7,2.9c1.8,2,3.6,3.9,5.5,5.8c3.8,3.8,7.5,7.2,11.3,10.9
			c1,0.9,1.9,1.8,2.8,2.7c0.9,0.8,1.8,1.7,2.6,2.7c1.6,1.9,3.1,4,4.5,6.1c1.5,2.3,2.9,4.6,4.1,7c0.3,0.6,0.8,1.5,1.2,2.4
			s0.8,1.9,1,2.5c0.5,1.2,0.9,2.3,1.2,3.5c-0.7-1.2-1.3-2.4-1.9-3.6s-1.1-2.4-1.8-3.6c-1.2-2.4-2.6-4.6-4.1-6.9
			c-1.5-2.2-3.1-4.3-4.8-6.3c-0.9-1-1.8-1.9-2.8-2.8l-2.9-2.7c-3.9-3.7-7.3-7.1-11-11c-1.9-1.9-3.7-3.9-5.5-5.9
			c-0.9-1-1.7-2.1-2.5-3.1S181.1,158.3,180.3,157.2z"/>
		<path class="st0" d="M255.1,130.9c0.4-0.5,1.1-0.8,1.8-0.6c0.6,0.1,1.2,0.3,1.7,0.7c0.9,0.9,1.6,1.9,2,3.1
			c0.8,2.2,1.3,4.4,1.7,6.7c0.2,1.1,0.3,2.2,0.4,3.2c0.1,1,0.3,2,0.7,3c0.1,0.2,0.3,0.4,0.5,0.6c0.2,0.2,0.4,0.5,0.6,0.8
			c0.3,0.5,0.6,1.1,0.7,1.8c0.1,0.4,0.1,0.9,0,1.3c-0.1,0.5-0.3,0.9-0.8,1.1c-0.5,0.3-1.2,0.2-1.6-0.2c0.5,0.1,1-0.1,1.4-0.4
			c0.3-0.4,0.4-0.8,0.2-1.3c-0.1-0.5-0.3-1-0.5-1.5c-0.1-0.2-0.3-0.4-0.4-0.6c-0.2-0.2-0.4-0.4-0.6-0.6c-0.4-0.5-0.7-1.1-0.8-1.8
			c-0.2-0.6-0.3-1.2-0.4-1.7l-0.6-3.4c-0.3-2.2-0.7-4.4-1.4-6.5c-0.3-1-0.8-2-1.6-2.8c-0.4-0.3-0.8-0.6-1.3-0.8
			c-0.3-0.1-0.5-0.2-0.8-0.1l-0.5,0.1C255.3,130.9,255.2,130.9,255.1,130.9z"/>
		<path class="st0" d="M186.6,164.3c-0.2,0.3-0.4,0.6-0.7,0.9c-0.2,0.3-0.4,0.5-0.6,0.9c-0.3,0.5-0.4,1.1-0.3,1.6
			c0.1,0.6,0.3,1.2,0.6,1.7c0.3,0.6,0.5,1.1,0.8,1.7c0.6,1.1,1.2,2.1,2,3.1l0.3,0.3c0.1,0.1,0.2,0.2,0.3,0.3l0.7,0.7
			c0.4,0.4,0.9,0.9,1.4,1.4c0.9,0.9,1.7,1.8,2.4,2.7l1.2,1.3c0.4,0.4,0.8,0.9,1.2,1.3c0.9,0.8,2.1,1,3.3,0.6c0.8-0.2,1.5-0.6,2.2-1
			c0.5-0.3,1.1-0.6,1.6-0.8c-0.4,0.5-0.9,0.9-1.4,1.4c-0.5,0.4-1.1,0.8-1.7,1c-0.7,0.3-1.4,0.4-2.1,0.4c-0.7,0-1.5-0.2-2.1-0.6
			c-0.6-0.4-1.1-0.9-1.5-1.4l-1.3-1.4c-0.9-0.9-1.8-1.9-2.7-2.8l-1.3-1.4l-0.6-0.7c-0.1-0.1-0.2-0.2-0.4-0.4l-0.3-0.4
			c-0.7-1-1.4-2.1-2-3.3c-0.3-0.6-0.6-1.2-0.8-1.8c-0.3-0.6-0.5-1.3-0.6-2c-0.1-0.8,0.1-1.5,0.6-2.1c0.2-0.3,0.5-0.6,0.8-0.8
			C185.9,164.6,186.2,164.4,186.6,164.3z"/>
		<path class="st0" d="M255,130.9c0.2,0.1,0.3,0.2,0.4,0.4c0.1,0.1,0.1,0.2,0.2,0.4c0,0.2,0.1,0.5,0.1,0.7c0.1,0.5,0.3,0.9,0.4,1.4
			c0.1,0.5,0,0.9,0.1,1.4c0,0.3,0,0.6,0,0.8c0,0.2-0.1,0.3-0.2,0.5c-0.1,0.2-0.2,0.3-0.3,0.4c-0.1-0.1-0.2-0.2-0.3-0.4
			c-0.1-0.1-0.1-0.3-0.1-0.4c0-0.2,0-0.5-0.1-0.7c-0.1-0.5-0.2-1-0.3-1.5s-0.1-1-0.1-1.5c0-0.3,0-0.5,0-0.8c0-0.1,0-0.3,0.1-0.4
			C254.9,131.2,254.8,131,255,130.9z"/>
		<path class="st0" d="M255.8,157.9c0.2,0.2,0.4,0.4,0.6,0.7c0.1,0.2,0.3,0.3,0.4,0.4c0.1,0.1,0.2,0.1,0.3,0.1s0-0.2,0-0.2
			c0-0.1,0-0.2,0-0.3v-0.1v-0.3l-0.3-1.6c-0.4-2.1-0.9-4.1-1.2-6.2s-0.4-3.9-0.6-6c-0.1-1.1-0.1-2.1-0.1-3.2c0-0.7,0-1.4,0.1-2.1
			c0-0.5,0.2-1,0.3-1.5c0.1,0.5,0.2,1.1,0.2,1.6c0.1,0.5,0.1,1.1,0.1,1.6c0.1,1.1,0.1,2.1,0.2,3.2c0.2,2.1,0.5,4.2,0.8,6.3
			c0.3,2.1,0.6,4,0.9,6.1l0.2,1.6l0.1,0.5l0.1,0.7c0.1,0.4,0,0.7-0.1,1.1c-0.1,0.2-0.2,0.3-0.4,0.4c-0.3,0-0.5-0.2-0.8-0.6
			c-0.3-0.4-0.5-0.8-0.7-1.2C256,158.6,255.9,158.3,255.8,157.9z"/>
		<path class="st0" d="M255.8,157.9c0.2,0.2,0.3,0.3,0.3,0.6c0.1,0.2,0.1,0.3,0.1,0.5c0,0.3,0,0.6,0,0.9c0,0.6,0.2,1.2,0.2,1.8
			s0,1.1,0.1,1.7c0,0.3,0.1,0.6,0.1,0.9c0,0.2,0,0.4,0,0.6c0,0.2-0.1,0.4-0.2,0.5c-0.1-0.1-0.3-0.2-0.4-0.4
			c-0.1-0.1-0.2-0.3-0.2-0.4c-0.1-0.3-0.2-0.6-0.3-0.9c-0.2-0.6-0.3-1.3-0.4-1.9c-0.1-0.6-0.1-1.3,0-1.9c0-0.3,0-0.6,0.1-1
			c0-0.2,0.1-0.3,0.1-0.5C255.6,158.2,255.6,158,255.8,157.9z"/>
		<path class="st0" d="M254.6,162.6c0.2,0,0.3,0,0.4,0.1c0.1,0,0.2,0.1,0.2,0.1l0.3,0.4c0.2,0.2,0.4,0.4,0.6,0.6
			c0.1,0.2,0.2,0.5,0.4,0.7l0.2,0.4c0,0.1,0.1,0.2,0.1,0.3c0,0.1-0.1,0.3-0.1,0.4c-0.1,0-0.2,0-0.3,0c-0.1,0-0.2-0.1-0.2-0.1
			l-0.3-0.3c-0.2-0.2-0.5-0.4-0.7-0.7c-0.2-0.3-0.3-0.6-0.4-0.9c-0.1-0.1-0.1-0.3-0.2-0.4c0-0.1,0-0.2,0-0.3
			C254.5,162.8,254.5,162.7,254.6,162.6z"/>
		<path class="st0" d="M254.6,162.6c0.2,0.2,0.3,0.4,0.3,0.7c0.1,0.2,0.1,0.4,0.1,0.6c0,0.4,0,0.8,0.1,1.1c0.1,0.8,0.2,1.5,0.3,2.2
			s0.1,1.4,0.3,2.1c0.1,0.4,0.2,0.7,0.3,1.1c0.1,0.3,0.1,0.5,0.1,0.8c0,0.2,0,0.4-0.1,0.6c-0.2-0.1-0.3-0.3-0.4-0.5
			c-0.1-0.2-0.2-0.4-0.3-0.5c-0.1-0.4-0.3-0.7-0.4-1.1c-0.3-0.8-0.5-1.6-0.6-2.4c-0.1-0.8-0.1-1.6-0.1-2.3c0-0.4,0-0.8,0-1.2
			c0-0.2,0.1-0.4,0.1-0.6C254.4,163,254.4,162.7,254.6,162.6z"/>
		<path class="st0" d="M254.1,169.1c0.1,0,0.3,0,0.4,0c0.1,0,0.2,0,0.2,0.1l0.2,0.3c0.2,0.2,0.4,0.4,0.5,0.6s0.2,0.4,0.3,0.7
			l0.2,0.4c0.1,0.1,0.1,0.2,0.1,0.3c0,0.1,0,0.3-0.1,0.4c-0.1,0-0.2,0-0.3,0c-0.1,0-0.2,0-0.2-0.1l-0.3-0.3
			c-0.2-0.2-0.4-0.4-0.6-0.6c-0.2-0.2-0.2-0.5-0.4-0.8l-0.2-0.4c0-0.1,0-0.2,0-0.2C254,169.3,253.9,169.2,254.1,169.1z"/>
		<path class="st0" d="M253.1,173.4c0.2,0,0.3,0,0.5,0c0.1,0,0.2,0,0.2,0.1l0.3,0.3c0.2,0.2,0.4,0.4,0.6,0.6
			c0.1,0.2,0.2,0.5,0.4,0.7l0.2,0.4c0.1,0.1,0.1,0.2,0.1,0.3c0,0.1-0.1,0.3-0.1,0.4c-0.1,0-0.2,0-0.3,0c-0.1,0-0.1-0.1-0.2-0.1
			l-0.3-0.3c-0.2-0.2-0.4-0.4-0.6-0.7c-0.1-0.3-0.3-0.5-0.4-0.8l-0.2-0.4c0-0.1,0-0.2,0-0.2C253.1,173.6,253,173.5,253.1,173.4z"/>
		<path class="st0" d="M253.9,169c0.2,0.1,0.3,0.3,0.4,0.5c0.1,0.1,0.2,0.3,0.2,0.4l0.1,0.9c0.1,0.6,0.3,1.1,0.4,1.7
			s0.1,1.1,0.1,1.7l0.1,0.9c0,0.2,0,0.4,0,0.6c0,0.2-0.1,0.4-0.2,0.5c-0.1-0.1-0.2-0.2-0.3-0.4c-0.1-0.1-0.1-0.3-0.2-0.4l-0.3-0.9
			c-0.2-0.6-0.3-1.2-0.4-1.8c-0.1-0.6-0.2-1.2-0.2-1.8l-0.1-0.9c0-0.2,0-0.3,0.1-0.5C253.8,169.4,253.8,169.2,253.9,169z"/>
		<path class="st0" d="M253.1,173.3c0.1,0.1,0.2,0.2,0.3,0.4c0.1,0.1,0.1,0.2,0.1,0.3c0,0.2,0,0.4,0.1,0.6c0.1,0.4,0.2,0.7,0.3,1.1
			c0,0.3,0.1,0.7,0.2,1c0,0.2,0.1,0.4,0.2,0.6c0,0.1,0.1,0.3,0.1,0.4c0,0.1-0.1,0.3-0.1,0.4c-0.1,0-0.3-0.1-0.4-0.1
			c-0.1-0.1-0.2-0.1-0.2-0.2c-0.1-0.2-0.2-0.4-0.4-0.6c-0.2-0.4-0.4-0.8-0.5-1.2c-0.1-0.4-0.1-0.9-0.1-1.3c0-0.2,0-0.4,0.1-0.7
			c0-0.1,0.1-0.2,0.1-0.3C252.9,173.5,252.9,173.4,253.1,173.3z"/>
		<path class="st0" d="M235.2,182.8c0.1,0,0.3,0,0.4,0c0.1,0,0.1,0,0.2,0.1l0.2,0.2c0.1,0.1,0.3,0.3,0.4,0.5
			c0.1,0.2,0.1,0.4,0.1,0.6l0.1,0.3c0,0.1,0,0.2,0,0.2c0,0.1-0.1,0.2-0.2,0.3c-0.1,0-0.2,0-0.3,0c-0.1,0-0.1,0-0.2-0.1l-0.2-0.2
			c-0.2-0.2-0.3-0.3-0.4-0.5c-0.1-0.2-0.2-0.4-0.2-0.6l-0.1-0.3c0-0.1,0-0.1,0.1-0.2C235.1,183,235,182.9,235.2,182.8z"/>
		<path class="st0" d="M237.6,181.5c0.1,0.1,0.2,0.2,0.3,0.4c0.1,0.1,0.1,0.2,0.1,0.3l-0.1,0.5c0,0.3-0.1,0.6-0.2,0.9
			c-0.1,0.3-0.3,0.5-0.4,0.8l-0.2,0.4c-0.1,0.1-0.2,0.2-0.3,0.2c-0.1,0.1-0.3,0.1-0.4,0.1c-0.1-0.1-0.1-0.2-0.1-0.3
			c0-0.1,0-0.2,0-0.2l0.1-0.5c0.1-0.3,0.1-0.6,0.2-0.9c0.1-0.3,0.3-0.6,0.4-0.9l0.2-0.4c0-0.1,0.1-0.2,0.2-0.2
			C237.4,181.6,237.4,181.5,237.6,181.5z"/>
		<path class="st0" d="M238.2,181.2c0.1,0.1,0.2,0.2,0.3,0.3c0.1,0.1,0.1,0.1,0.1,0.2v0.2c0,0.1,0,0.3,0,0.4
			c-0.1,0.1-0.1,0.3-0.2,0.4l-0.1,0.2c0,0.1-0.1,0.1-0.1,0.2c-0.1,0.1-0.2,0.1-0.3,0.2c-0.1,0-0.2-0.1-0.2-0.1c0,0-0.1-0.1-0.1-0.1
			c0-0.1-0.1-0.2-0.1-0.3c0-0.2-0.1-0.4-0.1-0.6c0.1-0.2,0.1-0.4,0.2-0.5c0-0.1,0.1-0.2,0.1-0.3s0.1-0.1,0.2-0.1
			S238.1,181.1,238.2,181.2z"/>
		<path class="st0" d="M238.2,183.3c0-0.3,0-0.5,0.1-0.7c0.1-0.2,0.2-0.4,0.3-0.5c0.3-0.3,0.6-0.6,0.9-0.8c0.6-0.5,1.3-0.9,2.1-1.3
			c0.7-0.3,1.5-0.4,2.2-0.6c0.4-0.1,0.8-0.1,1.2-0.2c0.3,0,0.5,0,0.8,0c0.2,0,0.4,0.1,0.6,0.3c-0.2,0.1-0.4,0.2-0.6,0.3
			c-0.2,0.1-0.4,0.1-0.6,0.2c-0.4,0.1-0.8,0.2-1.1,0.3c-0.7,0.2-1.4,0.5-2.1,0.8c-0.7,0.3-1.4,0.6-2,0.9c-0.3,0.2-0.6,0.4-0.9,0.7
			c-0.1,0.1-0.3,0.2-0.5,0.3C238.6,183.1,238.4,183.3,238.2,183.3z"/>
		<path class="st0" d="M245.3,178.9c0-0.1,0.1-0.3,0.2-0.4c0-0.1,0.1-0.1,0.2-0.1c0.1,0,0.1,0,0.2,0c0.1,0,0.3,0,0.4,0.1
			c0.1,0.1,0.2,0.2,0.2,0.3l0.1,0.2c0,0.1,0,0.1,0,0.2c0,0.1-0.1,0.2-0.2,0.3c-0.1,0-0.1,0.1-0.2,0.1c0,0-0.1,0-0.1,0h-0.1
			c-0.1,0-0.2,0-0.3-0.1c-0.1,0-0.1-0.2-0.2-0.2l-0.1-0.1c0,0,0-0.1,0-0.1C245.3,179,245.3,179,245.3,178.9z"/>
		<path class="st0" d="M245.4,178.8c0.1-0.2,0.2-0.3,0.3-0.5c0.1-0.1,0.2-0.2,0.4-0.2l0.8-0.2c0.5-0.2,1-0.3,1.5-0.4
			c0.5-0.1,1-0.1,1.5-0.1c0.3,0,0.6,0,0.8,0.1c0.2,0,0.4,0.1,0.5,0.2c0.1,0.1,0.3,0.2,0.3,0.4c-0.1,0.1-0.3,0.2-0.4,0.2
			c-0.1,0-0.3,0.1-0.4,0.1c-0.3,0-0.5,0-0.8,0.1c-0.5,0.1-1,0.2-1.5,0.3c-0.5,0.1-1,0.1-1.5,0.2l-0.8,0.1c-0.1,0-0.3,0-0.4,0
			C245.7,178.9,245.6,179,245.4,178.8z"/>
		<path class="st0" d="M250.3,176.9c0.1-0.1,0.2-0.2,0.3-0.3c0.1-0.1,0.1-0.1,0.2-0.1l0.2,0.1c0.1,0.1,0.4,0,0.5,0.1
			c0.1,0.1,0.2,0.3,0.2,0.4l0.1,0.2c0,0.1,0,0.1,0,0.2c-0.1,0.1-0.1,0.2-0.2,0.3c-0.1,0-0.2,0-0.2,0.1c0,0-0.1,0-0.1,0l-0.2-0.1
			l-0.3-0.1c-0.1-0.1-0.1-0.2-0.2-0.3c0,0-0.1-0.1-0.1-0.1c0,0,0-0.1,0-0.1S250.3,177.1,250.3,176.9z"/>
		<path class="st0" d="M250.4,176.9c0-0.2,0.1-0.3,0.1-0.4c0-0.1,0.1-0.2,0.2-0.2l0.4-0.1c0.3-0.1,0.6-0.2,0.8-0.3
			c0.3,0,0.6,0.1,0.9,0.2c0.2,0.1,0.3,0.1,0.5,0.2c0.1,0.1,0.2,0.2,0.2,0.3c0,0.1,0,0.3-0.1,0.4c-0.1,0-0.2,0.1-0.3,0.1
			c-0.1,0-0.1,0-0.2,0c-0.1,0-0.2,0-0.3,0c-0.2,0-0.5,0.1-0.7,0.1c-0.2,0-0.5,0-0.8,0h-0.4c-0.1,0-0.2,0-0.2-0.1
			C250.6,177.1,250.5,177.1,250.4,176.9z"/>
		<path class="st0" d="M121.6,211.5c0.1,0,0.3,0.1,0.4,0.2c0.1,0.1,0.1,0.1,0.2,0.1l0.1,0.3c0.1,0.2,0.1,0.3,0.2,0.5
			c0,0.2,0,0.4-0.1,0.5v0.3c0,0.1-0.1,0.2-0.1,0.2c-0.1,0.1-0.2,0.2-0.3,0.2c-0.1,0-0.2,0-0.3-0.1c0,0-0.1-0.1-0.1-0.1l-0.1-0.3
			c-0.1-0.2-0.2-0.4-0.2-0.6c0-0.2,0-0.4,0-0.6c0-0.1,0-0.2,0-0.3c0-0.1,0.1-0.1,0.1-0.2C121.4,211.6,121.4,211.6,121.6,211.5z"/>
		<path class="st0" d="M124.2,211.2c0.1,0.1,0.1,0.3,0.1,0.4c0,0.1,0,0.2,0,0.3l-0.2,0.4c-0.1,0.3-0.3,0.5-0.5,0.8
			c-0.2,0.2-0.4,0.4-0.7,0.6l-0.4,0.3c-0.1,0.1-0.2,0.1-0.3,0.1c-0.1,0-0.3,0-0.4-0.1c0-0.1,0-0.2,0-0.3c0-0.1,0-0.2,0.1-0.2
			l0.2-0.4c0.2-0.3,0.3-0.5,0.5-0.8c0.2-0.2,0.4-0.4,0.6-0.6l0.3-0.3c0.1-0.1,0.1-0.1,0.2-0.1C123.9,211.2,124,211.1,124.2,211.2z"
			/>
		<path class="st0" d="M124.9,211.1c0.1,0.1,0.1,0.2,0.2,0.4c0,0.1,0,0.1,0,0.2l-0.1,0.2c0,0.1-0.1,0.3-0.1,0.4
			c-0.1,0.1-0.2,0.2-0.3,0.3s-0.1,0.1-0.1,0.2c0,0.1-0.1,0.1-0.2,0.1c-0.1,0-0.2,0-0.4,0c-0.1,0-0.1-0.1-0.2-0.2c0-0.1,0-0.1,0-0.2
			c0-0.1,0-0.2,0-0.3c0-0.2,0.1-0.4,0.2-0.6c0.1-0.2,0.3-0.3,0.4-0.4l0.2-0.2c0.1,0,0.1,0,0.2,0C124.7,211.1,124.7,211,124.9,211.1z
			"/>
		<path class="st0" d="M124.1,213c0.1-0.2,0.2-0.5,0.4-0.6c0.1-0.2,0.3-0.3,0.4-0.4c0.4-0.2,0.7-0.3,1.1-0.4
			c0.7-0.2,1.5-0.4,2.3-0.4c0.7,0,1.5,0.1,2.2,0.3c0.4,0.1,0.8,0.2,1.1,0.3c0.2,0.1,0.5,0.2,0.7,0.3c0.2,0.1,0.3,0.3,0.4,0.5
			c-0.2,0.1-0.4,0.1-0.6,0.1c-0.2,0-0.4,0-0.6,0c-0.4-0.1-0.7-0.1-1.1-0.1c-0.7-0.1-1.4-0.1-2.1,0c-0.7,0-1.4,0-2.1,0.1
			c-0.3,0.1-0.7,0.2-1,0.3c-0.2,0.1-0.3,0.1-0.5,0.1C124.6,212.9,124.3,213.1,124.1,213z"/>
		<path class="st0" d="M131.9,211.5c0.1-0.1,0.2-0.2,0.3-0.3c0.1,0,0.1-0.1,0.2,0c0.1,0,0.1,0.1,0.2,0.1c0.1,0.1,0.3,0.1,0.4,0.2
			c0,0.1,0.1,0.2,0.1,0.4c0,0.1,0,0.1,0,0.2c0,0.1,0,0.1-0.1,0.2c-0.1,0.1-0.2,0.2-0.3,0.2c-0.1,0-0.2,0-0.2,0h-0.1l-0.1-0.1
			l-0.2-0.2c-0.1-0.1-0.1-0.2-0.1-0.3l-0.1-0.1c0,0,0,0,0-0.1C131.8,211.7,131.9,211.6,131.9,211.5z"/>
		<path class="st0" d="M132,211.5c0.1-0.2,0.3-0.3,0.4-0.3c0.1-0.1,0.3-0.1,0.4-0.1h0.8c0.5,0,1,0,1.5,0.1c0.5,0.1,0.9,0.3,1.4,0.5
			c0.2,0.1,0.5,0.2,0.7,0.4c0.2,0.1,0.3,0.2,0.4,0.4c0.1,0.1,0.2,0.3,0.2,0.4c-0.1,0.1-0.3,0.1-0.4,0.1c-0.1,0-0.2,0-0.4-0.1
			c-0.2-0.1-0.4-0.1-0.7-0.2c-0.5-0.1-0.9-0.2-1.4-0.2s-0.9-0.3-1.4-0.3l-0.7-0.1c-0.1,0-0.3-0.1-0.4-0.2
			C132.2,211.7,132.1,211.7,132,211.5z"/>
		<path class="st0" d="M137,211.4c0.1-0.1,0.2-0.1,0.3-0.2c0.1,0,0.1,0,0.2,0l0.2,0.1c0.1,0.1,0.3,0.1,0.4,0.3
			c0,0.1,0.1,0.3,0.1,0.5c0,0.1,0,0.2,0,0.2c0,0.1-0.1,0.1-0.1,0.2c-0.1,0.1-0.2,0.1-0.3,0.2c-0.1,0-0.2,0-0.2,0c0,0-0.1,0-0.1-0.1
			l-0.1-0.1c-0.1-0.1-0.1-0.2-0.2-0.2s0-0.2-0.1-0.3l-0.1-0.1c0,0,0-0.1,0-0.1C136.9,211.6,136.9,211.6,137,211.4z"/>
		<path class="st0" d="M137.1,211.5c0.1-0.1,0.2-0.2,0.3-0.3c0.1-0.1,0.1-0.1,0.2-0.1h0.4c0.3,0,0.6,0,0.8,0
			c0.3,0.1,0.5,0.3,0.8,0.5c0.1,0.1,0.3,0.2,0.4,0.4c0.1,0.1,0.1,0.2,0.1,0.3c0,0.1-0.1,0.3-0.2,0.3c-0.1,0-0.2,0-0.3,0
			c-0.1,0-0.1,0-0.2-0.1c-0.1-0.1-0.1-0.1-0.2-0.1c-0.2-0.1-0.4-0.1-0.6-0.1c-0.2-0.1-0.4-0.2-0.7-0.3l-0.4-0.1
			c-0.1,0-0.1-0.1-0.2-0.1C137.2,211.7,137.1,211.7,137.1,211.5z"/>
		<path class="st1" d="M129.8,213.1l6.9,1.2l-7-0.3l6.6,1.3l-5.9,0.1l5.5,0.7l-4.5,0.2l3.6,0.9"/>
		<path class="st0" d="M190.4,104.9c-0.1-0.1-0.3-0.2-0.3-0.4c-0.1-0.1-0.1-0.2-0.1-0.3c0-0.2,0-0.4,0.1-0.6
			c0.1-0.8,0.5-1.6,1.2-2.1c0.2-0.1,0.3-0.3,0.5-0.4c0.1-0.1,0.3-0.1,0.4-0.1c0.2,0,0.3,0,0.4,0.1c0,0.1,0,0.2-0.1,0.3
			c0,0.1-0.1,0.2-0.1,0.2c-0.1,0.1-0.2,0.3-0.3,0.4c-0.2,0.3-0.4,0.6-0.5,0.9c-0.2,0.3-0.3,0.6-0.5,0.9c-0.1,0.2-0.1,0.3-0.2,0.5
			c0,0.1-0.1,0.2-0.1,0.2C190.6,104.7,190.6,104.9,190.4,104.9z"/>
		<path class="st0" d="M189.8,105c-0.1,0.1-0.3,0.2-0.5,0.2c-0.1,0-0.2,0-0.4,0c-0.2,0-0.4-0.1-0.7-0.1c-0.4,0-0.9,0-1.3,0.1
			c-0.4,0-0.8,0-1.3,0c-0.2,0-0.4,0.1-0.7,0.1c-0.2,0-0.3,0-0.5,0c-0.2,0-0.3-0.1-0.4-0.2c0-0.1,0.1-0.3,0.2-0.4
			c0.1-0.1,0.2-0.2,0.3-0.2c0.2-0.1,0.5-0.2,0.7-0.3c0.5-0.1,1-0.2,1.5-0.2c0.5,0,1,0.1,1.5,0.2c0.3,0.1,0.5,0.1,0.8,0.2
			c0.1,0,0.2,0.1,0.3,0.2C189.6,104.7,189.8,104.8,189.8,105z"/>
		<path class="st0" d="M191.3,104.7c-0.1-0.3-0.1-0.5,0-0.8c0-0.2,0.1-0.4,0.2-0.6c0.2-0.4,0.5-0.7,0.8-1.1c0.5-0.7,1.1-1.3,1.7-1.9
			c0.7-0.5,1.4-0.9,2.1-1.2c0.4-0.2,0.8-0.4,1.2-0.5c0.3-0.1,0.6-0.2,0.8-0.2c0.2,0,0.5,0,0.7,0.1c-0.1,0.2-0.3,0.3-0.5,0.4
			c-0.2,0.1-0.4,0.2-0.5,0.3c-0.4,0.2-0.7,0.4-1.1,0.6c-0.7,0.4-1.3,0.9-1.9,1.4c-0.6,0.5-1.2,1-1.8,1.5c-0.3,0.3-0.5,0.6-0.8,0.9
			c-0.1,0.2-0.3,0.3-0.4,0.4C191.7,104.3,191.6,104.6,191.3,104.7z"/>
		<path class="st0" d="M198.1,99.5c0.1-0.3,0.3-0.6,0.5-0.8c0.2-0.2,0.4-0.4,0.6-0.6c1.4-0.9,2.8-1.7,4.4-2.2c1-0.3,2-0.4,3.1-0.5
			c0.6,0,1.1-0.1,1.6-0.1c0.4,0,0.7,0,1.1,0.1c0.3,0.1,0.5,0.2,0.7,0.4c-0.3,0.1-0.5,0.2-0.8,0.2c-0.3,0-0.5,0.1-0.8,0.1
			c-0.5,0-1.1,0.1-1.6,0.2c-1,0.2-2,0.4-3,0.8c-1,0.3-1.9,0.6-2.8,1c-0.5,0.2-0.9,0.5-1.4,0.7c-0.2,0.1-0.5,0.3-0.7,0.3
			C198.8,99.3,198.5,99.4,198.1,99.5z"/>
		<path class="st0" d="M208.8,96.1c0.2-0.3,0.5-0.5,0.8-0.7c0.3-0.2,0.5-0.3,0.8-0.4c0.6-0.2,1.2-0.4,1.8-0.5
			c1.2-0.3,2.4-0.6,3.6-0.7c1.2-0.1,2.3,0,3.5,0.1c0.6,0,1.2,0.1,1.8,0.2c0.4,0.1,0.8,0.2,1.2,0.3c0.3,0.1,0.6,0.3,0.8,0.5
			c-0.3,0.1-0.6,0.1-0.9,0.1c-0.3,0-0.6,0-0.9,0c-0.6,0-1.2-0.1-1.8-0.1c-1.2,0-2.4,0-3.6,0.2c-1.1,0.1-2.3,0.2-3.4,0.4
			c-0.6,0.1-1.1,0.3-1.7,0.4c-0.3,0.1-0.6,0.1-0.9,0.2C209.6,96.1,209.2,96.1,208.8,96.1z"/>
		<path class="st0" d="M221.8,94.9c0.3-0.2,0.6-0.3,0.9-0.3c0.3-0.1,0.6-0.1,0.9-0.1c0.6,0,1.1,0.1,1.7,0.2c1.1,0.1,2.2,0.2,3.3,0.5
			s1.9,0.6,3,0.9c0.5,0.2,1.1,0.4,1.6,0.6c0.3,0.1,0.7,0.3,1,0.5c0.2,0.1,0.5,0.3,0.6,0.6c-0.3,0-0.6,0-0.9-0.1
			c-0.3,0-0.5-0.1-0.8-0.2l-1.6-0.4c-1.1-0.3-2.1-0.5-3.2-0.7s-2-0.5-3.1-0.7l-1.6-0.3c-0.3,0-0.5-0.1-0.8-0.2
			C222.4,95.2,222.1,95.1,221.8,94.9z"/>
		<path class="st0" d="M213.9,189.8c0.1,0,0.3,0,0.4,0.1c0.1,0,0.2,0.1,0.2,0.2l0.2,0.4c0.1,0.3,0.3,0.5,0.4,0.8c0,0.3,0,0.6,0,0.9
			v0.5c0,0.1,0,0.2-0.1,0.3c-0.1,0.1-0.2,0.2-0.3,0.2c-0.1,0-0.2-0.1-0.3-0.2c-0.1-0.1-0.1-0.1-0.1-0.2l-0.1-0.4
			c-0.1-0.3-0.1-0.6-0.2-0.8c-0.1-0.3-0.1-0.6-0.1-0.8l-0.1-0.4c0-0.1,0-0.2,0.1-0.2C213.8,190,213.8,189.9,213.9,189.8z"/>
		<path class="st0" d="M210.3,187.5c0.2,0,0.4,0,0.6,0.1c0.2,0,0.3,0.1,0.4,0.2l0.7,0.6c0.4,0.4,0.8,0.9,1.2,1.3
			c0.4,0.5,0.6,1,0.9,1.5l0.4,0.8c0.1,0.2,0.2,0.4,0.2,0.6c0,0.2,0,0.4-0.1,0.5c-0.2-0.1-0.3-0.1-0.4-0.3c-0.1-0.1-0.2-0.2-0.3-0.3
			l-0.5-0.7l-1.1-1.4c-0.4-0.4-0.6-1-1-1.4l-0.6-0.7c-0.1-0.1-0.2-0.3-0.2-0.4C210.4,187.9,210.2,187.7,210.3,187.5z"/>
		<path class="st0" d="M214,189.9c0.1-0.1,0.3-0.1,0.5-0.1c0.1,0,0.2,0,0.4,0.1c0.2,0.1,0.4,0.2,0.5,0.4c0.4,0.2,0.7,0.6,1,0.9
			c0.2,0.4,0.4,0.8,0.5,1.2c0.1,0.2,0.1,0.4,0.2,0.6c0,0.2,0,0.3,0,0.5c-0.1,0.1-0.1,0.3-0.3,0.4c-0.1-0.1-0.2-0.1-0.3-0.2
			c-0.1-0.1-0.1-0.2-0.2-0.2c-0.1-0.2-0.2-0.3-0.3-0.5c-0.2-0.3-0.4-0.6-0.6-0.9c-0.2-0.3-0.4-0.6-0.6-0.9l-0.4-0.4
			c-0.1-0.1-0.1-0.2-0.1-0.3C214.1,190.1,214,190.1,214,189.9z"/>
		<path class="st0" d="M234.3,182.7c0.1,0,0.3,0,0.4,0c0.1,0,0.2,0,0.2,0.1c0.1,0.1,0.1,0.2,0.2,0.3c0.1,0.2,0.3,0.4,0.4,0.6
			c0,0.2,0,0.4,0,0.6c0,0.1,0,0.2,0,0.3c0,0.1-0.1,0.2-0.1,0.2c-0.1,0.1-0.2,0.2-0.3,0.2c-0.1,0-0.2-0.1-0.3-0.1
			c-0.1,0-0.1-0.1-0.1-0.1l-0.1-0.3l-0.3-0.5c-0.1-0.2,0-0.4-0.1-0.6l-0.1-0.3c0-0.1,0-0.1,0-0.2
			C234.2,182.9,234.2,182.9,234.3,182.7z"/>
		<path class="st0" d="M231.9,183.7c0.1-0.1,0.2-0.2,0.4-0.2c0.1,0,0.2,0,0.3,0l0.5,0.1c0.3,0.1,0.6,0.2,0.9,0.3
			c0.3,0.2,0.5,0.3,0.8,0.5l0.4,0.3c0.1,0.1,0.2,0.2,0.2,0.3c0,0.1,0.1,0.3,0.1,0.4c-0.1,0.1-0.2,0.1-0.3,0.1c-0.1,0-0.2,0-0.2,0
			l-0.5-0.1c-0.3-0.1-0.6-0.2-0.9-0.3c-0.3-0.1-0.6-0.3-0.8-0.5l-0.4-0.2c-0.1,0-0.1-0.1-0.2-0.2C231.9,184,231.9,183.9,231.9,183.7
			z"/>
		<path class="st0" d="M231.2,184c0.1-0.1,0.1-0.2,0.2-0.3c0.1-0.1,0.1-0.1,0.2-0.1c0.1,0,0.2,0,0.3,0.1c0.2,0,0.4,0.1,0.6,0.2
			c0.1,0.1,0.3,0.3,0.4,0.5c0.1,0.1,0.1,0.2,0.1,0.3c0,0.1,0,0.2,0,0.2c0,0.1-0.1,0.2-0.2,0.3c-0.1,0-0.2,0-0.3,0.1c0,0-0.1,0-0.1,0
			l-0.2-0.1c-0.1-0.1-0.3-0.1-0.4-0.2s-0.2-0.2-0.3-0.3l-0.2-0.1c0,0-0.1-0.1-0.1-0.1S231.2,184.2,231.2,184z"/>
		<path class="st0" d="M232.9,184.9c-0.2,0.2-0.4,0.3-0.6,0.4c-0.2,0.1-0.4,0.1-0.6,0.2c-0.4,0.1-0.7,0.1-1.1,0.2
			c-0.7,0.2-1.4,0.5-2.1,0.8c-0.7,0.3-1.2,0.5-1.9,0.9c-0.3,0.2-0.7,0.4-1,0.6c-0.2,0.1-0.5,0.3-0.7,0.4c-0.2,0.1-0.4,0.1-0.6,0.1
			c0.1-0.2,0.2-0.4,0.3-0.6c0.1-0.2,0.3-0.3,0.4-0.4c0.3-0.3,0.6-0.5,0.9-0.8c0.7-0.5,1.4-0.9,2.1-1.3c0.7-0.3,1.5-0.5,2.3-0.7
			c0.4-0.1,0.8-0.1,1.2-0.2c0.2,0,0.4,0,0.6,0.1C232.4,184.7,232.7,184.7,232.9,184.9z"/>
		<path class="st0" d="M224.6,187.1c0.1,0.1,0.2,0.2,0.3,0.3c0,0,0.1,0.1,0.1,0.1c0,0,0,0.1,0,0.1s0.1,0.2,0.1,0.3s-0.1,0.1-0.2,0.2
			l-0.1,0.1c0,0-0.1,0.1-0.2,0.1c-0.1,0-0.2,0.1-0.3,0.1c-0.1,0-0.2,0-0.2-0.1c0,0-0.1-0.1-0.1-0.1v-0.2c0-0.1,0-0.3,0-0.4
			c0-0.1,0.1-0.2,0.2-0.3c0-0.1,0.1-0.1,0.1-0.2c0,0,0.1-0.1,0.1-0.1C224.4,187.1,224.4,187,224.6,187.1z"/>
		<path class="st0" d="M224.6,187.1c0,0.2-0.1,0.4-0.2,0.6c-0.1,0.2-0.2,0.3-0.3,0.4l-0.8,0.6c-0.5,0.4-0.9,0.8-1.5,1.2
			s-1,0.6-1.6,0.9c-0.3,0.1-0.6,0.3-0.7,0.4c-0.2,0.2-0.3,0.3-0.5,0.4c-0.2,0.1-0.4,0.1-0.6,0.1c0-0.2,0.1-0.4,0.1-0.5
			c0.1-0.2,0.1-0.3,0.2-0.4c0.2-0.3,0.5-0.5,0.8-0.7c0.5-0.4,1-0.8,1.5-1.2s1.1-0.6,1.6-0.9c0.3-0.2,0.6-0.3,0.8-0.5
			c0.1-0.1,0.3-0.1,0.5-0.2C224.1,187.2,224.3,187,224.6,187.1z"/>
		<path class="st0" d="M218.5,190c0.1,0.1,0.2,0.1,0.3,0.2c0.1,0.1,0.1,0.1,0.1,0.1v0.2c0,0.1,0.1,0.2,0.1,0.3
			c0,0.1-0.1,0.2-0.1,0.3l-0.1,0.2c0,0.1-0.1,0.1-0.1,0.1c-0.1,0.1-0.2,0.1-0.3,0.2c-0.1,0-0.2,0-0.2-0.1c0,0-0.1-0.1-0.1-0.1
			l-0.1-0.2c-0.1-0.2-0.1-0.3-0.1-0.5c0-0.2,0.1-0.3,0.2-0.5c0-0.1,0-0.2,0.1-0.2c0,0,0.1-0.1,0.1-0.1S218.3,190,218.5,190z"/>
		<path class="st0" d="M218.5,190c0,0.1,0,0.3,0,0.4c0,0.1,0,0.2-0.1,0.2l-0.3,0.3c-0.2,0.2-0.3,0.4-0.5,0.6s-0.4,0.2-0.6,0.4
			c-0.1,0.1-0.1,0.1-0.2,0.2c-0.1,0.1-0.1,0.1-0.2,0.2c-0.1,0.1-0.2,0.1-0.4,0.1c-0.1-0.1-0.2-0.2-0.2-0.3c0-0.1,0-0.2,0-0.3
			c0-0.2,0.1-0.4,0.2-0.5c0.2-0.3,0.3-0.6,0.6-0.8c0.2-0.2,0.5-0.3,0.7-0.4l0.4-0.2c0.1,0,0.2,0,0.2,0
			C218.2,189.9,218.3,189.9,218.5,190z"/>
		<path class="st0" d="M188.9,105.7c-0.4,0.4-0.8,0.8-1.2,1.2c-0.4,0.4-0.8,0.7-1.2,1c-0.8,0.6-1.6,1.3-2.4,2
			c-1.4,1.4-2.8,2.8-4,4.4c-1.2,1.4-2.3,3-3.2,4.7c-0.5,0.9-0.9,1.8-1.2,2.8c-0.2,0.5-0.5,1.4-0.7,1.9c-0.2,0.5-0.4,0.9-0.6,1.3
			c0-0.5,0-1.1,0.1-1.6c0.1-0.5,0.2-1,0.3-1.5c0.3-1,0.7-2,1.1-3c0.8-1.9,1.9-3.8,3.2-5.4c1.3-1.6,2.7-3,4.3-4.3
			c0.8-0.7,1.6-1.3,2.5-1.9c0.4-0.3,0.9-0.6,1.4-0.8C187.8,106.1,188.3,105.9,188.9,105.7z"/>
		<path class="st0" d="M181.2,155.8c-0.5-0.2-0.9-0.4-1.3-0.8c-0.4-0.3-0.7-0.6-1-0.9c-0.6-0.7-1.2-1.4-1.8-2.2
			c-1.1-1.5-2-3.1-2.6-4.8c-0.6-1.6-1-3.3-1.2-5.1c-0.1-0.9-0.2-1.8-0.1-2.8c0-0.6,0.1-1.2,0.2-1.8c0.1-0.4,0.2-0.8,0.4-1.2
			c0.1,0.5,0.1,0.9,0.1,1.4c0,0.5,0,0.9,0.1,1.3c0,0.9,0.1,1.8,0.2,2.6c0.3,1.8,0.7,3.5,1.4,5.1c0.6,1.6,1.4,3.2,2.3,4.6
			c0.5,0.7,1,1.5,1.6,2.1c0.3,0.3,0.6,0.7,0.8,1.1C180.7,155,181,155.4,181.2,155.8z"/>
		<path class="st0" d="M173.6,137.1c-0.2-0.2-0.4-0.5-0.5-0.8c-0.1-0.2-0.2-0.5-0.2-0.8c-0.1-0.5-0.1-1.1-0.1-1.6
			c-0.1-1.1-0.1-2.1,0-3.2c0.1-1,0.4-2,0.7-2.9c0.1-0.5,0.3-1,0.5-1.5c0.1-0.4,0.3-0.7,0.5-1c0.1-0.2,0.3-0.4,0.6-0.6
			c0,0.3,0,0.5,0,0.8c0,0.3-0.1,0.5-0.1,0.8c-0.1,0.5-0.2,1-0.3,1.5c-0.2,1-0.3,2-0.4,3.1c-0.1,1-0.3,2-0.3,3c0,0.5,0,1,0,1.6
			c0,0.3,0,0.5-0.1,0.8C173.8,136.5,173.7,136.8,173.6,137.1z"/>
		<path class="st0" d="M255.9,130.3c-0.3-0.8-0.4-1.9-0.6-2.7s-0.4-1.7-0.6-2.4c-0.4-1.6-0.8-3.2-1.4-4.8c-1.2-3-2.8-5.9-4.7-8.6
			c-1.6-2.7-3.5-5.2-5.7-7.4c-1.2-1.2-2.5-2.3-3.8-3.3c-0.7-0.5-2-1.5-2.7-1.9s-1.2-0.8-1.9-1.4c0.8,0.3,1.6,0.6,2.4,1
			c0.8,0.4,1.5,0.8,2.2,1.3c1.4,1,2.7,2,4,3.2c2.5,2.3,4.7,5,6.5,7.9c1.9,2.7,3.4,5.7,4.5,8.8c0.6,1.6,1,3.3,1.4,4.9
			c0.2,0.8,0.3,1.7,0.3,2.5C256,128.4,256,129.3,255.9,130.3z"/>
		<path class="st0" d="M141.1,189.8c0.2,0.2,0.3,0.4,0.3,0.6c0.1,0.2,0.1,0.3,0.1,0.5c0,0.3,0,0.6,0,0.9c0,0.6,0.2,1.2,0.2,1.8
			s0,1.1,0.1,1.7c0,0.3,0.1,0.6,0.1,0.9c0,0.2,0,0.4,0,0.6c0,0.2-0.1,0.4-0.2,0.5c-0.1-0.1-0.3-0.2-0.4-0.4
			c-0.1-0.1-0.2-0.3-0.2-0.4c-0.1-0.3-0.2-0.6-0.3-0.9c-0.2-0.6-0.3-1.3-0.4-1.9c-0.1-0.6-0.1-1.3,0-1.9c0-0.3,0-0.6,0.1-1
			c0-0.2,0.1-0.3,0.1-0.5C140.9,190.2,140.9,190,141.1,189.8z"/>
		<path class="st0" d="M139.9,194.6c0.2,0,0.3,0,0.4,0.1c0.1,0,0.2,0.1,0.2,0.1l0.3,0.4c0.2,0.2,0.4,0.4,0.6,0.6
			c0.1,0.2,0.3,0.5,0.4,0.7l0.2,0.4c0,0.1,0.1,0.2,0.1,0.3c0,0.1-0.1,0.3-0.1,0.4c-0.1,0-0.2,0-0.3,0c-0.1,0-0.1-0.1-0.2-0.1
			l-0.3-0.3c-0.2-0.2-0.5-0.4-0.7-0.7c-0.2-0.3-0.3-0.6-0.4-0.9c-0.1-0.1-0.1-0.3-0.2-0.4c0-0.1,0-0.2,0-0.3
			C139.8,194.8,139.8,194.7,139.9,194.6z"/>
		<path class="st0" d="M139.9,194.5c0.2,0.2,0.3,0.4,0.3,0.7c0.1,0.2,0.1,0.4,0.1,0.6c0,0.4,0,0.8,0.1,1.1c0.1,0.8,0.2,1.5,0.3,2.2
			s0.1,1.4,0.3,2.1c0.1,0.4,0.2,0.7,0.3,1.1c0.1,0.3,0.1,0.5,0.1,0.8c0,0.2,0,0.4-0.1,0.6c-0.2-0.1-0.3-0.3-0.4-0.5
			c-0.1-0.2-0.2-0.4-0.3-0.5c-0.1-0.4-0.3-0.7-0.4-1.1c-0.3-0.8-0.5-1.6-0.6-2.4c-0.1-0.8-0.1-1.6-0.1-2.3c0-0.4,0-0.8,0-1.2
			c0-0.2,0.1-0.4,0.1-0.6C139.7,195,139.7,194.7,139.9,194.5z"/>
		<path class="st0" d="M139.4,201.1c0.1,0,0.3,0,0.4,0c0.1,0,0.2,0,0.2,0.1l0.2,0.3c0.2,0.2,0.4,0.4,0.5,0.6s0.2,0.4,0.3,0.7
			l0.2,0.4c0.1,0.1,0.1,0.2,0.1,0.3c0,0.1,0,0.3-0.1,0.4c-0.1,0-0.2,0-0.3,0c-0.1,0-0.1-0.1-0.2-0.1l-0.3-0.3
			c-0.2-0.2-0.4-0.4-0.6-0.6c-0.2-0.2-0.2-0.6-0.4-0.8l-0.2-0.4c0-0.1,0-0.2,0-0.2C139.3,201.3,139.2,201.2,139.4,201.1z"/>
		<path class="st0" d="M138.5,205.4c0.2,0,0.3,0,0.5,0c0.1,0,0.2,0,0.2,0.1l0.3,0.3c0.2,0.2,0.4,0.4,0.6,0.6
			c0.1,0.2,0.2,0.5,0.4,0.7l0.2,0.4c0.1,0.1,0.1,0.2,0.1,0.3c0,0.1-0.1,0.3-0.1,0.4c-0.1,0-0.2,0-0.3,0c-0.1,0-0.1-0.1-0.2-0.1
			l-0.3-0.3c-0.2-0.2-0.4-0.4-0.6-0.6c-0.1-0.3-0.3-0.5-0.4-0.8l-0.2-0.4c0-0.1,0-0.2,0-0.2C138.4,205.6,138.3,205.5,138.5,205.4z"
			/>
		<path class="st0" d="M139.3,201c0.2,0.1,0.3,0.3,0.4,0.5c0.1,0.1,0.2,0.3,0.2,0.4l0.1,0.9c0.1,0.6,0.3,1.1,0.4,1.7
			s0.1,1.1,0.1,1.7l0.1,0.9c0,0.2,0,0.4,0,0.6c0,0.2-0.1,0.4-0.2,0.5c-0.1-0.1-0.2-0.2-0.3-0.4c-0.1-0.1-0.1-0.3-0.2-0.4l-0.3-0.9
			c-0.2-0.6-0.3-1.2-0.4-1.8c-0.1-0.6-0.2-1.2-0.2-1.8L139,202c0-0.2,0-0.3,0.1-0.5C139.1,201.4,139.1,201.2,139.3,201z"/>
		<path class="st0" d="M138.8,207.4c0.1,0.1,0.2,0.2,0.3,0.4c0.1,0.1,0.1,0.2,0.1,0.3c0,0.2,0,0.4,0.1,0.6c0,0.4,0.2,0.7,0.3,1.1
			s0.1,0.7,0.2,1c0,0.2,0.1,0.4,0.2,0.6c0,0.1,0.1,0.3,0.1,0.4c0,0.1-0.1,0.3-0.1,0.4c-0.1,0-0.3-0.1-0.4-0.1
			c-0.1-0.1-0.2-0.1-0.2-0.2c-0.1-0.2-0.2-0.4-0.4-0.6c-0.2-0.4-0.4-0.8-0.5-1.2c-0.1-0.4-0.1-0.9,0-1.3c0-0.2,0-0.4,0.1-0.7
			c0-0.1,0.1-0.2,0.1-0.3C138.6,207.7,138.6,207.5,138.8,207.4z"/>
		<path class="st1" d="M230.5,188.2l13-3c0,0-12.6,4.6-12.5,4.6l12.6-2.5l-10.3,4.5l10.3-2.8l-7.9,3.6l7-1.1"/>
		<path class="st0" d="M220.8,207.3c0.9-0.9,2-1.7,2.8-2.6s1.5-1.7,2.2-2.6c1.6-1.9,3.7-3.3,6.1-4c4.4-1.5,8.6-3,12.8-4.8
			c2-0.8,3.9-1.7,5.7-2.9c0.9-0.5,1.7-1.1,2.5-1.8c0.8-0.7,1.6-1.5,2.5-2.2c1.8-1.5,3.8-2.9,5.9-4c0.7-0.4,1.5-0.7,2.2-0.9
			c0.8-0.2,1.6-0.3,2.4-0.3c1.1,0,2.2,0.2,3.2,0.8c-1.1-0.1-2.3,0-3.4,0.2c-1.1,0.2-2.1,0.6-3.1,1.1c-2,1.1-3.9,2.4-5.6,3.9
			c-0.9,0.8-1.7,1.5-2.5,2.3c-0.9,0.9-1.8,1.6-2.8,2.3c-2,1.4-4.1,2.5-6.3,3.4c-4.4,1.9-8.5,3-12.9,4.4c-2.1,0.6-4,1.7-5.5,3.4
			c-0.8,0.9-1.7,1.8-2.6,2.5C223.3,206.3,222.1,206.9,220.8,207.3z"/>
		<path class="st0" d="M175.1,272.2c-0.4-1.8-0.6-3.7-0.3-5.5c0.2-1.7,0.6-3.4,1.4-5c0.8-1.5,1.8-3,2.8-4.4c1-1.4,2.1-2.7,3.2-4
			s2.3-2.5,3.4-3.7s2.3-2.3,3.3-3.6s2.1-2.5,3.1-3.7s2-2.6,3.2-3.9c0.6-0.6,1.2-1.2,1.8-1.8l1.8-1.6l3.5-3.1c2.3-2,4.4-4.2,7-6.4
			c1.3-0.9,2.3-2.1,3-3.6c0.2-0.3,0.3-0.7,0.3-1c0-0.5,0.2-0.9,0.3-1.4c0.3-0.9,0.8-1.7,1.5-2.4c0.9-0.6,1.6-1.4,2.2-2.3
			c0.3-0.5,0.5-1,0.6-1.5c0.1-0.5,0.2-1,0.4-1.5c0.6-1.5,1.7-2.8,3.1-3.6c-1.1,1.2-1.9,2.6-2.2,4.2c-0.1,0.4-0.1,0.8-0.1,1.2
			c-0.1,0.5-0.2,0.9-0.4,1.4c-0.4,0.9-0.9,1.6-1.6,2.3c-0.6,0.5-1.2,1-1.6,1.7c-0.2,0.3-0.3,0.7-0.5,1c-0.1,0.4-0.2,0.7-0.2,1.1
			c-0.4,1.9-1.4,3.5-2.8,4.8l-1.9,1.7c-0.6,0.6-1.2,1.1-1.8,1.7c-1.2,1.2-2.4,2.4-3.6,3.6l-3.7,3.5l-1.8,1.7
			c-0.6,0.6-1.1,1.2-1.7,1.8c-1.1,1.2-2.1,2.5-3.1,3.8s-2.1,2.5-3.2,3.7s-2.3,2.4-3.4,3.5s-2.3,2.3-3.4,3.5s-2.2,2.5-3.2,3.8
			c-1,1.3-2,2.6-2.8,4.1c-0.8,1.4-1.3,3-1.8,4.5C175.4,268.5,175.2,270.3,175.1,272.2z"/>
		<path class="st0" d="M174.5,273.2c0.2,3.6,0.2,8,0.4,11.5s0.6,7,1,10.5c0.7,5.9,1.8,11.8,2.8,17.7v-0.1l0.6,3.3
			c1.4,6.9,2.9,13.6,4.5,20.3c0.8,3.3,1.6,6.7,2.4,10l1.3,5.1c0.4,1.7,0.9,3.3,1.4,5c1.1,3.2,2.4,6.2,4,9.2c1.5,2.8,3.2,5.5,5,8.2
			c1.8,2.6,3.8,5.2,5.9,7.6c0.5,0.6,1.1,1.2,1.6,1.8s1.2,1.1,1.8,1.7c1.3,1.1,2.6,2.2,4,3.3c2.8,2.1,5.7,4,8.9,5.6
			c0.8,0.4,1.6,0.8,2.4,1.1c0.8,0.4,1.6,0.7,2.4,0.9c0.8,0.2,1.6,0.3,2.5,0.3c0.8,0,1.6-0.1,2.4-0.4c0.9-0.3,1.7-0.9,2.3-1.7
			c0.7-1,1.4-2.1,1.9-3.2c0.9-2.1,1.5-4.4,1.9-6.6c0.6-3.5,0.9-6.2,1.4-9.8c0.1,3.6,0,7.1-0.5,10.7c-0.3,3.7-1.7,7.2-3.9,10.2
			c-0.7,0.8-1.5,1.4-2.4,1.7c-0.9,0.3-1.9,0.5-2.9,0.5c-1.9,0-3.8-0.4-5.5-1.2c-3.3-1.4-6.5-3.2-9.4-5.2c-3-2-5.8-4.3-8.4-6.8
			c-2.5-2.6-4.8-5.3-6.9-8.2c-2.1-2.9-4.1-5.9-5.8-9c-1.8-3.1-3.3-6.4-4.4-9.9c-0.6-1.7-1.1-3.4-1.5-5.1s-0.8-3.4-1.2-5
			c-0.8-3.3-1.6-6.6-2.3-9.9c-1.5-6.6-2.9-13.2-4.2-20.2l-0.7-3.7v-0.1c-1-5.7-1.9-11.5-2.6-17.3c-0.5-3.5-0.7-7.1-0.6-10.7
			C173.8,281.2,174,277.2,174.5,273.2z"/>
		<path class="st0" d="M215.2,328.3c0.5,0.1,1,0.2,1.5,0.5c0.4,0.2,0.8,0.4,1.1,0.7c0.7,0.6,1.4,1.2,2,1.8c2.7,2.2,4.9,4.9,6.6,7.9
			c0.5,0.8,1,1.5,1.4,2.3c0.3,0.5,0.6,1.1,0.7,1.6c0.2,0.4,0.2,0.9,0.1,1.4c-0.4-0.3-0.7-0.6-1-0.9c-0.3-0.3-0.6-0.6-0.8-1
			c-0.5-0.7-1-1.4-1.6-2.1c-1.1-1.4-2.2-2.8-3.4-4s-2.1-2.6-3.3-3.9c-0.6-0.6-1.2-1.3-1.8-1.9c-0.3-0.3-0.6-0.6-0.8-1
			C215.8,329.2,215.3,328.8,215.2,328.3z"/>
		<path class="st0" d="M228.8,343.6c0.5,0.3,1,0.7,1.3,1.1c0.3,0.4,0.6,0.8,0.8,1.2c0.4,0.9,0.9,1.8,1.3,2.7
			c0.8,1.9,1.6,3.6,2.2,5.5s1,3.5,1.5,5.4c0.3,1,0.6,1.9,0.8,2.9c0.2,0.6,0.3,1.3,0.4,1.9c0.1,0.5,0.1,1-0.1,1.5
			c-0.3-0.4-0.6-0.8-0.9-1.3c-0.2-0.4-0.5-0.9-0.6-1.4l-1.1-2.8c-0.7-1.9-1.4-3.8-2.1-5.6s-1.1-3.6-1.8-5.5
			c-0.4-0.9-0.7-1.8-1.1-2.7c-0.2-0.5-0.3-0.9-0.4-1.4C229,344.7,228.8,344.2,228.8,343.6z"/>
		<path class="st0" d="M237,364c0.4,1,0.7,2,0.9,3c0.2,0.9,0.4,1.9,0.5,2.8c0.2,1.9,0.4,3.8,0.5,5.7c0.4,3.8,0.8,7.4,1.1,11.2
			s0.4,6.9,0.6,10.7l0.3,5.7c0.1,1,0.1,2.8,0.1,3.8c0,0.9-0.1,1.8-0.3,2.7c-0.3-0.9-0.5-1.9-0.6-2.8c-0.2-0.9-0.3-1.9-0.4-2.8
			l-0.6-5.7c-0.4-3.8-0.7-7.6-1.1-11.4c-0.3-3.8-0.4-7.3-0.7-11.1l-0.4-5.7c-0.1-1-0.1-1.9,0-2.9C236.8,366.1,236.9,365.1,237,364z"
			/>
		<path class="st0" d="M243.2,408c-0.1,0.4-0.3,0.8-0.5,1.1c-0.1,0.3-0.3,0.6-0.6,0.8c-0.4,0.4-0.8,0.9-1.1,1.4
			c-0.6,1-1,2.1-1.1,3.2c-0.2,1.1-0.4,2.2-0.6,3.5c0,0.6-0.1,1.3-0.1,1.9c0,0.4,0,0.9-0.1,1.3c-0.1,0.4-0.2,0.7-0.4,1
			c-0.2-0.3-0.4-0.6-0.5-0.9c-0.1-0.3-0.2-0.7-0.2-1c-0.1-0.7-0.2-1.4-0.2-2c-0.1-1.4,0-2.7,0.1-4.1c0.3-1.4,0.9-2.7,1.8-3.8
			c0.4-0.6,0.9-1.1,1.5-1.5c0.3-0.2,0.6-0.4,0.9-0.5C242.4,408.2,242.8,407.9,243.2,408z"/>
		<path class="st0" d="M269.6,182.1c0.8,0.2,1.7,0.4,2.5,0.4c0.7,0,1.4-0.1,2.1-0.3c0.7-0.2,1.4-0.6,2-1c0.8-0.4,1.6-0.7,2.5-0.9
			c3.1-0.6,6.2-1.1,9.4-1.3c3.2-0.2,5.8-0.2,9-0.3l4.8-0.1c1.1,0,2.1,0,3.2,0.1c0.8,0.1,1.5,0.2,2.2,0.5c-0.8,0.2-1.6,0.4-2.4,0.5
			c-0.8,0.1-1.6,0.2-2.4,0.2l-4.8,0.3c-3.2,0.2-6.4,0.5-9.5,0.8s-6,0.3-9.1,0.9c-0.7,0.1-1.4,0.3-2,0.6c-0.3,0.1-0.7,0.4-1.1,0.6
			c-0.4,0.2-0.8,0.3-1.3,0.5c-0.9,0.2-1.8,0.2-2.7,0C271.2,183.4,270.3,182.9,269.6,182.1z"/>
		<path class="st0" d="M301.3,179.3c-0.1-0.4,0-0.9,0.2-1.2c0.1-0.4,0.3-0.7,0.5-1c0.5-0.5,1-1,1.5-1.5c2-2,4.7-3,7.5-3
			c0.7,0,1.4,0,2.1,0.1c0.5,0,0.9,0.2,1.4,0.4c0.3,0.2,0.6,0.4,0.9,0.7c-0.3,0.1-0.7,0.2-1,0.2c-0.3,0-0.6,0-1,0.1
			c-0.6,0-1.3,0-1.9,0.1c-1.3,0.2-2.5,0.5-3.6,1c-1.2,0.4-2.3,1-3.3,1.6c-0.5,0.4-1,0.8-1.5,1.2c-0.2,0.2-0.5,0.4-0.8,0.6
			C302,178.9,301.7,179.2,301.3,179.3z"/>
		<path class="st0" d="M310.9,173.5c0.6-0.8,1.2-1.6,2-2.3c0.6-0.7,1.3-1.3,2.1-1.8l4.4-3.4c2.9-2.3,5.6-4.4,8.7-6.4
			c1.5-1,3-1.8,4.6-2.6c1.5-0.7,3.1-1.4,4.8-2.1c1.7-0.7,3.5-1.2,5.3-1.7c0.5-0.1,1.1-0.3,1.8-0.4c0.6-0.1,1.2-0.2,1.9-0.2
			c0.9-0.1,1.7,0,2.6,0.1c-0.9,0.4-1.7,0.7-2.6,0.9c-0.9,0.2-1.8,0.4-2.6,0.7c-1.7,0.5-3.4,1.1-5.1,1.8c-1.7,0.7-3.3,1.5-4.9,2.3
			c-1.6,0.8-3.1,1.8-4.6,2.8c-3,2-5.9,3.8-8.8,6l-4.5,3.2c-0.7,0.5-1.5,1-2.3,1.5C312.8,172.6,311.9,173.1,310.9,173.5z"/>
		<path class="st0" d="M343.6,153.9c0.1-0.7,0.4-1.3,0.7-1.9c0.3-0.5,0.6-1.1,1-1.5c0.8-0.9,1.5-1.9,2.3-2.8c1.6-1.8,3-3.5,4.8-5.2
			c1.7-1.5,3.4-3,5.3-4.2c1-0.7,2-1.3,3.1-1.9c0.7-0.4,1.4-0.7,2.2-0.9c0.6-0.2,1.2-0.3,1.7-0.2c-0.4,0.4-0.9,0.8-1.4,1.1
			c-0.5,0.4-1,0.7-1.5,1c-1,0.6-2,1.3-2.9,2c-1.8,1.5-3.5,3-5.2,4.7c-1.7,1.7-3.3,3.1-4.9,4.8c-0.8,0.9-1.6,1.7-2.4,2.6
			c-0.4,0.4-0.8,0.8-1.3,1.2C344.7,153.1,344.2,153.5,343.6,153.9z"/>
		<path class="st0" d="M317.9,90.1c0.1,1.4,0.2,3.1,1,4.1c0.4,0.5,0.8,0.9,1.3,1.2c0.3,0.1,0.5,0.3,0.8,0.4c0.3,0.1,0.7,0.3,1,0.4
			c1.2,0.7,2.3,1.6,3.3,2.6c1,1,1.9,1.9,2.8,3c1.8,2,3.5,4,5.1,6s3.3,4,5,6.1c3.1,4,5.8,8.3,8.1,12.8c1.2,2.3,2.6,4.6,4.1,6.8
			c0.8,1.1,2.3,3.3,3,4.4c0.7,1.1,1.3,2.2,1.8,3.3c-1-0.9-1.8-2-2.7-3s-1.7-2.1-2.5-3.1c-1.6-2.2-3.1-4.4-4.5-6.8
			c-0.7-1.2-1.4-2.4-2-3.5s-1.4-2.2-2.1-3.3c-1.5-2.2-3.1-4.3-4.7-6.4l-4.8-6.1c-1.6-2-3.1-4-4.8-6c-1.6-2-3.5-3.8-5.6-5.3
			c-0.3-0.2-0.5-0.3-0.8-0.4c-0.4-0.1-0.7-0.3-1-0.5c-0.6-0.4-1.2-1-1.5-1.7C317.4,93.5,317.3,91.8,317.9,90.1L317.9,90.1z"/>
		<path class="st0" d="M317.9,91.5c-0.5,0.1-0.9,0-1.4-0.1c-0.4-0.1-0.8-0.2-1.1-0.4c-0.6-0.4-1.3-0.8-1.9-1.3
			c-1.2-0.8-2.4-1.8-3.5-2.8c-1-1.1-1.9-2.2-2.7-3.4c-0.5-0.6-0.9-1.3-1.3-1.9c-0.3-0.4-0.5-0.9-0.6-1.4c-0.1-0.4-0.2-0.8-0.1-1.2
			c0.3,0.2,0.6,0.5,0.9,0.7c0.3,0.3,0.5,0.5,0.7,0.8c0.5,0.6,0.9,1.1,1.4,1.7c0.9,1.1,1.9,2.2,3,3.2c1.1,1,1.9,2,3,3
			c0.6,0.5,1.1,0.9,1.7,1.4c0.3,0.2,0.6,0.5,0.8,0.8C317.3,90.8,317.8,91,317.9,91.5z"/>
		<path class="st0" d="M307.5,82c-0.2-0.7-0.2-1.5,0-2.2c0.1-0.7,0.2-1.3,0.5-1.9c0.5-1.2,1.1-2.4,1.8-3.5c1.4-2.3,3.1-4.2,5.2-5.8
			c2-1.4,4.3-2.6,6.6-3.4c1.2-0.4,2.5-0.8,3.8-1c0.9-0.2,1.7-0.2,2.6-0.2c0.6,0,1.3,0.2,1.8,0.4c-0.6,0.2-1.2,0.4-1.9,0.5l-1.8,0.4
			c-1.2,0.3-2.4,0.6-3.6,1.1c-2.3,0.9-4.5,2.1-6.4,3.7c-1.9,1.4-3.6,3.1-5,5c-0.7,1-1.3,2.1-1.8,3.2c-0.3,0.6-0.5,1.1-0.9,1.7
			C308.3,80.7,307.9,81.4,307.5,82z"/>
		<path class="st0" d="M369.2,255.6c-1.3-5.2-2-10.6-2.1-16c-0.1-2.5-0.1-5,0.1-7.5c0.2-2.5,0.6-5,1.4-7.4c0.7-2.4,1.7-4.8,3-6.9
			c1.2-2.2,2.4-4.3,3.6-6.5c2.3-4.4,4.3-8.9,6-13.5c1.8-4.6,3.5-9.2,5.1-13.8s3-9.2,4.3-13.8s2.4-9.3,3.9-14
			c0.4-1.2,0.8-2.4,1.2-3.5s0.8-2.2,1.1-3.4s0.6-2.3,0.9-3.5c0.3-1.1,0.4-2.3,0.5-3.5c0-2.3-0.5-4.5-1.6-6.5c-1-2.1-2.1-4.1-3.2-6.1
			c-2.3-3.9-4.8-7.6-7.5-11.1c-0.7-0.9-1.4-1.7-2.1-2.6l-2.3-2.5c-1.5-1.7-3.1-3.3-4.8-4.8s-3.4-3.1-5.2-4.8s-3.4-3.4-5.1-5.2
			c-3.4-3.6-6.6-7.4-10-11c-1.7-1.8-3.5-3.5-5.4-5c-1.9-1.4-4.1-2.7-6.1-4.3c-0.6-0.4-1.1-0.9-1.6-1.4c-0.3-0.3-0.6-0.6-0.8-1
			l-0.3-0.5c-0.1-0.1-0.2-0.3-0.3-0.4c-0.5-0.5-1.2-0.7-1.9-0.6c-0.4,0.1-0.8,0.2-1.2,0.3l-1.3,0.4c-0.9,0.2-1.8,0.5-2.7,0.7
			c-0.8,0.1-1.7,0.4-2.5,0.7c-1.5,0.6-2.9,1.3-4,1.9c-2,1-3.9,2.4-5.5,4c-1.6,1.7-2.9,3.6-3.9,5.7c0.8-2.4,2.1-4.6,3.8-6.5
			c1.7-1.9,3.8-3.4,6.1-4.5c1.1-0.6,2.2-1.2,3.4-1.7c1.3-0.5,2.5-0.6,3.6-1s2.3-0.7,3.6-1.1c0.7-0.2,1.5-0.2,2.3,0
			c0.7,0.3,1.4,0.8,1.8,1.4c0.1,0.2,0.3,0.5,0.5,0.7c0.2,0.2,0.4,0.4,0.6,0.6c0.4,0.4,0.9,0.8,1.3,1.2c1,0.8,2,1.4,3,2.1
			s2.1,1.3,3.1,2.1s2,1.6,2.9,2.5c3.7,3.5,6.9,7.2,10.3,10.9c3.3,3.7,6.8,7.1,10.5,10.4c1.9,1.7,3.7,3.4,5.5,5.2
			c0.9,0.9,1.7,1.8,2.6,2.7l1.3,1.4c0.5,0.5,0.9,1,1.3,1.4c3.2,3.9,6.1,8,8.7,12.3c1.3,2.2,2.5,4.4,3.6,6.6c1.3,2.3,1.9,5,1.9,7.6
			c-0.1,1.3-0.3,2.6-0.5,3.9c-0.3,1.2-0.6,2.4-0.9,3.6s-0.7,2.4-1.2,3.5s-0.8,2.2-1.1,3.4c-1.4,4.5-2.5,9.1-3.9,13.7
			s-2.8,9.1-4.4,13.6s-3.4,9.1-5.2,13.7c-1.8,4.7-3.8,9.3-6.1,13.7c-1.2,2.2-2.4,4.4-3.6,6.5c-1.2,2.1-2.3,4.3-3.1,6.6
			c-0.7,2.3-1.3,4.7-1.6,7.1c-0.3,2.4-0.4,4.9-0.4,7.4c0,2.5,0,5.4,0.2,8.4S368.9,253.1,369.2,255.6z"/>
		<path class="st0" d="M330.2,64.3c0.3-0.2,0.7-0.3,1.1-0.2c0.4,0.1,0.7,0.3,0.9,0.5l1.1,1.2c0.7,0.8,1.5,1.5,2.1,2.4
			s1.1,1.6,1.7,2.5l0.9,1.4c0.2,0.3,0.4,0.6,0.5,1c0.1,0.3,0.1,0.7,0,1c-0.3-0.1-0.6-0.2-0.8-0.4c-0.2-0.2-0.4-0.4-0.6-0.6l-1.1-1.2
			c-0.7-0.8-1.5-1.7-2.2-2.5s-1.2-1.7-1.8-2.6l-1-1.3c-0.1-0.2-0.2-0.4-0.3-0.5C330.6,64.8,330.4,64.7,330.2,64.3z"/>
		<path class="st0" d="M305.4,78.9c-0.5-2-0.9-4-1.2-6c-0.3-1.9-0.5-3.8-0.6-5.7c-0.1-1.9-0.2-3.8-0.1-5.7s0.2-3.8,0.1-5.7l-0.1-1.2
			l0,0c-0.1-1.8-0.1-3.5,0-5.3c0-1.8,0.4-3.7,1.2-5.3c0.4-0.9,1.2-1.6,2.1-2c0.5-0.2,1-0.3,1.5-0.3c0.5-0.1,1.1,0,1.6,0.2
			c0.3,0.2,0.6,0.4,0.7,0.8c0.1,0.3,0.2,0.7,0.1,1l-0.1,0.7c0,0.2-0.1,0.4-0.1,0.6c-0.1,0.9-0.1,1.7-0.1,2.6c0,0.9,0.1,1.8,0.2,2.7
			c0,0.8,0.3,1.5,0.8,2.1c0.1,0.2,0.1,0.1,0.1,0.1s0,0,0.1,0c0.2-0.3,0.5-0.7,0.8-1s0.5-0.7,0.9-1c0.2-0.2,0.4-0.4,0.6-0.5
			c0.2-0.1,0.5-0.2,0.8-0.3c0.5-0.1,1,0,1.5,0.1c0.3,0.1,0.5,0.1,0.7,0.2c0.2,0.1,0.4,0.3,0.6,0.4c0.6,0.4,1.3,0.5,2,0.2
			c0.3-0.1,0.8-0.4,1.2-0.6l0.6-0.3c0.3-0.1,0.5-0.2,0.8-0.2c0.3,0,0.6,0.1,0.9,0.2c0.2,0.1,0.4,0.3,0.6,0.4
			c0.4,0.2,0.8,0.4,1.2,0.6c0.4,0.1,0.8,0.1,1.1,0.1c0.3-0.1,0.8-0.3,1.3-0.5c1-0.4,2-0.6,3-0.5c0.5,0.1,1,0.3,1.5,0.7
			c0.4,0.3,0.8,0.6,1.1,0.9c0.8,0.6,1.5,1.3,2.1,2.1c1.2,1.8,1.2,5.8,0.5,7.6c-0.6,1.7-1.9,3.1-3.5,3.9c1.5-1.1,2.5-2.7,3-4.5
			c0.4-1.8,0.3-3.7-0.2-5.4c-0.2-0.8-0.7-1.6-1.4-2.1c-0.7-0.6-1.5-1.2-2.2-1.8c-0.3-0.2-0.7-0.4-1.1-0.5c-0.4,0-0.8,0-1.2,0.1
			c-0.4,0.1-0.9,0.2-1.3,0.4s-0.8,0.4-1.4,0.5c-0.6,0.1-1.1,0.1-1.7-0.2c-0.5-0.2-0.9-0.4-1.4-0.7l-0.6-0.3
			c-0.1-0.1-0.3-0.1-0.4-0.1c-0.2,0-0.3,0.1-0.5,0.2l-0.6,0.3c-0.4,0.2-0.9,0.5-1.4,0.6c-0.5,0.1-1.1,0.2-1.7,0.1
			c-0.3-0.1-0.6-0.2-0.9-0.3c-0.3-0.2-0.5-0.4-0.6-0.4c-0.3-0.2-0.7-0.3-1.1-0.3c-0.3,0-0.7,0-1,0.2c-0.3,0.3-0.6,0.6-0.8,0.9
			c-0.3,0.4-0.6,0.7-0.9,1.1l-0.2,0.3c-0.1,0.2-0.3,0.3-0.5,0.4c-0.4,0.2-0.9,0.1-1.2-0.3c-0.8-0.8-1.2-1.8-1.3-2.9
			c-0.1-1-0.2-1.9-0.2-2.9c0-0.9,0-1.9,0.1-2.8c0-0.2,0.1-0.5,0.1-0.7l0.1-0.6c0-0.3,0-0.3-0.2-0.5c-0.3-0.1-0.7-0.2-1-0.1
			c-0.4,0-0.7,0.1-1.1,0.2c-0.7,0.3-1.2,0.8-1.5,1.5c-0.8,1.5-1.2,3.1-1.2,4.8c-0.1,1.8-0.1,3.5,0,5.3l0,0l0.1,1
			c0.1,1.9,0,3.8-0.1,5.7s0,3.8,0.1,5.6s0.2,3.8,0.4,5.7S305.3,77,305.4,78.9z"/>
		<path class="st0" d="M216.8,393.7c0.3,0.6,0.5,1.3,0.6,1.9c0.1,0.6,0.2,1.2,0.2,1.8c0,1.2,0,2.4,0,3.6c0,2.4,0.2,4.6,0,7
			c-0.1,1.2-0.2,2.3-0.4,3.4s-0.4,2.1-0.5,3.3c0,0.6-0.1,1.2-0.2,1.8c-0.1,0.6-0.3,1.2-0.5,1.9c-0.3,0.8-0.7,1.5-1.2,2.2
			c-0.4,0.5-0.9,0.8-1.4,1.1c0.2-0.6,0.4-1.1,0.6-1.7s0.4-1.1,0.6-1.6c0.3-1.1,0.5-2.2,0.5-3.3c0-1.2,0.1-2.4,0.2-3.6
			c0.1-1.2,0.2-2.3,0.2-3.5c0.1-2.4,0.3-4.5,0.4-6.9l0.2-3.6c0-0.6,0.1-1.2,0.2-1.8C216.4,395,216.5,394.3,216.8,393.7z"/>
		<path class="st0" d="M218.5,422.2c-0.3-0.5-0.6-1-0.7-1.6c-0.2-0.5-0.3-1-0.3-1.5l-0.2-3c-0.1-2-0.3-3.9-0.4-5.8s-0.1-3.6-0.2-5.6
			c0-1-0.1-2-0.1-3c0-0.7,0-1.3,0.1-2c0.1-0.5,0.2-1,0.5-1.5c0.2,0.5,0.4,1,0.5,1.5c0.1,0.5,0.2,1,0.3,1.5l0.4,3c0.2,2,0.5,4,0.7,6
			s0,3.8,0,5.8c0,1,0,2,0,3c0,0.5-0.1,1-0.1,1.5C218.8,421,218.7,421.6,218.5,422.2z"/>
		<path class="st0" d="M388.4,382.3c0.9,0.6,1.8,1.3,2.5,2.1c0.7,0.7,1.4,1.5,1.9,2.4c1.1,1.7,2,3.6,2.6,5.5c0.7,1.9,1.1,4,1.1,6
			c-0.1,2.1-0.6,4.1-1.5,6c-0.8,1.9-1.7,3.4-2.6,5s-1.8,3.1-3,4.8c-1.2,1.7-2.5,3.2-4,4.6c-1,0.9-2.1,1.7-3.3,2.3
			c-0.8,0.5-1.7,0.8-2.6,1l2.3-1.9c0.7-0.6,1.5-1.3,2.2-1.9c1.4-1.3,2.6-2.8,3.7-4.4c1.1-1.6,2-3.3,2.9-5c0.9-1.8,1.8-3.5,2.5-5.3
			c0.8-1.6,1.3-3.4,1.5-5.1c0.1-1.8-0.2-3.6-0.8-5.4c-0.6-1.8-1.3-3.6-2.3-5.3c-0.5-0.8-0.9-1.6-1.4-2.5S388.8,383.3,388.4,382.3z"
			/>
		<path class="st0" d="M383.9,338.8c-0.5-1.8-0.9-3.7-1.2-5.5c-0.3-1.7-0.6-3.4-0.9-5.1c-0.5-3.4-1-6.8-1.7-10.2
			c-1.3-6.8-2.9-13.1-4.6-19.8s-3-12.2-4.2-19.1c-0.6-3.4-1.1-6.9-1.5-10.3c-0.2-1.7-0.5-5.1-0.5-6.9c-0.1-1.6,0-3.2,0.1-4.9
			c0.3,1.7,0.6,3.4,0.9,5.1l0.7,5.1c0.5,3.4,1,6.8,1.7,10.2c1.3,6.8,3,13.4,4.8,20.1s3,12.9,4.2,19.8c0.6,3.4,1.1,6.9,1.5,10.3
			c0.2,1.7,0.4,3.5,0.4,5.2C383.9,334.8,384,336.8,383.9,338.8z"/>
		<path class="st0" d="M397.6,421.7c-0.4-0.2-0.7-0.6-0.9-0.9c-0.2-0.3-0.4-0.6-0.5-1l-0.6-2c-0.4-1.4-0.9-2.6-1.2-4
			s-0.4-2.5-0.6-3.9l-0.3-2.1c-0.1-0.5-0.1-0.9,0-1.4c0-0.4,0.2-0.7,0.4-1.1c0.2,0.3,0.4,0.6,0.6,0.9c0.1,0.3,0.3,0.7,0.4,1l0.5,2
			c0.4,1.4,0.7,2.7,1.1,4s0.5,2.6,0.8,4l0.5,2c0.1,0.3,0.1,0.7,0.1,1.1C397.8,420.8,397.7,421.3,397.6,421.7z"/>
		<path class="st0" d="M119,214.5c0-0.1,0-0.3,0-0.4c0-0.1,0-0.2,0.1-0.2l0.3-0.3c0.2-0.2,0.3-0.4,0.5-0.6s0.4-0.3,0.6-0.5l0.3-0.3
			c0.1-0.1,0.2-0.1,0.3-0.2c0.1,0,0.3,0,0.4,0c0.1,0.1,0.1,0.2,0.1,0.3c0,0.1,0,0.2-0.1,0.2c-0.1,0.1-0.1,0.3-0.2,0.4
			c-0.2,0.3-0.3,0.6-0.6,0.8c-0.2,0.2-0.5,0.4-0.8,0.6c-0.1,0.1-0.3,0.2-0.4,0.3c-0.1,0-0.2,0-0.3,0
			C119.2,214.5,119.1,214.6,119,214.5z"/>
		<path class="st0" d="M217.7,215.3c1.1-1,2.2-1.9,3.5-2.7c1.1-0.8,2.2-1.5,3.4-2.2c2.4-1.3,4.8-2.6,7.3-3.7c2.5-1.1,5-2,7.4-2.9
			s4.8-2.1,7.2-3.2s4.6-2.3,6.7-3.5s4.3-2.4,6.4-4s4.4-3.2,6.6-4.8c1.1-0.8,3.3-2.3,4.5-3c1.1-0.7,2.2-1.3,3.3-1.9
			c-1,0.9-2.1,1.7-3.2,2.5l-3.3,2.4c-2.2,1.6-4.3,3.2-6.5,4.9c-2.2,1.6-4.5,3.1-6.8,4.5c-2.3,1.4-4.7,2.7-7.2,3.9
			c-2.4,1.2-4.8,2.2-7.2,3.2c-2.4,0.9-4.9,1.6-7.3,2.7s-4.9,2.2-7.3,3.5l-3.5,2C220.5,213.6,218.9,214.7,217.7,215.3z"/>
		<path class="st0" d="M385.2,344.3c0.5,0.7,0.9,1.5,1.2,2.4c0.3,0.7,0.5,1.5,0.7,2.3c0.3,1.6,0.6,3.1,0.9,4.7
			c0.6,3.1,1.1,6.1,1.5,9.3s0.3,5.8,0.4,9c0,1.6,0,3.2,0,4.8c0,1.1-0.1,2.1-0.2,3.2c-0.1,0.8-0.3,1.5-0.6,2.2
			c-0.2-0.8-0.3-1.6-0.4-2.4c-0.1-0.8-0.1-1.6-0.1-2.4c0-1.6-0.1-3.2-0.2-4.8c-0.2-3.2-0.5-6.3-0.9-9.5s-0.5-6-1-9.1
			c-0.2-1.6-0.5-3.1-0.8-4.7c-0.1-0.8-0.2-1.6-0.3-2.4C385.2,346.1,385.2,345.2,385.2,344.3z"/>
	</g>
	<g id="레이어_4">
		<path class="st0" d="M181.1,158.5c0.2,2,0.2,4.5,0.3,6.6s0.1,4,0.1,6.1c0,4,0,8.1,0.1,12.1c0,8.1,0.1,15.7,0.1,23.8
			s-0.1,14.7-0.1,22.8c0,4,0,8.1,0,12.1c0,2,0,6-0.1,8.1s-0.1,3.6-0.2,5.6c-0.1-2-0.1-4-0.2-6.1c0-2,0-4.1-0.1-6.1v-12.1
			c0-8.1,0-16.2-0.1-24.3c0-8.1,0.1-15.4,0.1-23.5c0-4,0-8.1,0-12.1c0-2,0-4.1,0.1-6.1S181,160.5,181.1,158.5z"/>
		<path class="st0" d="M3.2,374.4H0c0-10.1,0-22.1,0-31.9c0-10.9,0.1-21.7,0.2-32.5c0.2-21.7,0.4-43.3,0.5-65
			c0.3-43.4,0.6-84.2,0.9-127.6c0.1-14.5,0.2-28,0.4-40.7l82-2.7l65-2.2l32.4-1c0,4.3,0,8.1,0,11.1c-0.1,10.8-0.1,19.3-0.2,30.2
			c-0.1-10.9-0.1-21.7-0.2-32.5v-8.3l-23.7,0.8l-65,2.3L2.7,77.5l-0.3,39.9C2,160.8,1.7,200,1.3,243.4c-0.2,21.7-0.4,43.4-0.5,65.1
			L0.5,341c-0.1,9.8-0.3,23-0.4,33.4L3.2,374.4z"/>
		<path class="st0" d="M195.1,182.4c0.2,1.2,0.2,2.7,0.3,3.9s0.1,2.4,0.1,3.6c0,2.4,0.1,4.8,0.1,7.2c0.1,4.8,0.2,9.3,0.2,14
			s0,8.6,0,13.4v7.2c0,1.2,0,3.6-0.1,4.8s-0.1,2.1-0.2,3.3c-0.1-1.2-0.1-2.4-0.2-3.6s-0.1-2.4-0.1-3.6l-0.1-7.2
			c-0.1-4.8-0.1-9.5-0.2-14.3c-0.1-4.8,0-9.1,0-13.9V190c0-1.2,0-2.4,0-3.6S194.9,183.6,195.1,182.4z"/>
		<path class="st0" d="M443.4,279c-1.5,0.1-3.5,0.1-5,0.1s-3.1,0-4.6,0l-9.3-0.1c-6.2-0.1-12-0.2-18.2-0.3s-11.2-0.3-17.4-0.5
			l-9.3-0.3c-1.5,0-4.6-0.1-6.1-0.2s-2.8-0.1-4.3-0.3c1.5,0,3.1,0,4.6,0s3.1,0,4.6,0l9.3,0.2c6.2,0.1,12.4,0.2,18.6,0.3
			c6.2,0.1,11.8,0.3,18,0.5l9.3,0.2c1.5,0,3.1,0.1,4.6,0.2S441.9,278.8,443.4,279z"/>
		<path class="st0" d="M394.9,158.2c1-0.2,2.2-0.2,3.2-0.3s2-0.1,3-0.2l6-0.2c4-0.1,7.8-0.3,11.8-0.4s7.3-0.1,11.3-0.2l6-0.1
			c1,0,3,0,4,0s1.8,0,2.8,0.2c-1,0.1-2,0.2-3,0.2l-3,0.1l-6,0.2c-4,0.1-8,0.2-12,0.4s-7.6,0.1-11.6,0.2l-6,0.1c-1,0-2,0-3,0
			S395.9,158.3,394.9,158.2z"/>
		<path class="st0" d="M265.2,161.3c1.3-0.2,3-0.3,4.3-0.4s2.7-0.2,4-0.2c2.7-0.1,5.3-0.2,8-0.2c5.3-0.2,10.3-0.4,15.7-0.5
			s9.7-0.2,15-0.3l8-0.1c1.3,0,4-0.1,5.3,0s2.4,0,3.7,0.1c-1.3,0.1-2.7,0.2-4,0.2s-2.7,0.1-4,0.1l-8,0.2l-16,0.5
			c-5.3,0.1-10.2,0.2-15.5,0.3l-8,0.2c-1.3,0-2.7,0-4,0S266.5,161.4,265.2,161.3z"/>
		<path class="st0" d="M380.5,110.6l5.9-0.3c-0.1-6.6-0.3-13.8-0.4-19.8c-0.1-8-0.3-16-0.4-23.9c-0.2-15.9-0.5-31.8-0.7-47.8
			c-0.1-6.1-0.2-12.1-0.3-18l-74.8,3.7l-29,1.4c0.2,19.9,0.5,38.5,0.8,59.7c0.2,15.9,0.4,31.8,0.6,47.8v0.4l30.7-1
			c8-0.2,14.2-0.4,22.1-0.6l-23.9,1l-23.9,0.9l-5.7,0.2l-0.7-42.7l-1-66.5l29.8-1.5L385.3,0c0.1,5.7,0.2,11.6,0.2,17.6
			c0.2,15.9,0.4,31.8,0.6,47.8c0.1,7.9,0.2,15.9,0.3,23.9c0.1,6.2,0.1,14.2,0.2,21.2L380.5,110.6z"/>
	</g>
</g>
</svg>
