<?xml version="1.0" encoding="UTF-8"?>
<svg xmlns="http://www.w3.org/2000/svg" xmlns:xlink="http://www.w3.org/1999/xlink" viewBox="0 0 702.57 471.85">
  <defs>
    <style>
      .cls-1, .cls-2, .cls-3, .cls-4, .cls-5, .cls-6, .cls-7, .cls-8, .cls-9 {
        stroke: #3f3f3f;
      }

      .cls-1, .cls-3, .cls-6, .cls-7, .cls-8 {
        stroke-linejoin: round;
      }

      .cls-1, .cls-5, .cls-6, .cls-8, .cls-9 {
        stroke-width: .5px;
      }

      .cls-1, .cls-7, .cls-10 {
        fill: #fff;
      }

      .cls-2 {
        stroke-width: 10px;
      }

      .cls-2, .cls-11, .cls-3, .cls-4, .cls-5, .cls-8, .cls-9 {
        fill: none;
      }

      .cls-2, .cls-4 {
        stroke-linecap: square;
      }

      .cls-2, .cls-4, .cls-5, .cls-9 {
        stroke-miterlimit: 10;
      }

      .cls-12 {
        clip-path: url(#clippath);
      }

      .cls-11, .cls-10, .cls-13 {
        stroke-width: 0px;
      }

      .cls-3, .cls-7 {
        stroke-width: .3px;
      }

      .cls-4 {
        stroke-width: 5px;
      }

      .cls-14 {
        clip-path: url(#clippath-1);
      }

      .cls-15 {
        mix-blend-mode: darken;
      }

      .cls-6, .cls-13 {
        fill: #e0e2d8;
      }

      .cls-16 {
        isolation: isolate;
      }

      .cls-9 {
        opacity: .6;
      }
    </style>
    <clipPath id="clippath">
      <rect class="cls-11" x="44.91" y="24.4" width="82.49" height="110.51"/>
    </clipPath>
    <clipPath id="clippath-1">
      <rect class="cls-11" x="548.62" y="29.71" width="39.39" height="174.74" transform="translate(685.39 -451.23) rotate(90)"/>
    </clipPath>
  </defs>
  <g class="cls-16">
    <g id="_레이어_8" data-name="레이어 8">
      <rect class="cls-13" x="0" y="0" width="702.57" height="471.85"/>
      <g class="cls-15">
        <line class="cls-5" x1="300.32" y1="58.98" x2="179.19" y2="58.98"/>
        <path class="cls-8" d="M263,31.89v17.17c0,2.4-1.96,4.36-4.37,4.36h-27.84c-2.41,0-4.36-1.96-4.36-4.36v-17.17c0-2.41,1.95-4.36,4.36-4.36h27.84c.55,0,1.07.1,1.55.29l-3.54,3.54c-.24.24-.24.65,0,.89l1.21,1.21c.24.24.65.24.89,0l3.71-3.71c.36.62.56,1.36.56,2.14Z"/>
        <rect class="cls-8" x="184.12" y="27.53" width="33.29" height="25.9" rx="3.92" ry="3.92" transform="translate(401.53 80.96) rotate(180)"/>
        <circle class="cls-8" cx="207.59" cy="40.46" r="6.13"/>
        <circle class="cls-8" cx="193.69" cy="46.68" r="5.02"/>
        <circle class="cls-8" cx="192.69" cy="34.33" r="4.46"/>
        <rect class="cls-8" x="263.21" y="65.68" width="32.71" height="33.8" rx="3.92" ry="3.92"/>
        <rect class="cls-8" x="183.36" y="97.39" width="32.71" height="60.3" rx="3.92" ry="3.92"/>
        <path class="cls-8" d="M260.17,27.82l3.79-3.79c.24-.24.65-.24.9,0l1.2,1.2c.24.26.24.66,0,.9l-3.63,3.63"/>
        <rect class="cls-8" x="623.78" y="275.5" width="24.03" height="113.76" rx="4.4" ry="4.4"/>
        <rect class="cls-8" x="638.79" y="294.93" width="5.29" height="74.9"/>
        <rect class="cls-8" x="393.84" y="306.94" width="30.9" height="96.98" rx="6.05" ry="6.05"/>
        <g>
          <rect class="cls-8" x="429.9" y="357.2" width="25.78" height="25.78" rx="6.05" ry="6.05"/>
          <rect class="cls-1" x="452.18" y="361.85" width="6.98" height="16.77" rx="2.54" ry="2.54"/>
        </g>
        <rect class="cls-1" x="186.38" y="290.27" width="23.19" height="20.29" rx="6.11" ry="6.11"/>
        <rect class="cls-1" x="231.51" y="290.27" width="23.19" height="20.29" rx="6.11" ry="6.11"/>
        <rect class="cls-1" x="186.38" y="356.73" width="23.19" height="20.29" rx="6.11" ry="6.11"/>
        <rect class="cls-1" x="231.51" y="356.73" width="23.19" height="20.29" rx="6.11" ry="6.11"/>
        <rect class="cls-1" x="168.06" y="302.6" width="108.33" height="63.24" rx="14.24" ry="14.24"/>
        <circle class="cls-1" cx="385.08" cy="269.9" r="5.9"/>
        <g>
          <circle class="cls-1" cx="365.3" cy="269.9" r="5.9"/>
          <path class="cls-7" d="M365.3,271.07s4.52,6.52,2.55,9.21c0,0,5.31-5.28-.1-10.38"/>
          <path class="cls-7" d="M365.01,267.5s.47-7.03,6.52-5.84c0,0-4.61,2.12-5.28,6.31"/>
          <path class="cls-7" d="M367.74,267.24s9.12-2.23,9.07,2.38c0,0-2.02.57-8.54-.47"/>
          <path class="cls-7" d="M362.37,269.2s-6.88,4.76-3.67,9.16c0,0-.72-5.02,4.97-6.42"/>
          <path class="cls-7" d="M363.2,269.2s-5.23-5.85-7.71-5.2c0,0,6.78-4.01,8.8,1.78"/>
        </g>
        <g>
          <circle class="cls-1" cx="304.46" cy="399.99" r="5.9"/>
          <path class="cls-7" d="M303.63,400.81s-1.48,7.8-4.77,8.28c0,0,7.49.08,7.32-7.35"/>
          <path class="cls-7" d="M305.97,398.09s5.34-4.6,8.74.55c0,0-4.74-1.8-8.2.67"/>
          <path class="cls-7" d="M308.07,399.86s7.98,4.94,4.66,8.13c0,0-1.82-1.04-5.66-6.41"/>
          <path class="cls-7" d="M302.9,397.41s-8.22-1.56-9.11,3.81c0,0,3.07-4.04,8.06-.96"/>
          <path class="cls-7" d="M303.48,398s.5-7.83-1.71-9.14c0,0,7.62,2.02,4.9,7.52"/>
        </g>
        <circle class="cls-7" cx="384.07" cy="266.7" r="1.26"/>
        <ellipse class="cls-7" cx="387.77" cy="269.9" rx=".96" ry="1.55"/>
        <ellipse class="cls-7" cx="382.57" cy="270.91" rx="1.5" ry="1.79"/>
        <ellipse class="cls-7" cx="385.34" cy="273.24" rx=".73" ry=".93"/>
        <rect class="cls-1" x="398.08" y="265.44" width="10.35" height="9.65" rx="2.1" ry="2.1"/>
        <polygon class="cls-7" points="403 269.77 406.88 261.8 404.19 269.77 411.9 270.26 405.28 270.55 408.43 272.75 404.35 271.22 406.31 277.17 403.83 272.31 402.33 277.17 402.69 272.31 398.39 278.37 400.77 272.1 395.34 269.2 400.52 270.91 395.65 262.32 400.77 269.2 401.65 261.8 403 269.77"/>
        <rect class="cls-1" x="126.87" y="264.74" width="22.2" height="143.25" rx="4.85" ry="4.85"/>
        <g>
          <line class="cls-4" x1="126.87" y1="256.66" x2="473.78" y2="256.66"/>
          <polyline class="cls-4" points="479.55 138.2 479.55 96.57 658.58 96.57 658.58 138.2"/>
          <polyline class="cls-4" points="176.85 19.29 176.85 165.05 214.29 202.58 473.78 202.58"/>
          <line class="cls-4" x1="129.78" y1="142.97" x2="129.78" y2="22.2"/>
          <line class="cls-4" x1="301.72" y1="202.58" x2="301.72" y2="19.29"/>
          <line class="cls-4" x1="473.78" y1="140.06" x2="473.78" y2="419.13"/>
          <polyline class="cls-2" points="126.87 19.29 39.44 19.29 39.44 140.06 126.87 140.06 126.87 419.13 655.68 419.13 655.68 140.06 476.65 140.06 476.65 19.29 126.87 19.29"/>
          <line class="cls-4" x1="129.78" y1="69.27" x2="176.85" y2="69.27"/>
        </g>
        <g>
          <rect class="cls-13" x="120.18" y="211.21" width="13.18" height="43.36"/>
          <line class="cls-5" x1="122.53" y1="254.57" x2="132.18" y2="254.57"/>
          <line class="cls-5" x1="122.53" y1="211.21" x2="132.18" y2="211.21"/>
          <rect class="cls-5" x="81.58" y="251.45" width="40.95" height="1.91"/>
          <polygon class="cls-5" points="124.6 252.66 132.18 252.66 132.18 254.57 122.53 254.57 122.53 253.37 124.6 253.37 124.6 252.66"/>
          <polygon class="cls-5" points="124.6 213.16 132.18 213.16 132.18 211.21 122.53 211.21 122.53 212.42 124.6 212.42 124.6 213.16"/>
          <line class="cls-5" x1="122.53" y1="253.37" x2="122.53" y2="212.42"/>
          <line class="cls-5" x1="124.6" y1="252.66" x2="124.6" y2="213.16"/>
          <path class="cls-5" d="M122.53,212.44l-1.56.03c-20.76.55-37.71,16.7-39.28,37.42l-.08,1.56"/>
        </g>
        <g>
          <rect class="cls-13" x="268.08" y="178.03" width="13.18" height="43.36" transform="translate(474.38 -74.96) rotate(90)"/>
          <line class="cls-5" x1="296.35" y1="195.47" x2="296.35" y2="205.12"/>
          <line class="cls-5" x1="252.99" y1="195.47" x2="252.99" y2="205.12"/>
          <rect class="cls-5" x="293.23" y="154.52" width="1.91" height="40.95"/>
          <polygon class="cls-5" points="294.43 197.55 294.43 205.12 296.35 205.12 296.35 195.47 295.14 195.47 295.14 197.55 294.43 197.55"/>
          <polygon class="cls-5" points="254.93 197.55 254.93 205.12 252.99 205.12 252.99 195.47 254.19 195.47 254.19 197.55 254.93 197.55"/>
          <line class="cls-5" x1="295.14" y1="195.47" x2="254.19" y2="195.47"/>
          <line class="cls-5" x1="294.43" y1="197.55" x2="254.93" y2="197.55"/>
          <path class="cls-5" d="M254.22,195.47l.03-1.56c.55-20.76,16.7-37.71,37.42-39.28l1.56-.08"/>
        </g>
        <g>
          <rect class="cls-10" x="309.01" y="250.83" width="43.36" height="13.18"/>
          <line class="cls-5" x1="309.01" y1="261.65" x2="309.01" y2="252"/>
          <line class="cls-5" x1="352.37" y1="261.65" x2="352.37" y2="252"/>
          <rect class="cls-5" x="310.22" y="261.65" width="1.91" height="40.95"/>
          <polygon class="cls-5" points="310.93 259.57 310.93 252 309.01 252 309.01 261.65 310.22 261.65 310.22 259.57 310.93 259.57"/>
          <polygon class="cls-5" points="350.43 259.57 350.43 252 352.37 252 352.37 261.65 351.17 261.65 351.17 259.57 350.43 259.57"/>
          <line class="cls-5" x1="310.22" y1="261.65" x2="351.17" y2="261.65"/>
          <line class="cls-5" x1="310.93" y1="259.57" x2="350.43" y2="259.57"/>
          <path class="cls-5" d="M351.14,261.65l-.03,1.56c-.55,20.76-16.7,37.71-37.42,39.28l-1.56.08"/>
        </g>
        <g>
          <rect class="cls-10" x="423.8" y="193.12" width="43.36" height="13.18"/>
          <line class="cls-5" x1="467.16" y1="195.47" x2="467.16" y2="205.12"/>
          <line class="cls-5" x1="423.8" y1="195.47" x2="423.8" y2="205.12"/>
          <rect class="cls-5" x="464.04" y="154.52" width="1.91" height="40.95"/>
          <polygon class="cls-5" points="465.24 197.55 465.24 205.12 467.16 205.12 467.16 195.47 465.95 195.47 465.95 197.55 465.24 197.55"/>
          <polygon class="cls-5" points="425.74 197.55 425.74 205.12 423.8 205.12 423.8 195.47 425 195.47 425 197.55 425.74 197.55"/>
          <line class="cls-5" x1="465.95" y1="195.47" x2="425" y2="195.47"/>
          <line class="cls-5" x1="465.24" y1="197.55" x2="425.74" y2="197.55"/>
          <path class="cls-5" d="M425.03,195.47l.03-1.56c.55-20.76,16.7-37.71,37.42-39.28l1.56-.08"/>
        </g>
        <g>
          <rect class="cls-10" x="470.12" y="206.3" width="13.18" height="43.36"/>
          <line class="cls-5" x1="480.95" y1="206.3" x2="471.3" y2="206.3"/>
          <line class="cls-5" x1="480.95" y1="249.65" x2="471.3" y2="249.65"/>
          <rect class="cls-5" x="480.95" y="207.5" width="40.95" height="1.91"/>
          <polygon class="cls-5" points="478.87 208.21 471.3 208.21 471.3 206.3 480.95 206.3 480.95 207.5 478.87 207.5 478.87 208.21"/>
          <polygon class="cls-5" points="478.87 247.71 471.3 247.71 471.3 249.65 480.95 249.65 480.95 248.45 478.87 248.45 478.87 247.71"/>
          <line class="cls-5" x1="480.95" y1="207.5" x2="480.95" y2="248.45"/>
          <line class="cls-5" x1="478.87" y1="208.21" x2="478.87" y2="247.71"/>
          <path class="cls-5" d="M480.95,248.42l1.56-.03c20.76-.55,37.71-16.7,39.28-37.42l.08-1.56"/>
        </g>
        <g>
          <rect class="cls-10" x="485.34" y="131.74" width="38.71" height="17.64"/>
          <line class="cls-5" x1="485.34" y1="136.77" x2="485.34" y2="145.39"/>
          <line class="cls-5" x1="524.05" y1="136.77" x2="524.05" y2="145.39"/>
          <rect class="cls-5" x="486.41" y="100.21" width="1.71" height="36.57"/>
          <polygon class="cls-5" points="487.05 138.63 487.05 145.39 485.34 145.39 485.34 136.77 486.41 136.77 486.41 138.63 487.05 138.63"/>
          <polygon class="cls-5" points="522.32 138.63 522.32 145.39 524.05 145.39 524.05 136.77 522.98 136.77 522.98 138.63 522.32 138.63"/>
          <line class="cls-5" x1="486.41" y1="136.77" x2="522.98" y2="136.77"/>
          <line class="cls-5" x1="487.05" y1="138.63" x2="522.32" y2="138.63"/>
          <path class="cls-5" d="M522.96,136.77l-.02-1.39c-.49-18.54-14.91-33.68-33.42-35.08l-1.39-.07"/>
        </g>
        <g>
          <rect class="cls-13" x="143.09" y="51.62" width="14.39" height="31.58" transform="translate(217.7 -82.88) rotate(90)"/>
          <line class="cls-5" x1="134.5" y1="64.32" x2="134.5" y2="71.35"/>
          <line class="cls-5" x1="166.08" y1="64.32" x2="166.08" y2="71.35"/>
          <rect class="cls-5" x="135.38" y="34.5" width="1.39" height="29.82"/>
          <polygon class="cls-5" points="135.89 65.84 135.89 71.35 134.5 71.35 134.5 64.32 135.38 64.32 135.38 65.84 135.89 65.84"/>
          <polygon class="cls-5" points="164.66 65.84 164.66 71.35 166.08 71.35 166.08 64.32 165.2 64.32 165.2 65.84 164.66 65.84"/>
          <line class="cls-5" x1="135.38" y1="64.32" x2="165.2" y2="64.32"/>
          <line class="cls-5" x1="135.89" y1="65.84" x2="164.66" y2="65.84"/>
          <path class="cls-5" d="M165.18,64.32l-.02-1.13c-.4-15.12-12.16-27.47-27.26-28.61l-1.13-.06"/>
        </g>
        <g>
          <rect class="cls-10" x="147.96" y="410.67" width="72.34" height="16.92"/>
          <line class="cls-5" x1="147.96" y1="413.58" x2="147.96" y2="424.68"/>
          <line class="cls-5" x1="220.3" y1="424.68" x2="220.3" y2="413.58"/>
          <rect class="cls-5" x="147.96" y="413.58" width="1.1" height="11.1"/>
          <line class="cls-5" x1="149.06" y1="413.58" x2="220.3" y2="413.58"/>
          <line class="cls-5" x1="149.06" y1="424.68" x2="219.17" y2="424.68"/>
          <rect class="cls-5" x="219.17" y="413.58" width="1.13" height="11.1"/>
          <rect class="cls-5" x="218.07" y="419.15" width="1.1" height="5.54"/>
          <rect class="cls-5" x="184.12" y="419.15" width="1.1" height="5.54"/>
          <line class="cls-5" x1="149.06" y1="419.15" x2="219.17" y2="419.15"/>
          <line class="cls-5" x1="218.07" y1="421.92" x2="185.22" y2="421.92"/>
          <rect class="cls-5" x="184.12" y="413.58" width="1.1" height="5.57"/>
          <rect class="cls-5" x="149.06" y="413.58" width="1.1" height="5.57"/>
          <line class="cls-5" x1="149.06" y1="413.58" x2="185.22" y2="413.58"/>
          <line class="cls-5" x1="184.12" y1="416.38" x2="150.17" y2="416.38"/>
          <line class="cls-5" x1="220.3" y1="424.68" x2="220.3" y2="413.58"/>
        </g>
        <g>
          <rect class="cls-10" x="220.3" y="410.67" width="72.34" height="16.92"/>
          <line class="cls-5" x1="220.3" y1="413.58" x2="220.3" y2="424.68"/>
          <line class="cls-5" x1="292.64" y1="424.68" x2="292.64" y2="413.58"/>
          <rect class="cls-5" x="220.3" y="413.58" width="1.1" height="11.1"/>
          <line class="cls-5" x1="221.4" y1="413.58" x2="292.64" y2="413.58"/>
          <line class="cls-5" x1="221.4" y1="424.68" x2="291.51" y2="424.68"/>
          <rect class="cls-5" x="291.51" y="413.58" width="1.13" height="11.1"/>
          <rect class="cls-5" x="290.41" y="419.15" width="1.1" height="5.54"/>
          <rect class="cls-5" x="256.46" y="419.15" width="1.1" height="5.54"/>
          <line class="cls-5" x1="221.4" y1="419.15" x2="291.51" y2="419.15"/>
          <line class="cls-5" x1="290.41" y1="421.92" x2="257.56" y2="421.92"/>
          <rect class="cls-5" x="256.46" y="413.58" width="1.1" height="5.57"/>
          <rect class="cls-5" x="221.4" y="413.58" width="1.1" height="5.57"/>
          <line class="cls-5" x1="221.4" y1="413.58" x2="257.56" y2="413.58"/>
          <line class="cls-5" x1="256.46" y1="416.38" x2="222.51" y2="416.38"/>
          <line class="cls-5" x1="292.64" y1="424.68" x2="292.64" y2="413.58"/>
        </g>
        <g>
          <rect class="cls-10" x="147.96" y="251.11" width="72.34" height="11.6"/>
          <line class="cls-5" x1="147.96" y1="253.1" x2="147.96" y2="260.71"/>
          <line class="cls-5" x1="220.3" y1="260.71" x2="220.3" y2="253.1"/>
          <rect class="cls-5" x="147.96" y="253.1" width="1.1" height="7.61"/>
          <line class="cls-5" x1="149.06" y1="253.1" x2="220.3" y2="253.1"/>
          <line class="cls-5" x1="149.06" y1="260.71" x2="219.17" y2="260.71"/>
          <rect class="cls-5" x="219.17" y="253.1" width="1.13" height="7.61"/>
          <rect class="cls-5" x="218.07" y="256.92" width="1.1" height="3.8"/>
          <rect class="cls-5" x="184.12" y="256.92" width="1.1" height="3.8"/>
          <line class="cls-5" x1="149.06" y1="256.92" x2="219.17" y2="256.92"/>
          <line class="cls-5" x1="218.07" y1="258.82" x2="185.22" y2="258.82"/>
          <rect class="cls-5" x="184.12" y="253.1" width="1.1" height="3.82"/>
          <rect class="cls-5" x="149.06" y="253.1" width="1.1" height="3.82"/>
          <line class="cls-5" x1="149.06" y1="253.1" x2="185.22" y2="253.1"/>
          <line class="cls-5" x1="184.12" y1="255.02" x2="150.17" y2="255.02"/>
          <line class="cls-5" x1="220.3" y1="260.71" x2="220.3" y2="253.1"/>
        </g>
        <g>
          <rect class="cls-10" x="220.3" y="251.11" width="72.34" height="11.6"/>
          <line class="cls-5" x1="220.3" y1="253.1" x2="220.3" y2="260.71"/>
          <line class="cls-5" x1="292.64" y1="260.71" x2="292.64" y2="253.1"/>
          <rect class="cls-5" x="220.3" y="253.1" width="1.1" height="7.61"/>
          <line class="cls-5" x1="221.4" y1="253.1" x2="292.64" y2="253.1"/>
          <line class="cls-5" x1="221.4" y1="260.71" x2="291.51" y2="260.71"/>
          <rect class="cls-5" x="291.51" y="253.1" width="1.13" height="7.61"/>
          <rect class="cls-5" x="290.41" y="256.92" width="1.1" height="3.8"/>
          <rect class="cls-5" x="256.46" y="256.92" width="1.1" height="3.8"/>
          <line class="cls-5" x1="221.4" y1="256.92" x2="291.51" y2="256.92"/>
          <line class="cls-5" x1="290.41" y1="258.82" x2="257.56" y2="258.82"/>
          <rect class="cls-5" x="256.46" y="253.1" width="1.1" height="3.82"/>
          <rect class="cls-5" x="221.4" y="253.1" width="1.1" height="3.82"/>
          <line class="cls-5" x1="221.4" y1="253.1" x2="257.56" y2="253.1"/>
          <line class="cls-5" x1="256.46" y1="255.02" x2="222.51" y2="255.02"/>
          <line class="cls-5" x1="292.64" y1="260.71" x2="292.64" y2="253.1"/>
        </g>
        <g>
          <rect class="cls-10" x="311.53" y="410.67" width="72.34" height="16.92"/>
          <line class="cls-5" x1="311.53" y1="413.58" x2="311.53" y2="424.68"/>
          <line class="cls-5" x1="383.87" y1="424.68" x2="383.87" y2="413.58"/>
          <rect class="cls-5" x="311.53" y="413.58" width="1.1" height="11.1"/>
          <line class="cls-5" x1="312.63" y1="413.58" x2="383.87" y2="413.58"/>
          <line class="cls-5" x1="312.63" y1="424.68" x2="382.73" y2="424.68"/>
          <rect class="cls-5" x="382.73" y="413.58" width="1.13" height="11.1"/>
          <rect class="cls-5" x="381.63" y="419.15" width="1.1" height="5.54"/>
          <rect class="cls-5" x="347.68" y="419.15" width="1.1" height="5.54"/>
          <line class="cls-5" x1="312.63" y1="419.15" x2="382.73" y2="419.15"/>
          <line class="cls-5" x1="381.63" y1="421.92" x2="348.78" y2="421.92"/>
          <rect class="cls-5" x="347.68" y="413.58" width="1.1" height="5.57"/>
          <rect class="cls-5" x="312.63" y="413.58" width="1.1" height="5.57"/>
          <line class="cls-5" x1="312.63" y1="413.58" x2="348.78" y2="413.58"/>
          <line class="cls-5" x1="347.68" y1="416.38" x2="313.73" y2="416.38"/>
          <line class="cls-5" x1="383.87" y1="424.68" x2="383.87" y2="413.58"/>
        </g>
        <g>
          <rect class="cls-10" x="383.87" y="410.67" width="72.34" height="16.92"/>
          <line class="cls-5" x1="383.87" y1="413.58" x2="383.87" y2="424.68"/>
          <line class="cls-5" x1="456.21" y1="424.68" x2="456.21" y2="413.58"/>
          <rect class="cls-5" x="383.87" y="413.58" width="1.1" height="11.1"/>
          <line class="cls-5" x1="384.97" y1="413.58" x2="456.21" y2="413.58"/>
          <line class="cls-5" x1="384.97" y1="424.68" x2="455.07" y2="424.68"/>
          <rect class="cls-5" x="455.07" y="413.58" width="1.13" height="11.1"/>
          <rect class="cls-5" x="453.97" y="419.15" width="1.1" height="5.54"/>
          <rect class="cls-5" x="420.02" y="419.15" width="1.1" height="5.54"/>
          <line class="cls-5" x1="384.97" y1="419.15" x2="455.07" y2="419.15"/>
          <line class="cls-5" x1="453.97" y1="421.92" x2="421.12" y2="421.92"/>
          <rect class="cls-5" x="420.02" y="413.58" width="1.1" height="5.57"/>
          <rect class="cls-5" x="384.97" y="413.58" width="1.1" height="5.57"/>
          <line class="cls-5" x1="384.97" y1="413.58" x2="421.12" y2="413.58"/>
          <line class="cls-5" x1="420.02" y1="416.38" x2="386.07" y2="416.38"/>
          <line class="cls-5" x1="456.21" y1="424.68" x2="456.21" y2="413.58"/>
        </g>
        <g>
          <rect class="cls-10" x="490.16" y="410.67" width="72.34" height="16.92"/>
          <line class="cls-5" x1="490.16" y1="413.58" x2="490.16" y2="424.68"/>
          <line class="cls-5" x1="562.5" y1="424.68" x2="562.5" y2="413.58"/>
          <rect class="cls-5" x="490.16" y="413.58" width="1.1" height="11.1"/>
          <line class="cls-5" x1="491.26" y1="413.58" x2="562.5" y2="413.58"/>
          <line class="cls-5" x1="491.26" y1="424.68" x2="561.36" y2="424.68"/>
          <rect class="cls-5" x="561.36" y="413.58" width="1.13" height="11.1"/>
          <rect class="cls-5" x="560.26" y="419.15" width="1.1" height="5.54"/>
          <rect class="cls-5" x="526.31" y="419.15" width="1.1" height="5.54"/>
          <line class="cls-5" x1="491.26" y1="419.15" x2="561.36" y2="419.15"/>
          <line class="cls-5" x1="560.26" y1="421.92" x2="527.41" y2="421.92"/>
          <rect class="cls-5" x="526.31" y="413.58" width="1.1" height="5.57"/>
          <rect class="cls-5" x="491.26" y="413.58" width="1.1" height="5.57"/>
          <line class="cls-5" x1="491.26" y1="413.58" x2="527.41" y2="413.58"/>
          <line class="cls-5" x1="526.31" y1="416.38" x2="492.36" y2="416.38"/>
          <line class="cls-5" x1="562.5" y1="424.68" x2="562.5" y2="413.58"/>
        </g>
        <g>
          <rect class="cls-10" x="562.5" y="410.67" width="72.34" height="16.92"/>
          <line class="cls-5" x1="562.5" y1="413.58" x2="562.5" y2="424.68"/>
          <line class="cls-5" x1="634.84" y1="424.68" x2="634.84" y2="413.58"/>
          <rect class="cls-5" x="562.5" y="413.58" width="1.1" height="11.1"/>
          <line class="cls-5" x1="563.6" y1="413.58" x2="634.84" y2="413.58"/>
          <line class="cls-5" x1="563.6" y1="424.68" x2="633.7" y2="424.68"/>
          <rect class="cls-5" x="633.7" y="413.58" width="1.13" height="11.1"/>
          <rect class="cls-5" x="632.6" y="419.15" width="1.1" height="5.54"/>
          <rect class="cls-5" x="598.65" y="419.15" width="1.1" height="5.54"/>
          <line class="cls-5" x1="563.6" y1="419.15" x2="633.7" y2="419.15"/>
          <line class="cls-5" x1="632.6" y1="421.92" x2="599.75" y2="421.92"/>
          <rect class="cls-5" x="598.65" y="413.58" width="1.1" height="5.57"/>
          <rect class="cls-5" x="563.6" y="413.58" width="1.1" height="5.57"/>
          <line class="cls-5" x1="563.6" y1="413.58" x2="599.75" y2="413.58"/>
          <line class="cls-5" x1="598.65" y1="416.38" x2="564.7" y2="416.38"/>
          <line class="cls-5" x1="634.84" y1="424.68" x2="634.84" y2="413.58"/>
        </g>
        <g class="cls-12">
          <g>
            <line class="cls-9" x1="24.43" y1="184.6" x2="24.43" y2="-10.63"/>
            <line class="cls-9" x1="34.66" y1="184.6" x2="34.66" y2="-10.63"/>
            <line class="cls-9" x1="44.9" y1="184.6" x2="44.9" y2="-10.63"/>
            <line class="cls-9" x1="55.13" y1="184.6" x2="55.13" y2="-10.63"/>
            <line class="cls-9" x1="65.36" y1="184.6" x2="65.36" y2="-10.63"/>
            <line class="cls-9" x1="75.6" y1="184.6" x2="75.6" y2="-10.63"/>
            <line class="cls-9" x1="85.83" y1="184.6" x2="85.83" y2="-10.63"/>
            <line class="cls-9" x1="96.06" y1="184.6" x2="96.06" y2="-10.63"/>
            <line class="cls-9" x1="106.3" y1="184.6" x2="106.3" y2="-10.63"/>
            <line class="cls-9" x1="116.53" y1="184.6" x2="116.53" y2="-10.63"/>
            <line class="cls-9" x1="126.76" y1="184.6" x2="126.76" y2="-10.63"/>
            <line class="cls-9" x1="137" y1="184.6" x2="137" y2="-10.63"/>
            <line class="cls-9" x1="147.23" y1="184.6" x2="147.23" y2="-10.63"/>
            <line class="cls-9" x1="157.46" y1="184.6" x2="157.46" y2="-10.63"/>
            <line class="cls-9" x1="167.69" y1="184.6" x2="167.69" y2="-10.63"/>
            <line class="cls-9" x1="10.41" y1="6.69" x2="177.52" y2="6.69"/>
            <line class="cls-9" x1="10.41" y1="15.81" x2="177.52" y2="15.81"/>
            <line class="cls-9" x1="10.41" y1="24.93" x2="177.52" y2="24.93"/>
            <line class="cls-9" x1="10.41" y1="34.04" x2="177.52" y2="34.04"/>
            <line class="cls-9" x1="10.41" y1="43.16" x2="177.52" y2="43.16"/>
            <line class="cls-9" x1="10.41" y1="52.28" x2="177.52" y2="52.28"/>
            <line class="cls-9" x1="10.41" y1="61.4" x2="177.52" y2="61.4"/>
            <line class="cls-9" x1="10.41" y1="70.52" x2="177.52" y2="70.52"/>
            <line class="cls-9" x1="10.41" y1="79.64" x2="177.52" y2="79.64"/>
            <line class="cls-9" x1="10.41" y1="88.76" x2="177.52" y2="88.76"/>
            <line class="cls-9" x1="10.41" y1="97.87" x2="177.52" y2="97.87"/>
            <line class="cls-9" x1="10.41" y1="106.99" x2="177.52" y2="106.99"/>
            <line class="cls-9" x1="10.41" y1="116.11" x2="177.52" y2="116.11"/>
            <line class="cls-9" x1="10.41" y1="125.23" x2="177.52" y2="125.23"/>
            <line class="cls-9" x1="10.41" y1="134.35" x2="177.52" y2="134.35"/>
            <line class="cls-9" x1="10.41" y1="143.47" x2="177.52" y2="143.47"/>
            <line class="cls-9" x1="10.41" y1="152.59" x2="177.52" y2="152.59"/>
            <line class="cls-9" x1="10.41" y1="161.71" x2="177.52" y2="161.71"/>
            <line class="cls-9" x1="10.41" y1="170.82" x2="177.52" y2="170.82"/>
            <line class="cls-9" x1="10.41" y1="179.94" x2="177.52" y2="179.94"/>
          </g>
        </g>
        <g class="cls-14">
          <g>
            <line class="cls-9" x1="477.81" y1="78.46" x2="663.69" y2="78.46"/>
            <line class="cls-9" x1="477.81" y1="88.21" x2="663.69" y2="88.21"/>
            <line class="cls-9" x1="477.81" y1="97.95" x2="663.69" y2="97.95"/>
            <line class="cls-9" x1="477.81" y1="107.69" x2="663.69" y2="107.69"/>
            <line class="cls-9" x1="477.81" y1="117.44" x2="663.69" y2="117.44"/>
            <line class="cls-9" x1="477.81" y1="127.18" x2="663.69" y2="127.18"/>
            <line class="cls-9" x1="477.81" y1="136.92" x2="663.69" y2="136.92"/>
            <line class="cls-9" x1="477.81" y1="146.67" x2="663.69" y2="146.67"/>
            <line class="cls-9" x1="477.81" y1="156.41" x2="663.69" y2="156.41"/>
            <line class="cls-9" x1="477.81" y1="166.15" x2="663.69" y2="166.15"/>
            <line class="cls-9" x1="477.81" y1="175.9" x2="663.69" y2="175.9"/>
            <line class="cls-9" x1="477.81" y1="185.64" x2="663.69" y2="185.64"/>
            <line class="cls-9" x1="477.81" y1="195.38" x2="663.69" y2="195.38"/>
            <line class="cls-9" x1="477.81" y1="205.12" x2="663.69" y2="205.12"/>
            <line class="cls-9" x1="477.81" y1="214.87" x2="663.69" y2="214.87"/>
            <line class="cls-9" x1="655.88" y1="65.11" x2="655.88" y2="224.22"/>
            <line class="cls-9" x1="647.2" y1="65.11" x2="647.2" y2="224.22"/>
            <line class="cls-9" x1="638.52" y1="65.11" x2="638.52" y2="224.22"/>
            <line class="cls-9" x1="629.84" y1="65.11" x2="629.84" y2="224.22"/>
            <line class="cls-9" x1="621.15" y1="65.11" x2="621.15" y2="224.22"/>
            <line class="cls-9" x1="612.47" y1="65.11" x2="612.47" y2="224.22"/>
            <line class="cls-9" x1="603.79" y1="65.11" x2="603.79" y2="224.22"/>
            <line class="cls-9" x1="595.11" y1="65.11" x2="595.11" y2="224.22"/>
            <line class="cls-9" x1="586.43" y1="65.11" x2="586.43" y2="224.22"/>
            <line class="cls-9" x1="577.74" y1="65.11" x2="577.74" y2="224.22"/>
            <line class="cls-9" x1="569.06" y1="65.11" x2="569.06" y2="224.22"/>
            <line class="cls-9" x1="560.38" y1="65.11" x2="560.38" y2="224.22"/>
            <line class="cls-9" x1="551.7" y1="65.11" x2="551.7" y2="224.22"/>
            <line class="cls-9" x1="543.02" y1="65.11" x2="543.02" y2="224.22"/>
            <line class="cls-9" x1="534.33" y1="65.11" x2="534.33" y2="224.22"/>
            <line class="cls-9" x1="525.65" y1="65.11" x2="525.65" y2="224.22"/>
            <line class="cls-9" x1="516.97" y1="65.11" x2="516.97" y2="224.22"/>
            <line class="cls-9" x1="508.29" y1="65.11" x2="508.29" y2="224.22"/>
            <line class="cls-9" x1="499.61" y1="65.11" x2="499.61" y2="224.22"/>
            <line class="cls-9" x1="490.92" y1="65.11" x2="490.92" y2="224.22"/>
            <line class="cls-9" x1="482.24" y1="65.11" x2="482.24" y2="224.22"/>
          </g>
        </g>
        <g>
          <rect class="cls-13" x="126.76" y="94.65" width="9.45" height="38.71"/>
          <line class="cls-5" x1="123.61" y1="133.36" x2="132.22" y2="133.36"/>
          <line class="cls-5" x1="123.61" y1="94.65" x2="132.22" y2="94.65"/>
          <rect class="cls-5" x="87.04" y="130.58" width="36.57" height="1.71"/>
          <polygon class="cls-5" points="125.46 131.65 132.22 131.65 132.22 133.36 123.61 133.36 123.61 132.29 125.46 132.29 125.46 131.65"/>
          <polygon class="cls-5" points="125.46 96.38 132.22 96.38 132.22 94.65 123.61 94.65 123.61 95.72 125.46 95.72 125.46 96.38"/>
          <line class="cls-5" x1="123.61" y1="132.29" x2="123.61" y2="95.72"/>
          <line class="cls-5" x1="125.46" y1="131.65" x2="125.46" y2="96.38"/>
          <path class="cls-5" d="M123.61,95.74l-1.39.02c-18.54.49-33.68,14.91-35.08,33.42l-.07,1.39"/>
        </g>
        <g>
          <rect class="cls-8" x="542.41" y="135.92" width="89.64" height="119.23" rx="4.99" ry="4.99" transform="translate(782.76 -391.69) rotate(90)"/>
          <rect class="cls-8" x="536.87" y="153.44" width="77.33" height="85.12" rx="4.72" ry="4.72" transform="translate(771.53 -379.53) rotate(90)"/>
          <rect class="cls-8" x="613.98" y="207.21" width="36.28" height="18.63" rx="2.76" ry="2.76" transform="translate(848.65 -415.6) rotate(90)"/>
          <rect class="cls-8" x="613.98" y="166.16" width="36.28" height="18.63" rx="2.76" ry="2.76" transform="translate(807.6 -456.65) rotate(90)"/>
        </g>
        <g>
          <rect class="cls-8" x="324.41" y="18.5" width="81.66" height="108.63" rx="4.99" ry="4.99" transform="translate(292.42 438.06) rotate(-90)"/>
          <rect class="cls-8" x="340.67" y="33.61" width="70.45" height="77.55" rx="4.72" ry="4.72" transform="translate(303.51 448.29) rotate(-90)"/>
          <rect class="cls-8" x="307.81" y="45.21" width="33.05" height="16.97" rx="2.76" ry="2.76" transform="translate(270.65 378.03) rotate(-90)"/>
          <rect class="cls-8" x="307.81" y="82.6" width="33.05" height="16.97" rx="2.76" ry="2.76" transform="translate(233.25 415.43) rotate(-90)"/>
        </g>
        <g>
          <rect class="cls-8" x="480.29" y="264" width="42.26" height="139.91" rx="4.72" ry="4.72"/>
          <path class="cls-8" d="M490.11,264h27.19c2.9,0,5.25,2.35,5.25,5.25v3.24c0,2.89-2.35,5.24-5.25,5.24h-19.33c-1.44,0-2.6,1.16-2.6,2.6v107.23c0,1.44,1.16,2.6,2.6,2.6h19.33c2.9,0,5.25,2.36,5.25,5.25v3.24c0,2.9-2.35,5.25-5.25,5.25h-27.19"/>
          <line class="cls-8" x1="495.37" y1="314.71" x2="522.55" y2="314.71"/>
          <line class="cls-8" x1="495.37" y1="352.97" x2="522.55" y2="352.97"/>
        </g>
        <path class="cls-8" d="M304.35,142.97h28.48v20.9s-.53,9.32,5.68,9.32h61.18v26.52"/>
        <path class="cls-3" d="M307.19,148.71s22,.62,23.71.62"/>
        <path class="cls-3" d="M307.2,154.64s22-.72,23.7-.86"/>
        <path class="cls-3" d="M307.19,152.42s22.01-.24,23.71-.33"/>
        <path class="cls-3" d="M307.19,157.07s22,.62,23.71.62"/>
        <path class="cls-3" d="M307.2,163s22-.72,23.7-.86"/>
        <path class="cls-3" d="M307.19,160.78s22.01-.24,23.71-.33"/>
        <path class="cls-3" d="M307.19,165.42s22,.62,23.71.62"/>
        <path class="cls-3" d="M307.2,171.36s22-.72,23.7-.86"/>
        <path class="cls-3" d="M307.19,169.14s22.01-.24,23.71-.33"/>
        <path class="cls-3" d="M307.19,173.78s22,.62,23.71.62"/>
        <path class="cls-3" d="M307.2,179.71s22-.72,23.7-.86"/>
        <path class="cls-3" d="M307.19,177.5s22.01-.24,23.71-.33"/>
        <path class="cls-3" d="M307.19,182.14s22,.62,23.71.62"/>
        <path class="cls-3" d="M339.47,196.84s-.72-20.21-.86-21.91"/>
        <path class="cls-3" d="M340.88,196.7s3.16-19.93,3.42-21.61"/>
        <path class="cls-3" d="M344.17,196.79s2-20.1,2.14-21.81"/>
        <path class="cls-3" d="M349.03,196.84s-.72-20.21-.86-21.91"/>
        <path class="cls-3" d="M350.44,196.7s3.16-19.93,3.42-21.61"/>
        <path class="cls-3" d="M353.72,196.79s2-20.1,2.14-21.81"/>
        <path class="cls-3" d="M358.58,196.84s-.72-20.21-.86-21.91"/>
        <path class="cls-3" d="M359.99,196.7s3.16-19.93,3.42-21.61"/>
        <path class="cls-3" d="M363.27,196.79s2-20.1,2.14-21.81"/>
        <path class="cls-3" d="M368.13,196.84s-.72-20.21-.86-21.91"/>
        <path class="cls-3" d="M369.54,196.7s3.16-19.93,3.42-21.61"/>
        <path class="cls-3" d="M372.82,196.79s2-20.1,2.14-21.81"/>
        <path class="cls-3" d="M377.68,196.84s-.72-20.21-.86-21.91"/>
        <path class="cls-3" d="M379.09,196.7s3.16-19.93,3.42-21.61"/>
        <path class="cls-3" d="M382.38,196.79s2-20.1,2.14-21.81"/>
        <path class="cls-3" d="M387.23,196.84s-.72-20.21-.86-21.91"/>
        <path class="cls-3" d="M388.64,196.7s3.16-19.93,3.42-21.61"/>
        <path class="cls-3" d="M391.93,196.79s2-20.1,2.14-21.81"/>
        <polyline class="cls-3" points="318.04 149.02 318.04 186.44 394.82 186.44"/>
        <g>
          <g>
            <path class="cls-13" d="M77.84,45.63v7.36c0,1.31-.2,2.58-.56,3.77-1.61,5.2-6.47,8.97-12.19,8.97h-.11c-5.73,0-10.58-3.77-12.2-8.97-.36-1.19-.56-2.46-.56-3.77v-11.28c0-2.15.78-4.12,2.06-5.64.85.65,1.89,1.01,3.03,1.01h15.44c1.14,0,2.18-.37,3.03-1.01,1.28,1.52,2.06,3.49,2.06,5.64v3.93Z"/>
            <path class="cls-13" d="M77.84,29.16v2.83c0,.91-.24,1.77-.67,2.52l-1.39,1.56h-21.49l-1.39-1.56c-.42-.75-.67-1.6-.67-2.52v-2.83c0-2.82,2.28-5.1,5.09-5.1h15.44c2.8,0,5.09,2.28,5.09,5.1Z"/>
            <path class="cls-10" d="M75.78,36.06l1.39-1.56c-.36.61-.82,1.15-1.39,1.56Z"/>
            <path class="cls-13" d="M54.29,36.06h21.49c-.85.65-1.89,1.01-3.03,1.01h-15.44c-1.14,0-2.18-.37-3.03-1.01Z"/>
            <path class="cls-10" d="M52.9,34.5l1.39,1.56c-.57-.41-1.05-.95-1.39-1.56Z"/>
          </g>
          <g>
            <path class="cls-8" d="M77.28,56.76c-1.61,5.2-6.47,8.97-12.19,8.97h-.11c-5.73,0-10.58-3.77-12.2-8.97"/>
            <path class="cls-8" d="M77.84,45.63v7.36c0,1.31-.2,2.58-.56,3.77"/>
            <path class="cls-8" d="M52.79,56.76c-.36-1.19-.56-2.46-.56-3.77v-7.36"/>
            <path class="cls-8" d="M52.9,34.5c-.42-.75-.67-1.6-.67-2.52v-2.83c0-2.82,2.28-5.1,5.09-5.1h15.44c2.8,0,5.09,2.28,5.09,5.1v2.83c0,.91-.24,1.77-.67,2.52"/>
            <path class="cls-8" d="M52.23,45.63v-3.93c0-2.15.78-4.12,2.06-5.64.85.65,1.89,1.01,3.03,1.01h15.44c1.14,0,2.18-.37,3.03-1.01,1.28,1.52,2.06,3.49,2.06,5.64v3.93"/>
            <path class="cls-8" d="M54.29,36.06c-.57-.41-1.05-.95-1.39-1.56"/>
            <path class="cls-8" d="M77.17,34.5c-.36.61-.82,1.15-1.39,1.56"/>
          </g>
        </g>
        <g>
          <g>
            <path class="cls-13" d="M82.2,123.46v6.53c0,2.41-1.96,4.36-4.37,4.36h-25.03c-2.41,0-4.36-1.95-4.36-4.36v-18.21c0-2.41,1.95-4.36,4.36-4.36h25.03c2.41,0,4.37,1.95,4.37,4.36v11.67ZM79.74,127.43v-13.09c0-2.41-1.96-4.36-4.37-4.36h-20.53c-2.41,0-4.36,1.95-4.36,4.36v13.09c0,2.41,1.95,4.36,4.36,4.36h8.99v.71c0,.34.28.63.63.63h1.71c.34,0,.62-.29.62-.63v-.71h8.57c2.41,0,4.37-1.95,4.37-4.36Z"/>
            <path class="cls-13" d="M79.74,114.35v13.09c0,2.41-1.96,4.36-4.37,4.36h-8.57v-9.66c0-.34-.28-.63-.62-.63h-1.71c-.36,0-.63.29-.63.63v9.66h-8.99c-2.41,0-4.36-1.95-4.36-4.36v-13.09c0-2.41,1.95-4.36,4.36-4.36h20.53c2.41,0,4.37,1.95,4.37,4.36Z"/>
            <path class="cls-13" d="M66.8,131.79v.71c0,.34-.28.63-.62.63h-1.71c-.36,0-.63-.29-.63-.63v-10.37c0-.34.28-.63.63-.63h1.71c.34,0,.62.29.62.63v9.66Z"/>
          </g>
          <g>
            <path class="cls-8" d="M48.44,112.33v-.55c0-2.41,1.95-4.36,4.36-4.36h25.03c2.41,0,4.37,1.95,4.37,4.36v.55"/>
            <line class="cls-8" x1="48.44" y1="123.46" x2="48.44" y2="112.33"/>
            <line class="cls-8" x1="82.2" y1="112.33" x2="82.2" y2="123.46"/>
            <path class="cls-8" d="M82.2,123.46v6.53c0,2.41-1.96,4.36-4.37,4.36h-25.03c-2.41,0-4.36-1.95-4.36-4.36v-6.53"/>
            <path class="cls-8" d="M63.83,131.79h-8.99c-2.41,0-4.36-1.95-4.36-4.36v-13.09c0-2.41,1.95-4.36,4.36-4.36h20.53c2.41,0,4.37,1.95,4.37,4.36v13.09c0,2.41-1.96,4.36-4.37,4.36h-8.57"/>
            <path class="cls-8" d="M66.8,131.79v.71c0,.34-.28.63-.62.63h-1.71c-.36,0-.63-.29-.63-.63v-.71"/>
            <path class="cls-8" d="M63.83,131.79v-9.66c0-.34.28-.63.63-.63h1.71c.34,0,.62.29.62.63v9.66"/>
          </g>
        </g>
        <rect class="cls-6" x="89.75" y="24.82" width="2.48" height="45.7"/>
        <rect class="cls-6" x="106.31" y="24.82" width="9.94" height="2.9" rx=".88" ry=".88"/>
        <rect class="cls-6" x="109.92" y="27.72" width="2.64" height="3.57" rx=".77" ry=".77"/>
      </g>
    </g>
  </g>
</svg>