<?xml version="1.0" encoding="UTF-8"?>
<svg xmlns="http://www.w3.org/2000/svg" xmlns:xlink="http://www.w3.org/1999/xlink" version="1.1" viewBox="0 0 689.39 463.54">
  <defs>
    <style>
      .cls-1, .cls-2, .cls-3, .cls-4, .cls-5, .cls-6, .cls-7, .cls-8 {
        stroke: #3f3f3f;
      }

      .cls-1, .cls-3, .cls-6, .cls-7 {
        stroke-linejoin: round;
      }

      .cls-1, .cls-5, .cls-7, .cls-8 {
        stroke-width: .5px;
      }

      .cls-1, .cls-6, .cls-9 {
        fill: #fff;
      }

      .cls-2 {
        stroke-width: 10px;
      }

      .cls-2, .cls-10, .cls-3, .cls-4, .cls-5, .cls-7, .cls-8 {
        fill: none;
      }

      .cls-2, .cls-4 {
        stroke-linecap: square;
      }

      .cls-2, .cls-4, .cls-5, .cls-8 {
        stroke-miterlimit: 10;
      }

      .cls-11 {
        clip-path: url(#clippath);
      }

      .cls-10, .cls-9 {
        stroke-width: 0px;
      }

      .cls-3, .cls-6 {
        stroke-width: .3px;
      }

      .cls-4 {
        stroke-width: 5px;
      }

      .cls-12 {
        clip-path: url(#clippath-1);
      }

      .cls-8 {
        opacity: .6;
      }
    </style>
    <clipPath id="clippath">
      <rect class="cls-10" x="73.75" y="65.79" width="74.12" height="99.3"/>
    </clipPath>
    <clipPath id="clippath-1">
      <rect class="cls-10" x="526.39" y="70.56" width="35.39" height="157.02" transform="translate(693.15 -395.02) rotate(90)"/>
    </clipPath>
  </defs>
  <g id="_레이어_2" data-name="레이어 2">
    <line class="cls-5" x1="303.27" y1="96.86" x2="194.42" y2="96.86"/>
    <path class="cls-7" d="M269.73,72.52v15.43c0,2.16-1.76,3.92-3.93,3.92h-25.02c-2.17,0-3.92-1.76-3.92-3.92v-15.43c0-2.17,1.75-3.92,3.92-3.92h25.02c.49,0,.96.09,1.39.26l-3.18,3.18c-.22.22-.22.58,0,.8l1.09,1.09c.22.22.58.22.8,0l3.33-3.33c.32.56.5,1.22.5,1.92Z"/>
    <rect class="cls-7" x="198.85" y="68.6" width="29.91" height="23.27" rx="3.92" ry="3.92" transform="translate(427.61 160.46) rotate(180)"/>
    <circle class="cls-7" cx="219.94" cy="80.22" r="5.51"/>
    <circle class="cls-7" cx="207.45" cy="85.8" r="4.51"/>
    <circle class="cls-7" cx="206.55" cy="74.71" r="4.01"/>
  </g>
  <g id="_레이어_4" data-name="레이어 4">
    <rect class="cls-7" x="269.93" y="102.88" width="29.39" height="30.37" rx="3.92" ry="3.92"/>
    <rect class="cls-7" x="198.17" y="131.37" width="29.39" height="54.19" rx="3.92" ry="3.92"/>
    <path class="cls-7" d="M267.19,68.86l3.41-3.41c.22-.22.58-.22.81,0l1.08,1.08c.22.23.22.59,0,.81l-3.26,3.26"/>
    <rect class="cls-7" x="593.93" y="291.42" width="21.6" height="102.23" rx="4.4" ry="4.4"/>
    <rect class="cls-7" x="607.41" y="308.88" width="4.76" height="67.3"/>
  </g>
  <g id="_레이어_6" data-name="레이어 6">
    <rect class="cls-7" x="387.3" y="319.67" width="27.77" height="87.14" rx="6.05" ry="6.05"/>
    <g>
      <rect class="cls-7" x="419.71" y="364.83" width="23.16" height="23.16" rx="6.05" ry="6.05"/>
      <rect class="cls-1" x="439.73" y="369.02" width="6.28" height="15.07" rx="2.54" ry="2.54"/>
    </g>
    <rect class="cls-1" x="200.89" y="304.69" width="20.84" height="18.23" rx="6.11" ry="6.11"/>
    <rect class="cls-1" x="241.44" y="304.69" width="20.84" height="18.23" rx="6.11" ry="6.11"/>
    <rect class="cls-1" x="200.89" y="364.41" width="20.84" height="18.23" rx="6.11" ry="6.11"/>
    <rect class="cls-1" x="241.44" y="364.41" width="20.84" height="18.23" rx="6.11" ry="6.11"/>
    <rect class="cls-1" x="184.42" y="315.77" width="97.35" height="56.83" rx="14.24" ry="14.24"/>
    <circle class="cls-1" cx="379.43" cy="286.39" r="5.3"/>
    <g>
      <circle class="cls-1" cx="361.66" cy="286.39" r="5.3"/>
      <path class="cls-6" d="M361.66,287.44s4.06,5.86,2.29,8.28c0,0,4.77-4.75-.09-9.32"/>
      <path class="cls-6" d="M361.4,284.23s.42-6.32,5.86-5.25c0,0-4.14,1.9-4.74,5.67"/>
      <path class="cls-6" d="M363.85,284s8.19-2,8.15,2.14c0,0-1.81.51-7.67-.42"/>
      <path class="cls-6" d="M359.02,285.76s-6.19,4.28-3.3,8.23c0,0-.65-4.51,4.47-5.77"/>
      <path class="cls-6" d="M359.77,285.76s-4.7-5.25-6.93-4.67c0,0,6.09-3.61,7.91,1.6"/>
    </g>
    <g>
      <circle class="cls-1" cx="306.99" cy="403.29" r="5.3"/>
      <path class="cls-6" d="M306.25,404.02s-1.33,7.01-4.29,7.44c0,0,6.73.07,6.58-6.61"/>
      <path class="cls-6" d="M308.35,401.58s4.79-4.13,7.85.49c0,0-4.26-1.61-7.37.6"/>
      <path class="cls-6" d="M310.24,403.17s7.17,4.43,4.19,7.31c0,0-1.64-.93-5.09-5.76"/>
      <path class="cls-6" d="M305.59,400.97s-7.39-1.41-8.18,3.42c0,0,2.76-3.63,7.24-.86"/>
      <path class="cls-6" d="M306.11,401.5s.45-7.03-1.53-8.22c0,0,6.84,1.81,4.4,6.76"/>
    </g>
    <circle class="cls-6" cx="378.53" cy="283.51" r="1.13"/>
    <ellipse class="cls-6" cx="381.85" cy="286.39" rx=".86" ry="1.39"/>
    <ellipse class="cls-6" cx="377.18" cy="287.3" rx="1.35" ry="1.6"/>
    <ellipse class="cls-6" cx="379.66" cy="289.39" rx=".66" ry=".84"/>
    <rect class="cls-1" x="391.12" y="282.38" width="9.3" height="8.68" rx="2.1" ry="2.1"/>
    <polygon class="cls-6" points="395.54 286.28 399.02 279.11 396.61 286.28 403.54 286.72 397.58 286.97 400.42 288.95 396.75 287.58 398.51 292.93 396.28 288.55 394.93 292.93 395.26 288.55 391.4 294 393.54 288.37 388.65 285.76 393.3 287.3 388.93 279.58 393.54 285.76 394.33 279.11 395.54 286.28"/>
    <rect class="cls-1" x="147.4" y="281.75" width="19.95" height="128.72" rx="4.85" ry="4.85"/>
  </g>
  <g id="_골조" data-name="골조">
    <g>
      <line class="cls-4" x1="147.4" y1="274.49" x2="459.14" y2="274.49"/>
      <polyline class="cls-4" points="464.32 168.04 464.32 130.64 625.2 130.64 625.2 168.04"/>
      <polyline class="cls-4" points="192.32 61.19 192.32 192.17 225.97 225.89 459.14 225.89"/>
      <line class="cls-4" x1="150.02" y1="172.33" x2="150.02" y2="63.8"/>
      <line class="cls-4" x1="304.53" y1="225.89" x2="304.53" y2="61.19"/>
      <line class="cls-4" x1="459.14" y1="169.72" x2="459.14" y2="420.49"/>
      <polyline class="cls-2" points="147.4 61.19 68.84 61.19 68.84 169.72 147.4 169.72 147.4 420.49 622.6 420.49 622.6 169.72 461.72 169.72 461.72 61.19 147.4 61.19"/>
      <line class="cls-4" x1="150.02" y1="106.1" x2="192.32" y2="106.1"/>
    </g>
  </g>
  <g id="_레이어_8" data-name="레이어 8">
    <g>
      <rect class="cls-9" x="141.39" y="233.65" width="11.84" height="38.96"/>
      <line class="cls-5" x1="143.5" y1="272.61" x2="152.18" y2="272.61"/>
      <line class="cls-5" x1="143.5" y1="233.65" x2="152.18" y2="233.65"/>
      <rect class="cls-5" x="106.71" y="269.81" width="36.8" height="1.72"/>
      <polygon class="cls-5" points="145.37 270.89 152.18 270.89 152.18 272.61 143.5 272.61 143.5 271.53 145.37 271.53 145.37 270.89"/>
      <polygon class="cls-5" points="145.37 235.4 152.18 235.4 152.18 233.65 143.5 233.65 143.5 234.73 145.37 234.73 145.37 235.4"/>
      <line class="cls-5" x1="143.5" y1="271.53" x2="143.5" y2="234.73"/>
      <line class="cls-5" x1="145.37" y1="270.89" x2="145.37" y2="235.4"/>
      <path class="cls-5" d="M143.5,234.76l-1.4.02c-18.66.49-33.89,15-35.3,33.63l-.07,1.4"/>
    </g>
    <g>
      <rect class="cls-9" x="260.74" y="217.39" width="38.96" height="11.84"/>
      <line class="cls-5" x1="299.7" y1="219.51" x2="299.7" y2="228.18"/>
      <line class="cls-5" x1="260.74" y1="219.51" x2="260.74" y2="228.18"/>
      <rect class="cls-5" x="296.9" y="182.71" width="1.72" height="36.8"/>
      <polygon class="cls-5" points="297.98 221.37 297.98 228.18 299.7 228.18 299.7 219.51 298.62 219.51 298.62 221.37 297.98 221.37"/>
      <polygon class="cls-5" points="262.48 221.37 262.48 228.18 260.74 228.18 260.74 219.51 261.82 219.51 261.82 221.37 262.48 221.37"/>
      <line class="cls-5" x1="298.62" y1="219.51" x2="261.82" y2="219.51"/>
      <line class="cls-5" x1="297.98" y1="221.37" x2="262.48" y2="221.37"/>
      <path class="cls-5" d="M261.84,219.51l.02-1.4c.49-18.66,15-33.89,33.63-35.3l1.4-.07"/>
    </g>
    <g>
      <rect class="cls-9" x="311.08" y="269.25" width="38.96" height="11.84"/>
      <line class="cls-5" x1="311.08" y1="278.98" x2="311.08" y2="270.3"/>
      <line class="cls-5" x1="350.04" y1="278.98" x2="350.04" y2="270.3"/>
      <rect class="cls-5" x="312.16" y="278.98" width="1.72" height="36.8"/>
      <polygon class="cls-5" points="312.8 277.11 312.8 270.3 311.08 270.3 311.08 278.98 312.16 278.98 312.16 277.11 312.8 277.11"/>
      <polygon class="cls-5" points="348.29 277.11 348.29 270.3 350.04 270.3 350.04 278.98 348.96 278.98 348.96 277.11 348.29 277.11"/>
      <line class="cls-5" x1="312.16" y1="278.98" x2="348.96" y2="278.98"/>
      <line class="cls-5" x1="312.8" y1="277.11" x2="348.29" y2="277.11"/>
      <path class="cls-5" d="M348.93,278.98l-.02,1.4c-.49,18.66-15,33.89-33.63,35.3l-1.4.07"/>
    </g>
    <g>
      <rect class="cls-9" x="414.23" y="217.39" width="38.96" height="11.84"/>
      <line class="cls-5" x1="453.19" y1="219.51" x2="453.19" y2="228.18"/>
      <line class="cls-5" x1="414.23" y1="219.51" x2="414.23" y2="228.18"/>
      <rect class="cls-5" x="450.39" y="182.71" width="1.72" height="36.8"/>
      <polygon class="cls-5" points="451.47 221.37 451.47 228.18 453.19 228.18 453.19 219.51 452.11 219.51 452.11 221.37 451.47 221.37"/>
      <polygon class="cls-5" points="415.97 221.37 415.97 228.18 414.23 228.18 414.23 219.51 415.31 219.51 415.31 221.37 415.97 221.37"/>
      <line class="cls-5" x1="452.11" y1="219.51" x2="415.31" y2="219.51"/>
      <line class="cls-5" x1="451.47" y1="221.37" x2="415.97" y2="221.37"/>
      <path class="cls-5" d="M415.33,219.51l.02-1.4c.49-18.66,15-33.89,33.63-35.3l1.4-.07"/>
    </g>
    <g>
      <rect class="cls-9" x="455.85" y="229.23" width="11.84" height="38.96"/>
      <line class="cls-5" x1="465.58" y1="229.23" x2="456.91" y2="229.23"/>
      <line class="cls-5" x1="465.58" y1="268.19" x2="456.91" y2="268.19"/>
      <rect class="cls-5" x="465.58" y="230.31" width="36.8" height="1.72"/>
      <polygon class="cls-5" points="463.71 230.95 456.91 230.95 456.91 229.23 465.58 229.23 465.58 230.31 463.71 230.31 463.71 230.95"/>
      <polygon class="cls-5" points="463.71 266.45 456.91 266.45 456.91 268.19 465.58 268.19 465.58 267.11 463.71 267.11 463.71 266.45"/>
      <line class="cls-5" x1="465.58" y1="230.31" x2="465.58" y2="267.11"/>
      <line class="cls-5" x1="463.71" y1="230.95" x2="463.71" y2="266.45"/>
      <path class="cls-5" d="M465.58,267.09l1.4-.02c18.66-.49,33.89-15,35.3-33.63l.07-1.4"/>
    </g>
    <g>
      <rect class="cls-9" x="469.53" y="162.23" width="34.79" height="15.85"/>
      <line class="cls-5" x1="469.53" y1="166.76" x2="469.53" y2="174.5"/>
      <line class="cls-5" x1="504.32" y1="166.76" x2="504.32" y2="174.5"/>
      <rect class="cls-5" x="470.49" y="133.9" width="1.54" height="32.86"/>
      <polygon class="cls-5" points="471.06 168.43 471.06 174.5 469.53 174.5 469.53 166.76 470.49 166.76 470.49 168.43 471.06 168.43"/>
      <polygon class="cls-5" points="502.76 168.43 502.76 174.5 504.32 174.5 504.32 166.76 503.35 166.76 503.35 168.43 502.76 168.43"/>
      <line class="cls-5" x1="470.49" y1="166.76" x2="503.35" y2="166.76"/>
      <line class="cls-5" x1="471.06" y1="168.43" x2="502.76" y2="168.43"/>
      <path class="cls-5" d="M503.33,166.76l-.02-1.25c-.44-16.66-13.4-30.26-30.03-31.52l-1.25-.07"/>
    </g>
    <g>
      <rect class="cls-9" x="154.26" y="97.97" width="28.37" height="12.93"/>
      <line class="cls-5" x1="154.26" y1="101.66" x2="154.26" y2="107.97"/>
      <line class="cls-5" x1="182.64" y1="101.66" x2="182.64" y2="107.97"/>
      <rect class="cls-5" x="155.05" y="74.86" width="1.25" height="26.8"/>
      <polygon class="cls-5" points="155.52 103.02 155.52 107.97 154.26 107.97 154.26 101.66 155.05 101.66 155.05 103.02 155.52 103.02"/>
      <polygon class="cls-5" points="181.37 103.02 181.37 107.97 182.64 107.97 182.64 101.66 181.85 101.66 181.85 103.02 181.37 103.02"/>
      <line class="cls-5" x1="155.05" y1="101.66" x2="181.85" y2="101.66"/>
      <line class="cls-5" x1="155.52" y1="103.02" x2="181.37" y2="103.02"/>
      <path class="cls-5" d="M181.83,101.66l-.02-1.02c-.36-13.59-10.93-24.68-24.49-25.71l-1.02-.05"/>
    </g>
    <g>
      <rect class="cls-9" x="166.36" y="412.88" width="65" height="15.21"/>
      <line class="cls-5" x1="166.36" y1="415.5" x2="166.36" y2="425.48"/>
      <line class="cls-5" x1="231.37" y1="425.48" x2="231.37" y2="415.5"/>
      <rect class="cls-5" x="166.36" y="415.5" width=".99" height="9.98"/>
      <line class="cls-5" x1="167.35" y1="415.5" x2="231.37" y2="415.5"/>
      <line class="cls-5" x1="167.35" y1="425.48" x2="230.35" y2="425.48"/>
      <rect class="cls-5" x="230.35" y="415.5" width="1.02" height="9.98"/>
      <rect class="cls-5" x="229.36" y="420.5" width=".99" height="4.97"/>
      <rect class="cls-5" x="198.85" y="420.5" width=".99" height="4.97"/>
      <line class="cls-5" x1="167.35" y1="420.5" x2="230.35" y2="420.5"/>
      <line class="cls-5" x1="229.36" y1="422.99" x2="199.84" y2="422.99"/>
      <rect class="cls-5" x="198.85" y="415.5" width=".99" height="5"/>
      <rect class="cls-5" x="167.35" y="415.5" width=".99" height="5"/>
      <line class="cls-5" x1="167.35" y1="415.5" x2="199.84" y2="415.5"/>
      <line class="cls-5" x1="198.85" y1="418.02" x2="168.34" y2="418.02"/>
      <line class="cls-5" x1="231.37" y1="425.48" x2="231.37" y2="415.5"/>
    </g>
    <g>
      <rect class="cls-9" x="231.37" y="412.88" width="65" height="15.21"/>
      <line class="cls-5" x1="231.37" y1="415.5" x2="231.37" y2="425.48"/>
      <line class="cls-5" x1="296.37" y1="425.48" x2="296.37" y2="415.5"/>
      <rect class="cls-5" x="231.37" y="415.5" width=".99" height="9.98"/>
      <line class="cls-5" x1="232.36" y1="415.5" x2="296.37" y2="415.5"/>
      <line class="cls-5" x1="232.36" y1="425.48" x2="295.35" y2="425.48"/>
      <rect class="cls-5" x="295.35" y="415.5" width="1.02" height="9.98"/>
      <rect class="cls-5" x="294.36" y="420.5" width=".99" height="4.97"/>
      <rect class="cls-5" x="263.85" y="420.5" width=".99" height="4.97"/>
      <line class="cls-5" x1="232.36" y1="420.5" x2="295.35" y2="420.5"/>
      <line class="cls-5" x1="294.36" y1="422.99" x2="264.84" y2="422.99"/>
      <rect class="cls-5" x="263.85" y="415.5" width=".99" height="5"/>
      <rect class="cls-5" x="232.36" y="415.5" width=".99" height="5"/>
      <line class="cls-5" x1="232.36" y1="415.5" x2="264.84" y2="415.5"/>
      <line class="cls-5" x1="263.85" y1="418.02" x2="233.34" y2="418.02"/>
      <line class="cls-5" x1="296.37" y1="425.48" x2="296.37" y2="415.5"/>
    </g>
    <g>
      <rect class="cls-9" x="166.36" y="269.5" width="65" height="10.43"/>
      <line class="cls-5" x1="166.36" y1="271.29" x2="166.36" y2="278.13"/>
      <line class="cls-5" x1="231.37" y1="278.13" x2="231.37" y2="271.29"/>
      <rect class="cls-5" x="166.36" y="271.29" width=".99" height="6.84"/>
      <line class="cls-5" x1="167.35" y1="271.29" x2="231.37" y2="271.29"/>
      <line class="cls-5" x1="167.35" y1="278.13" x2="230.35" y2="278.13"/>
      <rect class="cls-5" x="230.35" y="271.29" width="1.02" height="6.84"/>
      <rect class="cls-5" x="229.36" y="274.72" width=".99" height="3.41"/>
      <rect class="cls-5" x="198.85" y="274.72" width=".99" height="3.41"/>
      <line class="cls-5" x1="167.35" y1="274.72" x2="230.35" y2="274.72"/>
      <line class="cls-5" x1="229.36" y1="276.43" x2="199.84" y2="276.43"/>
      <rect class="cls-5" x="198.85" y="271.29" width=".99" height="3.43"/>
      <rect class="cls-5" x="167.35" y="271.29" width=".99" height="3.43"/>
      <line class="cls-5" x1="167.35" y1="271.29" x2="199.84" y2="271.29"/>
      <line class="cls-5" x1="198.85" y1="273.02" x2="168.34" y2="273.02"/>
      <line class="cls-5" x1="231.37" y1="278.13" x2="231.37" y2="271.29"/>
    </g>
    <g>
      <rect class="cls-9" x="231.37" y="269.5" width="65" height="10.43"/>
      <line class="cls-5" x1="231.37" y1="271.29" x2="231.37" y2="278.13"/>
      <line class="cls-5" x1="296.37" y1="278.13" x2="296.37" y2="271.29"/>
      <rect class="cls-5" x="231.37" y="271.29" width=".99" height="6.84"/>
      <line class="cls-5" x1="232.36" y1="271.29" x2="296.37" y2="271.29"/>
      <line class="cls-5" x1="232.36" y1="278.13" x2="295.35" y2="278.13"/>
      <rect class="cls-5" x="295.35" y="271.29" width="1.02" height="6.84"/>
      <rect class="cls-5" x="294.36" y="274.72" width=".99" height="3.41"/>
      <rect class="cls-5" x="263.85" y="274.72" width=".99" height="3.41"/>
      <line class="cls-5" x1="232.36" y1="274.72" x2="295.35" y2="274.72"/>
      <line class="cls-5" x1="294.36" y1="276.43" x2="264.84" y2="276.43"/>
      <rect class="cls-5" x="263.85" y="271.29" width=".99" height="3.43"/>
      <rect class="cls-5" x="232.36" y="271.29" width=".99" height="3.43"/>
      <line class="cls-5" x1="232.36" y1="271.29" x2="264.84" y2="271.29"/>
      <line class="cls-5" x1="263.85" y1="273.02" x2="233.34" y2="273.02"/>
      <line class="cls-5" x1="296.37" y1="278.13" x2="296.37" y2="271.29"/>
    </g>
    <g>
      <rect class="cls-9" x="313.34" y="412.88" width="65" height="15.21"/>
      <line class="cls-5" x1="313.34" y1="415.5" x2="313.34" y2="425.48"/>
      <line class="cls-5" x1="378.34" y1="425.48" x2="378.34" y2="415.5"/>
      <rect class="cls-5" x="313.34" y="415.5" width=".99" height="9.98"/>
      <line class="cls-5" x1="314.33" y1="415.5" x2="378.34" y2="415.5"/>
      <line class="cls-5" x1="314.33" y1="425.48" x2="377.33" y2="425.48"/>
      <rect class="cls-5" x="377.33" y="415.5" width="1.02" height="9.98"/>
      <rect class="cls-5" x="376.34" y="420.5" width=".99" height="4.97"/>
      <rect class="cls-5" x="345.83" y="420.5" width=".99" height="4.97"/>
      <line class="cls-5" x1="314.33" y1="420.5" x2="377.33" y2="420.5"/>
      <line class="cls-5" x1="376.34" y1="422.99" x2="346.82" y2="422.99"/>
      <rect class="cls-5" x="345.83" y="415.5" width=".99" height="5"/>
      <rect class="cls-5" x="314.33" y="415.5" width=".99" height="5"/>
      <line class="cls-5" x1="314.33" y1="415.5" x2="346.82" y2="415.5"/>
      <line class="cls-5" x1="345.83" y1="418.02" x2="315.32" y2="418.02"/>
      <line class="cls-5" x1="378.34" y1="425.48" x2="378.34" y2="415.5"/>
    </g>
    <g>
      <rect class="cls-9" x="378.34" y="412.88" width="65" height="15.21"/>
      <line class="cls-5" x1="378.34" y1="415.5" x2="378.34" y2="425.48"/>
      <line class="cls-5" x1="443.35" y1="425.48" x2="443.35" y2="415.5"/>
      <rect class="cls-5" x="378.34" y="415.5" width=".99" height="9.98"/>
      <line class="cls-5" x1="379.33" y1="415.5" x2="443.35" y2="415.5"/>
      <line class="cls-5" x1="379.33" y1="425.48" x2="442.33" y2="425.48"/>
      <rect class="cls-5" x="442.33" y="415.5" width="1.02" height="9.98"/>
      <rect class="cls-5" x="441.34" y="420.5" width=".99" height="4.97"/>
      <rect class="cls-5" x="410.83" y="420.5" width=".99" height="4.97"/>
      <line class="cls-5" x1="379.33" y1="420.5" x2="442.33" y2="420.5"/>
      <line class="cls-5" x1="441.34" y1="422.99" x2="411.82" y2="422.99"/>
      <rect class="cls-5" x="410.83" y="415.5" width=".99" height="5"/>
      <rect class="cls-5" x="379.33" y="415.5" width=".99" height="5"/>
      <line class="cls-5" x1="379.33" y1="415.5" x2="411.82" y2="415.5"/>
      <line class="cls-5" x1="410.83" y1="418.02" x2="380.32" y2="418.02"/>
      <line class="cls-5" x1="443.35" y1="425.48" x2="443.35" y2="415.5"/>
    </g>
    <g>
      <rect class="cls-9" x="473.86" y="412.88" width="65" height="15.21"/>
      <line class="cls-5" x1="473.86" y1="415.5" x2="473.86" y2="425.48"/>
      <line class="cls-5" x1="538.86" y1="425.48" x2="538.86" y2="415.5"/>
      <rect class="cls-5" x="473.86" y="415.5" width=".99" height="9.98"/>
      <line class="cls-5" x1="474.84" y1="415.5" x2="538.86" y2="415.5"/>
      <line class="cls-5" x1="474.84" y1="425.48" x2="537.84" y2="425.48"/>
      <rect class="cls-5" x="537.84" y="415.5" width="1.02" height="9.98"/>
      <rect class="cls-5" x="536.85" y="420.5" width=".99" height="4.97"/>
      <rect class="cls-5" x="506.34" y="420.5" width=".99" height="4.97"/>
      <line class="cls-5" x1="474.84" y1="420.5" x2="537.84" y2="420.5"/>
      <line class="cls-5" x1="536.85" y1="422.99" x2="507.33" y2="422.99"/>
      <rect class="cls-5" x="506.34" y="415.5" width=".99" height="5"/>
      <rect class="cls-5" x="474.84" y="415.5" width=".99" height="5"/>
      <line class="cls-5" x1="474.84" y1="415.5" x2="507.33" y2="415.5"/>
      <line class="cls-5" x1="506.34" y1="418.02" x2="475.83" y2="418.02"/>
      <line class="cls-5" x1="538.86" y1="425.48" x2="538.86" y2="415.5"/>
    </g>
    <g>
      <rect class="cls-9" x="538.86" y="412.88" width="65" height="15.21"/>
      <line class="cls-5" x1="538.86" y1="415.5" x2="538.86" y2="425.48"/>
      <line class="cls-5" x1="603.86" y1="425.48" x2="603.86" y2="415.5"/>
      <rect class="cls-5" x="538.86" y="415.5" width=".99" height="9.98"/>
      <line class="cls-5" x1="539.85" y1="415.5" x2="603.86" y2="415.5"/>
      <line class="cls-5" x1="539.85" y1="425.48" x2="602.85" y2="425.48"/>
      <rect class="cls-5" x="602.85" y="415.5" width="1.02" height="9.98"/>
      <rect class="cls-5" x="601.86" y="420.5" width=".99" height="4.97"/>
      <rect class="cls-5" x="571.35" y="420.5" width=".99" height="4.97"/>
      <line class="cls-5" x1="539.85" y1="420.5" x2="602.85" y2="420.5"/>
      <line class="cls-5" x1="601.86" y1="422.99" x2="572.34" y2="422.99"/>
      <rect class="cls-5" x="571.35" y="415.5" width=".99" height="5"/>
      <rect class="cls-5" x="539.85" y="415.5" width=".99" height="5"/>
      <line class="cls-5" x1="539.85" y1="415.5" x2="572.34" y2="415.5"/>
      <line class="cls-5" x1="571.35" y1="418.02" x2="540.84" y2="418.02"/>
      <line class="cls-5" x1="603.86" y1="425.48" x2="603.86" y2="415.5"/>
    </g>
    <g class="cls-11">
      <g>
        <line class="cls-8" x1="55.35" y1="209.74" x2="55.35" y2="34.3"/>
        <line class="cls-8" x1="64.55" y1="209.74" x2="64.55" y2="34.3"/>
        <line class="cls-8" x1="73.74" y1="209.74" x2="73.74" y2="34.3"/>
        <line class="cls-8" x1="82.94" y1="209.74" x2="82.94" y2="34.3"/>
        <line class="cls-8" x1="92.14" y1="209.74" x2="92.14" y2="34.3"/>
        <line class="cls-8" x1="101.33" y1="209.74" x2="101.33" y2="34.3"/>
        <line class="cls-8" x1="110.53" y1="209.74" x2="110.53" y2="34.3"/>
        <line class="cls-8" x1="119.72" y1="209.74" x2="119.72" y2="34.3"/>
        <line class="cls-8" x1="128.92" y1="209.74" x2="128.92" y2="34.3"/>
        <line class="cls-8" x1="138.11" y1="209.74" x2="138.11" y2="34.3"/>
        <line class="cls-8" x1="147.31" y1="209.74" x2="147.31" y2="34.3"/>
        <line class="cls-8" x1="156.5" y1="209.74" x2="156.5" y2="34.3"/>
        <line class="cls-8" x1="165.7" y1="209.74" x2="165.7" y2="34.3"/>
        <line class="cls-8" x1="174.9" y1="209.74" x2="174.9" y2="34.3"/>
        <line class="cls-8" x1="184.09" y1="209.74" x2="184.09" y2="34.3"/>
        <line class="cls-8" x1="42.75" y1="41.67" x2="192.92" y2="41.67"/>
        <line class="cls-8" x1="42.75" y1="49.87" x2="192.92" y2="49.87"/>
        <line class="cls-8" x1="42.75" y1="58.06" x2="192.92" y2="58.06"/>
        <line class="cls-8" x1="42.75" y1="66.25" x2="192.92" y2="66.25"/>
        <line class="cls-8" x1="42.75" y1="74.45" x2="192.92" y2="74.45"/>
        <line class="cls-8" x1="42.75" y1="82.64" x2="192.92" y2="82.64"/>
        <line class="cls-8" x1="42.75" y1="90.84" x2="192.92" y2="90.84"/>
        <line class="cls-8" x1="42.75" y1="99.03" x2="192.92" y2="99.03"/>
        <line class="cls-8" x1="42.75" y1="107.22" x2="192.92" y2="107.22"/>
        <line class="cls-8" x1="42.75" y1="115.42" x2="192.92" y2="115.42"/>
        <line class="cls-8" x1="42.75" y1="123.61" x2="192.92" y2="123.61"/>
        <line class="cls-8" x1="42.75" y1="131.81" x2="192.92" y2="131.81"/>
        <line class="cls-8" x1="42.75" y1="140" x2="192.92" y2="140"/>
        <line class="cls-8" x1="42.75" y1="148.19" x2="192.92" y2="148.19"/>
        <line class="cls-8" x1="42.75" y1="156.39" x2="192.92" y2="156.39"/>
        <line class="cls-8" x1="42.75" y1="164.58" x2="192.92" y2="164.58"/>
        <line class="cls-8" x1="42.75" y1="172.78" x2="192.92" y2="172.78"/>
        <line class="cls-8" x1="42.75" y1="180.97" x2="192.92" y2="180.97"/>
        <line class="cls-8" x1="42.75" y1="189.17" x2="192.92" y2="189.17"/>
        <line class="cls-8" x1="42.75" y1="197.36" x2="192.92" y2="197.36"/>
        <line class="cls-8" x1="42.75" y1="205.55" x2="192.92" y2="205.55"/>
      </g>
    </g>
    <g class="cls-12">
      <g>
        <line class="cls-8" x1="462.76" y1="114.36" x2="629.79" y2="114.36"/>
        <line class="cls-8" x1="462.76" y1="123.12" x2="629.79" y2="123.12"/>
        <line class="cls-8" x1="462.76" y1="131.87" x2="629.79" y2="131.87"/>
        <line class="cls-8" x1="462.76" y1="140.63" x2="629.79" y2="140.63"/>
        <line class="cls-8" x1="462.76" y1="149.38" x2="629.79" y2="149.38"/>
        <line class="cls-8" x1="462.76" y1="158.14" x2="629.79" y2="158.14"/>
        <line class="cls-8" x1="462.76" y1="166.9" x2="629.79" y2="166.9"/>
        <line class="cls-8" x1="462.76" y1="175.65" x2="629.79" y2="175.65"/>
        <line class="cls-8" x1="462.76" y1="184.41" x2="629.79" y2="184.41"/>
        <line class="cls-8" x1="462.76" y1="193.16" x2="629.79" y2="193.16"/>
        <line class="cls-8" x1="462.76" y1="201.92" x2="629.79" y2="201.92"/>
        <line class="cls-8" x1="462.76" y1="210.67" x2="629.79" y2="210.67"/>
        <line class="cls-8" x1="462.76" y1="219.43" x2="629.79" y2="219.43"/>
        <line class="cls-8" x1="462.76" y1="228.18" x2="629.79" y2="228.18"/>
        <line class="cls-8" x1="462.76" y1="236.94" x2="629.79" y2="236.94"/>
        <line class="cls-8" x1="622.77" y1="102.37" x2="622.77" y2="245.34"/>
        <line class="cls-8" x1="614.97" y1="102.37" x2="614.97" y2="245.34"/>
        <line class="cls-8" x1="607.17" y1="102.37" x2="607.17" y2="245.34"/>
        <line class="cls-8" x1="599.37" y1="102.37" x2="599.37" y2="245.34"/>
        <line class="cls-8" x1="591.57" y1="102.37" x2="591.57" y2="245.34"/>
        <line class="cls-8" x1="583.77" y1="102.37" x2="583.77" y2="245.34"/>
        <line class="cls-8" x1="575.97" y1="102.37" x2="575.97" y2="245.34"/>
        <line class="cls-8" x1="568.16" y1="102.37" x2="568.16" y2="245.34"/>
        <line class="cls-8" x1="560.36" y1="102.37" x2="560.36" y2="245.34"/>
        <line class="cls-8" x1="552.56" y1="102.37" x2="552.56" y2="245.34"/>
        <line class="cls-8" x1="544.76" y1="102.37" x2="544.76" y2="245.34"/>
        <line class="cls-8" x1="536.96" y1="102.37" x2="536.96" y2="245.34"/>
        <line class="cls-8" x1="529.16" y1="102.37" x2="529.16" y2="245.34"/>
        <line class="cls-8" x1="521.35" y1="102.37" x2="521.35" y2="245.34"/>
        <line class="cls-8" x1="513.55" y1="102.37" x2="513.55" y2="245.34"/>
        <line class="cls-8" x1="505.75" y1="102.37" x2="505.75" y2="245.34"/>
        <line class="cls-8" x1="497.95" y1="102.37" x2="497.95" y2="245.34"/>
        <line class="cls-8" x1="490.15" y1="102.37" x2="490.15" y2="245.34"/>
        <line class="cls-8" x1="482.35" y1="102.37" x2="482.35" y2="245.34"/>
        <line class="cls-8" x1="474.54" y1="102.37" x2="474.54" y2="245.34"/>
        <line class="cls-8" x1="466.74" y1="102.37" x2="466.74" y2="245.34"/>
      </g>
    </g>
    <g>
      <rect class="cls-9" x="147.31" y="128.91" width="8.49" height="34.79"/>
      <line class="cls-5" x1="144.47" y1="163.69" x2="152.22" y2="163.69"/>
      <line class="cls-5" x1="144.47" y1="128.91" x2="152.22" y2="128.91"/>
      <rect class="cls-5" x="111.62" y="161.19" width="32.86" height="1.54"/>
      <polygon class="cls-5" points="146.14 162.16 152.22 162.16 152.22 163.69 144.47 163.69 144.47 162.73 146.14 162.73 146.14 162.16"/>
      <polygon class="cls-5" points="146.14 130.46 152.22 130.46 152.22 128.91 144.47 128.91 144.47 129.87 146.14 129.87 146.14 130.46"/>
      <line class="cls-5" x1="144.47" y1="162.73" x2="144.47" y2="129.87"/>
      <line class="cls-5" x1="146.14" y1="162.16" x2="146.14" y2="130.46"/>
      <path class="cls-5" d="M144.47,129.89l-1.25.02c-16.66.44-30.26,13.4-31.52,30.03l-.07,1.25"/>
    </g>
    <g>
      <rect class="cls-7" x="520.81" y="165.99" width="80.55" height="107.14" rx="4.99" ry="4.99" transform="translate(780.64 -341.52) rotate(90)"/>
      <rect class="cls-7" x="515.83" y="181.74" width="69.49" height="76.49" rx="4.72" ry="4.72" transform="translate(770.55 -330.59) rotate(90)"/>
      <rect class="cls-7" x="585.13" y="230.06" width="32.6" height="16.74" rx="2.76" ry="2.76" transform="translate(839.85 -363) rotate(90)"/>
      <rect class="cls-7" x="585.13" y="193.17" width="32.6" height="16.74" rx="2.76" ry="2.76" transform="translate(802.96 -399.89) rotate(90)"/>
    </g>
    <g>
      <rect class="cls-7" x="324.91" y="60.48" width="73.38" height="97.61" rx="4.99" ry="4.99" transform="translate(252.31 470.89) rotate(-90)"/>
      <rect class="cls-7" x="339.53" y="74.06" width="63.31" height="69.69" rx="4.72" ry="4.72" transform="translate(262.27 480.09) rotate(-90)"/>
      <rect class="cls-7" x="310" y="84.48" width="29.7" height="15.25" rx="2.76" ry="2.76" transform="translate(232.75 416.95) rotate(-90)"/>
      <rect class="cls-7" x="310" y="118.09" width="29.7" height="15.25" rx="2.76" ry="2.76" transform="translate(199.14 450.56) rotate(-90)"/>
    </g>
    <g>
      <rect class="cls-7" x="464.99" y="281.09" width="37.98" height="125.72" rx="4.72" ry="4.72"/>
      <path class="cls-7" d="M473.82,281.09h24.43c2.61,0,4.72,2.11,4.72,4.72v2.91c0,2.6-2.11,4.71-4.72,4.71h-17.37c-1.29,0-2.34,1.05-2.34,2.34v96.36c0,1.29,1.05,2.34,2.34,2.34h17.37c2.61,0,4.72,2.12,4.72,4.72v2.91c0,2.61-2.11,4.72-4.72,4.72h-24.43"/>
      <line class="cls-7" x1="478.54" y1="326.65" x2="502.97" y2="326.65"/>
      <line class="cls-7" x1="478.54" y1="361.03" x2="502.97" y2="361.03"/>
    </g>
    <path class="cls-7" d="M306.89,172.33h25.59v18.78s-.47,8.37,5.11,8.37h54.98v23.83"/>
    <path class="cls-3" d="M309.44,177.48s19.77.56,21.3.56"/>
    <path class="cls-3" d="M309.45,182.81s19.76-.65,21.3-.77"/>
    <path class="cls-3" d="M309.44,180.82s19.78-.22,21.31-.29"/>
    <path class="cls-3" d="M309.44,185s19.77.56,21.3.56"/>
    <path class="cls-3" d="M309.45,190.32s19.76-.65,21.3-.77"/>
    <path class="cls-3" d="M309.44,188.34s19.78-.22,21.31-.29"/>
    <path class="cls-3" d="M309.44,192.51s19.77.56,21.3.56"/>
    <path class="cls-3" d="M309.45,197.84s19.76-.65,21.3-.77"/>
    <path class="cls-3" d="M309.44,195.85s19.78-.22,21.31-.29"/>
    <path class="cls-3" d="M309.44,200.02s19.77.56,21.3.56"/>
    <path class="cls-3" d="M309.45,205.35s19.76-.65,21.3-.77"/>
    <path class="cls-3" d="M309.44,203.36s19.78-.22,21.31-.29"/>
    <path class="cls-3" d="M309.44,207.53s19.77.56,21.3.56"/>
    <path class="cls-3" d="M338.45,220.74s-.65-18.16-.77-19.69"/>
    <path class="cls-3" d="M339.72,220.61s2.84-17.9,3.07-19.42"/>
    <path class="cls-3" d="M342.67,220.69s1.8-18.06,1.92-19.59"/>
    <path class="cls-3" d="M347.04,220.74s-.65-18.16-.77-19.69"/>
    <path class="cls-3" d="M348.3,220.61s2.84-17.9,3.07-19.42"/>
    <path class="cls-3" d="M351.25,220.69s1.8-18.06,1.92-19.59"/>
    <path class="cls-3" d="M355.62,220.74s-.65-18.16-.77-19.69"/>
    <path class="cls-3" d="M356.89,220.61s2.84-17.9,3.07-19.42"/>
    <path class="cls-3" d="M359.84,220.69s1.8-18.06,1.92-19.59"/>
    <path class="cls-3" d="M364.2,220.74s-.65-18.16-.77-19.69"/>
    <path class="cls-3" d="M365.47,220.61s2.84-17.9,3.07-19.42"/>
    <path class="cls-3" d="M368.42,220.69s1.8-18.06,1.92-19.59"/>
    <path class="cls-3" d="M372.79,220.74s-.65-18.16-.77-19.69"/>
    <path class="cls-3" d="M374.05,220.61s2.84-17.9,3.07-19.42"/>
    <path class="cls-3" d="M377,220.69s1.8-18.06,1.92-19.59"/>
    <path class="cls-3" d="M381.37,220.74s-.65-18.16-.77-19.69"/>
    <path class="cls-3" d="M382.63,220.61s2.84-17.9,3.07-19.42"/>
    <path class="cls-3" d="M385.59,220.69s1.8-18.06,1.92-19.59"/>
    <polyline class="cls-3" points="319.19 177.76 319.19 211.39 388.19 211.39"/>
    <g>
      <g>
        <path class="cls-9" d="M103.35,70.05v2.54c0,.82-.22,1.59-.6,2.26l-1.25,1.4h-19.31l-1.25-1.4c-.38-.67-.6-1.44-.6-2.26v-2.54c0-2.53,2.05-4.58,4.57-4.58h13.87c2.52,0,4.57,2.05,4.57,4.58Z"/>
        <path class="cls-9" d="M82.19,76.25c.76.58,1.7.91,2.72.91h13.87c1.02,0,1.96-.33,2.72-.91,1.15,1.37,1.85,3.14,1.85,5.07v10.14c0,1.18-.18,2.32-.5,3.39-1.45,4.67-5.81,8.06-10.95,8.06h-.1c-5.15,0-9.51-3.39-10.96-8.06-.32-1.07-.5-2.21-.5-3.39v-10.14c0-1.93.7-3.7,1.85-5.07Z"/>
        <path class="cls-9" d="M101.5,76.25l1.25-1.4c-.32.55-.74,1.03-1.25,1.4Z"/>
        <path class="cls-9" d="M101.5,76.25c-.76.58-1.7.91-2.72.91h-13.87c-1.02,0-1.96-.33-2.72-.91h19.31Z"/>
        <path class="cls-9" d="M80.94,74.85l1.25,1.4c-.51-.37-.94-.85-1.25-1.4Z"/>
      </g>
      <g>
        <path class="cls-7" d="M102.85,94.85c-1.45,4.67-5.81,8.06-10.95,8.06h-.1c-5.15,0-9.51-3.39-10.96-8.06"/>
        <path class="cls-7" d="M103.35,84.85v6.61c0,1.18-.18,2.32-.5,3.39"/>
        <path class="cls-7" d="M80.84,94.85c-.32-1.07-.5-2.21-.5-3.39v-6.61"/>
        <path class="cls-7" d="M80.94,74.85c-.38-.67-.6-1.44-.6-2.26v-2.54c0-2.53,2.05-4.58,4.57-4.58h13.87c2.52,0,4.57,2.05,4.57,4.58v2.54c0,.82-.22,1.59-.6,2.26"/>
        <path class="cls-7" d="M80.34,84.85v-3.53c0-1.93.7-3.7,1.85-5.07.76.58,1.7.91,2.72.91h13.87c1.02,0,1.96-.33,2.72-.91,1.15,1.37,1.85,3.14,1.85,5.07v3.53"/>
        <path class="cls-7" d="M82.19,76.25c-.51-.37-.94-.85-1.25-1.4"/>
        <path class="cls-7" d="M102.75,74.85c-.32.55-.74,1.03-1.25,1.4"/>
      </g>
    </g>
    <g>
      <g>
        <path class="cls-9" d="M105.05,158.36v-11.76c0-2.17-1.76-3.92-3.93-3.92h-18.45c-2.17,0-3.92,1.75-3.92,3.92v11.76c0,2.17,1.75,3.92,3.92,3.92h8.08v.64c0,.31.25.57.57.57h1.54c.31,0,.56-.26.56-.57v-.64h7.7c2.17,0,3.93-1.75,3.93-3.92ZM76.92,144.3c0-2.17,1.75-3.92,3.92-3.92h22.49c2.17,0,3.93,1.75,3.93,3.92v16.36c0,2.17-1.76,3.92-3.93,3.92h-22.49c-2.17,0-3.92-1.75-3.92-3.92v-16.36Z"/>
        <path class="cls-9" d="M93.42,162.28v.64c0,.31-.25.57-.56.57h-1.54c-.32,0-.57-.26-.57-.57v-9.32c0-.31.25-.57.57-.57h1.54c.31,0,.56.26.56.57v8.68Z"/>
        <path class="cls-9" d="M105.05,146.6v11.76c0,2.17-1.76,3.92-3.93,3.92h-7.7v-8.68c0-.31-.25-.57-.56-.57h-1.54c-.32,0-.57.26-.57.57v8.68h-8.08c-2.17,0-3.92-1.75-3.92-3.92v-11.76c0-2.17,1.75-3.92,3.92-3.92h18.45c2.17,0,3.93,1.75,3.93,3.92Z"/>
      </g>
      <g>
        <path class="cls-7" d="M76.92,144.79v-.49c0-2.17,1.75-3.92,3.92-3.92h22.49c2.17,0,3.93,1.75,3.93,3.92v.49"/>
        <line class="cls-7" x1="76.92" y1="154.79" x2="76.92" y2="144.79"/>
        <line class="cls-7" x1="107.26" y1="144.79" x2="107.26" y2="154.79"/>
        <path class="cls-7" d="M107.26,154.79v5.87c0,2.17-1.76,3.92-3.93,3.92h-22.49c-2.17,0-3.92-1.75-3.92-3.92v-5.87"/>
        <path class="cls-7" d="M90.75,162.28h-8.08c-2.17,0-3.92-1.75-3.92-3.92v-11.76c0-2.17,1.75-3.92,3.92-3.92h18.45c2.17,0,3.93,1.75,3.93,3.92v11.76c0,2.17-1.76,3.92-3.93,3.92h-7.7"/>
        <path class="cls-7" d="M93.42,162.28v.64c0,.31-.25.57-.56.57h-1.54c-.32,0-.57-.26-.57-.57v-.64"/>
        <path class="cls-7" d="M90.75,162.28v-8.68c0-.31.25-.57.57-.57h1.54c.31,0,.56.26.56.57v8.68"/>
      </g>
    </g>
    <rect class="cls-1" x="114.05" y="66.16" width="2.23" height="41.07"/>
    <rect class="cls-1" x="128.93" y="66.16" width="8.93" height="2.6" rx=".88" ry=".88"/>
    <rect class="cls-1" x="132.18" y="68.76" width="2.37" height="3.21" rx=".77" ry=".77"/>
  </g>
</svg>