<?xml version="1.0" encoding="UTF-8"?>
<svg id="Contours" xmlns="http://www.w3.org/2000/svg" viewBox="0 0 1658 1333.94">
  <defs>
    <style>
      .cls-1 {
        fill: #3f3f3f;
        stroke-width: 0px;
      }
    </style>
  </defs>
  <path class="cls-1" d="M1658,913.84c-3,.25-6,.21-9,.26-20.03.32-40.05.63-60.08,1-15.03.28-30.05.66-45.08.99-15.69.34-31.39.66-47.08,1-14.69.32-29.39.68-44.08.99-16.03.35-32.06.64-48.08,1.01-12.53.29-25.05.71-37.58.98-17.69.38-35.39.66-53.08,1.02-15.36.31-30.72.66-46.08.99-15.69.34-31.39.66-47.08,1-14.69.32-29.39.68-44.08.99-16.03.35-32.06.64-48.08,1.01-12.69.29-25.39.71-38.08.98-18.19.38-36.39.65-54.58,1.02-14.7.3-29.39.67-44.08.99-15.69.34-31.39.66-47.08,1.01-14.69.32-29.39.68-44.08.99-16.03.35-32.05.65-48.08,1.01-12.86.29-25.72.71-38.58.98-18.03.38-36.05.66-54.08,1.02-15.03.3-30.05.67-45.08.99-15.69.34-31.39.66-47.08,1-14.53.32-29.05.64-43.58,1.01-11.2.29-22.39.66-33.58.99-2.33.07-4.83.43-4.65-3.25.17-3.39,2.61-2.71,4.65-2.74,21.69-.35,43.39-.64,65.08-1.02,15.36-.27,30.72-.65,46.08-.99,15.03-.33,30.05-.67,45.08-1,15.53-.34,31.05-.67,46.58-1,15.19-.33,30.39-.67,45.58-1,15.36-.33,30.72-.67,46.08-1,15.69-.34,31.39-.66,47.08-1,14.86-.32,29.72-.67,44.58-.99,15.86-.34,31.72-.65,47.58-1.01,13.19-.3,26.39-.7,39.58-.98,17.36-.37,34.72-.66,52.08-1.02,15.19-.31,30.39-.66,45.58-.99,15.36-.33,30.72-.67,46.08-1,15.36-.33,30.72-.67,46.08-1,15.36-.33,30.72-.67,46.08-1,15.19-.33,30.39-.67,45.58-1,15.86-.34,31.72-.66,47.58-1,14.86-.32,29.72-.67,44.58-.99,15.69-.34,31.39-.67,47.08-1,15.36-.33,30.72-.66,46.08-1,15.03-.33,30.05-.67,45.08-1,15.69-.34,31.39-.64,47.08-1.01,11.53-.28,23.06-.66,34.83-.99.25,1.83.25,3.67.25,5.75Z"/>
  <path class="cls-1" d="M0,955.34c10.19-.58,20.39-.83,30.57-1.27,13.39-.58,26.77-1.33,40.16-1.97,14.38-.69,28.77-1.36,43.15-2,15.72-.69,31.43-1.4,47.16-1.91,1.63-.05,3.3,1.18,4.96,1.82-1.79,1.03-3.53,2.84-5.38,2.96-13.54.9-27.1,1.45-40.65,2.13-13.05.65-26.1,1.35-39.16,1.99-14.22.69-28.44,1.31-42.65,2.02-12.56.62-25.1,1.32-37.91,1.99-.25-1.83-.25-3.67-.25-5.75Z"/>
  <path class="cls-1" d="M213,6.09H17.01c-1.33,0-2.98.49-3.92-.12-1.31-.85-2.08-2.52-3.09-3.84,1.11-.68,2.16-1.51,3.36-1.99.72-.29,1.65-.05,2.48-.05C111.33.09,206.83-.04,302.32.13c97.19.17,194.38.63,291.57.96,97.69.33,195.38.67,293.07,1,97.53.33,195.05.67,292.57,1s195.05.61,292.57,1.02c51.03.21,102.05.65,153.08.98.33,0,.73-.12.99.02,1.95,1.02,3.88,2.09,5.81,3.15-1.88.95-3.75,2.71-5.63,2.72-65.16.14-130.33.24-195.49.09-97.86-.23-195.72-.64-293.57-.97-97.19-.33-194.38-.67-291.57-1-96.69-.33-193.38-.67-290.07-1-98.19-.34-196.38-.63-294.57-1.04-15.86-.07-31.72-.63-48.08-.96Z"/>
  <path class="cls-1" d="M639.25,582.34c8.57-5.91,16.86-11.61,25.25-17.17,1.51-1,3.39-1.86,5.13-1.91,1.1-.03,2.25,1.56,3.37,2.42-.66.8-1.17,1.8-1.98,2.39-17.99,12.87-35.92,25.81-54.05,38.49-11.06,7.73-22.46,14.98-33.63,22.56-8.6,5.84-16.94,12.08-25.69,17.69-5.98,3.83-12.63,6.61-18.65,10.4-3.15,1.98-5.81,4.91-8.2,7.81-.87,1.05-.63,3.32-.37,4.95,1.43,8.88,3.02,17.73,4.57,26.59,1.33,7.61,2.64,15.23,4.01,22.84,1.3,7.28,2.78,14.54,3.97,21.84,1.78,10.96,3.52,21.92,4.97,32.92.95,7.18,1.49,14.43,2.03,21.66,1.08,14.41,2.35,28.82,2.94,43.25.7,17.34,1.03,34.71,1.01,52.07-.02,20.19-.67,40.38-.9,60.57-.15,12.49-.29,25,.05,37.49.34,12.73,1.04,25.46,2,38.16.69,9.13-.12,11.64-6.29,13.4-2.26.65-4.66,1.38-6.95,1.25-13.95-.79-26.73,4.31-39.89,7.54-5.21,1.28-10.62,1.77-15.96,2.53-10.24,1.45-20.49,2.84-30.73,4.27-1.57.22-3.12.7-4.69.71-10,.07-20.01.36-29.99-.06-9.48-.4-17.99,2.51-26.74,5.52-6.77,2.33-14.06,3.24-21.19,4.36-8.35,1.31-16.78,2.17-25.18,3.2-.82.1-2,.36-2.43-.05-1.18-1.14-2.05-2.59-3.03-3.93,1.12-.67,2.18-1.76,3.38-1.94,13.99-2.1,28.05-3.72,41.97-6.2,7.27-1.3,14.28-4.08,21.43-6.1,1.51-.43,3.12-.71,4.69-.72,10.66-.06,21.36.52,31.98-.19,10.46-.69,20.84-2.67,31.26-4.05,4.91-.65,9.9-.9,14.74-1.87,6.87-1.38,13.58-3.56,20.45-4.86,10.26-1.94,20.56-3.78,30.93-4.9,4.61-.5,6.32-1.75,6.23-6.45-.78-41.55-1.57-83.09-1.98-124.65-.17-16.52.93-33.05.8-49.57-.1-12.56-.98-25.13-1.95-37.66-1.04-13.3-2.26-26.61-4.03-39.83-1.93-14.42-4.63-28.73-6.89-43.11-2.07-13.16-3.68-26.4-6.1-39.49-3.34-18.04-6.78-36.08-11.05-53.91-4.41-18.4-9.22-36.76-15.06-54.74-5.45-16.82-12.42-33.16-18.86-49.66-1.45-3.72-3.52-7.21-5.16-10.86-.5-1.12-1.03-2.61-.67-3.63.48-1.36,1.81-2.42,2.77-3.61.77.9,1.72,1.69,2.26,2.71,1.74,3.27,3.51,6.54,4.94,9.95,1.81,4.31,5.06,4.63,8.72,3.3,9.99-3.62,20.13-6.94,29.82-11.27,13.8-6.15,27.25-13.08,40.84-19.7,19.14-9.32,38.25-18.68,57.39-27.99,6.41-3.12,9-1.35,9.17,5.81.19,8.2-.36,16.6,1.3,24.51,1.19,5.65,4.88,11.15,8.58,15.82,6.07,7.68,13.02,14.68,19.66,21.9,4.81,5.22,10.8,8.57,17.41,11.06,1.6.6,2.69,2.55,4.01,3.88-1.79.67-3.97,2.34-5.3,1.83-4.88-1.87-10.53-3.44-13.98-6.99-11.13-11.43-21.46-23.63-31.98-35.65-4.5-5.14-6.13-11.35-5.73-18.11.3-5.03.71-10.05.97-15.08.14-2.67-1.42-3.79-3.73-2.68-16.27,7.8-32.47,15.76-48.71,23.63-13.18,6.38-26.77,12.05-39.49,19.25-12.26,6.94-25.63,10.65-38.59,15.51-4.33,1.63-3.87,3.53-2.88,6.35,5.41,15.42,11.61,30.6,16.23,46.24,5.42,18.34,9.53,37.07,14.16,55.64.8,3.19,1.39,6.42,2.08,9.64,2.25-1.85,4.3-4.05,6.78-5.51,9.9-5.81,20.13-11.08,29.85-17.16,7.36-4.61,14.04-10.31,21.21-15.24,10.22-7.02,20.71-13.63,30.89-20.7,7.56-5.25,14.81-10.95,22.44-16.7Z"/>
  <path class="cls-1" d="M774,360.09c-8,11.52-15.86,22.64-24.05,33.52-6.26,8.32-12.52,16.71-19.55,24.35-7.58,8.23-15.78,15.96-24.27,23.25-4.93,4.24-10.76,7.59-16.57,10.58-3.41,1.76-2.93,3.78-2.06,6.26,2.68,7.65,6.68,14.49,12.3,20.43,3.31,3.49,5.84,7.74,9.28,11.08,3.64,3.53,7.59,7.11,12.08,9.26,2.86,1.37,6.95.1,10.48.16,1.12.02,2.23.51,3.35.78-.68,1.11-1.1,2.66-2.1,3.25-6.27,3.73-16.85,2.72-22.41-3.13-9.59-10.1-19.76-19.88-25.85-32.74-2.24-4.72-3.94-9.71-5.6-14.67-1.48-4.4-4.02-2.19-5.9-.92-6.03,4.07-11.83,8.46-17.78,12.65-5.28,3.71-10.57,7.42-16.01,10.88-.94.59-2.91.29-3.97-.34-.59-.35-.83-2.75-.29-3.31,2.27-2.3,4.75-4.46,7.4-6.31,9.42-6.57,19.11-12.75,28.37-19.54,6.44-4.72,8.38-4.8,13.18,1.46.33.43,1.57.71,1.97.44,6.53-4.4,13.51-8.32,19.35-13.52,8.64-7.69,17.06-15.81,24.48-24.66,9.38-11.18,17.73-23.23,26.4-35.01,5.05-6.86,9.48-14.21,14.85-20.8,5.96-7.33,12.53-14.2,19.1-21.01,4.44-4.6,9.12-9.05,14.14-12.99,2.03-1.59,5.67-2.86,7.86-2.13,3.41,1.15,5.58.09,8.41-1.15,2.98-1.31,6.68-3.41,8.89,1.68.26.6,2.58.9,3.6.5,18.86-7.49,38.53-9.24,58.55-8.2,3.84.2,7.73,1.32,11.4,2.58,3.52,1.2,5.92,3.89,5.9,7.87-.01,3.81,2.06,3.68,4.85,3.19,13.06-2.3,26.09-4.86,39.23-6.58,6.53-.85,8.99,2.66,7.98,9.09-.62,3.91.22,9.1-2,11.4-2.2,2.29-7.41,1.67-11.3,2.36-11.17,1.99-22.39,3.77-33.49,6.1-5.1,1.07-9.97,3.24-14.95,4.9-2.09.7-2.91,1.28-1.23,3.7,4.54,6.51,2.41,12.34-4.47,16.42-6.23,3.7-12.18,8.02-17.74,12.68-12.81,10.74-25.31,21.84-37.93,32.81-2.83,2.45-5.76,4.81-8.4,7.44-14.29,14.25-29.7,27.19-46.91,37.7-15.44,9.43-30.38,19.51-45.05,30.07-3.45,2.49-7.67,3.94-11.63,5.66-.67.29-1.81-.5-2.73-.8.71-1.82.89-4.37,2.22-5.34,3.49-2.53,7.65-4.12,11.22-6.56,7.31-5,14.24-10.57,21.64-15.43,8.19-5.39,16.91-9.98,25.07-15.43,7.13-4.76,13.99-9.98,20.6-15.45,11.85-9.82,23.47-19.91,35.07-30.02,7.15-6.23,13.9-12.92,21.16-19.01,9.77-8.21,18.19-18.14,30.19-23.61,1.63-.74,3.59-4.35,3.04-5.53-1.11-2.37-3.19-4.69-7.05-2.41-7.45,4.4-15.24,8.21-22.93,12.19-7.28,3.77-14.18,8.66-22.8,8.88-5.57.14-8.89-2.97-8.53-8.49.76-11.6,1.73-23.2,3.04-34.75.42-3.71,3.67-5.41,7.31-5.71,16.61-1.37,33.23-2.59,49.83-4.11,2.69-.24,5.32-1.58,7.89-2.62,1.07-.44,1.91-1.44,2.86-2.19-.95-1.03-1.72-2.58-2.9-3-2.78-.99-5.72-1.87-8.64-2.03-20.99-1.17-41.51,1.5-60.75,10.14-6.08,2.73-11.06,7.94-16.49,12.09-3.44,2.63-6.69,5.51-10.2,8.03-.71.51-2.21-.08-3.35-.17.38-1.16.41-2.7,1.2-3.41,5.9-5.34,11.91-10.56,17.97-15.73,1.67-1.42,3.69-2.42,5.39-3.83.79-.66,1.19-1.8,1.76-2.72-1.24-.08-2.78-.69-3.65-.16-4.16,2.51-8.64,4.82-12.07,8.16-5.83,5.67-10.91,12.1-16.43,18.1-.75.81-2.22.95-3.36,1.39-.39-1.26-1.51-3.04-1.04-3.68,2.59-3.58,5.48-6.96,8.43-10.25,1.39-1.56,3.26-2.68,4.71-4.19.62-.65.72-1.8,1.05-2.72-1.02.27-2.38.22-3.01.88-5.94,6.16-11.89,12.32-17.56,18.72-3.59,4.05-6.71,8.51-10.05,13.29M914.5,340.09c7.1-1.33,14.25-2.46,21.29-4.06,6.33-1.44,13.41-1.35,17.93-7.23.97-1.26,1.38-2.95,2.05-4.44-1.8-.38-3.67-1.27-5.39-1.04-4.97.68-9.85,1.91-14.8,2.74-8.73,1.46-17.5,2.7-26.22,4.2-8.67,1.49-17.39,2.86-25.93,4.92-7.64,1.85-15.16,4.31-22.5,7.11-1.51.57-2.82,3.91-2.71,5.89.14,2.56,1.99,4.12,5.36,4.02,8.8-.27,17.24-1.73,25.57-4.65,8.01-2.81,16.24-5,25.37-7.47M852,351.59c-2.34-7.91.3-13.07,8.34-15.42.85-.25,1.46-1.35,2.18-2.06-1.14-.21-2.33-.74-3.4-.57-4.66.74-9.35,1.44-13.89,2.68-1.62.44-3.73,2.18-4.06,3.67-1.1,4.96-1.59,10.06-2.14,15.13-.47,4.35-1.14,8.74-.88,13.07.18,2.97.95,6.57,5.95,4.07,7.43-3.72,15.15-6.86,22.66-10.43,1.61-.77,2.84-2.33,4.24-3.52-1.99-.22-3.98-.45-5.97-.64-.1-.01-.22.29-.35.33-6.89,1.88-10.48.16-12.67-6.31Z"/>
  <path class="cls-1" d="M1206,674.09c31.99,3.71,63.61,1.31,95.17,2.02,9.7.22,19.39.79,29.08.95,24.86.42,49.72.96,74.58.96,25.36,0,50.72-.75,76.08-.86,12.19-.05,24.39.57,36.58.94,9.03.28,18.07.48,27.08,1.03,13.93.85,27.84,1.95,41.76,2.99.72.05,1.51.47,2.09.93,1.57,1.24,3.06,2.6,4.58,3.92-1.92.71-3.88,2.11-5.76,2.01-13.6-.79-27.17-2.02-40.76-2.84-9.35-.57-18.72-.72-28.08-1.04-10.19-.35-20.39-.79-30.58-.98-22.86-.41-45.72-.97-68.58-.95-26.03.02-52.05.75-78.08.86-12.86.05-25.72-.65-38.58-.92-18.03-.38-36.05-.72-54.08-.99-7.89-.12-15.82.49-23.66-.15-9.82-.8-19.56-2.6-29.35-3.85-6.21-.79-12.43-1.68-18.67-1.96-18.38-.84-36.78-1.4-55.17-2.06-9.53-.34-19.06-.63-28.58-1.01-6.7-.27-13.4-1.06-20.08-.91-22.23.47-44.44,1.29-66.67,1.92-13.69.39-27.42,1.36-41.07.78-9.89-.42-19.68-2.98-29.53-4.55-1.28-.2-2.61-.21-3.91-.22-9.89-.02-19.82-.53-29.66.13-10.32.69-20.56,2.58-30.85,3.83-4.17.51-8.38.91-12.58.99-21.03.41-42.06,1.24-63.08.84-12.64-.24-25.21-2.8-37.85-3.71-12.38-.89-24.2,2.93-35.98,6.02-13.47,3.52-26.73,7.83-40.05,11.92-6.19,1.9-12.22,4.38-18.47,6.07-4.11,1.11-8.46,1.65-12.73,1.84-17.42.8-34.59,3.25-51.6,7.04-3.69.82-7.43,1.75-11.17,1.86-1.9.05-3.85-1.62-5.78-2.52,1.55-1.11,2.96-2.85,4.67-3.22,10.29-2.21,20.62-4.31,31-6.03,6.49-1.07,13.12-1.25,19.65-2.11,11.17-1.47,22.52-1.26,33.46-4.87,20.11-6.64,40.23-13.37,60.7-18.73,10.15-2.66,21.27-4.13,31.61-3,22.27,2.44,44.49,4.41,66.88,3.56,16.1-.61,32.18-1.8,48.25-2.97,10.44-.76,20.86-1.77,31.25-3,15.81-1.87,31.04,1.94,46.56,3.67,15.2,1.7,30.74.37,46.13.37,7.83,0,15.67.12,23.5-.03,12.36-.23,24.72-.61,37.08-.98,9.2-.28,18.39-.93,27.58-.92,10.03.01,20.06.59,30.08.93,9.36.32,18.74.37,28.08,1.07,14.3,1.07,28.57,2.54,42.84,3.96,4.74.47,9.45,1.3,14.67,1.97Z"/>
  <path class="cls-1" d="M460,432.09c-4.38,6.7,1.1,11.59,2.58,16.8,1.58,5.55,4.69,10.72,7.46,15.87,4.13,7.7,5.14,16.17,5.78,24.55.53,6.96-.41,14.05-.91,21.06-.07.95-1.36,1.81-2.08,2.72-.95-.84-2.42-1.52-2.77-2.57-1.23-3.68-2.67-7.44-2.91-11.25-.32-5.05-2.38-9.06-5.33-12.83-.67-.85-1.63-1.48-2.45-2.22-.79,1.17-1.64,2.31-2.34,3.53-.6,1.05-1.04,2.2-1.55,3.3-.82-.99-1.91-1.86-2.42-3-1.72-3.82-.51-9.29,2.19-10.72,3.05-1.61,7.04.24,9.93,4.34,1.03,1.47,2.55,2.6,3.85,3.88,0-2.06.55-4.33-.13-6.14-1.66-4.46-3.98-8.68-5.87-13.06-2.43-5.66-4.6-11.43-7.07-17.07-.99-2.26-2.04-4.78-3.8-6.36-3.08-2.76-2.4-5.2-.51-7.99,4.55-6.73,4.67-7.02-2.47-9.79-11.46-4.46-21.37-11.2-29.62-20.13-14.04-15.21-23.12-33.23-28.54-53.14-.78-2.86-.8-6.08-2.18-8.57-1.2-2.16-3.6-3.97-5.89-5.13-4.8-2.43-10.03-4.02-14.76-6.57-3.28-1.77-5.27-2.27-6.99,1.71-5.4,12.46-13.83,22.55-24.65,30.69-1,.75-2.09,1.93-3.14,1.93-1.25,0-2.74-.85-3.63-1.79-.4-.42.07-2.32.72-2.96,3.99-3.89,8.79-7.11,12.11-11.48,5.48-7.21,10.17-15.04,14.86-22.82.74-1.23.27-3.86-.59-5.28-4.23-7.01-8.02-14.22-6.79-22.65,1.15-7.84-2.44-13.75-6.98-19.13-7.67-9.08-11.73-19.23-13.31-31.07-2.52-18.92,1.49-36.57,8.24-53.86,9.42-24.12,24.8-44.16,43.98-61.23,19.05-16.96,40.99-29.18,65.77-35.38,9.57-2.39,19.84-3.43,29.68-2.97,18.08.86,35.15,5.68,48.39,19.24,1.18,1.21,1.41,3.35,2.08,5.05-1.92-.29-4.41.09-5.68-.98-11.79-9.99-25.19-15.17-40.65-16.8-16.77-1.77-32.31,2-47.78,7.25-13.98,4.74-26.79,12.07-38.11,21.21-10.53,8.5-19.58,18.86-29.03,28.65-8.72,9.03-14.85,19.92-20.08,31.16-5.53,11.89-9.2,24.36-10.83,37.57-1.33,10.77-.83,21.23,2.45,31.29,1.88,5.77,6.11,10.78,9.3,16.12.56.94,1.16,1.86,1.77,2.77,3.89,5.8,3.66,5.55,8.83.69,8.55-8.06,19.11-10.53,30.52-9.31,1.58.17,2.91,2.64,4.35,4.05-1.53.6-3.06,1.7-4.59,1.7-9.14-.02-17.56,1.17-24.84,7.82-9.7,8.86-9.18,22.49-3.08,32.05,5.82,9.12,14.05,15.57,25.2,17.19,7.97,1.16,8.59,7.47,10.45,13.46,2.47,7.92,5.47,15.74,8.98,23.26,3.86,8.26,7.73,16.73,13.06,24.04,11.77,16.15,27.02,27.1,47.78,29.38,19.73,2.17,36.16-4.94,51.56-16.1,20.85-15.1,34.27-35.9,44.68-58.83,7.59-16.72,13.14-34.18,15.8-52.44.74-5.05,1.23-10.13,2.08-15.16.24-1.46,1.08-2.98,2.07-4.09.75-.83,2.42-1.64,3.26-1.33.81.3,1.6,2.1,1.51,3.16-.5,6.07-.59,12.29-2.06,18.14-3.59,14.28-7.32,28.57-11.99,42.52-5.66,16.88-14.39,32.3-24.98,46.64-8.37,11.33-18.24,21.19-29.7,29.32-15.45,10.97-32.66,16.23-51.75,15.18-2.09-.12-4.29,1.53-6.43,2.87Z"/>
  <path class="cls-1" d="M1200,811.09c21.36-.33,42.21-.61,63.07-1.03,9.36-.19,18.72-.65,28.08-.97,9.86-.34,19.72-.81,29.58-.97,24.85-.42,49.71-.87,74.57-.96,14.02-.05,28.05.56,42.07.95,9.36.26,18.72.65,28.08.99,9.36.33,18.74.36,28.07,1.07,13.96,1.06,27.9,2.55,41.84,3.94,12.78,1.27,25.58,2.46,38.33,4.04,11.17,1.39,22.3,3.19,33.41,5.05,1.43.24,2.61,1.94,3.9,2.97-1.48.64-3.04,1.95-4.44,1.81-7.77-.77-15.51-1.95-23.27-2.86-4.01-.47-8.06-.6-12.08-1.04-14.81-1.63-29.6-3.4-44.42-4.95-8.2-.85-16.43-1.58-24.67-1.98-11.18-.54-22.38-.7-33.57-1.06-9.36-.3-18.72-.67-28.08-.99-10.03-.34-20.05-.81-30.08-.97-26.19-.42-52.38-.83-78.57-.97-10.52-.06-21.05.59-31.58.94-9.19.31-18.38.72-27.58.98-13.69.39-27.38.68-41.07,1.02-13.53.33-27.05.9-40.58.93-11.53.02-23.07-.32-34.57-.99-20.94-1.21-41.61-4.11-61.92-9.71-7.3-2.01-15.1-2.21-22.68-3.23-24.31-3.27-48.77-2.02-73.15-1.84-14.09.1-28.17,1.72-42.24,2.88-9.6.79-19.18,1.84-28.75,2.99-12.99,1.55-25.95,3.27-38.92,4.98-12.31,1.62-24.6,3.42-36.92,4.97-14.13,1.77-28.27,3.38-42.42,5.01-3.85.44-7.72.87-11.58.98-14.69.42-29.38.65-44.07,1.05-8.2.22-16.53,1.74-24.55.73-12.77-1.62-25.94,1.38-38.39-3.7-8.56-3.48-17.35-6.37-25.96-9.73-3.87-1.51-7.69-3.28-11.22-5.44-1.61-.98-2.75-3.06-3.54-4.89-.38-.88.23-2.7,1.02-3.39.55-.48,2.59-.19,3.21.46,8.1,8.6,19.82,9.35,29.74,13.98,11.98,5.59,24.55,6.53,37.53,6.08,8.17-.28,16.39.97,24.57.8,19.56-.41,39.16-.57,58.64-2.12,17.27-1.37,34.4-4.5,51.6-6.79,12.97-1.72,25.94-3.41,38.92-4.99,11.77-1.43,23.54-2.79,35.33-3.99,14.1-1.44,28.2-2.93,42.34-3.96,13.53-.98,27.1-1.63,40.66-2,11.82-.33,23.68-.46,35.49.02,18.96.78,37.76,2.81,56.27,7.61,10.53,2.73,21.48,4.21,32.34,5.14,14.83,1.27,29.76,1.46,44.65,2.16,5.7.27,11.38.66,17.58.99Z"/>
  <path class="cls-1" d="M1011,379.09c-14.79,5.33-28.87,11.35-43.42,15.82-16.63,5.11-33.7,8.78-50.55,13.21-7.79,2.05-15.51,4.36-23.21,6.73-1.73.53-3.19,1.91-4.86,2.73-.95.47-2.06.58-3.1.86-.1-1.47-.84-3.72-.17-4.28,2.74-2.3,5.66-4.99,8.97-5.92,16.61-4.66,33.4-8.67,50.06-13.2,15.21-4.13,30.22-8.76,44.88-14.74,12.41-5.06,25.51-8.54,38.46-12.13,13.35-3.7,26.82-7.08,40.39-9.87,9.8-2.02,19.81-3.24,29.79-4.12,15.22-1.35,30.5-2.06,45.74-3.1,8.9-.61,17.77-1.56,26.67-1.94,19.22-.82,38.47-2.29,57.66-1.74,13.73.39,27.44,3.31,41.06,5.65,13.61,2.33,27.14,5.17,40.63,8.09,16.64,3.59,33.37,6.93,49.79,11.39,33,8.94,62.75,25.56,93.19,40.53,32.08,15.77,62.95,33.61,93.2,52.62,19.79,12.43,40.03,24.12,59.82,36.54,5.55,3.49,10.36,8.24,15.17,12.77,1.08,1.02,1.58,3.92.93,5.27-1.29,2.69-3.95,3.8-7,2.4-2.27-1.05-4.57-2.05-2.22-5.31.38-.52-.78-2.84-1.79-3.55-6.68-4.69-13.4-9.35-20.32-13.66-17.46-10.89-35-21.67-52.59-32.34-13.03-7.91-25.93-16.11-39.37-23.25-30.16-16.02-60.41-31.88-91.03-46.98-21.38-10.54-43.81-18.61-67.26-23.47-24.09-4.99-48.14-10.22-72.3-14.9-11.53-2.23-23.22-4.04-34.92-4.94-13.47-1.03-27.06-1.35-40.57-1.02-14.1.35-28.18,1.82-42.26,2.87-7.73.58-15.46,1.22-23.17,2-15.81,1.6-31.8,2.32-47.38,5.22-21.61,4.03-42.91,9.72-64.35,14.71-1.36.32-2.7.7-4.55,1.05Z"/>
  <path class="cls-1" d="M1517,248.09c14.61,7.78,28.78,15.45,42.82,23.36,18.05,10.17,36.53,19.61,52.06,33.79,6.88,6.28,15.02,11.17,22.37,16.96,1.05.83,1.64,3.6,1.06,4.82-1.04,2.19-3.28,3.17-5.65,1.22-3.98-3.28-8-6.52-11.89-9.91-14.03-12.19-28.41-23.73-45.08-32.37-19.12-9.91-37.24-21.86-56.7-30.97-21.58-10.11-42.65-21.67-65.8-28.22-22.28-6.3-44.01-14.74-67.17-17.68-5.72-.73-11.43-1.73-17.17-1.93-15.69-.55-31.39-.99-47.08-1-15.03,0-30.13-.23-45.06,1.16-14.26,1.33-28.55,3.79-42.45,7.24-29.54,7.33-58.92,15.33-88.19,23.66-12.43,3.54-24.53,8.32-36.6,13-14.78,5.73-29.82,11.07-43.94,18.19-17.03,8.59-33.09,19.08-49.8,28.33-9.44,5.22-19.47,9.37-28.98,14.46-3.33,1.78-5.89,4.97-8.85,7.46-.7.59-1.74,1.44-2.36,1.27-.67-.19-1.33-1.4-1.47-2.26-.8-4.65,1.19-7.69,5.46-9.65,7.15-3.29,14.37-6.47,21.23-10.29,12.9-7.18,25.4-15.07,38.36-22.12,12.07-6.55,24.33-12.82,36.87-18.41,12.78-5.71,25.84-10.91,39.07-15.49,16.35-5.66,32.98-10.57,49.55-15.59,12.02-3.64,24.09-7.11,36.23-10.29,14.46-3.79,29.08-7,43.54-10.8,17.07-4.48,34.42-5.12,51.94-5.04,16.53.08,33.06-.77,49.59-.84,10.03-.05,20.18-.27,30.06,1.14,14.11,2.01,28.23,4.69,41.97,8.44,18.78,5.12,37.31,11.21,55.74,17.49,7.69,2.62,14.82,6.84,22.25,10.24,7.84,3.6,15.73,7.08,24.1,10.62Z"/>
  <path class="cls-1" d="M306,832.09c-3.7,24.3-1.91,48.28-1.77,72.17.07,12.95,2.11,25.94,3.86,38.83,1.94,14.25,4.07,28.52,7.04,42.58,3.47,16.45,7.93,32.69,11.97,49.02.26,1.05.65,2.07.89,3.13,1.23,5.45,1.92,5.16,6.98,4.48,6.1-.82,12.4-.06,18.61-.14,8.49-.12,17.06.24,25.46-.74,17.57-2.05,34.09-8.79,51.36-12.32,18.28-3.74,36.75-4.54,55.34-4.03,8.66.23,17.33-.05,26,.09,2.9.05,6.33-.36,7.38,3.6.29,1.09.66,2.51.2,3.33-.39.68-1.95,1.02-2.97.97-4.7-.21-9.39-.86-14.09-.9-15.5-.12-31.02-.51-46.49.13-9.32.39-18.66,2.04-27.82,3.94-10.34,2.15-20.58,4.88-30.68,7.96-13.9,4.25-28.07,5.31-42.45,4.89-4.04-.12-8.12-.32-12.07-1.05-4.05-.75-6.88,1.71-8.69,4.04-1.24,1.58-.32,5.32.41,7.88,1.6,5.63,3.73,11.11,5.52,16.7.3.93-.05,2.06-.1,3.1-1.35-.11-3.08.26-3.97-.44-1.28-1-2.36-2.66-2.83-4.24-6.09-20.15-12.63-40.19-17.88-60.57-4.22-16.39-7.11-33.14-10.09-49.82-2.13-11.89-3.67-23.91-5.01-35.92-1.06-9.51-1.64-19.1-2.03-28.66-.55-13.35-1.49-26.76-.83-40.07.63-12.69,2.75-25.36,4.88-37.92,2.22-13.14,4.83-26.24,8.01-39.17,3.52-14.29,7.75-28.42,11.92-42.54,8.23-27.91,16.33-55.87,25.08-83.61,5.38-17.04,11.78-33.77,18.04-50.52.67-1.79,3.5-2.77,5.32-4.13.17,1.98.99,4.18.42,5.91-3.55,10.68-7.62,21.18-11.12,31.88-5.43,16.6-10.58,33.29-15.76,49.97-4.13,13.29-8.18,26.61-12.2,39.94-5.63,18.67-11.84,37.2-16.6,56.09-3.69,14.64-5.53,29.74-8.24,44.63-.07.4-.63.72-.97,1.58Z"/>
  <path class="cls-1" d="M498.25,796.84c-1.58-11.03-2.91-21.81-4.25-32.59-1.32-10.61-2.44-21.26-4.06-31.83-1.5-9.8-3.55-19.51-5.36-29.26-1.52-8.2-3.06-16.4-4.58-24.6-2.13-11.45-4.35-22.88-6.33-34.36-1.11-6.43-1.71-12.94-2.69-19.4-1.52-10.02-2.9-20.06-4.83-30-3.18-16.46-6.69-32.86-10.18-49.26-2.01-9.47-4.23-18.9-6.38-28.35-.14-.6-.69-1.25-.55-1.73.54-1.83,1.29-3.59,1.96-5.38,1.33,1.33,3.48,2.45,3.86,4.01,2.58,10.8,4.75,21.71,7.14,32.56,3.03,13.73,6.25,27.42,9.18,41.18,1.51,7.09,2.64,14.27,3.79,21.43,1.74,10.79,3.27,21.62,5.04,32.41,1.9,11.52,3.87,23.03,6,34.51,2.21,11.89,4.85,23.7,6.91,35.61,1.65,9.56,2.61,19.23,4.1,28.82,1.5,9.67,3.47,19.27,4.86,28.95,1.01,7,1.33,14.1,2.12,21.14,1.25,11.12,2.7,22.22,3.95,33.34.51,4.51.81,9.05,1.01,13.58.41,9.36.54,18.73,1.06,28.08.88,15.92,1.91,31.84,2.99,47.75.53,7.9,1.11,15.8,2.02,23.66,1.5,12.99,3.33,25.94,4.94,38.93,1.08,8.74,1.94,17.51,3.04,26.25.88,6.93,2.17,13.82,2.84,20.77.17,1.79-1.26,3.74-1.95,5.62-1.06-1.11-2.68-2.06-3.08-3.38-1.2-4.04-2.18-8.17-2.8-12.34-2.12-14.32-4.17-28.65-5.99-43.01-.96-7.52-1.48-15.1-2.03-22.66-1.07-14.58-1.99-29.17-3.03-43.74-.6-8.39-1.45-16.77-1.96-25.17-.78-12.88-1.19-25.78-2.08-38.66-.73-10.6-1.91-21.17-2.97-31.75-.36-3.64-.98-7.25-1.73-11.13Z"/>
  <path class="cls-1" d="M177,864.09c-.33-14.19-.64-27.87-1.01-41.56-.29-10.69-.62-21.38-1-32.06-.27-7.53-.93-15.05-.91-22.57.02-8.91.72-17.82.89-26.74.17-8.38.17-16.77,0-25.15-.17-8.58-1.06-17.17-.87-25.74.3-13.39,1.24-26.77,1.9-40.15.35-7.02.32-14.09,1.08-21.06,1.4-12.83,3.15-25.63,4.96-38.4,1.11-7.81,2.51-15.58,4.04-23.32.36-1.85,1.64-3.57,2.79-5.15.14-.19,2.24.78,3.15,1.55.48.41.58,1.57.46,2.34-1.79,11.41-3.31,22.87-5.55,34.18-3.34,16.81-2.98,33.85-4.15,50.81-3.56,51.52-.87,103.07-1.7,154.59-.17,10.68.58,21.38.93,32.06.32,9.69.55,19.38,1.03,29.06.53,10.72,1.41,21.43,1.85,32.16.07,1.64-1.46,3.34-2.24,5.01-1.21-1.57-3.35-3.06-3.49-4.72-.95-11.53-1.48-23.09-2.15-35.14Z"/>
  <path class="cls-1" d="M332.25,370.84c6.86,3.19,13.76,5.62,20.02,9.18,15.01,8.52,29.83,17.37,44.51,26.44,13.31,8.23,27.07,15.85,38.25,27.12,7.86,7.93,11.68,17.3,12.1,28.52.38,10.1,1.98,20.15,2.77,30.25.15,1.86-.99,3.82-1.53,5.74-1.46-1.36-3.88-2.53-4.2-4.12-1.11-5.63-1.61-11.4-2.15-17.13-.76-8.04-.42-16.34-2.35-24.07-1.3-5.17-5.17-10.08-8.9-14.19-9.06-9.98-20.74-16.62-32.16-23.5-16.93-10.2-33.63-20.8-50.85-30.48-8.4-4.72-17.69-7.9-26.71-11.44-4.45-1.75-9.15-2.91-13.81-4.03-8.15-1.97-12.21.04-16.4,7.61-3.23,5.83-6.42,11.69-9.93,17.35-.86,1.38-2.91,2.01-4.42,2.98-.49-1.79-1.97-4.13-1.33-5.29,4.38-7.89,8.83-15.79,13.99-23.17,5.81-8.3,14.13-8.11,22.78-5.08,6.69,2.35,13.37,4.71,20.31,7.31Z"/>
  <path class="cls-1" d="M186.75,935.34c-2.02-6.35-4.05-12.39-5.37-18.58-.35-1.65,1.47-3.77,2.29-5.67,1.44,1.38,3.85,2.56,4.18,4.17,4.83,23.29,13.19,45.43,21.45,67.61,7.15,19.19,14.43,38.34,21.71,57.48,3.94,10.36,7.94,20.7,12.06,30.99.51,1.28,1.77,2.48,2.99,3.22,4.39,2.66,2.89,6.22.73,8.8-.98,1.16-4.33.57-6.57.37-2.49-.22-5.19-.41-7.34-1.51-1.65-.84-2.58-3.06-3.84-4.67,1.92-.39,3.83-.85,5.77-1.14,1.11-.16,2.27-.04,3.41-.04-.18-1.04-.2-2.14-.57-3.11-2.84-7.48-5.73-14.95-8.67-22.4-.52-1.33-1.38-2.52-2.08-3.78-.63,1.49-1.82,3-1.8,4.48.16,10.19.62,20.38.87,30.57.05,1.94.91,4.92-2.39,4.83-2.99-.08-3.64-2.47-3.62-5.28.11-11.83.61-23.69-.16-35.47-.46-6.99,2.68-13.97-.69-20.98-3-6.22-5.29-12.8-7.7-19.29-5.85-15.74-11.74-31.46-17.33-47.29-2.68-7.57-4.73-15.37-7.31-23.32Z"/>
  <path class="cls-1" d="M230,1124.09c0-4.89-.65-9.41.17-13.63,1.01-5.19,5.69-6.68,9.87-3.76.86.6,1.32,1.75,1.97,2.65-.88.58-1.69,1.47-2.65,1.69-3.71.82-4.78,3.07-4.38,6.66,1.42,12.93,3.14,25.85,3.91,38.83.85,14.16,2.13,28.5.84,42.54-2.91,31.73-1.19,63.45-1.6,95.16-.12,9.38,1.09,18.78,2,28.15.15,1.5,1.87,2.86,2.92,4.25.95,1.26,3.05,3.05,2.76,3.58-.85,1.57-2.49,3.35-4.1,3.69-1.53.32-4.12-.6-4.99-1.85-1.43-2.08-2.09-4.8-2.65-7.34-.61-2.8-.99-5.7-1.02-8.57-.4-32.85-.98-65.7-.93-98.55.03-17.05,1.91-34.11,1.66-51.15-.19-12.79-2.45-25.56-3.76-38.33-.12-1.15-.02-2.33-.02-3.99Z"/>
  <path class="cls-1" d="M184,532.09c7.9-24.35,21.58-44.93,36.37-64.92,7.7-10.42,14.6-21.47,22.8-31.47,6.15-7.51,13.77-13.81,20.77-20.61,2.83-2.75,5.65-5.52,8.68-8.04,1.92-1.6,4.34-3.56,6.39-.29.59.93.42,3.31-.32,3.96-7.32,6.29-15.3,11.87-22.15,18.62-5.77,5.69-10.54,12.46-15.29,19.09-10.19,14.22-20.18,28.59-30.07,43.02-12.57,18.34-20.86,38.49-26.41,60.06-3.33,12.95-5.42,25.93-6.88,39.13-.21,1.9-2.15,5.26-2.88,5.16-2.86-.42-3.2-3.03-3.04-5.71.9-14.58,3.48-28.87,7.46-42.91,1.39-4.91,3.04-9.74,4.57-15.1Z"/>
  <path class="cls-1" d="M319,418.09c-8.02-7.66-18.35-9.85-27.68-13.99-.98-.44-2.35-.52-2.93-1.25-1-1.27-1.52-2.92-2.23-4.41,1.71-.19,3.52-.84,5.1-.49,17.74,3.91,31.55,15.16,46.08,25.02,13.79,9.36,27.96,18.25,41.14,28.41,12.67,9.77,26.24,19.01,33.57,34.19.35.72,1.6,1.5,2.29,1.39.65-.1,1.48-1.31,1.59-2.12.95-7.3,7.27-9.67,12.21-13.19.89-.63,2.86.25,4.33.43-.36,1.37-.31,3.11-1.15,4.05-3.09,3.44-6.81,6.36-9.64,9.99-1.83,2.34-2.33,5.67-3.76,8.39-.74,1.4-2.21,3.37-3.33,3.36-1.55-.02-3.6-1.32-4.51-2.69-4.29-6.5-7.77-13.6-12.53-19.71-3.3-4.23-8.11-7.35-12.45-10.7-9.56-7.4-19.05-14.91-28.93-21.86-10.76-7.57-21.94-14.55-32.91-21.82-1.33-.88-2.51-1.99-4.27-2.99Z"/>
  <path class="cls-1" d="M547,1152.09c-5.48-14.52-8.03-29.02-6.97-44.09.11-1.54.32-3.23,1.02-4.56,4.09-7.7,3.61-16.09,3.95-24.36.33-8.19.64-16.39,1.01-24.58.16-3.52,4.51-6.93,8.2-6.35.98.15,1.86,1.01,2.79,1.54-.5.8-.83,2.08-1.51,2.31-4.29,1.41-3.36,4.87-3.52,8.04-.6,12.39-1.28,24.78-2.01,37.16-.09,1.54-.39,3.17-1.01,4.57-6.72,15.28-1.84,29.82,2.62,44.45,3.93,12.89,8.1,25.72,11.26,38.8,2.45,10.12,3.55,20.57,5.07,30.9.18,1.23-.77,2.64-1.19,3.96-1.16-.67-3.03-1.11-3.35-2.06-1.67-4.99-3.53-10.03-4.27-15.21-2.31-16.16-4.55-32.3-10.71-47.58-.34-.85-.92-1.61-1.4-2.92Z"/>
  <path class="cls-1" d="M581.25,444.34c7.64-1.31,15.04-2.29,22.41-3.44,7.65-1.19,15.27-2.53,22.9-3.81,12.61-2.11,25.15-4.42,36.87-9.91,1.4-.66,3.39-.07,5.11-.05-.52,1.49-.61,3.82-1.62,4.33-4.94,2.48-9.94,5.33-15.26,6.47-14.61,3.14-29.43,5.34-44.1,8.21-12.43,2.43-24.67,6.33-37.19,7.66-12.57,1.33-25.4.44-38.11.2-3.73-.07-7.51-1.02-11.13-2.03-1.25-.35-2.1-2.12-3.13-3.24,1.41-.54,2.88-1.65,4.23-1.53,4.74.41,9.43,1.66,14.17,1.82,15.04.51,30.08.57,44.85-4.67Z"/>
  <path class="cls-1" d="M577.25,165.84c-6.17-13.16-14.5-23.74-28.53-28.39-2.51-.83-4.75-1.64-3.49-4.26.59-1.22,4.14-2.29,5.45-1.64,5.28,2.62,10.75,5.31,15.17,9.11,13.15,11.29,20.23,26.16,24.26,42.85,2.28,9.43,5.65,18.61,8.69,27.86,3.08,9.37,9.57,15.85,17.89,20.81,1.27.75,1.89,2.58,2.81,3.92-1.61.39-3.2.99-4.83,1.1-.99.07-2.12-.48-3.04-1-11.8-6.82-17.77-17.89-21.59-30.33-3.9-12.73-7.43-25.57-11.17-38.34-.17-.56-.9-.95-1.62-1.67Z"/>
  <path class="cls-1" d="M455,192.09c2.67-8.39,4.74-16.55,8.17-24.09,3.48-7.67,8.19-14.99,15.83-19.28,10.16-5.71,19.34-2.98,25.17,7.17.77,1.33.38,3.32.53,5.01-1.59-.46-3.88-.41-4.64-1.46-3.38-4.69-7.26-8.45-13.43-7.25-6.25,1.23-10.25,6.08-13.53,10.99-7.04,10.53-10.89,22.16-12.33,34.91-.92,8.16-.7,15.94,1.28,23.75.75,2.98,2.1,5.8,2.9,8.77.34,1.27-.03,2.73-.07,4.1-1.37-.46-3.14-.52-4.05-1.44-4.37-4.39-5.32-10.32-5.69-16.04-.52-8.18-.13-16.43-.13-25.14Z"/>
  <path class="cls-1" d="M424,1259.09c.33,3.36.98,6.23.86,9.08-.05,1.34-1.56,2.62-2.41,3.92-1.15-1-3.01-1.82-3.32-3.04-1.02-3.97-1.59-8.06-2.11-12.14-1.73-13.46-3.56-26.92-4.94-40.42-.78-7.65-.71-15.38-1.09-23.07-.27-5.53-.74-11.05-.93-16.58-.05-1.52.2-3.35,1.04-4.51,1.21-1.67,3.15-4.07,4.69-4.01,4.31.19,1.03,3.29,1.14,5.03.51,7.74.75,15.49,1.07,23.24.04,1-.07,2.01.02,3,1.32,14.94,2.6,29.89,4.02,44.83.45,4.74,1.3,9.45,1.97,14.67Z"/>
  <path class="cls-1" d="M415.25,1157.84c.42,1.35.99,2.6.65,3.5-.52,1.38-1.68,2.51-2.56,3.75-1.45-1.2-3.98-2.27-4.15-3.64-.77-5.96-1.18-12.02-1.13-18.03.2-25.66.6-51.31.98-76.97.02-1.53.33-3.22,1.06-4.52.5-.89,2.09-1.84,2.96-1.66.81.17,1.8,1.78,1.85,2.8.21,4.15.09,8.32.09,12.48,0,12.15.13,24.3-.04,36.44-.16,11.68-.73,23.35-.9,35.04-.05,3.52.61,7.05,1.19,10.82Z"/>
  <path class="cls-1" d="M497.75,276.34c-1.12,6.13-.67,12.39-4.2,17.83-2.35,3.61-4.8,6.22-9.46,5.95-4.92-.28-7.17-4.14-7.85-7.65-1.42-7.36-1.36-14.87,3.37-21.53,3.55-5,7.47-7.51,11.39-5.72,3.99,1.82,6.09,5.47,6.03,10.09,0,.26.31.53.73,1.04Z"/>
  <path class="cls-1" d="M417.25,190.34c-.58,5.6-1.26,10.96-1.18,16.31.19,13.37,2.76,26.2,9.8,37.85,1.19,1.98,2.28,4.05,3.12,6.19.34.87-.09,2.05-.17,3.09-1.14-.26-2.55-.17-3.36-.83-6.13-4.99-9.01-12.06-11.25-19.26-3.6-11.59-5.16-23.6-4.09-35.69.81-9.15,2.69-18.34,8.04-26.04,2.36-3.39,6.36-5.71,9.83-8.22,1.02-.74,2.88-.86,4.16-.53,1.09.29,2.11,1.53,2.71,2.6.17.31-1.08,1.96-1.91,2.21-11,3.31-12.89,12.91-15.71,22.32Z"/>
  <path class="cls-1" d="M547.75,279.84c1.38-5.76,4.52-8.49,8.96-8.84,3.9-.31,4.99,2.33,6.26,4.87,3.76,7.47,1.06,23.55-3.57,28.35-4.49,4.66-10.54,3.88-11.86-2.35-1.23-5.82-.62-12.03-.72-18.07-.02-1.23.43-2.47.92-3.95Z"/>
  <path class="cls-1" d="M302,1124.09c-5.83,2.98-10.96,6.63-17.5,5.91-1.23-.14-2.33-1.5-3.5-2.3,1.09-.87,2.11-2.37,3.28-2.51,7.94-.92,13.81-6.17,20.59-9.49,11.92-5.83,23.74-11.88,35.73-17.55,5.7-2.69,11.69-4.76,17.58-7.04,1.3-.5,2.9-1.26,4.03-.89,1.74.57,3.2,2.02,4.78,3.09-1.23,1.26-2.32,3.42-3.71,3.63-11.99,1.85-22.44,7.91-33.43,12.31-8.85,3.55-17.09,8.63-25.57,13.09-.7.37-1.19,1.15-2.28,1.74Z"/>
  <path class="cls-1" d="M541.25,201.84c-3.31-12.57-5.39-25.18-11.25-36.65-2.48-4.85-4.7-9.88-11.7-9.26-1,.09-2.2-1.94-3.3-2.99,1.2-.95,2.33-2.61,3.61-2.74,6.69-.64,9.7,1.32,14.39,8.35,6.78,10.17,8.99,21.97,11.99,33.49,2.29,8.81,4.87,17.46,11.56,24.21.96.97,1.12,2.73,1.65,4.12-1.92-.12-4.79.52-5.6-.48-3.53-4.38-6.51-9.22-9.57-13.96-.73-1.14-1.03-2.56-1.78-4.1Z"/>
  <path class="cls-1" d="M520.75,377.84c-10.61,4.1-21.33,6.16-32.08,3.02-4.43-1.29-8.25-4.94-12.06-7.88-.84-.65-.47-2.86-.66-4.35,1.8.1,4.44-.52,5.27.43,5.61,6.42,13,7.56,20.64,6.9,9.1-.78,17.71-3.45,25.12-9.26,1.25-.98,3.15-1.35,4.81-1.53.93-.1,1.97.75,2.96,1.17-.43.92-.61,2.19-1.33,2.71-4.07,2.94-8.28,5.71-12.68,8.78Z"/>
  <path class="cls-1" d="M523.75,307.34c5.97,2.96,9.6,6.89,9.31,13.8-.29,6.87-7.53,15.15-14.69,15.9-3.18.33-6.49.43-9.61-.11-1.42-.25-2.52-2.31-3.76-3.54,1.36-.76,2.71-2.16,4.08-2.18,5.54-.08,11.19.12,14.94-4.8,1.47-1.93,3.23-5.52,2.41-6.91-1.58-2.68-4.65-4.92-7.59-6.2-2.23-.98-5.26.02-7.88-.28-1.37-.15-2.64-1.2-3.95-1.84,1.12-1.36,2.13-3.75,3.39-3.89,4.32-.49,8.73-.19,13.36.06Z"/>
  <path class="cls-1" d="M729,509.09c.68,1.16,1.44,2.8.94,3.4-5.86,7.06-10.47,15.02-18.65,20.32-4.79,3.1-7.58,9.29-11.3,14.07-1.19,1.53-2.23,3.38-3.8,4.33-1.49.9-3.57.82-5.4,1.18.29-1.82.02-4.05.98-5.39,3.01-4.17,6.34-8.13,9.82-11.92,3.57-3.91,7.59-7.4,11.16-11.31,3.7-4.04,6.95-8.49,10.71-12.48,1.16-1.22,3.33-1.49,5.53-2.19Z"/>
  <path class="cls-1" d="M561.25,252.84c3.97,3.97,7.82,7.57,11.28,11.51.62.71-.35,2.83-.59,4.3-1.25-.29-2.7-.29-3.7-.95-.98-.65-1.55-1.95-2.23-3-5.19-8.05-16.68-9.46-21.84-2.28-.19.27-.44.64-.7.68-1.71.31-3.85,1.3-5.08.64-2.9-1.55-.74-3.57.52-4.98,6.01-6.77,13.15-9.8,22.35-5.92Z"/>
  <path class="cls-1" d="M499.25,241.84c4.18,2.16,7.91,4.29,7.7,9.46-.05,1.18-.76,2.33-1.16,3.5-1.04-.52-2.32-.8-3.08-1.58-3.87-4.05-7.69-8.51-14.04-7.01-3.69.87-7.06,3.04-10.69,4.31-1.68.59-3.62.43-5.45.61.47-1.83.45-4,1.48-5.41,4.41-6.04,17.9-7.35,25.23-3.87Z"/>
  <path class="cls-1" d="M366.25,293.34c3.61-2.73,5.77-.35,8.15,1.6,1.92,1.56,4.04,3.8,4.77-1.18.2-1.37,2.37-2.45,3.64-3.67.73,1.39,2.11,2.79,2.09,4.17-.08,6.35-.39,12.71-1.02,19.03-.14,1.36-1.97,2.54-3.03,3.8-.95-1.2-2.81-2.52-2.69-3.6.75-6.44-2.56-10.13-7.48-13.45-2.07-1.4-3.14-4.26-4.42-6.7Z"/>
  <path class="cls-1" d="M256.75,1101.34c-2.35-4.02-4.85-7.64-6.34-11.63-.52-1.4,1.41-3.72,2.23-5.62,1.35,1.06,3.47,1.87,3.92,3.23,2.08,6.3,5.49,11.58,10.23,16.18,1.23,1.19,1.69,3.18,2.5,4.8-2.81-.29-5.94.08-8.33-1.07-1.8-.87-2.67-3.69-4.21-5.89Z"/>
  <path class="cls-1" d="M578.75,233.84c2.35-2.99,4.36-1.91,5.71.29,3.22,5.29,8.06,7.99,13.68,10.11,2.5.94,7.06,1.42,5.55,5.93-.23.7-4.96.65-7.16-.21-7.42-2.9-14.79-6.15-18.28-14.19-.19-.44.16-1.12.51-1.93Z"/>
  <path class="cls-1" d="M337.75,1093.84c-2.75-1.59-5.43-3.24-7.65-5.37-.66-.64-.56-3.07.12-3.84.73-.81,2.77-1.17,3.9-.78,3.52,1.22,5.28,6.07,3.62,9.99Z"/>
</svg>