<?xml version="1.0" encoding="UTF-8"?>
<svg id="Contours" xmlns="http://www.w3.org/2000/svg" viewBox="0 0 446.85 781.5">
  <defs>
    <style>
      .cls-1 {
        fill: #3f3f3f;
        stroke-width: 0px;
      }
    </style>
  </defs>
  <path class="cls-1" d="M209.44,579.28c4.19,2.1,8.06,4.79,12.34,5.82,5.82,1.41,9.89,5.59,15.08,7.84,5.49,2.37,10.39,6.4,16.59,6.78,2.35.15,4.93-.66,7.13-1.65,3.94-1.78,7.79-3.85,11.43-6.17,1.2-.77,2.38-2.71,2.36-4.09-.11-7.15,1.38-14.07,2.36-21.07.64-4.57.78-9.21,1.2-13.81.73-7.98,1.64-15.94,2.24-23.93.62-8.28,3.09-16.36,2.4-24.78-.14-1.69.5-3.58,1.24-5.16.35-.74,2.12-1.56,2.7-1.27.98.5,2.24,1.91,2.16,2.83-.76,8.01-1.85,15.99-2.73,23.98-.49,4.5-.76,9.02-1.17,13.53-.74,8.07-1.48,16.14-2.3,24.21-.5,4.92-1.14,9.82-1.7,14.73-.21,1.82-.44,3.65-.54,5.48-.03.57.36,1.17.56,1.75.47-.3.99-.54,1.41-.9,5.35-4.57,10.55-9.35,16.09-13.67,3.45-2.69,7.49-4.29,12.06-4.7,4.73-.42,8.3,1.58,11.21,4.69,5.52,5.9,10.7,12.12,16.02,18.2,1.35,1.54,2.73,3.05,4.04,4.62,4.29,5.14,4.01,12.09,1.16,17.3-.54.99-.43,2.76.08,3.82,1.19,2.47,2.05,4.83.78,7.5-1.48,3.1-2.81,6.3-4.53,9.26-.73,1.26-2.32,2.02-3.49,3.05-.7.62-1.67,1.2-1.94,2-1.85,5.38-6,9.17-9.12,13.67-1.28,1.85-2.68,3.31-4.97,3.83-.62.14-1.41.68-1.64,1.23-2.25,5.49-6.81,7.8-12.15,9.29-4.67,1.3-9.81,1.23-13.88,4.46-.3.23-.92.06-1.39.08-4.65.16-5.33.67-3.96,4.78,1.05,3.14,2.98,6.02,4.78,8.86.55.87,1.92,1.22,2.92,1.8,1.23.7,2.68,1.17,3.67,2.12,4.18,4.01,8.09,8.31,12.38,12.21,3.58,3.26,7.43,6.28,11.37,9.1,4.96,3.54,9.81,7.52,15.31,9.96,6.66,2.95,13.86,4.9,21,6.51,6.12,1.38,12.49,1.68,18.75,2.4,2.8.32,3.02,1.96,3.28,4.67.51,5.23-3.61,6.98-6.14,9.93-3.54,4.11-6.86,8.53-10.97,11.99-8.97,7.55-16.79,16.57-27.44,22.01-8.07,4.12-16.53,6.5-25.72,7.06-7.28.44-13.81-1.55-20.31-3.88-6.78-2.43-13.27-5.68-19.97-8.38-13.44-5.4-25.15-13.87-37.62-21-5.82-3.33-11.96-6.1-17.89-9.25-8.83-4.68-17.19-10.07-24.95-16.42-3.33-2.72-7.12-4.86-10.66-7.34-2.31-1.61-4.83-3.07-6.72-5.1-4.62-4.99-10.34-8.46-15.82-12.28-1.56-1.09-3.4-2.02-4.52-3.48-3.47-4.53-8.8-5.34-13.53-7.46-5.78-2.59-11.68-4.94-16.37-9.59-2.51-2.49-5.85-4.15-8.84-6.14-6.46-4.31-10.76-10.3-13.66-17.4-.9-2.2-1.81-4.4-2.89-6.52-.4-.8-1.28-1.36-1.94-2.03-.11.84-.26,1.68-.31,2.52-.21,3.57-.09,7.2-.65,10.71-.76,4.7-3.43,6-7.65,3.87-2.39-1.21-4.76-2.66-6.69-4.48-2.54-2.41-4.91-5.1-6.86-8-1.96-2.91-3.24-6.27-4.95-9.36-1.85-3.34-4.44-6.41-5.61-9.96-.9-2.76-.49-6.14.02-9.12.68-3.94-1.14-8.06-4.88-9.33-8.54-2.91-16.87-6.38-24.6-10.96-8.24-4.88-13.89-12.41-18.12-20.85-3.53-7.05-5.99-14.49-6.38-22.52-.46-9.77-1.26-19.53-1.63-29.31-.17-4.48,1.12-9.14.29-13.44-.84-4.33,1.62-6.47,3.79-8.89.68-.76,3.42-.81,4.26-.08,8.38,7.21,17.47,13.24,27.38,18.18,6.79,3.38,13.64,6.1,21.25,6.69,1.83.14,2.45-.5,2.46-2.39.05-12.25,2.55-24.05,6.19-35.72,1.49-4.77,2.15-9.84,2.87-14.82.94-6.42,1.64-12.89,2.31-19.35.5-4.88.66-9.8,1.2-14.67.59-5.24,1.48-10.44,2.18-15.66.29-2.19.43-4.4.64-6.6.57-5.86,1.03-11.74,1.78-17.58.24-1.89,1.43-3.61,3.79-2.99,2.05.54,2.09,2.1,1.63,3.97-.5,2.02-.71,4.13-.89,6.21-.44,5.08-.63,10.18-1.2,15.24-.81,7.15-1.94,14.26-2.79,21.41-.52,4.4-.73,8.83-1.18,13.24-.72,7.03-1.04,14.14-2.39,21.04-1.91,9.78-4.62,19.41-6.93,29.12-.46,1.93-.79,3.92-.93,5.9-.29,4.11-.41,8.23-.6,12.34-.06,1.3.01,2.16,1.79,2.5,3.96.76,7.77,1.27,11.91.65,3.81-.57,7.83.43,11.75.35,3.73-.08,7.18.78,10.75,1.66,4.54,1.12,8.35-1.65,12.04-3.86,3.14-1.88,4.29-1.72,6.11,1.43.54.93,1.19,1.99,2.07,2.5,6.9,4.01,13.87,7.9,20.83,11.81,6.49,3.65,12.93,7.39,19.51,10.89,7.87,4.19,15.89,8.1,23.79,12.25,3.54,1.85,6.89,4.05,10.41,5.95,2.41,1.3,4.95,2.32,7.57,3.61M296.21,691.78c-1.07-.88-2-2.14-3.22-2.56-5.77-1.96-8.88-6.06-10.64-11.71-.41-1.31-2.25-2.6-3.7-3.08-3.3-1.07-6.81-1.49-10.16-2.41-12.99-3.58-26-7.11-38.93-10.93-14.93-4.4-29.79-9.04-44.65-13.66-4.12-1.28-8.28-2.58-12.18-4.39-2.86-1.32-5.34-3.03-8.79-1.99-1.15.34-2.75-.53-4.06-1.04-2.21-.87-4.35-1.92-6.54-2.84-4.23-1.78-9.06-2.3-12.45-5.83-5.88-6.12-8.35-13.91-9.79-21.92-1-5.54-.81-11.29-1.28-16.94-.48-5.68-.76-11.41-1.79-17-1.16-6.24-3.45-11.43-12.28-10.91-8.15.48-16.3,1.11-24.45,1.7-4.78.35-8.79,2.01-10.8,6.77-.22.52-.32,1.25-.11,1.71.13.27.98.28,1.51.28,4.96-.04,9.93-.33,14.87-.03,1.17.07,3.11,2.06,3.12,3.18.02,1.62-1.71,2.69-3.72,2.4-1.63-.24-3.27-.58-4.91-.55-5.35.1-10.71.28-16.05.6-1.07.06-2.59.62-3.03,1.42-1.4,2.53-2.48,5.26-3.41,8-.13.4,1.28,1.93,1.82,1.86,8.58-1.23,17.1-.32,25.59.78,1.04.13,2.55,1.81,2.62,2.87.11,1.48-1.21,2.29-3.08,2.21-7.06-.32-14.13-.47-21.2-.61-4.04-.08-6.28,1.75-6.98,5.74-.65,3.66-1.17,7.35-1.59,11.05-.05.44.93,1.46,1.38,1.43,3.66-.25,7.31-.97,10.97-1,5.28-.05,10.59.12,15.84.65,2.62.27,3.93,3.77,2.14,4.95-1.09.72-2.85.67-4.29.58-4.14-.26-8.26-.85-12.4-1.05-2.19-.1-4.47.75-6.61.44-5.98-.87-8.12,5.82-5.72,9.82,2.34,3.9,5.54,7.51,6.88,11.71,2.18,6.81,7.49,10.64,12.12,15.22.25.24,1.64-.09,1.66-.28.34-2.27.84-4.59.66-6.85-.21-2.56-1.2-5.04-1.58-7.59-.24-1.6-.54-3.75,1.72-4.14,1.83-.31,4.1-.49,5.62.33,4.78,2.57,7.28,7.12,9.22,12.05,2.72,6.94,6.83,12.87,13.18,17.02,2.54,1.66,5.58,2.82,7.62,4.94,4.86,5.07,11.03,7.68,17.3,10.11,4.91,1.9,9.92,3.34,13.41,7.75,1.09,1.37,2.84,2.23,4.32,3.27,5.62,3.96,11.57,7.46,16.2,12.71,1.12,1.27,2.68,2.19,4.09,3.19,7.49,5.36,14.86,10.92,22.55,15.97,6.83,4.49,13.96,8.54,21.09,12.56,5.38,3.03,11.07,5.52,16.45,8.57,8.05,4.56,15.78,9.68,23.94,14.02,6.2,3.3,12.86,5.73,19.3,8.59,10.84,4.8,21.74,8.84,34.01,6.12,7.19-1.6,13.94-4.15,20.07-8.14,3.66-2.39,7.05-5.22,10.38-8.06,3.98-3.38,7.86-6.9,11.63-10.52,5.06-4.87,9.97-9.89,14.93-14.86.36-.36.65-.8.97-1.21-.47-.24-.92-.64-1.41-.71-5.11-.8-10.24-1.46-15.34-2.33-8.52-1.45-16.71-4.07-24.61-7.5-6.1-2.65-11.22-6.83-16.29-11.06-3.65-3.05-7.57-5.8-11.13-8.95-3.4-3.02-6.48-6.4-9.99-9.91M109.24,540.83c-.51.06-1.1.31-1.53.14-5.53-2.16-11.32-2.69-17.17-2.68-2.68,0-5.39.65-8.05.48-5.97-.38-11.92-1.08-17.87-1.66-2.01-.2-4.08-.17-6.02-.66-7.72-1.96-15.18-4.53-22.24-8.41-7.84-4.3-15.37-8.96-22.17-14.77-.37-.32-.91-.45-1.37-.66-.26.56-.72,1.11-.75,1.68-.24,4.87-.66,9.76-.55,14.62.19,8.61.65,17.22,1.12,25.82.17,3,.24,6.15,1.21,8.92,2.15,6.14,4.24,12.45,7.52,18,2.79,4.72,6.74,9.06,11.02,12.51,7.73,6.24,17.27,9.15,26.52,12.45,1.46.52,1.96.08,2.32-1.27.69-2.56,1.53-5.08,2.25-7.64.27-.95.87-2.2.51-2.86-2.17-3.92-.69-7.57.7-11.13,1.52-3.89,2.8-8.19,8.27-8.43.69-.03,1.68-1.32,1.92-2.2,1.62-5.96,4.82-10.02,10.34-11.32,3.37-.79,6.9-.87,10.37-1.21,2.49-.24,5.02-.21,7.47-.62,5.56-.93,11.05-1.2,16.74-.69,7.05.63,9.95,4.98,12.36,10.63,2.59,6.07,2.54,12.56,3.31,18.9.58,4.73.3,9.56.7,14.33.31,3.6.84,7.22,1.74,10.71.72,2.79,2.2,5.37,3.21,8.09,1.65,4.42,4.81,7.23,9.26,8.36,4.6,1.17,9.38,1.68,13.93,2.98,5.24,1.49,10.52,1.69,15.89,1.68,2.39,0,4.86.07,7.15.67,4.88,1.29,9.73,2.44,14.82,2.15,3.81-.21,7.24,1.05,10.64,2.61,7.86,3.59,15.77,7.04,24.73,6.59,1.28-.06,2.6.55,3.89.91,7.61,2.14,15.07,1.76,22.52-.94,5.46-1.98,10.56-5.09,17.01-3.65,2.92.65,4.68,1.83,5.45,4.2.87,2.67-1.32,4.03-3.38,5.15-.23.13-.47.26-.67.44-2.54,2.15-5.19,4.19-7.55,6.52-.87.86-2.08,3.19.47,3.21,6.56.05,13.36,1.18,19.45-2.62.65-.41,1.51-.48,2.28-.68,3.7-.96,7.43-1.82,11.1-2.89,3.37-.98,6.23-5.64,4.64-7.79-2.57-3.47-5.36-6.81-8.42-9.85-3-2.98-6.51-5.45-9.66-8.29-.62-.56-1.14-2.04-.82-2.65.6-1.18,1.8-2.46,3.41-1.47,2.15,1.32,4.35,2.68,6.17,4.4,4.4,4.18,8.62,8.56,12.87,12.89.9.91,1.63,1.98,2.44,2.98.73-.86,1.46-1.72,2.19-2.57.19-.22.43-.38.6-.61,1.96-2.71,4.05-5.34,5.82-8.17,1.61-2.56,1.13-4.91-1.23-7.03-5.37-4.84-10.61-9.82-15.93-14.72-1.39-1.28-2.2-2.66-.72-4.3,1.56-1.73,3.3-.89,4.63.25,3.9,3.34,7.71,6.79,11.46,10.29,2.5,2.33,4.88,4.78,7.24,7.24,1.1,1.15,1.73,1.17,2.33-.42.9-2.39,2.04-4.69,2.85-7.1.29-.86.31-2.29-.2-2.85-4.46-4.86-9.07-9.58-13.65-14.33-1.18-1.22-2.61-2.27-3.51-3.66-.44-.7-.25-2.25.27-2.96.38-.52,1.96-.69,2.67-.34,1.99.98,4.07,2.05,5.64,3.57,2.45,2.37,4.44,5.21,6.78,7.7.52.56,1.69.51,2.57.74,0-2.8.77-5.9-.19-8.31-1.23-3.1-3.71-5.76-5.91-8.4-4.62-5.56-9.23-11.15-14.17-16.41-4.13-4.39-7.25-4.74-13.01-2.03-8.05,3.79-13.99,10.33-20.43,16.09-6.96,6.23-13.83,12.18-22.86,15.33-6,2.09-11.55,2.3-17.28-.66-3.51-1.81-7.26-3.16-10.91-4.69-1.22-.51-3.06-.59-3.59-1.48-1.82-3.07-4.62-4.46-7.74-5.53-1.67-.57-3.44-.95-4.99-1.75-8.41-4.32-16.79-8.71-25.15-13.12-14.38-7.6-28.8-15.15-43.1-22.9-7.88-4.27-15.63-8.79-23.3-13.43-3.69-2.23-7.09-3.32-11.15-.91-1.46.87-3.45.84-5.48,1.51M229.03,654.9c.4.19.78.45,1.2.56,11.87,3.32,23.74,6.63,35.61,9.93.51.14,1.03.22,1.55.33-.11-.46-.35-.94-.29-1.38.2-1.61.1-3.44.84-4.77,2.16-3.87,4.93-7.28,9.1-9.26.46-.22.75-.78,1.12-1.19-.66-.26-1.46-.89-1.96-.71-4.06,1.44-8.02,3.19-12.11,4.55-6.08,2.02-12.31,2.71-18.69,1.38-3.17-.66-6.4-1.73-9.57-1.61-6.74.25-12.69-2.49-18.86-4.29-3.52-1.03-6.66-3.67-10.2-4.24-6.87-1.11-13.84-1.55-20.57-3.54-.53-.16-1.3.46-1.95.71.57.32,1.1.76,1.71.93,7.51,2.13,15.05,4.13,22.53,6.33,6.69,1.97,13.32,4.17,20.55,6.26Z"/>
  <path class="cls-1" d="M290.06,234.22c-2.16,2.93-3.74,6.26-6.32,8.35-3.26,2.64-3.78,6.24-4.57,9.61-1.56,6.65-.98,13.13,3.27,18.98,2.62,3.61,6.32,5.2,10.32,6.34,3.77,1.07,7.59,1.93,11.39,2.89.17.04.39.05.5.16,4.05,4.4,8.52,8.5,12.03,13.29,4.09,5.59,7.01,12.04,11.1,17.63,2.62,3.57,6.23,6.54,9.77,9.28,4.47,3.45,9.52,6.16,13.94,9.67,2.38,1.89,4.03,4.72,5.88,7.23,8.07,10.94,15.89,22.07,24.17,32.84,7.13,9.28,13.39,19.06,18.97,29.32,2.59,4.76,5.97,9.14,8.15,14.07,3.1,7.02,7.1,13.47,10.95,20.06,6.07,10.4,11.68,21.07,17.45,31.64,1.95,3.57,3.97,7.11,5.62,10.82,2.31,5.21,2.69,10.7,1.7,16.33-.92,5.26-1.38,10.55,1.13,15.56,1.38,2.75,1.54,5.53,1.11,8.53-.43,3.03-.63,6.13-.58,9.19.08,4.91-2.92,8.35-5.31,12.12-.51.8-.85,1.78-1,2.72-1.13,6.98-2.19,13.97-3.27,20.95-.63,4.03-1.28,8.05-1.9,12.08-.97,6.37-1.57,12.82-3,19.08-.76,3.35-3.23,6.28-4.38,9.59-4.52,13-9.75,25.86-12.91,39.2-2.51,10.59-5.58,21-8.08,31.57-1.1,4.65-1.66,9.42-2.51,14.12-1.11,6.11-2.38,12.19-3.39,18.31-.59,3.62-.53,7.35-1.26,10.94-.73,3.62.02,7.79-3.4,10.59-1.43,1.17-2.67,2.68-4.27,3.54-1.02.56-3.02.76-3.69.14-.73-.67-.52-2.46-.5-3.76,0-.41.68-.94,1.16-1.19,5.15-2.71,4.79-7.91,5.58-12.51.9-5.19,1.52-10.42,2.33-15.63,1.11-7.16,2.04-14.35,3.5-21.44,1.16-5.64,3.06-11.12,4.48-16.71,1.78-7,3.16-14.1,5.15-21.03,2.73-9.51,5.7-18.97,8.9-28.33,2.1-6.16,5.12-12.01,7.11-18.2,1.48-4.59,1.99-9.48,2.88-14.25,1.33-7.18,2.64-14.35,3.89-21.54.68-3.93,1.77-7.89,1.7-11.82-.08-4.56.71-8.48,3.76-11.95,2.51-2.86,2.95-6.4,3.32-10.08.58-5.78.38-11.21-2.19-16.68-1.18-2.51-.77-5.87-.68-8.83.09-2.8.71-5.59,1.08-8.39.9-6.85-2.59-12.34-5.57-17.99-1.44-2.74-2.74-5.55-4.27-8.23-3.92-6.87-8.05-13.61-11.88-20.53-4.88-8.82-9.42-17.84-14.35-26.64-4.77-8.53-9.45-17.16-14.89-25.26-7.21-10.74-15.16-20.99-22.73-31.49-5.12-7.1-9.84-14.52-15.3-21.34-2.35-2.94-6.17-4.7-9.29-7.03-4.3-3.2-8.68-6.3-12.84-9.69-4.83-3.93-7.59-9.46-10.66-14.72-.31-.52-.35-1.23-.72-1.69-.57-.71-1.32-1.29-2-1.92-.43.78-.85,1.58-1.3,2.35-2.1,3.52-3.75,7.43-6.41,10.45-4.12,4.68-8.52,9.09-14.43,11.91-14.06,6.7-28.58,12.12-43.52,16.4-10.43,2.99-21.03,5.36-31.54,8.09-3.94,1.02-7.8,2.35-11.74,3.39-5.51,1.45-11.06,1.41-16.74.7-3.82-.47-7.34-1.34-10.84-2.9-6.26-2.78-8.54-8.11-8.77-14.23-.36-9.78,2.71-18.95,6.17-27.99,1.45-3.79,2.98-7.59,3.9-11.51.48-2.05.29-4.69-.67-6.48-.53-.98-3.51-1.4-5.04-.93-7.09,2.14-14.03,4.78-21.08,7.03-4.48,1.43-9.01,2.82-13.63,3.65-9.68,1.74-18.36,5.5-26.12,11.53-9.85,7.65-16.29,17.62-20.24,29.31-3.55,10.5-9.52,19.54-16.41,28.11-1.93,2.4-2.83,5.65-4.12,8.55-3.33,7.48-6.4,15.09-9.98,22.45-3.48,7.15-7.3,14.16-11.27,21.06-6.34,11.02-12.69,22.05-19.48,32.8-5.43,8.6-11.47,16.81-17.32,25.14-2.24,3.2-4.6,6.34-7.09,9.35-1.57,1.89-1.64,4.02-1.03,5.99.72,2.35-.12,3.85-1.64,5.31-1.27,1.22-2.4.74-3.32-.45-1.32-1.71-1.35-10.31-.06-12.17,1.8-2.6,3.6-5.19,5.46-7.74,4.09-5.65,8.4-11.15,12.28-16.94,6.71-10,13.6-19.86,19.19-30.62,6.09-11.73,13.37-22.83,19.56-34.52,4.19-7.92,8.19-16.13,10.76-24.66,1.96-6.52,6.32-11.09,9.96-16.14,4.41-6.14,7.29-12.79,9.92-19.68,4.37-11.41,10.99-21.1,20.52-28.95,8.44-6.95,18.06-11.39,28.54-13.17,9.45-1.6,17.85-5.85,26.89-8.34,4.23-1.16,8.56-1.97,12.89-2.66,1.54-.25,2.19-.63,2.09-2.2-.41-6.42-.76-12.83-1.17-19.25-.1-1.55-.71-3.14-.49-4.62.73-4.83-3.01-7.33-5.39-10.35-5.18-6.59-9.26-13.83-12.28-21.52-3.13-7.96-5.59-16.22-7.75-24.51-1.43-5.5-2.17-11.25-2.58-16.93-.68-9.35-1.33-18.75-1.07-28.1.22-7.82,1.63-15.62,2.75-23.4.72-4.98,1.81-9.9,2.86-14.82.19-.91.81-1.84,1.5-2.49.57-.54,2.01-1.13,2.23-.9.83.88,1.98,2.17,1.84,3.13-.71,4.88-1.8,9.71-2.75,14.56-.58,3-1.51,5.99-1.65,9.01-.54,11.56-1.33,23.14-1.03,34.68.2,7.65,2.07,15.26,3.26,22.88,1.24,7.93,3.8,15.47,6.8,22.91,3.43,8.5,7.88,16.35,13.5,23.57,6.59,8.46,14.71,15.12,24.57,19.25,4.55,1.9,9.63,2.58,14.52,3.58,8.3,1.69,16.27-.17,24.05-2.86,8.41-2.9,16.12-7.14,22.96-12.9,2.62-2.21,5.32-4.33,7.8-6.69,7.77-7.38,13.92-16.06,19.84-24.93,2.26-3.39,4.73-4.35,8.51-3.48,13.17,3.02,29.75-5.14,33.74-18.75,1.83-6.26.42-11.89-3.16-17.04-3.6-5.2-8.66-8.25-14.91-9.41-2.17-.4-4.52-3.12-3.8-4.17,1.2-1.75,2.71-2.31,5.15-1.61,10.39,2.96,18.2,8.58,21.69,19.24.75,2.28,1.45,2.23,3.41.66,3.82-3.08,7.55-6.42,11.8-8.8,4.3-2.41,6.51-6.3,8.66-10.15,4.66-8.36,7.89-17.33,8.68-26.97.57-7.07,1.52-14.21,1.03-21.24-1.05-15.25-4.71-29.98-10.89-44.04-5.44-12.37-12.11-23.98-21.08-34.13-4.74-5.37-9.58-10.74-14.95-15.45-11.49-10.09-24.67-17.42-39.67-20.73-11.62-2.56-23.21-1.63-34.38,2.9-.82.33-1.83.52-2.67.35-.73-.14-1.58-.76-1.91-1.4-.21-.41.26-1.61.73-1.85,3.21-1.65,6.37-3.65,9.8-4.58,6.83-1.86,13.95-2.48,20.98-1.74,10.61,1.12,20.66,4.25,30.15,9.29,9.07,4.81,17.13,10.85,24.67,17.79,9.24,8.51,17.03,18.2,23.49,28.86,7.3,12.05,13.06,24.83,16.5,38.61,1.86,7.48,3.68,14.94,3.9,22.66.19,6.6.11,13.21.02,19.82-.12,8.47-2.31,16.56-5.16,24.44-2.69,7.44-6.56,14.35-11.84,20.19-2.78,3.08-6.79,5.05-10.25,7.51-2.43,1.72-4.81,3.53-7.33,5.1-2.35,1.47-2.59,3.9-3.11,6.16-2.19,9.39-8.05,15.74-16.33,20.22-6.67,3.6-13.82,4.72-21.27,4.53-.44-.01-.89-.13-1.31-.29-2.29-.86-3.88-.04-5.16,1.92-1.54,2.36-3.22,4.64-4.98,7.1M186.14,312.41c.67,3.44,1.28,6.89,2.02,10.31.65,3.02,2.12,5.32,5.05,6.92,4.71,2.57,9.88,2.75,14.92,3.24,3.96.39,8.04-.12,12.03-.51,2.57-.25,5.12-.88,7.62-1.59,8.33-2.35,16.24-5.77,24.23-9.11,13.33-5.58,26.41-11.61,38.39-19.67,4.16-2.8,7.58-6.81,10.97-10.6,2.09-2.34,1.49-5.43-.86-6.34-2.22-.86-4.61-1.51-6.97-1.76-7.7-.81-13.48-4.72-17.2-11.22-2.81-4.91-4.65-10.35-3.03-16.27.14-.49-.1-1.08-.17-1.63-.46.21-1.02.31-1.36.64-6.67,6.17-14.1,11.18-22.39,14.95-11.57,5.26-23.47,7.68-36.23,5.55-10.03-1.68-19.04-5.27-26.83-11.85-.6-.51-1.44-.74-2.17-1.1-.2.97-.61,1.95-.55,2.9.3,4.61.94,9.21,1.06,13.82.18,7.55.05,15.11.05,22.67,0,.57-.06,1.15.01,1.71.36,2.89.75,5.78,1.42,8.96M307.65,293.25c-.54.35-1.16.62-1.61,1.06-3.97,3.93-7.93,7.88-11.86,11.85-5.25,5.3-12.29,7.54-18.71,10.74-9.77,4.87-19.83,9.15-29.75,13.72-11.46,5.27-23.58,7.92-36.09,7.93-5.7,0-11.61-1.12-17.04-2.9-4.3-1.41-8.32-4.43-9.51-9.4-.88-3.69-1.19-7.52-1.8-11.27-.08-.5-.48-.95-.73-1.42-.32.4-.8.76-.94,1.21-.94,3.05-2.09,6.07-2.63,9.19-.88,5.06-1.71,10.19-1.81,15.31-.05,2.52.95,5.24,3.6,7,7.21,4.8,15.2,4.3,23.13,3.46,3.55-.38,6.92-2.13,10.45-2.97,6.35-1.51,12.83-2.54,19.12-4.25,8.7-2.36,17.31-5.08,25.91-7.81,11.35-3.61,22.38-8.05,33.15-13.11,5.56-2.61,9.67-7.01,13.38-11.59,3.77-4.66,6.73-9.98,3.76-16.73Z"/>
  <path class="cls-1" d="M370.54,455.92c4.48,0,8.68-.2,12.85.04,7.3.42,14.59.97,21.85,1.78,1.47.17,2.9,1.63,4.08,2.76.24.23-.54,2.34-1.09,2.45-1.78.37-3.69.37-5.52.23-1.97-.15-3.9-.86-5.87-.94-7.25-.29-14.56.07-21.75-.73-9.02-1.01-17.63.49-26.32,2.36-4.08.88-8.27,1.28-12.42,1.75-7.07.79-13.51,3.61-20.1,5.98-4.64,1.67-9.42,3.03-13.93,4.99-2.67,1.17-5.01,3.16-7.38,4.94-1.45,1.09-2.56,1.9-4.2.16-1.65-1.74-.43-2.87.55-3.96,4.32-4.79,10.07-6.88,16.07-8.78,8.83-2.8,17.2-7.02,26.43-8.6,3.11-.53,6.23-1.07,9.35-1.57,3.67-.59,7.32-1.31,11.01-1.68,5.35-.53,10.73-.8,16.38-1.18Z"/>
  <path class="cls-1" d="M200.29,19.23c5.41-2.36,10.58-4.89,15.99-6.68,2.9-.96,6.22-.88,9.35-.81,1.72.04,3.34,1.09,3.11,3.4-.22,2.23-1.78,2.4-3.47,2.22-10.62-1.16-18.76,3.99-26.87,9.9-8.14,5.93-12.97,14.41-18.86,22.12-5.22,6.82-9.25,14.56-15.91,20.28-5.7,4.89-12.17,8.12-19.53,9.32-1.18.19-3.42-1.13-3.81-2.24-.72-2.04.99-2.52,2.96-2.85,12.6-2.06,20.37-10.6,27.21-20.47,5.31-7.66,10.64-15.36,16.63-22.48,3.71-4.41,8.67-7.76,13.21-11.73Z"/>
  <path class="cls-1" d="M274.91,111.57c-2.03,2.41-3.8,4.79-5.85,6.9-1.11,1.15-2.66,2.2-4.26.43-1.46-1.61-.45-3.05.63-4.07,3.8-3.54,6.43-7.79,8.51-12.5,2.6-5.92,4.56-12.01,5.07-18.47.39-4.86.74-9.76.53-14.62-.3-6.86-1.98-13.35-5.83-19.3-3.78-5.84-10.54-5.73-15.11-2.13-.56.44-1.15,1.06-1.79,1.16-.87.14-2.2.19-2.62-.32-.52-.64-.76-2.13-.36-2.8,1.98-3.39,5.39-4.76,9.01-5.6,9.49-2.18,16.32,6.67,19.12,14.34,3.27,8.95,3.27,18.22,2.67,27.41-.54,8.36-2.99,16.45-6.57,24.1-.86,1.84-2,3.56-3.15,5.47Z"/>
  <path class="cls-1" d="M224.17,155.74c-.43-7.2.72-13.49,6.47-18.24,4.2-3.47,8.84-1,10.71,2.99,3.42,7.31,1.15,19.83-5.84,24.71-2.51,1.75-7.55,1.71-9.56-2.76-.9-1.99-1.2-4.26-1.77-6.69Z"/>
  <path class="cls-1" d="M317.79,107.57c-3.66,10.66-8.44,20.49-16.12,28.65-2.3,2.44-4.88,4.62-7.4,6.83-.71.63-1.66,1.29-2.54,1.36-1.21.1-2.46-.34-3.69-.55.33-1.18.34-2.66,1.08-3.46,1.34-1.45,3.1-2.51,4.71-3.7,4.74-3.47,7.87-8.29,10.95-13.13,4.12-6.47,7.02-13.47,8.78-20.93,1.67-7.05,3.05-14.2.29-21.25-.89-2.28-2.65-4.28-4.24-6.22-.86-1.04-1.97-2.16-.73-3.09.94-.71,2.93-1.01,3.93-.5,4.06,2.08,5.97,6.04,6.74,10.19,1.49,7.96,1.05,15.94-1.4,23.74-.19.6-.15,1.28-.36,2.06Z"/>
  <path class="cls-1" d="M176.28,122.15c3.96-1.87,6.84.48,8.03,3.67,1.81,4.85.65,9.42-.6,14.08-1.17,4.37-2.87,8.42-6.65,11.18-3.52,2.57-7.93.61-8.94-3.77-1.25-5.44-.21-10.6,1.58-15.73,1.3-3.71,2.8-7.22,6.58-9.42Z"/>
  <path class="cls-1" d="M232.89,36.96c3.96-2.46,7.81-3.31,12.19-1.38,2.02.9,2.39,2.36,1.83,3.73-.46,1.12-1.75,1.85-3.63,1.02-4.89-2.15-8.31,1.16-11.46,4.07-6.16,5.67-10.55,12.78-15.07,19.73-3.72,5.71-7.57,11.33-13.26,15.28-1.93,1.34-4.18,2.35-6.44,3.01-.85.25-2.11-.95-3.19-1.48.62-.99,1.02-2.47,1.91-2.88,4.38-2.03,8.06-5.02,10.9-8.74,4.19-5.49,7.75-11.47,11.81-17.07,4.09-5.65,8.14-11.39,14.4-15.29Z"/>
  <path class="cls-1" d="M233.31,462.21c-.19,4.59-.44,8.89-.56,13.19-.16,5.89-4.2,7.26-8.8,5.7-4.41-1.5-8.85-6.87-8.95-10.98-.04-1.61.12-3.04,2.09-3.33,2.14-.31,3.89.53,4.14,2.67.31,2.71,2,4.35,3.83,5.83,1.21.97,2.59.99,2.55-1.32-.06-3.9-.38-7.85.1-11.7.39-3.17-.45-4.33-3.55-4.76-1.46-.2-2.69-1.71-2.27-3.65.37-1.72,1.63-2.24,3.16-1.93,3.68.74,7.33,1.61,10.99,2.41.79.17,1.67.13,2.38.46,1.27.6,2.65,1.21,3.54,2.22.42.48.09,2.01-.36,2.81-.96,1.69-2.62,1.36-4.22,1.02-.89-.19-1.84-.44-2.7-.3-.52.09-.92.88-1.37,1.64Z"/>
  <path class="cls-1" d="M173.85,212.92c.18-3.02,1.21-3.86,3.72-2.81,3.11,1.3,6.14,2.78,9.64,2.23,1.95-.31,3.92-.61,5.8-1.16,3.74-1.1,7.08-.43,10.27,1.71,4.69,3.14,10.04,3.05,15.36,2.83.76-.03,1.48-.96,2.22-1.48,1.61-1.15,3.34-2.42,5.05-.38,1.7,2.04.05,3.43-1.35,4.67-4.15,3.68-9.13,3.32-14.07,2.67-3.89-.51-7.61-1.64-10.92-3.96-3.24-2.28-6.46.07-9.62.56-5.26.82-10.09-.09-14.65-2.64-.64-.36-.97-1.28-1.44-2.23Z"/>
  <path class="cls-1" d="M267.05,502.24c.76-3.87,1.51-7.46,2.29-11.05.27-1.25.62-2.49.94-3.73-1.11.48-2.2,1-3.33,1.42-2.19.82-3.51-.33-4.47-2.12-1.83-3.39-1.36-7.09-.95-10.61.31-2.65,3.64-3.36,5.59-1.6,1.19,1.07,1.61,2,.18,3.21-.37.31-.46,1.01-.56,1.56-.03.16.37.4.57.6.3-.52.58-1.05.89-1.57,1.1-1.86,1.94-4.33,4.79-3.47,1.21.37,2.95,1.54,3.05,2.49.33,3.27.33,6.63-.09,9.89-.63,4.9-1.73,9.74-2.6,14.61-.24,1.34-.05,2.89-.68,3.99-.55.96-2.11,2.1-2.99,1.93-1.01-.19-1.94-1.63-2.56-2.72-.37-.65-.07-1.68-.07-2.82Z"/>
  <path class="cls-1" d="M195.01,160.89c4.58-.36,8.61.44,12.23,2.86,2.36,1.58,2.67,4.09.41,5.18-.95.46-2.69-.13-3.81-.73-3.01-1.58-6.09-2.42-9.43-1.59-4.99,1.25-6.16,7.29-2.21,11.72,2.34,2.62,5,4.82,8.83,4.87.49,0,.97.46,1.48.53,1.77.22,2.67,1.4,2.1,2.88-.37.97-1.81,2.19-2.76,2.18-6.45-.04-11.52-2.91-14.99-8.35-4-6.25-3.33-10.43-.38-15.03,1.85-2.89,4.89-4.13,8.53-4.53Z"/>
  <path class="cls-1" d="M236.17,470.22c-.47-2.54,1.31-3.93,2.7-4.4,1.39-.47,3.49.14,4.86.97,1.52.92,1.94,2.46-.39,3.48-.8.35-1.7,1.16-1.94,1.95-.33,1.06-.06,2.31-.05,3.48.67-.7,1.41-1.34,2-2.1.87-1.14,1.44-2.59,2.49-3.48.89-.75,2.65-1.56,3.38-1.17,1.09.58,2.32,2.26,2.25,3.4-.23,3.68-.96,7.34-1.61,10.98-.31,1.76-2.1,2.35-3.65,1.19-1.6-1.19-3.2-1.87-5.29-1.77-2.22.11-5.04-2.51-5.25-5.06-.19-2.36.3-4.78.49-7.46Z"/>
  <path class="cls-1" d="M168.85,113c2.4-4.35,6.56-6.17,10.68-6.85,7.99-1.31,15.33,1.96,18.42,10.55.36,1,.58,2.19.41,3.21-.13.76-.86,1.7-1.56,2-.55.24-1.65-.19-2.18-.68-.78-.7-1.5-1.64-1.85-2.62-2.92-8-12.49-9-18.42-3.76-.98.86-2.65,1.4-3.92,1.27-.67-.07-1.14-1.92-1.56-3.11Z"/>
  <path class="cls-1" d="M317.22,199.63c-2.68.52-3.72,2.36-4.44,4.53-.36,1.08-.52,2.36-1.21,3.17-.61.71-2.26,1.48-2.73,1.16-1.02-.7-2.41-2.26-2.21-3.13,1.26-5.51,2.85-10.94,4.51-16.35.29-.93,1.28-1.95,2.19-2.32,2.39-.96,3.78.3,3.45,2.92-.1.79-.38,1.55-.55,2.33-.15.66-.28,1.32-.42,1.98.76-.15,1.52-.26,2.27-.44,2.24-.55,4.44-1.28,6.71-1.62.67-.1,1.88.68,2.15,1.35.26.63-.11,2-.66,2.4-1.41,1.01-3.06,1.74-4.67,2.43-1.37.59-2.82.98-4.38,1.59Z"/>
  <path class="cls-1" d="M244.61,122.72c-2.96-1.29-5.67-3.11-8.89-2.38-1.86.42-3.82,1.08-5.34,2.17-1.43,1.02-2.61,1.87-4.14.66-1.84-1.46-1.22-3.56.06-4.54,2.21-1.69,4.79-3.46,7.44-3.92,8.02-1.39,17.99,4.04,20.8,11.76.33.9-.12,2.86-.75,3.14-.88.4-2.6.06-3.36-.63-2.06-1.85-3.81-4.05-5.82-6.26Z"/>
  <path class="cls-1" d="M252.75,478.79c.57-3.19,1.02-6.13,1.75-9,.73-2.91.7-6.26,3.36-8.27.86-.65,2.59-.85,3.6-.45,1.41.56,2.04,1.83,1.05,3.61-2.82,5.07-3.95,10.67-4.61,16.38-.19,1.64-.35,3.28-.58,4.91-.27,1.97-2.77,4.31-4.08,3.63-1.84-.96-2.78-2.36-1.71-4.74.79-1.76.84-3.84,1.22-6.07Z"/>
  <path class="cls-1" d="M173.14,84.41c1.53,3.12-.96,4.44-2.65,5.49-6.02,3.75-12.8,4.55-19.72,3.98-.94-.08-1.77-1.59-2.64-2.43,1.14-.87,2.18-2.26,3.44-2.51,3.5-.67,7.17-.56,10.63-1.35,2.34-.54,4.56-1.92,6.63-3.24,1.52-.97,2.73-1.99,4.32.06Z"/>
  <path class="cls-1" d="M190.57,225.64c2.9.05,5.68.1,8.4.51.85.13,2.03,1.11,2.19,1.88.18.86-.37,2.43-1.07,2.79-1.29.67-2.92.87-4.41.91-1.52.05-3.15-.08-4.56-.59-1.3-.48-3-1.34-3.42-2.44-.73-1.96,1.22-2.45,2.86-3.06Z"/>
</svg>