<?xml version="1.0" encoding="UTF-8"?>
<svg id="Contours" xmlns="http://www.w3.org/2000/svg" viewBox="0 0 469.93 1026.5">
  <defs>
    <style>
      .cls-1 {
        fill: #3f3f3f;
        stroke-width: 0px;
      }
    </style>
  </defs>
  <path class="cls-1" d="M389.92,606.53c4.9-1.7,9.7-3.3,14.4-5,9.1-3.2,17.8-7.1,26.2-11.9,7-3.9,13.5-8.3,19-14.2,1.8-2,3.4-4.2,4.9-6.4,1.4-2.2,3-2.7,4.9-1.3.9.7,1.4,1.5.7,2.8-2.5,4.8-5.7,9-10,12.2-4.8,3.5-9.4,7.3-14.5,10.3-5.9,3.5-12.2,6.6-18.5,9.3-7,3-14.2,5.8-21.6,8-9.3,2.8-18.8,5.2-28.3,7.3-6.7,1.5-13.6,2.6-20.4,3.7-4.9.8-9.8,1.4-14.8,1.8-6.4.6-12.9,1.1-19.3,1.4-7,.3-14,.6-21.1.4-6.7-.2-13.4-.9-20-1.8-7.3-1.1-14.6-2.5-21.8-4.1-3.8-.8-7.4-2.2-11-3.6-2.1-.8-2.3,0-2.3,1.7,0,16.9-.1,33.8,0,50.7.1,18.5.3,37,.4,55.6.2,24.4.3,48.8.5,73.1.1,21.9.3,43.7.5,65.6.1,17.1.3,34.3.5,51.4,0,2.6.9,3.2,3.9,3.5,6.4.6,12.8,1.2,19.1,1.8,5.5.6,10.9,1.2,16.4,1.8,4.6.6,9.2,1.2,13.9,1.8,3.2.4,3.9-.4,4.4-4.1.8-5.4,1.8-10.8,2.7-16.2.7-4.1,1.2-8.2,1.9-12.3.8-5,1.8-10.1,2.7-15.1.7-4.1,1.2-8.3,1.9-12.5.8-5.1,1.8-10.2,2.7-15.3.7-4,1.2-8,1.9-12,.9-5.3,1.9-10.7,2.7-16,.7-4.1,1.2-8.2,1.9-12.3.8-5,1.9-10.1,2.7-15.1.7-4,1.2-8,1.9-12,.9-5.3,1.8-10.5,2.7-15.8.7-3.9,1.2-7.9,1.9-11.8.9-5.3,1.9-10.5,2.7-15.8.5-3.2.9-6.3,1.4-9.5.9-5.2,1.8-10.4,2.7-15.5.7-4,1.2-8,1.9-12,.7-4.2,1.5-8.4,2.2-12.6.5-3.2.9-6.5,1.5-9.7.7-4.3,1.5-8.5,2.3-12.8.2-.9.2-1.9.5-2.8.8-2.6,2-3.2,4.4-2.4.3.1.6.2.9.3-.1-.3-.2-.6-.2-.9-.6-3.9-1.3-7.8-1.9-11.8-.3-1.8.5-3.4,2.3-3.5,1.6-.1,2.9,1,3.2,3,.6,4.6,1.5,9.1,2.3,13.7.9,5.2,1.9,10.4,2.7,15.5.7,4.2,1.2,8.5,1.9,12.7.7,4.1,1.6,8.2,2.2,12.3.7,4.2,1.2,8.3,1.9,12.5.8,5.3,1.8,10.5,2.7,15.8.7,4,1.2,8,1.9,12,.9,5.3,1.9,10.7,2.7,16,.7,4.2,1.2,8.5,1.9,12.7.8,5.2,1.9,10.4,2.7,15.5.7,4.1,1.2,8.2,1.9,12.3.9,5.2,1.8,10.4,2.7,15.6.7,4.1,1.2,8.2,1.9,12.2.9,5.4,1.9,10.8,2.7,16.2.8,5.2,1.5,10.3,2.3,15.5.8,5,1.9,10.1,2.7,15.1.6,3.3.9,6.6,1.4,9.9.7,4.1,1.5,8.2,2.2,12.3.5,3.2.9,6.5,1.4,9.7.9,5.3,1.9,10.7,2.7,16,.7,4.2,1.2,8.5,1.9,12.7.7,4.1,1.5,8.2,2.2,12.3.5,3.1.9,6.2,1.4,9.2.4,2.5,1.8,3.4,4.2,2.9,1-.2,2-.4,3-.4h49.1c3.2,0,3.6-.8,3.6-3.6-.1-9.9-.1-19.8,0-29.7.1-14.6.3-29.3.4-43.9.1-12,.3-24.1.4-36.1.2-17.3.3-34.6.5-51.9.1-14.6.3-29.1.5-43.7.2-14.6.3-29.3.5-43.9.2-14.6.3-29.3.5-43.9.2-14.9.3-29.9.5-44.8.1-12.7.3-25.3.5-38,0-.5-.1-1.2.2-1.5.9-1,1.7-2.5,2.9-2.7,1.5-.4,2.9,1.7,2.9,3.6-.1,4.1-.4,8.1-.4,12.1-.2,25.8-.3,51.7-.5,77.5-.1,17.1-.3,34.1-.5,51.2-.1,14.4-.3,28.8-.5,43.2-.2,14.9-.3,29.7-.5,44.6-.2,14.7-.3,29.4-.5,44.1-.2,14.7-.3,29.4-.5,44.1-.1,11.3-.3,22.6-.5,33.9-.1,9.9-.3,19.8-.5,29.7,0,2.7-2.4,5-5.2,5h-1.6c-19.1.2-38.3.3-57.4.4-.8,0-1.5-.4-2.3-.4-1.6-.1-3-.1-4.1,1.6-1.1,1.8-3,3-4.4,4.6-5.8,6.1-9.9,13.1-11.4,21.6-1.6,9,.5,16.8,7,23.2,4.5,4.4,10.3,6.7,16.4,7.9,2.9.6,6,1,9,.9,10.7-.5,20.6-3.3,29.9-8.8,5.7-3.4,10.8-7.6,15.1-12.6,5.3-6.1,8.7-13.1,10-21.2.8-4.9-.5-9.4-1.7-13.9-.5-1.8.1-3.1,1.4-3.7,1.3-.5,2.8-.1,3.6,1.6,2.5,5.4,2.9,10.9,2.2,16.8-.7,5.5-2.5,10.5-5.2,15.2-1.6,2.8-3.5,5.5-5.5,8-6,7.5-13.5,13-22.1,17.1-6,2.9-12.1,5.3-18.8,5.9-3.9.4-7.8,1.1-11.7.8-11.2-.6-21.4-3.9-28.9-12.8-3.9-4.6-6-10.1-6.7-16.2-.7-5.5.2-10.7,2-15.8,2.1-6,5.2-11.5,9.6-16.1,2.2-2.3,4.5-4.6,6.8-6.7.5-.5,1.4-.9,1.9-.8,2.5.8,1.8-.6,1.6-2-.7-4.1-1.3-8.3-2-12.4-.6-4-1.2-8-1.9-12-.6-3.3-1.2-6.7-1.8-10-.8-4.3-1.6-8.5-2.3-12.8-.7-4.2-1.2-8.3-1.9-12.5-.8-5.3-1.8-10.5-2.7-15.8-.7-4.2-1.2-8.5-1.9-12.7-.7-4.1-1.4-8.2-2.1-12.4-.5-3.1-1-6.3-1.5-9.4-.7-4.3-1.5-8.7-2.2-13-.5-3.2-.9-6.5-1.5-9.7-.9-5.3-1.9-10.7-2.7-16-.7-4.1-1.2-8.2-1.9-12.3-.9-5.2-1.8-10.4-2.7-15.6-.7-4.1-1.2-8.2-1.9-12.3-.7-4.3-1.6-8.7-2.3-13-.5-3.3-.9-6.6-1.4-9.9-.9-5.2-1.9-10.4-2.7-15.6-.7-4.2-1.2-8.5-1.9-12.7-.7-4.1-1.5-8.2-2.2-12.3-.5-3.3-1-6.6-1.5-9.9-.6-4.1-1.3-8.1-1.9-12.2-.5-3.3-1.2-6.5-1.7-9.8-.4-2.8-.6-5.7-1-8.5-.1-.5-.5-1-.8-1.4-.3.5-.9.9-1,1.4-.5,3.9-.8,7.9-1.4,11.8-.8,5.1-1.8,10.2-2.7,15.3-.7,3.9-1.2,7.9-1.9,11.8-.9,5.4-1.9,10.8-2.7,16.2-.8,5-1.5,10-2.3,15s-1.9,10-2.7,15.1c-.7,4.2-1.2,8.5-1.9,12.7-.8,5-1.9,10.1-2.7,15.1-.7,4.1-1.2,8.2-1.9,12.3-.9,5.2-1.8,10.4-2.7,15.6-.7,4.1-1.2,8.2-1.9,12.2-.8,5-1.8,10.1-2.6,15.1-.7,4.2-1.3,8.5-1.9,12.7-.6,4.1-1.3,8.1-2,12.2-.5,3.2-1.1,6.4-1.7,9.6-.9,5.1-1.8,10.2-2.7,15.3-.7,4.2-1.2,8.5-1.9,12.7-.7,4.1-1.4,8.2-2.1,12.4-.7,4.1-1.3,8.1-2,12.2-.4,2.3-1,4.5-1.3,6.7-.3,2-1.5,2.6-3.3,2.4-5.5-.6-10.9-1.2-16.4-1.8-3.4-.4-6.8-.6-10.1-.9-4.9-.6-9.7-1.2-14.6-1.8-2.8-.3-5.5-.6-8.3-.9-3.4-.3-6.8-.6-10.1-.9-.6,0-1.4,0-1.7.3-2.7,3.2-6.7,3.3-10.2,4.7-7.4,2.9-14.5,6.2-20.2,12-2.1,2.2-4.1,4.7-4.1,7.8,0,1.7.9,3.6,2,5,3.2,4.1,8.1,5.6,12.9,6.8,6.9,1.7,14.1,2.3,21.2,1.8,12.7-.9,25.2-3.1,36.9-8.4,5.9-2.7,11.5-5.8,16-10.6,1.9-2,3.2-4.3,3.6-7.2.2-1.6,1.1-3.2,3.2-3,1.8.2,2.3,1.5,2.3,3.2,0,3.6-1.4,6.6-3.6,9.2-8.2,9.7-19.3,14.2-31,17.6-5.1,1.5-10.3,3-15.6,3.6-7.6.8-15.3,1.2-22.9.9-7.3-.3-14.5-1.8-21-5.3-4.3-2.3-7.8-5.3-9.1-10.4-1.3-5.2.6-9.4,3.8-13.1,7.5-8.8,17.8-13.1,28.5-16.6,1.6-.5,3.2-.6,4.9-1,.2-.1.6-.6.5-.9-.1-1.1-.5-2.1-.6-3.2-.1-6.9,0-13.7,0-20.6-.1-23.3-.3-46.6-.5-69.9-.1-21.6-.3-43.1-.5-64.7-.2-21.9-.3-43.7-.5-65.6-.2-21.6-.3-43.1-.5-64.7-.1-6.2,0-12.4-.6-18.5-.4-4.1-1.9-8.1-3-12.2-2.5-9.9-5-19.9-7.4-29.8-.5-2.1-.9-4.2-1.4-6.3-.3-1.1-.9-2-2.4-1.7-1.8.3-3.7.5-5.5.4-5.7-.2-11.5-.5-17.2-.9-1.7-.1-3.9-.2-4.1-2.7-.3-2.5,1.2-3.5,4.9-3.2,3.4.3,6.8.5,10.1.9,5.6.8,11.1-.6,16.6-1,4.7-.3,9.4-.9,14.1-1.3,6.1-.6,12.3-1.1,18.4-1.9,4.8-.7,9.6-1.9,14.4-2.7,3-.5,6.1-.6,9.2-1,4.4-.6,8.8-1.2,13.2-1.8,4.1-.5,8.2-.9,12.2-1.4,3.1-.4,6.2-.8,9.3-1.4,3.7-.7,7.5-1.3,11.2-2.2,5.3-1.4,10.5-2.8,15.7-4.7,6.9-2.5,14-5,20.5-8.4,6.4-3.3,12.4-7.5,18.2-11.7,4.8-3.5,9.3-7.5,13.8-11.4,5.2-4.5,10.4-9.1,15.5-13.7,1.1-1,2-2.3,2.7-3.7.2-.5-.3-1.8-.9-2.1-4.2-2.5-8.5-4.9-12.7-7.3-7.5-4.3-14.9-8.5-22.4-12.8-5.9-3.3-11.8-6.5-17.6-9.9-4.4-2.5-8.7-5-13.1-7.6-1.2-.7-2.2-.5-3,.6-4.8,6.6-10.8,11.8-17.6,16.3-6.1,4-12.1,8.1-19.3,10.2-7.8,2.3-15.4,5.2-23.2,7.5-5.9,1.8-12,3.1-18,4.6-4.9,1.3-9.7,2.7-14.7,3.8-4.6,1-9.2,1.8-13.8,2.6-5.8,1-11.6,2.1-17.4,2.7s-11.7,1.3-17.4.8c-7.7-.6-15.4-.8-22.9-3-.2-.1-.5,0-.7,0-3.5.7-6.1-1-8.5-3.2-3.1-2.8-6.2-5.6-9.3-8.4-3.7-3.3-7.2-6.7-11.1-9.6-6.7-5.1-14.3-7.4-22.8-7.3-4.1,0-6.3,4.9-4.4,7.3,2.1,2.7,4.6,5.1,7.3,7.2,3.3,2.5,7,4.5,10.5,6.7,1.4.9,1.3,3.8-.6,4.8-1.6.8-3.5,1.5-5.3,1.5-6.2.2-12.3,0-18.5.1-6.6.1-13.1,0-19.7.5-5.7.4-11.6.5-16.8,3.6-2.3,1.4-4.7,2.9-6.7,4.7-1.9,1.7-1.4,4.1,1,5.3,4.2,2.1,8.6,3.7,13.3,3.6,5.8,0,11.7-.2,17.5-.5,2.8-.2,5.6-.9,8.3-1.3,2.2-.4,4,1.4,4.5,4.3.2,1.6-1.5,3.2-3.8,3.5-9,.8-17.4,3.9-25.6,7.1-2.7,1.1-4.9,3.7-7.2,5.7-.2.2.2,1.8.7,2.1,3,1.4,6,2.5,9.5,2.1,2.7-.4,5.5-.1,8.3-.6,3.4-.5,6.7-1.3,10.1-2.1,2.6-.6,4.8.9,4.4,3.2-.3,1.9-2,2.3-3.6,2.6-3.5.7-6.9,1.3-10.4,1.9-2.8.5-5.6,1-8.4,1.3-3.4.3-9,4.3-10.1,7.5-.7,2.2.1,4.1,2.4,5.3,2.4,1.3,5,1.6,7.7,1.9,4.4.5,8.5-.2,12.5-1.5,1.8-.6,3.5-1.5,5.2-2.4,1.5-.8,2.8-.3,3.4,1,.4,1,.5,2.9-.2,3.4-1.6,1.4-3.7,2.3-5.6,3.5-3.4,2.1-5.7,5.3-7.4,8.8-1.3,2.7,2,5.6,4.1,5.9,3.1.3,5.9-.7,8.5-2.1,4.5-2.3,8.7-5,13.2-7.2,7.1-3.4,14.3-6,22.1-7.3,4.7-.8,9.3-1.3,14.1-1.3,6.7,0,13.4-.3,20.1-.4h.7c2.4.1,4.2,1.3,4.2,2.9,0,1.7-1.7,3-4.1,3-2.6,0-5.2.1-7.8,0-1.4,0-2,.4-1.8,1.8.5,3.9.9,7.8,1.4,11.8.4,3.3.6,6.6.9,9.9.6,5.6,1.2,11.2,1.8,16.8.4,3.5.6,7.1.9,10.6.6,5.2,1.2,10.3,1.8,15.5.4,3.1.6,6.3.9,9.4.6,5.5,1.2,11.1,1.8,16.6.4,3.6.6,7.2.9,10.8.5,5,1.2,10,1.8,15,.4,3.2.6,6.5.9,9.7.6,5.7,1.2,11.4,1.8,17.1.4,3.5.6,7.1.9,10.6.6,5.1,1.2,10.2,1.8,15.2.4,3.4.6,6.9.9,10.4.6,5.2,1.3,10.5,1.8,15.7.4,3.9.7,7.8.9,11.7.1,1.4-.5,2.9-2.3,3-1.9.1-2.9-1.1-3.2-2.8-.6-4.5-.9-9.1-1.4-13.6-.6-5.8-1.2-11.7-1.8-17.5-.6-5.8-1.2-11.5-1.8-17.3-.6-5.8-1.2-11.5-1.8-17.3-.6-6-1.2-12-1.8-18-.6-5.6-1.2-11.2-1.8-16.8-.6-5.9-1.2-11.8-1.8-17.7-.6-5.8-1.2-11.7-1.8-17.5-.5-4.3-.9-8.6-1.4-12.9-.6-5.9-1.2-11.8-1.8-17.7-.6-5.7-1.2-11.4-1.8-17.1-.7-6.4-1.5-12.8-2.3-19.2-.2-1.6-.2-3.2-.5-4.8-.1-.5-.8-1.2-1.2-1.2-5.3.3-10.7.4-16,1-3.6.5-7.3,1.4-10.8,2.6-7.5,2.6-14.7,5.8-21.4,10.1-4,2.6-8.5,4.4-13.4,4.4-4.5,0-9.6-4.1-10.3-8.9-.5-3.5.1-6.3,3-8.4.3-.2.5-.9.5-.9-.4-.4-1-.9-1.4-.8-5.8,1.1-11.1-.4-16.2-3.3-5.3-3.1-5.5-11.5-1.5-15.1,1-.9,2.1-1.8,3.2-2.7.3-.3.7-.5,1-.7-.4-.2-.7-.5-1.1-.7-1.2-.6-2.6-1-3.6-1.8-4.1-3.2-4.2-6.8-.7-10.7,3.1-3.5,6.7-6.5,11.6-7.2.6-.1,1-.7,1.6-1.1-.6-.2-1.2-.7-1.7-.6-5.9.5-11.2-1.6-16.5-3.7-6.9-2.7-7.4-12.1-1.9-16.1,4.1-3,8.3-5.8,13.3-6.9,3.4-.7,6.9-1.5,10.3-1.6,11.1-.3,22.3-.4,33.4-.5.9,0,1.8.3,2.8.4.3,0,.7-.3,1-.4-.2-.3-.3-.7-.6-.9-2.7-1.9-5.7-3.5-8.2-5.6-3.1-2.6-5.8-5.8-5.7-10.1.1-5,2.6-11.2,9.9-10.9,4.6.2,9.1-.1,13.6,1.3,6.1,1.9,11.4,4.8,16.1,9,.4.3.9.6,1.3.9.1-.6.2-1.2.1-1.7-.3-2.6-.7-5.2-1-7.8-.6-5.5-1.3-10.9-1.8-16.4-.4-3.4-.6-6.9-.9-10.4-.6-5.2-1.2-10.5-1.8-15.7-.4-3.5-.6-7.1-.9-10.6-.6-5.2-1.2-10.3-1.8-15.5-.2-1.8-.3-3.5-.5-5.3-.6-6.7-1.2-13.4-1.8-20-.4-4.2-.9-8.3-1.4-12.5-.6-5.8-1.2-11.7-1.8-17.5-.6-5.9-1.2-11.8-1.8-17.7-.6-5.8-1.2-11.7-1.8-17.5-.6-5.7-1.2-11.4-1.8-17.1-.7-6.4-1.6-12.8-2.3-19.2-.4-3.7-.5-7.5-1-11.3-.5-4.9-1.3-9.7-1.8-14.6-.4-3.6-.6-7.2-.9-10.8-.5-5.1-1.2-10.2-1.8-15.2-.2-1.7-.3-3.4-.5-5.1-.6-5.7-1.2-11.4-1.8-17.1-.4-3.8-.5-7.5-.9-11.3-.5-4.9-1.2-9.7-1.8-14.6-.4-3.2-.6-6.5-.9-9.7-.6-5.5-1.2-10.9-1.8-16.4-.2-1.8-.3-3.5-.5-5.3-.6-6.7-1.2-13.4-1.8-20-.4-4.2-.9-8.3-1.4-12.5-.6-6-1.2-12-1.8-18-.6-5.8-1.2-11.5-1.8-17.3-.6-5.8-1.2-11.7-1.8-17.5-.5-4.3-1-8.6-1.4-12.9-.7-7.2-1.1-14.4-1.9-21.6-.1-1.2-1.4-2.6-2.5-3.2-3.8-1.8-7.7-3.6-11.8-4.5-4.7-1.1-9.7-1.4-14.5-1.9-2.5-.3-5.1-.6-7.6-.4-6.8.5-13.5,1.1-20.3,1.8-8.9.9-17.5,3.4-25.9,6.5-6.4,2.3-12.4,5.5-17,10.7-.9,1-1.7,1.9-.9,3.7.6,1.4.4,3.2.5,4.8.5,5.8.9,11.5,1.4,17.3.4,4.9.9,9.8,1.4,14.7.5,4.8.9,9.7,1.4,14.5.5,4.9.9,9.8,1.4,14.7.4,4.8.9,9.5,1.4,14.3.5,5,.9,10,1.4,15,.4,4.8.9,9.5,1.4,14.3.5,5,.9,10,1.4,15,.4,4.8.9,9.5,1.4,14.3.6,6.7,1.2,13.4,1.8,20,.4,4.8.9,9.5,1.4,14.3.6,6.7,1.2,13.4,1.8,20,.4,4.8.9,9.5,1.4,14.3.6,5.5,1.3,10.9,1.8,16.4.4,4.1.6,8.1.9,12.2.5,5.6,1.2,11.2,1.8,16.8.2,1.8.3,3.7.5,5.5.5,5.8.9,11.7,1.4,17.5.4,4.7.9,9.4,1.4,14.1.6,6.8,1.2,13.5,1.8,20.3.4,4.7.9,9.4,1.4,14.1.6,6.6,1.2,13.2,1.8,19.8.1.6.4,1.2.4,1.9.2,3.7.3,3.9,4,4.2,7.7.7,14.7,3.3,21.2,7.4,3.2,2,6.1,4.7,7.3,8.5,1.8,5.8-1.7,10.5-5.9,13-.3.2-.7.2-.9.5-.4.4-.8.9-1.2,1.3.5.2,1.1.4,1.6.5,4,.7,7.3,2.6,9.6,6.1,2.4,3.6.2,7.7-3.2,9.9-2.4,1.5-5.2,2.5-7.8,3.7-.5.2-.9.7-1.3,1.1.5.2,1,.5,1.5.7,3,1.6,6,3.1,9,4.8,2.3,1.3,3.9,3.3,4.7,6,1.2,4.1-.1,7.7-3.9,9.8-1.5.8-3.1,1.8-4.8,2.2-1.8.5-1.6.9-.6,2.1,2.4,2.6,4.2,5.5,4.2,9.2,0,3.2-1.6,5.7-4,7.4-4.1,3-8.9,4.4-13.9,5.1-1.2.2-2.5.2-3.7.5s-2.3.7-1.8,2.6.3,4,.5,6c.6,6.1,1.2,12.3,1.8,18.4.3,3.5.6,7.1.9,10.6.6,6.2,1.2,12.4,1.8,18.7.3,3.5.6,7.1.9,10.6.6,6.2,1.2,12.4,1.8,18.7.3,3.5.6,7.1.9,10.6.6,6.2,1.2,12.4,1.8,18.7.3,3.5.6,7.1.9,10.6.6,6.2,1.2,12.4,1.8,18.7.3,3.5.6,7.1.9,10.6.6,6.2,1.2,12.4,1.8,18.7.4,3.9.6,7.8.9,11.7.6,5.8,1.2,11.7,1.8,17.5.2,1.8.3,3.7.5,5.5.3,4.1.6,8.3.9,12.4.6,6.5,1.2,13.1,1.8,19.6.4,4.8.9,9.5,1.4,14.3.6,5.5,1.3,10.9,1.8,16.4.4,4.1.6,8.1.9,12.2.4,4.1.9,8.2,1.3,12.2.3,2.9-.4,5.5-3.2,5.1-2.4-.4-2.5-2.5-2.7-4.2-.6-5.9-.9-11.8-1.4-17.7-.6-6.5-1.2-12.9-1.8-19.3-.5-4.8-.9-9.5-1.4-14.3-.6-6.7-1.2-13.4-1.8-20-.4-4.8-.9-9.5-1.4-14.3-.6-6.7-1.2-13.4-1.8-20-.4-4.8-.9-9.5-1.4-14.3-.6-5.5-1.3-10.9-1.8-16.4-.4-4.1-.6-8.1-.9-12.2-.5-5.6-1.2-11.2-1.8-16.8-.2-1.8-.3-3.7-.5-5.5-.5-5.8-.9-11.7-1.4-17.5-.4-4.7-.9-9.4-1.4-14.1-.6-6.8-1.2-13.5-1.8-20.3-.4-4.7-.9-9.4-1.4-14.1-.6-6.6-1.2-13.2-1.8-19.8-.4-4.6-.9-9.2-1.4-13.8-.6-5.5-1.2-11.1-1.8-16.6-.2-2.1-.4-4.3-.4-6.4-.1-1.5-.7-2.1-2.2-2.2-4.7-.1-9.5-.3-14.2-.5-2.8-.1-5.1-1.5-7.1-3.2-4.7-3.7-7.8-8.7-9.8-14.2-2.1-5.9-3.6-12.1-5-18.2-.7-3.2-.8-6.6-1-9.9-.2-4.4-.1-8.9,0-13.3.2-8.9,1.5-17.6,4.3-26.1,1-3,2.5-5.8,3.6-8.8,1.3-3.5,4.4-4.3,7.5-4.9,4.2-.9,8.5-1.2,12.7-1.9.6-.1,1.5-1,1.4-1.5-.1-2.1-.6-4.2-.8-6.3-.5-5.9-.9-11.8-1.4-17.7-.4-4.9-.9-9.8-1.4-14.7-.4-4.8-.9-9.5-1.4-14.3-.6-6.5-1.2-13.1-1.8-19.6-.4-4.8-.9-9.5-1.4-14.3-.6-6.7-1.2-13.4-1.8-20-.4-4.8-.9-9.5-1.4-14.3-.6-5.5-1.3-10.9-1.8-16.4-.4-4.1-.6-8.1-.9-12.2-.5-5.6-1.2-11.2-1.8-16.8-.2-2-.3-4-.5-6-.5-5.8-.9-11.7-1.4-17.5-.4-4.7-.9-9.4-1.4-14.1-.6-6.6-1.2-13.2-1.8-19.8-.4-4.7-.9-9.4-1.4-14.1-.6-6.8-1.2-13.5-1.8-20.3-.4-4.6-.9-9.2-1.4-13.8-.6-5.5-1.2-11.1-1.8-16.6-.4-3.6-.6-7.2-.9-10.8-.6-6.1-1.2-12.3-1.8-18.4-.3-3.2-.7-6.4-.9-9.7-.5-6.3-.7-12.6-1.4-18.8-.8-6.4,2.5-10.2,7.3-13.4,8-5.5,17-8.9,26.4-11.4,4.4-1.2,9-1.9,13.5-2.8C57.02.03,67.02-.27,77.02.23c9.4.5,18.8,1.8,27.3,6.3,3.1,1.6,6.2,3.4,7.5,6.9.4.9.2,2.1.2,3.2,0,2.9-.1,5.8,0,8.8.1,1.9.6,3.9.9,5.8.6,5.5,1.3,11.1,1.8,16.6.4,3.6.6,7.2.9,10.8.5,5.2,1.2,10.3,1.8,15.5.4,3.4.6,6.9.9,10.4.6,5.2,1.2,10.5,1.8,15.7.4,3.4.6,6.9.9,10.4.6,5.2,1.2,10.5,1.8,15.7.4,3.5.6,7.1.9,10.6.6,5.2,1.2,10.3,1.8,15.5.4,3.2.6,6.5.9,9.7.6,5.7,1.2,11.4,1.8,17.1.4,3.5.6,7.1.9,10.6.6,5.1,1.2,10.2,1.8,15.2.4,3.4.6,6.9.9,10.4.6,5.2,1.2,10.5,1.8,15.7.4,3.4.6,6.9.9,10.4.6,5.2,1.2,10.5,1.8,15.7.4,3.4.6,6.9.9,10.4.6,5.2,1.2,10.5,1.8,15.7.4,3.4.6,6.9.9,10.4.6,5.4,1.2,10.8,1.8,16.2.4,3.4.6,6.8.9,10.1.6,5.3,1.2,10.6,1.8,15.9.4,3.4.6,6.8.9,10.1.6,5.3,1.2,10.6,1.8,15.9.4,3.4.6,6.8.9,10.1.6,5.3,1.2,10.6,1.8,15.9.4,3.4.6,6.9.9,10.4.1,1.7.3,3.4.5,5.1,0,.3.3.6.5.9.3-.2.6-.3.8-.5,3.5-2.8,6.9-5.7,10.4-8.4,5.8-4.4,11.6-8.7,17.4-13,1.3-1,2.4-2.2,3.9-2.8,2.1-.9,1.8-2.4,1.6-3.9-.8-5.2-1.8-10.4-2.7-15.5-1-5.7-2.2-11.4-3.2-17.2-.8-4.7-1.6-9.4-2.3-14.1-.2-1.5.3-3,2.1-3.3,1.8-.3,3.4,1,3.7,3.1,1,5.8,1.8,11.6,2.8,17.4.8,4.8,1.8,9.6,2.7,14.4.7,4,1.2,8,1.9,12,.8,5,1.8,9.9,2.6,14.9.7,4.1,1.2,8.2,1.9,12.2.8,4.9,1.8,9.8,2.6,14.7.7,4.1,1.3,8.1,2,12.2.6,3.9,1.3,7.8,1.9,11.8.7,4.1,1.4,8.2,2.2,12.3.9,5,1.8,9.9,2.7,14.9.7,4,1.3,8,1.9,12,.6,3.9,1.2,7.9,1.8,11.8.3,1.7,1.4,2.4,3.2,2.1,2.5-.5,5.1-1,7.7-1.4,3.1-.5,6.2-.9,9.3-1.4,3.9-.7,7.8-1.4,11.6-2.2,7.9-1.8,15.9-3.4,23.7-5.6,8.5-2.3,16.9-5.1,25.3-7.8,5.9-1.9,11.9-3.6,17.4-6.4,5.2-2.6,10.1-6.1,14.6-9.8,3.9-3.2,7.3-7.1,10.9-10.7,1-1,.8-1.7-.6-2.2-.8-.3-1.5-.8-2.2-1.3-3.8-2.6-4.3-3.8-3-8.1,3.2-10.5,6.4-21,9.5-31.5.2-.8.7-1.6.9-2.4.2-.5.1-1,.2-1.6-.5.2-1.1.3-1.5.7-2.2,1.9-5.8,2.3-8,.6-.8-.6-1.5-1.9-1.5-2.9-.1-3.3.2-6.6.4-9.9.1-1.3-.1-2.7,0-4,.7-6.2,7.5-6.9,11.5-5,1.9.9,2.7,3.6,2.1,5.8-.2.6-.4,1.1-.3,1.7.1.4.5.8.8,1.2.3-.3.9-.6,1-1,.4-1.6.5-3.3,1-4.8.4-1.2,1.1-2.5,2.1-3.1.6-.4,2.1.2,3,.7,1.3.9.8,2.2.4,3.6-3.3,10.9-6.4,21.9-9.6,32.8-2,6.9-4.1,13.8-6.1,20.8-.1.5.2,1.6.6,1.8,5.2,3.1,10.4,6.1,15.6,9.1,7.1,4.1,14.3,8.2,21.4,12.3,5.8,3.3,11.6,6.5,17.4,9.8,7.3,4.1,14.5,8.4,21.8,12.5,3.3,1.9,6.5,3.9,9.8,5.6.6.3,2.2-.3,2.5-.9,2.3-5.8,4.6-11.5,6.4-17.4,1.8-5.9,3.1-12,4.1-18.2,1-5.7,1.6-11.5,1.8-17.3.4-8.3.7-16.6.4-24.9-.3-7.3-1.1-14.7-2.3-21.9-1.6-10.3-4-20.4-7-30.4-3.5-11.5-7.9-22.7-13.7-33.1-3.9-7-8.7-13.5-13.5-20-5-6.7-11.2-12.3-18.4-16.6-5.6-3.4-11.4-6.2-18.1-6.5-2.6-.1-5.2-.1-7.8,0-2.1.1-3.6-.9-3.6-2.6-.1-2,1.5-3.3,4-3.4,6.7-.3,13.1.5,19.3,3,6.5,2.6,12.3,6.3,17.7,10.8,7.8,6.6,14.1,14.4,19.7,22.9,5.4,8.3,10.1,16.9,13.4,26.2,1.9,5.4,4.3,10.6,5.9,16.1,2.2,7.6,4.2,15.4,5.9,23.2,1.4,6.3,2.4,12.8,3.2,19.2.6,4.5.7,9,1,13.6.2,4.9.6,9.8.4,14.7-.2,6.7-.4,13.5-1.4,20.2-1.2,8.3-3.2,16.5-4.9,24.7-.1.5-.1,1.1.1,1.5,3.5,7.8,4.8,16.1,7.1,24.2,2.6,9,5.1,18,7.5,27,2.4,8.8,4.7,17.5,7.1,26.3,1.4,5.1,2.7,10.3,4.2,15.4.5,1.8.1,3.2-1.4,3.9-1.3.7-3.7-.9-4.1-2.5-2.8-10.4-5.4-20.9-8.3-31.3-2-7.4-4.3-14.7-6.3-22.1-2.6-9.4-5.2-18.9-7.7-28.3-.2-.6,0-1.4-.1-2-.1-.7-.5-1.3-.7-1.9-.5.6-1.2,1-1.5,1.7-1,2.5-1.8,5-2.8,7.5-.2.6-.7,1.1-.9,1.7-2,5.2-4.7,4.9-9.7,2.5-.9-.4-1.7-1.1-2.7-1.2-.8-.1-2.1.1-2.4.6-4.3,6.4-10.3,11.1-16.3,15.7-1.5,1.2-2.9,2.6-4.4,3.9-4.9,4-9.7,8-14.7,12-7.1,5.6-14.8,10.2-23.1,13.8-6.2,2.8-12.7,5.1-19.2,7.1-6.3,2-12.7,3.6-19.2,5-4.5,1-9.1,1.3-13.6,1.9-6.6.9-13.2,1.9-19.9,2.7-4.4.6-8.9.8-13.4,1.4-3.7.5-7.4,1.3-11.1,1.9-1.4.3-2.8.6-4.2.8-3.3.2-6.6.2-9.9.5-3.8.4-7.6,1.3-11.4,1.8-2.4.3-4.9.4-7.3.5-2.6.1-3,.4-2.4,2.8,2.3,9.2,4.6,18.5,7,27.7,1.3,5.1,2.5,10.2,4,15.2.4,1.3,1.5,2.8,2.7,3.3,8.3,3.6,16.8,6.5,25.9,7.6,4.7.6,9.4,1.4,14.1,1.8,5.9.5,11.8.8,17.7.9,6.9.2,13.8.3,20.6,0s13.7-.9,20.5-1.8c7.4-1,14.7-2.1,22-3.7,9.9-2.1,19.7-4.5,29.6-6.8,1.5-.9,2-1.1,2.7-1.2M39.22,383.53c-2.5-.2-4.9-.6-7.3-.4-3.7.2-7.4.6-11.1,1.4-2.3.5-4.9,1-5.9,3.7-3.9,9.9-5.9,20.2-6.4,30.7-.5,8.6,0,17.2,1.7,25.7,1.4,6.9,3.2,13.7,6.9,19.7,1.7,2.8,3.5,6.1,6.9,7,3.7,1,7.6,1.5,11.4,1.6,5.7,0,11.5-.2,17.2-.9,3.4-.4,6.9-1.7,10.1-3.2,3.8-1.7,4.2-5.2,1.2-8.1-1.4-1.4-2.9-2.7-4.2-4.2-1.2-1.3-2.6-1.8-4.3-1.8-5.4.1-10.5-1.2-15.5-2.7-1.7-.5-2.8-2.3-2.3-3.7.7-1.7,2.3-2.3,3.9-1.7,6.3,2.3,12.8,3.1,19.4,2.6,2.9-.2,5.8-1.2,8.6-2.3,2-.7,2.5-2.8,1.3-4.3-1-1.2-2.1-2.6-3.4-3.3-6.9-4-14.4-6.4-22.4-6.4h-14c-1.9,0-3-1-3-2.9,0-1.8,1.2-2.5,2.9-2.5,4.6-.1,9.2-.2,13.7-.5,3.6-.3,7.3-.7,10.8-1.4,4.2-.8,8.2-2.1,11.8-4.5,1.6-1.1,1.9-2.8.4-3.8-1-.7-2.1-1.2-3.2-1.7-4.9-2.3-10.2-2.6-15.4-3.2-5-.5-10.1-.5-15.1-1-2.6-.3-5.2-1-7.7-1.8-2.3-.8-2.7-2.4-1.4-4,1.3-1.7,3.1-1,4.8-.7,3.6.5,7.1,1.3,10.8,1.5,3,.2,6.1-.1,9.2-.4,4.7-.4,9.2-1.5,13-4.3,3-2.2,3.5-4.8.8-7.9-4.2-4.7-9.7-6.7-15.5-8.3-2.7-.9-5.5-1.4-8.7-2M188.82,391.03c-.2-1-.3-2-.5-3-.2-1.2-.4-2.4-.7-3.6-1.1.7-2.1,1.5-3.2,2.2-9.9,7.3-19.7,14.5-29.6,21.8-1.4,1-2.7,2.2-2.3,4.3.4,2.4.7,4.9.9,7.4.3,3.4.6,6.9.9,10.4.6,5.4,1.2,10.8,1.8,16.1.4,3.3.6,6.6.9,9.9.6,5,1.5,10,1.7,15,.2,3.9,1.1,7.2,4.4,9.7,3.4,2.6,6.2,6.2,10.8,7.1.9.2,1.9,0,2.9.3,8.5,2.4,17.4,2.4,26.1,3.1,2.6.2,3-.4,2.6-3-.9-5.5-1.8-11-2.7-16.5-1.3-7.6-2.8-15.2-4.1-22.7-1-5.8-1.8-11.7-2.8-17.6-1.1-6.7-2.5-13.3-3.6-20-1-6.8-2.1-13.7-3.5-20.9M334.12,393.33v2.3c.5-.4,1.1-.8,1.6-1.2.3-.2.6-.5.8-.8.5-.7,1-1.4,1.4-2-.9.2-1.8.3-2.6.5-.4.2-.6.7-1.2,1.2M335.52,382.83c-.2.2-.6.4-.6.6-.2,1-.3,1.9-.4,2.9.6-.5,1.3-1,1.9-1.5.2-.1.2-.4.3-.5.3-.4.6-.9.8-1.3-.6-.1-1.2-.3-2-.2Z"/>
  <path class="cls-1" d="M135.82,932.73c-1.7-4.2-3.4-8.1-5-12.1-2.6-6.4-5.2-12.8-7.8-19.2-2.5-6.2-5.2-12.3-7.7-18.5-2.6-6.4-5.2-12.9-7.8-19.4-4.2-10.5-8.5-21-12.8-31.5-3-7.3-6.1-14.5-9.1-21.8-2.5-6-4.8-12-7.4-18-1-2.3-2.6-4.3-3.9-6.4-.2-.3-.4-.6-.5-.9-.2-1.4-.8-3.1.9-3.8,1.4-.5,2.9-.8,4.1,1.3,2.9,5.3,7.2,9.4,12.6,12.1,4.7,2.3,9.7,4,15,4.6,4,.5,8,1.2,12,1.3,3.4.1,6.9-.4,10.4-.9,3.8-.5,7.6-.9,11.3-1.9,4.9-1.2,9.8-2.7,14.6-4.5,7-2.5,13.4-6.2,19.3-10.7,2.9-2.2,5.4-5,8.1-7.5,1.2-1.1,2.3-2.1,4-1.1s3.4,3.8,3.2,5.2c-.5,3.4-.9,6.8-1.4,10.2-.6,4.9-1.3,9.8-1.8,14.8-.4,3.2-.6,6.5-.9,9.7-.6,4.9-1.2,9.7-1.8,14.5-.4,3.2-.6,6.5-.9,9.7-.6,4.9-1.2,9.7-1.8,14.5-.4,3.2-.6,6.5-.9,9.7-.6,4.9-1.2,9.7-1.8,14.5-.4,3.2-.6,6.5-.9,9.7-.6,4.9-1.2,9.7-1.8,14.5-.4,3.2-.6,6.5-.9,9.7-.6,4.9-1.2,9.7-1.8,14.5-.4,3.2-.6,6.5-.9,9.7-.6,4.9-1.2,9.7-1.8,14.5-.4,3.2-.6,6.5-.9,9.7-.6,4.9-1.2,9.7-1.8,14.5-.4,3.1-.7,6.1-.9,9.2-.2,2.2-4.1,5.8-6,4.9-1.5-.7-2.8-2.6-3.5-4.3-3.5-8.3-6.8-16.7-10.1-25-3.2-7.9-6.4-15.8-9.6-23.7-.6-.3-1-.9-1.3-1.8M116.92,871.53c1.3,3.1,2.8,6.2,3.8,9.4.9,2.7,2.1,3.3,5,3.1,7-.7,14-.8,21.1-1,5.9-.2,11.9-.3,17.8-.5,1.9-.1,3.9-.2,5.7-.5.6-.1,1.5-.9,1.6-1.5.6-4.1,1-8.3,1.4-12.4.3-3.1.6-6.3.9-9.4.6-4.8,1.2-9.5,1.8-14.3.4-3.3.6-6.6.9-9.9.6-4.8,1.2-9.5,1.8-14.3.4-3.1.6-6.3.9-9.4.6-4.9,1.2-9.8,1.8-14.8.5-3.8.9-7.5,1.4-11.3.1-.5.1-1.1.1-1.6-.6.3-1.2.5-1.7.9-4.4,4.4-9.6,7.6-15.1,10.5-8,4.2-16.3,7.6-25.2,9.1-5.7,1-11.4,2.3-17.1,2.6-5.2.3-10.6-.3-15.8-.8-6.6-.6-13.1-2.2-18.9-5.7-.4-.3-1.1-.1-1.7-.2.1.5.1,1,.2,1.4,1.6,3.9,3.2,7.8,4.8,11.7,4,9.7,8.1,19.3,12.1,29,4.2,9.8,8.1,19.7,12.4,29.9M135.12,916.33c.2.5.3.9.5,1.4,1.7,4,3.5,8,5.1,12,3,7.4,5.9,14.7,8.9,22.1,2.5,6.3,5.1,12.6,7.6,19,.9,2.2,1.5,4.6,2.3,6.8.2.5.8.9,1.2,1.3.2-.4.6-.9.6-1.3.2-3,.3-6,.5-8.9.2-3,.6-6,.9-9,.6-4.9,1.2-9.8,1.8-14.8.4-3.1.6-6.3.9-9.4.6-4.9,1.2-9.8,1.8-14.8.4-3.1.6-6.3.9-9.4.6-5,1.2-10,1.8-15,.3-2,.4-4.1,1-6,.4-1.7.3-2.4-1.7-2.3-3.3.2-6.6.3-9.9.5-7.8.3-15.6.6-23.4.9-3.3.1-6.6.3-9.9.5-1.3.1-1.8.5-1.1,2,3.6,7.9,6.8,16,10.2,24.4Z"/>
  <path class="cls-1" d="M170.12,155.53c-.2-2.4-.4-4.7-.4-6.9,0-7.6,1.8-14.8,4.7-21.8,2.6-6.4,6.3-12.2,10.7-17.5.9-1,2-2.3,3.7-1.6,2.4.9,2.7,2.8,1,5.1-2.8,3.8-6,7.4-8.1,11.5-2.7,5.3-4.9,11-5.6,17.1-.3,2.6-.9,5.2-.8,7.8s.8,5.3,1.3,7.9c.1.5.9,1.1,1.4,1.1,2.9,0,5.8-.5,8.7-.3,4,.2,8.1.6,12.1,1.1,1.3.1,2.7.5,4,.8,4,.8,6.3,3.9,8.9,6.6,1.3,1.4,2.4,3.2,3.8,4.6.6.6,1.9,1.2,2.7,1,3.5-.5,6.6.1,9.8,1.5.3.1.8,0,.9-.2.3-.6.5-1.2.6-1.8.8-3.8,4.5-7,8.4-7.2,5.6-.3,11.2-1,16.8-.8s11.2,1.1,16.8,1.7c2.9.3,5.8.6,8.8.9,5.1.7,10,1.9,13.5,6,2.2,2.6,3.2,5.6,3.9,8.9,1.1,5.6-.3,11-1,16.4-.8,6-4.7,10.1-9.5,13.5-7.8,5.4-16.6,6.5-25.6,5.8-4.8-.4-9.6-1.1-14-3.5-9.2-5.1-14.9-12.7-17.5-22.8-.7-2.6-1.2-5.3-1.8-7.9-.7-3.2-5.6-6-8.8-4.9-1.4.5-1.6,1.8-1.3,3,1.4,5.3-.2,9.9-3.2,14.1-1,1.3-2.2,2.5-3.2,3.7-.2.3-.2.7-.3,1.1.4,0,.8.1,1.2,0,4.4-1.6,8.9-2.1,13.3-.1.8.4,1.8,2,1.6,2.5-.4.9-1.6,1.9-2.6,2-2.1.3-4.3,0-6.4.1-5.6.1-10.5,1.8-14.4,6-3.7,4-2.8,8.4,1,11.4,4.8,3.9,10.3,4.7,16.2,3.6,1.1-.2,2.4-.3,3.4.1.8.3,1.9,1.3,1.9,2,.1.8-.9,1.7-1.5,2.5-.3.5-.7.9-1.1,1.3.6.1,1.2.3,1.8.2,1.9-.2,3.8-.5,5.7-.6,2.7-.1,4.2,1.6,3.4,4-.7,2-1.9,4-3.2,5.7-.5.7-1.7,1-2.7,1.1-2.5.4-5,.6-7.5,1-2,.3-4,.6-6,.9-.9.1-1.7.4-2.6.4-1.3,0-2.6,0-3.8-.4-2.1-.7-4.2-1.5-6.2-2.6-1.7-.9-2-3.1-.6-4.3,2.1-1.8,4.5-3.4,7-4.6,1.1-.6,2.8.1,4.2,0,.4,0,.8-.4,1.3-.7-.4-.2-.7-.6-1.1-.7-3.1-.8-6.5-1.1-9.2-2.5-5.2-2.8-8.8-7-8.4-13.5.2-2.5.5-5,3-6.5.2-.1.3-.5.5-.8-.3-.2-.6-.5-.9-.5-.9.1-1.7.3-2.6.4-8.3,1.1-15.3-1.6-21.8-6.7-4.9-3.9-7-9.1-8.8-14.6-.6-1.8-.5-3.8-.5-5.7-.1-5.6,0-11.1,0-16.7,0-2.6,1.2-4.3,3.7-4.6,2.4-.2,2-1.4,1.3-3.1M235.42,189.53c1.4,3,2.5,6.2,4.2,9,2.9,5.1,7.4,8.7,12.8,10.6,3.6,1.3,7.6,1.8,11.5,2.1,6.4.4,12.7-.8,18.4-4.1,3.6-2.1,7-4.6,8.2-9,1.4-5.3,2.2-10.8,1.6-16.3-.3-2.6-1.1-5.3-3.3-7-2.9-2.3-6.4-2.9-10-3.3-3-.3-6-.6-9-.9-5.1-.6-10.1-1.5-15.2-1.7-4.4-.2-8.9,0-13.4.5-1.9.2-4.8.9-5.4,2.2-1.3,2.9-1.9,6.4-1.9,9.7-.2,2.5.9,5.1,1.5,8.2M208.92,192.73c3.5-3.8,4.7-7.9,3.4-13.2-1.5-5.7-4-10.6-9.1-13.2-3.4-1.8-7.6-2.3-11.5-2.5-6.4-.3-12.8.2-19.2.3-1.7,0-2.1,1.1-2,2.5,0,.4.2.7.2,1.1.1,5.4-.3,10.9.4,16.3.7,5.6,3.9,10.1,8.7,13.4,5.3,3.7,11.2,5.3,17.5,3.5,4.6-1.1,8.4-4.2,11.6-8.2Z"/>
  <path class="cls-1" d="M140.82,264.23c.7-3.1,3.1-3.5,5.4-4.1,8.4-2.3,16.8-4.5,25.2-6.9.6-.2,1.4-.5,1-2.1-1.3-4.8-2.1-9.7-2.8-14.6-1.3-8.5.4-16.8,3.2-24.8.4-1.1,1.5-2.4,2.5-2.7,2.3-.7,3.6,1.1,2.9,4-.7,3-2,6-2.3,9.1-.5,5.1-.7,10.3-.3,15.5.3,4.2,1.4,8.5,2.6,12.6,1.8,6.1,5.3,11.5,9.1,16.6,6.7,8.9,15.4,15.3,25.2,20.1,6.6,3.2,13.5,5.3,20.7,6.8,7.9,1.6,15.8,1.6,23.7,1.1,8.7-.5,17.1-2.8,25.3-6.2,10.8-4.4,20-11,27.7-19.6,6.6-7.4,11-15.9,13.2-25.6.3-1.4.6-2.8,1.1-4.1.6-1.5,1.7-2.3,3.4-1.8,1.7.6,2.1,2.1,1.9,3.5-1,6.3-2.9,12.3-6,17.8-2.7,4.8-6,9.3-9.4,13.7-6.7,8.6-15.6,14.6-25.3,19.3-6.8,3.4-14,5.7-21.5,7.1-2.8.5-5.7.9-8.6,1.4-1.4.2-2,.6-1.6,2.5.7,4.1.9,8.4,1,12.6,0,1.6.4,2.8,1.7,3.7,3.1,2.1,6.4,3.6,10.2,4.1,12.5,1.8,23.4-2.6,34-8.5,10.1-5.6,18.6-13.2,26.4-21.6,3.6-3.8,6.9-8,10-12.3,1-1.4.7-3.6.9-5.5.1-.8,0-1.7,0-2.5.1-6.9.3-13.7.5-20.6.1-3.9.1-7.8.5-11.7.1-1.3,1.2-2.5,2.1-3.6.2-.3,1.6.1,2.2.5,1.3,1,2.1,2.3,1.3,4-.2.4-.2.9-.2,1.3-.2,7.9-.3,15.9-.5,23.8-.1,4,.2,8.1-.6,11.9-.7,3.3-2.4,6.6-4.5,9.3-4.4,5.5-9,10.9-14,15.9-6.5,6.4-13.8,11.8-21.7,16.4-6.2,3.6-12.7,6.6-19.8,7.9-2.8.5-5.6.9-8.4,1.3-6,.8-11.8-.3-17.2-2.8-2.3-1-4.4-2.7-6.5-4.2-.5-.3-.9-1-1-1.6-.7-4.9-1.3-9.8-1.9-14.8-.1-1.2-.1-2.4-.5-3.4-.3-.7-1.4-1.3-2.1-1.4-4.4-.4-8.9-.4-13.3-1-6.8-1.1-13.5-2.8-19.9-5.3-7.4-2.9-14.4-6.7-20.5-11.6-6.5-5.3-12.5-11.2-16.7-18.6-.9-1.5-1.9-3-2.5-4.7-.6-1.4-1.6-1.5-2.7-1.3-8.8,2.5-17.6,4.9-26.3,7.5-2.3.6-4.6,1.1-6.3-1.8Z"/>
  <path class="cls-1" d="M321.82,25.73c-1.7-1.2-1.6-2.7-.7-4,1.3-1.8,3.2-.7,4.8-.3,3.6.9,7.1,2.2,10.7,2.9,2.3.5,4.9-.1,7.2.6,3.7,1.2,7.2,2.8,10.7,4.5,3,1.4,6,2.2,9.3,2.3,3.2,0,6,1.2,8.4,3.4,4,3.8,8.2,7.4,12.2,11.4,4.5,4.5,7.9,9.8,9.7,16.1,1.1,3.5,1.2,7,.5,10.6-.3,1.6-.4,3.4-.4,5.1,0,.5.6,1,1.1,1.4,6.3,4.2,8.3,10.8,9.9,17.6,2,8.6,2.7,17.4,2.2,26.2-.4,8.2-1.4,16.4-3.9,24.4-1.5,4.9-3.1,9.7-6.2,13.9-1.3,1.7-3,3.2-4.3,4.9-.3.3-.2,1.5.1,1.7,6.1,2.9,9.2,8,10.7,14.2,2.4,10.2-.6,19.4-5.8,28.1-5.7,9.5-13.6,16.5-23.4,21.4-6.5,3.2-13.5,5-20.8,4.3-2.7-.3-5.4-1.3-8-2.1-1.7-.5-2-2-1.7-3.3.3-1.2,1.4-2.2,2.9-1.8,2.2.4,4.4.8,6.5,1.4,3.8,1.1,7.5.1,11-.7,8.7-2.2,16.1-7,22.3-13.5,6.2-6.4,10.5-14.1,12-22.9,1-6.1.1-12.3-4.3-17.3-2.7-3-6.3-4.7-10.3-5.4-7.3-1.4-14,.6-20.5,3.7-5.7,2.7-10.6,6.8-14.9,11.4-1.2,1.3-2.5,2-4.1.8-1.7-1.3-1.8-2.9-.2-4.4,3.8-3.4,7.4-7.3,11.6-10,7.9-5.2,16.7-8.2,26.3-7.5.3,0,.6-.1.9,0,2.3.9,4,.9,5.3-1.8.7-1.5,2.7-2.3,3.8-3.7,3.1-3.8,4.7-8.4,5.9-13.1,1-4,1.8-8.2,2.3-12.3.7-5.3,1.4-10.6,1.3-15.9-.1-9.3-.8-18.6-4.5-27.3-1-2.3-2-4.9-4.9-5.6-.6-.1-1.3-.3-1.8-.1-1.5.5-2.6.2-3.8-.9s-1.1-2.2-.1-3c2-1.5,2-3.7,2.4-5.7,1.7-8.9-1.1-16.7-7.1-23.1-4.6-4.9-9.7-9.4-14.8-13.8-1-.9-2.8-1.2-4.2-1.2-4.5.1-8.5-1.3-12.4-3.3-4.9-2.5-9.8-4.2-15.4-4.2-4.9-.1-9.2-1.9-13.5-4.1Z"/>
  <path class="cls-1" d="M246.92,314.03c-.5,4.5-.7,8.7.7,12.8,2.4,7,7.5,11.2,14.4,13.2,5.6,1.7,11.3,1.7,17.1,1,9.7-1.1,18.7-4.4,27.1-8.9,7-3.7,13.3-8.3,19.3-13.6,5.9-5.2,10.9-11,15-17.5,2.3-3.8,4-7.9,6-11.9.4-.8.5-1.7,1.1-2.3.8-.9,1.8-1.5,3.3-.7,1.4.8,1.9,1.8,1.5,3.2-2.4,7.9-6.3,15-11.6,21.2-3.5,4-6.9,8.2-10.9,11.7-5.4,4.6-11.3,8.9-17.3,12.8-6.5,4.2-13.6,7.5-21.2,9.4-5,1.3-10.2,2-15.3,2.7-5.2.7-10.4.1-15.5-1.4-6.7-2-12.2-5.6-15.9-11.6-3.4-5.5-4.2-11.6-3.6-17.9.3-2.9,1.3-5.8,2.3-8.6.2-.7,1.9-1.6,2.4-1.4,1,.5,2.4,1.7,2.4,2.7-.1,1.5-.9,3.2-1.3,5.1Z"/>
  <path class="cls-1" d="M288.12,123.23c-4.6.6-9.1,1.4-13.6,1.7-8.7.5-17.4.9-26.1.9-7.7,0-15.4-.8-23.1-2.1-6.7-1.2-13.3-2.5-19.4-5.7-3.4-1.8-6.6-4.2-6.1-8.7.1-.9,1-2.3,1.7-2.4.9-.2,2.9.4,3,1,1.5,5.7,6.4,6.6,10.8,7.9,4.5,1.3,9.2,2.1,13.9,2.8,5.3.7,10.7,1.1,16.1,1.4,5,.3,9.9.6,14.9.4,6.1-.2,12.3-.6,18.4-1.4,7.6-.9,15.2-2,22.6-4.5,2-.7,3.9-1.6,5.9-2.2.9-.3,2-.6,3-.4,1.9.2,2.7,2.7,1.2,4.1-1.3,1.2-2.9,2.2-4.6,2.7-6,1.4-12.3,2.8-18.6,4.5Z"/>
  <path class="cls-1" d="M207.12,23.03c2.9,1.7,3.1,3.1.8,5.3-6.8,6.4-12.1,13.8-16.1,22.1-3.3,6.9-5.9,14-6.7,21.7-.3,3.2-1,6.5-.8,9.7.2,5.4.7,10.8,4,15.4,1.4,1.9,3.2,3.6,4.8,5.3.9,1,2.1,1.9,1,3.5s-2.7,1.4-4.1.6c-4.3-2.2-6.7-6-8.6-10.2-2.9-6.6-3.2-13.6-2.7-20.6.6-7.6,2.4-14.9,5.3-22,3-7.1,6.4-14,11.1-20,2.8-3.6,6.2-6.7,9.4-10,.7-.5,1.6-.6,2.6-.8Z"/>
  <path class="cls-1" d="M316.22,158.13c-.2-7.3,1.2-14.2,2.9-21.1.5-1.8-.7-2-1.5-2.5-3.7-2.6-6.9-5.7-8.4-10.1-.4-1.1-.4-2.5,0-3.5.3-.7,1.6-1.5,2.5-1.4.8,0,2.1.9,2.4,1.6,1.4,4.8,4.7,7.6,9,9.7,2.8,1.4,3.1,3.1,1.8,7.5-1.4,4.5-2.4,9.1-2.6,13.8-.3,6.2-.7,12.4-.4,18.5.4,7.2,1.6,14.3,4.5,20.9.4,1,.9,2.1,1.5,3,.8,1.4.1,2.4-1,2.8-.9.4-2.7.4-3.1-.2-1.5-2.1-2.9-4.4-3.8-6.9-1.9-5.2-3.1-10.6-3.3-16.2-.1-5.1-.4-10.5-.5-15.9Z"/>
  <path class="cls-1" d="M221.62,28.63c-2-.5-3.9-.8-5.8-1.3-1.6-.4-2.2-1.7-1.7-3.2.5-1.6,1.8-2.6,3.6-2.2,2.4.5,4.8.8,7.1,1.6,2.4.9,4.2,0,5.7-1.3,5.6-5.1,12.3-8,19.3-10.1,1.5-.5,3.1-1,4.6-.9,3.1.2,5.8-.6,8.5-2.1,3-1.7,6.3-1.5,9.6-.7,1.9.4,2.5,1.9,2.2,3.5-.3,1.7-2,2.4-3.4,1.9-2.8-.9-5.1-.2-7.4,1.2-2.1,1.2-4.2,1.9-6.6,1.7-4.3-.4-8,1.4-11.8,3-4.6,1.9-8.6,4.4-12.3,7.7-2.8,2.4-6.2,2.6-9.7,1.7-.6-.2-1.2-.3-1.9-.5Z"/>
  <path class="cls-1" d="M242.32,230.43c.7-1.8,1.9-2.5,3.7-2.3,2,.3,4,.6,6.1.8,1.7.1,3.4,0,5.1.1,2.9.1,5.8.3,8.8.5.5,0,1.3-.2,1.6,0,2.2,1.9,4.8.8,7.3.9,1.4,0,4.8,3.2,4.6,4.6-.3,1.8-1.3,3.3-3.5,3.6-3,.5-5.9,1.3-8.8,1.7-.9.1-1.9-.7-2.8-.8-1.8-.1-3.7,0-5.5-.1-3-.1-6.2,1-8.9.2-2.1-.6-3.8-3.2-5.5-5.1-1.2-1-1.6-2.5-2.2-4.1Z"/>
  <path class="cls-1" d="M267.02,159.63c-2.6-.3-5-.9-7.4-.8-3,0-6,.5-8.9,1-1.6.2-3.1,1-4.7,1.2-2,.2-3-1.1-3.6-2.8-.1-.3-.4-.6-.7-.8-.2.3-.5.5-.7.8-.2.4-.2,1-.5,1.4-.6.7-1.2,1.7-2,1.8s-2.2-.5-2.5-1.2c-1.5-2.9.8-9.7,4.4-10.6,2.6-.6,3.7-.2,5.2,2.1,2,3.2.7,3.2,5.6,2.3,3.6-.7,7.5-.4,11.2-.1,3.9.2,7.9.6,11.7,1.4,4.5.9,9.1,1.9,12.6,5.3,1,1,.9,1.9.3,2.9-.7,1-1.4,1.5-2.9,1-4.1-1.5-8.3-2.7-12.5-3.9-1.4-.6-2.9-.7-4.6-1Z"/>
  <path class="cls-1" d="M362.92,187.53c.2-3.1,2-5.1,3.9-4.5,1.4.5,2.4,2.3,2,3.9-.9,3.4-1.8,6.7-2.6,10.1-.1.5.3,1.2.5,1.8.5-.2,1-.5,1.4-.7,2.5-1.2,5-2.7,7.6-3.7,1.3-.5,2.9-.3,3.7,1.5.9,2-.4,3.1-1.7,3.9-2.2,1.3-4.7,2.2-7.1,3.3-1.7.8-3.6,1.4-5.1,2.4-.8.6-1.3,1.9-1.6,2.9-.9,3.2-1.6,6.5-2.3,9.8-.4,2-1.5,3.2-3.5,2.6-1.9-.5-2.3-2.3-2-3.9.8-4.2,1.8-8.4,2.7-12.6,1.2-5.4,2.4-10.7,3.7-16.1,0-.2.3-.3.4-.7Z"/>
  <path class="cls-1" d="M288.42,10.63h9.6c4,.1,7.8.6,9.8,4.9.9,2,3.5,1.4,5.3,2,1.7.6,3.5,1.3,5,2.2.5.3.9,1.7.7,2.2-.4.8-1.5,1.9-2.3,1.9-2.2-.1-4.4-.6-6.6-1-3.2-.5-5.8-1.7-7.3-4.9-.3-.7-1.7-1.2-2.6-1.2-4.2-.3-8.4-.2-12.6-.6-2.8-.3-5.5-1-8.1-1.8-1.5-.4-2.4-1.9-1.7-3.4.5-.9,2-2,2.9-1.9,2.6.2,5.1,1,7.9,1.6Z"/>
  <path class="cls-1" d="M315.42,384.93c.3-1.9.8-3.6.9-5.3.1-1.9.9-3,2.9-2.9,2.2.2,4.3.5,6.5.9,1.6.3,2.4,1.5,2.1,3.1-.3,1.6-1.3,2.2-2.9,1.9-.4-.1-.8-.1-1.1,0-.5.2-1,.6-1.5,1,.5.3.9.7,1.4.8.9.2,1.9.3,2.8.4,1.5.1,2.2,1,1.6,2.2-.5,1-1.5,2-2.5,2.5-.8.4-2.1-.2-2.9.2-.9.5-1.6,1.6-2.3,2.5.5.3,1,.8,1.4.8,1.2-.1,2.5-.8,3.6-.4.9.3,2.2,1.7,2.1,2.4-.1,1.2-1.1,2.8-2.1,3.2-1.4.6-3.2.1-4.8.2-.7,0-1.5.3-2.1.2-1.2-.1-2.6-.2-3.3-.9-.7-.6-.8-2.1-.8-3.2,0-2.4.3-4.8.5-7.1.1-.9.3-1.6.5-2.5Z"/>
  <path class="cls-1" d="M299.92,381.23v-3.3c-.1-2.4.9-3.6,3.3-3.6,3,.1,6,0,8.9.6,1.1.2,2.4,1.7,2.8,2.8.5,1.4-.6,2.6-2.2,2.8-1,.1-2.1-.2-3.1-.4-.8-.1-1.7-.5-2.4-.2s-1.2,1.1-1.8,1.7c.6.5,1.1,1.1,1.8,1.3,1.1.3,2.3.3,3.4.5,1.7.3,2.7,1.4,2.5,3.2-.2,1.7-1.3,2.4-3,2.3-1.2-.1-2.3-.3-3.5-.4-1.9-.2-2.8.5-2.7,2.5,0,1-.3,2-.4,3-.3,1.7-1.6,2.3-3,2.2-1.7-.1-2.6-1.3-2.4-3,.2-2.5.6-4.9,1-7.3.2-1.5.5-3,.8-4.7Z"/>
  <path class="cls-1" d="M215.32,146.83c.6,1.9,1.4,3.5,1.8,5.2s-.5,3.4-2.2,3.3c-1.1,0-2.8-1.3-3.1-2.4-1-3-2.6-5.5-5-7.5-3.5-3-7.5-4.7-12.2-4-1,.1-1.9.8-2.9,1.3-1.9,1.1-3.3.3-4.4-1.2-1-1.4.1-2.4,1-3.1,3.1-2.5,6.4-3.2,10.5-2.6,5.3.8,9.5,3.3,13.2,6.7,1.3,1.1,2.2,2.7,3.3,4.3Z"/>
  <path class="cls-1" d="M228.52,255.03c-.4,0-.8-.4-1.1-.3-1.9.3-2.7-1-2.8-2.4-.1-1.6,1-2.6,2.6-2.9.4-.1.7-.2,1-.2,4.4-.2,8.7-.3,13.1-.5,4.9-.2,9.8-.3,14.7-.4,2.4-.1,3.7.9,3.7,2.7s-1.3,2.7-3.7,2.8c-4.4.1-8.9.3-13.3.5-4.7.1-9.4.3-14.2.7Z"/>
  <path class="cls-1" d="M330.52,203.93c-2.4-1.6-2.5-3.9-2.2-6.2.2-1.4,1-2.3,2.7-2.6,3.3-.5,6.8-.7,9.7-3,1.3-1,3-1.8,4.5-.6.8.6,1.6,1.9,1.6,2.9,0,2-.9,3.7-2.6,5-3.8,3-8.4,3.6-12.8,4.8-.2.2-.5-.1-.9-.3Z"/>
  <path class="cls-1" d="M283.12,307.13c-1.4-1-1.4-2.4-.8-3.5.6-1.1,1.6-1.7,3.3-1.1,3.4,1.2,6.5,0,8.9-2.6,1.8-1.9,5-2.1,5.4.4.2,1-.2,2.4-.8,3.2-2.7,3.8-10.1,6.1-14.5,4.6-.5-.2-.9-.6-1.5-1Z"/>
  <path class="cls-1" d="M248.62,258.23c1.3-.6,2.5-1.5,3.7-1.4,2.3.2,3,2.4,1.7,4.3-3.2,4.4-11.4,6.1-15.9,3.2-1.3-.8-2.8-2.1-1.9-4,.9-1.8,2.7-2,4.4-1.1,2.8,1.4,5.4,1.1,8-1Z"/>
  <path class="cls-1" d="M255.42,176.23c3.6.6,6.7,6.1,6.9,9.5.2,2.8.5,5.7-1.1,8.4-2.1,3.6-5.7,3.8-8.1.5-3.4-4.9-3.6-10.3-2.5-15.8.4-2.3,2.7-2.7,4.8-2.6Z"/>
  <path class="cls-1" d="M203.12,190.83c-1.2,1.3-2.1,2.9-3.5,3.4-1.9.7-3.4-.5-4.4-2.3-2.2-4.1-4.1-8.2-2.8-13.1.3-1,.3-2,.5-3,.8-3.7,5-4,7-1.5,2.5,3.2,4.8,6.8,4.4,11.2-.1,1.7-.7,3.4-1.2,5.3Z"/>
</svg>