<?xml version="1.0" encoding="UTF-8"?>
<svg id="Contours" xmlns="http://www.w3.org/2000/svg" viewBox="0 0 504.83 745.07">
  <defs>
    <style>
      .cls-1 {
        fill: #3f3f3f;
        stroke-width: 0px;
      }
    </style>
  </defs>
  <path class="cls-1" d="M276.42,292.56c-6.1,6.8-13.5,11.6-22,13.3-10.2,2.1-20.6,2.6-30.9-.7-6.1-2-12.4-3.4-17.7-7.1-7.7-5.5-13.8-12.5-17.5-21.4-2.2-5.3-3.9-10.8-4.1-16.6-.1-3.7-.4-7.5-.7-11.2-.2-3.6-4.9-8.5-8.6-9-5.5-.8-6.5-.1-6.2,5.7.5,9.6-4.9,15.8-11.6,21.4-.4.3-.9.6-1.3,1-.4.5-.8,1.1-1.1,1.7.8.2,1.6.6,2.3.5,6.4-.8,12.7-.9,18.7,2.2,2.4,1.2,2.9,2.6,2,4.9-1,2.4-2.8,2.8-5.1,2.2-8-2-16-2.5-23.9.4-6.2,2.2-12,8-11.2,13.7.7,5.4,3.9,8.8,8.4,11.4,5.6,3.3,11.6,4.7,18,4.8,1.6,0,3.3.1,4.8.7,1.1.4,2.2,1.6,2.6,2.7.6,1.7-.1,3.2-1.9,4.1-.8.4-1.3,1.2-1.9,1.8.9.1,1.9.2,2.8.3,2.6.1,5.4-.3,7.9.4,4.3,1.2,5.8,3.5,3.3,8.1-1.4,2.4-3.4,4.5-5.3,6.6-.6.7-1.9,1.1-2.9,1.1-4.3.1-8.7,0-13,0h-13.7c-1,0-2.2-.2-3.1-.7-3.2-1.8-6.4-3.7-9.4-5.8-2.4-1.7-2.2-5.4.4-7,2-1.2,4.1-2.2,6-3.4,3-1.8,6.1-2,9.4-.8,1.1.4,2.5-.2,3.8-.3-1.1-.6-2.1-1.5-3.3-1.8-6.3-1.6-11.7-4.5-16.1-9.4-5.4-6-7.3-15.7-2.9-22.9.9-1.4,2.5-2.3,3.7-3.5.3-.3.5-.8.7-1.2-.5-.3-.9-.7-1.4-.7-2.3-.1-4.6,0-6.9,0-10-.3-18-5-25-11.6-6.2-5.8-9.9-13.2-11.3-21.7-1.4-8.1.2-16,1.4-24,.6-3.9,1.1-7.7,1.3-11.6.3-4.4,2.7-7.3,7.1-7.6,2-.1,2.5-.9,2.4-2.7-.7-15,4.1-28.5,11.2-41.4,5.4-9.9,12.6-18.5,21.4-25.7,2.8-2.3,4.7-1.4,6.6.8,2,2.4.3,4.2-1.4,5.5-7.2,5.6-12.7,12.6-17.4,20.2-6.2,10.1-11,20.7-11.6,32.8-.1,2.6-.1,5.3,0,7.9.1,3.2,1.6,4.3,5,4.5,11.2.4,22,2.5,32.5,6.5,6.4,2.4,9.2,7.7,13.1,12.2,1.7,1.9,2.2,4.7,3.6,6.9.6,1,2.1,2.1,3.2,2.1,5.2,0,10,.9,14.3,4.1,1.2.9,2.4,1.2,2.9-1.1,1.1-5.6,7.1-10.3,12.7-10.3,15-.1,29.7,2.1,44.1,6.4,8.8,2.6,17.9,4.8,26.5,7.9,8.8,3.2,14.2,10.2,14.9,19.8.8,11.3-2.9,21.5-6.9,31.7-.1.8-1,1.6-1.7,2.9M231.72,298.36c3.6.1,7.2.2,10.8.3,8.3.2,15.9-2,22.5-6.9,2.4-1.7,4.7-4.3,5.8-6.9,2.4-6,4.4-12.3,5.7-18.6,2.1-10.1-.9-18.2-11.6-21.7-5.2-1.7-10.4-3.2-15.7-4.5-7.8-2-15.6-3.9-23.4-5.6-3.8-.8-7.7-1.2-11.5-1.6-4.5-.5-8.9-1.1-13.4-1.1-3.1,0-5.1,2.1-6.3,4.9-4.1,9.5-3,19.3-1,28.9,2,9.8,7.1,17.6,15,23.9,6.6,5.4,14.5,7.2,23.1,8.9M121.52,211.96c-1-.2-2.1-.5-3.1-.7-4-.5-8-.9-12-1.4-2.6-.3-4.1.4-4.3,3.5-.3,4.8-1.5,9.6-1.9,14.4-.5,5.4-1.6,11.1-.5,16.3,2.3,10.5,8.7,18.4,18.9,22.7,5.9,2.5,12.1,4.2,18.2,1.9,5.5-2.1,10.9-5.1,15.6-8.7,5.2-4,8.9-9.3,8-16.6-.3-2.4-.3-4.8-.7-7.2-1.2-7.9-5.3-14.4-12.1-18.2-7.6-4.2-16.5-5.5-26.1-6Z"/>
  <path class="cls-1" d="M319.12,357.66c-3.9,10.3-8.7,19.9-15.7,28-5.7,6.6-12.1,12.6-18.9,18-11.5,9.2-24.8,15.5-39.1,19.2-6.6,1.7-13.3,3-20.1,3.9-7.2.9-14.5,1.1-21.8,1.4-2.3.1-3.1,1.2-3.1,3.4,0,4.1.1,8.1,0,12.2,0,1.9-.1,4-.7,5.8-2.2,5.9,2.9,7.5,6,9.7,6.5,4.7,14.1,6.6,22.2,6.9,16,.7,30.9-3.7,45.2-10.2,12.8-5.8,24.7-13.3,35.4-22.4,4.9-4.1,9.2-9.2,14.4-12.8,6.2-4.2,6.5-10.4,7.6-16.5,1.3-7,2.7-14,4-21.1,1-5.8,1.8-11.7,2.8-17.5.6-3.6,1.4-7.1,2.2-10.6.8-3.1,3.7-2.7,5.4-2,1.3.6,2.6,3.3,2.4,4.8-1,7.3-2.6,14.5-3.9,21.7-1.8,9.5-4.3,19-5.3,28.6-1.2,11.5-8.4,18.5-16.5,25-8.4,6.8-16.8,13.6-25.8,19.6-13.6,9.1-28.3,16-44.5,19.3-6.8,1.4-13.7,2.6-20.5,2.6-11.2,0-22-2.6-31.3-9.4-2.4-1.8-4.6-4-6.4-6.4-.9-1.2-.7-3.2-.8-4.8-.3-2.6-.7-5.2-.6-7.8.1-5,.5-10,.6-15,.1-3.7-1-4.8-4.6-5.2-11.5-1.5-22.3-5-33-9.4-9.2-3.8-17.9-8.4-25.4-14.5-8.7-7.2-16.9-15.3-24.1-24-7.4-8.8-12.2-19.3-15.3-30.5-2.1-7.6-3.5-15.2-4-23.1-.9-13.7,2.5-26.4,7-39,.9-2.4,2.2-4.8,3.5-7,1.3-2.1,3.5-3.1,5.7-1.9,1.9,1,3,2.7,1.7,5.5-2.4,5.2-4.3,10.7-6.2,16.1-3.4,9.6-4.2,19.7-3.3,29.7,1.6,17.8,8.5,33.7,19.6,47.8,11.3,14.3,25.5,24.5,41.8,32.2,10.2,4.8,21,8.3,32.1,9.8,10.4,1.4,21.1,2,31.6,1.3,17.2-1.2,33.6-6,48.7-14.7,18.4-10.6,32.5-25,41.1-44.6,1.2-2.8,2.2-5.7,3.7-8.3,1-1.8,2.6-2.7,5-1.4,2.4,1.4,2.2,3.2,1.8,5.4-.3.6-.5,1.2-.6,2.2Z"/>
  <path class="cls-1" d="M430.02,262.96c5.9,6,9.4,12.8,10.4,21,1.4,10.9-1.2,20.7-6.8,29.8-3.5,5.7-7.1,11.7-11.8,16.4-10.8,11-23.7,19.2-39,22.6-5.9,1.3-12.1,2-18.1,2-6.8,0-13.4-1.9-19.4-5.3-2.6-1.5-3.7-4.2-2.5-6.1,1.7-2.6,4.1-2.7,6.4-1.3,5.4,3.2,11.4,4.5,17.4,4.5,8.4,0,16.7-1.7,24.5-5.2,10.2-4.6,19.1-10.9,26.6-19.1,7.2-8,13-17.1,14.3-27.9,2.2-16.9-5.2-28.2-22.2-32.2-10.2-2.4-20.3.1-30,3.7-7.9,3-14.8,7.6-21.5,12.7-2.2,1.7-4,1.5-5.8-.4-2-2.1-1.3-4.5.5-5.7,6.2-4.4,12.4-9.2,19.2-12.4,6.8-3.2,14.2-5.1,21.6-6.7,4.6-1,9.6-.5,14.4-.1,3.3.3,6.5,1.8,9.8,2.4,1.4.3,3.1.6,3.4-1.9.1-1,1.3-2.3,2.3-2.7,6.6-2.5,9.9-8.2,12.9-13.9,6.2-11.6,9.9-24,12.6-36.8,2.7-12.8,3.8-25.6,3.2-38.6-.3-6.3-1.2-12.7-4.2-18.6-1.7-3.4-4.1-4.8-7.8-4.8-1.4,0-3.2-.6-3.9-1.6-.7-.9-.8-3.4-.1-3.9,5.5-4.2,5.3-10.6,6.6-16.3,2.7-11.9-3.1-21.5-9.1-30.8-3.2-5-7.6-9.2-11.1-14.1-4.3-6-10-8.7-17.2-10-4.1-.7-8.1-3.5-11.6-6-7.3-5.2-15.2-8.3-24-10.2-5.6-1.2-10.7-4.6-15.9-7.2-2.8-1.4-2.8-3.8-1.1-6.2,1.6-2.1,3.7-1.5,5.6-.7,4.1,1.8,7.9,4.3,12.1,5.8,3.5,1.3,7.5,1,10.9,2.4,5.4,2.2,10.9,4.7,15.5,8.2,5.9,4.3,12.5,6.5,19.4,8.2,2,.5,4.1,1.5,5.5,3,5.1,5.4,10.1,10.8,14.6,16.6,3.8,4.9,7.4,10.2,10.3,15.7,3.9,7.4,6.1,15.5,5,24-.6,4.6-1.9,9.1-2.8,13.7-.2.9.1,2.4.7,3,7.1,6.4,9.4,14.9,10.2,23.9.6,7,.7,14,.7,21.1,0,11.3-2.1,22.3-4.9,33.2-2.7,10.9-6.4,21.4-12,31.3-3.7,6.5-7.7,12.6-14.1,16.7-3,2-2.8,2.8.3,4.8Z"/>
  <path class="cls-1" d="M449.32,464.56c-8.5-10.2-17.9-19-30-24.5-5.9-2.7-12-4.3-18.5-5.2-13.3-1.8-25.4,1.7-37,7.6-3.1,1.6-4.8,0-6.4-2.1-1.5-2,.2-3.5,1.6-4.3,4.2-2.3,8.5-4.5,13-6.2,9.6-3.8,19.9-4.6,30-3.5,12.1,1.3,23.2,6.1,33.1,13.2,10.4,7.5,19.3,16.5,26.2,27.3,5.8,9,11.3,18.3,16,27.9,6.6,13.9,11.7,28.4,15.3,43.4,2.1,8.6,4.3,17.2,6,25.9,1.3,6.7,2.1,13.4,2.7,20.2,1.1,10.6,1.9,21.1,2.7,31.7.4,5.5.6,11.1.7,16.7.1,9.9.2,19.7,0,29.6-.2,8.5-.7,17-1.4,25.5-.7,8.1-1.6,16.2-2.7,24.3-1.4,9.5-3,19-4.8,28.5-.4,2.3-1.9,4.6-4.5,4.5-1.2,0-3-1.6-3.4-2.8-.6-1.8-.4-4.1-.1-6,1-6.7,2.3-13.3,3.3-19.9,1.2-8,2.3-16,3.4-24,.4-3.2.5-6.4.7-9.5.3-5.7.6-11.3.7-17,.3-13.6.8-27.1.6-40.7-.1-9.5-1-19.1-2-28.6-.8-8.3-1.9-16.5-3.4-24.7-2.2-11.7-4.4-23.4-7.5-34.8-2.7-10.1-6.4-19.9-10.1-29.7-5.1-13.4-11.6-26.1-20.4-37.6-1.2-1.7-2.4-3.4-3.8-5.2Z"/>
  <path class="cls-1" d="M41.82,506.56c-7.8,13-13.5,26.8-17.7,41-3.7,12.5-6.5,25.4-9.1,38.2-1.9,9.5-3,19.2-4.1,28.8-.7,5.9-1.1,11.8-1.4,17.7-.6,14.6-1.3,29.2-1.3,43.8,0,10.3,1.2,20.7,1.9,31,.2,2.5-2.1,5.5-4.3,5.6s-4.3-2.4-4.5-5.4c-.3-3.3-.6-6.6-.7-9.9-.3-17.9-.7-35.7-.6-53.6.1-9.7,1-19.3,2-29,.8-8.6,1.8-17.2,3.4-25.7,2.2-11.5,4.9-23,7.8-34.4,4.4-17.8,11.3-34.6,20.2-50.5,4.7-8.3,10.6-16,16.2-23.8,7.5-10.3,17-18.5,27.6-25.6,11.9-8,25-13.2,39.1-16.1,10.8-2.2,21.6-1.9,32.4-1.8,3.5,0,7.2.4,10.6,1.5,1.6.5,3.7,2.8,3.8,4.4.2,2.4-1.8,3.8-4.7,3.6-7.4-.6-14.8-1.4-22.1-1.3-22.1.2-42,7-59.6,20.5-14.1,10.8-25.3,24.2-34.2,39.6-.3.4-.4.8-.7,1.4Z"/>
  <path class="cls-1" d="M323.62,561.06c-1.6.3-3.9.5-4.1,1.3-.6,2-.3,4.3-.2,6.5,0,.3.8.7,1.3.8,4.4.3,8.8.6,13.3.6.7,0,1.7-1.3,2-2.2.9-2.7,1.3-5.5,2.2-8.3.6-1.8,5-3,8.1-2.4,1.5.3,3,.7,4.5.6,3-.2,4.1,2,4.9,4,.6,1.6-2.7,4.1-5,4.2-4.9.1-6.2,1-6.5,4.4-.3,2.5,1.1,3.4,3.1,3.7,3.4.5,7.1-1.1,10.3,1.4.3-.8.9-1.5.9-2.3,0-1.9-.6-3.9-.3-5.7.6-3.8,2.1-7,7-6.2.3.1.8-.3,1.1-.6,4.8-3.6,9.2-2.8,11.8,2.7,1.2,2.5,1.4,5.7,1.2,8.5-.1,2.2-1.2,3.5,2,4.5,4.1,1.4,5.7,8,4.7,12.8-1.9,9.4-9.5,11.7-17,14-4.5,1.4-9.8-3.3-9.8-8.1v-13c0-.8-.5-1.6-.8-2.4-.6.4-1.1.9-1.7,1.3-2.6,2.4-5.8,2-8.9,1.7-1.1-.1-3.1.1-3.3.6-.6,1.7-.9,3.6-.6,5.4.1.7,1.8,1.4,2.9,1.6,1.5.3,3.2.2,4.7,0,2.9-.3,4,1.7,4.3,3.9.3,2.4-1.2,4.2-3.7,4.3-4.2.2-8.4.4-12.5-.2-1.5-.2-3.6-2.7-3.8-4.4-.6-4.1-.3-8.4-.1-12.6.1-2.3-.6-3.2-3-3.1-3.2.2-6.3.1-9.5,0-1.9-.1-2.6.7-2.5,2.5.3,3.4.5,6.8.7,10.2.1,2.6-.2,5.2-3.6,5.5-2.8.3-4.9-1.9-5.2-5.4-.3-3.1-.5-6.1-.7-9.2-.5-6.4-1.1-12.7-1.3-19.1-.1-3.4.3-7,3.4-9.4.4-.3.9-.9,1.3-.9,5.1.2,10.2.3,15.3.7,2.2.2,3.7,1.7,3.6,4.1-.1,2.7-2.1,3.6-4.2,3.9-2.1.5-4.1.1-6.3-.2M367.22,591.76c.6,1.2,1.3,2.3,1.9,3.5,3-2.4,7.6-2.7,8.6-7.7.5-2.6-.5-3.3-2.4-3.5-6.7-.9-8.1.4-8.1,7.7M371.22,568.76c-1.1-.6-2.2-1.3-3.3-1.6-.3-.1-1.2.9-1.3,1.4-.4,1.8-.6,3.6-.7,5.4,0,.6.4,1.3.6,1.9.7-.3,1.6-.4,1.9-.9,1.1-1.8,1.9-3.7,2.8-6.2Z"/>
  <path class="cls-1" d="M275.72,489.76c-10,4.1-19.9,7.3-30.2,8.8-7,1-14.1,2.2-21.2,1.9-12.7-.5-25.2-2.7-35.8-10.7-8.3-6.2-13.5-14.1-15.2-24.6-1.5-9.8.5-18.8,4.2-27.5.7-1.6,2.2-3.6,3.7-4,3.8-1.1,5.7,2.4,4.3,7.1-1.7,5.5-4.2,11.1-4.5,16.7-.5,9.9,2.9,18.7,11.3,24.9,9.3,6.9,19.9,9.2,31.3,9.6,23.6.7,44.9-6.7,65.1-17.8,11.6-6.4,22.3-14.4,31.3-24.3,5.7-6.3,11.2-12.8,14.7-20.6.6-1.2,1.8-2.5,3.1-3,1.2-.5,3.4-.5,3.9.1.9,1.2,1.5,3.4,1,4.7-3.1,8.6-8.7,15.7-14.8,22.3-13.2,14.6-29.1,25.7-46.9,34-1.6.8-3.3,1.6-5.3,2.4Z"/>
  <path class="cls-1" d="M292.62,173.36c-10.7,0-21,.1-31.3,0-3.6,0-7.3-.4-10.9-.7-12.1-1-24.1-2.9-36.1-5.2-11.1-2.2-22-5.2-32.5-9.1-8-2.9-15.8-6.5-21.8-12.9-2.4-2.6-3.7-5.4-3.7-9,0-3.1,1.9-4.7,4.2-5,2.3-.3,3.9,1.3,4.1,4.3.3,4.4,3.7,6.8,7.3,8.7,12.1,6.6,25,10.8,38.5,13.3,9.1,1.7,18.1,3.8,27.2,5.3,4.8.8,9.8,1.1,14.7,1.4,9.4.6,18.8,1.5,28.2,1.2,11.4-.3,22.9-.8,34-4.5,2.3-.8,4.8.2,5.6,2.3.9,2.2.1,4.7-2.6,5.4-5.1,1.3-10.2,2.6-15.4,3.6-2.9.7-6.1.6-9.5.9Z"/>
  <path class="cls-1" d="M141.02,83.36c-.6,6.1-1.3,12-1.5,17.9-.2,8.7,2.7,16.2,8.9,22.4,1.7,1.7,1.8,3.5.5,5.3s-2.6,2.1-5,.7c-7.6-4.4-10-11.8-11.9-19.4-1-4-1.6-8.2-1.3-12.3.8-12.2,3.6-24,8.5-35.4,4.7-10.9,11-20.8,18.2-30,6.6-8.6,14.7-15.7,23.8-21.7,1.9-1.2,4.6-1.8,6.1.8.6,1.1.8,3,.3,4-.8,1.5-2.2,2.9-3.7,3.8-7.5,4.7-13.2,11.2-19,17.7-7.1,7.9-12.5,17-16.8,26.6-2.9,6.2-4.7,12.9-7.1,19.6Z"/>
  <path class="cls-1" d="M328.02,220.26c-1.1,5.3-2.1,10.5-2.9,15.6s-1.6,10.3-2,15.4c-.3,4.8-.1,9.7-.1,14.6,0,7.1,1.6,13.8,3.5,20.5.4,1.3-.2,4.1-1,4.4-1.5.5-4.4.3-5-.6-1.9-2.8-3.7-6.1-4.1-9.4-1.1-7.7-2.3-15.5-2-23.2.5-14.1,1.9-28.1,6.4-41.7,1.6-5,3.6-9.8,5.1-14.8.3-1.1-.2-3-1.1-3.8-4.4-4.4-8.5-8.9-10.2-15.1-.5-2-.8-4.3-.3-6.2.4-1.8,2.3-3.4,4.4-2.5,1.4.6,3.3,2.1,3.5,3.5.9,6.4,4.4,10.9,9.6,14.3,4.9,3.2,4.9,6,2.9,10.9-2.4,5.9-4.3,11.9-6.7,18.1Z"/>
  <path class="cls-1" d="M203.02,10.86c2.8,1.2,5.6,1.9,8,3.4,3.6,2.3,6.9.9,9.4-1,6.9-5.2,15-7,22.9-9.3,3.4-1,6.8-1.7,10.3-2,2.5-.2,5,.6,7.5.5,2.5,0,5.4.2,7.5-.9,5.2-2.6,10.1-1.5,15.2,0,2.5.7,4.4,4.2,3.3,5.9-1.2,2-2.7,3.1-5.7,2-3.8-1.4-7.8-1.1-11.9.7-2.6,1.2-6,1-9,1.1-4.2.2-8.6-.7-12.6.2-6.2,1.4-12.2,3.7-18.1,6-3.2,1.3-5.9,3.7-9.1,5-4.6,2-9.2,1.2-13.7-.9-2.6-1.2-5.5-2-8.3-2.8-1.9-.6-4.5-4.3-3.5-5.6,1.3-1.7,2.6-4.4,5.7-2.6.5.4,1.3.1,2.1.3Z"/>
  <path class="cls-1" d="M231.52,325.96c2.7,2.4,5.6,2.5,8.9,2.3,2.8-.2,6.9,5.2,6.8,7.7-.1,2.4-3,5-7,5.3-4.5.3-9.1.3-13.6,0-1.9-.2-3.7-2-5.7-2.5-4-1-8.3,1.2-12.2-1.4-6.6,2.6-9.1-2.2-11.8-6.6-1.1-1.8-1.7-3.8-2.7-5.6-.9-1.7-.9-2.9.6-4.3s2.7-2,4.9-1.5c4.4,1.1,9,1.6,13.5,2.5,3,.6,5.9,1.7,8.8,2.3,3.2.6,6.3,1.1,9.5,1.8Z"/>
  <path class="cls-1" d="M263.52,220.76c3.2,1.9,6,3.8,8.8,5.8,2.4,1.7,3.1,4.3,1.1,6.1-1.3,1.1-4.4.9-6.2.1-4.1-1.7-7.8-4.8-12-6.2-7.3-2.5-14.8-4.9-22.5-6.2-6-1-12.2-.2-18.4-.2-3.6,0-4.7-1-5.1-4.5-.1-.6-.6-1.1-.9-1.6-.6.5-1.6,1-1.7,1.6-.3,3.2-2.3,4.2-5,3.8-2.8-.4-2.4-2.8-2.5-4.9-.2-4.1,3.8-10.4,8-11.5,3.6-1,7.8.6,8.2,4.1.5,4.2,2.3,4.8,6.1,4.4,7.9-1,15.6.6,23.1,3,6.3,1.8,12.4,4,19,6.2Z"/>
  <path class="cls-1" d="M402.42,300.06c-.1,4.9-4.1,5-6.9,6-4.9,1.6-10,2.5-14.8,4.3-1.7.6-3.1,3-3.9,4.8-1.8,3.9-3,8-4.5,12-.3.7-.7,1.3-1,2-1.2,2.5-3.5,3.6-5.7,2.6-1.7-.9-2.9-2.9-1.9-5.7,5.2-13.3,10.1-26.7,15.2-40.1.9-2.4,2.2-4.7,3.6-7,.9-1.4,2.1-1.7,3.9-.8,2,.9,2.9,2.2,2.3,4.1-1.1,3.8-2.6,7.5-3.9,11.2-.6,1.6-1.4,3-1.8,4.6-.2.8.1,1.8.2,2.7.8-.2,1.6-.4,2.4-.6,3.9-1.2,7.8-2.6,11.7-3.5,2.2-.4,4.3.6,5.1,3.4Z"/>
  <path class="cls-1" d="M337.42,22.26c3.7,1.6,7.3,2.9,10.5,4.9,1.2.7,1.6,2.8,2.4,4.3-1.9,1-4.2,3.1-5.8,2.7-4.2-1.1-8.2-3.1-12.1-5.1-1.8-.9-3.7-2.6-4.4-4.4-1.8-4.6-5.5-5.4-9.5-5.7-8.4-.7-16.5-2.7-24.2-6.2-1.3-.6-2.5-2.1-2.9-3.4-.3-1.1.2-3.5.9-3.8,1.7-.7,4.1-1.2,5.6-.5,7.4,3.7,15.4,4.7,23.4,5.8,5.7.8,11.1,2.3,13.4,8.7.4,1,1.5,1.8,2.7,2.7Z"/>
  <path class="cls-1" d="M139.72,181.66c-2.5.9-4.6,2.1-7-.3-2-2.1-1.3-3.5.1-5,3.8-4,8.9-4.4,13.7-3.5,7.2,1.3,13.7,4.7,18.7,10.3,4.5,5.1,7.9,10.8,8.2,17.9.1,2.4-.6,4.7-3.6,4.8-2.9.1-4.2-1.5-4.5-4.3-1.2-9.4-10.2-18.9-19.9-20-1.9-.3-3.7-.1-5.7.1Z"/>
  <path class="cls-1" d="M167.52,354.76c-2.6-.6-4.3-2.1-4.1-4.5.2-2.5,2-3.9,4.9-3.5,9.2,1,18.4,1.9,27.7,2.7,4.8.5,9.6.9,14.3,1.4,2.6.3,4.7,1.1,4.5,4.3-.2,2.9-2,4-4.7,3.8-8.3-.9-16.6-1.9-25-2.7-5.9-.5-11.7-.9-17.6-1.5Z"/>
  <path class="cls-1" d="M327.02,291.76c1-2.4,2.4-3.4,4.9-3.3,5.7.4,11.1-.4,16.3-3,2.3-1.2,4.2,0,5.7,1.7,1.6,1.9,1.1,5.4-1.1,7.8-3.9,4.2-9.1,5.6-14.6,6.4-1.9.3-3.9.4-5.8.7-2.7.4-5.7-1.5-5.9-4.2-.1-2,.2-4,.5-6.1Z"/>
  <path class="cls-1" d="M254.02,445.06c-5.9,2.1-11.2,2.4-16-2-1.5-1.4-2.3-2.9-1.3-4.6,1.2-2.1,3.5-3,5.5-2,5.5,2.6,10.3,1.3,14.7-2.1,2.4-1.8,4.5-2.1,6.5.2,2,2.3.7,4.5-1.2,5.9-2.4,1.8-5.2,3.1-8.2,4.6Z"/>
  <path class="cls-1" d="M180.32,362.56c1.6.1,3.3.1,4.5.8,4.7,3,9.2,2.9,13.9-.1,2.1-1.4,4.7-1.9,6.3.8.6,1.1.7,3.4-.1,4.2-6.1,6.9-17.5,7.9-25,1.7-2.5-2.2-2.4-4.6.4-7.4Z"/>
  <path class="cls-1" d="M231.02,268.86c-1.9,5.3-7,9-11.5,5.3-1.9-1.5-3.5-4.1-4-6.5-1.3-5.9-1.2-11.8.5-17.8.8-2.8,2.4-5.2,4.9-5.2s5.7,1.1,7.1,2.9c4.8,6.3,6,13.4,3,21.3Z"/>
  <path class="cls-1" d="M144.42,232.76c4.1,8.4,4.8,16.4-.8,24.2-3,4.1-7.7,4.1-10.2-.4-4.4-8.2-4.4-16.7-.8-25.2,1-2.3,2.4-4.1,5.4-3.9,3.5.2,5.3,2.1,6.4,5.3Z"/>
</svg>