<?xml version="1.0" encoding="UTF-8"?>
<svg id="Contours" xmlns="http://www.w3.org/2000/svg" viewBox="0 0 354.86 588.9">
  <defs>
    <style>
      .cls-1 {
        fill: #3f3f3f;
        stroke-width: 0px;
      }
    </style>
  </defs>
  <path class="cls-1" d="M106.46,318.92c4.2-.8,4.5-2.7,2-5.7-.7-.8-.9-2.3-1.6-2.5-5.1-1.4-6.5-6.1-9-9.8-1.6-2.4-2.8-5-3.9-7.7-.6-1.5-2.5-3.3-.2-5.1.1-.1-.2-1.1-.4-1.2-3.5-.7-5.5-3.5-7.8-5.8-2.1-2-4.4-3.8-6.6-5.7-4.4-3.7-8.7-7.5-13.1-11.2-2.7-2.4-5.5-4.7-8.2-7.1-2.6-2.2-5.5-4.1-7.7-6.7-6.5-7.2-13.9-13.6-18-22.6-.9-2-2.4-3.8-3.2-5.9-.4-.9.3-2.3.4-3.4.9.6,2.3,1,2.8,1.9,6.1,11.7,14.5,21.6,24.2,30.3,5.5,4.9,11.2,9.7,16.9,14.4.7.6,2.2.5,3.3.2,3.4-.9,6.2-2.8,8.6-5.5.6-.7,2-.6,3-.8,0,1,.4,2.5-.1,3-2,2.1-4.1,4.4-6.6,5.6-2.1,1-2.1,1.9-1,3.1,1.8,2.2,4,4.1,6,6.1,2.4,2.3,4.7,4.6,7.2,6.7,1.3,1.1,2.9,2,4.4,2.9s3.2,1.7,4.6,2.7c2,1.6,3.7,3.5,5.8,5,1.3,1,2.7,1,2.7-1.4,0-.7.5-1.7,1.1-2.1.3-.2,1.3.5,1.9.9.5.3.8.9,1.3,1.2.5.3,1.1.3,1.6.5.1-.7.3-1.4.3-2.1,0-1.1-.2-2.2-.4-3.3,1.2.1,2.3.2,3.5.3.9.1,2.3.5,2.5.2.5-.8.8-2.2.5-2.9-1.2-2.5.2-2.7,2.1-2.6,1.2,0,2.3.2,3.5.3-.2-1.8.1-4-.7-5.4-2.9-5-7.3-8.6-13-9.8-5.6-1.2-11.4-1.5-17-2.6-3-.6-6.1-1.8-7.8-5-5.7-10.2-11.5-20.3-17.2-30.5-1.1-2-1.4-4.4-2.2-6.6-.5-1.3-1.3-2.5-1.8-3.8-1.7-5-.3-9.5,5.4-12.4,5.7-2.8,11.7-5.2,17.6-7.6.9-.4,2.3.4,3.4.6-.7.9-1.1,2.2-2,2.7-3.5,1.8-7,3.4-10.6,4.8-3.7,1.5-5.1,3.8-4.2,8,1.2,5.4,2.7,10.8,3.5,16.3,1.4,9.3,5.6,17.4,10.2,25.4,1.9,3.3,5.1,4,8.3,4.5,5.9,1.1,12,1.4,17.7,3.2,5.5,1.7,10,5.6,13.2,10.5,2.4,3.8.5,11.3-3.2,13.9-3.5,2.4-7,4.9-10.7,7-6.9,4-12.5,2.6-16.8-3-.2-.3-.2-.8-.5-1-.8-.5-1.7-1-2.5-1.4,0,.9-.4,2.1,0,2.8,2.3,3.8,4.5,7.7,7.3,11.1,1.4,1.6,4.1,2.6,6.3,2.7,8.4.4,16.7-1.1,24.9-2.9,8.4-1.9,17-3.4,25.2-6.2,6.4-2.2,12.1-6.2,18.2-9.1,3.8-1.8,7.2-3.9,10.1-7,4-4.4,6.1-9.5,6.8-15.3.2-1.6.4-3.2.6-4.9.8-8.9-2.4-16.8-5.3-24.9-1.8-5-2.7-10.4-3.7-15.6-1-5.1-1.8-10.3-2.5-15.5-.5-3.4-.8-6.9-1.1-10.4-.3-2.7-.6-5.5-.5-8.2,0-.9,1.1-1.8,1.7-2.7.6.8,1.4,1.5,1.8,2.4.8,1.9.8,4.5,2.1,5.6.9.7,3.5-.9,5.4-1.2,4.3-.7,8.7-1.5,13.1-1.9,5-.4,10.1-.4,15.1-.7,8.9-.4,17.5-2,25.7-5.5,7.6-3.3,14.1-14.4,12-22.5-.9-3.5-4.2-6.5-6.5-9.6-1.9-2.6-5-4.9-5.7-7.8-2-8.4-7.8-12.2-15.4-14.1-2-.5-4.1-.3-6.1-.7-5.6-1-10.1,5.6-9.5,11,.1.6.6,1.1.9,1.7.5-.3,1.1-.5,1.4-.9,1.2-1.5,2.2-1.5,3,.3.2.3.4.6.6,1,.5.8,1.1,1.7,1.6,2.5.5-1,.9-2.1,1.5-3,.4-.7,1.2-1.2,1.8-1.7.6.7,1.2,1.3,1.8,2.1.6.9,1.2,1.8,1.7,2.8.6-.8,1.3-1.5,1.9-2.3s.9-1.9,1.7-2.6c.5-.4,1.7-.6,2.3-.3.4.2.3,1.4.4,2.2,0,.1-.2.1-.2.2,0,1.3.1,2.6.2,3.9,1-.8,2.1-1.6,3.1-2.4.8-.6,1.8-1.7,2.4-1.6,1.6.5,1.3,1.9.8,3.3-1.1,3.2-4.1,4.5-7.3,3.8-2.9-.7-5.9-1.4-8.8-1.1-3.9.3-6.9-2.1-10.5-2.6-.4-.1-.9-.3-1.3-.5-.6-.3-1.1-.6-1.7-1,0,.8-.1,1.5,0,2.3.1.6.3,1.3.6,1.8,1.5,3,2.3,3.2,4.9,1.6,1.5-.9,3.4-3.3,3.6.9,0,.3.5.8.8.8,4.1.8,8.1,1.8,12.3,2.4,3.3.5,6.3-.6,8.6-3.2.8-.9,2-2.5,3.5-.6.4.5.5,1.6.2,2.2-1.6,3.5-5,4.8-8.3,5.2-5.6.7-11.2.3-16.2-2.9-1.5-1-2.7-.3-4.2-.3-5.2.2-10.2,2.7-15.5,1-1.4-.4-3,.1-4.5-.1-6.7-.7-13.4-1.4-20.1-2.4-5.3-.8-10.6-2-15.9-2.9-2.5-.4-4.8-.1-5.9,2.8-1.2,3.1-4.2,3.4-7.1,4-7.9,1.7-15.6,1.1-23-2.1-3.7-1.6-6-4.5-7.7-8-.3-.6-.7-1-1.1-1.6-.3.7-.8,1.4-.8,2.1-.1,5.5,3.6,10.6,8.8,11.7,5,1,10.1,1.6,15.2,1.8,3.1.1,6.3-1.2,9.5-1.7,1.1-.2,2.9-.5,3.1-.2.7,1.5-.4,2.3-1.7,3.1-6.6,3.8-13.7,2.9-20.7,2-2.1-.3-4.1-.9-6.1-1.2-6.4-1-9.7-5.1-11.1-11.1-.9-3.7-.7-6.6,2.2-9.8,3.5-3.9,5.8-8.9,8.4-13.6.4-.8-.1-2.2-.5-3.2-1.7-4.3-3.3-8.7-5.4-12.8-1.1-2.3.4-2.9,1.4-4.1,1,.9,2.4,1.6,2.8,2.7,2.1,5.9,4.5,11.7,8.5,16.7,1.7,2.1,3.5,4.2,5.1,6.3.6.8,1,1.9,1.5,2.9-1.3.2-2.9,1-3.8.5-1.5-.8-2.8-2.3-3.9-3.7-1.6-2-2.9-2-4.4.1-1.1,1.6-2.2,3.1-3.4,4.6-2.2,2.7-1.9,5.5.1,8,2.6,3.3,5.8,6,10.1,6.8,3.8.7,7.7,1,11.5,1.2,2,.1,4.4.2,6-.7,2.1-1.2,3.6-3.3,5.3-5.1,0-.1-.6-1.1-1.1-1.3-2.2-.8-4.4-1.4-6.6-2.2-1.6-.6-3.1-1.7-2.2-3.4.4-.8,2.7-1,4-.8,2.8.4,5.4,1.8,8.2,2,9.9.7,17.1-4.1,22.5-11.9,2.2-3.1,3.7-6.7,5.5-10,.8-1.5,1.7-3.5,3.9-2.5,2.1,1,1.1,2.5.5,4.3-2.3,6.3-6,11.7-10.6,16.4-3.3,3.4-7.2,6.1-12.2,6.9-.6.1-1,.7-1.5,1.1.6.4,1.3,1.2,2,1.2,4,.5,8.1.8,12.1,1.3,6.1.7,12.2,1.7,18.3,2.3,3.4.3,6.8.1,10.2,0,.3,0,1-1.3.8-1.9-.7-2.6-1.3-4.9,1.3-7.1,1-.9.5-3.3,1.1-4.9,1.3-3,2.6-6,4.4-8.7,2.8-4.4,7.5-4.2,11.9-3.7,3,.3,5.9,1.6,8.9,2.5,6.9,2.3,10.8,7.2,12.7,14,.8,2.9,1.8,5.4,5,7,5.2,2.6,8.7,13.5,7.8,19.4-2.1,12.5-10.5,18.3-21.4,22-6.2,2.1-12.7,2.7-19.2,3.1-9.2.6-18.6.1-27.7,2.9-1.3.4-2.7.2-3.9.7-3.3,1.1-3.8,2.7-3.2,6.3,1,5.8,1.6,11.6,2.5,17.4,1,7.2,2.9,14.1,5.6,20.9,1.9,4.8,3.3,10,3.9,15.2.6,5.1-.2,10.3-.5,15.4,0,.9-.5,1.8-1,2.6-1.6,3-3.5,6-5,9.1-.5,1.1-.5,2.6-.5,3.9,0,1.9.4,3.9.4,5.8,0,.5-.6,1.1-1,1.6-.5-.4-1.2-.8-1.3-1.3-.4-1.4-.4-2.8-.7-4.2-.1-.6-.5-1.2-1-1.7-.1-.1-.8.4-1.2.6l-7.5,4.5c-4.1,2.3-8.4,4.6-12.5,6.9-5.2,3-10.7,4.8-16.5,6-9.8,2-19.6,4.1-29.4,6-2.5.5-5.2-.1-7.8.1-1.3.1-3.4,1-3.5,1.6-.2,2.9,2.1,5.2,4.3,4.9,11-1.6,21.8-3.4,32.6-6.3,7.8-2.1,15.3-4.9,23-7.1,3.7-1,7.6-1.5,11.1-3,5.3-2.1,10.6-4.4,14.2-9.1,1.3-1.7,2.7-1.2,3.7.9,1.9,3.8,3.9,7.6,6,11.3.5.8,1.5,1.3,2.2,2,1.8,1.9,3.7,3.8,5.3,5.9,2.6,3.4,6.6,3.6,10.1,4.6,9.7,2.7,19.5,4.7,29.2,7.4,10.4,2.8,20.8,5.9,31.2,9.1,5.8,1.8,8.1,6.7,9.3,12.2,1.6,7.8,3.4,15.5,4.8,23.3.8,4.7.8,9.5,1.3,14.2.5,5.1,1,10.2,1.8,15.2.8,4.6-1.6,7.9-3.9,11.4-.7,1.1-1.4,2.3-1.5,3.6-.5,7.2-.8,14.3-1.3,21.5-.4,5.3,1.2,5.4,5.6,6.2,5.2,1,10.5,1.3,15.5,2.5,6.3,1.6,11.9,5.2,11.5,12.2-.2,4.4-2.6,7.4-6.2,9.1-4.9,2.4-10.1,3.5-15.8,3.5-6.6-.1-13.2-1.1-19.7,1-.6.2-1.4-.3-2.1-.6-5-2-8.6-5.7-9.7-10.9-.5-2.5.6-5.4,1.1-8.2.7-3.8,1.1-7.4.1-11.4-1.3-4.6-1.2-9.5-2-14.3-.9-5.2-2.2-10-5.1-14.8-3.4-5.4-5.1-11.9-7.4-17.9-2.1-5.3-4.1-10.5-6.2-15.8-2-4.9-6.1-6.9-11-7.3-5.7-.4-11.5-1-17.2-.5-7.9.6-15.7,2-23.6,3.4-5.8,1-11.6,2.3-17.4,3.7-3.7.9-5.9,2.8-6.1,7.8-.4,8.7,2.1,16.8,3.8,25.1,1.2,6.2,2.3,12.5,3.6,18.7,2,9.5,3,19.1,2.3,28.8-.6,8.4-1.9,16.8-2.9,25.3-.5,3.8-1.1,7.6-1.8,11.3-1.1,5.5-2.6,11-3.6,16.5-.9,4.9-2.4,9.8-1.2,15,.6,2.5-1.4,3.3-3.3,3.8-1.3.3-2.7.7-4,.6-2.9-.3-2.9,1.3-2.9,3.4-.1,4.4-.6,8.7-.5,13.1,0,3,.9,5.7,3.8,7.7,2.4,1.7,4.2,4.3,6.5,6.3,1.2,1.1,2.8,2.1,4.3,2.6,5.6,1.9,10.7,7.9,10.5,13.7-.1,2.2-1.3,5.1-3,6.4-7,5.3-14.9,8.5-23.9,7.5-1.5-.2-3.6-1.1-4.4-2.3-4.9-7.4-9.8-15-14.2-22.7-1.3-2.3-1.8-5.4-1.8-8.2-.2-8.5-.1-16.9-.1-25.4,0-3.7.7-7.2-1.5-11-1.5-2.7-.3-6.9-.3-10.5,0-5-.1-10,0-15.1.1-4.2.6-8.5.5-12.7,0-6.1-.2-12.3-.6-18.4-.5-8.1-2.3-15.9-5-23.5-3.1-8.4-6.3-16.9-10.1-25-5.5-12.1-11.7-23.9-15-36.9-2.2-8.7-4.2-17.6-6-26.4-1.6-8.1-3-16.3-4.2-24.5.1-2.2.9-4.7,1.3-7.2M254.26,368.12c1.4,1.7,3.3,3.2,4.1,5.1,4,9.5,7.7,19.1,11.5,28.6,1.2,3.1,1.9,7,6,7.4,5.5.4,10.8,1.1,16.5-.3,5.3-1.3,7.6-6.7,7-10.5-.4-2.8-.9-5.7-1.2-8.5-.5-5.4-.4-11-1.3-16.3-1.5-9.2-3.4-18.4-5.4-27.6-1.1-4.9-3.7-8.5-9.2-9.6-4.3-.9-8.3-2.6-12.5-3.9-4.9-1.5-9.7-3.4-14.7-4.4-11-2-21.8-4.7-32.5-8-4.5-1.4-9.1-2.5-11.3-7.5-.6-1.4-2.6-2.3-3.9-3.5-1-.9-2.4-1.8-2.9-3-1.1-2.5-2.5-1.8-4.2-.9-8.4,4.4-16.9,8.8-25.2,13.2-.6.3-1.3,1.5-1.2,2.3.3,2.5,1,5,1.5,7.5,1.2,6.2,2.3,12.5,3.5,18.7,1.2,5.7,2.5,11.4,3.6,17.1.2.9-.8,2.1-1.2,3.1-.8-.9-2-1.7-2.2-2.8-1.2-4.6-2-9.2-3.2-13.8-.3-1.1-1.6-2.2-2.6-2.6-4-1.4-7.4-3.4-10.1-7-2.2-3.1-2.3-6.5-3.1-9.9-1-4.5-2-9-2.7-13.6-.1-.8,1.1-1.8,1.7-2.7.6.5,1.7.9,1.8,1.4,1.1,5.6,2.1,11.2,3.1,16.8.9,5,3,9,8.1,10.7.6.2,1.2.4,1.9.6.1-.8.4-1.6.3-2.3-.3-1.7-.8-3.3-1.2-4.9-1.6-7.5-3.1-15-4.7-22.5-.4-1.8.1-3,1.8-3.3.4-.1,1.4,1.4,1.7,2.3.4,1.8,1,2.4,2.8,1.3s3.8-2.1,5.6-3.1c6.4-3.4,12.8-6.9,19.3-10.2,1.9-1,1.6-2.3.9-3.6-.7-1.4-1.5-1.1-3-.2-3.8,2.5-7.7,5.1-12,6.7-7,2.6-14.2,4.6-21.3,6.7-6.4,1.9-12.9,3.8-19.4,5.4-5.8,1.4-11.6,2.7-17.5,3.6-5.2.8-10.5.8-15.7,1.4-.9.1-1.9,1.6-2.2,2.7-.5,1.7.8,2.1,2.3,2,1-.1,2.1.2,3,0,5.5-1.6,11.1-1.9,16.7-1.8.8,0,1.6.1,2.4-.1,6-1.3,11.9-2.8,17.9-4,1-.2,2.3.8,3.4,1.2-.9.8-1.8,2-2.8,2.2-4.3,1-9,1.1-13.1,2.6-8.3,3-17.1,1-25.4,3.4-3.1.9-3.9.9-3.3,4.3,1.2,7,2.2,14.1,3.7,21.1,1.8,8.4,3.4,17,6.2,25.1,3.5,10,8.2,19.7,12.4,29.5,3.8,9,7.9,17.8,11.2,27,3,8.2,5.1,16.8,5.6,25.7.4,6.4.6,12.9.6,19.3,0,7.1-.3,14.3-.6,21.4-.1,2.8-.3,5.7-.6,8.5-.5,4.7,1.6,9.5,5,10.8,6.4,2.4,13,3,19.7,1.9,1.7-.3,3.1-.8,3.2-3.5,0-4.3.9-8.6,1.7-12.8,1-5.5,2.5-10.8,3.5-16.3.7-3.5.9-7,1.4-10.6,1.1-8,2.9-15.9,3.3-23.9.4-7.7-.3-15.6-1.1-23.3-.8-6.9-2.4-13.6-3.8-20.4-1.3-6.8-2.8-13.5-3.9-20.3-.4-2.5.4-5.2-.1-7.6-2.1-9.6,1.8-12.3,8.8-14.2,5.1-1.4,10.3-2.5,15.4-3.4,8.1-1.4,16.2-2.9,24.3-3.8,5-.5,10-.3,15,0,4.3.3,8.7,1.2,12.9,3.9M159.66,574.12c2.3,5,6.3,7.5,11.8,6.9,2.1-.2,4.1-1.3,6.2-1.7,4.2-.9,8.4-1.5,11.5-5,1.6-1.7,1.7-3.4.6-4.9-1.3-1.7-2.9-3.7-4.8-4.1-6.6-1.5-9.9-7.2-14.3-11.2-4.7-4.3-11.3-5.4-15.1-.4-1.8,2.5-4.6,5.2-2.6,8.9,2.1,3.8,4.3,7.5,6.7,11.5M292.76,449.42c2.4-1.1,4.7-2.2,7-3.3.5-.2.9-.6,1.3-.9-.5-.3-.9-.7-1.5-.8-1.6-.5-3.9-.3-4.8-1.4-2.5-3-5.5-1.9-8.2-1.6-3.9.5-5.7,2.9-6,6.8-.1,1.8-.5,3.6-1,5.3-1.8,6.5,2.4,12.1,9.2,11.9,4.8-.1,9.7-.4,14.5-.6.6,0,1.3-.3,1.8-.6,5.1-3,10.7-5.1,14.5-10.2,3.1-4.2,3.6-4.4-1.5-6-4.3-1.4-9-1.7-13.5-2.3-.5-.1-1.2,1.5-1.6,2.4-.1.1.9,1,1.4,1.1,2.5.1,3.3,1.9,3.2,3.6-.1,1.1-1.8,2.1-2.9,3-.5.4-1.4.5-2.1.7-3,.6-6,1.2-9,1.7-.4.1-1-.5-1.4-.8-.8-.7-1.5-1.7-2.4-2.1-1.8-.7-1.2-1.8-.6-2.7,1-1.1,2.2-1.9,3.6-3.2M293.06,426.92c1-4.5-.4-9.3,2.1-13.6,0-.1-.7-.8-1.1-.8-.8-.1-1.6.1-2.3.1-3.7.2-7.4.7-11,.4-4.4-.4-5.1.2-3.8,4.4.1.3.1.5.2.8,1.1,6.7,3.4,13.2,3.1,20.1,0,.5,1.3,1.5,1.7,1.4,2.2-.5,4.2-1.5,6.4-1.9,4.4-.8,4.5-.7,4.5-5.5-.1-1.7-.1-3.4.2-5.4M166.86,539.82c-.2-1.1-.6-2.2-.6-3.4,0-1.7.3-3.4.6-5.2.3-2.4-1.2-2.9-3.1-3.2-3.5-.6-7-.9-10.3-1.9-2.1-.7-2.2-.1-2.2,1.5-.2,7.7-.4,15.5-.6,23.2,0,.8.5,1.6.7,2.4.5-.6,1.1-1.2,1.6-1.8,2-2.6,4.4-4.6,7.9-4.7,1.9,0,4.9.7,5.5-.3,1.1-1.4.5-3.9.5-6.6M75.96,219.92c0-2.1.1-4.3,0-6.4,0-.6-.6-1.2-.9-1.7-.5.3-1.3.5-1.4.9-.5,1.7-1.6,3.6-1.2,5.1,1,3.6,2.6,7.1,4.1,10.6.2.6.9,1,1.4,1.5.1-.7.5-1.6.3-2.2-.6-2.4-1.5-4.8-2.3-7.8M317.46,460.92c-1.3.7-2.7,1.4-3.9,2.2-.4.3-.6.9-.9,1.4.4.1.9.3,1.3.3,4.4.2,10.2-4.3,11.3-8.6.2-.9.2-1.9.2-2.8-.9.6-1.8,1.2-2.6,1.9-1.7,1.7-3.4,3.5-5.4,5.6M175.66,582.92c-2.3.4-4.7.8-7,1.2-.6.1-1.1.4-1.7.6.6.4,1.1,1.1,1.7,1.2,5,.3,9.9-.6,14.5-2.7.5-.2.8-.6,1.2-.9-.5-.2-1-.6-1.4-.5-2.2.2-4.5.7-7.3,1.1M293.66,454.02c-.3-.3-.7-.5-1-.8-.2.5-.5,1-.7,1.4.5-.1,1-.2,1.7-.6Z"/>
  <path class="cls-1" d="M156.06,76.32c1.3,1,2.5,2,3.9,2.4,2.8.8,5.8,1.1,8.5,2s3.8,3.4,3.8,6.1c0,2.1-.3,4.3-.6,6.4-.4,2.8,1.1,4.6,4,4.8,2.5.2,5.1.1,7.6.7,1.3.3,3.3,1.7,3.4,2.7.2,1.9-1.9,2.2-3.5,2-4-.6-8-1-11.9-1.9-3.3-.7-4.9-4.2-4.3-7.5.4-2.4.9-4.9.5-7.3-.4-2.6-3.1-2.7-5.2-3.2-2.3-.6-4.9-.4-7-1.4-1.6-.8-3.2-2.6-3.7-4.3-.8-2.6-2.5-3.6-4.7-4-4.9-.8-10-1-14.9-2-2.5-.5-4.9-1.8-7.1-3.2-1.9-1.3-.1-2.6.6-3.9,2-3.4,4-6.8,5.9-10.2.3-.5.5-1.3.5-1.9,0-1.9.8-3.5,2.6-2.9,1,.3,2.3,2.5,2.1,3.6-.8,5-3.6,9.2-6.8,13.1-.3.3-.3.8-.5,1.3.5.2,1.3.6,1.6.5,3.9-2.7,7.8.4,11.7.1.6,0,1.3.5,1.9.5,1.2,0,2.4-.1,3.6-.1-1-.7-1.9-1.8-3.1-2.2-1.9-.6-3.9-.7-5.8-1.3-1.1-.4-2.1-1.3-3.1-2,1-.7,2-2.1,2.9-2,2.6.2,5.4.6,7.6,1.8,4.8,2.4,8.6,5.9,8.7,11.9.2.5.6.8.8,1.4Z"/>
  <path class="cls-1" d="M25.76,214.42c-2.7-9.4.5-16.7,6.8-23.6,8.2-8.9,18.9-13.8,28.8-19.9,8.7-5.3,17.6-10.2,26.4-15.3,6.9-4,13.7-8.1,20.6-12.1.6-.4,1.4-.9,2-.9,1,.1,1.9.6,2.8,1-.5.8-.7,1.9-1.4,2.4-2.9,1.9-5.9,3.6-8.9,5.4-14.7,8.7-29.3,17.3-44,25.9-4.1,2.4-8.7,4.1-12.4,7-5.2,4.1-10.2,8.5-14.4,13.6-3.3,4-4.7,9.3-2.8,14.8.3.9-.3,2.1-.5,3.2-.9-.5-1.8-.9-3-1.5Z"/>
  <path class="cls-1" d="M202.56,83.72c-1.1,1.9-.9,3.2,1.2,3.9,2.6.8,3.3,3.2,3.4,5.1.4,6,.8,12.1-3.5,17.2-1.8,2.2-4,3.7-6.9,3.7-.7,0-1.9-.5-2.1-1-.2-.6.3-1.6.7-2.3.3-.5.7-1.1,1.3-1.3,5.8-2.2,6-7.4,6.4-12.3.1-1.2-.1-2.6-.6-3.6-.9-1.7-2.5-1.6-4.1-1-3.6,1.2-3.4.9-3.2-2.7.3-4-.2-8.1-.5-12.1-.2-2.8-.7-5.5-1.2-8.2-.6-3.8-1.3-7.5-1.8-11.3-.2-1.7-.3-3.9,1.7-4,.9-.1,2.7,2,2.9,3.4,1.1,5.2,1.8,10.5,2.5,15.8.2,1.7-.5,3.4-.5,5.2,0,.8.6,1.7,1,2.5.5-.6,1.3-1.1,1.6-1.8,1.8-4.6,3.6-9.1,5.3-13.7.5-1.3.5-2.8,1.1-4,.6-1.1,1.7-2.6,2.6-2.6,2.4,0,2.4,2.1,2.1,3.7-.6,2.5-1.3,5.1-2.4,7.4-2.1,4.5-4.5,9.2-7,14Z"/>
  <path class="cls-1" d="M187.96,87.72c.1-1.2-.1-2.1.3-2.9,1-2.3-.4-2.9-2.1-3.1-3.1-.3-6.3-.6-9.4-.6-3.5.1-4.3-2.9-5.5-4.9-1-1.7.8-3.5,2.5-4.8,4.4-3.6,9.1-3.2,13.9-1.7.8.2,1.7.8,2,1.5.6,1.1.8,2.4,1.2,3.7-1.1-.1-2.2,0-3.2-.4-3.1-1.1-6.3-2-9.5-.5-1,.5-1.8,1.4-2.8,2.2,1,.3,2,.6,3,.8,3.7.5,7.5,1,11.2,1.2,3,.1,3.3,2,3.1,4.1-.3,3.5-.6,6.9-1.2,10.3-.2,1.1-1.3,2.1-2,3.1-.7-1.4-1.6-2.7-1.9-4.1-.2-1.2.3-2.4.4-3.9Z"/>
  <path class="cls-1" d="M8.36,149.62c1.6.5,3.4.8,4.4,1.9,3.1,3.3,6.1,6.8,8.6,10.5.9,1.4.4,3.8.2,5.6-.1.7-1.2,1.3-1.8,2-.8-.9-2.3-2-2.2-2.8,1.1-5.7-2.7-8.7-6.2-11.9-.5-.5-2.4-.6-2.5-.3-1.7,3.1-3.5,6.2-4.5,9.5-1,3.6,2.2,5.8,3.8,8.6,1.8,2.9,3.5,6.1,2,9.7-.5,1.1-1.8,2.7-2.8,2.7-1.7,0-2.1-1.7-1.9-3.3.2-1.2.6-2.5.5-3.7-.1-1.6-.5-3.2-1.2-4.6-.9-1.7-2.5-3.1-3.5-4.9-1.4-2.4-1.9-4.8-.1-7.4,2.5-3.6,4.7-7.6,7.2-11.6Z"/>
  <path class="cls-1" d="M124.76,77.52c1-1,2-1.7,3-2.4.6,1.2,1.6,2.3,1.8,3.6.4,2.9.3,5.9.8,8.8.2,1,1.2,2.5,2,2.6,4.6.6,9.3.9,13.9,1.3,2.3.2,3.5-.5,3.9-2.8.2-.9.6-1.9,1.3-2.4.7-.5,2-.7,2.8-.4.4.2.7,1.6.6,2.4-.2,1.5-.6,2.9-1.2,4.3-.9,2.3-2.1,4-5.1,3.7-6.5-.7-13-1.2-19.4-1.9-2.2-.2-3.6-2.9-3.8-6.5-.2-3.3-.4-6.7-.6-10.3Z"/>
  <path class="cls-1" d="M264.06,71.02c2.6-2,5-3.9,7.5-5.6,2-1.3,3.2-.3,3.8,1.8.8,3,1.4,6.1,2.5,8.9.7,1.8,2,3.8,3.6,4.7,2.1,1.1,2,2.7,1.6,4.1-.4,1.3-1.4,3-2.5,3.3-1.2.3-2.7-.8-4.1-1.4-.3-.1-.5-.7-.5-1,.9-5.4-2.5-9.9-3.1-15-.1-.6-.5-1.4-1-1.6s-1.2.3-1.8.6c-5.1,2.9-3.5,7.5-3,11.9.2,2.1.7,4.5.1,6.4-.4,1.4-2.4,2.5-3.9,3.2-.6.3-2.5-1-2.6-1.7-.2-1.4,0-3.4.9-4.4,2.1-2.2,2.6-4.3,1.8-7.3-.5-2.1.3-4.5.7-6.9Z"/>
  <path class="cls-1" d="M68.26,109.92c2.5.2,4.9.2,7.2.3,1.4.1,2.7.5,4.1.7-1,.8-1.8,1.9-2.9,2.2-1.9.6-4,.6-5.9,1.1-.8.2-2,1.4-1.9,2,.2,3.2,1.2,6.3.9,9.4-.2,1.7-2.2,3.5-3.8,4.5-.7.5-2.8-.5-3.7-1.3-1.4-1.3-.2-4.5,1.7-4.4,4.3.1,2.5-3.1,2.3-4.5-1.3-7.5-2-15.1-1.7-22.7.1-2.3,2.8-3.4,4.9-2,3,2.1,5.8,4.4,8.6,6.8.6.5.6,1.9.8,2.8-.9-.1-2,0-2.7-.5-2-1.4-3.9-3.2-5.9-4.7-.6-.5-1.4-.7-2.1-1-.2.7-.7,1.4-.6,2.1.1,3.2.3,6.1.7,9.2Z"/>
  <path class="cls-1" d="M189.96,21.02c2.3-.1,4.6-.6,6.4.2,10.1,4.3,15.7,12.1,16.9,23,.3,2.4.4,4.9-.1,7.3-.3,1.4-1.9,3.5-2.9,3.5-2.1,0-2.2-2.4-1.8-3.9,2.8-10.2-6.1-25-16.2-26.1-1.4-.2-4.3-.8-2.3-4Z"/>
  <path class="cls-1" d="M115.66,68.52c.2,1.6.5,2.9.5,4.3,0,.4-1,1.2-1.4,1.1-.8-.2-1.9-.7-2.1-1.3-1.3-3.8-3-7.5-3.6-11.4-.7-4.7-.9-9.5-.6-14.3.3-5,2.4-9.4,7.5-11.4,1.2-.5,3.6-.5,4.1.3,1.1,1.5-.3,2.5-1.8,3.5-4.4,2.6-6.9,10-5.7,15.3,1.2,4.3,2.1,8.9,3.1,13.9Z"/>
  <path class="cls-1" d="M144.76,18.62c-.8,1.7-1.2,3.4-2,4.8-.5.9-1.6,1.5-2.5,2.3-.6-1.1-1.8-2.4-1.6-3.4.9-4.5,2.7-8.6,5.9-12,5-5.4,11-9.2,18.3-10.3,1.2-.2,2.6,1.2,3.9,1.8-.8.8-1.4,2-2.4,2.5-3.3,1.5-6.9,2.3-10,4-4.2,2.3-7.5,5.7-9.6,10.3Z"/>
  <path class="cls-1" d="M162.86,197.42c.3-2,.2-4.4,1.2-6,.7-1.1,2.9-1.6,4.4-1.6,1.8,0,1.6,1.9,1.4,3.1-.1.9-.6,1.8-.8,2.7-.2.7-.3,1.4-.4,2.1.4,0,1,.3,1.2.1.7-.5,1.6-1.1,1.8-1.9.3-1,.5-2.4,0-3.2-1.2-2.1.6-2.7,1.5-3.4,1.3-.9,3.1-1.9,4.5-1.7,2.7.4,3.6,3.7,1.9,6-2,2.7-4.4,5.2-3.6,9.1.2,1.1-.8,2.2-2,.8-1.6-1.8-3-2.5-5.8-2.1-1.5.1-3.5-2.6-5.3-4Z"/>
  <path class="cls-1" d="M110.46,93.62c0-4.1-.8-8.1,1.6-11.8,1.5-2.3,3.3-3.8,6-3.7,2.1.1,4.2.8,4.9,3.3.2.9.1,1.9.2,2.9-1-.1-2.1.2-2.8-.2-2.6-1.3-4.4-.5-5.2,2.2-1.3,4.8.1,8.8,3.7,12.1.9.8,1.9,1.6,2.5,2.6.4.8.5,2.2.1,2.9-.3.5-2,.7-2.7.3-4.1-2.5-7.1-5.8-8.3-10.6Z"/>
  <path class="cls-1" d="M146.86,122.52c5.9-2.9,13-1.2,15.9,3.6.6,1,.8,2.7.4,3.7-.5,1.6-1.9,2.3-3.9,2.5-4.1.4-7.4-1.6-10.8-3.2-2.3-1-2.9-3.8-1.6-6.6M154.86,127.82c.5.1.9.3,1.4.3.6-.1,1.1-.4,1.6-.6-.4-.5-.8-1.1-1.3-1.5-.3-.3-.9-.2-1.4-.3-.9-.1-1.9-.1-2.8-.2.8.7,1.5,1.3,2.5,2.3Z"/>
  <path class="cls-1" d="M192.76,34.12c1.9.8,3.6,1.4,5,2.4.5.4.9,2,.6,2.3-.6.6-1.7.8-2.6,1-.5.1-1.1-.3-1.6-.4-1.2,0-2.3,0-3.5.1.6.8,1.2,1.5,1.7,2.3.6.9,1.4,1.9,1.6,2.9.2.9-.3,2-.7,2.8-.1.2-1.7,0-2.1-.5-2.4-2.9-5.7-4.4-9-6-2.2-1-2-3.6.5-4.6,3.2-.9,6.6-1.5,10.1-2.3Z"/>
  <path class="cls-1" d="M139.96,42.42c.5,1.6.9,3,1.3,4.5-1.7,0-3.5.4-4.9-.2-2.8-1.3-4.5.4-6.3,1.9-1.1.9-2.3,2.2-3.4.8-.6-.8-.2-2.8.5-3.7.8-1.1,2.5-1.6,3.7-2.4.4-.3.8-.7,1.2-1.1-.4-.4-.8-1.2-1.3-1.3-1-.2-2.1.2-3-.1s-1.6-1.2-2.3-1.8c.8-.8,1.6-2.2,2.4-2.3,4.2-.3,7.8,1.4,10.8,4.3.3.4.7.8,1.3,1.4Z"/>
  <path class="cls-1" d="M154.66,103.82c4.2-3.1,8.9-2.4,11.5,1.6,2.2,3.4.8,9.8-2.8,11.8-.6.4-1.5.7-2.1.6-1-.1-1.9-.6-2.8-1,.4-1,.9-2.1,1.4-3,.1-.3.7-.2,1-.5,1.6-1.5,2.6-3.2,1.2-5.3-1.3-1.9-2.9-1.2-4.6-.5-1,.4-2.3.1-3.4.1.1-1.2.3-2.4.6-3.8Z"/>
  <path class="cls-1" d="M178.16,10.82c.5,1.2.9,2.2,1.3,3.2-1,.3-2,.9-3,.8-1.7-.2-3.3-.9-4.9-1.1-3.4-.4-6.6.5-9.6,2.2-1.2.7-2.4,1.5-3.7,2-.7.3-1.7.1-2.5.1.1-1.1-.3-2.6.2-3.2,3.2-3.7,11.2-6.8,16.1-5.8,2.1.4,4,1.1,6.1,1.8Z"/>
  <path class="cls-1" d="M134.86,29.52c.5.7,1.1,1.3,1.2,1.8,0,1.1-.3,2.2-.5,3.3-1-.3-2.2-.4-3-.9-1.3-.9-2.3-2.1-3.6-3.1-3.4-2.5-7-1.9-10.7-.5-.7.3-2-.1-2.6-.7-.3-.3,0-1.7.4-2.4,1.6-2.7,8.1-3.8,11.8-2.1,2.4,1.2,4.5,2.9,7,4.6Z"/>
  <path class="cls-1" d="M162.66,27.52c-3.2,2.7-6.3,5.2-8.9,8.1-1.1,1.3-2.1,2.9-3.5,1.8-.8-.6-.9-3.4-.2-4.3,2.3-2.9,5-5.5,7.7-8,1.1-1,2.5-1.6,3.8-2.4,1.7-1.1,3.3-1.1,4.3.7,1.1,1.9-.7,2.4-1.9,3.1-.3.2-.6.6-1.3,1Z"/>
  <path class="cls-1" d="M165.26,37.62c-.4-4.3,3-5.8,5.6-7.6,3.3-2.3,7-3.5,11-1.8.8.3,1.3,1.4,2,2.2-.8.7-1.7,1.9-2.5,1.9-5.3-.4-9.3,1.8-12.9,5.4-.6.4-2,0-3.2-.1Z"/>
  <path class="cls-1" d="M254.36,162.62c-4.2,4.2-11.6,4.8-16.4,1.3-.8-.6-1.1-1.6-1.7-2.5.9-.3,1.8-.7,2.7-.7.8,0,1.7.2,2.4.6,3.5,1.8,6.6,1.1,9.8-.9.6-.4,1.3-.9,2-.9.9,0,1.8.4,2.7.7-.4.7-.9,1.5-1.5,2.4Z"/>
  <path class="cls-1" d="M221.66,170.92c.6-2.7,1.2-5,1.8-7.4.1-.5.4-1,.6-1.6.5-1.6,1.3-3.2,3.2-2.4,1.9.7.9,2.4.5,3.7-1.4,4-2.5,8-1.3,12.3.2.6-.3,1.4-.5,2-.8-.3-2-.3-2.3-.8-.8-1.8-1.3-3.7-2-5.8Z"/>
  <path class="cls-1" d="M162.56,197.42c.2.9.2,1.8.1,2.7-.3,2.6-3.4,4.4-5.7,3.3-.4-.2-.9-.9-.8-1.1.2-.6.7-1.4,1.2-1.6,3.8-1.4,1.2-2.3-.2-3.1-2.9-1.7-3.9-3.6-2.1-5.3,1.2-1.1,3.1-1.7,4.8-2,1.4-.2,2.4,1.2,1.2,2.2-3,2.7.3,3.4,1.5,4.9Z"/>
  <path class="cls-1" d="M52.56,200.22c.4-2.4,2.4-3.2,4.3-1.6,3.5,2.9,6.5,6.3,8.2,10.7.3.9-.1,2-.1,3-1.1-.5-2.7-.7-3.4-1.5-2-2.4-3.6-5.1-5.5-7.6-.9-1.2-2.2-1.9-3.5-3Z"/>
  <path class="cls-1" d="M220.36,164.42c-1.3,3.9-3.2,7.5-2.9,11.8,0,.6-.6,1.3-1,1.9-.8-.5-2-.7-2.3-1.4-.6-1.3-1-2.9-.7-4.1.5-2.4,1.6-4.7,2.5-7,.8-2.4,2.3-2.6,4.4-1.2Z"/>
  <path class="cls-1" d="M97.16,318.92c-3.4-1.6-5.7-4.1-6.8-7.5-.3-.9,0-2.8.5-3,1.1-.5,1.9.2,2.7,1.6,1.4,2.4,3.8,4.1,5.9,6.1.9.8,2.7,2.1,2.7,2.2-1,1.6-2.5,2-4.2.8-.2-.1-.4-.1-.8-.2Z"/>
  <path class="cls-1" d="M218.56,251.72c0-1.1.2-2.1.3-3,.8.3,1.8.5,2.5,1,3.7,3,4.3,7.2,3.9,11.5-.1,1.1-1.5,2-2.4,3-.4-1.1-1.3-2.3-1.1-3.3.8-3.7-.2-6.6-3.2-9.2Z"/>
  <path class="cls-1" d="M91.76,323.12c.3.6.7,1.3.6,1.4-.5.4-1.3,1.1-1.8,1-4.2-1-8.8-6.2-8-10,.1-.7.7-1.7,1.1-1.7,1.1-.1,2.2.3,3.4.5-.2.6-.4,1.2-.6,1.9-.8,2.7.9,4.1,2.8,5.4.7.4,1.5.8,2.5,1.5Z"/>
  <path class="cls-1" d="M182.06,86.42c.5.7.9,1.3,1,1.9.3,1.7-1.8,5.2-3.2,5.5-1.7.4-2.7-.4-3.3-2-.8-2.2.5-5.4,2-6.5,1.9-1.4,2.4.2,3.5,1.1Z"/>
  <path class="cls-1" d="M233.26,254.72c-2.6.4-2.7-1.5-3.1-3-.5-1.6-.5-3.2-2.9-3.2-.7,0-1.3-1-2-1.5.8-.7,1.6-1.9,2.4-2,2,0,4.1.9,4.7,3,.8,2.1.8,4.4.9,6.7Z"/>
  <path class="cls-1" d="M143.96,82.32c-.2.7-.3,1.2-.6,1.5-.7.9-1.4,1.8-2.1,2.7-.7-1.2-1.5-2.3-2.1-3.6-.2-.5,0-1.2,0-1.8,0-1.6-.4-3.3,2.2-3.1,2.2.1,2.8,1.4,2.6,3.3v1Z"/>
  <path class="cls-1" d="M352.56,357.72c.9.5,1.6,1.2,2.3,1.8-.6.3-1.4,1.1-1.9.9-1.3-.4-1.7-1.3-.4-2.7Z"/>
  <path class="cls-1" d="M289.36,371.02c-1.6,4.6-3,9-4.4,13.4-.5,1.7-.8,3.5-1.3,5.2-.2.6-.8,1.2-1.2,1.7-.6-.5-1.7-.9-1.7-1.4-.1-1.8-.1-3.6.4-5.3,1.7-5.4,3.8-10.6,5.5-16,.6-1.9,1.5-3,3.2-2.5,2.3.7.1,2.3.2,3.5,0,.4-.4.8-.7,1.4Z"/>
  <path class="cls-1" d="M177.56,458.62c-.8,3.5-3.4,5.1-6,6.7-.5.3-1.8.3-1.8.1-.3-.7-.6-2.1-.2-2.3,4.4-3.1,4.9-7.4,4.6-12.3-.1-1.6,1-3.4,1.7-5,.2-.5,1.1-.6,1.6-.9.3.6.8,1.2.8,1.7-.1,4.1-.3,8-.7,12Z"/>
  <path class="cls-1" d="M270.06,371.92c.1-1.2,0-2.5.6-3.2,2.4-3.1,5-6,7.6-8.9.9-.9,2.1-1.6,3.3-2.1.4-.2,1.4.5,1.8,1.1.2.3-.1,1.2-.4,1.6-2.8,3.3-5.6,6.5-8.5,9.7-1.1,1.4-2.3,2.4-4.4,1.8Z"/>
  <path class="cls-1" d="M203.76,356.52c.6-.8,1-1.8,1.7-2.2.6-.3,1.6-.1,2.4-.1,0,.6.2,1.4-.1,1.9-.9,1.6-2,3.2-3,4.8-.8,1.1-1.7,2.1-2.5,3.2-.9,1.1-2.2,2.2-3.4.8-.6-.7-.4-2.7.2-3.5,1.3-1.8,3-3.2,4.7-4.9Z"/>
  <path class="cls-1" d="M158.46,370.82c-.4,1.9-1.3,2.4-2.7,1.2-2.8-2.4-5.7-4.8-8.4-7.3-.3-.3.1-1.3.2-2,1,.1,2.2-.1,2.8.4,2.8,2.4,5.4,5,8.1,7.7Z"/>
  <path class="cls-1" d="M169.46,570.72c0,1.1-.1,2.1-.3,3-.8-.3-1.6-.4-2.2-.8-2.8-1.7-5.6-3.4-8.3-5.3-.7-.5-1.3-1.6-1.3-2.4-.1-2.4,3.3-6.7,5.5-7.5,1.7-.6,3.3.1,3.4,1.7.1,3,2.3,2.9,4.1,3.5.5.2,1.2-.1,1.8.1,2.2.6,2.4,1.7.9,3.3-1.4,1.4-2.6,2.8-3.6,4.4Z"/>
</svg>