<?xml version="1.0" encoding="UTF-8"?>
<svg id="Contours" xmlns="http://www.w3.org/2000/svg" viewBox="0 0 1549.14 1445.9">
  <defs>
    <style>
      .cls-1 {
        fill: #3f3f3f;
        stroke-width: 0px;
      }
    </style>
  </defs>
  <path class="cls-1" d="M1026.82,1025.1c6.5,2.1,12.7,4,19,5.7,2.8.7,4.2-1,5.5-3.5,5.8-11.8,11.7-23.5,18-35,6.7-12.3,14.4-24,20.7-36.5,11.4-22.7,22-45.9,33.2-68.7,5.3-10.8,11.5-21.2,16.9-32,9.5-19.4,18.3-39.1,28.2-58.3,7-13.5,14.7-26.7,23.2-39.4,5.8-8.7,14.4-11.3,25.7-9.9,14,1.8,27,7.1,40.7,9.4,7.4,1.2,14.9,1.7,22.2,3.1,11.7,2.2,23.3,4.8,34.9,7.3,13.2,2.8,26.4,5.5,39.4,8.7,12.1,2.9,24,6.4,36,9.8,3.4,1,6.7,2.4,9.9,3.9,2.8,1.3,2.3,4.1.7,5.6-1.3,1.3-4,2.6-5.7,2.1-8-2.2-15.8-5.4-23.9-7.4-10.8-2.7-21.7-4.7-32.6-7.1-13.2-3-26.4-6.4-39.6-9.3-8.6-1.9-17.4-3-26.1-4.7-14.3-2.9-28.4-6.3-42.7-9-7.3-1.4-14.9-2.9-22.3-2.5-3.4.2-7.6,3.9-9.8,7.1-6.1,9.2-11.6,18.8-16.7,28.5-8.9,16.8-17.4,33.8-25.8,50.8-5.1,10.4-9.6,21-14.8,31.4-5.7,11.5-12.2,22.6-17.9,34.1-10.9,22-21.1,44.3-32.2,66.2-6.2,12.2-13.8,23.6-20.4,35.6-10.3,18.9-20.4,37.9-30.5,56.9-1.1,2.1-1.8,3.4,1.3,5.2,11,6.3,21.6,13.1,32.3,19.9,3.2,2.1,6.2,4.6,9.1,7.1,8.1,7,15.6,14.8,24.3,21,15.6,11.1,32,21,47.7,31.8,23.9,16.4,47.9,32.7,71.4,49.7,19,13.7,37.4,28.2,55.8,42.8,8.8,7,16.8,14.9,25.4,22.2,8.2,6.9,16.9,13.3,25,20.4,5.9,5.1,12,10.4,16.5,16.6,6,8.1,2.6,21.1-3,28-1.7,2.1-3.5,4.2-5.7,5.5-1.5.9-4.2,1.3-5.7.6-1.6-.8-3.2-3.3-3.1-5,.1-1.6,1.9-4,3.5-4.6,5.6-2.2,10.5-15.4,4.1-20.9-12.7-10.9-25.3-21.9-37.9-32.9-6-5.2-11.7-10.8-18-15.8-10.8-8.7-21.9-17.1-32.9-25.6-10.3-8.1-20.5-16.4-31-24.3-7.7-5.8-15.7-11.2-23.6-16.7-26-18.1-52-36.2-78.1-54-6.4-4.4-13.7-7.6-19.9-12.2-7-5.3-13-11.8-19.8-17.4-5.6-4.6-11.6-8.8-17.7-12.8-8.9-5.8-17.7-11.8-27-16.9-9.6-5.3-19.9-9-30.9-9.7-6.4-.4-12.8-.3-19.2,0-15.8.8-31.5,1.9-47.3,2.9-4.7.3-9.4.8-14.1,1-9.9.4-19.7,1.1-29.6.9-9.6-.2-19.1-1.4-28.7-1.8-4.5-.2-9.1.8-13.6.9-8.7.2-17.3-.1-26,.1-9,.2-18.1,1-27.1.9-11.1-.2-22.1-1.9-33.2-1.8-20.1.2-40.1.9-60.2,2-10.5.6-20.9,2.4-31.3,4-2.1.3-4.1,2.1-6,3.4-3,2.2-6.1,1.8-7.7-1.1-.8-1.5,0-5.3,1.3-6.2,3.8-2.6,8-5.3,12.4-6,12.4-1.9,24.8-3,37.3-4.1,5.2-.5,10.4.1,15.7-.1,15.4-.6,30.8-1.7,46.2-1.8,10.7-.1,21.4,1.5,32.2,1.8,9,.2,18.1-.7,27.1-.8,5.4,0,10.7.6,16.1.9.8,0,1.7-.5,2.5-.7-.7-.7-1.3-1.9-2.2-2.1-3.3-.9-6.9-1.1-10.1-2.1-12.7-4-24.7-9.6-33.8-19.7-5.7-6.2-8.7-17.1-4.1-25,2-3.4,4.6-2.4,6.6-2,1.1.2,2.7,3.5,2.4,5.1-1.8,10.7,0,14.4,8.7,20.8,10.7,7.8,22.9,11.6,35.4,14.7,3.7,1,6.2,2.4,5.9,6.9-.1.9,2.4,2.9,3.7,3,12.7.6,25.4,1,38.1,1.1,10.7,0,21.4-.4,32.1-1,14.9-.8,29.8-2,44.8-3,5-.3,10.1-.6,15.1-1,1.2-.1,2.3-.6,3.4-.8-.9-.8-1.7-1.8-2.7-2.3-8-4-16.5-7.3-24-12-11.3-7.1-24.3-8.2-36.6-11.8-3.9-1.1-7.8-2.4-11.8-2.9-10.5-1.4-10.7-11.4-5.6-18,2.9-3.7,6.8-5.9,11-5.9,5.2.1,8.4-3,11.6-5.9,6.2-5.5,13.6-7.5,21.6-8.4,4.1-.5,8.2-1.7,12.3-3,7.6-2.3,14.1.1,20.6,3.8,6.6,3.7,13.6,6.6,20.2,10.3,4,2.2,7.3,5.7,11.2,8.1,2.3,1.4,5.2,2.4,7.8,2.4.8,0,1.6-4,2.4-6.2,1.7-4.8-.9-8.1-4.1-11-8.6-7.7-16.9-15.9-26.1-22.8-8.8-6.5-19-10.1-30.1-11.7-17.9-2.6-35.8-3.5-53.8-2.7-13.7.7-27.3,3-40.9,4.8-12.9,1.8-25.8,3.6-38.5,6-15.4,2.9-30.7,6-45.8,10.1-17.3,4.7-34.4,10.1-51.4,16-16.7,5.8-33.8,11.3-49.5,19.2-18.9,9.5-36.9,21-54.4,33.2-11.2,7.8-14.1,18.9-18.2,30-.6,1.7.4,4.4,1.3,6.3,3.1,7.3,4.8,14.8,5.8,22.7,1.9,15.7,5.1,31.2,7.6,46.8,1,6,1.5,12.1,2.2,18.1,1.6,13,3.3,26,5,38.9.1.9.8,1.6,1.3,2.5.6-.5,1.4-.8,1.7-1.4,6.7-14.5,20.3-22.6,30.7-33.7,6.1-6.5,11.6-13.5,17.3-20.3.5-.6.4-2,0-2.7-7.3-14.1-13.8-28.7-24.5-40.9-5.7-6.5-9.8-14.5-14.5-21.9-.8-1.2-1.2-3.1-1-4.5.4-3,3.5-4.2,5.6-2,2.7,2.9,5,6.2,7.4,9.3,4.5,5.8,9.1,11.5,13.4,17.5,4,5.5,8,10.9,11.4,16.8,4.6,7.8,8,16.2,14.2,23.2,3.5,4,4.5,10.1,7.4,14.8,12,19.9,24.1,39.7,36.4,59.4,11.5,18.4,23.2,36.8,35.2,54.9,8,12.1,16.4,24.1,25.3,35.5,11.1,14.2,22.3,28.5,34.8,41.5,7.9,8.3,18.5,13.3,31,9.9,1.6-.4,3.3-.1,5-.1,16,0,32,.5,48-.2,13.3-.6,26.6-2.5,39.9-3.8,7.1-.7,14.1-1.4,21.2-2,14.8-1.3,29.6-2.7,44.3-4,5.7-.5,11.4-.7,17.1-1,9.7-.6,19.5-1,29.2-2.1,8.8-.9,17.6-2.7,26.4-3.9,4.2-.6,8.4-.6,12.6-1.1,13.2-1.6,26.3-3.4,39.4-4.9,4.2-.5,8.4-.7,12.6-1,15.3-1,30.5-1.8,45.8-3.1,12.5-1,24.9-2.8,37.4-3.9,9.9-.9,19.8-1.2,29.7-2.1,12.1-1.1,24.2-2.8,36.4-3.7,2-.1,4.1,2.7,6.2,4.1-1.5,1.9-2.6,5-4.4,5.4-5.1,1.3-10.4,1.8-15.6,2.2-17.7,1.1-35.5,1.8-53.2,3.1-12,.9-23.9,2.7-35.9,3.9-9.5.9-19.1,1.2-28.7,2.1-10.8,1.1-21.6,2.7-32.4,3.9-9.4,1.1-18.8,1.9-28.3,3-13.3,1.6-26.6,3.4-39.9,4.9-8.4.9-16.8,1.5-25.2,2-15.2,1.1-30.5,1.9-45.8,3.1-10.8.8-21.5,1.8-32.3,3-14,1.5-27.9,3.7-41.9,4.8-12.3,1-24.7.8-37.1,1.1s-24.7.7-37.1,1c-9.7.2-18.1-3.9-25.7-9.1-11.1-7.6-18.8-18.6-26.7-29.3-7.9-10.6-16.7-20.6-24.1-31.5-18.1-26.6-36-53.3-53.4-80.4-12.4-19.3-23.9-39.1-35.8-58.6-2.6-4.2-3.7-4.1-6.9-.3-4.6,5.5-9.2,11-14.2,16.1-7.1,7.2-14.7,13.8-21.7,21-4.9,5-9.3,10.4-13.8,15.8-.8,1-1,2.7-.9,4.1.7,5.5-1.8,9.7-5.6,13.2-8.6,8.1-17.3,16.1-26.1,24-2.5,2.3-5.7,3.8-8.6,5.7-14.3,9.7-28.4,19.8-43.1,28.8-9.7,6-20.1,10.9-30.5,15.6-6.2,2.7-13,3.9-19.5,6-2.2.7-4.2,1.9-6.2,3-3.9,2.2-7.5,5.3-11.7,6.8-11.7,4.1-23.6,7.4-35.3,11.3-3.5,1.2-6.9,1.7-8.3-2-1.5-4,1.5-6.1,5.1-7.2,12.2-4,24.4-8,36.5-12,.7-.2,1.8-.1,2.2-.6,8.6-9.2,20.7-10.2,31.8-13.9,7.3-2.4,14.2-6.1,20.9-9.8,9.7-5.3,19.3-10.8,28.5-16.8,5.6-3.6,10.7-8.2,15.8-12.5,2.7-2.3,5.1-4.8,9.2-4.5,1.3.1,3.1-.9,4.1-1.9,8.8-8.3,17.1-17,26.2-24.9,5.3-4.6,5.5-10.4,4.1-15.7-3.3-12.9-5.7-25.9-6.9-39.2-1.2-13.8-2.6-27.6-6.5-41.2-2.5-8.8-1.9-18.5-3.4-27.7-1.5-8.8-3.1-17.7-6.2-25.9-2.3-6.2-1.2-11.2,1-16.7,1.1-2.7,2.3-5.4,3.2-8.2,1.4-4.4-1.7-7.4-6.2-6.8-12.8,1.6-23.5,7.2-34,14.7-15.5,11.2-31.9,21-47.9,31.5-1.6,1.1-2.8,3.1-3.7,4.8-5.1,10.4-10.5,20.7-14.9,31.3-4.3,10.2-7.3,21-11.2,31.4-2.7,7.4-6,14.5-8.8,21.8-.9,2.3-1.2,4.8-2.2,7.1-.7,1.7-1.5,4-2.9,4.7-7.7,3.6-9.3,11.2-12,18-4.4,10.9-8.7,21.8-18.2,29.5-3.1,2.5-6.1,5.3-9,8.1-.9.8-1.4,2.1-1.8,3.2-1.4,3.8-3.1,7.5-3.8,11.4-.5,3,.4,6.3.7,9.5.3,2.7.9,5.4,1,8.1.4,14,.7,28.1,1,42.1.3,9.9,0,19.8,1.2,29.6,1,8.1,1.7,16.3-1.4,23.7-4.2,9.8-9,19.6-15.3,28.1-4.3,5.9-11.2,9.9-18.7,12.4-8.3,2.8-14.6,8.9-19.7,15.8-2.2,2.9-4.5,5.4-7.6,4-2.9-1.3-4-4.3-2.8-8.5,1.2-4.4,2.7-7.2,7.2-8.2.6-.1,1.3-.5,1.6-1,4.8-7.4,12.8-9.4,20.3-12.4,6.8-2.8,12.9-6.8,16.3-13.8,2.6-5.4,5.3-10.8,8-16.2,3.6-7,3.8-14.4,2.2-21.9-.3-1.4-.2-2.9-.2-4.4-.3-15.5-.6-31.1-1-46.6-.2-9.2-.5-18.4-1.1-27.6-.2-3.7-1.5-7.3-2.3-11-.9-3.9-1.4-7.6,2.3-10.6,1.2-1,2.1-3.3,2-5-.1-8.5-1.4-17.1-.7-25.6,1.3-17,3.2-34,7.9-50.6,3.5-12.3,5.4-25.1,7.9-37.8,1.6-8,2.9-16.1,4.3-24.2,1.3-7.6,2.9-15.3,3.6-23,1.3-14.5,3.5-28.8,9.5-42.1,5.7-12.6,8.9-25.8,11.5-39.2,2.7-13.8,4.8-27.7,7.1-41.6,2.1-13.2,3.8-26.4,6.1-39.5,2.3-12.8,5.4-25.5,7.8-38.3,1.7-9,3.1-18.2,4.1-27.3,1.3-13.1,1.9-26.2,3.2-39.2.6-6,2.1-11.8,2.8-17.8.2-2-.9-4.1-.8-6.1.2-5.9,1-11.7.9-17.6-.2-14-.9-28-3.8-41.9-1.1-5.2-.9-10.7-1.1-16.1-.2-6.4-.1-12.8,0-19.2.2-15.9-2.5-31.3-7.4-46.4-.3-.9-.5-1.8-.6-2.8-.4-12-.4-24.1-1.1-36.1-1.1-17.6-2.4-35.2-4-52.8-.6-6.7-6.6-10.3-10.3-15.2-9.6-12.6-18.1-25.7-24.8-40.2-6.2-13.6-10.9-27.6-14.3-42.1-2.1-9.1-3.2-18.4-4.5-27.6-1.8-12.3.6-25.7-7.2-36.5-8.9-12.4-16.2-26.2-27.9-36.5-3.9-3.4-7.1-7.7-10.7-11.5-2.2-2.4-4.5-3.3-7.9-1.6-12.6,6.2-25.1,12.6-38.1,18-9.5,4-19.4,7.5-29.5,9.4-8,1.5-16.5.1-24.8,0-11.5-.1-23-.2-34.5-.5-7.9-.2-15.8-.4-23.7-.8-3.2-.2-6.3-1.1-9.5-1.1-14.9-.1-29.9-1.2-44.6.3-13.8,1.4-26.2-1.6-38.9-5.9-5.2-1.8-10.7-3.2-16.1-3.2-8.6-.1-17.3,2.4-25.6,1.5-11.6-1.3-20.7,4.4-26.8,11.5-9.2,10-20.4,15.2-31.5,21.3-4.9,2.7-9.7,6.1-13.9,9.9-5,4.6-10.7,7.5-17,9.9-4,1.6-6.9-.2-8-3.1-1-2.8,1.6-4.5,4.6-5.9,5.7-2.7,11.7-5.9,16.2-10.2,8.1-7.9,18.5-11.1,27.9-16.1,3.8-2,6.3-5,9.3-8.1,9.5-9.9,20.5-18.4,34.9-18.6,6.5-.1,12.4-2.4,18.8-2.5,12.8-.3,25,1.8,36.9,6.4,10.2,3.9,20.6,3.8,31.5,3.1,14.8-1,29.7.4,44.6.6,11.1.2,22.1-.1,33.2.1,5.5.1,11.1.6,16.6,1,6.2.4,12.5-.1,18.6,1.1,18.9,3.8,34.9-5.6,51.8-10.9,7.7-2.4,14.7-7.2,22-10.7,5.4-2.6,11-4.9,16.4-7.5,4.1-2,7.3-1.2,10.3,2.2,4,4.5,4.1,4.3,7.3-1.1,5.1-8.7,10.5-17.3,15.4-26.1,1-1.8,1-4.9.1-6.7-5.4-11.2-8.3-22.9-8.7-35.5-.6-21.1,4.3-40.8,14.3-59.1,6.6-12.2,15.8-22.5,27.9-29.4,7.9-4.4,16.6-7,26-4.2,2.8.8,4.8-.2,6.2-3.8,5.3-13.5,10.6-27,17-39.9,8.8-17.8,19.4-34.6,32.7-49.4,10.4-11.6,20.8-23.5,32.3-34.1,12.8-11.8,27-21.9,42.1-30.9,17-10.1,34.6-18.7,53.6-23.9,12.4-3.4,25.1-6,37.8-7.7,10.2-1.4,20.7-1.5,31.1-1.1,15.5.6,30.7,3.5,44.8,10,9.5,4.4,18.6,9.9,27.9,14.7,1.5.8,3.7,1.2,5.4.9,6.8-1.3,12.7-1,17.1,5.6,2.3,3.5,5.9,6.2,8.3,9.6,1.1,1.6,1.6,4.5,1,6.3-1,3-3.6,1.5-5.7.9-2-.5-4-1-6.1-1-6.8-.1-9.3-1.5-11.2-8-.9-3.2-2.6-3.8-5.5-4.2-3.2-.4-6.5-1.4-9.2-3-15.6-10-32.4-17-50.8-19.8-9.4-1.4-18.9-3.1-28.2-2.8-16.2.4-32.4,2.5-48,7-30.1,8.6-57.5,22.7-82,42.1-9.1,7.2-18.4,14.4-26.5,22.7-16.7,17.1-31.5,35.6-43.9,56.2-9.6,16-16.7,33.1-23.7,50.2-.9,2.3-1.9,4.7-2,7.1-.1,1.7,1,3.6,2,5.1,2.8,4.4,5.9,8.6,8.9,12.8.4.6,1.3,1.6,1.8,1.5.8-.1,1.9-.9,2.2-1.6,4-10.1,11.1-18,18.2-26,15.4-17.5,33.8-31.4,53.2-44.1,17.3-11.3,35.5-21,54.4-29.2,18.1-7.8,36.5-14.6,56-18.1,3.7-.7,7.5-1.8,11.2-1.8,1.7,0,3.4,2.4,5.1,3.7-1.5,1.7-2.7,4.5-4.5,5-11.8,3.3-23.9,5.7-35.7,9.3-9.5,2.9-18.8,6.9-28,10.9-22,9.6-43.2,20.7-62.5,35-10.3,7.6-20.1,16-30.1,24.1-10.6,8.6-19.1,19-26.4,30.5-4.3,6.9-7.8,14.2-8.2,22.7-.1,1.9-2.4,3.8-3.7,5.7-1.7-1.5-4.3-2.6-5-4.5-2.4-6.2-3.3-13-6.4-18.8-3.7-7-8.6-13.4-17.1-15.8-7.6-2.1-14.5-.8-21,3-18.9,11.1-27.7,29.3-33.6,49.3-1.9,6.5-2,13.5-3.2,20.2-2,11.8.1,23.1,4.1,34s10.9,19.2,23.1,21.1c1.7.3,4.8-2.2,5.6-4.2,5.9-13.4,11.4-27,17.2-40.4,1.9-4.4,4.5-8.5,7.2-12.5.7-1,3.6-1.5,4.5-.9,2.1,1.4,4.5,3.2,2.5,6.8-4,7.3-7.9,14.7-11.2,22.3-8.7,19.7-15.9,39.9-20.2,61.2-2.9,14.6-5.9,29.1-5.9,44,0,14.1-1.3,28.3.3,42.1,2.6,21.8,7.9,43.2,16.7,63.5,10.4,23.9,25.5,44.6,45,61.8,18.4,16.2,40,26.9,63.9,32.7,16.8,4.1,33.8,4.9,50.8,3.8,15-1,29.8-4.2,44.1-9.1,25.4-8.7,49.1-20.8,69.7-38,12.7-10.6,25.2-21.6,36.5-33.6,13.6-14.4,25.1-30.6,34.9-47.9,2.7-4.7,5.3-9.5,8-14.2,1.7-2.9,4.3-5.2,7.5-3.6,2.8,1.4,3.1,4.5,1.5,7.4-4.2,7.4-8.1,15-12.6,22.3-14.6,23.7-32.4,44.8-52.7,63.7-13.2,12.3-27.8,22.9-43.2,32.1-15.8,9.5-32.4,17.4-50.3,22.3-10.3,2.8-20.6,5.4-31.2,6.8-12.1,1.5-24.4,1.8-36.6,2.1-4.7.1-9.5-1.1-14.2-1.9-6.1-1-10.9,1.9-15.2,5.5-8,6.7-16.2,13.1-23.4,20.6-11,11.4-20.8,24-27.5,38.5-3.2,6.9-5.8,14.2-5.3,22.4.7,10.3-.3,20.9,1.3,31,3.7,24.5,4.6,49.2,3.7,73.9-.5,13.8-2.6,27.6-3.8,41.4-.5,5.5-.4,11.1-1.1,16.6-1.6,11.8-3.4,23.5-5.5,35.2-2,11.6-4.4,23.2-6.4,34.8-2.1,12-4.1,24-6,36-1.5,9.6-2.1,19.4-4.2,28.8-3.9,17.3-7.8,34.7-13.1,51.6-3.8,12-8.6,23.5-10,36.4-1.7,16-5,31.8-7.8,47.7-2.2,12.9-4.5,25.8-7,38.6-1.8,8.7-4.3,17.2-6.2,25.9-1.2,5.6-2.2,11.2-2.7,16.9-.7,8.3-.8,16.7-1,25.1,0,1,.8,2,1.2,3,.5-.3,1.1-.5,1.4-.9,5.5-6.8,11.9-12.9,15.3-21.2,3.2-8,6.7-15.9,10.1-23.8.6-1.4,1.4-3.1,2.6-3.9,6.6-4.1,7.7-11.3,10.4-17.7,8.4-20.2,13.2-41.8,23.9-61.1,15.9-28.6,26.9-59.2,36.5-90.3,2.9-9.3,3.8-19.1,5.6-28.7,2.3-12.5,4.8-25,6.9-37.6,1.6-9.9,3-19.8,4-29.8s1.2-20.1,2.1-30.2c1-10.8-3-20.8-4.3-31.3-.9-7.3-1.9-14.6-2.8-21.9-1.4-11.8-2.6-23.6-4-35.3-.9-7.6-1.7-15.2-3.2-22.7-.5-2.3-2.7-4.5-4.6-6.3-1.4-1.3-4.7-1.6-4.9-2.8-.4-1.8.8-4.4,2-5.9,4.6-5.7,10.2-10.6,14.3-16.7,7-10.4,14.6-20.8,17.1-33.3,1.2-6.2-.2-13-.8-19.5-.5-5.7-1.4-11.4-1.9-17.2-.5-6.2-1.3-12.4-.9-18.6.7-10.4,2.1-20.7,3.4-31.1.5-4,1.2-8.1,2.6-11.9.8-2,3.1-4.7,4.9-4.8,3.5-.2,4.5,2.9,4,6.2-1.2,7.5-2.8,15-3.4,22.6-.7,9.5-.5,19-.6,28.5v.5c1,12.3,2,24.5,3,36.8.9,10.9-3.1,20.5-8.1,29.6-3.9,7.1-7.5,14.9-13.2,20.4-7.2,6.9-4.9,14-3.7,21.5,1.3,8.5,2.9,16.9,3.9,25.4,1.8,14.6,3.1,29.3,5.1,43.9,1.6,11.6,4.7,23,5.7,34.5.8,9.4-.3,19-.8,28.6-.4,6.1-1.1,12.1-2,18.2-1.6,11-3.4,21.9-5.1,32.9-1.2,7.5-2.9,14.9-3.8,22.4-2.2,18.1-6.1,35.8-12.5,52.8-4.5,12-9.2,23.9-13.7,35.8-.4,1-.4,2-.6,3.1,1-.2,2.4,0,3-.6,10-10.6,23.6-15.8,34.9-24.4,10-7.6,20.9-12.3,32.8-15.1,5.3-1.3,10.6-2.2,15.7,1.2,1.2.8,4,.5,5.3-.4,10.2-6.9,20-14.3,30.3-21,8.2-5.3,17-9.7,25.4-14.6,22.2-12.9,46.7-20.1,70.7-28.5,17.1-6,34.6-10.8,52.2-15.2,13.3-3.3,27-4.7,40.5-7.2,11.9-2.2,23.7-4.8,35.6-6.9,5.7-1,11.4-1.6,17.2-2,10.4-.8,20.8-2.1,31.2-1.9,16.1.4,32.3.9,48.2,3.1,13.4,1.9,26,7.6,36.6,16.3,8.5,7,16.1,15,24.4,22.1,7,5.9,5.9,13.5,5.3,21.1-.1,1.4-.5,2.8-.7,4.2-.4,4.1-3.6,7.2-7.6,6.9-4.3-.3-8.5-1.2-12.7-1.8-1.1-.1-2.3-.1-3.3.1-.2,0-.4,1.6-.3,1.7.9.5,1.9.8,2.9,1,2.1-.3,4,0,6.1.6M529.62,599.8c-7.1-4.7-14.1-9.4-21.2-14-2.2-1.4-4.5-2.7-6.8-4,.2,2.5.4,4.9.5,7.4.1,4.3-.2,8.7.1,13,.4,5.9,1.7,11.8,1.8,17.7.1,6.7-1,13.5-.8,20.2.2,7.2,1,14.5,2,21.7.6,4.1,1.9,8.2,3,12.2.2.7,1,1.2,1.5,1.7.5-.6,1.1-1.2,1.4-1.9.8-2.2,1-4.7,2.2-6.6,11.2-16.9,23.9-32.5,39.5-45.5,2.5-2.1,5.5-3.6,8.3-5.3,1.3-.8,2.7-1.4,4.1-2.1-1.5-.8-2.9-1.8-4.5-2.5-10.1-4-20.1-8-31.1-12M958.62,1029.8c8.7,4,17.4,7.8,26,12,8.3,4.1,17,7.9,21.3,17.1.4.9,1.7,1.5,2.7,1.8,5.2,1.4,10.8,2.1,15.7,4.2,4.7,2,6.8,0,8.8-3.5,3.1-5.5,6-11.3,9.6-16.4,2.3-3.2,1.7-4.6-1.5-5.6-7.1-2.3-14.1-4.5-21.2-6.6-8.4-2.4-17.5-1.4-25.6-3.5-12.2-3.2-24.4-1.1-36.4-3.4-1.4-.3-3.2.9-4.8,1.4,1.4.9,2.9,1.7,5.4,2.5M420.62,381.8c4,6.3,8,12.7,12,19,.5.8,1.4,1.3,2.1,1.9.5-1,1.2-1.9,1.3-2.9.4-5.6.2-11.3,1.2-16.7,2.4-13.4,5-26.8,8.1-40.1.8-3.3-.2-4.2-2.7-5.1-4.2-1.6-8.3-3.2-12.4-5-3.2-1.4-5.6-1.9-7.8,2.1-4.6,8.5-9.8,16.6-14.7,24.9-1.9,3.2-2.5,5.9.7,9,4.1,3.7,7.8,8.2,12.2,12.9M939.12,1022.3c1.5-.8,2.9-2.2,4.5-2.4,5.5-.9,11.1-1.4,16.6-2.1,1-.1,1.9-.6,2.9-.9-.8-.7-1.4-1.5-2.3-2-2.3-1.3-4.8-2.3-6.8-3.9-1-.7-1.8-3.5-1.3-3.9,1.5-1.3,4-3.2,5.3-2.7,8.7,3.2,17.4,6.3,25.6,10.5,8.5,4.4,16.8,5.3,25.6,1.8,1.1-.5,2-1.5,3-2.3-1.1-.9-2.1-2.3-3.3-2.5-6.9-1.4-13.1-4.1-18.5-8.4-5.8-4.7-12.2-5.7-19.3-4.1-3.4.8-7,.7-10.4,1.5-4.5,1.1-9.2,2.2-13.2,4.3-7.2,3.9-12.6,11.3-22,10.9-1.1,0-2.2,1.6-3.3,2.4.9,1.1,1.7,2.9,2.8,3.1,4.4.7,9,.9,14.1.7Z"/>
  <path class="cls-1" d="M234.12,866.8c1.3,10.9,2.7,21.4,4,31.8,1,7.8,2.1,15.5,3,23.3,1.1,10.6,2.5,21.1,2.9,31.8.6,13.3-4.4,25.6-8.3,38-4.6,14.9-9.3,29.8-13.6,44.9-3.6,12.7-6.6,25.6-10.1,38.3-3,10.8-10.7,18.1-19,24.8-5.2,4.2-10,8.6-13,14.8-3.6,7.4-7.2,14.7-11,21.9-.9,1.6-2.5,2.9-3.6,4.4-1.2,1.6-2.3,3.4-3.3,5.1-.7,1.1-1,2.4-1.9,3.2-14.8,12.4-28.2,26.2-39.8,41.7-5.5,7.4-12.3,13.8-17.9,21.2-7.1,9.3-13.6,19-20.4,28.5-1,1.4-2.1,2.8-3.3,4.1-6.6,6.9-13.5,13.6-19.6,20.9-3,3.6-4.1,8.7-7,12.5-3.2,4.2-7.1,7.8-11.1,11.2-6.6,5.6-13.3,11.1-20.3,16.2-1.4,1-5,1-6.2,0-1.9-1.8-2.5-4.7.4-7,7.1-5.6,13.8-11.6,21.1-16.8,5.5-4,8.5-9.6,11.9-15.1,2.8-4.5,4.8-9.9,8.6-13.3,14.1-12.9,25.1-28.1,35.6-43.9,2.3-3.5,5.1-6.6,7.8-9.8,7.4-9.1,14.7-18.4,22.3-27.2,4.7-5.4,9.9-10.3,15.1-15.2,6.2-5.8,12.6-11.3,18.9-17,.6-.6,1.5-1.1,1.7-1.8,3.8-13.7,11.3-25.5,19.3-37,3.6-5.1,8.9-9.2,14-13,7.4-5.6,11.4-13.4,13.7-21.8,5.2-19.4,9.1-39.2,14.3-58.6,2.9-10.8,7.6-21.2,11-31.9,3.2-9.9,4.9-19.9,3-30.5-1.8-9.6-2-19.5-3.2-29.2-1.5-12.5-3.2-25-5-37.4-1.9-12.7-3.8-25.4-6-38-2.5-14.6-5.2-29.1-8-43.7-3.2-17-6.5-33.9-10-50.8-2-9.4-4.7-18.7-7-28.1-5-19.8-10-39.5-14.9-59.3-4.4-17.7-7.7-35.7-13.3-53-4.2-12.8-11.3-24.6-17-36.9-3.7-8-7.5-15.9-10.8-24-.6-1.6.5-5.2,1.8-5.9,2.3-1.1,5.1-.4,6.4,2.7,2.1,5,3.9,10.1,6.4,14.9,5.2,10.2,11.2,20,16.1,30.3,6.7,14.3,11.9,29.2,14.6,45,1.9,11.3,4.5,22.4,7.1,33.5,4.8,19.8,9.8,39.6,14.8,59.4,2.8,11.3,5.9,22.6,8.4,34,2.8,12.2,5.2,24.6,7.5,36.9,3.4,17.5,6.6,34.9,9.8,52.4.9,5.2,1.5,10.4,2.2,15.6,0,.7.5,1.5.9,2.9Z"/>
  <path class="cls-1" d="M910.82,293.6c-1.8,10.8-2.9,21.4-4.8,31.9-2.8,14.8-6.2,29.4-12.9,43.1-1.8,3.7-3.3,7.6-4.7,11.5-.4,1.1.1,2.4.1,3.7.8-.8,2-1.4,2.5-2.3,4.7-9,9.5-18,14-27.2,3.6-7.3,6.9-14.8,10-22.3,7.6-18.7,15.6-37.2,22.3-56.2,3.3-9.2,4.4-19.3,5.5-29.2.5-4.3-1.9-8.8-2.7-13.2-1.1-5.9-1.4-12-3-17.8-2.2-8.2-5.4-16.1-8-24.1-.5-1.6-1.1-3.4-.9-5.1.3-3.4,4.1-4.9,6.3-2.4,2,2.1,3.4,4.9,4.6,7.5,2.2,4.8,4.5,9.5,5.8,14.6,1.8,6.8,2.8,13.9,4.1,20.8.6,3.2,1,6.6,2.1,9.6,3.1,8.7,2.2,17.3-.1,25.8-2.4,9-4.7,18-7.8,26.7-3.7,10.3-8,20.4-12.3,30.4-6.8,15.7-13.2,31.6-21,46.8-7.8,15.4-16.7,30.2-28,43.4-8.9,10.4-17,21.4-26,31.7-4,4.6-9.2,8.2-13.9,12.1-2.3,1.9-5.5,2.1-6.9-.4-1-1.7-.7-5.3.5-6.9,8.6-11.4,18.1-22,26.2-33.7,5.8-8.5,10.1-18.1,14.6-27.4,3.6-7.5,7.5-15,9.8-22.9,4.5-16,8.7-32.2,11.7-48.6,2.1-11.4,2.7-23.1,3.1-34.7.3-11.6.5-23.3-1.1-34.7-2.8-20.2-7.3-40.1-18.7-57.7-.8-1.3-1.4-2.8-2.1-4.1-3-6-2.9-5.9,2.8-9.4.9-.6,1.4-1.8,2.2-2.7,1.2-1.4,2.4-2.9,3.7-4.3.4-.5.9-1,1.3-1.5-.6-.5-1.1-1.1-1.8-1.5-2.5-1.3-4.9-2.5-7.4-3.7-1.7-.8-3.6-1.2-5-2.4-1.8-1.5-3.2-3.5-4.8-5.2,1.8-1.2,3.5-3.4,5.3-3.5,9.6-.5,18.7,2.1,27.5,5.9,1.6.7,3.8,2,4,3.3.8,5.4,5.3,7.2,9,9.5,3.3,2,4.1,4.9,3,7.6-1,2.4-3.6,4.5-7,2.6-.5-.3-1.3,0-2,0-1.4,0-2.8,0-4.2-.1.8,1.2,1.4,2.5,2.4,3.5,4.3,4.5,4.9,8.2,1.3,9.6-3.5,1.3-9.8-1.1-12.2-4.4-2.4-3.4-5.1-6.6-7.8-9.7-.7-.8-2.2-.8-3.4-1.2.3,1.2.2,2.5.9,3.4,6.8,9.7,12.1,20.1,15.5,31.6,3.9,13,7.3,26.1,7.7,39.8.4,14.4.6,29.1.7,44.1Z"/>
  <path class="cls-1" d="M1479.32,1104.1c-9.6,18.4-19.2,36.4-28.2,54.7-9.7,19.8-18.3,40.1-28.4,59.7-11,21.3-22.9,42.2-34.8,63.1-4.7,8.2-10.2,15.8-15.8,23.4-.9,1.3-4.7,1.8-6.2.9-2.5-1.5-2.1-4.4-.5-7,6.9-11.1,14.2-22,20.5-33.5,12.8-23.3,25.3-46.8,37.4-70.5,6.9-13.4,12.5-27.5,19.3-41,12.7-25.4,26.1-50.5,38.7-76,9-18.1,17.6-36.3,25.8-54.8,7.1-16,13.8-32.3,19.7-48.8,3.2-8.9,4.2-18.6,6.3-27.9,1.6-7.1,4.3-14.1,5-21.3.9-9.1.2-18.3.3-27.4,0-6.6-.5-13.2.2-19.7.9-7.9,3.3-16.2-4.1-21.9-3.9-2.9-9.3-3.9-14.2-5.5-9.9-3.2-19.2-7.5-28.2-13-5.6-3.4-12.2-5.1-18.2-7.9-4.6-2.1-9.4-4.2-13.5-7.3-5.5-4.2-12-4.8-18.2-6.8-6.2-1.9-12.1-4.7-18.1-6.9-2.8-1-5.9-1-8.6-2.2-1.8-.8-4.1-3-4.1-4.5s2.5-3.8,4.3-4.2c2.9-.6,6.6-1,9,.3,9.3,5,19,8.1,29.3,10.3,4.2.9,7.8,4.4,11.9,6.3,7.4,3.5,14.9,6.6,22.3,10.1,4.3,2,8.9,3.8,12.8,6.5,9.1,6.3,19.6,9.4,29.9,12.2s16.5,8.6,18,18.8c.7,4.8-.5,9.9-.6,14.8-.1,7.4,0,14.9-.1,22.4,0,8.3,1.1,16.7-.3,24.7-2.9,16.6-6.9,33-11,49.4-1.6,6.5-4.4,12.8-6.9,19.1-4.6,11.6-9,23.3-14.1,34.7-7.1,15.9-14.8,31.5-22.3,47.3-4.6,9.7-9.3,19.4-14.3,29.4Z"/>
  <path class="cls-1" d="M814.12,106.8c-3.9,0-7.5.8-10.6-.2-4.6-1.5-4.9-4.3-1.1-7.5,1.3-1.1,2.9-1.7,4.5-2.3,16.1-6.4,25.9-18.1,29.2-35,.7-3.6.6-7.4,1.1-11.1,1-7.1-2.3-12.7-6.5-17.8-2-2.4-2.3-4.2.1-6.2,2.3-2,4.3-1,5.8,1,1.4,1.9,2.3,4.1,3.7,5.9.7,1,2.1,1.4,3.2,2.1.2-1.2.9-2.5.5-3.5-1.1-3.2-2.3-6.4-3.9-9.4-1.7-3.1-.6-5.9,1.7-6.8,1.6-.6,4.6,1.3,6.3,2.8,1.2,1.1,1.4,3.3,2.1,5,1.3,3.2,1.6,7.4,7.2,5,2.7-1.1,4.5,1,3.7,3.9-1.3,5.1-3.3,10-4.5,15.1-1,4.2-1.7,7.9-7.4,7-.9-.1-2.8,2-3,3.2-1.1,9-2.5,17.8-9.1,24.8-.7.8-.6,2.3-.9,3.5,1.1-.2,2.5-.2,3.4-.8,4.8-3.3,9.9-6.4,14.1-10.4,1.8-1.6,1.8-5.1,2.7-7.7.7-2.1.7-5.6,2-6.2,1.9-.9,5.8-.7,7.1.6,3.1,3.3,6.4,4.1,10.6,3.8,1.5-.1,3,.9,4.6.9,3.8,0,8,.6,11.4-.6,8.9-3.1,17.9-3.8,27.1-3.2,3.4.2,6.8,1.6,5.1,6.6-.3,1,.5,2.4.9,3.5,1.7,4-.4,5.7-3.9,6.8-1.4.5-2.6,1.7-3.9,2.7,1.3.4,2.7.8,4,1.3,2.6,1,5.1,2.1,7.6,3.4.2.1-.4,3-1,3.1-2.5.6-5.2,1.2-7.7.8-4.6-.8-9.1-1.9-13.5-3.5-3-1.1-5.9-2.8-8.6-4.6-4.9-3.2-9.4-6.8-15.9-3.1-2.2,1.2-5.5.1-8.1.9-2.3.7-5,2-6.2,3.9-4.4,7.2-11.2,10.3-19.3,7.9-.8-.2-1.7-.6-2.4-.3-9.2,3.8-18.5,7.7-27.7,11.6-1.6.9-2.8,2.2-4.5,3.1Z"/>
  <path class="cls-1" d="M104.82,472.6c8.7-.4,17.2-.4,25.7-.8,2.4-.1,5.1-.8,7.1-2.1,9-5.9,19.1-8.5,29.4-11.1,14.8-3.7,29.5-2.1,44.3-2.7,8.4-.3,16.7-.8,25.1-1,6.1-.2,12.1.1,18.2-.1,1.9-.1,3.8-1.3,5.7-1.9,14.9-5,29.9-10,44.8-15,7-2.4,14-4.9,20.9-7.4.4-.2.9-.6,1.2-.6,3.3.6,8.5-2.2,9.4,3.2.8,4.6-3.5,4.8-7.1,6-16.8,5.7-33.4,11.9-50.1,17.8-6.5,2.3-12.9,5.2-19.7,6.7-5.9,1.3-12.1.9-18.2,1.2-10.2.4-20.4.8-30.6,1-8.3.2-16.7-.3-25,.1-13.2.7-26.2,2.9-38.2,9-2.4,1.2-4.2,3.5-6.5,4.9-4.2,2.5-8.6,1.9-13.2,1.1-13.3-2.3-25.3,3-37.6,6.9-4.5,1.4-9.1,2.4-13.8,2.8-1.4.1-4.3-1.9-4.4-3.1-.2-1.8,1.1-5,2.5-5.5,10-3.4,19.9-6.2,30.1-9.4Z"/>
  <path class="cls-1" d="M719.82,110.1c-2.9-1.7-3.9-1.4-3.9,2.1s-1.2,6.7-5.8,6.6c-4.2,0-6.9-4.2-4.9-9.9,3.9-11,9.3-21.1,20.2-26.9,1.2-.6,2.7-1.2,4-1.2,4.9.3,9.5-.5,13.9-2.7,1.3-.6,3.4-.6,4.6.1,6.1,3.6,11.2.5,16.4-2.2,2.9-1.5,5.7-3.1,8.6-4.6,1-.5,2.4-1,3.1-.7,6,2.8,10.4-1.4,15.5-3,4.3-1.4,8.8-2.7,13.2-2.8,1.7,0,4.6,2.9,5.1,5,.6,2.9-2.1,3.8-4.9,3.8-6.7-.2-11.9,3.2-17.2,6.8-7.3,5-14.7,10-19.5,17.7-2.2,3.6-3.6,7.8-5.1,11.9-2.2,5.6-7.4,7.9-10.7,4.4-2.3-2.5-2.9-5.4-1.2-8.5.4-.8.8-1.6,1.1-2.5-1.1-.1-2.6-.6-3.4-.1-3.6,2.3-7,4.8-10.5,7.4-3.4,2.6-6.6,3.2-9.7-.6-.5-.7-2.3-.5-3.4-.4-1.6.1-3.4.3-5.5.3Z"/>
  <path class="cls-1" d="M441.12,884.8c1.3-9.9,2.7-19.4,4-28.8.8-6,1.2-12.1,2.1-18.1,1.2-8.8,2.3-17.6,4.1-26.3,2.7-13.4,6-26.6,5-40.4-.5-6.6.4-13.4-.2-20-.9-10-2.6-19.9-3.8-29.8-.2-1.5,0-3-.1-4.5-.1-3,.1-6.4,3.9-5.8,1.9.3,4.6,3.2,4.9,5.2,4,24.1,5.3,48.4,4,72.7-.5,9.6-3.5,19.1-5.2,28.7-1.4,7.8-2.4,15.7-3.6,23.5-1.3,8.3-2.6,16.6-3.8,24.9-.5,3.8-.7,7.7-1.2,11.5-2.1,18.5-3.7,37-3,55.7.2,5.2,1,10.4.8,15.6-.1,2-2,4.3-3.6,5.7-.6.5-3.5-.7-4.4-1.8-1.1-1.3-1.6-3.4-1.7-5.2-.5-11.7-1.1-23.4-1-35,.1-8.7,1.2-17.4,1.9-26.1-.1-.5.5-.8.9-1.7Z"/>
  <path class="cls-1" d="M749.32,216.6c2.1,7,4,13.7,5.7,20.5.8,3.4-1.2,5.9-4.2,6.7-3.8,1-7.5-.1-8.5-4.3-2.7-11.6-9.9-20.3-18.2-27.9-17.5-16.2-37.5-28.1-61-33.7-2-.5-4.1-.6-6.2-.6-6.5,0-7.1-5.2-7.5-9.5-.2-1.4,3.5-4.7,5.3-4.6,8.1.5,16.3,1.3,24.1,3.2,16.1,3.9,31,10.8,44.4,20.6,10.7,7.8,19.8,17.2,26.1,29.6Z"/>
  <path class="cls-1" d="M929.32,143.6c.4,2.7.9,5.3.5,7.7-.1.7-2.8,1.7-4.1,1.4-1.6-.3-2.9-1.8-4.2-2.9-1.7-1.5-3-4.1-5-4.7-8.6-2.7-17.3-4.8-26-7.2-2.7-.7-5.5-1.2-8.1-2.2-2.7-1.1-4.5-2.9-4.6-6.5-.1-3.4-1.3-7.4-3.4-9.9-1.2-1.4-5.5-.6-8.1,0-4.3,1.1-8.6,2.7-12.5,4.7-3.3,1.7-5.4-.3-6.1-2.4-.5-1.5,1-4.9,2.5-5.5,5.6-2.5,11.4-5,17.5-6,16.6-3,32.8-1.2,48.6,4.9,1.6.6,3.2,1.2,4.7,2,5.8,3.2,6.3,6.3,1.8,10.9-3.9,4-3.6,6.6.8,10,1.9,1.4,3.6,3.5,5.7,5.7Z"/>
  <path class="cls-1" d="M344.32,855.6c1,.9,1.7,1.5,2.4,2.1.5-.8,1.3-1.6,1.3-2.4-.2-3.4-.8-6.7-.9-10.1,0-3.2-1.2-6.6,3.4-8.6,3.8-1.6,6.5-6.3,11.3-4.3,5.4,2.1,9,7.1,9.9,12.2,1.3,7.3.5,15,.1,22.6-.1,1-2.9,2.6-4.4,2.6s-3.8-1.6-4.2-2.9c-.7-2.3-.1-4.9-.1-7.4,0-4.2,0-8.5-.2-12.7,0-.6-1.3-1.7-2-1.6-.7,0-1.7,1.1-1.8,1.9-.5,2.5-.8,5-1.1,7.6-.4,3.2-.5,6.4-1.1,9.6-.7,3.7-4.7,5-8.3,3.2-1.7-.9-3.7-1.1-5.6-1.3-3.5-.3-5.3-2.3-6.1-5.5-.3-1.2-.8-2.4-1.2-3.5-.9,1.2-1.8,2.4-2.7,3.6-2.5,3.1-4.4,7-7.6,9.2-4.3,3-7.3-.4-9.4-4-5-8.6-6.4-18.1-6-28,.2-3.6,3.5-6.6,6.6-5.8,4.3,1,3.9,4.7,3.2,7.5-1.8,6.5,1,12.3,2.3,18.4.1.7,1.1,1.2,1.7,1.9.4-.7,1-1.3,1.3-2,2.4-6.7,4.4-13.5,7.2-20,.9-2.1,4.2-4.7,6.1-4.5,2.4.2,3.8,3.1,3.9,6.5,0,5,1.1,10.2,2,15.7Z"/>
  <path class="cls-1" d="M639.12,487.8c-8.9-7.2-19-11.3-29.3-14.9-7-2.5-13.5-5.5-19.1-10.7-2.4-2.3-5.8-3.5-8.9-5-2.4-1.2-4.3-2.4-3-5.6,1.4-3.5,3.9-4.7,7.2-3.3,3.4,1.5,6.9,3.2,9.6,5.6,7.3,6.3,16.3,8.8,24.7,12.8,8.8,4.2,17.2,9.1,25.8,13.7,13.4,7.1,22.6,18.3,30.1,31.1,4,6.8,10.7,10.2,17.1,14.1,1.7,1.1,3.3,2.4,5.2,3.1,3.4,1.3,4.5,4,3.2,6.8-1.5,3.1-4.9,3.3-7.6,1.7-9.9-6-20.7-10.7-26.9-21.7-6.7-11.6-15.6-21.3-28.1-27.7Z"/>
  <path class="cls-1" d="M744.12,385.8c-.7,7.2-1.2,13.9-2,20.6-1.3,10.6-3.1,21.2-9.3,30-4.4,6.3-11.5,8.5-19,9.4-13.2,1.6-23.8-3.8-33.6-11.6-3.8-3.1-7.4-6.4-10.9-9.9-1.9-1.9-3.4-4.1-.4-6.9s5.3-1.5,7.6.3c6.2,4.7,11.9,10.4,18.6,14.3,13.3,7.7,31.6,6.4,35-13.5,1.5-8.8,1.7-17.9,3.2-26.7,1.4-8.8,3.5-17.5,5.7-26.1.6-2.6,2-5.2,3.6-7.4.6-.8,3.1-.8,4.3-.3,1.1.5,2.4,2.4,2.2,3.4-.8,5.7-2,11.4-3.1,17.1-.6,2.3-1.3,4.5-1.9,7.3Z"/>
  <path class="cls-1" d="M830.12,298.8c25.3,8.7,41,26.1,49.2,50.7,1.4,4.2,3.5,8.5-.1,12.4-1.5,1.7-3.8,3.5-5.8,3.5-1.5,0-4-2.6-4.2-4.4-1.7-12.5-9.4-21.8-17.7-30-10.1-9.9-21.5-18.3-35.9-21.5-3.4-.8-7.2-2.5-6.5-7.5.6-4,4.4-6.9,9.2-6.2,3.8.6,7.5,2,11.8,3Z"/>
  <path class="cls-1" d="M658.82,244.6c3.9-5.6,8.6-9.8,14.9-11.7,15.2-4.7,22.8,4.9,20.1,18-2.5,12-9.9,21.2-22.4,25.3-8.3,2.7-18.8-2.6-18.4-13.1.1-6.9,1.9-12.8,5.8-18.5Z"/>
  <path class="cls-1" d="M395.12,822.8c8.5-2.3,12.5,2.1,14.7,10.1,2.9,10.7-3.3,22.9-13.5,26.2-1,.3-2.3.9-3.2.6-2.6-.8-5.8-2.7-6.8,1.2-.9,3.6,1.8,6.3,5,7.9,5.3,2.5,10.2.3,14.9-1.7,3.5-1.5,6.7-4,10.1-5.9,2.7-1.5,5.8-2.9,8.1.5,1.9,2.8.8,5.2-1.8,7.1-6.9,5.3-14.3,9.3-23.3,10.1-10.1.9-17.4-1.1-21.3-11-1.2-3-.6-6.7-.8-10.2-.7-9.7.3-19,7.1-26.5,2.8-3.2,6.8-5.6,10.8-8.4M396.62,848.8c4.1-3.7,3.9-8.8,4.3-13.6.3-3.1-2.9-3.2-4.6-2-2.7,2-5.4,4.5-7.1,7.4-1.1,1.9-1.5,5.7-.4,7,1.4,1.5,4.8,1.2,7.8,1.2Z"/>
  <path class="cls-1" d="M795.32,360.1c5.8-9.8,13.3-16.2,24.9-16.2,5.3,0,10.1,4.2,10.8,9.5,2.1,15.1-11.1,30.6-24.3,33.4-10.1,2.1-17.5-7.1-14.8-17.2.9-3.2,2.1-6.2,3.4-9.5Z"/>
  <path class="cls-1" d="M284.12,816.8c-3,.3-5.5.9-8.1,1-3.3.1-6.6-1.1-6.6-4.6,0-1.8,2.9-4.7,4.9-5.2,10.2-2.5,20.6-4.2,30.7-6.8,4.1-1.1,6.9.3,7.9,3.4,1.1,3.4-1.5,5.6-5,6.2-1.1.2-2.1.9-3.1.9-4.5,0-5,3-4.6,6.3,1.3,10.6,3.2,21.2,3.7,31.8.2,4.7-1.5,10-3.9,14.2-4.2,7.3-10.9,8.9-19.1,4.7-3.1-1.5-5.4-4.7-7.7-7.5-2.9-3.5.1-6.1,2.6-7.3,2.7-1.3,6.4-2.4,8.3,1.9,1.1,2.4,1.6,6.6,5.4,4.7,2.1-1.1,4.3-4.5,4.3-6.9.2-8.2-.5-16.4-1.1-24.6-.2-3.1-1.1-6.2-1.7-9.2-.7-3.8-2.7-5.4-6.9-3Z"/>
  <path class="cls-1" d="M843.32,148.6c-7.9-5.5-15.4-11-23.2-16.1-11.9-7.9-24.6-14.3-38.7-17.6-1.9-.4-4.1.4-5.9-.2-2-.6-3.7-2.2-5.5-3.4,1.4-1.8,2.6-5.1,4.1-5.2,4.7-.4,9.8-.5,14.2.8,20.2,5.8,38,16.2,54.3,29.2,7.1,5.6,13.9,11.6,20.6,17.7,3,2.7,5.9,5.8,8,9.2,1.2,1.9.6,4.9.7,7.4-2.7-.3-6.3.3-8-1.2-6.9-6.5-13.5-13.6-20.6-20.6Z"/>
  <path class="cls-1" d="M470.82,641.6c-5.6,4.7-4.9,11.1-5.7,16.9-1.2,9.4-2.2,18.8-8.2,26.6-2,2.6-4.7,5.1-7.6,6.5-1.3.7-5.5-1-5.7-2-.4-2.3.1-6,1.7-7.2,5.8-4.3,7.8-10.2,8.7-16.9.8-6.1,2.2-12.1,2.9-18.2.6-5.7,3.8-9.7,7.5-13.3,5.1-5,10.3-10.1,15.8-14.7,1.6-1.3,4.6-1.5,6.8-1.3,2.4.2,3.4,4.7,1.3,6.8-2.6,2.7-5.6,4.9-8.3,7.5-2.9,2.9-5.9,6-9.2,9.3Z"/>
  <path class="cls-1" d="M452.12,280.8c-.5,1.6-.7,3-1.5,3.9-1.5,1.5-3.4,2.7-5.1,4.1-1.5-2.3-4.7-3.2-3.7-7.3,1.3-5.2,2.4-10.2.7-16.4-3.3-12.3,6.4-31.1,19.2-35.6,3.6-1.2,5.4.4,6.7,2.6.5.9-.8,3.4-1.9,4.6-3.3,3.7-7.8,6.6-10.2,10.7-2.4,4-3.3,9-4.1,13.7-.6,3.6,1.5,5.3,5.2,3.7,4.8-2.1,8.9-.6,12.6,2.5,2.1,1.8,3.2,4.5.9,6.6-1.3,1.2-4,1.8-5.8,1.3-6.6-1.7-9.3-.8-13,5.6Z"/>
  <path class="cls-1" d="M949.32,179.1c-2.7,2.7-5.3,2.7-7.4.1-3.4-4.3-6.6-8.8-9.4-13.5-.7-1.3-.2-4.6,1-5.5,2.9-2.2,2.2-4.7,1.2-7-1.3-2.8-1.2-5.4,1.5-6.6,1.1-.5,4,.8,4.9,2.1,3.1,4.6,5.7,9.5,8.6,14.3.1.1.4.3.3.3-2.5,5.1-.6,10.3-.7,15.8Z"/>
  <path class="cls-1" d="M926.12,113.8c-6.2-3-12.2-5.6-17.6-9.1-3.5-2.3-6.6-5.6-9-9.2-1.7-2.6,1.1-5.1,3.5-4.5,7.3,1.9,14.9,3.5,21.3,7.2,3.2,1.9,4.1,8,5.5,12.3.3.7-2.1,2.2-3.7,3.3Z"/>
  <path class="cls-1" d="M635.82,509.1c3.5,2.8,7,5.1,9.9,8.1,1.4,1.5,2.7,4.8,1.9,6.2-1.1,2.1-3.9,3.7-6.9,1.6-5.4-3.8-11-7.3-16.1-11.4-1.2-.9-1.5-3.5-1.3-5.2.1-.7,2.7-1.6,4.1-1.4,2.8.2,5.5,1.1,8.4,2.1Z"/>
</svg>