<?xml version="1.0" encoding="utf-8"?>
<!-- Generator: Adobe Illustrator 28.1.0, SVG Export Plug-In . SVG Version: 6.00 Build 0)  -->
<svg version="1.1" id="Contours" xmlns="http://www.w3.org/2000/svg" xmlns:xlink="http://www.w3.org/1999/xlink" x="0px" y="0px"
	 viewBox="0 0 939.9 939.9" style="enable-background:new 0 0 939.9 939.9;" xml:space="preserve">
<style type="text/css">
	.st0{fill:#3F3F3F;}
</style>
<path class="st0" d="M606.9,615.3c21.1,0,41.8-0.1,62.5,0c7.9,0,15.8,0.3,23.6,0.7c7.4,0.3,14.8,0.8,22.2,1.4
	c6.1,0.5,12.3,1.2,18.4,2.2c2.9,0.5,3.5-1.6,3.8-3.3c1.6-7.8,2.9-15.7,4.4-23.5s3.2-15.6,4.8-23.4c1.3-6.7,2.5-13.5,3.8-20.2
	c2.1-10.4,4-20.9,6.4-31.3c1.5-6.8,1.2-7.7-6.7-13.3c-6.8-4.8-5.5-10.8-1.6-14.8c2.3-2.4,2-3.7-0.2-5.6c-6.6-5.7-2.5-12.2,3.4-15.4
	c1.5-0.8,3-1.2,1.2-3.7c-5.5-8-1.4-17,8.7-19.1c2.7-0.5,3.6-1.5,2.3-4.1c-4-7.9,2-15.1,9.3-15.4c1.3,0,3.5-1.9,3.5-3
	c0.5-8.4,0.9-16.8,0.8-25.2c-0.1-4-4.7-7.3-9.2-7.4c-2.5,0-5.1,0.4-7.5-0.2c-1.5-0.3-2.6-2-3.9-3.1c1.2-1.3,2.3-3.5,3.7-3.7
	c5.7-0.6,11.4-0.2,16.6,2.7c5.5,3.1,7.3,8.4,7.4,14c0.1,7.9-0.9,15.8-1.2,23.7c0,1,1,2.8,1.8,2.9c9.2,1.6,15.6,6.5,17.7,15.8
	c1.2,5.4,2,10.9,2.5,16.4c0.6,7-1.6,13.6-3.4,20.3c-1.9,7.2-4.9,13.9-8.5,20.4s-9.4,9.3-15.8,11.3c-3.3,1-7.1,0.7-10.4,1.7
	c-1.6,0.4-3.5,2.3-3.8,3.9c-1.9,8.9-3.4,17.9-5.2,26.8c-1.5,7.9-3.3,15.8-4.9,23.7c-1.5,7.8-2.9,15.7-4.4,23.5c-1.8,9-3.6,18-5.5,27
	c-0.4,1.8,0.1,2.6,1.9,2.8c11.2,1.3,21,6.4,30.2,12.3c13.7,8.8,23.1,21.4,26.2,37.7c2.1,11.3,0.6,22.5-2.5,33.7
	c-5.5,20-15.9,37.3-28.1,53.7c-2.6,3.5-5.4,6.8-8,10.2c-0.3,0.4-0.5,1.2-0.3,1.4c0.4,0.4,1.1,0.8,1.7,0.7c9.5-1.7,18.1,1.1,25.3,6.7
	c6.4,5,7.3,10.3,3.8,19.3c-4.1,10.4-11.1,19-18.2,27.5c-4.8,5.8-9.1,12-14.5,17.1c-7.1,6.7-14.3,13.8-24.4,15.9
	c-3.6,0.8-7.4,0.7-11.1,0.8c-7.9,0.3-15.7,0.7-23.6,0.7c-3.8,0-7.7-1.3-11.5-1.3c-9.1,0-18.1,0.4-27.2,0.7c-1.2,0-2.4,0.5-3.4,1.2
	c-7.3,4.8-14.4,9.9-21.9,14.3c-3,1.7-4.5,3.9-5.5,6.7c-3.9,10.4-10.1,19.4-17.2,27.8c-5.1,6-10.3,11.9-15.9,17.3
	c-6.2,5.9-12.4,12.2-21.2,14.1c-2.7,0.6-5.8,0.6-8.3-0.3c-12-4-23.8-8.5-35.8-12.7c-6.3-2.2-12.7-4.3-19.1-6.4
	c-15.9-5-31.8-9.9-47.7-15c-9.8-3.2-18.8-8.1-25.9-15.8c-5.6-6-7.8-13.3-7.5-21.5c0-0.3,0.1-0.7,0.1-1c0.3-1.2,0.7-2.4,1.1-3.7
	c-1.5,0.4-2.9,0.8-4.4,1.3c-12,4-23.9,8.6-36,12c-10.6,2.9-21.5,4.6-32.3,6.5c-4.8,0.9-9.8,1.2-14.7,1.4c-9.2,0.4-18.4,1-27.5,0.6
	c-9.6-0.4-19.2-1.9-28.8-2.7c-13.2-1-26-4.2-38.5-8.1c-11.1-3.5-22-7.8-32.6-12.7c-11.1-5.2-21.5-11.8-30.5-20.3
	c-4.3-4.1-8.1-8.8-12.4-12.9c-2.1-2.1-1.2-4.1,0.4-4.8c1.3-0.6,4.2,0,5.1,1.1c12.5,15.2,28.5,25.4,46,33.7
	c13.2,6.2,27.2,10.5,41.3,13.9c8,1.9,16.4,2.4,24.5,3.7c13,2.1,26,2.6,39.1,2c10.8-0.5,21.6-1.7,32.4-2.8
	c17.9-1.7,34.9-7.1,51.8-12.9c5-1.7,9.7-4.6,14.8-5.5c5.3-0.9,6.6-5.1,9.3-8.2c2.8-3.3,5.1-7.2,9.7-8.5c0.3-0.1,0.7-0.8,0.6-1
	c-0.4-0.6-0.8-1.2-1.4-1.5c-5.4-2.2-10.9-4.2-16.3-6.3c-10.5-4-20.9-8.2-31.4-12.1c-6.9-2.5-14-4.6-21-7c-0.7-0.2-1.8-0.3-2.1-0.8
	c-1-1.3-2.6-3.1-2.2-4c0.8-1.9,2.7-3,5.2-2.1c3.9,1.4,7.9,2.7,11.9,4.1c16,5.7,31.9,11.4,47.8,17.2c3.8,1.4,7.7,2.8,11.1,5
	c4.6,3,8.6,1.3,12.8-0.4c5.3-2.2,10.8-3.6,16.5-3.1c1.5,0.1,2.8,1.9,4.2,2.8c-1.2,1.1-2.4,3.2-3.7,3.3c-9.5,0.7-18.3,3.6-25.9,9
	c-10.6,7.5-18.3,17.1-16.6,31.1c0.6,5.4,3.7,10.1,8,13.4c6.7,5.2,14.2,9.1,22.3,11.6c10.3,3.3,20.7,6.2,31,9.7
	c21,7,41.9,14.2,62.9,21.4c5.4,1.8,10.8,4.1,16.2,0.9c3.4-2,6.6-4.6,9.4-7.4c7.5-7.6,15.2-15.1,21.9-23.4
	c7.6-9.4,14.2-19.8,16.6-31.9c3.3-16.6-3.5-27.7-20.7-33.5c-9.8-3.3-20.1-4.3-30.3-3.5c-14.9,1.2-29.8,3-44,8.3
	c-2.6,1-4.6-0.4-5.4-2.5c-1-2.6,1.4-3.9,3.3-4.4c6-1.6,12.1-3,18.2-4.3c9.9-2.1,19.8-3.8,29.9-3.6c2.1,0,4.1,0.1,6.2,0
	c0.6,0,1.2-0.4,1.9-0.7c-0.3-0.5-0.4-1.1-0.8-1.5c-9.7-10.8-21.2-18.7-35.3-22.4c-4.9-1.3-9.3,0-12.8,3.6
	c-8.9,9.3-18.7,17.4-30.6,22.7c-4.6,2-9.4,3.9-14.2,5.3c-1.1,0.3-2.9-1.6-4.4-2.5c1.3-1.5,2.3-3.4,3.9-4.3c2.5-1.4,5.4-1.9,8-3
	c0.4-0.2,0.9-1.6,0.7-1.8c-7-7.9-6.9-16.4-2.9-25.5c3.7-8.3,8.9-15.4,15-22c4-4.4,7.8-8.9,12.2-12.8c7.8-7,15.7-14,24.1-20.3
	c3.3-2.5,0.9-3.2-0.3-4.1c-5.6-4.1-11.4-8-17.2-11.9c-16.6-11.5-33.3-23.1-49.9-34.6c-10-6.9-20.1-13.5-30.1-20.4
	c-16.1-11.1-32-22.5-48.3-33.5c-3-2-7-3-10.6-3.5c-6.9-0.9-13.9-1.2-20.8-1.5c-16.1-0.6-31.5,2.8-46.6,8.2
	c-18.9,6.8-36.5,15.8-52,28.6c-9.9,8.2-19.6,16.9-28.3,26.3c-10.5,11.3-18.9,24.2-25.3,38.3c-4.6,10.1-8.4,20.6-9.8,31.6
	c-1.1,8.6-0.2,17.4-0.2,26.2c0,0.9,0.2,2.1-0.3,2.7c-0.7,0.8-2.2,1.8-2.8,1.5c-1.3-0.6-3-1.8-3.2-3.1c-1.7-8.6-2.2-17.3-0.1-25.9
	c1-4.2,1.9-8.5,2.8-12.7c0.1-0.5-0.1-1.5-0.3-1.6c-0.8-0.1-1.8-0.2-2.3,0.2c-7,5.9-14.4,11.4-20.6,18c-4.6,5-7.8,11.4-11.2,17.4
	c-3,5.3-4.4,11.3-4.6,17.3c-0.1,3.7,1.6,7.4,2.2,11.1c0.2,1.3-0.3,3.3-1.2,4c-0.8,0.6-3,0.1-3.9-0.7c-12.7-11-18.8-25.7-22.9-41.4
	c-1.9-7.1-3.6-14.3-4.9-21.5c-0.9-5-1.2-10.1-1.5-15.1c-0.8-13.6-1.8-27.2-2-40.9c-0.2-9.8,0.7-19.6,1.4-29.4
	c0.5-7,1.2-13.9,2.1-20.9c1-7.7,2.3-15.4,3.5-23.2c1.6-10.1,3-20.3,5.1-30.4c2.4-11.7,5.1-23.3,8.4-34.7c5-17.6,10.2-35.2,15.9-52.7
	c3.7-11.2,8.2-22,12.8-32.9c4.2-9.9,9-19.6,13.5-29.4c0.5-1,1-2.2,1.9-2.7c1.1-0.7,2.9-1.3,3.8-0.9c1.5,0.8,2.8,2,1.5,4.5
	c-3.6,6.9-7,14-10.1,21.1c-4.7,10.7-9.2,21.4-13.5,32.3c-3.3,8.4-6,17-8.8,25.6c-3.6,11.4-7.6,22.7-10.4,34.2
	c-3.8,15.4-7,31-10,46.5c-2,10.3-3.6,20.7-5,31.1c-1.2,8.6-2.1,17.3-2.9,25.9c-0.7,7.5-1.2,15.1-1.4,22.6
	c-0.4,10.8-1.1,21.7-0.6,32.5c0.5,11.3,2.4,22.6,3.4,33.9c1,11.6,4,22.7,8,33.5c2.2,5.9,5.1,11.5,7.7,17.1c0.2,0.5,1,0.8,1.6,1.2
	c0.2-0.6,0.6-1.2,0.6-1.7c-0.8-13.8,6.5-24.3,14-34.7c8.3-11.6,19.6-19.5,31.7-26.5c1.5-0.8,3-2.4,3.5-4c5.1-14.5,13-27.4,22.5-39.2
	c7.1-8.8,14.7-17.3,23-25.1c10-9.4,21.1-17.5,33-24.5c12-7.1,24.5-13.2,37.9-17.2c9-2.7,18.2-4.5,27.4-6.3c4.4-0.8,9.1-0.5,13.6-0.9
	c0.7,0,1.3-0.7,2-1c-0.5-0.4-1-0.8-1.6-1.1c-6.3-2.4-12.8-4.3-18.7-7.3c-7-3.6-14-7.6-20.2-12.4c-9.1-7.1-18.1-14.6-26.3-22.7
	C295,568.2,286.4,556,279,543c-6.1-10.8-11.1-22-14.6-33.9c-1.5-5.1-2.4-10.5-3.3-15.8c-0.2-1.1,1.3-2.4,1.9-3.6
	c1.2,0.8,3.1,1.3,3.5,2.4c1.5,4.2,2.4,8.5,3.7,12.7c3.2,10.5,6.8,20.7,12.1,30.3c6,11,12.6,21.6,21.1,30.9
	c5.8,6.3,11.3,12.8,17.8,18.3c8,6.7,16.7,12.8,25.5,18.5c9.4,6.1,19.6,10.6,30.5,13.4c6.9,1.8,14.1,3,21.2,4.1
	c4.5,0.7,9.1,1,13.6,0.7c16-0.9,30.8-5.4,43.4-15.7c3.7-3,7.6-6.5,9.5-10.6c2-4.4,1.6-9.8,2.4-14.7c1.4-8.3,2.9-16.7,4.2-25
	c1-6.5,1.8-13,2.9-19.5c1.3-8.2,2.8-16.4,4.2-24.7c1-6.4,1.9-12.8,2.9-19.1c1.4-8.5,2.9-16.9,4.3-25.4c1.1-6.6,1.9-13.3,2.9-19.9
	c0.4-2.5,1.2-5,1.7-7.5c0.1-0.8-0.2-1.6-0.3-2.4c-0.7,0.2-1.5,0.1-1.9,0.5c-4.8,4.7-9.6,9.5-14.4,14.3c-6.5,6.5-12.9,13-19.4,19.4
	c-9.9,9.7-19.7,19.4-29.8,29c-4.6,4.4-7.2,3.7-10.2-1.3c-8-13.4-16.2-26.6-24.3-39.9c-3.6-5.9-7.2-11.8-10.5-17.8
	c-0.5-1-0.2-3.5,0.5-3.9c1.1-0.6,3.5-0.4,4.1,0.4c2.9,3.8,5.5,7.9,8,12c8,13,15.9,26,23.9,39c0.9,1.5,1.5,3.3,2.6,4.6
	c0.5,0.6,2.5,0.9,3,0.4c5.6-5.3,11-10.9,16.4-16.3c13.6-13.4,27.2-26.8,40.8-40.1c3-2.9,6-6,9.3-8.5c4.1-3.2,4.4-7.7,5.4-12.1
	c0.4-1.8,2.3-3.3,3.6-5c1.1,1.4,2.7,2.6,3.3,4.2c0.4,1.2-0.3,2.8-0.6,4.3c-1.7,10.4-3.3,20.8-5,31.1c-2.1,12.3-4.4,24.6-6.4,37
	c-1.6,9.7-2.8,19.5-4.3,29.3c-1.3,7.8-2.9,15.5-4.2,23.2c-1.1,6.6-1.8,13.3-2.9,19.9c-1.3,8.1-2.9,16.2-4.2,24.3
	c-1.1,6.5-1.9,13-2.9,19.5c-0.8,5.3-1.8,10.7-2.7,16c-0.4,2.4,0.3,3.6,2.9,3.3c7.1-0.7,14.2-1.5,21.2-2.1c3.2-0.3,6.5-0.5,9.7-0.7
	c8.5-0.5,17-0.9,25.5-1.4c8-0.5,16-1,24-1.4c10-0.5,20.1-1,30.1-1.4c8-0.3,16-0.5,24-0.8C604.7,615.9,605.7,615.5,606.9,615.3
	 M794,697.7c0.2-0.3,0.7-0.5,0.7-0.8c1-8.5,1.9-17,0.1-25.6c-2.3-11.3-7.9-20.6-16.5-27.7c-13-10.7-28.4-16.2-45.1-17.7
	c-7.6-0.7-15.1-1.6-22.7-2.1c-10.5-0.7-21-1.4-31.5-1.4c-28,0-56,0.4-83.9,0.7c-6.6,0.1-13.1,0.4-19.7,0.7
	c-10.2,0.4-20.3,0.9-30.5,1.4c-7.7,0.4-15.3,0.9-23,1.4c-9.6,0.7-19.2,1.4-28.7,2.1c-7.7,0.6-15.4,1.4-23,2.1
	c-9.1,0.9-18.2,1.9-27.4,2.8c-6.7,0.7-13.5,1.4-20.2,2.2c-0.7,0.1-1.3,1-2,1.5c0.5,0.6,0.9,1.3,1.6,1.8c1,0.7,2.2,1.1,3.2,1.8
	c16.9,11.6,33.7,23.2,50.5,34.8c9.6,6.6,19.3,13.1,28.9,19.7c17.2,11.9,34.3,23.9,51.6,35.8c1.8,1.2,3.7,1.5,5.9-0.3
	c5.2-4.1,10.6-8,16.2-11.6c15.7-9.9,31.5-19.8,47.4-29.4c11.4-6.8,23-13.3,34.7-19.7c5.2-2.9,10.5-5.5,15.9-8.1
	c3.5-1.6,7.1-3,10.7-4.2c0.8-0.3,3,0.6,3,0.9c0,1.4-0.4,2.9-1.1,4.1c-0.6,0.9-1.9,1.5-3,2c-6,3.1-12,6.1-17.9,9.3
	c-13.2,7.1-26.6,14.1-39.6,21.6c-11.4,6.5-22.6,13.5-33.5,20.7c-10.6,7-21,14.4-31.2,21.9c-9.3,6.9-18.4,14-27.1,21.5
	c-5.9,5-11.2,10.7-16.4,16.4c-5.5,6-10.7,12.3-13.9,19.9c-2.3,5.3-4.2,10.8-0.8,16.5c2.4,4,5.3,5.5,8,3.5c4.5-3.1,8.8-6.5,13-10
	c3.2-2.6,6.1-5.5,9.1-8.3c3.7-3.5,8.5-5.7,13.1-5c6.8,1.1,13.8,3,19.7,6.4c10.5,5.9,20.9,12.5,26.7,24c0.5,1,1.8,1.8,3,2.2
	c5.4,1.6,11.1,2.4,16.4,4.4c11.6,4.4,21.9,15.3,21.7,29.6c0,2.1,0.5,4.3,0.7,6.5c1.6-1.1,3.2-2.2,4.8-3.3
	c20.2-13.2,40.2-26.5,58.5-42.3c9.4-8.1,18.9-16.1,28-24.5c6.1-5.7,11.8-11.9,17.4-18.1c4.9-5.4,9.8-10.9,14.4-16.5
	c11.8-14.4,22-29.9,28.8-47.3C790.9,709.1,792.3,703.7,794,697.7 M738.3,796.3c-8.2,7.5-16.3,15.1-24.6,22.4
	c-5.4,4.8-11.1,9.3-16.8,13.6c-7.8,5.8-15.8,11.3-23.6,17c-0.5,0.3-0.7,1-1,1.5c0.6,0.3,1.2,0.8,1.8,0.8c2-0.1,4.1-0.7,6.1-0.6
	c6.6,0.1,13.1,0.7,19.7,0.6c11.1-0.1,22.2-0.4,33.2-0.7c0.6,0,1.1-0.2,1.7-0.3c7.6-1.8,13.5-6.4,18.7-11.7
	c6.4-6.6,12.5-13.7,18.2-21c5.2-6.6,10.3-13.5,14.3-20.8c5.3-9.5,2.9-14.9-7.6-18.1c-4.9-1.5-10.3-2-15.5-2.1
	c-3.6-0.1-7.2,0.7-10,4.2C748.4,786.2,743.4,790.9,738.3,796.3 M798.2,468.6c-0.2-6.6,0-13.2-0.9-19.6c-0.8-5.5-2.4-11.1-8.6-13.4
	c-2.3-0.8-4.4-2-6.6-3c-0.7-0.3-1.6-0.5-2.4-0.4c-1.9,0.3-3.7,0.9-5.6,1.1c-3.8,0.4-5.6,3-3.7,6.3c1.2,2.1,3.3,3.6,4.8,5.5
	c1.1,1.4,3,3.2,2.7,4.3c-0.7,2.2-3.1,3.1-5.5,2.5c-4.6-1.1-8.8,0.3-12.6,2.5c-3.5,2-3.4,4.5-0.6,7.4c2.4,2.5,5.4,3,8.7,3.1
	c1.3,0,2.6,1.8,3.9,2.8c-1,1.2-1.7,3-2.9,3.4c-4.5,1.5-9.2,2.4-13.8,3.7c-3,0.9-3.4,2.9-1.3,5.1c2.2,2.4,4.7,4.2,8.3,4.3
	c1.2,0,2.9,1.8,3.2,3c0.2,0.8-1.4,2.5-2.5,3.2c-1.7,1-3.8,1.3-5.4,2.3c-1.7,1.1-3.9,2.4-4.4,4.1c-0.3,1.1,1.7,3.5,3.2,4.3
	c2.7,1.6,5.9,2.3,8.8,3.7c6,2.8,18.6-0.5,22-6.1C792.3,489.4,795.6,479.4,798.2,468.6 M453.1,615.3c-5.7,2.9-11.2,6.6-17.2,8.4
	c-7.7,2.3-15.9,3-23.8,4.5c-1,0.2-2,1-2.9,1.6c1.1,0.6,2.3,1.9,3.4,1.8c3.4-0.2,6.7-0.9,10-1.5c5-0.9,9.9-1.9,14.9-2.6
	c6.6-0.9,13.2-1.4,19.8-2.3c0.7-0.1,1.6-1.1,1.8-1.9c1.1-4.1,2-8.2,2.9-12.3c0.1-0.4-0.2-1.2-0.3-1.2c-0.6,0-1.5,0-1.9,0.3
	C457.8,611.7,455.8,613.5,453.1,615.3z"/>
<path class="st0" d="M593.6,335.6c10.6,0.5,21,0.9,31.4,2c14.2,1.5,28,5.2,41.1,11c4.9,2.2,10.3,4.7,11.7,10.9c0.4,1.9,0.3,4,0.1,6
	c-0.2,2.3-0.6,4.2,2.2,5.7c3.1,1.7,5.7,4.4,5.5,8.6c0,0.6,1.1,1.3,1.8,1.9c0.2,0.2,0.7,0,1,0c13.8,0.2,27.6,0.4,41.5,0.8
	c7.1,0.2,14.1,0.8,21.2,1.5c1.3,0.1,2.4,2,3.7,3c-1.3,1.1-2.6,3.1-3.9,3.1c-12,0-24.1-0.3-36.1-0.6c-4.3-0.1-8.6-0.6-12.9-0.7
	c-16.9-0.3-33.8-0.5-50.7-0.8c-8.8-0.2-17.6-0.5-26.5-0.7c-9.7-0.2-19.4,0.3-28.9-0.9c-15.6-1.9-31.3-2.1-47-2
	c-12.9,0.1-25.2,3.2-36.1,10.2c-3.7,2.4-6.5,6.6-9,10.4c-1.3,2-3,2-4,1.4c-1.3-0.7-3.1-1.7-1.9-4.3c3.1-6.7,7.8-11.9,14.4-15.2
	c4.6-2.3,9.7-3.6,14.2-6.2c3-1.8,5.4-4.8,7.8-7.5c1.9-2.1,3.4-4.7,5.5-6.6c2.4-2.2,2.1-4.2-0.1-5.7c-4.8-3.1-9.7-6.5-15-8.5
	c-9-3.4-18.4-5.5-28.2-5.2c-2.3,0.1-3.5-0.9-3.5-3.3c0-2.5,1.4-3.1,3.6-3.2c13-0.5,25.3,2.6,37,8c3.9,1.8,7.3,4.8,10.8,7.5
	c1.6,1.2,2.3,2.2,4.6,0.5c5.5-4.2,11.4-8,17.3-11.7C574.4,340.2,583.3,336.5,593.6,335.6 M569.5,351.2c-4.2,2.8-8.8,5.1-12.5,8.4
	c-5.9,5.3-11.3,11.1-16.9,16.8c-0.4,0.4-0.6,1.4-0.4,1.9c0.2,0.4,1.2,0.7,1.8,0.7c6.8-0.4,13.7-1.4,20.5-1.3
	c9.9,0.2,19.9,1.5,29.8,2c10,0.5,20,0.6,30,0.7c5.2,0.1,10.3-0.1,15.5,0c5.9,0.1,11.7,0.6,17.5,0.7c7.3,0.1,14.5,0.1,21.8,0
	c0.8,0,1.6-0.6,2.5-0.9c-0.4-0.7-0.7-1.7-1.3-2.2c-0.9-0.8-2-1.4-3.1-1.8c-2.7-1.1-5.3-2-8-3c-11.2-3.9-22.4-8.1-34.4-9.2
	c-2.9-0.3-5.9-0.5-8.6-1.6c-1.5-0.6-3.6-2.9-3.4-4.2c0.3-1.9,2.3-3.3,4.9-2.2c1.6,0.7,3.6,0.5,5.4,0.8c5.1,0.9,10.3,1.4,15.3,2.7
	c7.6,2,15,4.5,22.5,6.7c0.9,0.2,1.9-0.3,2.9-0.5c-0.4-2.1,0-5.2-1.3-6.1c-4.2-2.9-8.9-5.4-13.6-7.4c-10.5-4.5-21.5-7-32.9-7.6
	c-4.8-0.3-9.6-0.7-14.4-1.4c-7.5-1.1-15-1.5-22.3,0.8C580.9,345.9,575.4,348.5,569.5,351.2z"/>
<path class="st0" d="M565,267.8c-4.4,6.8-8.3,13.6-12.9,19.9c-4.3,5.8-9.1,11.5-14.4,16.5c-9.4,9-19.8,16.7-32.3,21
	c-1.5,0.5-3.1,0.9-4.6,0.9c-3.9,0-5.5,2.5-6.7,5.6c-2.8,6.9-5.5,13.9-8.6,20.7c-1.7,3.6-4.8,5.3-9.3,5.2
	c-16.1-0.2-30.6-5.3-43.9-13.9c-5.8-3.8-11.4-8.1-16.4-12.9c-3.9-3.8-7.7-8.1-8.9-13.7c-0.3-1.4,0.5-3,0.7-4.5
	c0.9-6.6,4.9-11.8,7.8-17.4c1-1.9,1-3.3-0.5-4.9c-6.9-7.8-12.9-16.2-17.4-25.6c-3.8-7.9-6.4-16.1-7.1-24.9c-0.3-3.5-0.1-7,0-10.5
	c0-2.7,1.8-3.4,4-3.1c2.2,0.3,2.6,2,2.4,4c-1.4,15,4.2,28.3,11.6,40.5c8.5,13.9,19.8,25.3,35.3,31.9c2.3,1,5.4,2.1,4.4,5.2
	c-1.2,3.5-4.6,2.1-6.8,1c-5.2-2.7-10.3-5.6-15.3-8.8c-3.2-2.1-3.7-2.4-5.7,0.9c-2.4,4.1-4.7,8.3-6.8,12.5c-1.5,3,1.1,5.2,2.5,7.2
	c4.9,6.8,11.1,12.5,18.3,16.8c9.9,6,20.3,10.8,31.8,12.8c3.8,0.7,7.9,0.6,11.7-0.1c1.6-0.3,3-3.2,3.9-5.2c2.5-5.3,4.6-10.7,7-16
	c0.6-1.5,0.4-1.8-1.4-2.1c-7.1-1.2-14.1-2.6-21-4.3c-2-0.5-3.8-2.5-5.3-4.1c-0.6-0.6-1-2.4-0.6-3.1c0.8-1.3,1.8-2.6,4.2-1.4
	c4,1.9,8.4,3.5,12.8,4.5c14.3,3.3,27.8,1.6,40.3-6.9c16.5-11.3,29-26.2,39.2-43.1c6.7-11.2,12-23.2,15.2-35.8
	c2.1-7.9,3.8-16,1.9-24.4c-0.3-1.3-0.2-3,0.4-4c0.6-1,2.7-2.3,3.2-2c1.4,1,3.3,2.6,3.3,4c-0.1,8,0,16.2-1.4,24
	c-2.1,11.6-6.5,22.7-12,33.2C566.9,264.8,566,266.2,565,267.8z"/>
<path class="st0" d="M401.5,164c1.1,2.1,2,3.9,3,5.8c0.9-1.7,1.5-3.6,2.6-5.2c5.7-8.1,11.8-15.5,20.1-21.3
	c6.9-4.8,12.1-11.7,16.3-19.1c4.2-7.6,8.1-15.4,12.2-23.1c0.7-1.2,1.7-2.6,2.9-3.1c0.8-0.4,2.7,0.2,3.3,1c0.7,0.9,1,2.7,0.6,3.7
	c-2.6,5.7-5.1,11.5-8.3,16.9c-4.4,7.2-9.2,14.1-14.3,20.8c-2.5,3.3-5.5,6.3-8.8,8.7c-9.5,6.9-17.1,15.3-21.3,26.4
	c-0.3,0.8-0.6,1.8-1.2,2.3c-1.4,1.3-3,3.3-4.5,3.2c-1.4,0-3.2-2-4-3.6c-1.6-3.4-4.6-4.3-7.7-4.6c-7-0.7-13.1,1.3-18.5,6.2
	c-6.7,6-10.9,13.5-12.3,22c-1.6,9.8,1.7,22.1,13.3,25.5c2,0.6,4.2,0.6,6.2,0.4c2.4-0.1,4,1.1,4.5,3.1c0.6,2.2-1.1,3-3.2,3.6
	c-5.1,1.5-9.8,0-13.9-2.2c-8.6-4.6-12.4-12.4-13.6-22c-1-8.4,1.2-15.9,4.9-23.1c0.9-1.8,0.5-2.9-0.4-4.8c-3.1-6.4-6-13.1-7.7-19.9
	c-2.2-8.7-3-17.8-4.5-26.7c-1.6-9.4,0.2-18.5,1.4-27.7c1.6-12,5.1-23.4,10.7-34.1c6-11.5,14.4-20.8,25.3-27.8
	c1.4-0.9,3.5-0.9,5.3-0.8c1.8,0.1,2.6,2.9,1.3,4c-3.1,2.6-6.3,5.2-9.7,7.6c-6.3,4.4-10.4,10.6-14.3,16.9c-5.5,9-9.2,18.9-11.4,29.2
	c-2.1,10.5-2.9,21.2-2.2,31.9c0.9,13.5,3.8,26.6,8.6,39.2c0.3,0.9,0.8,1.9,1.4,2.6c1.1,1.3,1.5,3.2,3.8,0.3
	c4.2-5.3,10.3-8.4,16.9-9.6c3.2-0.6,6.6,0.1,9.9,0.2c0.3,0,0.9-0.8,0.8-1.2c-0.1-1-0.3-2.1-0.8-2.8c-1.5-2.1-0.7-3.8,1.1-4.6
	c2.3-1.1,4.1,0.5,5.3,2.3C401.1,161.2,401.1,162.6,401.5,164z"/>
<path class="st0" d="M242,375.3c-11.6,14.2-20.5,29.8-28.2,46c-1.4,3-2.7,6-3.7,9.2c-0.8,2.3-2,4.1-4.4,3.4
	c-2.3-0.7-3.1-2.8-2.1-5.4c4.8-12.1,10.3-23.9,17.3-35c7.1-11.4,15.2-22.1,24.2-32.1c9.4-10.6,19.6-20.1,31.2-28.1
	c9.4-6.4,18.8-12.9,28.8-18.4c10.7-5.8,22.3-10.1,34.2-12.9c7.6-1.8,15.6-2,23.4-3c12.1-1.6,23.6,0.9,35.1,4.3
	c2.3,0.7,4.7,1.5,6.6,2.8c1.3,0.9,1.8,2.9,2.7,4.5c-1.6,0.4-3.4,1.5-4.9,1.1c-6.6-1.7-13.1-4.5-19.8-5.4c-7.8-1-15.8-0.7-23.6-0.1
	c-6.9,0.5-13.9,1.9-20.6,3.5c-6.8,1.7-13.6,4-20.1,6.6c-12.8,5.1-24.6,12.3-35.7,20.5c-5.9,4.3-11.8,8.8-17.1,13.8
	C257.2,358.6,249.8,367,242,375.3z"/>
<path class="st0" d="M623.4,103.5c1.7,12.3,1.1,24-4.3,35.1c-4,8.2-11,13.4-19.8,13c-5-0.2-4.5,2.1-5.1,4.6
	c-3,10.9-5.8,21.8-8.8,32.8c-0.6,2.1-1,4.4-2.1,6.3c-0.7,1.2-2.3,2.8-3.4,2.7c-2.4-0.2-3.4-2.5-2.8-4.6c1.8-7.1,3.8-14.1,5.8-21.1
	c2-6.9,4.2-13.7,6.2-20.6c0.2-0.7-0.5-1.8-1-2.4c-1.1-1.1-2.6-1.9-3.6-3.1c-0.7-0.9-1.6-2.7-1.2-3.3c1-1.4,2.3-2.8,4.8-1.6
	c3.2,1.6,6.7,3.2,10.2,3.6c8.6,0.9,13.4-4.8,16.5-12.9c2.3-6,3.2-12.4,2.9-18.8c-0.8-17.3-6.4-33.1-17-46.8
	c-4-5.2-8.8-10.1-15.9-11.4c-0.3-0.1-0.5-0.4-0.8-0.5c-2.1-0.9-5-1.7-3.9-4.6c0.9-2.5,3.1-3.1,6.3-2.3c3.4,0.8,7.1,0.8,10.4-2.3
	c3.4-3.2,3.3-9.8,0.1-13c-1.8-1.8-3.6-3.9-5.8-4.9c-2.8-1.3-2-3.4-1.5-4.9c0.5-1.6,2.4-1.8,4.2-1c7.1,2.9,11.1,8.6,12.4,15.6
	c1.1,5.9-1.2,11.1-6.7,14.6c-2,1.2-1.2,3,0.3,4.3c7.1,6.1,11.9,13.8,15.9,22.2c3.3,7.1,5.8,14.3,7.1,22
	C622.8,101.2,623.1,102.1,623.4,103.5z"/>
<path class="st0" d="M585.7,21.9c0.8,4.1-2.6,6.6-7.2,5.9c-3.7-0.6-7.4-1.1-11.2-1.4c-12.6-1.2-24.7-4.4-36.5-9.1
	c-10.7-4.2-21.6-8.5-33.2-9.4c-8.2-0.6-16.5-1.1-24.7-0.7c-15.3,0.8-30,4.3-43.8,11.2c-10.7,5.4-20.8,11.7-28.9,20.7
	c-2.6,2.9-5.3,3-6.2,0c-0.5-1.6,0.9-4.2,2.1-5.7c5.3-6.3,12.3-10.5,19-15C426.5,10.7,439.2,6.5,452,3c6.3-1.7,13.1-1.7,19.8-2.3
	c5.6-0.4,11.2-0.8,16.8-0.7C499,0.1,509.1,2.6,519,5.9c9.4,3.2,18.5,7,28,9.9c5.5,1.7,11.4,2.6,17.2,3.3c6.5,0.8,13.2,1,19.7,1.5
	C584.4,20.7,585,21.4,585.7,21.9z"/>
<path class="st0" d="M489.2,85.6c3.7-0.2,7.1-1,10.4-0.6c6.8,0.8,13.6,2,20.3,3.5c14,3.2,26.7,9.2,38.3,17.8
	c7.8,5.8,14.6,12.5,20.2,20.4c2,2.8,3.4,5.9,4.7,9.1c0.4,0.9-0.3,2.9-1.2,3.5c-0.7,0.5-2.6,0.1-3.5-0.6c-1.3-1-2.5-2.4-3.3-3.9
	c-5.9-11-14.9-18.9-25.1-25.8c-11.5-7.8-24.1-12.8-37.5-15.3c-7.7-1.5-15.8-1.7-23.6-1.4c-6.1,0.3-12.1,2.3-18.1,3.5
	c-1.2,0.2-2.6,0.7-3.6,0.3c-2.9-1.2-3.3-3.7-0.5-5.3c2.9-1.7,6.2-2.9,9.5-3.6C480.3,86.3,484.6,86.1,489.2,85.6z"/>
<path class="st0" d="M557,157c2.9-0.1,4.9,1.4,4.8,3.6c0,2.5-2.5,3.4-4.9,3.5c-1.5,0.1-3.1,0-4.6,0c-3.5,0.2-5,2.2-3.8,5.5
	c3.5,9.9,0.3,18.6-4.9,26.7c-2.1,3.3-6.1,5.2-10,4.7c-4.3-0.5-7.2-3.7-8.6-7.9c-3.8-11.5-0.7-18.3,9.1-27.1c5.1-4.5,11.1-7,17.4-8.7
	C553,156.9,554.9,157.1,557,157z"/>
<path class="st0" d="M626.2,486.1c2-0.1,3.7-0.5,5.1,0c0.9,0.3,2.1,2.7,1.9,2.9c-1.4,1.4-2.9,3-4.7,3.5
	c-9.1,2.3-17.5,12.5-17.3,21.9c0.1,4.5,2.2,8.1,6.3,9.7c4.1,1.6,8.7,1.3,12.4-1.5c1-0.8,0.9-3.1,1.3-4.7c-1.2-0.2-2.5-0.6-3.6-0.5
	c-2.6,0.2-5.3,0.8-7.4-1.4c-0.8-0.8-1.8-2.3-1.6-2.8c0.7-1.2,2.1-2.7,3.2-2.7c7.5,0.2,14.7-1.4,22-2.8c1.3-0.2,3.1,2,4.6,3.1
	c-1.1,1.1-2,2.6-3.2,3.1c-6.7,2.5-6.7,2.4-6.8,10.1c-0.1,3.9-0.1,7.9-0.8,11.8c-0.3,2.1-1.9,4-3.1,5.8c-0.1,0.2-2.3-0.4-2.5-0.9
	c-0.7-2.1-1-4.3-1.3-6.5c0-0.2,0.5-0.5,0.5-0.8c0.2-0.9,0.4-1.9,0.5-2.8c-1,0-2.1-0.2-3.1,0c-2.2,0.3-4.4,1.1-6.6,1.3
	c-7.8,0.7-15.6-5.1-17.3-14c-1.3-7.3,1-13.7,4.8-19.5C613.5,492.2,618.9,488.1,626.2,486.1z"/>
<path class="st0" d="M453.6,155.4c-1.8-0.6-3.6-0.7-5-1.5c-1.2-0.7-2.1-2.1-3.1-3.2c1.4-1,2.7-2.6,4.3-2.8c5-0.7,9.2,1.9,13.1,4.3
	c6,3.8,10.7,9.1,12.9,16.2c1.2,3.8-0.3,7.1-1.8,10.3c-2.3,5.1-5.6,9.3-11.1,11.2c-4.6,1.6-10.8-2-11.7-6.8
	c-1.6-8.4-0.7-16.4,2.8-24.3C454.5,157.9,453.9,156.6,453.6,155.4z"/>
<path class="st0" d="M482.2,363.8c1.7,2.5,0.6,4.6-3.1,5.9c-8.2,2.9-16.7,3.3-25,1c-7.1-2-14.3-3.9-21-6.9c-5.5-2.5-10.7-6-15.6-9.8
	c-6.9-5.3-13.2-11.3-17.7-19c-2.1-3.7-4.5-7.4-4.1-11.8c0.1-1.5,1.7-2.8,2.6-4.2c1.1,1,2.9,1.7,3.3,2.9c4.2,14.2,14.4,23.3,26.2,31
	c8.8,5.7,18.5,9.5,28.7,11.7c7.1,1.5,14.3,1.1,21.2-1.5C478.9,362.7,480.6,363.5,482.2,363.8z"/>
<path class="st0" d="M494.9,260.5c1.9,0.2,3.5,0.8,5,0.7c9.4-0.9,18.1-3.3,25-10.3c0.9-0.9,2.5-1.6,3.9-1.7c2.7-0.3,3.5,1.3,2.5,3.9
	c-2.2,5.5-7.5,7.8-12.1,10.2c-7.8,3.9-16.5,5.3-25.2,4.4c-14.2-1.5-28-8.3-32.9-22.8c-0.8-2.3-1.2-4.9-1-7.4c0.1-1.2,1.9-2.2,3-3.3
	c1.1,1.1,3,2,3.1,3.2c1.2,12,9.1,17.9,19.3,21.7C488.3,260,491.5,260,494.9,260.5z"/>
<path class="st0" d="M377.3,217.5c-5.7-3.2-9.4-7.4-9.5-14c0-2.5,1.2-4.1,3.6-4.3c2.5-0.2,2.9,1.7,2.9,3.8c0,0.9,0.8,1.7,1.2,2.6
	c0.5-0.8,1.2-1.4,1.5-2.3c1.5-4.1,2.7-8.4,4.5-12.4c0.9-1.9,3-3.4,5.2-2.3c1.8,0.9,2.1,2.5,1.1,4.7c-2.4,4.8-4.4,9.8-6.4,14.8
	c-0.5,1.2-0.3,2.6-0.5,3.8c1.1-0.4,2.3-0.7,3.4-1.2c0.7-0.4,1.1-1.2,1.8-1.7c1.5-1,2.8-2.1,4.7-0.2c1.9,1.9,1.2,3.3-0.1,4.7
	c-3.2,3.5-6.8,6.1-11.9,4.2C378.4,217.5,377.9,217.7,377.3,217.5z"/>
<path class="st0" d="M521.5,221.1c1.5,8.4-5.7,16.9-13.8,16.5c-1.2-0.1-2.8-1.3-3.4-2.5c-1.1-2.1,0.9-3.1,2.4-3.8
	c1.8-0.9,3.8-1.3,5.5-2.2c3.7-2.1,3.7-7.9,0-9.9c-1.8-1-4.1-1.2-5.8-2.3c-1.7-1.1-4-2.9-4-4.3c0-1.9,2.4-3.3,4.9-2.7
	c6.1,1.3,11.1,4.4,14.1,10C521.4,220.1,521.3,220.5,521.5,221.1z"/>
<path class="st0" d="M488.4,140.6c1.7,2.6,0.6,4.7-1.2,5.6c-2.1,1-3.5-1-4.6-2.7c-1.4-2.3-2.5-4.9-4.4-6.7c-2.4-2.2-5.6-3.6-8.3-5.5
	c-1.4-1-2.5-2.5-3.7-3.8c1.2-1.1,2.4-3.1,3.5-3.1c2.3,0.1,4.9,0.9,6.9,2.1C482,129.8,486.6,133.9,488.4,140.6z"/>
<path class="st0" d="M551.8,140.4c-3.6,0.9-7,1.3-10.3,2.4c-2.7,0.9-5.2,2.4-7.5,4.1c-2,1.4-4.1,2.4-5.5,0.2
	c-0.8-1.2-0.5-4.2,0.5-5.1c5.8-5.4,12.8-8,20.8-7.1C552,135.2,553,137.8,551.8,140.4z"/>
</svg>
