<?xml version="1.0" encoding="UTF-8"?>
<svg id="Contours" xmlns="http://www.w3.org/2000/svg" viewBox="0 0 677.98 907.88">
  <defs>
    <style>
      .cls-1 {
        fill: #3f3f3f;
        stroke-width: 0px;
      }
    </style>
  </defs>
  <path class="cls-1" d="M254.68,521.39c-12.9-8-25.7-15.7-37-25.7-14.6-12.9-26.8-27.6-37.9-43.6-7.2-10.4-14.5-20.7-19.6-32.2-3.1-6.9-5-14.4-7-21.7-.8-3.1-2.6-4.6-5.3-5.7-14.1-5.7-22.3-15.8-24-31.2-1.8-16.5,9-32.9,23.9-39.2,3-1.3,2.6-3.4,2-5.6-2-6.8-4.1-13.5-6-20.2-4.1-14.3-8.3-28.7-12.3-43-1.3-4.6,1.4-8.6,5.3-7.5,1.7.5,3.7,2.5,4.2,4.2,4.4,15.2,8.5,30.5,12.8,45.8,2.2,7.9,4.7,15.7,7,23.6.7,2.5,1.1,5.1,1.2,7.7.2,7.6.1,15.2,0,22.8-.1,9.1-.3,18.2-.8,27.3-.9,15.9,3,30.8,10.9,44.4,6.5,11.1,13.8,21.7,21,32.3,7.7,11.5,17.1,21.5,27.2,30.9,9.4,8.8,19.7,16.4,30.9,22.7,6.1,3.4,12.4,6.5,18.7,9.8,2.8,1.4,4,3.2,2.5,6.5-.8,1.7-1.3,3.8-1.4,5.7-.4,7.1.1,14.3-.9,21.3-1.5,10.7,2.7,19.6,7.7,28.4,5.5,9.6,11.2,19,17.2,28.3,3,4.7,6.6,9,10,13.4,1.4,1.8,2.5,1.9,4.5.3,7.1-6,14.6-11.6,21.8-17.5,4.9-4,9.4-8.5,14.2-12.6,5.4-4.6,10.9-9,16.5-13.3,6.3-4.9,12.5-9.9,19-14.6,1.8-1.3,4.3-1.6,6.3-2.7,1-.5,2.4-1.5,2.4-2.2.1-3-.6-6-.6-9-.1-10.4,0-20.9,0-31.3,0-.9-.2-1.9-.3-2.8-1.1.3-2.3.5-3.3,1-5.3,3-10.9,5.3-17.1,5.6-3,.1-5-1.1-5.4-4.3-.4-3.3,2.1-4.9,4.4-5.3,12.3-2.2,21.7-9.2,30.5-17.5,12.9-12.2,22.8-26.4,31.6-41.7,9-15.7,16.4-32,22.3-49,2-5.6,4-11.3,6-16.9,1.5-4.3,4.1-6.5,6.9-5.6,2.2.7,3.9,5.4,2.7,8.7-4.8,13-9.5,26.1-14.8,39-7.1,17.2-16.1,33.4-26.8,48.6-7.4,10.5-15.6,20.3-25.7,28.5-1,.8-1.8,2.4-1.8,3.7.1,10,.4,19.9.7,29.9,0,2.1-.1,4.2,0,6.3.2,3.6.2,7.3.9,10.9.2,1.1,2.1,2.3,3.4,2.7,8.9,2.6,17.9,4.8,26.7,7.6,5,1.6,9.6,4.5,14.6,6.2,4.8,1.7,10.1,2,14.8,3.9,6.7,2.8,12.9,6.7,19.4,9.9,12.1,5.8,24.5,11.1,36.5,17.3,16.5,8.6,32.6,17.9,49,26.7,9.4,5.1,19.2,9.7,28.4,15.1,5.7,3.3,10.8,7.6,16.1,11.6,3.1,2.3,6,4.9,8.9,7.4,6.2,5.3,9.8,12.5,14,19.2,5.1,8.3,10.4,16.5,15,25.1,5.9,10.9,9,23,11.9,35,3.6,15,6.1,30.3,9.1,45.5,2.8,14.2,5.5,28.3,8.2,42.5.7,3.7,2,7.3,2.1,11,0,2.3-1.1,5.1-2.7,6.9-1.1,1.2-4.1,1.6-5.6-.6-1-1.4-1.6-3.1-1.9-4.8-1.7-9.1-3.3-18.3-5-27.4-1.1-6-2.1-12-3.3-18-1.7-8.9-3.4-17.7-5.2-26.6-1.9-9.5-3.7-19-6-28.5-4.5-18.6-11.5-36.1-22.9-51.7-2.3-3.2-4.5-6.5-6.3-10.1-3.2-6.4-8.5-10.7-13.8-15.1-4.2-3.5-8.5-6.9-13-10-3.7-2.5-7.8-4.5-11.8-6.7-5.9-3.2-11.8-6.3-17.7-9.5-6.9-3.9-13.6-8-20.5-11.8-11.9-6.5-23.7-13-35.8-19-10.5-5.2-21.4-9.6-32-14.7-5.4-2.6-10.4-6.2-15.9-8.5-5.2-2.1-11-2.8-16.3-4.7-5.7-2-11.4-4.2-16.9-7-6.6-3.4-11.3-.6-16.2,3.6-7.4,6.3-15.1,12.1-22.7,18.1s-15.2,11.9-22.8,17.8c-8.6,6.7-17.3,13.5-25.9,20.3-6.3,4.9-12.6,9.9-18.8,14.8-5,3.9-9.9,8-14.9,11.8-2.6,2-6.9,1.2-8.6-1.6-5.8-9.4-11.5-18.9-17.3-28.3-7.2-11.8-14.5-23.6-21.8-35.4-3.2-5.2-6.5-10.2-9.4-15.5-1.5-2.7-2.5-3.3-5.5-1.5-10.7,6.7-21.7,12.9-32.6,19.4-10.5,6.2-20.9,12.6-31.4,18.7-8.3,4.8-16.8,9.2-25.2,13.8-11.5,6.4-23.2,12.5-34.5,19.3-9.3,5.6-16.8,13.3-23.2,22.2-3.3,4.6-7,9-10.5,13.6-2.1,2.7-4.4,3-7.2,1.3-3.2-2-2.4-4.7-.7-7,7.4-10.4,14.8-20.9,24.4-29.4,11.2-10,24.3-16.9,37.5-23.8,19-9.9,37.3-21,55.9-31.6,9.9-5.6,19.8-11.2,29.5-16.9,5.9-3.5,11.6-7.3,17.6-10.8,4.7-2.7,9.4-5.4,14.4-7.6,5.4-2.5,5.8-2.6,5.6-8.3-.1-2.7-.1-5.3,0-8,.2-5,.5-10,.7-15q-.3-5.6-7.1-8.6M376.88,592.09c5.8-4.6,11.6-9.2,17.5-13.7,2.8-2.1,5.8-4.1,8.7-6.1.7-.4,1.4-.7,2.2-1.1-.7-.6-1.3-1.7-2.1-1.8-6.2-1.1-12.8-4.2-18,2.5-.6.7-1.4,1.3-2.2,1.9-10.1,8-20.3,15.9-30.3,24-4.5,3.7-8.6,7.8-13.1,11.5-8.9,7.3-17.9,14.4-26.8,21.7-4.6,3.8-9.2,3.8-13.1-.7-1.7-1.9-3.3-3.8-4.7-5.9-5.6-8.4-11.4-16.6-16.6-25.2-5.2-8.6-10.1-17.4-14.4-26.5-1.6-3.3-2.8-3.2-5.3-1.9-.9.5-1.8,1.1-2.8,1.4-2.9.7-2.1,2.5-1.2,4.1,2.8,4.7,5.7,9.3,8.6,14,12,19.5,24.2,39,36,58.6,1.4,2.2,2.4,2.4,4.2,1.1,3.6-2.7,7.1-5.6,10.7-8.4,9.8-7.8,19.6-15.7,29.5-23.5,10.8-8.7,21.8-17.1,33.2-26M150.88,371.19c.2-3.4.6-6.7.7-10.1.3-8.7.5-17.4.7-26.1,0-1-.3-2.7-.6-2.8-1.1-.2-2.5,0-3.4.6-2.8,2.3-5.8,4.6-8.1,7.4-5.7,6.8-7.6,14.6-6,23.5,1.6,9.2,8,14.2,14.8,19.1.5.3,1.6.6,1.7.4.5-.6.9-1.5.8-2.2-.1-3-.4-6-.6-9.8Z"/>
  <path class="cls-1" d="M540.28,234.39c-1.7,7.5-3.2,14.7-5.3,21.7-3.5,11.3-7.2,22.6-11.2,33.8-1.4,3.7-1.6,6.1,1.5,9.1,5,5.1,7.2,11.8,8.4,18.8,2.5,14.6-2.2,27.6-9.8,39.7-5,8-11.8,14.5-20,19.3-8.8,5.2-18.2,8.2-28.6,7.5-4-.3-5.7-1.6-5.8-5.1-.1-3.1,1.8-4.7,5.8-4.6,19.3.5,32-10,41.9-25.2,4.6-7.1,7-15.2,7.3-23.4.3-12.4-5.4-26.7-22.2-29.2-10.1-1.5-18.6,1.7-26.3,7-5.5,3.8-9.9,9.3-14.5,14.3-2.1,2.3-4.5,3.8-7,2.5-2.1-1.1-4.3-3.5-5-5.8-2.2-7.4-2.9-15.2-5.6-22.3-2.2-6-5.6-12-9.7-16.8-7.3-8.4-15.1-16.5-23.6-23.6-6.2-5.1-14-8.2-20.7-12.7-10.3-7-17.4-16.6-21.7-28.3-4.6-12.4-10-24.6-18.4-34.8-5.2-6.3-12.1-11.2-20.9-12.2-9.2-1-18.3-2.8-27.5-2.7-8.9.1-17.9,2.1-26.8,3.5-8.4,1.3-16.7,2.8-25,4.5-9,1.8-17.4,5.3-25.8,8.8-11.3,4.7-21.5,11.1-31.2,18.3-7.8,5.9-15.6,12.1-20.7,21-2.9,5.1-6.9,9.6-10.4,14.3-.1.2-.3.5-.5.5-6.6.7-10.4,7.4-18.2,6.8-11-.9-21.5-2.3-30.9-8.5-11.4-7.5-18.1-18.2-21-31.1-1.4-6.2-2.4-12.8-2.2-19.2.5-14.4,3.9-28.2,9.5-41.5,5.1-12.2,11.7-23.6,19.7-33.9,5.9-7.6,13-14.3,19.7-21.4.3-.3.9-.3,1.2-.6.7-.6,1.3-1.3,2-2-.8-.6-1.5-1.4-2.3-1.7-5.7-1.9-10-5.5-13.7-10.3-3.8-4.9-4-10.4-3.3-15.8,1.1-7.8,4.6-14.7,10.5-20.2,5.4-5,11.9-7.7,19-8.1,10.4-.7,20.9-.7,31.4-.8,10.6-.1,20.9-1.7,31.3-3.5,15.7-2.8,30.4-8.4,45.8-12,9.4-2.2,18.7-4.7,28.1-6.8,2.4-.6,5-.7,7.5-.8,12.8-.3,25.7-1.5,38.5-.5,15.9,1.2,31.8,3.7,47.6,6.7,8.8,1.6,17.2,5.2,25.7,8,8.6,2.9,17.6,5.2,25.7,9.1,12.7,6.2,24.9,13.7,34.1,24.8,4.6,5.6,8.6,11.8,12.7,17.8,1.7,2.4,0,4.9-1.7,6-2,1.2-4.7,1-6.5-1.4-3.2-4.3-6.4-8.6-9.7-12.8-5.8-7.2-12.5-13.3-20.4-18.3-11.3-7.2-23.5-12.1-36.3-15.9-10.3-3.1-20.5-6.4-30.9-9.1-5.4-1.4-11-1.7-16.5-2.4-8.3-1.1-16.6-2.5-24.9-2.9-8.6-.4-17.2.4-25.8.6h-1.1c-11.3-.4-22.1,2.2-32.9,5.2-11.5,3.2-23.3,5.6-34.7,9.1-10.8,3.3-21.7,5.5-32.8,7.3-5.8.9-11.8,1.1-17.6,1.6-4.2.3-8.5.7-12.7.7-4.9,0-9.8-.9-14.6-.6-6.3.4-12.6.7-18.4,4.2-7.5,4.5-12.9,15.8-10.1,23.1,1.8,4.8,5.9,7.3,10.4,9,2.4.9,5,1.2,7.6,1.5,2.9.4,4.6,2.4,4.4,5.4-.3,4.5-2.7,7.7-5.9,10.7-6,5.7-12.2,11.3-17.6,17.7-5.5,6.6-10.5,13.7-15.1,21-6.9,11.1-11.7,23.2-14.6,36.1-2,8.6-2.7,17.3-2,25.9,1.6,18.7,10.8,35.2,32.6,39.8,6.4,1.3,13.2.2,19.9.1.6,0,1.4-.8,1.8-1.4,4.6-6.7,8.8-13.6,13.8-20,9.2-11.7,21.3-20,33.8-27.9,11.2-7,23.1-12.7,35.7-16.4,8.5-2.4,17.2-4.1,25.9-5.9,8-1.7,16.1-3.6,24.3-4.4,7.9-.7,16-.3,24-.1,5.2.2,10.3,1,15.4,1.4,9.8.7,18.3,4.5,25.7,11,11.8,10.3,18.4,24.1,23.6,38.3,5.3,14.5,13.8,25.9,27.6,33,12.7,6.6,24.1,15,33.2,25.9,10,12,18.7,24.9,20.7,41,.1.7.6,1.3.7,1.9.4,2,1.3,2.1,2.4.6,4.4-6.7,11.1-10.8,18-14.1,10.1-4.8,20.8-6.7,31.9-2.9,2.2.8,3.7.8,4.7-2.4,4.4-13.9,9.6-27.6,13.7-41.7,2.2-7.4,2.6-15.3,4-23,2.2-12.3,2.7-24.7,2.1-37.1-.9-17.9-4.1-35.4-11.3-52-5.6-13.1-13.2-24.8-23.6-34.5-5.4-5.1-11.8-9.1-17.9-13.3-2.9-2.1-4.8-5.2-3.6-7.4,1.4-2.4,5.4-3.3,8.4-1.5,11,6.7,20.5,15,28.8,24.9,6.9,8.2,12.5,17.3,16.4,27.2,3.6,9,6.3,18.3,8.7,27.7,4.1,15.5,4.3,31.4,3.7,47.3-.3,8.3-1.9,16.6-2.9,24.9-.4,2.2-.7,4.3-.9,6.9Z"/>
  <path class="cls-1" d="M260.48,312.69c1.8,10.6.9,20.6-4.6,29.5-7.4,11.9-19.7,8.7-26.7-.2-9.5-12.2-11.3-26.4-10.3-41.1.3-4.3,2.3-8.4,3.8-12.5.9-2.3-.7-2.8-2-3.2-3.9-.9-7.8-1.7-11.7-2.2-2.2-.3-4.5-.2-6.7,0-2.9.2-4.8-.9-5.1-3.9-.3-3.2,2.2-4.6,4.6-5,11.4-2.3,22,.8,31.5,6.8,6.4,4.1,12.4,9,17.9,14.2,4.8,4.5,9.1,9.9,9.3,17.6Z"/>
  <path class="cls-1" d="M42.48,742.89c3.9-6.6,7.8-12.9,11.2-19.5,4-7.6,7.5-15.5,11.4-23.2,1.5-3,3.1-6,5.1-8.7,1.9-2.5,4.3-1,6.2.2,1.6,1,2.8,2.3,1.6,4.7-2.2,4.3-4.1,8.7-6.2,13.1-8.6,18.6-19.4,35.8-30.2,53.2-8.6,13.8-16.2,28.2-21.3,43.7-3,9-5,18.4-6.6,27.8-1.6,9.2-2.5,18.5-3,27.8-.5,8.6,0,17.2-.1,25.8,0,2.6-.6,5.3-.7,7.9,0,1.5.9,3.1.6,4.5-.5,2.3-1.2,4.8-2.5,6.7-.7.9-3.9,1.3-4.5.7-1.5-1.7-3.1-4.2-3.2-6.4-.3-10.1-.4-20.1-.1-30.2.4-10.5.9-21.1,2.3-31.5,1.2-8.9,4.3-17.4,5.7-26.3,1.7-11.1,6.8-20.8,11.4-30.7,6.4-13.7,14.5-26.6,22.9-39.6Z"/>
  <path class="cls-1" d="M369.18,335.59c-13.5,2.1-20.1-8.7-24.3-18.7-1.5-3.6-2.5-7.5-3-11.4-1.2-9.2,3.9-16.1,9.3-22.5,6.1-7.2,13.3-13.5,22.6-16.4,4.3-1.4,9-1.9,13.6-2.2,2.5-.2,5.1,1.6,5.1,4.5,0,3.2-2.3,4.2-5.3,4.4-3.2.2-6.4.7-9.4,1.5-1.9.5-2.8,1.6-1.5,4.3,2.5,5.6,4.5,11.7,5.8,17.7,1.6,7.7,1.5,15.6-.6,23.3-2,6.7-5.1,12.5-12.3,15.5Z"/>
  <path class="cls-1" d="M148.58,733.39c.7,6.5,1.6,12.7,2.2,18.8,2.2,20.5,2.5,41.1,2.3,61.7-.1,4.6.7,9.2.6,13.9-.1,7.5-.5,15-.7,22.4-.1,6.1,0,12.3-.1,18.4,0,1.9-.2,3.9-.8,5.6-.7,2-2.2,3.3-4.8,3.1-2.2-.1-4-.4-4.1-3-.1-2.3-.2-4.6-.2-6.9,0-1.1.2-2.2.2-3.3v-33.2c0-15.7.3-31.4-.1-47.1-.3-11.1-1.1-22.3-2.2-33.4-1.1-10.2-2.9-20.4-4.4-30.6-.4-2.8.9-4.7,3.8-5.1,2.7-.4,5.4,1.8,5.9,4.6,1,4.7,1.7,9.2,2.4,14.1Z"/>
  <path class="cls-1" d="M325.38,425.29c-6.4,2-12.3,4.6-18.4,5.8-6.6,1.3-13.5,1.7-20.2,1.5-8.2-.2-16.3-1.8-23.8-5.3-2.5-1.2-4.4-4.9-3-6.8,1.4-2,3.2-3.1,6.4-2.1,8.3,2.6,16.8,5,25.7,4.6,15.8-.8,30.3-5,43-15,5.8-4.6,10.3-10.1,14.2-16.1,1.7-2.6,3.8-3.8,6.5-2.9,2.6.8,3.4,4.4,1.8,7.5-4.1,8-9.8,14.7-17.2,19.8-4.8,3.3-9.7,6-15,9Z"/>
  <path class="cls-1" d="M538.78,773.69c1,9.1,2,17.9,3,26.7.3,3.1.4,6.3.8,9.4.4,4.1,1.1,8.3,1.5,12.4.3,3-.2,6-2.9,7.6-1.1.7-3.6.5-4.5-.3-1.4-1.3-2.5-3.4-2.8-5.3-.8-5-1.1-10-1.6-15-1-9.4-2-18.8-3-28.2-.6-5.9-1-11.8-1.5-17.6-.5-5.4-1-10.8-1.5-16.1-.3-3.4,2-5.1,4.6-5.5,2.7-.4,4.5,1.9,5.1,4.5.7,3.6,1.1,7.3,1.5,10.9.3,5.4.8,10.7,1.3,16.5Z"/>
  <path class="cls-1" d="M292.78,533.29c-4.7-1.3-9.2-2.5-13.7-3.5-2.9-.7-3.9-2.8-3.6-5.3s1.7-4.3,4.9-3.7c4.4.9,8.8,1.8,13.2,2.2,7.1.7,14.2,1.2,21.4,1.5,11.4.6,22.3-1.7,32.6-6.8,2.5-1.2,4.6-.7,6,1.2,1.7,2.1,1.4,4.9-.9,6.2-4.8,2.6-9.8,5.7-15,6.7-9.2,1.8-18.7,2.6-28.2,3.1-5.5.2-11-.9-16.7-1.6Z"/>
  <path class="cls-1" d="M287.18,407.99c-3.2.2-6.4.8-9.2.1-7.8-2.1-14-6.2-16.3-14.7-1.5-5.6.1-10.6,3.4-14.6,6.3-7.5,14.5-12.2,24.6-12.2,1.5,0,4.2,2,4.1,2.9-.1,1.8-1.4,4.1-2.9,5-2.8,1.5-6,2.1-9.1,3.1-4.3,1.4-7.7,4.1-10.1,7.8-2.5,3.9-1.1,8.9,3.3,11.4,2.5,1.4,5.4,2,8,3.1,2.1.9,5.2.7,5.2,4.2,0,1.3-.5,2.5-1,3.9Z"/>
  <path class="cls-1" d="M500.68,323.89c4.4,2.6,3.8,6.7,2.7,10.1-2.2,7.1-6.1,13.4-12.8,17.3-1.7,1-4.1,1.8-6,1.4-1.3-.2-2.7-2.4-3.3-4-.8-2.4,1.1-3.7,2.9-4.8,3.4-2,3.4-2.1-.1-4.5-2.6-1.8-5.2-3.8-7.6-5.9-1.9-1.7-3-3.9-1.4-6.3,1.8-2.8,4.5-2.6,7-1.2,2.7,1.6,5.2,3.6,7.8,5.4,3.1,2.1,3.6,1.9,3.9-1.6.6-4,2.5-5.9,6.9-5.9Z"/>
  <path class="cls-1" d="M319.48,440.99c5.5,1.4,10.7,2.5,15.7,4.3,2.6.9,5.2,2.7,3.8,6.3-1.1,2.9-3.8,3.8-7.5,2.4-6.1-2.2-12.3-4-18.8-4-2.3,0-4.9.9-6.9,2.1-2.8,1.8-5.3,2.2-7.7-.1-1.9-1.9-1.3-6,1.6-8.1,5.9-4.1,12.5-4.6,19.8-2.9Z"/>
  <path class="cls-1" d="M445.28,729.89c6,3.4,7.5,9.1,8.3,15,.5,3.7.3,7.5,0,11.3-.1.9-1.6,1.8-2.4,2.7-.7-1.1-1.3-2.1-1.9-3.2-.1-.2,0-.5,0-.7q-.1-7.2-7.7-7.2h-5.6c-6,0-6.5.4-8.4,5.9-.6,1.7.1,5.2-3.2,4.4-3.2-.8-1.7-3.9-1.2-5.7,2.1-6.3,3.4-12.8,7.8-18.4,4.3-5.5,9.1-5.9,14.3-4.1M445.18,735.69c-2.3-1.4-4.6-3.6-7.2-1.4-2.3,2-4,4.7-5.9,7.1-.3.4-.2,1.2-.3,1.8.7,0,1.4.1,2.1.1,3.4,0,6.7,0,10.1-.2,1.4-.1,2.8-.4,4.2-.7-.3-1.1-.6-2.3-1-3.3-.5-1.1-1.2-2.1-2-3.4Z"/>
  <path class="cls-1" d="M346.28,234.39c-5.8,3.1-11.5,6-14.9,11.6-.8,1.4-1.5,2.8-2.3,4.3-1.1,2.2-3.2,2.7-4.9,1.9-1.4-.7-3.3-3-3.1-4.1.8-3.2,1.9-6.6,4-9.1,6.5-7.8,14.7-13.5,25-14.9,2.5-.4,6.1.1,6.8,3.6.3,1.4-.5,3.5-1.6,4.5-1.2,1-3.2,1.1-4.9,1.5-1.2.2-2.5.4-4.1.7Z"/>
  <path class="cls-1" d="M221.88,238.29c12.6-.3,23.4,3.5,32.2,12.4,2.1,2.1,2.6,4.5,1.2,7.1-1.3,2.4-4,2.8-6,.7-7.3-7.5-16-11.3-26.5-10.7-3,.2-5.8-.6-6.2-3.8-.4-3.4,2.5-4.5,5.3-5.7Z"/>
  <path class="cls-1" d="M482.78,731.19c3.9,1.9,1.6,4.9,1.3,7.1-.8,6.3-2.1,12.5-3.6,18.6-1,3.9-3.3,4.6-5.8,1.6-3.5-4.3-8.1-8.1-9.1-14.1-.1-.3-.4-.6-.7-.8-.8-.7-1.7-1.3-2.5-1.9-.2.9-.5,1.8-.5,2.7.2,4.1.6,8.2.6,12.4,0,1-1.2,1.9-1.8,2.9-.9-1-2.5-1.9-2.5-3-.2-6.7-.2-13.4,0-20.1,0-1,1-2.6,1.8-2.8,1.2-.3,3.3,0,3.9.8,2.5,3.5,4.7,7.2,7,10.9,1.4,2.3,2.8,4.6,4.2,6.8.3.5,1,.8,1.6,1.2.3-.6.8-1.2.9-1.9.8-5.1,1.4-10.3,2.4-15.4.3-1.9,1.6-3.4,2.8-5Z"/>
  <path class="cls-1" d="M398.48,734.89c-1.7-.7-3.1-1.5-4.5-2.2,1.4-1,2.7-2.7,4.1-2.9,7-.8,14-1.1,21-1.6.9-.1,1.9.2,2.7.6.6.4,1.3,1.4,1.2,2-.1.7-1,1.6-1.8,1.7-2,.4-4,.8-6,.8-2.6,0-2.7,1.6-2.5,3.4.4,4.1,1.2,8.3,1.4,12.4.1,1.9-.4,4-1.1,5.9-1.7,4.5-5.9,6.6-10.3,5.2-1.9-.6-3.8-1.8-5.4-3.1-.7-.6-.5-2.3-.7-3.5,1.1-.2,2.2-.6,3.3-.4.8.1,1.6,1,2.3,1.5,3.3,2.2,6.6.8,6.7-3.2.1-4.9-.3-9.7-.7-14.6-.2-2.5-3.5-3.5-7.3-2.4-.6.1-1.3.2-2.4.4Z"/>
</svg>