<?xml version="1.0" encoding="utf-8"?>
<!-- Generator: Adobe Illustrator 28.2.0, SVG Export Plug-In . SVG Version: 6.00 Build 0)  -->
<svg version="1.1" id="Contours" xmlns="http://www.w3.org/2000/svg" xmlns:xlink="http://www.w3.org/1999/xlink" x="0px" y="0px"
	 viewBox="0 0 678 907.9" style="enable-background:new 0 0 678 907.9;" xml:space="preserve">
<style type="text/css">
	.st0{fill:#3F3F3F;}
</style>
<path class="st0" d="M254.7,521.4c-12.9-8-25.7-15.7-37-25.7c-14.6-12.9-26.8-27.6-37.9-43.6c-7.2-10.4-14.5-20.7-19.6-32.2
	c-3.1-6.9-5-14.4-7-21.7c-0.8-3.1-2.6-4.6-5.3-5.7c-14.1-5.7-22.3-15.8-24-31.2c-1.8-16.5,9-32.9,23.9-39.2c3-1.3,2.6-3.4,2-5.6
	c-2-6.8-4.1-13.5-6-20.2c-4.1-14.3-8.3-28.7-12.3-43c-1.3-4.6,1.4-8.6,5.3-7.5c1.7,0.5,3.7,2.5,4.2,4.2c4.4,15.2,8.5,30.5,12.8,45.8
	c2.2,7.9,4.7,15.7,7,23.6c0.7,2.5,1.1,5.1,1.2,7.7c0.2,7.6,0.1,15.2,0,22.8c-0.1,9.1-0.3,18.2-0.8,27.3c-0.9,15.9,3,30.8,10.9,44.4
	c6.5,11.1,13.8,21.7,21,32.3c7.7,11.5,17.1,21.5,27.2,30.9c9.4,8.8,19.7,16.4,30.9,22.7c6.1,3.4,12.4,6.5,18.7,9.8
	c2.8,1.4,4,3.2,2.5,6.5c-0.8,1.7-1.3,3.8-1.4,5.7c-0.4,7.1,0.1,14.3-0.9,21.3c-1.5,10.7,2.7,19.6,7.7,28.4
	c5.5,9.6,11.2,19,17.2,28.3c3,4.7,6.6,9,10,13.4c1.4,1.8,2.5,1.9,4.5,0.3c7.1-6,14.6-11.6,21.8-17.5c4.9-4,9.4-8.5,14.2-12.6
	c5.4-4.6,10.9-9,16.5-13.3c6.3-4.9,12.5-9.9,19-14.6c1.8-1.3,4.3-1.6,6.3-2.7c1-0.5,2.4-1.5,2.4-2.2c0.1-3-0.6-6-0.6-9
	c-0.1-10.4,0-20.9,0-31.3c0-0.9-0.2-1.9-0.3-2.8c-1.1,0.3-2.3,0.5-3.3,1c-5.3,3-10.9,5.3-17.1,5.6c-3,0.1-5-1.1-5.4-4.3
	c-0.4-3.3,2.1-4.9,4.4-5.3c12.3-2.2,21.7-9.2,30.5-17.5c12.9-12.2,22.8-26.4,31.6-41.7c9-15.7,16.4-32,22.3-49c2-5.6,4-11.3,6-16.9
	c1.5-4.3,4.1-6.5,6.9-5.6c2.2,0.7,3.9,5.4,2.7,8.7c-4.8,13-9.5,26.1-14.8,39c-7.1,17.2-16.1,33.4-26.8,48.6
	c-7.4,10.5-15.6,20.3-25.7,28.5c-1,0.8-1.8,2.4-1.8,3.7c0.1,10,0.4,19.9,0.7,29.9c0,2.1-0.1,4.2,0,6.3c0.2,3.6,0.2,7.3,0.9,10.9
	c0.2,1.1,2.1,2.3,3.4,2.7c8.9,2.6,17.9,4.8,26.7,7.6c5,1.6,9.6,4.5,14.6,6.2c4.8,1.7,10.1,2,14.8,3.9c6.7,2.8,12.9,6.7,19.4,9.9
	c12.1,5.8,24.5,11.1,36.5,17.3c16.5,8.6,32.6,17.9,49,26.7c9.4,5.1,19.2,9.7,28.4,15.1c5.7,3.3,10.8,7.6,16.1,11.6
	c3.1,2.3,6,4.9,8.9,7.4c6.2,5.3,9.8,12.5,14,19.2c5.1,8.3,10.4,16.5,15,25.1c5.9,10.9,9,23,11.9,35c3.6,15,6.1,30.3,9.1,45.5
	c2.8,14.2,5.5,28.3,8.2,42.5c0.7,3.7,2,7.3,2.1,11c0,2.3-1.1,5.1-2.7,6.9c-1.1,1.2-4.1,1.6-5.6-0.6c-1-1.4-1.6-3.1-1.9-4.8
	c-1.7-9.1-3.3-18.3-5-27.4c-1.1-6-2.1-12-3.3-18c-1.7-8.9-3.4-17.7-5.2-26.6c-1.9-9.5-3.7-19-6-28.5c-4.5-18.6-11.5-36.1-22.9-51.7
	c-2.3-3.2-4.5-6.5-6.3-10.1c-3.2-6.4-8.5-10.7-13.8-15.1c-4.2-3.5-8.5-6.9-13-10c-3.7-2.5-7.8-4.5-11.8-6.7
	c-5.9-3.2-11.8-6.3-17.7-9.5c-6.9-3.9-13.6-8-20.5-11.8c-11.9-6.5-23.7-13-35.8-19c-10.5-5.2-21.4-9.6-32-14.7
	c-5.4-2.6-10.4-6.2-15.9-8.5c-5.2-2.1-11-2.8-16.3-4.7c-5.7-2-11.4-4.2-16.9-7c-6.6-3.4-11.3-0.6-16.2,3.6
	c-7.4,6.3-15.1,12.1-22.7,18.1s-15.2,11.9-22.8,17.8c-8.6,6.7-17.3,13.5-25.9,20.3c-6.3,4.9-12.6,9.9-18.8,14.8
	c-5,3.9-9.9,8-14.9,11.8c-2.6,2-6.9,1.2-8.6-1.6c-5.8-9.4-11.5-18.9-17.3-28.3c-7.2-11.8-14.5-23.6-21.8-35.4
	c-3.2-5.2-6.5-10.2-9.4-15.5c-1.5-2.7-2.5-3.3-5.5-1.5c-10.7,6.7-21.7,12.9-32.6,19.4c-10.5,6.2-20.9,12.6-31.4,18.7
	c-8.3,4.8-16.8,9.2-25.2,13.8c-11.5,6.4-23.2,12.5-34.5,19.3c-9.3,5.6-16.8,13.3-23.2,22.2c-3.3,4.6-7,9-10.5,13.6
	c-2.1,2.7-4.4,3-7.2,1.3c-3.2-2-2.4-4.7-0.7-7C83.6,671,91,660.5,100.6,652c11.2-10,24.3-16.9,37.5-23.8c19-9.9,37.3-21,55.9-31.6
	c9.9-5.6,19.8-11.2,29.5-16.9c5.9-3.5,11.6-7.3,17.6-10.8c4.7-2.7,9.4-5.4,14.4-7.6c5.4-2.5,5.8-2.6,5.6-8.3c-0.1-2.7-0.1-5.3,0-8
	c0.2-5,0.5-10,0.7-15C261.6,526.3,259.2,523.4,254.7,521.4 M376.9,592.1c5.8-4.6,11.6-9.2,17.5-13.7c2.8-2.1,5.8-4.1,8.7-6.1
	c0.7-0.4,1.4-0.7,2.2-1.1c-0.7-0.6-1.3-1.7-2.1-1.8c-6.2-1.1-12.8-4.2-18,2.5c-0.6,0.7-1.4,1.3-2.2,1.9c-10.1,8-20.3,15.9-30.3,24
	c-4.5,3.7-8.6,7.8-13.1,11.5c-8.9,7.3-17.9,14.4-26.8,21.7c-4.6,3.8-9.2,3.8-13.1-0.7c-1.7-1.9-3.3-3.8-4.7-5.9
	c-5.6-8.4-11.4-16.6-16.6-25.2c-5.2-8.6-10.1-17.4-14.4-26.5c-1.6-3.3-2.8-3.2-5.3-1.9c-0.9,0.5-1.8,1.1-2.8,1.4
	c-2.9,0.7-2.1,2.5-1.2,4.1c2.8,4.7,5.7,9.3,8.6,14c12,19.5,24.2,39,36,58.6c1.4,2.2,2.4,2.4,4.2,1.1c3.6-2.7,7.1-5.6,10.7-8.4
	c9.8-7.8,19.6-15.7,29.5-23.5C354.5,609.4,365.5,601,376.9,592.1 M150.9,371.2c0.2-3.4,0.6-6.7,0.7-10.1c0.3-8.7,0.5-17.4,0.7-26.1
	c0-1-0.3-2.7-0.6-2.8c-1.1-0.2-2.5,0-3.4,0.6c-2.8,2.3-5.8,4.6-8.1,7.4c-5.7,6.8-7.6,14.6-6,23.5c1.6,9.2,8,14.2,14.8,19.1
	c0.5,0.3,1.6,0.6,1.7,0.4c0.5-0.6,0.9-1.5,0.8-2.2C151.4,378,151.1,375,150.9,371.2L150.9,371.2z"/>
<path class="st0" d="M540.3,234.4c-1.7,7.5-3.2,14.7-5.3,21.7c-3.5,11.3-7.2,22.6-11.2,33.8c-1.4,3.7-1.6,6.1,1.5,9.1
	c5,5.1,7.2,11.8,8.4,18.8c2.5,14.6-2.2,27.6-9.8,39.7c-5,8-11.8,14.5-20,19.3c-8.8,5.2-18.2,8.2-28.6,7.5c-4-0.3-5.7-1.6-5.8-5.1
	c-0.1-3.1,1.8-4.7,5.8-4.6c19.3,0.5,32-10,41.9-25.2c4.6-7.1,7-15.2,7.3-23.4c0.3-12.4-5.4-26.7-22.2-29.2
	c-10.1-1.5-18.6,1.7-26.3,7c-5.5,3.8-9.9,9.3-14.5,14.3c-2.1,2.3-4.5,3.8-7,2.5c-2.1-1.1-4.3-3.5-5-5.8c-2.2-7.4-2.9-15.2-5.6-22.3
	c-2.2-6-5.6-12-9.7-16.8c-7.3-8.4-15.1-16.5-23.6-23.6c-6.2-5.1-14-8.2-20.7-12.7c-10.3-7-17.4-16.6-21.7-28.3
	c-4.6-12.4-10-24.6-18.4-34.8c-5.2-6.3-12.1-11.2-20.9-12.2c-9.2-1-18.3-2.8-27.5-2.7c-8.9,0.1-17.9,2.1-26.8,3.5
	c-8.4,1.3-16.7,2.8-25,4.5c-9,1.8-17.4,5.3-25.8,8.8c-11.3,4.7-21.5,11.1-31.2,18.3c-7.8,5.9-15.6,12.1-20.7,21
	c-2.9,5.1-6.9,9.6-10.4,14.3c-0.1,0.2-0.3,0.5-0.5,0.5c-6.6,0.7-10.4,7.4-18.2,6.8c-11-0.9-21.5-2.3-30.9-8.5
	c-11.4-7.5-18.1-18.2-21-31.1c-1.4-6.2-2.4-12.8-2.2-19.2c0.5-14.4,3.9-28.2,9.5-41.5c5.1-12.2,11.7-23.6,19.7-33.9
	c5.9-7.6,13-14.3,19.7-21.4c0.3-0.3,0.9-0.3,1.2-0.6c0.7-0.6,1.3-1.3,2-2c-0.8-0.6-1.5-1.4-2.3-1.7c-5.7-1.9-10-5.5-13.7-10.3
	c-3.8-4.9-4-10.4-3.3-15.8c1.1-7.8,4.6-14.7,10.5-20.2c5.4-5,11.9-7.7,19-8.1c10.4-0.7,20.9-0.7,31.4-0.8
	c10.6-0.1,20.9-1.7,31.3-3.5c15.7-2.8,30.4-8.4,45.8-12c9.4-2.2,18.7-4.7,28.1-6.8c2.4-0.6,5-0.7,7.5-0.8
	c12.8-0.3,25.7-1.5,38.5-0.5c15.9,1.2,31.8,3.7,47.6,6.7c8.8,1.6,17.2,5.2,25.7,8c8.6,2.9,17.6,5.2,25.7,9.1
	c12.7,6.2,24.9,13.7,34.1,24.8c4.6,5.6,8.6,11.8,12.7,17.8c1.7,2.4,0,4.9-1.7,6c-2,1.2-4.7,1-6.5-1.4c-3.2-4.3-6.4-8.6-9.7-12.8
	c-5.8-7.2-12.5-13.3-20.4-18.3c-11.3-7.2-23.5-12.1-36.3-15.9c-10.3-3.1-20.5-6.4-30.9-9.1c-5.4-1.4-11-1.7-16.5-2.4
	c-8.3-1.1-16.6-2.5-24.9-2.9c-8.6-0.4-17.2,0.4-25.8,0.6h-1.1c-11.3-0.4-22.1,2.2-32.9,5.2c-11.5,3.2-23.3,5.6-34.7,9.1
	c-10.8,3.3-21.7,5.5-32.8,7.3c-5.8,0.9-11.8,1.1-17.6,1.6c-4.2,0.3-8.5,0.7-12.7,0.7c-4.9,0-9.8-0.9-14.6-0.6
	c-6.3,0.4-12.6,0.7-18.4,4.2c-7.5,4.5-12.9,15.8-10.1,23.1c1.8,4.8,5.9,7.3,10.4,9c2.4,0.9,5,1.2,7.6,1.5c2.9,0.4,4.6,2.4,4.4,5.4
	c-0.3,4.5-2.7,7.7-5.9,10.7c-6,5.7-12.2,11.3-17.6,17.7c-5.5,6.6-10.5,13.7-15.1,21c-6.9,11.1-11.7,23.2-14.6,36.1
	c-2,8.6-2.7,17.3-2,25.9c1.6,18.7,10.8,35.2,32.6,39.8c6.4,1.3,13.2,0.2,19.9,0.1c0.6,0,1.4-0.8,1.8-1.4c4.6-6.7,8.8-13.6,13.8-20
	c9.2-11.7,21.3-20,33.8-27.9c11.2-7,23.1-12.7,35.7-16.4c8.5-2.4,17.2-4.1,25.9-5.9c8-1.7,16.1-3.6,24.3-4.4c7.9-0.7,16-0.3,24-0.1
	c5.2,0.2,10.3,1,15.4,1.4c9.8,0.7,18.3,4.5,25.7,11c11.8,10.3,18.4,24.1,23.6,38.3c5.3,14.5,13.8,25.9,27.6,33
	c12.7,6.6,24.1,15,33.2,25.9c10,12,18.7,24.9,20.7,41c0.1,0.7,0.6,1.3,0.7,1.9c0.4,2,1.3,2.1,2.4,0.6c4.4-6.7,11.1-10.8,18-14.1
	c10.1-4.8,20.8-6.7,31.9-2.9c2.2,0.8,3.7,0.8,4.7-2.4c4.4-13.9,9.6-27.6,13.7-41.7c2.2-7.4,2.6-15.3,4-23
	c2.2-12.3,2.7-24.7,2.1-37.1c-0.9-17.9-4.1-35.4-11.3-52c-5.6-13.1-13.2-24.8-23.6-34.5c-5.4-5.1-11.8-9.1-17.9-13.3
	c-2.9-2.1-4.8-5.2-3.6-7.4c1.4-2.4,5.4-3.3,8.4-1.5c11,6.7,20.5,15,28.8,24.9c6.9,8.2,12.5,17.3,16.4,27.2c3.6,9,6.3,18.3,8.7,27.7
	c4.1,15.5,4.3,31.4,3.7,47.3c-0.3,8.3-1.9,16.6-2.9,24.9C540.8,229.7,540.5,231.8,540.3,234.4L540.3,234.4z"/>
<path class="st0" d="M260.5,312.7c1.8,10.6,0.9,20.6-4.6,29.5c-7.4,11.9-19.7,8.7-26.7-0.2c-9.5-12.2-11.3-26.4-10.3-41.1
	c0.3-4.3,2.3-8.4,3.8-12.5c0.9-2.3-0.7-2.8-2-3.2c-3.9-0.9-7.8-1.7-11.7-2.2c-2.2-0.3-4.5-0.2-6.7,0c-2.9,0.2-4.8-0.9-5.1-3.9
	c-0.3-3.2,2.2-4.6,4.6-5c11.4-2.3,22,0.8,31.5,6.8c6.4,4.1,12.4,9,17.9,14.2C256,299.6,260.3,305,260.5,312.7L260.5,312.7z"/>
<path class="st0" d="M42.5,742.9c3.9-6.6,7.8-12.9,11.2-19.5c4-7.6,7.5-15.5,11.4-23.2c1.5-3,3.1-6,5.1-8.7c1.9-2.5,4.3-1,6.2,0.2
	c1.6,1,2.8,2.3,1.6,4.7c-2.2,4.3-4.1,8.7-6.2,13.1c-8.6,18.6-19.4,35.8-30.2,53.2c-8.6,13.8-16.2,28.2-21.3,43.7
	c-3,9-5,18.4-6.6,27.8c-1.6,9.2-2.5,18.5-3,27.8c-0.5,8.6,0,17.2-0.1,25.8c0,2.6-0.6,5.3-0.7,7.9c0,1.5,0.9,3.1,0.6,4.5
	c-0.5,2.3-1.2,4.8-2.5,6.7c-0.7,0.9-3.9,1.3-4.5,0.7c-1.5-1.7-3.1-4.2-3.2-6.4C0,891.1-0.1,881.1,0.2,871
	c0.4-10.5,0.9-21.1,2.3-31.5c1.2-8.9,4.3-17.4,5.7-26.3c1.7-11.1,6.8-20.8,11.4-30.7C26,768.8,34.1,755.9,42.5,742.9z"/>
<path class="st0" d="M369.2,335.6c-13.5,2.1-20.1-8.7-24.3-18.7c-1.5-3.6-2.5-7.5-3-11.4c-1.2-9.2,3.9-16.1,9.3-22.5
	c6.1-7.2,13.3-13.5,22.6-16.4c4.3-1.4,9-1.9,13.6-2.2c2.5-0.2,5.1,1.6,5.1,4.5c0,3.2-2.3,4.2-5.3,4.4c-3.2,0.2-6.4,0.7-9.4,1.5
	c-1.9,0.5-2.8,1.6-1.5,4.3c2.5,5.6,4.5,11.7,5.8,17.7c1.6,7.7,1.5,15.6-0.6,23.3C379.5,326.8,376.4,332.6,369.2,335.6L369.2,335.6z"
	/>
<path class="st0" d="M148.6,733.4c0.7,6.5,1.6,12.7,2.2,18.8c2.2,20.5,2.5,41.1,2.3,61.7c-0.1,4.6,0.7,9.2,0.6,13.9
	c-0.1,7.5-0.5,15-0.7,22.4c-0.1,6.1,0,12.3-0.1,18.4c0,1.9-0.2,3.9-0.8,5.6c-0.7,2-2.2,3.3-4.8,3.1c-2.2-0.1-4-0.4-4.1-3
	c-0.1-2.3-0.2-4.6-0.2-6.9c0-1.1,0.2-2.2,0.2-3.3v-33.2c0-15.7,0.3-31.4-0.1-47.1c-0.3-11.1-1.1-22.3-2.2-33.4
	c-1.1-10.2-2.9-20.4-4.4-30.6c-0.4-2.8,0.9-4.7,3.8-5.1c2.7-0.4,5.4,1.8,5.9,4.6C147.2,724,147.9,728.5,148.6,733.4L148.6,733.4z"/>
<path class="st0" d="M325.4,425.3c-6.4,2-12.3,4.6-18.4,5.8c-6.6,1.3-13.5,1.7-20.2,1.5c-8.2-0.2-16.3-1.8-23.8-5.3
	c-2.5-1.2-4.4-4.9-3-6.8c1.4-2,3.2-3.1,6.4-2.1c8.3,2.6,16.8,5,25.7,4.6c15.8-0.8,30.3-5,43-15c5.8-4.6,10.3-10.1,14.2-16.1
	c1.7-2.6,3.8-3.8,6.5-2.9c2.6,0.8,3.4,4.4,1.8,7.5c-4.1,8-9.8,14.7-17.2,19.8C335.6,419.6,330.7,422.3,325.4,425.3z"/>
<path class="st0" d="M538.8,773.7c1,9.1,2,17.9,3,26.7c0.3,3.1,0.4,6.3,0.8,9.4c0.4,4.1,1.1,8.3,1.5,12.4c0.3,3-0.2,6-2.9,7.6
	c-1.1,0.7-3.6,0.5-4.5-0.3c-1.4-1.3-2.5-3.4-2.8-5.3c-0.8-5-1.1-10-1.6-15c-1-9.4-2-18.8-3-28.2c-0.6-5.9-1-11.8-1.5-17.6
	c-0.5-5.4-1-10.8-1.5-16.1c-0.3-3.4,2-5.1,4.6-5.5c2.7-0.4,4.5,1.9,5.1,4.5c0.7,3.6,1.1,7.3,1.5,10.9
	C537.8,762.6,538.3,767.9,538.8,773.7L538.8,773.7z"/>
<path class="st0" d="M292.8,533.3c-4.7-1.3-9.2-2.5-13.7-3.5c-2.9-0.7-3.9-2.8-3.6-5.3s1.7-4.3,4.9-3.7c4.4,0.9,8.8,1.8,13.2,2.2
	c7.1,0.7,14.2,1.2,21.4,1.5c11.4,0.6,22.3-1.7,32.6-6.8c2.5-1.2,4.6-0.7,6,1.2c1.7,2.1,1.4,4.9-0.9,6.2c-4.8,2.6-9.8,5.7-15,6.7
	c-9.2,1.8-18.7,2.6-28.2,3.1C304,535.1,298.5,534,292.8,533.3L292.8,533.3z"/>
<path class="st0" d="M287.2,408c-3.2,0.2-6.4,0.8-9.2,0.1c-7.8-2.1-14-6.2-16.3-14.7c-1.5-5.6,0.1-10.6,3.4-14.6
	c6.3-7.5,14.5-12.2,24.6-12.2c1.5,0,4.2,2,4.1,2.9c-0.1,1.8-1.4,4.1-2.9,5c-2.8,1.5-6,2.1-9.1,3.1c-4.3,1.4-7.7,4.1-10.1,7.8
	c-2.5,3.9-1.1,8.9,3.3,11.4c2.5,1.4,5.4,2,8,3.1c2.1,0.9,5.2,0.7,5.2,4.2C288.2,405.4,287.7,406.6,287.2,408L287.2,408z"/>
<path class="st0" d="M500.7,323.9c4.4,2.6,3.8,6.7,2.7,10.1c-2.2,7.1-6.1,13.4-12.8,17.3c-1.7,1-4.1,1.8-6,1.4
	c-1.3-0.2-2.7-2.4-3.3-4c-0.8-2.4,1.1-3.7,2.9-4.8c3.4-2,3.4-2.1-0.1-4.5c-2.6-1.8-5.2-3.8-7.6-5.9c-1.9-1.7-3-3.9-1.4-6.3
	c1.8-2.8,4.5-2.6,7-1.2c2.7,1.6,5.2,3.6,7.8,5.4c3.1,2.1,3.6,1.9,3.9-1.6C494.4,325.8,496.3,323.9,500.7,323.9z"/>
<path class="st0" d="M319.5,441c5.5,1.4,10.7,2.5,15.7,4.3c2.6,0.9,5.2,2.7,3.8,6.3c-1.1,2.9-3.8,3.8-7.5,2.4
	c-6.1-2.2-12.3-4-18.8-4c-2.3,0-4.9,0.9-6.9,2.1c-2.8,1.8-5.3,2.2-7.7-0.1c-1.9-1.9-1.3-6,1.6-8.1
	C305.6,439.8,312.2,439.3,319.5,441L319.5,441z"/>
<path class="st0" d="M445.3,729.9c6,3.4,7.5,9.1,8.3,15c0.5,3.7,0.3,7.5,0,11.3c-0.1,0.9-1.6,1.8-2.4,2.7c-0.7-1.1-1.3-2.1-1.9-3.2
	c-0.1-0.2,0-0.5,0-0.7c-0.1-4.8-2.6-7.2-7.7-7.2H436c-6,0-6.5,0.4-8.4,5.9c-0.6,1.7,0.1,5.2-3.2,4.4c-3.2-0.8-1.7-3.9-1.2-5.7
	c2.1-6.3,3.4-12.8,7.8-18.4C435.3,728.5,440.1,728.1,445.3,729.9 M445.2,735.7c-2.3-1.4-4.6-3.6-7.2-1.4c-2.3,2-4,4.7-5.9,7.1
	c-0.3,0.4-0.2,1.2-0.3,1.8c0.7,0,1.4,0.1,2.1,0.1c3.4,0,6.7,0,10.1-0.2c1.4-0.1,2.8-0.4,4.2-0.7c-0.3-1.1-0.6-2.3-1-3.3
	C446.7,738,446,737,445.2,735.7L445.2,735.7z"/>
<path class="st0" d="M346.3,234.4c-5.8,3.1-11.5,6-14.9,11.6c-0.8,1.4-1.5,2.8-2.3,4.3c-1.1,2.2-3.2,2.7-4.9,1.9
	c-1.4-0.7-3.3-3-3.1-4.1c0.8-3.2,1.9-6.6,4-9.1c6.5-7.8,14.7-13.5,25-14.9c2.5-0.4,6.1,0.1,6.8,3.6c0.3,1.4-0.5,3.5-1.6,4.5
	c-1.2,1-3.2,1.1-4.9,1.5C349.2,233.9,347.9,234.1,346.3,234.4z"/>
<path class="st0" d="M221.9,238.3c12.6-0.3,23.4,3.5,32.2,12.4c2.1,2.1,2.6,4.5,1.2,7.1c-1.3,2.4-4,2.8-6,0.7
	c-7.3-7.5-16-11.3-26.5-10.7c-3,0.2-5.8-0.6-6.2-3.8C216.2,240.6,219.1,239.5,221.9,238.3z"/>
<path class="st0" d="M482.8,731.2c3.9,1.9,1.6,4.9,1.3,7.1c-0.8,6.3-2.1,12.5-3.6,18.6c-1,3.9-3.3,4.6-5.8,1.6
	c-3.5-4.3-8.1-8.1-9.1-14.1c-0.1-0.3-0.4-0.6-0.7-0.8c-0.8-0.7-1.7-1.3-2.5-1.9c-0.2,0.9-0.5,1.8-0.5,2.7c0.2,4.1,0.6,8.2,0.6,12.4
	c0,1-1.2,1.9-1.8,2.9c-0.9-1-2.5-1.9-2.5-3c-0.2-6.7-0.2-13.4,0-20.1c0-1,1-2.6,1.8-2.8c1.2-0.3,3.3,0,3.9,0.8
	c2.5,3.5,4.7,7.2,7,10.9c1.4,2.3,2.8,4.6,4.2,6.8c0.3,0.5,1,0.8,1.6,1.2c0.3-0.6,0.8-1.2,0.9-1.9c0.8-5.1,1.4-10.3,2.4-15.4
	C480.3,734.3,481.6,732.8,482.8,731.2L482.8,731.2z"/>
<path class="st0" d="M398.5,734.9c-1.7-0.7-3.1-1.5-4.5-2.2c1.4-1,2.7-2.7,4.1-2.9c7-0.8,14-1.1,21-1.6c0.9-0.1,1.9,0.2,2.7,0.6
	c0.6,0.4,1.3,1.4,1.2,2c-0.1,0.7-1,1.6-1.8,1.7c-2,0.4-4,0.8-6,0.8c-2.6,0-2.7,1.6-2.5,3.4c0.4,4.1,1.2,8.3,1.4,12.4
	c0.1,1.9-0.4,4-1.1,5.9c-1.7,4.5-5.9,6.6-10.3,5.2c-1.9-0.6-3.8-1.8-5.4-3.1c-0.7-0.6-0.5-2.3-0.7-3.5c1.1-0.2,2.2-0.6,3.3-0.4
	c0.8,0.1,1.6,1,2.3,1.5c3.3,2.2,6.6,0.8,6.7-3.2c0.1-4.9-0.3-9.7-0.7-14.6c-0.2-2.5-3.5-3.5-7.3-2.4
	C400.3,734.6,399.6,734.7,398.5,734.9L398.5,734.9z"/>
</svg>
