<?xml version="1.0" encoding="UTF-8"?>
<svg id="Contours" xmlns="http://www.w3.org/2000/svg" viewBox="0 0 1109.61 988.65">
  <defs>
    <style>
      .cls-1 {
        fill: #3f3f3f;
        stroke-width: 0px;
      }
    </style>
  </defs>
  <path class="cls-1" d="M719.83,618.52c-4,1.7-6.2-.4-8.3-3.1-2-2.7-3.9-5.6-6.3-7.9-5.2-4.7-14-3-16.5,3.8-6.1,16.6-12,33.4-16.9,50.5-2.4,8.2-2.2,17.1-3.3,25.7-.4,3.4,1.4,6,3.9,6.4,1.8.3,4.4-1.9,6.1-3.6,11.2-11.1,13.8-26.6,20.1-40.1,1-2.1,2-4.6,3.7-5.9,1.6-1.2,4.6-2,6.3-1.3,2.1.9,3.9,2.9,2.5,6.3-4.5,11.1-8.8,22.4-12.8,33.7-3.1,8.7-3.6,17.8-1.9,27,.7,3.5,2.3,6.1,5.5,5.9,2.6-.1,6.4-1.7,7.4-3.8,3.9-8,7.1-16.4,10.1-24.8,1.8-5.1,2.6-10.6,4.2-15.8,1.2-3.7,4.3-5.7,8-4.3,3.2,1.2,4,4.1,3,7.7-2.7,9.4-5.4,18.8-7.6,28.3-.8,3.6-1.2,7.8-.2,11.2.7,2.3,3.9,4.7,6.4,5.4,3.8,1.1,9-2.5,10.3-6.1,4-11.3,8-22.7,12-34,2.3-6.5,7-8.6,10.5-4.4,1.4,1.7,2,5.1,1.3,7.2-3.3,10.1-6.9,20.1-10.9,30-2.1,5.1.5,8.4,3.9,10.4,2,1.2,6.1.3,8.6-1,6-3,7.5-9.6,10.7-14.9,5.7-9.5,11.6-18.9,17.7-28.2,1.9-2.9,5-3.9,8.1-1.4s2,5.7.5,8.5c-1.5,2.9-3.3,5.7-5.3,8.3-2.1,2.8-1.5,4.9.8,7.2,7,7.2,14.5,14.1,20.7,21.9,9.9,12.5,19.6,25.4,28.2,38.8,12.2,19.1,21.3,39.8,27.4,61.6,3.6,12.9,6,26.2,8.8,39.4,4,19.2,3.8,38.8,2.7,58.2-.8,14.3-4,28.5-6.5,42.7-1.2,6.7-3.6,13.2-5.1,19.8-.9,3.8-3.6,5.3-6.6,4.7-3.3-.7-5.2-3.8-4.4-7.4,2.3-10.5,5.1-20.9,7.4-31.4,1.2-5.3,2-10.6,2.5-16,.6-7.2.9-14.4,1-21.6.2-9.4.7-18.8-.1-28.2-1.1-12.1-3.2-24.2-5.4-36.2-3-17-8.6-33.3-15.7-49-5.8-13-12.6-25.6-20.1-37.6-11.2-17.9-24.5-34.4-39.8-49.1-3.6-3.5-4.4-3.4-7,1.2-2.4,4.2-4.5,8.7-7.5,12.4-6.4,7.7-14.5,11.7-24.9,9.1-.7-.2-1.4,0-2.1.1.3.6.5,1.4,1,1.7,2.9,2.3,6.1,4.2,8.6,6.8,21,21.4,38.2,45.6,50.2,73.2,7.4,17,13.4,34.5,15.8,53,1.1,8.2,2.2,16.5,2.9,24.8.6,7.5,1.1,15.1,1,22.6-.3,18.7-3.6,37-7.9,55.2-.9,3.6-5.1,6.5-7.9,5.7-3-.8-4.3-5-3.5-9.2,2-9.6,4.3-19.1,5.2-28.8,1.3-13.3,2.1-26.8,2-40.2-.1-17-3.7-33.7-7.9-50.2-.7-2.7-1.8-5.3-2.7-7.9-2.3,1.1-4.6,2.4-7,3.4-7.7,3-15.8,5.3-23.3,9-12.6,6.2-24.1,14.4-34.6,23.9-6.9,6.3-14,12.6-20.4,19.5-12.7,13.6-23.7,28.5-31.9,45.3-3.7,7.6-5.8,16-8,24.1-1,3.8-2.8,6.4-6.6,5.9-3.4-.5-5.3-3.3-4.5-6.8,1.6-7,2.8-14.2,5.4-20.8,6.9-17.2,17-32.5,29.2-46.4,6.2-7,12.1-14.3,18.8-20.7,15.6-14.8,32.8-27.6,52.1-37.1,6.1-3,12.6-4.9,19.1-7,1.8-.6,3.9-.1,5.9,0,1.1,0,2.3.3,3.4.4-.3-1-.6-2.1-1-3.1-7.3-17.5-16.3-34.2-27.1-49.8-1.5-2.2-3.1-5-7.1-3-20.2,9.8-41.2,17.4-62.8,23.3-13.3,3.6-26.7,6.5-40.3,9s-27.3,4.5-41,6c-12.9,1.5-25.8,2.4-38.7,3-14.2.7-28.4,1.4-42.6.9-18-.6-35.9-2.3-53.8-3.9-11.6-1-23.3-2.2-34.8-4.1-11.1-1.8-22.1-4.7-33.1-6.8-20.8-3.8-40.9-10.3-60.9-17.1-7-2.4-13.8-5.3-20.7-8-3.7-1.5-6.4-1.9-9.2,2.5-7.9,12.3-17,23.9-24.8,36.3-5.9,9.3-5.4,7.1,2.7,12.3,10.2,6.5,20.4,13.1,30,20.4,6.8,5.1,13.2,10.8,19,16.9,15.8,16.7,32.3,33.1,44.1,53.1,7.1,12.1,13.4,24.7,19.4,37.4,3,6.4.2,11-5.3,9.9-1.8-.4-4-2.3-4.8-4-4.5-8.9-8.6-18.1-13-27.1-2.4-5-4.1-5.2-7.9-1.4-7.6,7.5-15.1,15.1-22.7,22.6-1.5,1.5-3.1,3.1-4.9,3.8-1.9.6-4.6.8-6.4-.1-2.6-1.2-3.2-4-1.7-6.7.9-1.5,1.9-3,3.2-4.2,9-8.8,18-17.6,27.2-26.1,2.7-2.5,2.5-5,.8-7.2-6.6-8.6-13.6-17.1-20.4-25.6-2-2.5-4.1-2.7-6.6-.3-7.7,7.5-15.5,14.9-23.2,22.3-14.6,13.9-29.1,27.8-43.7,41.7-.8.7-1.8,1.5-2.8,1.7-2.5.4-5.9,1.7-7.3.5-2.8-2.3-2.6-6.1-.2-8.9,3.3-3.8,6.9-7.2,10.6-10.6,11.6-11,23.3-21.9,34.9-32.9,7.7-7.3,15-14.9,23-21.8,3.9-3.4,2.4-5.9-.1-8.1-10.1-8.8-20.2-17.6-30.8-25.7-5.7-4.4-12.5-7.4-18.9-11.1-2.6-1.5-4.4-1.2-5.5,2-4.5,13.5-10,26.7-13.5,40.4-2.9,11.3-3.9,23.2-5.2,34.9-.9,8-.9,16-1,24.1-.1,4.2-1.2,7.5-5.7,7.8-4.7.3-6-4-6.2-7.1-.3-6.8.4-13.7.8-20.6.3-4.9.2-9.8,1.1-14.6,2.1-12.1,3.7-24.4,7.2-36,4.3-14.6,9.4-29.2,16-42.8,6.7-14,15.3-27.1,23.9-40.1,10.7-16.1,24.1-30,38.1-43.2,5.7-5.4,12.1-10.2,18.2-15.2,1.7-1.4,3.6-2.6,5.4-3.9-2-1.3-4.5-2.2-5.8-4-3.5-4.6-5.8-3-9.3.3-4.7,4.5-10.8,4.1-16.8,2.8-3.1-.6-5.2-.8-7.7,2.4-2.3,2.9-7.1,6.3-10.2,5.8-11.9-1.9-18.4,4.9-24.2,13.1-9.1,13-18.3,26-26.7,39.4-10.3,16.4-18.1,34.1-24,52.5-5.2,15.9-9.8,32.1-11,48.9-1.2,15.9-2.1,31.8-3,47.8-.1,2.4.6,5.1-.2,7.1-.9,2.1-3.2,3.7-4.9,5.5-2-2.1-5.5-4.1-5.6-6.3-.4-10.4-2.7-20.9.6-31.3.6-1.9-.9-4.4-.8-6.5.5-6.6.8-13.2,2-19.7,2.3-11.8,4.8-23.6,8-35.2,3.3-11.6,7.2-23,11.6-34.2,7.3-18.7,17-36.2,28.4-52.7,7-10.1,14.9-19.5,22.4-29.2.9-1.1,1.4-2.6,2.5-3.4,5.1-3.6,2.8-6.6.4-10.9-5.1-9-9.1-18.6-13.4-27.9-1.2-2.7-1.9-5.6-3.1-8.2-1.8-3.7-1.4-7.2,1.8-9.3,2.8-1.9,7.6,1.4,9.3,5.6,4,9.7,7.6,19.6,12.4,28.8,2.8,5.4,7.4,9.8,11.7,14.2.9.9,4.5.6,5.7-.5,1.5-1.5,3.1-4.5,2.6-6.3-2.2-7.5-5.3-14.8-7.9-22.2-2.6-7.3-5.3-14.5-7.3-22-.8-3.1.9-6,4.5-6.9,4.2-1,6.5,1.5,7.3,5.1,3.1,13.6,8.9,26,16.1,37.8,1.6,2.5,3.4,5.3,5.8,6.8,1.5.9,5.3.4,6.3-.8,1.4-1.9,2.1-5.2,1.6-7.6-3-13.9-6.5-27.6-9.7-41.5-.4-1.6-.6-3.6.1-4.9,1.1-2.2,3-5.6,4.5-5.6,2.2,0,5.8,2.4,6.2,4.3,2.7,13.8,6.5,27.2,12.3,39.9,2.3,5.1,5.5,9.8,8.6,14.4,2,3.1,5.1,2.9,8.2,1.6,3-1.3,4-3.5,4.2-6.7.9-16.2-4.3-31.1-9.6-46-1.6-4.5-2.8-9.2-4.7-13.6-1.7-4.1,0-7,3.2-8.1,2.8-.9,5.6-.2,7.2,4,5.1,13.2,11,26.1,16.9,39,1,2.3,3.2,4.8,5.4,5.5,4.3,1.5,7.7-1.7,7.4-7.3-.5-7.5-1.7-14.9-2.9-22.3-1.5-9.1-2.6-18.3-5.1-27.1s-5.8-17.7-10.2-25.7c-5.2-9.5-18.7-8.1-23.5,2-2,4.2-4,7.5-9.2,6.4-1.9-.4-3.6-1.7-5.3-2.8-6.2-4-16-.8-18.6,6.3-.2.6-.4,1.2-.6,1.7-3.5,10.9-5.8,9.5-14,7.7-7.6-1.7-15.7,3.7-16.4,11.5-.6,7.5-2.7,8.9-10.4,6.8-5.5-1.4-9.7,1.7-10.6,7.4-.7,4.5-.4,9.9-6.9,11-.8.1-1.8,1.2-2,2.1-4.1,14.2-13.1,25.8-21.1,37.7-14.1,20.9-29.4,41.1-43.6,62-9.9,14.4-18.9,29.5-28.3,44.2-5.1,7.9-10.8,15.5-15.4,23.6-2.6,4.6-4,10-5.5,15.2-4.1,14.2,3.2,24.8,11.7,34.7,3.4,4,7.5,7.3,11.4,10.8,5.7,5.3,13.5,4.4,20.1,7,4.3,1.7,8.7,3.1,13,4.8,2.9,1.2,4.6,2.9,3,6.5-1.7,3.8-4.7,4.3-7.9,3.4-6-1.6-11.7-4.3-17.7-5.5-24.2-4.8-35.9-22.5-44.8-43-2.8-6.4-1.3-13.4-.6-20.2,1.8-17.5,13.9-29.4,22.7-43.1,10.4-16.2,20.3-32.7,31.1-48.6,9.2-13.6,19.5-26.6,28.9-40.1,7.1-10.1,13.6-20.6,20.2-31.1,4.2-6.7,7.9-13.7,11.8-20.6.2-.4.6-.9,1-1.1,8-3.3,7.2-11.5,10.1-17.7s6.4-11.9,14.6-11.9c5.5,0,6.7-5.3,9.2-8.5,5.3-6.7,12-10.1,20.2-10.3,3.6-.1,5.9-.9,7.8-4.2,4.1-7.4,11.1-11,19-12.7,2.8-.6,6.3-.2,9,1,4.5,2,6.8-.4,9.6-3,4.7-4.4,9.9-7.9,16.6-8.1,9.9-.3,17.7,4.3,21.8,12.8,5.2,10.6,9,21.9,13.1,33.1.9,2.5,0,5.6.2,8.4,0,.8.8,1.6,1.2,2.5.6-.5,1.2-.9,1.8-1.4.3-.2.4-.6.7-.7,9.6-2.3,6.9-8.9,5.2-14.9-4.8-16.3-9.7-32.6-14.6-49-1.2-4.2-2.4-8.4-3.3-12.6-.9-3.8-2.4-5.3-6.4-3.5-16.6,7.5-33.2,14.9-49.8,22.2-14.8,6.5-29.8,12.6-44.5,19.3-7.6,3.5-14.8,7.8-16.5,17.3-.3,1.9-1.8,3.6-2.8,5.3-1.6,2.7-3.5,5.1-7.1,3.5s-4.6-3.9-3-7.9c2.9-7.3,5.1-14.6,10.6-20.7,3-3.4,3.6-8.8,5.6-13.1,4.7-9.9,9.6-19.7,14.4-29.5,2.3-4.9,4.8-9.7,6.7-14.7,3.1-8.5,9.5-12.4,17.8-14.4,11.2-2.7,22.3-5.8,33.4-8.7.8-.2,1.6-.2,2.4-.3,14.4-.3,28.7-.7,43.1-1,13.9-.3,27.7-.7,41.6-1,1.2,0,2.7-.5,3.4.1,5.8,4.1,10.3.3,15.1-2.1,3.5-1.7,7-3.3,10.5-4.8,3.7-1.5,6.9-1,9.6,2.2,2.5,3.1,2.1,6.3.6,9.5-.2.4-.8.7-1,1.1-5,7.8-2.9,15.3,6.1,17.8,10.5,2.8,21.2,4.6,32,6.1,8.1,1.1,16.4,1.4,24.6,1,17.7-.9,35.3-2.8,51.9-9.8,6.4-2.7,8.5-7.5,5.1-14.4-1.8-3.6-.4-6.6,1.6-8.3,1.5-1.3,5.6-1.6,7.4-.5,8.3,5.2,17,5.7,26.6,5.4,23.3-.7,46.7-.2,70-.2,4.2,0,8.5.2,12.7-.1,1.6-.1,3.3-1.2,4.5-2.3,5.1-4.6,10-9.5,15.2-14,2.5-2.2,5.5-2.2,8.1.1,2.7,2.5,2,5.1-.2,7.4-4.1,4.3-8.2,8.7-12.4,12.8-3.9,3.8-8,7.3-11.9,11-11.6,11.2-23,22.5-34.6,33.5-8.4,8-17.1,15.8-25.7,23.7-3.5,3.2-5.7,6.9-6.5,11.9-.8,5.1-3,10.1-4.4,15.1-.4,1.4-.5,2.9-.3,4.3.1.9,1.2,1.7,1.8,2.5.7-.7,1.7-1.4,2.1-2.3,2.1-5.3,4.5-10.5,6-16,4.5-17.4,24.6-20.3,36.9-9.4,5.2,4.6,5.6,4.6,10.4-.1,19.1-18.7,38.1-37.5,57.3-56.1,2.1-2,5.4-3.4,8.3-3.9,2.8-.5,6.3,3.9,5,6.1-2.5,4-.6,7.2.7,10.7,5.8,15.4,11.7,30.8,17.5,46.3,2.2,5.8,4.5,11.4,4.2,17.9-.1,1.9,1.9,4.3,3.5,6,15.4,16.9,26,37.3,39.3,55.8,9.7,13.6,19,27.5,28.6,41.1,1.1,1.6,2.9,3.9,4.1-.2,1-3.6,3.6-4,6.8-3.9,11.5.4,23.1.8,34.6,1,5,.1,10.1-.5,15,.1,6.8.9,12.1-5.7,13-12.6,1.6-12.2,3.4-24.3,4.9-36.4,1.1-8.4,1.9-16.9,3.1-25.2,1.5-10.5,3.3-20.9,4.9-31.4.5-3.5.8-7,1-10.6s3.5-8.3,5.8-7.7c4.1.9,5.7,3.9,5.2,7.8-1.2,9.3-2.7,18.6-3.9,27.9-.8,6.4-1.2,12.8-2.1,19.2-1.6,11.7-3.4,23.3-4.9,34.9-.9,6.5-1.7,13.1-2,19.7-.4,10.5-4.9,18.6-13.5,24.3-2.1,1.4-5,2.1-7.6,2.1-17.2.2-34.3.1-51.5.2-1.8,0-3.6.9-5.4,1.3.9,1.3,1.8,2.6,2.6,3.8,15.1,22.1,30.1,44.2,45.3,66.2,6.1,8.8,12.4,17.5,18.2,26.5,1.4,2.2,1.9,5.5,1.6,8.2-.4,3.4-6.1,4.7-8.2,1.8-6.3-8.3-12.6-16.7-18.4-25.4-8.9-13.2-17.3-26.9-26.3-40.1-7-10.2-14.6-19.9-21.8-30-10.5-14.6-21-29.2-31.1-44.1-11.3-16.7-21.5-34.3-33.2-50.7-13.5-18.9-28.8-36.2-49.9-47.3-6-3.2-12.2-6.1-18-9.6-4.5-2.7-7.7-2.3-11.3,1.7-5.3,6-5.2,5.2,1.5,9.5,4.8,3.1,8.5,7.9,12.8,11.7,1.4,1.3,3.2,2.9,4.9,2.9,10.6,0,17.3,6,23.4,13.7,1.8,2.4,4.8,4.6,7.6,5.2,9.1,2.2,17.5,13.3,17.2,21.9-.2,4.3-2.2,7.5-6,8.1-3.4.5-4.4-2.7-5.3-6.1-1.2-4.6-1.7-10.5-8-11.6-2-.3-4.8-.2-6.1,1-2.9,2.7-5.2,6.1-7.7,9.2-4.1,5.2-7.6,6.7-10.5,2.5-1-1.5-1.4-4.5-.6-5.9,2.4-4.4,5.2-8.6,8.4-12.5,2.1-2.6,2.5-4.3,0-6.6-3.7-3.4-6.6-8.1-12.7-6.7-2.4.6-4.8,1.4-6.8,2.8-2.3,1.6-4.2,3.8-6.1,5.9-2.5,2.7-5.8,3.7-8,1-1.4-1.8-1.3-5.7-.6-8.2.6-2.3,2.8-4.4,4.8-5.9,2.9-2.2,2.3-4.5.5-6.6-4.8-5.8-10.9-9.4-18.6-7.9-2.6.5-4.7,3-7.1,4.5-1.8,2.1-3,2.4-4.3,3.1M468.53,533.82c-3.4,1.4-6.9,2.6-10.2,4.3-10.1,5-20.1,10.3-30.3,15.1-3.4,1.6-4.1,3.8-3.2,6.9.8,3,1.8,5.9,2.7,8.9,6,20.3,12.2,40.6,17.9,61.1,1,3.5,2.4,3.7,5,2.9,10.7-3.2,21.3-6.4,32-9.6,6.1-1.9,6.9-3.8,6.2-9.9-1.3-10.6-2-21.2-3.1-31.7-.3-3.4,1.6-6,4.2-6,1.9,0,5.1,2.5,5.6,4.5,1.3,5.4,1.7,11,2.2,16.6.5,5.7.5,11.4,1.1,17.1.4,3.4,1,6.7,6.5,4.7,5.4-1.9,11.4-2.5,17.2-3.1,10.7-1.2,21.5-2.7,32.2-2.9,15.8-.3,31.7.2,47.6,1,7.6.4,7.9.8,8.4-6.3.7-10.7,1.4-21.4,2-32.2.3-4.9,2.2-6.6,7.3-5.7,4.1.7,3.9,4.1,3.7,7.2-.1,2-.7,4-.9,6.1-.7,7.7-1.5,15.4-1.9,23.2-.2,3-.1,6.4,1.1,9,1.5,3,13.6,4,16.1,1.7,8.3-7.8,16.5-15.7,24.7-23.7,1-1,1.6-2.7,2-4.1,2.4-8.5,4.8-17.1,6.8-25.7.7-3.1,1.2-6.4-2.5-8.7-10.5-6.4-20.9-13.1-31.4-19.5-1.3-.8-3.4-1.4-4.6-.9-.9.4-1.3,2.8-1.2,4.3.4,6.4-.9,12.3-4,17.9-2.1,3.8-4.8,6.5-9,8.5-4.5,2.1-5.6-1.4-7.3-3.3-.5-.6.9-3.5,2-4.9,1-1.4,2.8-2.1,4.1-3.3.6-.5.7-1.6,1-2.4-.9-.3-2-.9-2.7-.7-3.6,1.3-7,3.4-10.7,4.3-6.9,1.7-13.8,3.2-20.8,4-10.9,1.3-21.8,2.6-32.7,2.9-7.4.2-14.8-1.2-22.2-1.8-11.6-1-23-3-33.3-8.9-1-.5-3-.7-3.6-.1-1,1-1.8,2.8-1.6,4.2.3,2.9.8,6,2,8.6,1.6,3.8-.4,6-3.1,7-3.4,1.2-6.8-.3-7.9-3.9-3.3-11.8-3.4-23.6,1.5-35.1.4-.9.4-2.1.6-3.1-1.3.1-2.6-.1-3.7.4-4,1.2-7.6,2.9-11.8,5.1M630.03,629.32c-2.5-.3-5.1-.7-7.6-1-11.9-1.3-23.9-3.7-35.8-3.8-19.2-.2-38.4,1-57.6,1.8-5.4.2-10.8,1-16.1,2.2-13.8,3.1-27.8,5.8-41.4,9.9-13.8,4.2-27.2,9.9-40.8,14.8-3.2,1.2-3.6,3.6-3.1,6.3,1.7,8.7,3.9,17.3,2.1,26.4-1.5,7.3-13.1,15.9-20.4,14.4-1.5-.3-4.5.4-4.5.7,0,2.9.4,5.8.7,8.6.5,0,1,0,1.4-.2,3.9-2.2,7.8-4.5,11.7-6.7,9.1-4.9,17.9-10.7,27.6-14.3,20.9-7.8,42-15.2,64.4-18.4,16.1-2.3,32.1-4.9,48.4-4.8,10.7.1,21.4.5,32.1,1,6.9.4,13.9.7,20.6,2.1,13.3,2.6,26.6,5.6,39.7,9,3.7,1,4.3-.4,5.2-3.1,3.2-10.2,6.4-20.3,9.9-30.4,1.4-3.9.3-6.7-3.8-7.6-10.6-2.3-21.2-4.6-32.7-6.9M647.53,705.82c-2.7,9.9-5.4,19.8-8,29.7-4,15.3-7.9,30.7-11.8,46.1-1.8,6.9-3.7,13.8-5.1,20.8-.4,1.7-1.5,5.2,2.7,4.6,15.6-2.5,31.3-4.5,46.7-7.8,17-3.6,34-7.7,50.6-12.8,14.8-4.6,29.1-10.8,43.6-16.4,2.9-1.1,4.5-2.5,1.1-5.3-2.1-1.7-3.4-4.3-5.4-6.2-7.2-7-14.3-14.2-21.9-20.7-3.4-2.9-8.2-4.3-12.2-6.5-2.7-1.5-5.6-3-7.9-5-2.5-2.1-4.3-2.5-7.3-.8-4.4,2.4-9.1,3.9-14.5,2.3-9.3-2.9-13.9-10.5-13.8-19,.1-5.9-.9-6.5-5.9-3.9-.8.4-1.6,1-2.4,1.4-3.9,2-10.8,2.1-13.5-2.3-1.9-3-3.3-6.3-5.2-9.3-1-1.6-2.5-2.8-3.7-4.2-1.1,1.2-2.8,2.3-3.3,3.7-1.1,3.3-1.8,7-2.8,11.6M428.03,795.32c4,.7,8.2.9,12.1,2.2,4.8,1.7,8.2.5,11.7-2.9,7.5-7.4,15.3-14.6,22.8-22,1.3-1.3,2.7-3.9,2.2-5.4-6.2-21.9-12.7-43.6-19.4-65.4-.6-1.8-1.2-4.5-5.5-2.8-17.7,7.1-34.5,15.9-50.5,26.2-18.4,11.9-35.2,25.6-50.1,41.7-2.2,2.3-2.6,3.3,1.1,4.4,4.9,1.4,9.4,3.9,14.2,5.4,20.3,6.2,40.6,12.1,61.4,18.6M593.53,727.82c11.9-11.5,23.7-23.1,35.7-34.6,1.9-1.9,4.2-3.4,6.5-4.8,2-1.2,2.2-2.3,0-3-3.6-1-7.3-1.8-11-2.4-10.2-1.6-20.4-3.3-30.6-4.5-1.9-.2-4.5.8-6,2-5,4.2-9.7,8.8-14.5,13.3-14.4,13.6-28.7,27.3-43,41-9.6,9.2-19,18.4-28.6,27.5-12,11.5-24.2,22.8-36.2,34.3-1.2,1.2-2.1,2.8-3.1,4.2,1.5.5,2.9,1.2,4.4,1.4,2.8.5,5.7.7,8.6,1,11.1,1.3,22.2,2.9,33.3,3.8,2.2.2,4.8-1.3,6.8-2.7,2.4-1.7,4.3-4.1,6.4-6.2,15.6-15.3,31.3-30.6,46.9-46,8-7.8,15.9-15.8,24.4-24.3M327.53,559.82c-.8,1.5-1.7,3-2.5,4.5-4.2,8.1-8.4,16.2-12.5,24.3-.6,1.1-.1,2.8-.1,4.2.9-.6,1.9-1.2,2.8-1.7,1.8-.9,3.5-1.9,5.4-2.7,8.7-3.9,17.4-7.8,26.1-11.8,10.1-4.6,20-9.6,30.1-14.1,22.3-9.8,44.6-19.3,66.9-29,1.1-.5,1.8-1.8,2.7-2.7-1.3-.5-2.6-1.4-3.9-1.4-8.2.5-16.4,1.6-24.7,1.8-12,.3-24,.1-36,.1-1.6,0-3.1.4-4.7.7-9.8,2.4-19.6,5.1-29.5,7.1-8.1,1.7-14.5,5-17.1,13.4-.6,2.2-1.9,4.2-3,7.3M596.53,783.82c.7-6.5,1.4-13.1,2-19.6.7-7.5,1.4-15.1,2-22.6.1-1-.2-2-.3-3-.9.5-2,.7-2.7,1.4-3.8,3.7-7.5,7.5-11.3,11.2-18.3,18-36.7,36-55,54-.9.9-1.5,2.1-2.2,3.2,1.4.3,2.7,1,4.1,1,19,.1,37.9-.1,56.9.1,3.9,0,5.2-1.9,5.5-5,.5-6.7.7-13.2,1-20.7M508.53,721.82c.3,4,.6,8.1,1,12.1.2,1.7.7,3.4,1.1,5,1-1.3,1.9-2.7,2.9-4,.5-.6,1.1-1.2,1.7-1.8,8.3-7.7,16.6-15.3,24.9-22.9,11.2-10.3,22.5-20.5,33.7-30.7.6-.5,1-1.2,1.6-1.8-.8-.5-1.6-1.4-2.4-1.3-3.2.2-6.4,1-9.6.9-17.3-.7-34.3,1.7-51.3,4.1-6.6.9-6.8.9-6.6,7.8.1,5.5.5,11.1,1,16.6.5,4.9,1.4,9.9,2,16M484.03,688.32c-4.3,1.3-8.5,3.1-12.9,3.8-4.6.7-4,3.3-3.1,6.2,3.1,10.2,6.4,20.4,9.5,30.6,2.8,9.2,5.3,18.5,8.1,27.7.4,1.3,1.5,2.4,2.2,3.6.9-1,1.8-2,2.7-2.9,1-1,2-2.1,3.1-2.8,5.3-3.3,6.5-8.1,5.9-13.9-1.4-14.4-3.1-28.9-3.9-43.3-.6-11.1-.1-11.1-10.8-9.7-.1-.2-.2,0-.8.7M624.03,714.32c-7.3,6.4-13.7,12.9-13.7,23.9s-1.1,22.8-1.9,34.1c-.4,5.9-1.4,11.8-1.9,17.6-.5,5.2-.8,10.4-.9,15.6,0,1.3,1,2.5,1.5,3.8,1-1.1,2.6-1.9,3-3.2,1-2.9,1.5-6,2.2-9.1,4.4-18,8.7-36,13.3-53.9,3.1-12,6.6-23.9,9.9-35.8.3-1.1,0-2.4-.1-3.6-1.2.6-2.6.9-3.4,1.8-2.6,2.6-5,5.5-8,8.8M663.53,537.82c10.5,5.5,21.1,11.1,31.7,16.5,3.4,1.7,6.4,1.6,9.6-1.5,5.4-5.4,11.4-10.2,17.1-15.3,1.1-1,2.3-1.9,3.5-2.8-1.5-.4-3-1.3-4.4-1.3-18.9-.4-37.7-.8-56.6-1-2.3,0-4.6,1-6.8,1.5,1.8,1.1,3.6,2.2,5.9,3.9M795.03,601.32c1.2,1.2,2.2,2.5,3.6,3.5,1.2.8,2.7,1.2,4.1,1.8-.3-1.5-.3-3.1-.9-4.4-1.7-4.1-3.7-8.1-5.3-12.3-3.5-9-6.7-18.2-10.2-27.2-1.1-2.8-2.5-4.9-5.6-1.3-3.1,3.7-6.7,6.9-10.2,10.3-2.5,2.3-5.3,4.3-7.6,6.8-1.2,1.4-2.8,3.1.8,5,10.5,5.3,20.6,11.4,31.3,17.8M684.03,573.32c1.9-1.9,3.6-4,5.6-5.6,3-2.3.7-3.9-.9-4.3-2.7-.6-5.9-.8-7,3.1-.5,1.9-1.4,3.8-1.6,5.7-.2,1.5.4,3.1.6,4.7,1-1,1.9-2.1,3.3-3.6M654.03,622.32c1.5-1.8,3.1-3.6,4.4-5.5.3-.5-.4-1.6-.6-2.5-1.6,1-3.6,1.6-4.6,3-.8,1.2-3.9,3.2.8,5Z"/>
  <path class="cls-1" d="M681.33,394.02c-6.4,12.2-12.1,24.4-19,36-3.6,6-9.2,10.9-14.2,16.1-4.2,4.3-8.5,8.7-13.4,12.2-5.2,3.8-11.1,6.8-16.8,10-3.1,1.7-4.7,3.7-4.5,7.6.6,16.9.7,33.7,1.2,50.6.1,3.5-1.4,6.4-4.3,6.5-1.9,0-3.9-3.1-5.7-5-.7-.7-1-2-1-3-.4-12-.7-24.1-1.1-36.1-.1-4-.4-8.1-1.1-12.1-.2-1-2.5-2.5-3.7-2.4-4.2.5-6.4-1.9-6.9-5.1-.5-3.4,2-5.3,5.3-6,9.6-2.2,18.5-5.6,27.1-10.8,11.3-6.9,20.2-15.8,27.9-26.2,9.9-13.5,17.4-28.3,21.5-44.6,2.9-11.2,5.6-22.6,6.8-34.1,1.3-12.6,1-25.4,1.2-38.1,0-2.5-1.2-5.2-.8-7.6.4-2.3,1.6-5.3,3.4-6.3,1.3-.7,4.8.7,6.2,2.2,7,7.8,15.6,5.4,23,2.8,19.5-6.8,31.7-20.4,36.3-41.1,3-13.5-4-26.6-14.9-31.2-8.4-3.6-17-2.6-24.9,1.1-6.9,3.3-13.2,7.6-19.6,11.7-5.1,3.3-7.1,3-10-2.7-2.7-5.2-4.9-10.7-7.9-15.7-3.4-5.8-8.3-10.3-14.6-12.7-6.5-2.4-8.1-7.8-9.1-13.6-.9-5.3-1.6-10.8-2-16.2-.6-8-1-16.1-.9-24.1,0-4-1.8-6.3-5.1-7.3-9.5-2.8-19.1-5.7-28.9-7.6-24.6-4.6-49.5-4.7-74.3-4-13.8.4-27.6,2-41.3,4-13,1.9-25.8,5.1-38.7,7.9-2.4.5-4.6,1.7-6.9,2.5-6.4,2.3-5.3,8.4-5.7,13-1.5,16.2-2.2,32.5-3.2,48.7-.2,3.4-1.6,5.4-5.3,6.9-7.8,3.2-14.6,7.8-17.3,16.8-1.5,5.1-6.2,6.8-11.4,5-7.9-2.6-15.9-4.8-24.4-4-14.4,1.4-25.1,11.1-25.5,25.9-.5,18.5,8.8,31.7,24.3,41.1,7.2,4.4,14.6,7.1,23.1,7,7.3,0,11.6,4.7,11.4,12.3-.6,18.9,2.5,37.1,9,54.8,4.9,13.2,11.8,25,20.6,36,12.1,15.1,27.3,26.3,44.7,34.5,12.3,5.7,25.2,9.7,38.8,11.4,3.7.5,7.5,1.2,11.2,2,3.1.7,5,3.1,3.6,6-1,2.1-3.6,4.7-5.5,4.7-5.7,0-11.5-.7-17-2.2-4.2-1.1-5.4-.3-5.3,3.8.4,14.9.6,29.7,1.1,44.6.1,4-1.2,7-5.5,7s-5.5-2.9-5.6-6.9c-.2-12.7-.6-25.4-1-38.1-.1-4-.1-8.2-1.2-12-.5-1.9-3.1-3.9-5.1-4.6-12-3.7-22.8-9.6-33.3-16.3-1.4-.9-4.6-1-5.5,0-3.4,3.6-7.6,3.7-11.9,4-15.1,1-30.2,2-45.3,3-9.1.6-18.1,1.2-27.2,2-15,1.3-29.9,2.7-44.8,4-4.9.4-9.7.7-14.6,1-11.9.7-23.8,1.2-35.7,2-13.4.9-26.8,2-40.3,3-9.6.7-19.1,1.3-28.7,2-8.7.6-17.5,1-26.1,2.2-2.3.3-5.4,2.6-6.1,4.7-11.9,35.4-23.4,71-35,106.5-6.8,20.7-13.3,41.5-20.2,62.1-1.8,5.5-5.3,10.6-6.8,16.2-3.3,12.5-.8,24.5,6.2,35,10.2,15.3,24.8,24,43.2,25.2,7.7.5,15.5-.6,23.2-.8,2.9-.1,6.4-.8,7.1,3.3.7,4.3-2.1,7.1-5.9,7.6-8.8,1.1-17.9,2.8-26.6,1.8-8.8-1-17.7-3.9-25.6-7.8-18.1-9-29.7-24.1-33.6-43.9-2.8-14.4.4-28.3,8.2-41.2,3.2-5.3,4.4-11.8,6.5-17.8.3-.9.7-1.7,1-2.6.6-2,1.2-4.1,1.8-6.1-2,.5-4.1,1.1-6.1,1.5-8.6,1.4-17.2,2.7-25.8,4.2-10.7,1.8-21.4,3.9-32.1,5.7-8.9,1.5-17.8,2.8-26.7,4.3-7.1,1.2-14.3,2.7-21.4,3.8-2.4.4-5.3.8-7.2-.2-1.7-.9-3.4-4-3.1-5.9.2-1.7,2.7-4.1,4.6-4.5,8.2-1.7,16.5-2.7,24.8-4.2,10.5-1.8,21.1-3.9,31.6-5.8,8.6-1.5,17.2-2.8,25.8-4.2s17.1-2.9,25.7-4.3c2.7-.4,5.9-1.5,8.1-.5,4.6,2.1,5.1-.9,6.1-3.8,7.7-24.2,15.3-48.3,23-72.5,6.5-20.3,13.4-40.4,19.9-60.8,1.3-4,4.2-5.5,7.5-6.1,4.4-.8,9-.8,13.6-1.1,15.4-1,30.8-2,46.3-3,8.9-.6,17.8-1.3,26.7-2,14.4-1,28.8-2,43.3-3,9.1-.6,18.1-1.3,27.2-2,14.3-1,28.5-2,42.8-3,8.2-.6,16.4-1.4,24.7-2,17.1-1.1,34.2-2,51.3-3.1.7,0,1.3-.5,2-.8-.4-.7-.7-1.5-1.3-1.9-24-18.7-37.3-43.9-44.8-72.8-3.2-12.3-5.1-24.8-4.9-37.4.1-5.6-4.3-5.3-7.2-5.9-21.7-4-37.3-16.1-46.7-35.7-8.6-17.9-7.1-37.5,8.2-51.2,2.8-2.5,6.1-4.3,9.4-6.2,2.8-1.6,3.5-2.9,2.6-6.5-2.1-8.1-3.4-16.4-4.2-24.7-.9-8.5-1.5-17.1-1-25.6,1.1-18.1,4.3-35.9,15-51.2,3.7-5.4,8.3-10.1,15.1-12.2,2.1-.6,4.4-2.9,5.2-5,6.8-17.3,17.3-32.2,31-44.6,10-9.1,21.4-15.5,35.6-15.5,2.7,0,5.7-2.5,8-4.5,12.6-10.8,26.6-19.4,41.6-26.5,12-5.7,24.4-9.9,37.6-11.8,7.2-1,14.5-2.1,21.7-1.9,17.1.6,32.9,5.5,45.7,17.2,4.2,3.9,7.1,9.3,10.3,14.1,2.3,3.4,4.4,5.6,9.2,5.6,9.4.1,17.5,4.6,24.7,10.2,17,13.4,27,31.8,34.1,51.7,5,14.3,9.2,28.9,13,43.6,2,7.7,2.6,15.8,3.1,23.7,1,15,1.4,30.1,2.2,45.2.1,1.2,2,3.3,2.9,3.2,21.3-1.8,36,10.7,39.7,29.4,2.9,15-1.5,29.3-10.4,42-9.2,12.9-21.4,21.8-36.5,26.2-5.2,1.5-10.9,1.4-16.4,1.4-3.5,0-4.5,1.1-4.5,4.6-.1,10.5.2,21.2-1.1,31.6-1.8,14.1-4.3,28.1-9.7,41.4-.8,1.2-.7,2-.9,2.9M697.53,132.82c-.3-1.7-.6-3.4-1-5.1-4.3-17.5-10.6-34.3-20.1-49.7-6.3-10.3-13.8-20-25.1-25.2-5.1-2.4-11-3.3-16.6-4.5-4.9-1-8.9-2.1-11.4-7.5-8.5-18.5-24.4-26.5-43.7-28.4-13.9-1.4-27.6.8-40.8,5.2-22,7.4-41.9,18.6-59.4,34.1-4,3.5-8,8.6-14.2,6.4-4.8-1.7-8.9-.4-12.6,1.7-19.4,11-32.5,27.7-41.1,48-2.1,5-4.4,9.3-9.9,11.6-3.7,1.5-7.6,3.7-10.2,6.6-8.8,10.1-12.3,22.8-13.8,35.7-1.3,10.7-1.6,21.7-1,32.5.6,9.5,3,19,4.9,28.4.3,1.4,2.6,3.1,4.2,3.5,5.7,1.3,11.4,2.3,17.2,3,2.5.3,4.7.5,7-2.6,4-5.3,9.2-9.8,14.6-13.7,2.9-2.1,4.5-4.4,4.7-7.6,1.1-15.1,2.7-30.2,2.8-45.2.1-12.1,3.9-15.3,15.4-19.9,16.6-6.6,34.1-9.3,51.6-11.7,14-1.9,28.1-2.6,42.2-3.1,10-.3,20.1.4,30.1.9,9.7.5,19.5,1.2,29.2,2,14.2,1.1,28,3.8,41.3,9,9.1,3.6,14.6,7.7,14.5,19.7,0,8.7.5,17.4,1,26.1.1,2.7.5,5.4,1,8.1.9,4.6,2.2,8.4,7.4,10.4,4,1.6,7.6,5,10.4,8.4,3.6,4.4,6,9.8,9.2,14.6,1.1,1.7,2.2,4,5.2,1.2,2.9-2.7,6.6-5.2,10.3-6.3,4.4-1.3,5.6-4,5.4-7.8-.6-12.1-.8-24.2-2.1-36.2-1.3-14-3.9-28-6.6-42.6Z"/>
  <path class="cls-1" d="M499.83,348.52c-19.3,6-37.3,3.4-52.9-8.7-13-10.1-20.9-23.9-23.5-40.6-2.2-14.1,0-27.2,6.2-39.6,8.7-17.3,22.4-28.5,41.8-32.3,1.6-.3,3.1-1.6,4.3-2.7,6.8-6.3,12.4-5.9,18.6.9,1.7,1.8,4.4,3,6.9,3.8,14.6,5,25,14.8,32.2,28.1,2.1,3.9,3.4,8.3,5.1,12.4,1.3,3.1,3.3,4.3,6.8,3.4,2.3-.6,5-.5,7.4-.1,3.7.7,6.5.5,7.9-3.8,6.1-19.5,19.8-31.6,38.3-38.9,1.7-.7,3.5-1.9,4.6-3.4,6.8-8.8,15.9-11,23.9-1.2,2.4,3,5.1,4.4,8.6,5.7,13.5,5,23.6,14,30.8,26.5,6.5,11.3,9.7,23.5,8.7,36.4-2.2,26.4-16.2,49-45.3,57.5-13.9,4-28.3,2.2-41.3-4.9-3.4-1.9-5.1-.8-7.7,1.1-3.5,2.5-7.4,4.5-11.4,6.1-.9.4-3.6-1.2-4.1-2.5-.6-1.8-.8-4.7.3-5.9,2.8-3.3,6.5-5.9,9.7-9,7.4-7.4,9.7-17,7.7-26.6-2.5-12.2-11.7-12.6-20.3-5.4-3.7,3.1-5.8,8.1-8.6,12.3-1.1,1.7-1.9,3.7-3.3,5.1-1.8,1.9-4.1,3.1-6.7,1.1-2.4-1.8-3.4-3.9-2.4-6.9,2.5-7.3,6.2-13.7,12-19.1,4.7-4.3,3.7-10.6-1.5-12.6-5.8-2.3-10.5,1-11,7.1-1.9,24.7-14.4,46-39.9,56.5-.6.1-1.2,0-1.9.2M479.03,271.32c-2.8-2.6-6.4-4.7-8.3-7.9-3.6-5.9-3.4-12.6-2.2-19.2.2-1.3.3-2.6.5-3.9-1.4.3-2.8.5-4.1,1-26.2,11.5-35,37.4-29.1,61.5,5.8,23.5,26.3,40.4,52.4,36.5,18.1-2.7,29.8-13.5,37.2-29.6,4.7-10.4,5.3-21.4,3-32.4-3.3-15.7-11.8-27.5-26.1-35-2.5-1.3-3.4-.9-3.8,1.7-.6,4.2-1,8.5-2.1,12.7-1.9,7.7-9.3,15.7-17.4,14.6M577.03,261.32c-.5.8-.9,1.6-1.4,2.4-4.1,6.8-6.5,14.2-7,22.1-.1,1,2,3.3,2.6,3.1,6.6-2,17.1,4,20.4,10.4,5.5,10.7,4.9,21.4.8,32.1-1.4,3.5-.2,4.6,2.4,5.7,8.9,3.9,17.9,6,27.9,4.4,16.4-2.5,31-15.6,36.9-29.6,4.4-10.5,5.3-21.4,2.9-32.4-3.3-15.8-11.7-28-26.5-35.1-4.2-2-5.6-1.2-5.4,3.5.3,5.6-1.5,10.5-4,15.4-3.9,7.6-14.9,7.9-19.3,2.6-4.6-5.6-5.1-11.9-4.8-18.5.1-4.3-1.1-5-5.1-3.4-8.4,3.3-14.6,9.6-20.4,17.3Z"/>
  <path class="cls-1" d="M951.33,544.52c-6.8-16.4-13.1-32.6-19.9-48.6-1.4-3.4-4.2-6.5-6.9-9.1-6.8-6.2-14.1-11.9-20.9-18.2-6.6-6.2-13.3-9.9-23.1-9.7-41.5.7-83,.4-124.4.2-34.2-.1-68.5-.6-102.7-1-2.9,0-6.4.2-6.7-3.7-.3-4,2.6-6.2,6.2-7.3,1.1-.3,2.3,0,3.5,0h225.4c4.9,0,10.1-.4,14.5,1.2,4.3,1.6,7.8,5.3,11.5,8.4,9.5,8,19.1,16,28.3,24.5,2.9,2.6,4.9,6.6,6.4,10.3,8.3,20,16.4,40.2,24.4,60.3,4,9.9,7.6,19.8,11.9,29.6,1.6,3.6.5,6-2.1,7.5-3.4,2-6.4.5-8-3-3-6.6-5.8-13.3-8.5-19.9-3.1-6.9-5.9-14.1-8.9-21.5Z"/>
  <path class="cls-1" d="M499.53,373.32c0-3.5-.1-6.5,0-9.5.1-4.1,4.4-7.1,7.8-5,9.3,5.6,19.4,5.7,29.7,5.5,10.7-.2,21.4-.1,32-1.1,8.7-.8,17.3-3.2,25.9-4.8,2.3-.4,4.7-1.1,7.1-.9,3.7.3,5.1,4.2,3.5,7.5-1.7,3.6-2.9,7.5-4,11.3-6.2,23.1-20.3,39.2-42.9,47.3-18.6,6.6-35.2,2.4-48.5-12.3-6.7-7.4-10.2-16.8-10.7-27,0-3.5.1-7,.1-11M513.53,389.82c-2.5,3.8,0,4.8,3,5.5,15.5,3.7,30.9,7.5,46.5,10.8,2.1.5,5.3-.6,7-2.1,5-4.3,9.5-9.2,14.2-14,.8-.8,1.2-1.9,1.8-2.8-1.5-.2-3.1-.9-4.4-.5-3.2.9-6.3,2.8-9.6,3.4-6.3,1.1-12.7,1.7-19.1,2.1-6.6.4-13.2.6-19.7.1-6.4-.5-12.8-2-19.7-2.5M580.03,376.32c2.8-.8,5.7-1.6,8.4-2.5.8-.3,1.4-1,2.1-1.5-.8-.3-1.6-1-2.3-.9-4.4.5-8.8,1.3-13.2,1.9-7.2,1-14.4,2.5-21.7,2.9-7.5.3-15-.4-22.5-.9-5.4-.4-10.8-1.4-16.1-1.9-1.3-.1-2.6.8-3.9,1.2,1.2.9,2.2,2.4,3.5,2.6,7.4,1.5,14.8,3.5,22.3,3.9,14.4.9,28.9.2,43.4-4.8M534.03,414.32c3.2.3,6.4.8,9.6.9.6,0,1.3-.9,1.9-1.4-.6-.5-1.1-1.3-1.8-1.5-3.4-.8-6.7-1.5-10.2-2-2.2-.3-4.4,0-6.6.1,2,1.3,4.1,2.6,7.1,3.9Z"/>
  <path class="cls-1" d="M935.53,852.32c.3,16.2-5.8,29.7-15.3,41.6-4.8,5.9-11,10.8-16.8,15.9-2.9,2.6-6.1,2.2-8.1-1.3-1.7-3-1.2-5.8,1.7-8.2s5.7-4.9,8.4-7.4c9.2-8.5,15.2-19,17.8-31.1,1.9-8.8-.6-17.3-5.7-24.9-31-46.3-61.9-92.6-92.9-139-4.8-7.1-9.1-14.6-13.9-21.7-2-3-.6-4.7,1.6-6.2,2.3-1.5,4.8-3.2,7.1-.1,3.7,5,7.5,9.8,10.9,15,30.8,46.4,61.7,92.7,92.2,139.3,5,7.6,8.4,16.2,12.4,24.3.7.9.5,2.1.6,3.8Z"/>
  <path class="cls-1" d="M214.33,729.02c-4.6,5.9-8.9,11.6-13.3,17.3-7.8,10.1-15.6,20.2-23.4,30.3-7.7,9.8-15.5,19.6-23.2,29.4-9.5,12.1-18.9,24.2-28.3,36.3-2.4,3.1-5.4,4.4-8.8,2.1-3.3-2.3-3.7-5-.8-8.6,7.9-9.8,15.4-19.9,23.1-29.9,7.6-9.9,15.4-19.6,23.1-29.4,8-10.2,15.9-20.4,23.9-30.6,7.7-9.8,15.4-19.6,23.1-29.4,8-10.2,15.9-20.4,23.9-30.6,7.7-9.8,15.3-19.6,23.1-29.4,5.2-6.5,10.5-13,15.8-19.4,2.1-2.5,4.9-4,7.8-1.5,2.8,2.4,2.5,5.4.4,8.1-8.4,11.2-16.8,22.4-25.4,33.5-12.7,16.4-25.4,32.8-38.2,49.2-.8.8-1.8,1.5-2.8,2.6Z"/>
  <path class="cls-1" d="M1029.83,404.52c-6.9,3.2-13.5,6.1-20.1,9.1-19.9,8.9-39.9,17.9-59.8,26.8-8,3.6-16.1,7-23.9,11-4.1,2.1-6.6.2-8.1-2.6-1.8-3.3.5-6,3.5-7.5,6-3.1,12.2-5.9,18.4-8.7,10.6-4.8,21.4-9.5,32-14.4,21.6-9.8,43.2-19.6,64.7-29.4,5.2-2.4,10.2-5.1,15.5-7.3,1.9-.8,4.5-1.4,6.3-.8,1.7.6,4.3,3.1,4,4.4-.4,2.2-2.2,5-4.2,6-9.3,4.7-18.7,8.8-28.3,13.4Z"/>
  <path class="cls-1" d="M67.53,453.32c12.4,1,24.3,2,36.2,3,10.4.9,20.8,1.9,31.2,3,8.3.9,16.6,1.7,24.7,3.2,1.9.4,4.5,3.6,4.5,5.5.1,3.1-2.5,5.5-6,5.2-9.4-.8-18.8-2-28.2-2.9-4.2-.4-8.4-.7-12.6-1-12.9-1-25.8-1.9-38.7-3-13.8-1.2-27.6-2.5-41.3-4.1-3.4-.4-7-2.2-6.7-6.2.3-3.8,3.4-5,7.2-4.7,9.8.7,19.5,1.3,29.7,2Z"/>
  <path class="cls-1" d="M110.33,947.52c2.9,3.3,6,6.1,8.1,9.4.8,1.2.1,4.3-1,5.5-.9,1-3.8,1.4-5.2.8-7.9-3.8-14.2-9.3-16.8-18.2-1.9-6.4-4.3-12.5-6.4-18.8-.1-.3-.5-.5-.5-.8.4-12.6-1.8-25.3,1.9-37.8,2.9-9.8,5.3-19.8,8.1-29.6,1-3.5,2.4-7.1,4.1-10.3,1.5-2.7,4.2-4.8,7.4-3.2,3.3,1.6,4.9,5.2,3.2,8.4-6.8,12.8-8.9,27.1-12.2,40.9-2,8.4-1.2,17.7-.3,26.5.9,7.6,3.6,15.1,5.9,22.5.5,1.6,2.3,2.9,3.7,4.7Z"/>
  <path class="cls-1" d="M1074.53,575.32c-11.6,2.7-22.6,5.4-33.7,8s-22.2,5-33.4,7.6c-4.5,1-9,3-13.6,3.2-2.4.1-4.9-2.8-7.4-4.4,1.6-2.4,2.8-6.4,4.9-7,10.2-2.9,20.6-4.9,31-7.3,12.3-2.8,24.7-5.6,37-8.4,13.8-3.2,27.6-6.5,41.5-9.5,3.1-.6,7.2-1,8.5,3.3,1.2,3.8-1.6,7.5-6.4,8.6-9.2,2-18.5,3.9-28.4,5.9Z"/>
  <path class="cls-1" d="M1009.83,741.02c-8.8-2.4-17.5-4.6-26-6.8-3.5-.9-5.6-3.1-5.1-6.8.5-3.8,3.3-4.8,6.7-4.1,8.3,1.7,16.6,3.2,24.8,5.2,18.4,4.5,36.8,9.2,55.3,13.8,7.1,1.8,14.4,3,21.4,5.2,2.5.8,4.9,3.2,6.5,5.4.6.9-.9,4.4-2.3,5.1-2,1.1-5,1.4-7.3.8-19.8-4.7-39.6-9.7-59.4-14.5-4.8-1.2-9.6-2-14.6-3.3Z"/>
  <path class="cls-1" d="M47.53,722.32c-11.7,4.3-22.8,8.9-34.1,12.8-1.7.6-4.6-2.1-6.9-3.3,1.2-2.1,1.9-5.2,3.7-6.2,4.5-2.6,9.5-4.3,14.4-6.2,20.2-7.8,40.5-15.6,60.7-23.3,3.3-1.3,6.7-2.3,9.9-3.7,4-1.8,7.2-1.2,8.7,3.1,1.4,4-1.5,6.2-4.6,7.5-9.7,3.9-19.5,7.6-29.2,11.3-7.3,2.6-14.7,5.3-22.6,8Z"/>
  <path class="cls-1" d="M605.33,215.02c-3.6,2.2-7,4-9.8-.4-2.5-3.9-.4-6.8,2.5-9.2,2.8-2.3,5.7-4.9,9-5.9,9.1-2.8,17.7-1.9,24.5,6,2.6,3,3.3,7.5.8,9.5-3.1,2.4-5.9,1.7-8.5-1.1-4.9-4.8-13.6-5.4-18.5,1.1Z"/>
  <path class="cls-1" d="M471.83,203.52c2.1-1.1,3.9-1.9,5.7-2.7,8.1-3.5,19.6.9,21.9,8.7.5,1.8.1,5.5-.9,5.9-2.1.9-5.5,1.1-7.2-.1-9.3-6.8-9.2-4.2-16.2,1.1-2.7,2-5.4,3-7.8,1-2.7-2.2-2.5-5.8-.7-8.6,1.3-2,3.3-3.4,5.2-5.3Z"/>
</svg>