<?xml version="1.0" encoding="UTF-8"?>
<svg xmlns="http://www.w3.org/2000/svg" viewBox="0 0 600 377.94">
  <defs>
    <style>
      .cls-1 {
        stroke-linejoin: round;
      }

      .cls-1, .cls-2, .cls-3 {
        fill: none;
        stroke: #3f3f3f;
        stroke-width: .5px;
      }

      .cls-4 {
        fill: #3f3f3f;
        stroke-width: 0px;
      }

      .cls-2 {
        stroke-linecap: square;
      }

      .cls-2, .cls-3 {
        stroke-miterlimit: 10;
      }

      .cls-3 {
        opacity: .6;
      }
    </style>
  </defs>
  <g id="_레이어_2" data-name="레이어 2">
    <line class="cls-3" x1="461.45" y1="117.99" x2="548.98" y2="117.99"/>
    <line class="cls-3" x1="461.45" y1="129.43" x2="548.98" y2="129.43"/>
    <line class="cls-3" x1="461.45" y1="140.87" x2="548.98" y2="140.87"/>
    <line class="cls-3" x1="461.45" y1="152.3" x2="548.98" y2="152.3"/>
    <line class="cls-3" x1="461.45" y1="163.74" x2="548.98" y2="163.74"/>
    <line class="cls-3" x1="461.45" y1="175.18" x2="548.98" y2="175.18"/>
    <line class="cls-3" x1="461.45" y1="186.62" x2="548.98" y2="186.62"/>
    <line class="cls-3" x1="461.45" y1="198.05" x2="548.98" y2="198.05"/>
    <line class="cls-3" x1="461.45" y1="209.49" x2="548.98" y2="209.49"/>
    <line class="cls-3" x1="536.47" y1="106.55" x2="536.47" y2="220.93"/>
    <line class="cls-3" x1="523.97" y1="106.55" x2="523.97" y2="220.93"/>
    <line class="cls-3" x1="511.47" y1="106.55" x2="511.47" y2="220.93"/>
    <line class="cls-3" x1="498.96" y1="106.55" x2="498.96" y2="220.93"/>
    <line class="cls-3" x1="486.46" y1="106.55" x2="486.46" y2="220.93"/>
    <line class="cls-3" x1="473.95" y1="106.55" x2="473.95" y2="220.93"/>
    <polygon class="cls-4" points="383.59 8.12 383.59 8.12 398.09 8.12 390.84 19.12 383.59 8.12"/>
    <rect class="cls-1" x="511.34" y="245.53" width="35.9" height="27.92" rx="3.92" ry="3.92" transform="translate(788.78 -269.79) rotate(90)"/>
    <rect class="cls-1" x="510.94" y="318.98" width="35.9" height="27.12" rx="3.92" ry="3.92" transform="translate(861.43 -196.35) rotate(90)"/>
    <circle class="cls-1" cx="528.94" cy="340.66" r="6.61"/>
    <circle class="cls-1" cx="528.94" cy="324.06" r="6.61"/>
  </g>
  <g id="_레이어_6" data-name="레이어 6">
    <g>
      <g>
        <polygon class="cls-4" points="562.44 79.64 562.44 368.99 501.83 368.99 501.83 355.53 508.6 355.53 522.06 355.53 548.98 355.53 548.98 234.39 522.06 234.39 508.6 234.39 503.75 234.39 454.04 234.39 447.99 234.39 447.99 214.24 461.45 214.24 461.45 220.93 548.98 220.93 548.98 106.56 461.45 106.56 461.45 163.74 461.45 167.16 459.46 167.16 447.99 167.16 447.99 163.74 447.99 162.75 447.99 137.89 447.99 136.82 427.84 136.82 427.84 106.56 421.14 106.56 421.14 93.1 421.14 79.64 562.44 79.64"/>
        <polygon class="cls-4" points="360.54 93.1 360.54 106.56 360.53 106.56 340.38 106.56 340.38 160.4 246.16 160.4 246.16 170.51 232.7 170.51 232.7 160.4 51.02 160.4 51.02 187.32 37.56 187.32 37.56 146.94 326.92 146.94 326.92 79.64 360.54 79.64 360.54 93.1"/>
        <polygon class="cls-4" points="313.46 355.53 313.46 368.99 212.47 368.99 212.47 355.53 215.89 355.53 232.7 355.53 232.7 274.77 232.7 234.39 246.16 234.39 246.16 355.53 313.46 355.53"/>
        <polygon class="cls-4" points="51.02 348.84 51.02 348.91 51.02 354.04 51.02 355.53 71.18 355.53 71.18 368.99 37.56 368.99 37.56 348.84 51.02 348.84"/>
      </g>
      <g>
        <polyline class="cls-2" points="248.79 239.45 248.79 284.03 291.88 284.03"/>
        <polyline class="cls-2" points="291.88 284.03 294.94 284.03 294.94 283.67"/>
        <line class="cls-2" x1="294.94" y1="239.45" x2="294.94" y2="243.65"/>
        <line class="cls-2" x1="297.29" y1="283.67" x2="297.29" y2="281.32"/>
        <line class="cls-2" x1="294.94" y1="283.67" x2="294.94" y2="281.32"/>
        <line class="cls-2" x1="232.7" y1="274.77" x2="215.89" y2="274.77"/>
        <polyline class="cls-2" points="232.7 274.77 232.7 355.53 215.89 355.53"/>
        <line class="cls-2" x1="562.44" y1="368.99" x2="562.44" y2="79.64"/>
        <polyline class="cls-2" points="37.56 146.94 326.92 146.94 326.92 79.64"/>
        <line class="cls-2" x1="562.44" y1="79.64" x2="421.14" y2="79.64"/>
        <line class="cls-2" x1="548.98" y1="220.93" x2="461.45" y2="220.93"/>
        <polyline class="cls-2" points="360.54 136.82 421.14 136.82 421.14 106.56"/>
        <line class="cls-2" x1="360.54" y1="79.64" x2="326.92" y2="79.64"/>
        <line class="cls-2" x1="421.14" y1="106.56" x2="427.84" y2="106.56"/>
        <line class="cls-2" x1="246.16" y1="231.04" x2="246.16" y2="173.86"/>
        <line class="cls-2" x1="232.7" y1="175.85" x2="232.7" y2="231.04"/>
        <line class="cls-2" x1="447.99" y1="162.75" x2="447.99" y2="137.89"/>
        <polyline class="cls-2" points="89.69 354.04 56.44 354.04 54.87 353.97"/>
        <line class="cls-2" x1="52.8" y1="350.33" x2="52.87" y2="351.97"/>
        <line class="cls-2" x1="54.87" y1="283.03" x2="53.37" y2="283.6"/>
        <line class="cls-2" x1="89.69" y1="283.03" x2="56.44" y2="283.03"/>
        <line class="cls-2" x1="52.8" y1="286.67" x2="52.87" y2="285.1"/>
        <polyline class="cls-2" points="72.67 343.57 77.66 343.5 82.57 343.21 87.49 342.78 87.91 338.8 88.34 334.74 88.77 326.62 88.84 322.56 88.98 318.5"/>
        <polyline class="cls-2" points="88.84 314.44 88.77 310.38 88.55 306.39 88.34 302.33"/>
        <polyline class="cls-2" points="87.91 298.27 87.49 294.21 82.57 293.86 77.66 293.57 72.67 293.5"/>
        <polyline class="cls-2" points="56.58 310.38 56.86 306.39 57.08 302.33"/>
        <polyline class="cls-2" points="67.76 293.57 62.77 293.86 57.86 294.21 57.5 298.27 57.08 302.33"/>
        <polyline class="cls-2" points="56.58 310.38 56.44 318.5 56.58 326.62 56.86 330.68 57.08 334.74"/>
        <polyline class="cls-2" points="62.77 343.21 67.76 343.5 72.67 343.57"/>
        <polyline class="cls-2" points="62.77 343.21 57.86 342.78 57.5 338.8 57.08 334.74"/>
        <line class="cls-2" x1="51.02" y1="354.04" x2="52.45" y2="354.04"/>
        <line class="cls-2" x1="52.45" y1="283.03" x2="51.02" y2="283.03"/>
        <line class="cls-2" x1="190.89" y1="283.89" x2="190.89" y2="283.25"/>
        <polyline class="cls-2" points="89.84 281.82 89.91 281.18 90.83 280.61"/>
        <line class="cls-2" x1="187.69" y1="280.4" x2="190.18" y2="280.26"/>
        <polyline class="cls-2" points="190.89 280.9 190.89 280.61 190.18 280.26"/>
        <polyline class="cls-2" points="190.89 281.61 190.89 281.54 190.89 281.18"/>
        <line class="cls-2" x1="91.05" y1="280.61" x2="187.69" y2="280.4"/>
        <line class="cls-2" x1="91.05" y1="280.61" x2="90.83" y2="280.61"/>
        <line class="cls-2" x1="89.77" y1="281.54" x2="89.91" y2="281.18"/>
        <line class="cls-2" x1="89.77" y1="355.03" x2="89.84" y2="355.03"/>
        <line class="cls-2" x1="190.89" y1="355.32" x2="190.89" y2="354.54"/>
        <line class="cls-2" x1="89.84" y1="289.73" x2="89.91" y2="293"/>
        <line class="cls-2" x1="190.89" y1="341.5" x2="190.89" y2="334.95"/>
        <line class="cls-2" x1="190.89" y1="341.5" x2="190.89" y2="344.28"/>
        <line class="cls-2" x1="190.89" y1="334.95" x2="190.89" y2="329.18"/>
        <line class="cls-2" x1="190.89" y1="299.27" x2="190.89" y2="308.17"/>
        <line class="cls-2" x1="190.89" y1="299.27" x2="190.89" y2="287.02"/>
        <line class="cls-2" x1="190.89" y1="308.17" x2="190.89" y2="324.84"/>
        <polyline class="cls-2" points="89.84 281.82 89.69 282.61 89.77 281.54"/>
        <polyline class="cls-2" points="89.62 300.62 89.91 297.13 89.84 295 89.84 294.21 89.91 293"/>
        <polyline class="cls-2" points="89.2 313.44 89.2 310.45 89.27 307.89"/>
        <line class="cls-2" x1="89.27" y1="306.18" x2="89.48" y2="304.11"/>
        <polyline class="cls-2" points="89.12 326.26 89.12 329.47 89.41 331.25"/>
        <line class="cls-2" x1="89.84" y1="343.35" x2="89.98" y2="346.35"/>
        <polyline class="cls-2" points="89.77 339.51 89.41 334.38 89.41 331.25 89.27 330.18 89.12 326.26 88.98 325.69"/>
        <polyline class="cls-2" points="89.77 354.32 89.77 355.03 89.84 355.53"/>
        <line class="cls-2" x1="190.89" y1="352.33" x2="190.89" y2="351.47"/>
        <line class="cls-2" x1="190.89" y1="344.28" x2="190.89" y2="349.12"/>
        <line class="cls-2" x1="89.84" y1="343.35" x2="89.77" y2="339.51"/>
        <line class="cls-2" x1="246.16" y1="355.53" x2="246.16" y2="234.39"/>
        <line class="cls-2" x1="232.7" y1="160.4" x2="232.7" y2="170.51"/>
        <line class="cls-2" x1="246.16" y1="170.51" x2="246.16" y2="160.4"/>
        <line class="cls-2" x1="232.7" y1="234.39" x2="232.7" y2="274.77"/>
        <line class="cls-2" x1="360.54" y1="106.56" x2="360.54" y2="93.1"/>
        <line class="cls-2" x1="423.14" y1="355.53" x2="369.29" y2="355.53"/>
        <polyline class="cls-2" points="369.29 274.77 369.3 274.77 423.14 274.77"/>
        <polyline class="cls-2" points="209.13 368.99 74.52 368.99 74.52 363.08"/>
        <line class="cls-2" x1="74.52" y1="361.02" x2="74.52" y2="359.02"/>
        <line class="cls-2" x1="74.52" y1="357.03" x2="74.52" y2="355.53"/>
        <line class="cls-2" x1="77.94" y1="359.02" x2="140.19" y2="359.02"/>
        <line class="cls-2" x1="77.94" y1="357.03" x2="140.19" y2="357.03"/>
        <line class="cls-2" x1="143.53" y1="359.02" x2="143.53" y2="357.03"/>
        <line class="cls-2" x1="143.53" y1="361.02" x2="205.78" y2="361.02"/>
        <line class="cls-2" x1="143.53" y1="359.02" x2="205.78" y2="359.02"/>
        <line class="cls-2" x1="77.94" y1="363.08" x2="140.19" y2="363.08"/>
        <line class="cls-2" x1="77.94" y1="361.02" x2="140.19" y2="361.02"/>
        <line class="cls-2" x1="143.53" y1="363.08" x2="143.53" y2="361.02"/>
        <line class="cls-2" x1="143.53" y1="365.08" x2="205.78" y2="365.08"/>
        <line class="cls-2" x1="143.53" y1="363.08" x2="205.78" y2="363.08"/>
        <polyline class="cls-2" points="232.7 170.51 232.7 173.86 246.16 173.86"/>
        <line class="cls-2" x1="232.7" y1="173.86" x2="175.51" y2="173.86"/>
        <line class="cls-2" x1="44.26" y1="194.08" x2="44.26" y2="229.41"/>
        <line class="cls-2" x1="46.32" y1="194.08" x2="46.32" y2="229.41"/>
        <line class="cls-2" x1="44.26" y1="232.75" x2="46.32" y2="232.75"/>
        <line class="cls-2" x1="44.26" y1="306.75" x2="44.26" y2="342.07"/>
        <line class="cls-2" x1="46.32" y1="306.75" x2="46.32" y2="342.07"/>
        <line class="cls-2" x1="46.32" y1="232.75" x2="46.32" y2="303.4"/>
        <line class="cls-2" x1="48.32" y1="232.75" x2="48.32" y2="303.4"/>
        <line class="cls-2" x1="46.32" y1="306.75" x2="48.32" y2="306.75"/>
        <polyline class="cls-2" points="498.48 368.99 316.81 368.99 316.81 366.29"/>
        <line class="cls-2" x1="316.81" y1="364.29" x2="316.81" y2="362.23"/>
        <line class="cls-2" x1="316.81" y1="360.23" x2="316.81" y2="355.53"/>
        <line class="cls-2" x1="454.76" y1="366.29" x2="495.14" y2="366.29"/>
        <line class="cls-2" x1="454.76" y1="364.29" x2="495.14" y2="364.29"/>
        <line class="cls-2" x1="411.03" y1="364.29" x2="451.41" y2="364.29"/>
        <line class="cls-2" x1="411.03" y1="362.23" x2="451.41" y2="362.23"/>
        <line class="cls-2" x1="454.76" y1="364.29" x2="454.76" y2="362.23"/>
        <line class="cls-2" x1="404.26" y1="364.29" x2="363.88" y2="364.29"/>
        <line class="cls-2" x1="404.26" y1="362.23" x2="363.88" y2="362.23"/>
        <line class="cls-2" x1="360.54" y1="366.29" x2="320.15" y2="366.29"/>
        <line class="cls-2" x1="360.54" y1="364.29" x2="320.15" y2="364.29"/>
        <line class="cls-2" x1="363.88" y1="366.29" x2="363.88" y2="364.29"/>
        <line class="cls-2" x1="454.76" y1="362.23" x2="495.14" y2="362.23"/>
        <line class="cls-2" x1="454.76" y1="360.23" x2="495.14" y2="360.23"/>
        <line class="cls-2" x1="411.03" y1="360.23" x2="451.41" y2="360.23"/>
        <line class="cls-2" x1="411.03" y1="358.24" x2="451.41" y2="358.24"/>
        <line class="cls-2" x1="454.76" y1="360.23" x2="454.76" y2="358.24"/>
        <line class="cls-2" x1="404.26" y1="360.23" x2="363.88" y2="360.23"/>
        <line class="cls-2" x1="404.26" y1="358.24" x2="363.88" y2="358.24"/>
        <line class="cls-2" x1="360.54" y1="362.23" x2="320.15" y2="362.23"/>
        <line class="cls-2" x1="360.54" y1="360.23" x2="320.15" y2="360.23"/>
        <line class="cls-2" x1="363.88" y1="362.23" x2="363.88" y2="360.23"/>
        <line class="cls-2" x1="40.27" y1="194.08" x2="40.27" y2="229.41"/>
        <line class="cls-2" x1="42.26" y1="194.08" x2="42.26" y2="229.41"/>
        <line class="cls-2" x1="40.27" y1="232.75" x2="42.26" y2="232.75"/>
        <line class="cls-2" x1="40.27" y1="306.75" x2="40.27" y2="342.07"/>
        <line class="cls-2" x1="42.26" y1="306.75" x2="42.26" y2="342.07"/>
        <line class="cls-2" x1="42.26" y1="232.75" x2="42.26" y2="303.4"/>
        <line class="cls-2" x1="44.26" y1="232.75" x2="44.26" y2="303.4"/>
        <line class="cls-2" x1="42.26" y1="306.75" x2="44.26" y2="306.75"/>
        <line class="cls-2" x1="248.15" y1="326.62" x2="275.07" y2="326.62"/>
        <polyline class="cls-2" points="447.99 210.89 447.99 167.16 459.46 167.16"/>
        <line class="cls-2" x1="461.45" y1="208.82" x2="461.45" y2="167.16"/>
        <polyline class="cls-2" points="417.72 79.64 417.63 79.64 365.95 79.64"/>
        <polyline class="cls-2" points="363.88 93.1 417.72 93.1 417.72 81.7"/>
        <polyline class="cls-2" points="37.56 345.42 37.56 190.66 40.27 190.66"/>
        <line class="cls-2" x1="42.26" y1="190.66" x2="44.26" y2="190.66"/>
        <line class="cls-2" x1="46.32" y1="190.66" x2="51.02" y2="190.66"/>
        <line class="cls-2" x1="288.53" y1="353.54" x2="288.53" y2="326.62"/>
        <line class="cls-2" x1="328.91" y1="353.54" x2="328.91" y2="326.62"/>
        <line class="cls-2" x1="503.75" y1="234.39" x2="454.04" y2="234.39"/>
        <line class="cls-2" x1="447.99" y1="163.74" x2="447.99" y2="162.75"/>
        <line class="cls-2" x1="447.99" y1="137.89" x2="447.99" y2="136.82"/>
        <line class="cls-2" x1="427.84" y1="136.82" x2="427.84" y2="137.89"/>
        <polyline class="cls-2" points="427.84 162.75 427.84 163.74 447.99 163.74"/>
        <line class="cls-2" x1="447.99" y1="136.82" x2="427.84" y2="136.82"/>
        <line class="cls-2" x1="37.56" y1="146.94" x2="37.56" y2="187.32"/>
        <polyline class="cls-2" points="37.56 348.84 37.56 368.99 71.18 368.99"/>
        <line class="cls-2" x1="212.47" y1="368.99" x2="313.46" y2="368.99"/>
        <line class="cls-2" x1="501.83" y1="368.99" x2="562.44" y2="368.99"/>
        <line class="cls-2" x1="51.02" y1="160.4" x2="232.7" y2="160.4"/>
        <line class="cls-2" x1="51.02" y1="187.32" x2="51.02" y2="160.4"/>
        <line class="cls-2" x1="548.98" y1="106.56" x2="548.98" y2="220.93"/>
        <line class="cls-2" x1="461.45" y1="220.93" x2="461.45" y2="214.24"/>
        <polyline class="cls-2" points="461.45 163.74 461.45 106.56 548.98 106.56"/>
        <line class="cls-2" x1="548.98" y1="234.39" x2="548.98" y2="355.53"/>
        <line class="cls-2" x1="313.46" y1="355.53" x2="246.16" y2="355.53"/>
        <polyline class="cls-2" points="246.16 160.4 340.38 160.4 340.38 106.56"/>
        <line class="cls-2" x1="232.7" y1="170.51" x2="246.16" y2="170.51"/>
        <line class="cls-2" x1="246.16" y1="234.39" x2="232.7" y2="234.39"/>
        <line class="cls-2" x1="427.84" y1="106.56" x2="427.84" y2="136.82"/>
        <line class="cls-2" x1="51.02" y1="348.84" x2="37.56" y2="348.84"/>
        <line class="cls-2" x1="37.56" y1="187.32" x2="51.02" y2="187.32"/>
        <line class="cls-2" x1="212.47" y1="355.53" x2="212.47" y2="368.99"/>
        <line class="cls-2" x1="71.18" y1="368.99" x2="71.18" y2="355.53"/>
        <polyline class="cls-2" points="447.99 234.39 447.99 214.24 461.45 214.24"/>
        <line class="cls-2" x1="501.83" y1="355.53" x2="501.83" y2="368.99"/>
        <line class="cls-2" x1="313.46" y1="368.99" x2="313.46" y2="355.53"/>
        <line class="cls-2" x1="212.47" y1="355.53" x2="209.13" y2="355.53"/>
        <line class="cls-2" x1="71.18" y1="368.99" x2="74.52" y2="368.99"/>
        <line class="cls-2" x1="209.13" y1="368.99" x2="212.47" y2="368.99"/>
        <line class="cls-2" x1="74.52" y1="359.02" x2="77.94" y2="359.02"/>
        <line class="cls-2" x1="140.19" y1="359.02" x2="143.53" y2="359.02"/>
        <line class="cls-2" x1="143.53" y1="357.03" x2="140.19" y2="357.03"/>
        <polyline class="cls-2" points="77.94 357.03 74.52 357.03 74.52 359.02"/>
        <line class="cls-2" x1="140.19" y1="361.02" x2="143.53" y2="361.02"/>
        <line class="cls-2" x1="205.78" y1="361.02" x2="209.13" y2="361.02"/>
        <line class="cls-2" x1="209.13" y1="359.02" x2="205.78" y2="359.02"/>
        <line class="cls-2" x1="140.19" y1="359.02" x2="140.19" y2="361.02"/>
        <line class="cls-2" x1="209.13" y1="361.02" x2="209.13" y2="359.02"/>
        <line class="cls-2" x1="74.52" y1="363.08" x2="77.94" y2="363.08"/>
        <line class="cls-2" x1="140.19" y1="363.08" x2="143.53" y2="363.08"/>
        <polyline class="cls-2" points="77.94 361.02 74.52 361.02 74.52 363.08"/>
        <line class="cls-2" x1="140.19" y1="365.08" x2="143.53" y2="365.08"/>
        <line class="cls-2" x1="205.78" y1="365.08" x2="209.13" y2="365.08"/>
        <line class="cls-2" x1="209.13" y1="363.08" x2="205.78" y2="363.08"/>
        <line class="cls-2" x1="140.19" y1="363.08" x2="140.19" y2="365.08"/>
        <line class="cls-2" x1="209.13" y1="365.08" x2="209.13" y2="363.08"/>
        <line class="cls-2" x1="246.16" y1="234.39" x2="246.16" y2="231.04"/>
        <line class="cls-2" x1="246.16" y1="173.86" x2="246.16" y2="170.51"/>
        <polyline class="cls-2" points="232.7 234.39 232.7 231.04 246.16 231.04"/>
        <polyline class="cls-2" points="232.7 175.85 175.55 175.85 175.51 175.85 175.51 173.86"/>
        <line class="cls-2" x1="232.7" y1="175.85" x2="232.7" y2="173.86"/>
        <line class="cls-2" x1="44.26" y1="190.66" x2="44.26" y2="194.08"/>
        <line class="cls-2" x1="44.26" y1="229.41" x2="44.26" y2="232.75"/>
        <line class="cls-2" x1="46.32" y1="190.66" x2="44.26" y2="190.66"/>
        <line class="cls-2" x1="46.32" y1="232.75" x2="46.32" y2="229.41"/>
        <line class="cls-2" x1="46.32" y1="194.08" x2="46.32" y2="190.66"/>
        <line class="cls-2" x1="44.26" y1="303.4" x2="44.26" y2="306.75"/>
        <polyline class="cls-2" points="44.26 342.07 44.26 345.42 46.32 345.42"/>
        <line class="cls-2" x1="46.32" y1="303.4" x2="44.26" y2="303.4"/>
        <line class="cls-2" x1="46.32" y1="345.42" x2="46.32" y2="342.07"/>
        <line class="cls-2" x1="46.32" y1="306.75" x2="46.32" y2="303.4"/>
        <line class="cls-2" x1="48.32" y1="229.41" x2="46.32" y2="229.41"/>
        <line class="cls-2" x1="48.32" y1="306.75" x2="48.32" y2="303.4"/>
        <line class="cls-2" x1="48.32" y1="232.75" x2="48.32" y2="229.41"/>
        <line class="cls-2" x1="522.06" y1="355.53" x2="548.98" y2="355.53"/>
        <line class="cls-2" x1="548.98" y1="234.39" x2="522.06" y2="234.39"/>
        <line class="cls-2" x1="501.83" y1="355.53" x2="498.48" y2="355.53"/>
        <line class="cls-2" x1="316.81" y1="355.53" x2="313.46" y2="355.53"/>
        <line class="cls-2" x1="313.46" y1="368.99" x2="316.81" y2="368.99"/>
        <line class="cls-2" x1="498.48" y1="368.99" x2="501.83" y2="368.99"/>
        <line class="cls-2" x1="451.41" y1="366.29" x2="454.76" y2="366.29"/>
        <line class="cls-2" x1="495.14" y1="366.29" x2="498.48" y2="366.29"/>
        <line class="cls-2" x1="498.48" y1="364.29" x2="495.14" y2="364.29"/>
        <line class="cls-2" x1="454.76" y1="364.29" x2="451.41" y2="364.29"/>
        <line class="cls-2" x1="498.48" y1="366.29" x2="498.48" y2="364.29"/>
        <line class="cls-2" x1="451.41" y1="364.29" x2="451.41" y2="366.29"/>
        <line class="cls-2" x1="407.68" y1="364.29" x2="411.03" y2="364.29"/>
        <line class="cls-2" x1="454.76" y1="362.23" x2="451.41" y2="362.23"/>
        <polyline class="cls-2" points="411.03 362.23 407.68 362.23 407.68 364.29 404.26 364.29"/>
        <line class="cls-2" x1="363.88" y1="364.29" x2="360.54" y2="364.29"/>
        <line class="cls-2" x1="360.54" y1="362.23" x2="363.88" y2="362.23"/>
        <line class="cls-2" x1="404.26" y1="362.23" x2="407.68" y2="362.23"/>
        <line class="cls-2" x1="360.54" y1="364.29" x2="360.54" y2="362.23"/>
        <line class="cls-2" x1="363.88" y1="366.29" x2="360.54" y2="366.29"/>
        <line class="cls-2" x1="320.15" y1="366.29" x2="316.81" y2="366.29"/>
        <polyline class="cls-2" points="320.15 364.29 316.81 364.29 316.81 366.29"/>
        <line class="cls-2" x1="495.14" y1="362.23" x2="498.48" y2="362.23"/>
        <line class="cls-2" x1="498.48" y1="360.23" x2="495.14" y2="360.23"/>
        <line class="cls-2" x1="454.76" y1="360.23" x2="451.41" y2="360.23"/>
        <line class="cls-2" x1="498.48" y1="362.23" x2="498.48" y2="360.23"/>
        <line class="cls-2" x1="451.41" y1="360.23" x2="451.41" y2="362.23"/>
        <line class="cls-2" x1="407.68" y1="360.23" x2="411.03" y2="360.23"/>
        <line class="cls-2" x1="454.76" y1="358.24" x2="451.41" y2="358.24"/>
        <polyline class="cls-2" points="411.03 358.24 407.68 358.24 407.68 360.23 404.26 360.23"/>
        <line class="cls-2" x1="363.88" y1="360.23" x2="360.54" y2="360.23"/>
        <line class="cls-2" x1="360.54" y1="358.24" x2="363.88" y2="358.24"/>
        <line class="cls-2" x1="404.26" y1="358.24" x2="407.68" y2="358.24"/>
        <line class="cls-2" x1="360.54" y1="360.23" x2="360.54" y2="358.24"/>
        <line class="cls-2" x1="320.15" y1="362.23" x2="316.81" y2="362.23"/>
        <polyline class="cls-2" points="320.15 360.23 316.81 360.23 316.81 362.23"/>
        <line class="cls-2" x1="40.27" y1="190.66" x2="40.27" y2="194.08"/>
        <line class="cls-2" x1="40.27" y1="229.41" x2="40.27" y2="232.75"/>
        <line class="cls-2" x1="42.26" y1="190.66" x2="40.27" y2="190.66"/>
        <line class="cls-2" x1="42.26" y1="232.75" x2="42.26" y2="229.41"/>
        <line class="cls-2" x1="42.26" y1="194.08" x2="42.26" y2="190.66"/>
        <line class="cls-2" x1="40.27" y1="303.4" x2="40.27" y2="306.75"/>
        <polyline class="cls-2" points="40.27 342.07 40.27 345.42 42.26 345.42"/>
        <line class="cls-2" x1="42.26" y1="303.4" x2="40.27" y2="303.4"/>
        <line class="cls-2" x1="42.26" y1="345.42" x2="42.26" y2="342.07"/>
        <line class="cls-2" x1="42.26" y1="306.75" x2="42.26" y2="303.4"/>
        <line class="cls-2" x1="44.26" y1="229.41" x2="42.26" y2="229.41"/>
        <line class="cls-2" x1="447.99" y1="163.74" x2="447.99" y2="167.16"/>
        <line class="cls-2" x1="447.99" y1="210.89" x2="447.99" y2="214.24"/>
        <line class="cls-2" x1="461.45" y1="214.24" x2="461.45" y2="210.89"/>
        <line class="cls-2" x1="461.45" y1="167.16" x2="461.45" y2="163.74"/>
        <polyline class="cls-2" points="459.46 167.16 459.46 210.89 461.45 210.89"/>
        <line class="cls-2" x1="461.45" y1="167.16" x2="459.46" y2="167.16"/>
        <polyline class="cls-2" points="54.37 204.12 54.37 163.74 108.21 163.74 108.21 204.12 81.29 204.12"/>
        <line class="cls-2" x1="81.29" y1="204.12" x2="54.37" y2="204.12"/>
        <line class="cls-2" x1="421.14" y1="79.64" x2="417.72" y2="79.64"/>
        <polyline class="cls-2" points="363.88 79.64 360.54 79.64 360.54 93.1 363.88 93.1"/>
        <polyline class="cls-2" points="417.72 93.1 421.14 93.1 421.14 79.64"/>
        <polyline class="cls-2" points="363.88 81.7 417.72 81.7 417.72 79.64"/>
        <line class="cls-2" x1="363.88" y1="79.64" x2="363.88" y2="81.7"/>
        <line class="cls-2" x1="37.56" y1="187.32" x2="37.56" y2="190.66"/>
        <line class="cls-2" x1="37.56" y1="345.42" x2="37.56" y2="348.84"/>
        <line class="cls-2" x1="51.02" y1="348.84" x2="51.02" y2="345.42"/>
        <line class="cls-2" x1="51.02" y1="190.66" x2="51.02" y2="187.32"/>
        <line class="cls-2" x1="291.88" y1="284.03" x2="291.88" y2="239.45"/>
        <line class="cls-2" x1="285.47" y1="239.45" x2="248.79" y2="239.45"/>
        <polyline class="cls-2" points="53.37 353.47 54.65 353.97 54.87 353.97"/>
        <polyline class="cls-2" points="52.87 351.97 52.87 352.11 53.37 353.47"/>
        <polyline class="cls-2" points="52.87 285.1 52.87 284.96 53.37 283.6"/>
        <line class="cls-2" x1="52.8" y1="286.67" x2="52.8" y2="350.33"/>
        <polyline class="cls-2" points="88.98 318.5 88.98 318.43 88.84 314.44"/>
        <polyline class="cls-2" points="88.34 302.33 88.27 302.26 87.91 298.27"/>
        <polyline class="cls-2" points="72.67 293.5 70.47 293.57 67.76 293.57"/>
        <polyline class="cls-2" points="51.02 345.42 51.02 303.4 51.02 288.16"/>
        <line class="cls-2" x1="51.02" y1="348.91" x2="51.02" y2="348.84"/>
        <line class="cls-2" x1="190.89" y1="283.25" x2="190.89" y2="283.03"/>
        <line class="cls-2" x1="190.89" y1="354.54" x2="190.89" y2="353.25"/>
        <polyline class="cls-2" points="89.62 300.62 89.55 302.83 89.48 304.11"/>
        <line class="cls-2" x1="190.89" y1="283.89" x2="190.89" y2="287.02"/>
        <line class="cls-2" x1="190.89" y1="324.84" x2="190.89" y2="329.18"/>
        <line class="cls-2" x1="89.69" y1="283.96" x2="89.69" y2="284.6"/>
        <line class="cls-2" x1="89.77" y1="286.67" x2="89.84" y2="289.73"/>
        <polyline class="cls-2" points="89.34 309.67 89.27 307.89 89.27 306.18"/>
        <polyline class="cls-2" points="89.34 309.67 89.2 313.44 88.98 318.43"/>
        <line class="cls-2" x1="88.98" y1="318.5" x2="88.98" y2="325.69"/>
        <line class="cls-2" x1="89.48" y1="351.97" x2="89.41" y2="352.9"/>
        <line class="cls-2" x1="190.89" y1="353.25" x2="190.89" y2="352.54"/>
        <polyline class="cls-2" points="423.14 347.7 423.14 352.39 423.14 355.53"/>
        <line class="cls-2" x1="77.94" y1="359.02" x2="77.94" y2="357.03"/>
        <line class="cls-2" x1="143.53" y1="361.02" x2="143.53" y2="359.02"/>
        <line class="cls-2" x1="77.94" y1="363.08" x2="77.94" y2="361.02"/>
        <line class="cls-2" x1="143.53" y1="365.08" x2="143.53" y2="363.08"/>
        <line class="cls-2" x1="44.26" y1="194.08" x2="46.32" y2="194.08"/>
        <line class="cls-2" x1="44.26" y1="306.75" x2="46.32" y2="306.75"/>
        <line class="cls-2" x1="46.32" y1="232.75" x2="48.32" y2="232.75"/>
        <line class="cls-2" x1="369.29" y1="355.53" x2="316.81" y2="355.53"/>
        <line class="cls-2" x1="454.76" y1="366.29" x2="454.76" y2="364.29"/>
        <line class="cls-2" x1="411.03" y1="364.29" x2="411.03" y2="362.23"/>
        <line class="cls-2" x1="363.88" y1="364.29" x2="363.88" y2="362.23"/>
        <line class="cls-2" x1="320.15" y1="366.29" x2="320.15" y2="364.29"/>
        <line class="cls-2" x1="454.76" y1="362.23" x2="454.76" y2="360.23"/>
        <line class="cls-2" x1="411.03" y1="360.23" x2="411.03" y2="358.24"/>
        <line class="cls-2" x1="363.88" y1="360.23" x2="363.88" y2="358.24"/>
        <line class="cls-2" x1="320.15" y1="362.23" x2="320.15" y2="360.23"/>
        <line class="cls-2" x1="40.27" y1="194.08" x2="42.26" y2="194.08"/>
        <line class="cls-2" x1="40.27" y1="306.75" x2="42.26" y2="306.75"/>
        <line class="cls-2" x1="42.26" y1="232.75" x2="44.26" y2="232.75"/>
        <line class="cls-2" x1="51.02" y1="190.66" x2="51.02" y2="281.54"/>
        <line class="cls-2" x1="215.89" y1="355.53" x2="212.47" y2="355.53"/>
        <line class="cls-2" x1="447.99" y1="234.39" x2="454.04" y2="234.39"/>
        <line class="cls-2" x1="421.14" y1="93.1" x2="421.14" y2="106.56"/>
        <line class="cls-2" x1="508.6" y1="355.53" x2="501.83" y2="355.53"/>
        <line class="cls-2" x1="140.19" y1="357.03" x2="140.19" y2="359.02"/>
        <line class="cls-2" x1="205.78" y1="359.02" x2="205.78" y2="361.02"/>
        <line class="cls-2" x1="140.19" y1="361.02" x2="140.19" y2="363.08"/>
        <line class="cls-2" x1="205.78" y1="363.08" x2="205.78" y2="365.08"/>
        <line class="cls-2" x1="46.32" y1="229.41" x2="44.26" y2="229.41"/>
        <line class="cls-2" x1="46.32" y1="342.07" x2="44.26" y2="342.07"/>
        <line class="cls-2" x1="48.32" y1="303.4" x2="46.32" y2="303.4"/>
        <line class="cls-2" x1="495.14" y1="364.29" x2="495.14" y2="366.29"/>
        <line class="cls-2" x1="451.41" y1="362.23" x2="451.41" y2="364.29"/>
        <line class="cls-2" x1="404.26" y1="364.29" x2="404.26" y2="362.23"/>
        <line class="cls-2" x1="360.54" y1="366.29" x2="360.54" y2="364.29"/>
        <line class="cls-2" x1="495.14" y1="360.23" x2="495.14" y2="362.23"/>
        <line class="cls-2" x1="451.41" y1="358.24" x2="451.41" y2="360.23"/>
        <line class="cls-2" x1="404.26" y1="360.23" x2="404.26" y2="358.24"/>
        <line class="cls-2" x1="360.54" y1="362.23" x2="360.54" y2="360.23"/>
        <line class="cls-2" x1="360.54" y1="160.4" x2="360.54" y2="140.24"/>
        <line class="cls-2" x1="42.26" y1="229.41" x2="40.27" y2="229.41"/>
        <line class="cls-2" x1="42.26" y1="342.07" x2="40.27" y2="342.07"/>
        <line class="cls-2" x1="44.26" y1="303.4" x2="42.26" y2="303.4"/>
        <line class="cls-2" x1="459.46" y1="210.89" x2="447.99" y2="210.89"/>
        <line class="cls-2" x1="363.88" y1="93.1" x2="363.88" y2="81.7"/>
        <line class="cls-2" x1="89.69" y1="283.6" x2="89.69" y2="283.96"/>
        <line class="cls-2" x1="89.77" y1="286.31" x2="89.77" y2="286.67"/>
        <line class="cls-2" x1="89.55" y1="351.54" x2="89.48" y2="351.97"/>
        <polyline class="cls-2" points="89.55 353.47 89.62 353.61 89.69 353.97"/>
        <polyline class="cls-2" points="369.3 326.62 369.3 314.59 369.3 312.23"/>
        <polyline class="cls-2" points="369.3 284.6 369.3 279.63 369.3 274.77"/>
        <line class="cls-2" x1="127.94" y1="355.53" x2="137.91" y2="355.53"/>
        <polyline class="cls-2" points="498.48 355.53 454.76 355.53 423.14 355.53"/>
        <line class="cls-2" x1="51.02" y1="283.03" x2="51.02" y2="288.16"/>
        <line class="cls-2" x1="51.02" y1="354.04" x2="51.02" y2="348.91"/>
        <line class="cls-2" x1="522.06" y1="355.53" x2="508.6" y2="355.53"/>
        <line class="cls-2" x1="209.13" y1="355.53" x2="209.13" y2="359.02"/>
        <line class="cls-2" x1="209.13" y1="365.08" x2="209.13" y2="368.99"/>
        <line class="cls-2" x1="498.48" y1="355.53" x2="498.48" y2="360.23"/>
        <line class="cls-2" x1="498.48" y1="366.29" x2="498.48" y2="368.99"/>
        <polyline class="cls-2" points="360.54 140.24 360.54 136.82 360.54 106.56"/>
        <line class="cls-2" x1="51.02" y1="345.42" x2="46.32" y2="345.42"/>
        <line class="cls-2" x1="40.27" y1="345.42" x2="37.56" y2="345.42"/>
        <line class="cls-2" x1="89.69" y1="283.18" x2="89.69" y2="283.6"/>
        <polyline class="cls-2" points="89.69 284.6 89.69 285.1 89.77 286.31"/>
        <polyline class="cls-2" points="89.98 346.35 89.62 350.33 89.55 351.54"/>
        <polyline class="cls-2" points="89.41 352.9 89.48 353.04 89.55 353.47"/>
        <polyline class="cls-2" points="89.69 353.97 89.69 354.04 89.77 354.32"/>
        <polyline class="cls-2" points="369.29 355.53 369.29 353.54 369.29 326.62"/>
        <line class="cls-2" x1="369.29" y1="312.23" x2="369.29" y2="284.6"/>
        <polyline class="cls-2" points="423.14 311.95 423.14 314.59 423.14 317.43 423.14 347.7"/>
        <line class="cls-2" x1="137.91" y1="355.53" x2="141.4" y2="355.53"/>
        <polyline class="cls-2" points="503.75 234.39 508.6 234.39 522.06 234.39"/>
        <line class="cls-2" x1="209.13" y1="361.02" x2="209.13" y2="363.08"/>
        <line class="cls-2" x1="498.48" y1="362.23" x2="498.48" y2="364.29"/>
        <line class="cls-2" x1="44.26" y1="345.42" x2="42.26" y2="345.42"/>
        <line class="cls-2" x1="89.69" y1="283.03" x2="89.69" y2="283.18"/>
        <polyline class="cls-2" points="423.14 274.77 423.14 279.63 423.14 284.24"/>
        <line class="cls-2" x1="120.75" y1="355.53" x2="123.02" y2="355.53"/>
        <line class="cls-2" x1="141.4" y1="355.53" x2="161.69" y2="355.53"/>
        <line class="cls-2" x1="89.69" y1="282.61" x2="89.69" y2="283.03"/>
        <line class="cls-2" x1="423.14" y1="284.24" x2="423.14" y2="311.95"/>
        <line class="cls-2" x1="90.48" y1="355.53" x2="92.12" y2="355.53"/>
        <line class="cls-2" x1="123.02" y1="355.53" x2="127.37" y2="355.53"/>
        <line class="cls-2" x1="192.32" y1="355.53" x2="209.13" y2="355.53"/>
        <line class="cls-2" x1="89.84" y1="355.53" x2="90.48" y2="355.53"/>
        <line class="cls-2" x1="127.37" y1="355.53" x2="127.94" y2="355.53"/>
        <line class="cls-2" x1="190.54" y1="355.53" x2="190.89" y2="355.53"/>
        <line class="cls-2" x1="104.22" y1="355.53" x2="109.21" y2="355.53"/>
        <line class="cls-2" x1="190.25" y1="355.53" x2="190.54" y2="355.53"/>
        <line class="cls-2" x1="100.09" y1="355.53" x2="104.22" y2="355.53"/>
        <line class="cls-2" x1="116.97" y1="355.53" x2="120.75" y2="355.53"/>
        <line class="cls-2" x1="190.11" y1="355.53" x2="190.25" y2="355.53"/>
        <line class="cls-2" x1="92.12" y1="355.53" x2="100.09" y2="355.53"/>
        <line class="cls-2" x1="109.21" y1="355.53" x2="116.97" y2="355.53"/>
        <line class="cls-2" x1="190.04" y1="355.53" x2="190.11" y2="355.53"/>
        <line class="cls-2" x1="189.04" y1="355.53" x2="190.04" y2="355.53"/>
        <line class="cls-2" x1="188.97" y1="355.53" x2="189.04" y2="355.53"/>
        <line class="cls-2" x1="188.47" y1="355.53" x2="188.97" y2="355.53"/>
        <line class="cls-2" x1="171.1" y1="355.53" x2="183.06" y2="355.53"/>
        <line class="cls-2" x1="183.13" y1="355.53" x2="188.47" y2="355.53"/>
        <line class="cls-2" x1="169.67" y1="355.53" x2="171.1" y2="355.53"/>
        <polyline class="cls-2" points="161.69 355.53 161.7 355.53 168.82 355.53"/>
        <line class="cls-2" x1="294.94" y1="281.32" x2="294.94" y2="243.65"/>
        <line class="cls-2" x1="294.94" y1="283.67" x2="297.29" y2="283.67"/>
        <line class="cls-2" x1="294.94" y1="281.32" x2="297.29" y2="281.32"/>
        <line class="cls-2" x1="291.88" y1="239.45" x2="285.47" y2="239.45"/>
        <line class="cls-2" x1="294.94" y1="239.45" x2="292.66" y2="239.45"/>
        <line class="cls-2" x1="215.89" y1="355.53" x2="215.89" y2="274.77"/>
        <line class="cls-2" x1="427.84" y1="137.89" x2="427.84" y2="162.75"/>
        <polyline class="cls-2" points="52.45 283.03 54.87 283.03 56.44 283.03"/>
        <line class="cls-2" x1="192.32" y1="354.04" x2="192.32" y2="283.03"/>
        <line class="cls-2" x1="52.45" y1="354.04" x2="56.44" y2="354.04"/>
        <line class="cls-2" x1="190.89" y1="280.9" x2="190.89" y2="281.18"/>
        <polyline class="cls-2" points="190.89 281.61 190.89 282.96 190.89 283.03"/>
        <line class="cls-2" x1="190.89" y1="355.32" x2="190.89" y2="355.53"/>
        <line class="cls-2" x1="190.89" y1="352.33" x2="190.89" y2="352.54"/>
        <line class="cls-2" x1="190.89" y1="349.12" x2="190.89" y2="351.47"/>
        <line class="cls-2" x1="508.6" y1="355.53" x2="508.6" y2="234.39"/>
        <polyline class="cls-2" points="275.07 326.62 275.07 286.24 248.15 286.24"/>
        <polyline class="cls-2" points="248.15 326.62 248.15 353.54 288.53 353.54"/>
        <line class="cls-2" x1="328.91" y1="353.54" x2="288.53" y2="353.54"/>
        <line class="cls-2" x1="369.29" y1="353.54" x2="328.91" y2="353.54"/>
        <line class="cls-2" x1="360.53" y1="106.56" x2="340.38" y2="106.56"/>
        <line class="cls-2" x1="340.38" y1="160.4" x2="360.53" y2="160.4"/>
        <line class="cls-2" x1="292.66" y1="239.45" x2="291.88" y2="239.45"/>
        <line class="cls-2" x1="192.32" y1="355.53" x2="190.89" y2="355.53"/>
        <line class="cls-2" x1="183.13" y1="355.53" x2="183.06" y2="355.53"/>
        <line class="cls-2" x1="169.67" y1="355.53" x2="168.82" y2="355.53"/>
        <polyline class="cls-2" points="89.84 355.53 74.52 355.53 71.18 355.53 51.02 355.53"/>
        <line class="cls-2" x1="192.32" y1="281.54" x2="192.32" y2="283.03"/>
        <line class="cls-2" x1="192.32" y1="354.04" x2="192.32" y2="355.53"/>
        <line class="cls-2" x1="51.02" y1="281.54" x2="89.76" y2="281.54"/>
        <line class="cls-2" x1="190.89" y1="281.54" x2="192.32" y2="281.54"/>
        <line class="cls-2" x1="51.02" y1="355.53" x2="51.02" y2="354.04"/>
        <line class="cls-2" x1="51.02" y1="283.03" x2="51.02" y2="281.54"/>
        <line class="cls-2" x1="175.51" y1="204.12" x2="175.51" y2="191.93"/>
        <line class="cls-2" x1="175.51" y1="190.74" x2="175.51" y2="175.85"/>
        <polyline class="cls-2" points="175.51 173.86 175.51 163.74 108.21 163.74"/>
        <polyline class="cls-2" points="108.21 204.12 122.93 204.12 130.43 204.12 156.6 204.12 164.9 204.12"/>
        <polyline class="cls-2" points="164.9 204.12 165.26 204.12 175.51 204.12"/>
        <polyline class="cls-2" points="248.15 286.24 248.15 286.59 248.15 286.88 248.15 326.62"/>
        <polyline class="cls-2" points="288.53 326.62 288.18 326.62 287.89 326.62 275.07 326.62"/>
        <polyline class="cls-2" points="288.53 326.62 328.27 326.62 328.56 326.62 328.91 326.62"/>
        <polyline class="cls-2" points="328.91 326.62 368.65 326.62 368.94 326.62 369.29 326.62"/>
        <path class="cls-2" d="M175.51,173.86l.04,1.99.03,1.21c1.75,29.16,24.75,52.17,53.91,53.91l3.21.07"/>
        <polygon class="cls-2" points="505.13 208.82 505.25 208.82 505.25 210.89 505.18 210.89 461.45 210.89 461.45 208.82 505.13 208.82"/>
        <path class="cls-2" d="M505.18,210.89l-.05-2.07-.02-.78c-1.61-22.08-18.73-39.2-40.81-40.81l-2.85-.07"/>
        <polygon class="cls-2" points="365.95 79.64 365.95 25.92 365.95 25.87 363.88 25.87 363.88 79.64 365.95 79.64"/>
        <path class="cls-2" d="M417.58,81.63l.05-1.99.02-1.07c-.65-28.2-22.57-50.92-50.71-52.63l-.99-.02-2.07-.05"/>
        <rect class="cls-2" x="249.22" y="163.96" width="111.24" height="18.02"/>
        <path class="cls-2" d="M369.12,314.59h-11.84c-3.12,0-5.65-2.53-5.65-5.65v-23.66c0-3.12,2.53-5.65,5.65-5.65h11.68"/>
        <path class="cls-2" d="M423.14,279.63h11.83c3.12,0,5.65,2.53,5.65,5.65v23.66c0,3.12-2.53,5.65-5.65,5.65h-11.67"/>
        <path class="cls-2" d="M423.14,317.43h11.83c3.12,0,5.65,2.53,5.65,5.65v23.66c0,3.12-2.53,5.65-5.65,5.65h-11.67"/>
        <path class="cls-2" d="M156.6,204.12v10.66c0,6.02-4.88,10.9-10.9,10.9h-11.86c-6.02,0-10.91-4.88-10.91-10.9v-10.66"/>
      </g>
    </g>
    <g>
      <path class="cls-2" d="M121.19,172.37c0,.95.77,1.73,1.73,1.73h11.36c.95,0,1.73-.77,1.73-1.73v-2.61h-14.81v2.61Z"/>
      <path class="cls-2" d="M136.01,167.39c0-.95-.77-1.73-1.73-1.73h-11.36c-.95,0-1.73.77-1.73,1.73v1.43h14.81v-1.43Z"/>
      <polyline class="cls-2" points="121.19 168.82 109.85 168.82 109.85 169.76 121.19 169.76"/>
      <polyline class="cls-2" points="136.01 169.76 147.15 169.76 147.15 168.82 136.01 168.82"/>
    </g>
    <path class="cls-2" d="M126.16,167.52h4.75v.2c0,.61-.49,1.1-1.1,1.1h-2.55c-.61,0-1.1-.49-1.1-1.1v-.2h0Z"/>
    <g>
      <path class="cls-2" d="M155.66,180.16c-.58.76-.43,1.84.33,2.42l9.05,6.86c.76.58,1.84.43,2.42-.33l1.58-2.08-11.81-8.95-1.58,2.08Z"/>
      <path class="cls-2" d="M170.48,185.13c.58-.76.43-1.84-.33-2.42l-9.05-6.86c-.76-.58-1.84-.43-2.42.33l-.87,1.14,11.81,8.95.87-1.14Z"/>
      <polyline class="cls-2" points="157.81 177.33 148.77 170.48 148.2 171.23 157.24 178.08"/>
      <rect class="cls-2" x="173.3" y="184.44" width=".94" height="11.15" transform="translate(-82.62 213.75) rotate(-52.85)"/>
    </g>
    <path class="cls-2" d="M161.68,180.59h4.75v.2c0,.61-.49,1.1-1.1,1.1h-2.55c-.61,0-1.1-.49-1.1-1.1v-.2h0Z" transform="translate(142.75 -62.29) rotate(37.15)"/>
  </g>
</svg>