<?xml version="1.0" encoding="UTF-8"?>
<svg id="Contours" xmlns="http://www.w3.org/2000/svg" viewBox="0 0 1525.99 1124.51">
  <defs>
    <style>
      .cls-1 {
        stroke-width: 0px;
      }

      .cls-1, .cls-2 {
        fill: #3f3f3f;
      }

      .cls-2 {
        stroke: #3f3f3f;
        stroke-miterlimit: 10;
        stroke-width: 2.5px;
      }
    </style>
  </defs>
  <path class="cls-1" d="M1423.7,1124.51c4.8-8.9,10.1-17.6,14.7-26.7,2.9-5.9,4.7-12.4,7-18.6.8-2.2,1.4-4.6,2.4-6.8,1.2-2.7.3-4.2-2.2-5.4-7.9-3.7-15.5-8-23.5-11.3-6.7-2.8-13.9-4.4-20.8-6.8-17.4-5.9-34.9-11.6-51.7-19.2-13.6-6.1-27.6-11.3-41.4-16.8-3.8-1.5-7.7-2.9-11.5-4.5-2.5-1-4.3-.4-5,2.1-2.7,9-5,18.1-7.9,27.1-2.8,8.9-5,18.3-9.5,26.4-5.1,9.2-12.1,17.5-21.5,23-9.5,5.5-19.6,10.2-29.1,15.7-5.5,3.1-11.4,3.9-17.4,5-7.9,1.5-15.7,4-23.3,6.6-2.5.9-4.4,1-5.2-1.2-.4-1.2.8-4.1,1.9-4.6,4-1.9,8.4-3.1,12.6-4.4,9.9-3,20.6-2.6,30-7.8,10.8-6,22.5-10.6,32.2-18.4,2.3-1.8,3.9-4.5,6.1-6.6,10-9.7,13.2-22.6,16.9-35.4,2.5-8.8,5-17.7,7.9-26.4.8-2.5.3-3.5-1.9-4.3-1.2-.4-2.4-1-3.7-1.4-5.6-1.6-5.3-3.3-3.9-7.8,4.5-13.9,9.2-27.7,14.4-41.3,4.5-11.6,9.7-22.8,14.7-34.2,3.7-8.5,7.6-16.8,11.4-25.3,1.1-2.6,1.8-5.4,3.1-7.9.7-1.3,2.7-2.9,3.9-2.7,2.2.2,2.5,2.6,2,4.5-1,3.6-2.2,7.1-3.5,10.6-3.2,8.9-7.4,17.2-11.8,25.5-4.3,8-7.4,16.7-10.6,25.2-5.4,14.6-10.5,29.3-15.8,43.9-.8,2.3-.8,3.1,1.9,4,10.6,3.3,21.2,6.7,31.6,10.5,7.1,2.6,14,5.9,21,8.9,7,2.9,14,6,21.1,8.7,15.3,5.7,30.5,11.8,46.1,16.5,9.5,2.9,18.5,6.4,27.5,10.4,5.7,2.5,11.1,5.6,16.8,8,7,3,14.1,5.7,21.2,8.5,2.3.9,3-.6,3.5-2.4,2.8-8.6,6.1-17.1,8.3-25.9,2.5-10,7.2-18.7,12.5-27.3,2.9-4.6,5-9.7,7.4-14.6.2-.5.5-1,.7-1.5,1.1-2.3,2.9-3.9,5.4-2.7,2.7,1.3,1.9,3.8.7,5.9-5,9-10.6,17.7-14.8,27.1-3.6,7.9-5.6,16.5-8.3,24.8-2.2,6.7-4.4,13.5-6.6,20.2-.2.5-.4,1-.4,1.6-.4,3.3-2.4,4.4-5.6,3.2-5.1-2-10.2-3.9-15.1-6.1-2.7-1.2-3.9-.6-4.8,2.1-4.4,14.7-10.1,29-17.6,42.5-1.4,2.5-2.8,4.9-4.2,7.6-2.7.2-5.4.2-8.3.2Z"/>
  <path class="cls-1" d="M1525.9,888.01c0,6.6.2,12.8,0,19.1-.3,9.6-1,19.1-1.4,28.7-.5,13-1,26-1.4,38.9-.1,3.1-1.6,5.3-3.8,5.1-2-.2-4.7-3.7-3.9-6,2.6-7.6.8-15.4,1.3-23.1.6-9.2.9-18.4,1.4-27.7.2-3.3.5-6.6.7-9.9.3-5.7.8-11.3.7-17-.2-9.6-.8-19.1-1.4-28.7-.4-6.2-.7-12.3-1.4-18.5-.7-6-1.7-12-2.8-17.9-2.3-12.1-4.4-24.2-7.1-36.2-2-9-4.6-17.8-7.2-26.7-1.4-4.8-2.3-10-4.9-14.2-5.4-8.8-11.8-17.1-17.8-25.5-1.8-2.6-3.8-5.1-6-7.4-3.4-3.5-7.2-6.6-10.6-10-5.1-5.1-9.9-10.5-14.9-15.7-1.4-1.4-2.9-2.8-4.3-4.2-5.6-5.6-11-11.3-16.8-16.7-4.7-4.3-9.9-7.9-14.8-11.9-2.8-2.2-5.4-4.6-8.1-6.9-12.5-10.7-24.9-21.6-39.9-28.8-6.5-3.1-12.3-7.8-18.6-11.3-8.4-4.6-15.1-11.3-22.7-16.9-9.2-6.8-18.9-12.9-28.3-19.4-1.6-1.1-3.6-2.6-2-5,1.5-2.4,3.5-2.6,5.8-1,9.9,6.8,19.9,13.5,29.6,20.5,6,4.3,11.2,9.6,17.4,13.6,10.7,6.9,21.1,14.2,32.7,19.8,5.9,2.9,11,7.6,16.3,11.8,9.9,7.8,19.7,15.6,29.3,23.8,6.1,5.2,11.7,11,17.5,16.6,6.6,6.5,13.1,13.1,19.7,19.6,4.4,4.3,9.2,8.2,13.3,12.8,8.7,9.6,16.8,19.8,24.2,30.5,6.1,8.9,9.3,18.7,11.9,29,1.1,4.1,3.1,7.9,4.1,12,1.7,7.1,2.9,14.3,4.3,21.5,1.9,10.2,4.1,20.3,5.6,30.5,1.2,7.9,1.6,15.9,2.2,23.8.6,8.1.9,16.3,1.5,24.5,0,1.5.4,2.8.6,4.5Z"/>
  <path class="cls-2" d="M1018.9,351.41c.2,7.7.2,15,.8,22.3.7,8.7,1.4,17.4,2.9,26,1.3,7.8,3.3,15.5,5.4,23.2,2.4,9.1,4.6,18.3,8.1,27,3.6,9.1,7.2,18.2,13,26.4,4.3,6.2,6.3,13.9,10.2,20.4,4.8,8,10.2,15.7,16.2,22.9,5.2,6.3,11.1,12.2,17.4,17.4,6.4,5.3,13.4,10.1,20.6,14.2,7.4,4.3,15.2,8.3,23.2,11.2,10,3.5,20.4,6.2,30.7,8.4,5.9,1.2,12.1.6,18.1.9,1.8.1,3.6.7,5.4.6,19.4-.7,38.2-4.1,56.5-11.1,14.7-5.6,28-13.3,40.3-22.9,6.3-5,12.5-10.2,18-16,6.5-6.9,13.1-13.8,17.7-22.3,3.4-6.3,7.5-12.2,11.1-18.4,1-1.7,2.2-3.3,3.8-2.3.9.6,1.4,3.4.8,4.7-1.7,3.9-3.9,7.6-6.1,11.2-8.1,13.5-17.8,25.8-29.5,36.5-6.2,5.6-12.9,10.7-19.5,15.9-2.5,2-5.4,3.5-8,5.4-1.9,1.4-3.1,3.1-2.9,5.9.4,4,.1,8,.1,12,0,2.2-.7,3.5-3.1,3.6-2.5.1-3-1.7-3.2-3.5-.2-2.8,0-5.6-.1-8.5,0-3-.9-3.5-3.8-2.3-5.3,2.3-10.5,4.9-15.9,6.7-7.8,2.6-15.7,4.8-23.7,6.8-13.4,3.4-27.2,4-40.9,3.4-8-.4-16.1-1.9-24-3.4-7.3-1.4-14.7-3-21.7-5.6-7.8-2.9-15.3-6.9-22.8-10.6-8.1-4-15.5-9.3-22.3-15.2-3.4-3-7.3-5.4-10.5-8.6-4.2-4.1-8.2-8.4-11.7-13.1-5.1-6.9-10.2-14.1-14.4-21.5-4.1-7.3-7.3-15.1-10.9-22.7-2.3-4.9-5-9.7-6.9-14.8-4.4-11.8-8.9-23.7-12.5-35.7-2.8-9.4-4.6-19.1-6.4-28.8-1-5.2-1-10.7-1.5-16-.5-5-1.3-10-1.3-14.9,0-9,.4-18,.6-27,.1-3,.3-5.9.7-8.9,1.1-8.9,2.2-17.9,3.6-26.8.8-5.3,2.2-10.6,3.6-15.8.2-.8,1.5-1.4,2.3-2.1.2,1,.8,2,.6,2.9-1.2,7-2.6,14-3.8,21-1.3,7.8-2.6,15.7-3.5,23.6-.5,4.5,0,9-.1,13.5,0,1.6-.4,3-.7,4.8Z"/>
  <path class="cls-1" d="M995.1,659.41c-9.8,5.6-19.5,11-29.1,16.4-6.6,3.7-13.3,7.1-19.8,11-7.5,4.6-14.9,9.7-22.2,14.7-14.1,9.7-21.8,24.5-30.8,38.3-6.4,9.8-13,19.5-19.2,29.5-6.6,10.6-12.6,21.6-19.1,32.3-4,6.6-8.6,12.9-12.9,19.3-1.2,1.8-2.9,2.1-4.8.8-2.1-1.4-.9-2.9-.1-4.4,4.9-8.2,9.7-16.4,14.7-24.6,6.4-10.5,12.9-21,19.5-31.5,6.8-10.7,13.9-21.3,20.7-32,5.8-9.2,11.5-18.4,19.5-25.8,8.2-7.6,17-14.3,26.8-19.7,17.6-9.8,35.1-19.7,52.7-29.5,10.9-6,21.8-12.1,32.8-17.9,12.6-6.7,25.3-13.3,38.1-19.7,10.9-5.5,21.8-10.9,32.9-16,12-5.6,24.8-9,37.7-12.1,5.8-1.4,11.6-2.1,17.5-2.1,2.6,0,4.4,1.1,4.5,3.6.1,2.8-2.1,2.8-4.2,2.8-9.8-.1-19,3-28.4,5.5-15.2,4-29.4,10.1-43.4,17.1-11.9,5.9-23.8,11.9-35.6,18.1-13.3,7-26.6,14.3-39.8,21.4-2.7,1.5-5.2,2.9-8,4.5Z"/>
  <path class="cls-1" d="M849.5,838.61c-5.2,8.3-10.3,16.4-15.6,24.3-3.6,5.4-7.7,10.5-11.4,15.8-6.1,8.8-12.1,17.9-18.3,26.7-3.3,4.6-6.9,9-10.5,13.3-5.7,7-11.5,13.8-17.2,20.8-5.3,6.4-10.7,12.7-15.7,19.3-5.7,7.6-11.5,15.1-16,23.4-3,5.5-4.2,12.2-5.4,18.5-1.1,5.7,1.9,10.5,5,15.2,6.7,10.2,16.7,16.7,26.1,23.8,11.4,8.6,23,17,34.9,24.9,12.2,8.2,23.3,17.5,33.7,27.9,7.8,7.9,17.9,12.3,28.6,15.3,1.4.4,3,.6,3.9,1.5,1.1,1,2.6,3,2.3,3.9-.6,1.8-2.6,3.1-4.9,2.3-3.7-1.2-7.4-2.6-11.1-3.9-11.1-4.1-20.8-10.5-28.7-19.5-7.3-8.3-16.5-14.1-25.4-20.4-12.5-8.8-24.8-17.9-37.3-26.8-8.2-5.9-16.2-11.9-23-19.5-4.5-5.1-8.8-10.4-10.1-17.3-.7-3.6-.7-7.5-.3-11.1.9-7.8,3.7-15.1,7.7-21.8,3-4.8,6.4-9.4,9.9-13.9,6.1-7.9,12.2-15.7,18.5-23.4,10.9-13.6,22.2-27,32.8-40.8,6-7.8,11-16.4,16.5-24.6,8.3-12.4,16.5-24.7,24.8-37,.4-.6,1-1,1.5-1.5,1.5-1.8,3.2-2.4,5-.8,2,1.5,1.5,3.4-.3,5.4Z"/>
  <path class="cls-1" d="M889.7,967.11c10.7,5.2,21.1,10.3,31.4,15.5,7.5,3.8,14.9,7.8,22.3,11.7,6.3,3.3,12.7,6.4,18.9,9.8,11.9,6.6,23.6,13.5,35.5,19.9,9.9,5.3,20.2,9.8,30,15.2,15.3,8.4,30.4,17,45.4,25.8,14.1,8.2,27.9,16.8,41.9,24.9,12.2,7.1,24.6,13.8,37,20.7,1.4.8,3.2,1.1,4.4,2,1.4,1,3.3,2.6,3.3,3.9,0,2.6-2.7,2.9-4.5,2.3-4.2-1.5-8.3-3.2-12.3-5.3-8.4-4.4-16.8-9-25-13.7-8.5-4.9-16.8-10.1-25.1-15.2-10.9-6.6-21.7-13.5-32.7-19.9-11.1-6.5-22.4-12.9-33.8-18.9-10.3-5.4-21-10.2-31.4-15.3-3.8-1.9-7.5-4.1-11.2-6.2-8.2-4.7-16.3-9.5-24.6-14-8.9-4.9-17.9-9.6-27-14.1-8.9-4.4-17.9-8.4-26.8-12.8-4.7-2.3-9.2-5.1-13.8-7.7-10.9-6.1-21.7-12.3-32.7-18.2-2.8-1.5-6.3-1.9-9.3-3.1-1.5-.6-2.6-2.1-3.9-3.2,1.3-1,2.6-2.8,4-3,5.5-.8,10,2.1,14.5,4.8,8.5,4.7,16.9,9.4,25.5,14.1Z"/>
  <path class="cls-1" d="M1257.4,656.21c-12.8,7.4-26.4,12.7-40.4,16.2-8.3,2-16.9,2.1-25.6.5-7.2-1.4-14.4-2.5-20.9-5.9-6.6-3.6-13-7.5-19-12-7.6-5.6-13.8-12.7-19.2-20.5-.7-1-1.7-2.1-1.6-3.1.1-1.6,1-3.1,1.6-4.6,1.3.6,3,.8,3.8,1.8,4.1,4.7,7.4,10.1,11.9,14.4,8.2,7.9,17,15.2,28,19,5.5,1.9,11.2,3.2,16.9,4.2,4.2.7,8.5.7,12.7.8,8.7.2,16.7-3.1,24.8-5.8,13.3-4.4,25.7-10.8,36-20.4,10.9-10.2,21.5-20.8,32.1-31.4,1.5-1.5,2.1-4.1,5.1-3.9,3.2.2,4.3,1.8,2.7,4.7-.4.7-.8,1.4-1.3,1.9-8.9,9.1-17.5,18.6-26.8,27.3-6.4,6.1-13.7,11.2-20.8,16.8Z"/>
  <path class="cls-1" d="M867.3,829.91c10.3,9.6,20,19.4,30.6,28.2,8.2,6.7,17.7,11.8,26.4,18,5.6,4,10.8,8.5,16.2,12.9,3.1,2.5,6.3,5,9.1,7.8,1,1,1.7,3.1,1.5,4.6-.7,7.3-1.6,14.5-2.8,21.8-1.2,7.2-3,14.4-4,21.6-1.1,8.8-1.9,17.7.6,26.5.6,2,.9,4.4.4,6.4-.3,1.4-2.2,2.4-3.4,3.5-1.2-1.3-3.2-2.6-3.3-4-.8-9.2-1.6-18.4-1.4-27.6.1-6.4,1.9-12.8,3-19.2.8-5.2,1.7-10.4,2.5-15.5.6-3.8,1.1-7.6,1.3-11.4.1-1.3-.6-3.1-1.5-3.9-6-5.2-12.1-10.4-18.5-15-8-5.8-16.5-10.9-24.4-16.8-5.7-4.2-10.8-9.3-16.2-13.9-4.2-3.6-7.8-7.4-10.2-12.6-1.3-2.7-5.3-4.2-8.1-6.2-1.6-1.1-3.7-1.8-4.9-3.3-1.9-2.3-3.1-5.1-4.9-7.4-1.5-1.9-.8-3,.5-4.4,1.6-1.9,3.3-1.1,4.3.1,2.3,2.8,4.3,6,6.4,9,.1.2.4.4.8.8Z"/>
  <path class="cls-2" d="M1429,250.21c.9-13.3,1.5-26.4,2.3-39.5.6-9.5-.2-18.8-2.5-28-.6-2.6-1.8-5.1-2.7-7.7-.3-.8-.5-1.8-.4-2.6s.6-1.6,1-2.4c.7.4,1.7.6,1.9,1.2,1.7,4.2,3.9,8.4,4.7,12.8,1.4,8.2,2,16.6,3,24.9.1.7.2,1.5,0,2.1-1.9,4.1-.2,8.4-.7,12.5-1.1,10.3-2.2,20.7-3.5,31-1,7.9-2,15.8-3.6,23.6-1.2,6.2-3.2,12.3-4.9,18.4-2.1,8.1-4,16.2-6.4,24.2-3.7,12.4-7.8,24.8-11.7,37.1-3.8,11.8-7.5,23.7-11.6,35.4-2.8,8-5.8,16-9.5,23.6-3.5,7.3-7.7,14.3-11.9,21.2-3.4,5.7-7.3,11.1-11,16.6-1,1.5-2.4,2.9-4.1,1.4-.6-.5-.3-2.7.3-3.7,5.8-9.3,12.1-18.2,17.5-27.7,4.3-7.5,7.7-15.6,11-23.6,3.5-8.4,6.4-17.1,9.5-25.7,1.6-4.5,3.2-9.1,4.6-13.6,2.9-9.5,5.7-19.1,8.5-28.6,2.1-7.1,4.2-14.3,6.4-21.4,2.3-7.6,5-15.1,6.9-22.9,1.5-6.1,1.9-12.4,3-18.6.6-3.8,1.6-7.6,2.3-11.4.5-2.7.9-5.5,1.6-8.6Z"/>
  <path class="cls-1" d="M1167,631.21c6,2.6,12,3.6,18.3,4.1,13.1,1,25-2.7,36.3-8.6,10.2-5.4,20.4-10.9,28.7-19.2,6.3-6.3,10.5-13.9,13.5-22.3,1.3-3.6,3.7-5.3,5.6-3.5,1.1,1.1,1.9,3.7,1.4,5-4,10.1-8.9,19.8-17.1,27.1-7.1,6.3-15,11.7-23.7,15.8-9.2,4.3-17.8,10.1-28.1,11.4-5.2.7-10.5.8-15.8.5-5.7-.3-11.6-.6-17.1-2.2-10.6-3-19.3-10.4-18.1-23.6.3-3.5,1.5-7.1,2.8-10.4.5-1.4,3.2-3.3,3.7-3,1.9,1.1,3.6,2.7,2.2,5.7-1.1,2.3-1.1,5.2-1.7,7.7-1.6,6.5,1.4,10.9,6.4,14.3.9.5,1.8.7,2.7,1.2Z"/>
  <path class="cls-2" d="M1300.5,361.81c6.2-9.6,14.2-16.7,24.1-22.1,8.8-4.8,18-7.3,28-6.6,9.1.6,16.7,4.6,22.3,12,4.5,5.9,6,12.6,6.5,20,.7,10.9-2.8,20.3-8,29.4-7.6,13.1-18.5,22.5-32.6,28.3-7.2,3-14.6,3.7-22.2,3.5-2.1-.1-3.5-.1-2.6,3,2.7,9.6,7.7,18.1,13.1,26.3,3.4,5.3,6.6,11,13.7,12.5.6.1.9,1.3,1.4,1.9-1,.5-2,1.4-2.9,1.3-4.8-.4-8.1-3.7-10.7-7.2-4.1-5.5-8.4-11-11.3-17.2-3.1-6.5-7-12.9-8.2-20.3-.2-1.5-2.7-2.7-4.2-3.9-1.7-1.3-3.5-2.4-5.2-3.6-.5-.4-.7-1.1-1-1.7.7-.4,1.5-1.1,2-1,1.6.4,3.2,1,4.5,1.9,6.2,4.5,13.4,5,20.4,4.2,9.3-1,17.9-4.9,25.1-10.6,5.6-4.5,10.3-10.2,14.9-15.7,5.4-6.5,8.6-14.5,9.8-22.7,1.5-10.1.4-20.3-7.1-28.3-4.2-4.5-9.7-6.8-15.7-8-10.6-2.1-20.1,1.3-29.1,6.1-9.5,5.1-16.7,13-23,21.6-2.7,3.7-4.1,8.4-6.1,12.6-.4.8-1.1,1.4-1.7,2.1-.6-1.1-1.9-2.6-1.6-3.3,2.3-4.9,4.8-9.6,7.4-14.5Z"/>
  <path class="cls-2" d="M1023,95.21c-2.9-1.3-5.6-2.5-8.4-3.3-1.3-.4-3.2-.4-4.1.3-.6.4-.5,2.7.1,3.8,3.6,7.3,7.5,14.5,12.8,20.8,5.3,6.4,11.2,11.8,18.6,15.6,6.7,3.4,13.5,5.7,21.3,3.7,2-.5,4.4.6,6.6.9-1.8,1.1-3.5,3-5.3,3-6.6.2-13.3.9-19.6-1.9-7.3-3.3-14-7.5-19.5-13.2-7.9-8.2-14.1-17.7-18.4-28.3-3.9-9.6-5.8-19.6-4.9-30.1.1-1.1.9-3,1.6-3.1,2.3-.3,1.8,1.7,1.9,3.1.2,4.6.4,9.2.7,13.8.3,5.1.8,5.3,5.9,7,6.1,2,12,4.6,18.1,6.6,5.4,1.8,10.9,3.7,16.4,4.5,5.7.8,11.3-1.4,16.1-4.2,4.2-2.4,7.7-6,11.5-9,1.3-1,1.4-1.8,0-3-3.2-2.8-6.6-5.5-9.3-8.7-4.1-5-7.7-10.4-11.4-15.7-1.2-1.8-2.3-3.8-3-5.8-.4-1,.3-2.4.5-3.6.9.6,2.1,1.1,2.6,2,5.2,9.9,11.6,18.8,20,26.3,4,3.6,8.2,6.5,13.9,5.6,1.3-.2,2.6-.1,3.9,0,.6.1,1.1.7,1.6,1.1-.5.6-.9,1.5-1.4,1.6-2.7.4-5.4.7-8.2.7-3,0-5.1.6-7.6,3.1-6.1,6.2-13.3,10.8-22.2,12.6-8,1.5-15.3-.5-22.5-3.1-2.9-.9-5.5-1.9-8.3-3.1Z"/>
  <path class="cls-2" d="M1250,50.41c9.7,2,19.3,3.1,29,3.1s19,.1,28.3,1.5c8.5,1.3,16.7,4.5,25,6.8,16.1,4.6,30.4,12.8,43.2,23.3,8.7,7.1,16.4,15.4,21.7,25.5,2.3,4.4,3.9,9.2,5.7,13.9.4,1,.3,2.4,0,3.5-.2.7-1.1,1.4-1.8,1.5-.5.1-1.5-.8-1.6-1.3-1.2-7.7-4.5-14.8-8.9-21-4.3-5.9-9.4-11.5-14.9-16.3-6-5.3-12.8-9.8-19.5-14.2-7.8-5.1-16.4-8.7-25.3-11.4-6.6-2-13.1-4.1-19.8-6-2-.6-4.2-.9-6.3-1-5.2-.3-10.4-.6-15.6-.7-8.3-.3-16.6-.2-24.9-.8-14.1-.9-26.1-7.3-37.6-14.8-6.2-4-11.7-8.8-16.1-14.7-.6-.8-1-1.8-1.1-2.7-.1-.7.5-1.4.8-2.1.7.3,1.5.3,1.9.8,1.8,2.1,3.4,4.6,5.3,6.6,8.1,8.4,18.4,13.4,28.7,18.5,1.3.6,2.5,1.2,3.8,2Z"/>
  <path class="cls-2" d="M1259,288.51c-6-8.2-8.9-17.3-9.9-27-.2-2-1.1-2.1-3-1.5-8.1,2.4-16.1,5.1-24.7,5.1-1.1,0-2.2-.9-3.3-1.4,1.1-.7,2.1-1.8,3.3-1.9,13.3-1.2,26-5.4,38.1-10.4,12.2-5,23.6-11.9,35-18.6,5.9-3.4,11-8,16.5-12.1.5-.4,1.1-.9,1.7-1,1.2-.2,2.4-.1,3.6-.1-.5,1-.8,2.2-1.5,2.9-8.5,7.3-17.6,13.6-27.4,19-5.1,2.8-10.1,5.7-15.3,8.2-5.4,2.6-11,4.7-16.5,7-1.8.7-3.1,1.5-2.8,3.9.7,7.2,2.6,14.1,6.3,20.3,3.3,5.5,6.6,10.9,10,16.3,1,1.6,1.9,3.3,3.3,4.6,5.2,5,7.6,11.5,9.3,18,1.9,7.5,4,15.1,2.4,23.2-.8,4-.8,8.4,1.5,12.3.4.7.3,1.8.4,2.6.6,3.2,1.3,6.3,1.8,9.5.2,1.3-.2,2.7-.3,4.1-1-.9-2.7-1.5-3-2.6-2.4-7.9-5.9-15.6-5.6-24.2.1-4.4.4-8.7.7-13.1.4-6.7-2-12.6-4.4-18.7-2.9-7.6-9.8-12.2-13.1-19.3-1-1.4-2.1-3-3.1-5.1Z"/>
  <path class="cls-1" d="M1254.9,802.01c4.5-9.2,8.8-18.3,13.2-27.2,1.1-2.2,2.7-4.1,3.9-6.1,4.4-7.2,9.2-4.7,12.2,1,1.8,3.5,3.1,7.6,3.5,11.5.9,7.6,1.2,15.4,1.5,23,.1,2.7-.1,5.5-.8,8.1-.3,1.1-1.9,2-3,2.9-1.1-1.3-3.1-2.5-3.1-3.8-.2-4.5.2-9,.6-13.5.2-3-1.5-3.7-3.9-3.9-3.7-.3-7.3-.6-11-.6-.9,0-2.3.8-2.7,1.7-1.6,3.1-3.2,6.2-4.2,9.5-.9,2.6-1.8,5.1-5,4.2-3.2-.9-2.3-3.6-1.5-5.9.2-.2.2-.4.3-.9M1280.9,782.41c-.5-2.7-.8-5.5-1.5-8.2-.1-.4-2.1-.8-2.3-.6-1.7,2.4-3.3,4.9-4.6,7.5-.8,1.7-1,3.6-1.5,5.5,2.1.4,4.1.9,6.2,1,4.1.2,4.7-.6,3.7-5.2Z"/>
  <path class="cls-1" d="M1397.9,796.71c-6.1,4-12.2,7.7-18,11.7-9.9,6.9-16.6,16.8-23.5,26.5-3.7,5.2-7.2,10.5-11,15.5-.7.9-2.7,1.5-3.7,1.1-1.5-.6-2.3-2.1-1.1-4,2.5-3.9,4.9-7.9,7.3-11.8,5.8-9.3,12.2-18.2,20-25.9,7-6.9,14.8-12.8,23.6-17.2,7.2-3.6,14.7-6.6,22.2-9.4,2.5-.9,5.5-.6,8.3-.3.8.1,2.3,2.1,2.1,2.5-.8,1.4-2.1,3.5-3.3,3.6-8.3.4-15.3,4.5-22.9,7.7Z"/>
  <path class="cls-2" d="M1127.7,345.71c-1.8-7.8-2.8-15.2-.9-23,1-4,2.1-7.5,4.9-10.3,3.4-3.4,6.7-2.9,9.4,1.2,4.5,6.8,5.1,14.3,3.5,22-.9,4-1.9,8.1-3.6,11.9-2.1,4.7-8.7,5.7-11.9.5-.4-.7-1-1.3-1.4-2.3M1140,328.81c-.6,3-1.2,6-1.7,9.1-.1.6.6,1.4.9,2.1.4-.3.9-.6,1.2-1,1.7-2.1,1.9-7.8-.4-10.2Z"/>
  <path class="cls-2" d="M1103.8,33.81c12.2-3.5,24.4-5.2,36.9-5.1,6.6,0,13.4-.8,19.8.2,6.7,1,13.2,3.7,19.8,5.6,2.1.6,4.4,1.2,6.5,1.1.9,0,2.6-1.8,2.5-2.5-1.7-11,2.7-22.8,12.9-29.1,1.6-1,3.1-2.1,4.9-2.7.8-.3,2,.6,3.1.9-.5.8-.9,2-1.7,2.4-4.7,2.9-9.8,5.5-12.3,10.5-2.7,5.3-4.4,11-3,17.2,1.2,5.2-2.2,7.8-7.7,7-6.2-.9-11.8-3.4-17.7-5-6.1-1.6-12.2-2.9-18.6-2.3-4.4.4-8.8-.1-13.2.1-13.6.8-27.1,2.5-39.5,8.5-5.6,2.7-10.7,6.6-16,9.8-1,.6-2.4.8-3.6,1.2.5-1.3.5-3.1,1.5-3.8,7.7-5.7,15.7-11.3,25.4-14Z"/>
  <path class="cls-1" d="M945.3,878.31c-.2-3.2-.6-6.3-.2-9.2.9-6.6,2.1-13.2,3.2-19.8,1.7-10.3,3.3-20.7,5.3-31,1.5-7.7,3.4-15.3,5.4-22.8.6-2.2.7-5.1,4.3-4.9,2.6.2,3.6,1.7,3,4.3-2.8,11.7-5.7,23.4-8.1,35.1-1.8,9-2.9,18.1-4.3,27.2-1,6.2-1.9,12.4-2.8,18.6-.5,3.2-2.9,4.4-5.8,2.5Z"/>
  <path class="cls-1" d="M1298,809.51c-.2,2.6-.2,5.2-1,7.5-.4,1.1-2.4,2.6-3.3,2.4-1.9-.4-3.1-2-3-4.4.6-9.3,1-18.6,1.4-28,.1-2.1-.6-4.3-.6-6.4-.1-3.2,1.9-5.3,5.1-5.6,3.9-.4,7.8-1.3,11.8-1.2,2.1,0,4.6,1,6.3,2.4,2.6,2,2.1,6.3-1.3,9.7-3.7,3.7-7.9,7-11.8,10.5-1.7,1.5-3.5,2.9-3.1,5.8.2,2.3-.4,4.7-.5,7.3M1305.6,784.61c.9-.7,1.9-1.2,2.6-2,.3-.3.2-1.5,0-1.6-1.5-1-8.1-.2-8.6,1.4-.7,2.4-.5,5-.8,7.5.7,0,1.8.3,2.1,0,1.6-1.6,2.9-3.3,4.7-5.3Z"/>
  <path class="cls-2" d="M1059.2,318.21c1,8-.4,15.5-2.3,22.8-.7,3-2.7,5.8-4.6,8.3-2,2.6-4.9,1.9-6.4-.9-1.8-3.4-2.1-6.9-2.3-10.7-.6-8,.7-15.7,3-23.3.6-1.8,1.6-3.8,3-5,1.2-1.1,3.8-2.1,4.7-1.5,1.8,1.2,3.1,3.4,4.1,5.4.7,1.3.5,3,.8,4.9M1047.2,326.31c.4.8.8,1.6,1.3,2.5.5-.8,1.1-1.7,1.5-2.5.2-.4.1-.9,0-1.4-.2-1.1-.6-2.1-.9-3.1-.4.9-.8,1.9-1.2,2.8-.2.3-.5.6-.7,1.7M1050.7,314.31c.3,1.4.9,2.7,2.4,1,.6-.7.4-2,.6-3.1-1,.5-2,1-3,2.1Z"/>
  <path class="cls-2" d="M1017.5,232.71c-.5,6.9-1.3,13.5-1.3,20,0,5.5.6,11,1.4,16.5.7,4.8,2,9.6,2.7,14.4.2,1.2-.9,2.6-1.4,4-.8-.9-2.1-1.6-2.4-2.7-1.2-4.5-2.6-9-3-13.5-.7-6.1-.9-12.3-.7-18.4.2-8.4.5-16.8,1.4-25.2,1.2-10.4,3.5-20.7,4.7-31.2.7-6.4,2.5-13.1-1.3-19.3-2.3-3.7-4.6-7.4-7.3-10.7-2.3-2.8-5.1-5.2-7.6-7.8-.5-.6-.6-1.6-.8-2.4,1-.1,2.5-.6,3-.1,7.6,7.3,15.6,14.4,18.2,25.2.8,3.2.5,6.8.1,10.2-.6,5.4-1.9,10.7-2.7,16.1-1.1,7.6-1.9,15.2-2.8,22.8-.2.6-.2,1.2-.2,2.1Z"/>
  <path class="cls-1" d="M1355,781.41c-.7,4.1-1.4,7.8-2.1,11.5-1.1,5.5-2.2,11.1-3.6,16.5-.4,1.5-1.9,3.2-3.2,3.7-2.7.9-4.5-1.9-3.7-5.2,1.7-7.1,3.4-14.1,4.9-21.2.1-.4-1.2-1.7-1.5-1.6-5,1.7-9.9.2-14.7-.9-1.9-.4-4.3-1.4-3.5-4.1.7-2.6,3-3.3,5.5-2.9,4.6.8,9.1,1.9,13.7,2.6.5.1,1.4-1.5,1.8-2.4.7-1.6.7-3.6,1.7-4.9.7-.9,2.9-1.6,3.9-1.1,1.5.7,2.9,2.1,1.8,4.5-.6,1.5-.6,3.4-1,5.5Z"/>
  <path class="cls-2" d="M1155.9,280.11c3.8-.2,7.2-.7,10.7-.7,9.9.1,19.1,2.6,27.2,8.5,3.8,2.7,7.4,12.6,5.9,16.9-.3.8-1.4,1.4-2.1,2.1-.5-.8-1.3-1.6-1.3-2.4.1-4.7-.3-9.2-4.1-12.4-5-4.3-10.7-7.5-17.6-7.8-3-.1-6-1.4-8.9-1.3-13.4.5-26.5,3-38.4,9.4-5.5,3-10.6,6.8-15.9,10.1-.8.5-1.9.6-2.9.9.3-1.3.2-3,1-3.8,2.8-2.5,5.7-4.8,8.8-6.8,9.5-5.9,19.9-9.4,30.7-12,2-.5,4.3-.5,6.9-.7Z"/>
  <path class="cls-2" d="M1099.4,483.41c-4-1.2-7.7-2.2-11.1-3.8-5.5-2.5-10.3-6.1-13.5-11.4-.6-1-.2-2.7-.3-4,1.2.4,2.7.4,3.6,1.2,3.1,2.6,5.7,6,9.1,8,5.4,3.2,11.3,5.5,17.7,5.7,6.5.1,13.1-.4,18.9-3,6.3-2.9,11.8-7.3,17.6-11,.3-.2.5-.6.8-.7,1.4-.3,2.7-.5,4.1-.8-.3,1.3-.2,3-.9,3.8-2.5,2.7-5.1,5.6-8.2,7.5-9.5,5.8-19.7,9.6-31,9.3-2.2-.2-4.3-.6-6.8-.8Z"/>
  <path class="cls-2" d="M1042.8,415.81c3,5.5,8.2,7.5,13.4,8.9,7.3,2,14.8,2.2,22.4.8,1.1-.2,2.4-.2,3.5,0,.9.2,1.7.8,2.5,1.2-.9.8-1.7,2.2-2.6,2.2-8.4.2-16.8.6-25.1,0-11.1-.9-19.9-10.9-19.5-21.1.2-6.1,3-11.2,6.5-16,5.2-7.3,11.9-12.9,19.3-17.9.6-.4,1.3-1.2,2-1.2,1.3,0,2.5.4,3.8.6-.7.8-1.2,1.9-2.1,2.5-7.3,4.8-13.9,10.3-19.2,17.2-3.5,4.6-6.1,9.8-6.6,15.6-.3,2.3.9,4.7,1.7,7.2Z"/>
  <path class="cls-2" d="M1037.1,238.21c-2.1,5.6-4,11-5.9,16.5-1.1,3.2-2,6.4-3.1,9.6-.3.9-.7,1.9-1.4,2.5-.3.3-2-.4-2-.6.1-1.8.1-3.6.7-5.3,1.4-4.7,2.8-9.4,4.5-14,2.1-5.7,4.4-11.3,7-16.9,2.7-5.8,5.7-11.5,8.7-17.2,5.6-11,13.2-20.4,22.6-28.3.6-.5,1.3-1.2,1.9-1.2,1.2,0,2.4.4,3.6.6-.6.8-1.1,1.9-1.8,2.5-10.2,7.5-17.6,17.2-23.2,28.4-3.4,6.7-6.6,13.5-9.8,20.3-.6,1-1.1,2-1.8,3.1Z"/>
  <path class="cls-1" d="M960.9,761.81c.4,1.1,1.1,2.3.8,3-.7,1.6-1.8,3.1-2.8,4.6-1.2-.9-3.1-1.6-3.6-2.8-4.6-11.1-9-22.3-13.2-33.6-.7-1.9-.5-4.5,2.4-5.2,2.5-.6,3.3,1.1,4.2,3.3,3.8,10.2,7.9,20.3,12.2,30.7Z"/>
  <path class="cls-2" d="M1158,230.61c-.8.2-1.4.7-1.8.7-1.8-.3-4.9,2.8-4.9-1,0-1.7,3-4.9,4.8-5,13.2-.8,24.2-7.6,35.5-13.1,5.4-2.6,9.6-7.6,14.4-11.3,1.3-1,2.9-1.4,4.4-2.1-.7,1.6-1.1,3.3-2.1,4.6-8,10.3-19.6,15.1-31.3,19.7-6.2,2.3-12.4,4.9-19,7.5Z"/>
  <path class="cls-2" d="M1337.2,389.01c-4.7-4.4-6.7-9.6-6.9-15.7-.1-2.6-.6-5.2-.6-7.8,0-1.1.3-2.6,1.1-3.4.6-.6,2-.4,3-.5,0,.7.2,1.5.1,2.2-1.2,7.1-.3,13.9,3.6,20.2,1.9,3,4.3,2.9,5.5-.4,1.1-3.1,1.4-6.5,2.3-9.6.4-1.2,1.4-2.3,2.2-3.4.7,1.3,2.1,2.8,1.9,3.9-1.2,4.9-2.3,9.9-4.6,14.3-3.3,6.3-9.2,10-16,12.1-1,.3-2.2-.4-3.3-.6.8-.9,1.5-2.2,2.5-2.8,2.6-1.6,5.4-2.9,8.1-4.3,1.7-1,2.4-2.2,1.1-4.2Z"/>
  <path class="cls-1" d="M1328.2,794.11c-4.8-.7-6.8,1.3-8.5,9-.6,2.6-1.8,5.1-2.8,7.6-.9,2.3-2.8,4.1-4.9,2.9-1.7-.9-3.5-3.5-3.4-5.2.6-8,6.2-17.8,14.7-21.1,2.5-1,4.4.1,6,1.9,1.5,1.9.8,3.5-1.1,4.9Z"/>
  <path class="cls-2" d="M1412.8,150.71c-2.8,3.1-5.5,6-8.1,8.8-.3.3-.6.8-1,1-1.4.6-2.9,1.1-4.4,1.7.6-1.5.7-3.5,1.7-4.5,7.6-7.4,13.9-15.8,18.5-25.5,3.9-8.3,6.5-16.7,6.3-26,0-1.1.7-2.3,1.1-3.4.7,1,2,1.9,2.1,2.9.1,3.7.5,7.2-.1,11-1.3,7.5-4.5,14.2-7.5,20.9-1.8,4.1-5,7.6-7.6,11.3-.4.6-.6,1.1-1,1.8Z"/>
  <path class="cls-2" d="M1114.1,202.21c-3.4,5-6.6,9.7-9.7,14.6-.6.9-.4,2.2-.8,3.2-.5,1.2-1,2.4-1.8,3.5-.1.2-1.8-.2-2-.7-.6-1.1-1.4-2.7-1-3.7,1.3-3.1,2.7-6.3,4.6-9,7.8-11.1,16.4-21.5,26.4-30.7,2.4-2.3,5-4.4,8.6-3.8.9.1,1.7.8,2.6,1.2-.7.5-1.4,1.2-2.2,1.6-1.7,1-3.8,1.5-5.1,2.9-5.9,5.8-11.5,11.9-17.3,17.9-.7.8-1.4,1.8-2.3,3Z"/>
  <path class="cls-2" d="M1050,266.61c-6.4-2.2-10.5-.9-14.2,4.4-.6.8-1.7,1.2-2.5,1.8-.3-1.2-1.1-2.4-.9-3.5.7-3.7,8.3-8.2,12-7.7,12.2,1.6,21.3,8.4,29.2,17.1,1.3,1.4,3.4,2.9,2.1,5.5-1.6-1.1-3.5-2.1-4.8-3.5-5.9-6-12.7-10.8-20.9-14.1Z"/>
  <path class="cls-2" d="M1135.6,489.91c1.2.6,2.9,1.3,3.2,2.3.2.8-.9,2.5-1.9,3.1-7.8,4.8-16.5,6.2-25.5,5.6-2.4-.2-4.9-1.3-7-2.5-1.2-.7-1.8-2.3-2.7-3.6,1.7-.5,4-2.1,4.9-1.5,7.6,5.3,15,1.9,22.4-.2,2.2-.5,4.3-1.9,6.6-3.2Z"/>
  <path class="cls-2" d="M1431.3,154.41c4.2-.2,8.2-.8,12-.6,6.5.3,12.2,3.3,17.8,6.3,1.9,1,3.4,2.6,5,4.1.4.4.4,1.2.5,1.9-.5.1-1.1.4-1.6.3-1.2-.4-2.6-.7-3.6-1.4-5.1-3.9-11-5.8-17.2-7.1-7.5-1.6-14.4,0-21.1,3-1.4.6-2.6,1.7-3.9,2.4-.7.3-1.6.2-2.4.2.2-.9.2-2,.7-2.6,2.9-3.4,6.6-5.2,10.9-5.8.9-.2,1.7-.5,2.9-.7Z"/>
  <path class="cls-2" d="M1198.1,227.61c9.2-2.4,16.6-7.8,24.2-12.9.7-.5,1.6-1,2.4-1,.9,0,1.7.7,2.6,1.1-.6.6-1.2,1.2-1.8,1.6-4.3,2.9-8.5,6.1-13,8.7-5.9,3.4-12,6.5-19,6.8-2.3.1-4.5.6-6.8.6-.8,0-1.6-.8-2.5-1.3.8-.7,1.5-2,2.4-2.1,3.7-.5,7.5-.8,11.5-1.5Z"/>
  <path class="cls-2" d="M1144.1,209.61c-4.4,3.7-8.6,7.2-12.8,10.6-.7.5-1.5,1.1-2.3,1.1-.9,0-1.8-.6-2.7-1,.3-.8.4-1.9,1-2.4,1.8-1.4,4.2-2.3,5.8-3.8,5.7-5.7,11.2-11.5,16.7-17.3.2-.2.3-.4.5-.5,1.4-.7,2-3.8,4.3-1.8.4.4-.7,2.8-1.6,4-2.8,3.8-5.8,7.3-8.9,11.1Z"/>
  <path class="cls-1" d="M1337.2,793.61c-.3,6.1-.6,12-1.4,17.9-.1,1.2-2.4,3.1-3,2.9-1.5-.6-3.6-2.1-3.7-3.4-.6-6,.3-11.9,2.9-17.4,1.1-2.3,3.3-2.4,5.2,0Z"/>
  <path class="cls-2" d="M1013.8,146.81c-1.8-.4-3.5-.5-5.1-.9-.7-.2-1.2-1.1-1.7-1.6.7-.6,1.4-1.8,1.9-1.7,3.8.9,7.6,2,11.4,3,5.8,1.6,11.6,3.1,17.4,4.6.7.2,1.6.3,2.1,0,1.5-1.1,2.8-.9,3,.8.1.8-1.4,2.6-2.3,2.6-3.4.1-7.1.3-10.3-.7-5.5-1.6-10.8-3.9-16.4-6.1Z"/>
  <path class="cls-2" d="M1108.1,199.01c-6.5,2.3-12.7,4.6-19.1,6.3-3.6,1-7.4,1.1-11.1,1.2-1,0-2.1-1.3-3.1-2,1-.5,2.1-1.4,3.1-1.3,9.7.6,18.1-4,27-6.5,1.1-.3,2.2-.6,3.3-.6.7,0,1.3.7,1.9,1.1-.7.5-1.3,1.1-2,1.8Z"/>
  <path class="cls-2" d="M1206.6,243.51c-1.9-1.7-1.4-2.7.7-3,1.6-.2,3.4-.4,4.9,0,6.8,1.8,12.6-.7,18.4-3.5,1.7-.8,4.1-3.2,5.5-.5,1.3,2.5-2.1,2.9-3.5,3.7-8.1,4.7-16.8,5.7-26,3.3Z"/>
  <path class="cls-1" d="M1169.3,582.31c-.5,2.7-.9,5.2-1.4,7.5-.4,1.8-1.1,3.5-3.6,3.1-2.2-.3-2.9-1.6-2.8-3.6.2-2.8.3-5.7.8-8.5.2-1,1.2-2.5,2.1-2.6,1.6-.3,3.4.1,5,.5.3.1,0,2.1-.1,3.6Z"/>
  <g>
    <path class="cls-1" d="M472,682.51c-8.8-2.1-17.2-4.3-25.7-6.3-10.4-2.4-20.9-4.5-31.3-7.2-2.7-.7-3.4.1-4.7,2-4,5.9-7.7,12.4-12.7,17.4-5.5,5.5-12,10.4-18.9,14.2-8.1,4.6-16.8,8.6-25.6,11.5-9.2,3-18.9,4.8-28.6,6.1-9,1.2-18.3,1.7-27.4,1.4-16.6-.6-32.7-3.8-48.2-10-13.2-5.3-25.3-12.4-34.8-23.1-3.9-4.4-6.8-9.7-9.9-14.7-1.5-2.4-2.7-3.4-5.8-2.5-11,3.3-22.1,6.5-33.3,9.1-15.1,3.6-30.4,6.6-45.6,9.9-17.6,3.8-34.7,9.3-51.1,16.8-9,4.1-17.8,8.6-24.5,15.9-8.3,9.1-13.5,20.2-17.4,31.9-3.8,11.2-6.6,22.6-8.4,34.3-1,6.7-1.4,13.4-2.2,20.1-1.1,9.3-2.3,18.6-3.5,27.9-.3,2.8-.5,5.6-.7,8.4-.5,7-1,14.1-1.4,21.1-.5,10.4-1,20.8-1.4,31.2-.5,12.4-1,24.8-1.3,37.2-.1,2.5-1.5,3.1-3.3,3.3-2.4.2-4.3-1.4-4.3-3.6,0-7.8.4-15.7.6-23.5v-1.4c.2-9.7.3-19.4.7-29.1.5-10.2,1.3-20.4,2.1-30.6.6-7.4,1.2-14.8,2.1-22.2,1.2-10.2,3.2-20.2,4-30.4.9-11.2,2.6-22.2,5.8-33,2.6-8.8,5.7-17.4,9.2-25.9,3.8-9.2,9-17.8,16.6-24.1,7.1-5.8,15.3-10.5,23.6-14.5,9.5-4.5,19.5-8.2,29.6-11.2,11.9-3.6,24-6.4,36.1-9.2,19.6-4.4,39.3-8.1,58.6-13.8,10.2-3,19.3-7.6,28.3-12.8,2.9-1.7,3.5-4.4,3.4-7.1-.2-5.1-1.6-10.2-1.1-15.1.5-5.3-2.8-7.5-6-9.7-10.9-7.6-20.8-16.2-29.1-26.5-6.2-7.7-12.1-15.6-17.5-23.8-8.4-12.7-14.7-26.5-18.7-41.1-2.7-9.6-4.6-19.4-6.3-29.2-1.3-7.4-1.4-15-2.3-22.5-.1-.9-1.5-2.3-2.3-2.3-10.5-.8-17.9-6.5-24.2-14.3-6.2-7.7-10.3-16.3-13.5-25.5-3.4-9.7-3.7-19.7-3.1-29.8.3-5.5,2.4-10.8,5.4-15.6.4-.7,0-2.5-.6-3.3-9.3-11.2-14.7-24.1-17.4-38.2-1.3-6.4-1.8-13-2.9-19.5-1.6-9.8.2-19.3,1.4-28.9,2.6-21.2,10-40.9,19.8-59.6,6.4-12.2,13.7-23.9,22.9-34.2,7.3-8.3,15.1-16.2,22.7-24.2,1.2-1.2,2.4-2.7,3.9-3.1,1.5-.4,3.6,0,4.8.9.6.5.3,3.4-.5,4.3-4.2,4.4-9,8.3-13.2,12.7-12.6,13.2-23.5,27.6-32.4,43.5-6.5,11.6-12,23.7-15.5,36.6-2.2,8.1-4.3,16.4-5.3,24.7-1.2,9.5-1.8,19.2-1.4,28.8.5,10.4,2.7,20.6,6.7,30.3,3,7.2,6.7,14,11.7,20,1.6,1.9,3.5,2.4,5.5,1.9,9.4-2.3,16.6,1.7,23.1,7.8,4.1,3.9,3.8,3.9,6-1.5,4-9.8,9.9-17.4,20.3-21.9,10.6-4.6,17.3-13.9,21.5-24.5,2.3-5.9,3.5-12.3,5-18.6.5-2.3,1.7-2.9,3.8-2.9,10.3.5,20.4-.6,30.4-3.5,10.6-3.1,20.5-7.7,29.4-14.2,8.6-6.3,15.9-13.9,21.8-22.7,6.9-10.1,11.3-21.3,14-33.3,2.3-10.2,2.2-20.4,1.8-30.6-.2-6.7,1.1-13,3.7-18.9,2.1-4.9,9.6-7.5,14.7-6.4,5.7,1.1,10.2,3.6,13.7,8.2.9,1.2,1.5,1.6,2.4-.3,3.2-7.5,7.7-13.8,16.4-16,5.9-1.5,11,0,15.8,2.8,10.3,6.1,17,15.5,23,25.5,7.6,12.7,13.5,26.1,17.6,40.2,3.4,11.7,6.1,23.6,8.9,35.5,1.2,5.1,3.5,9.3,6.6,13.4,5.6,7.5,12.4,13.6,21.7,15.9,3,.7,6.9.6,9.5-.8,8.4-4.7,14.8-.2,19,6.2,6.5,9.7,9.9,20.7,12.4,31.9,1.9,8.2,2.9,16.5,4.3,24.8.1.4.5,1.2.7,1.2.6-.1,1.5-.3,1.8-.7,5.5-8.4,10.2-17.1,12.2-27.1,1.9-9.2,2.4-18.5,2.1-27.8-.4-13.4-2.6-26.5-6-39.5-5.1-20-12.9-38.9-22.7-57-6.7-12.5-14-24.6-23.1-35.5-8-9.5-16.1-19.1-25-27.7-10.8-10.5-23.1-19.1-37-25.4-10.7-4.8-21.8-7-33.5-6-3,.3-6.2.8-8.9,2.2-3,1.5-7.1.7-9.1,4.4-.3.5-2.7.1-4-.4-7-2.5-13.8-5.5-20.9-7.8-4.1-1.3-8.5-1.6-12.8-1.9-3.9-.3-7.8-.1-11.7-.1-13.5,0-26,3.7-37.8,10.1-7,3.8-13.6,8.2-20.8,11.5-11.7,5.5-23.8,10-35.5,15.6-7.3,3.5-14.2,7.9-21.3,12-1.6.9-3.2,2.2-5,.2s-1.3-3.6.4-5.3c3.1-3.2,6.6-5.5,10.6-7.2,10.2-4.4,20.1-9.4,30.2-14,6.5-2.9,13.2-5.3,19.5-8.5,8.5-4.3,16.5-9.7,25.1-13.6,7-3.1,14.5-5.2,22-6.8,5.7-1.2,11.7-1.5,17.6-1.5,14.6.2,28.6,3.1,41.6,10,1.4.8,2.7,1.9,4.4,0,3.8-4.5,9.4-5.1,14.7-5.8,19.5-2.6,36.6,4,52.4,14.5,8.1,5.4,15.9,11.4,23.4,17.8,6.3,5.4,12.5,11.3,17.7,17.8,8.4,10.4,16.3,21.3,23.7,32.4,5.4,8.1,10.4,16.6,14.6,25.4,8.5,17.5,15.2,35.8,19.7,54.8,1.8,7.7,2.6,15.8,3.6,23.7.7,5.4,1.4,10.9,1.3,16.3-.1,6.4-.8,12.8-2,19.1-1.1,6.2-3.2,12.2-4.8,18.3-.2.6.4,1.4.6,2.1.5-.2,1-.4,1.5-.7,5.6-3.5,14.1-.7,18.2,4.1,6.6,7.8,7.8,16.9,8.2,26.3.7,15.7-2.8,30.6-9.5,44.6-4.3,9-9.5,17.7-18.6,22.9-4.2,2.5-8.5,5-13.6,1.7-.2-.1-1.5.7-1.6,1.2-1.5,9.5-2.3,19.2-4.4,28.6-2.4,10.4-5.5,20.8-9.3,30.7-4.6,11.9-9.8,23.8-15.9,35-5.4,9.9-12.1,19.1-18.7,28.3-3.6,5-7.8,9.7-12.3,13.7-8.3,7.3-17.1,14.2-25.9,21-4.8,3.7-5.1,3.8-3.6,9.7.6,2.2,1.2,4.5,1.2,6.8-.1,4.4,2.4,7.2,5.6,9.4,9.1,6.2,19.2,9.8,30,12,19.3,4,38.7,7.5,57.2,14.5,12.2,4.6,24.7,8.6,37.1,12.6,7.2,2.3,13.3,6.4,18.7,11.3,10.3,9.3,19,20,24.4,32.9,5.1,12.2,9.1,24.9,13.8,37.3,4.6,12.2,6.7,25.1,9,37.9,1.1,6.2,1.6,12.5,2.1,18.7.8,8.8,1.4,17.6,2.1,26.4.5,6.7,1.1,13.4,1.4,20,.4,7.8.5,15.7.7,23.5.4,12.7.8,25.5,1.4,38.2.5,9.9,1.3,19.7,2.1,29.5.2,2.5.5,4.9.7,7.4.2,2.7-1.2,5-3.7,4.7-1.4-.1-3.6-2.7-3.8-4.3-.9-6.5-1.2-13.1-1.5-19.7-.6-10.8-.9-21.5-1.4-32.3-.2-4.7-.5-9.4-.7-14-.3-8.3-.4-16.6-.7-24.9-.3-7.5-.9-15-1.4-22.5-.4-6.7-.5-13.4-1.5-20-2-14.1-3.1-28.2-5.9-42.2-3.8-18.5-10.1-36.1-16.6-53.7-5.3-14.4-14.2-26.9-25.8-37.2-8.1-7.2-18-10.8-28-14.2-11.8-4-23.7-8-36-11.9M402.1,299.71c-.9-2.2-2.2-4.3-2.7-6.5-2-8.3-3.6-16.7-5.7-24.9-5.1-20-12.3-39.2-23.6-56.6-5.3-8.1-11-15.5-19.9-19.8-5.4-2.6-12.2-1-15.8,4.3-2,3-3.6,6.2-5.7,9.1-1,1.4-2.9,3.2-4.1,3-3.7-.6-7.3-1.6-9.8-5-2.7-3.6-6.9-4.4-11.3-3.9-3.1.3-8.4,8.2-7.9,11.2.7,5.3,1.7,10.7,1.6,16.1-.1,6.5-1.1,13-2,19.4-1.3,9.7-4.5,18.8-8.8,27.5-5.5,11.1-13,20.8-22.1,29.3-6.2,5.8-13.1,10.8-20.5,14.6-14,7.2-29,11.6-44.9,11.3-2.6,0-4.2,1.1-4.9,3.5-1.5,4.6-2.6,9.4-4.3,14-4.3,11.7-12.1,20.6-22.6,27.1-3.5,2.2-7.7,3.4-10.7,6.1-5.9,5.4-8.5,12.8-10.7,20.3-1.6,5.4-4.5,5.8-8.6,3.2-2.8-1.7-4.8-4.7-7.5-6.5-3.5-2.3-7.2-4.9-11.1-5.9-5.3-1.4-10.5,3.3-12.7,10.6-2.7,9.2-1.8,18.5.3,27.7,2.3,10.1,6.5,19.5,13,27.4,4.8,5.8,10,11.4,18.8,11.1,3-.1,6.5.7,7.6,3.9,1.4,4.3,2.2,8.9,2.9,13.5,1.3,8.9,2.2,17.9,3.6,26.9,1.9,12.5,6.2,24.4,11.4,35.8,6.1,13.4,13.7,25.8,23,37.3,9.5,11.7,20.3,21.9,32.4,30.6,13.8,10,28.9,17.7,45.3,22.2,10.8,2.9,21.9,5.4,33,6.3,13.7,1.1,27.5.6,41.1-2.4,11.5-2.5,22.7-5.9,33.4-10.7,14.2-6.4,27.2-15,38.8-25.3,9.7-8.7,18.7-18.3,25.5-29.6,5.1-8.5,9.8-17.1,14.6-25.7,6.2-11.1,11.1-22.7,14.6-34.8,2.7-9.4,5.3-18.9,6.9-28.6,2-11.2,3.7-22.6,4.1-33.9.4-13.1-.7-26.2-1.2-39.3-.2-4.5-.3-9-.7-13.5-.8-7.9-1.5-15.8-2.8-23.6-1.7-10-3.7-20.1-6.3-29.9-1.9-7.2-4.2-14.3-8.9-20.4-3.1-4-4.8-4.8-9.3-2.9-1.6.7-3.3,1.2-5,1.4-11.1,1.2-20.4-3-28-10.6-4.4-4.4-7.7-9.5-11.8-14.4M283.6,650.31c-3-.7-5.9-1.5-8.9-2.1-15.6-3.1-30.4-8.4-44.1-16.7-1-.6-2.5-1.3-2.5,1.1,0,2.8-.5,5.7.1,8.4,1.6,6.5.6,12-4.7,16.4-2.2,1.8-2.7,4.1-.9,6.5,2.9,3.9,5.5,8.2,8.9,11.6,7.3,7.4,16,12.6,25.6,16.6,12.6,5.3,25.9,8,39.5,8.3,9.2.2,18.5-1,27.8-2,11.6-1.2,22.4-5.1,32.9-9.9,12.2-5.5,22.5-13.7,31.4-23.7,3.5-3.9,3.5-6,.5-10.6-1.4-2.1-3-4.2-3.6-6.5-.9-3.7-1.1-7.5-1.5-11.3-.2-2.4-1.1-2.7-3.3-1.7-11.4,5.5-23.2,9.8-35.6,12.9-11.8,3-23.8,4.1-35.8,4.5-8.4.4-16.8-1.1-25.8-1.8M510.8,436.31c.8-2,1.9-3.9,2.4-6,2.7-11.9,6.2-23.6,4.4-36.1-.9-6-2-11.6-5.7-16.5-2.3-3.1-7.1-4.7-10.6-3.1-3.4,1.5-6.3,4.3-10.4,4.4-.4,0-.8.4-1.1.7-2.7,3.1-5.3,6.1-7.9,9.3-.7.9-1.5,2.2-1.4,3.2.8,10.9,2.1,21.8,2.6,32.7.5,10.7.1,21.5.1,32.3,0,1-.4,2-.4,2.9-.1,1.1,0,2.2,0,3.3.9-.4,1.7-.8,2.6-1.1.5-.2,1.1-.1,1.6-.3,4.2-.9,7.7-2.9,10.9-5.9,5.8-5.4,9.4-12.2,12.9-19.8M389.9,685.21c4.6-6,9.3-12,13.8-18.1,1.6-2.1-.3-3.5-1.9-3.5-1.5,0-3.4,1.2-4.5,2.3-5.8,5.8-10.9,12.4-17.2,17.5-10.5,8.5-22.7,14.3-35.6,18.4-10.7,3.4-21.8,5.6-33,6.2-11.1.6-22.3.3-33.4-1.9-10.1-1.9-19.7-4.9-29.1-9.2-8.5-3.9-16.2-9.2-22.8-15.7-4.2-4.1-7.1-9.3-10.8-14-.8-1-2.2-1.6-3.3-2.4-.5,1.5-1,3-1.4,4.5-.1.4.4,1,.7,1.4,6.6,12.2,16.5,20.9,28.5,27.4,10.7,5.7,21.8,9.8,33.8,12,13.1,2.4,26.1,3.9,39.5,2.8,9.9-.8,19.7-1.9,29.3-4.4,11.5-3,22.7-6.9,32.8-13.5,4.9-2.7,9.5-6.1,14.6-9.8Z"/>
    <path class="cls-1" d="M511,844.51c-5.3.2-6-1.1-5.5-6.2.3-4-.1-8.2-.8-12.2-.6-3.3-5.5-4.2-8.5-1.7-2.4,2.1-4,4.8-3.9,8.1,0,2.3-.1,4.7,0,7,.1,2-.5,3.3-2.5,3.8-2.5.6-4.6-.7-5-2.6-1.3-5.9-2.2-12-2.9-18-.3-3.1,4.2-6,7.3-5.2,3,.8,8.5-1.8,8.5-4.6-.1-5.4,4-5.6,7.3-6.5,3.2-.8,6.6-.8,9.9-1.6,1.5-.4,3-1.7,3.8-3.1,1.2-1.9,2.2-3.7,4.6-3.1,2.1.5,3.2,2,3.2,4.5.1,9.7.4,19.4.7,29.1,0,1.3.8,2.7.5,3.8-.7,2.2-2.4,4.1-4.8,2.9-1.5-.7-3.2-2.7-3.3-4.2-.4-6.4-.2-12.8-.1-19.2,0-2.4.1-4.2-3.3-3.1-2.8.9-5.9.9-8.8,1.6-.9.2-1.7,1.2-2.6,1.9.7.5,1.6.9,2.2,1.5,1.2,1,2.8,2,3.4,3.3,1.2,2.6,2.3,5.5,2.7,8.3.4,3.8.3,7.8,0,11.6,0,1.3-1.2,2.5-2.1,3.9Z"/>
    <path class="cls-1" d="M447.6,792.91c4.1.2,6.5,2.1,7.6,6.5,1.2,5.1,2.4,10.3,2.8,15.6.6,8.5.5,17,.8,25.5.1,2.6-.7,4.8-3.3,5.4-2.6.7-3.6-1.6-4.8-3.4-1.9-2.9-1.6-5.7-.4-8.8.7-1.8.7-4,.6-6,0-.4-1.4-1.3-2-1.2-3,.3-6,.5-8.8,1.5-1.5.5-3.1,2.1-3.6,3.6-.9,2.4-.6,5.3-1.7,7.7-.7,1.7-2.8,3.6-4.4,3.8-2.4.3-4.2-1.8-3.7-4.3.9-4.6,2.1-9.1,3.7-13.5,2.8-8,5.8-16,9.1-23.8,1.5-3.6,3.6-7.1,8.1-8.6M444.8,809.31c-1.1,2.7-2.2,5.4-3.1,8.1-.2.7.6,2.5.8,2.5,2.1-.3,4.3-.7,6.4-1.4.7-.2,1.5-1.4,1.5-2.1-.3-4.1-.8-8.2-1.4-12.3-.1-.5-.6-.9-1-1.3-.4.4-.9.7-1.1,1.2-.8,1.5-1.4,3.1-2.1,5.3Z"/>
    <path class="cls-1" d="M473.2,852.21c-3.4.5-4.9-1.7-5.3-4.1-.8-5.3-1-10.8-1.5-16.2-.7-7.4-1.5-14.8-2-22.2-.1-1.7.6-3.7,1.4-5.3,2.3-4.9,10.5-8.6,15.5-7.2,2.9.8,4.4,3.3,4.6,5.9.5,5.5.3,10.9-4.8,14.8-1.5,1.1-2.6,2.7-4,3.9-3,2.6-3.4,6-3,9.6.6,5,1.7,9.9,1.9,14.9.1,1.8-1.6,3.8-2.8,5.9M478,809.01c0-1.4,2.4-3.2-.2-4-.8-.2-2.7,1.6-3.4,2.9-.9,1.5-1.2,3.5-1.5,5.3-.1.5.4,1.2.7,1.8.5-.3,1.2-.4,1.4-.8.9-1.6,1.7-3.2,3-5.2Z"/>
    <path class="cls-1" d="M273.5,410.51c.5,2.3,1.3,4.1,1.3,6.1.2,8,.9,16-2.1,23.7-2,5.1-4.2,10-9.3,12.8-7,3.9-13.5-.1-17.1-5.2-4.9-6.8-6.9-14.8-7.1-23.2-.2-8.3.3-16.5,4.5-23.9,2.7-4.9,6.1-8.8,12.2-9.1,6.7-.3,10.6,3.8,13.5,9,1.7,2.9,2.7,6.2,4.1,9.8Z"/>
    <path class="cls-1" d="M397,440.41c-4.1,7.2-9,9.7-15.1,7.1-4.9-2.1-7.2-6.7-9.2-11.2-4.2-9.5-4.9-19.5-4.2-29.7.5-6.6,2.2-13,6.4-18.3,5.1-6.5,12.5-5.9,17.7.6,5.4,6.8,7,15.1,8.1,23.5,1.1,8.3.1,16.2-2.2,24.1-.3,1.3-.8,2.5-1.5,3.9Z"/>
    <path class="cls-1" d="M311.7,527.41c-2.6,1.3-5,1.9-8.1,1.5-2.8-.3-5.7.4-8.6-.8-1-.4-2.8.9-4.1,1.6-3.1,1.9-5.6,1.2-7-2.1-.2-.6-.6-1.2-1-1.7-3-4.4-2.4-7.3,1.8-10.4,1.1-.8,2.3-1.5,3.1-2.5,2.5-2.7,4.9-3.6,8.9-2.9,2.6.5,4.9.4,7,2.3.4.4,2.2-.2,3-.8,2.3-1.6,4.2-1.4,6.3.3.9.7,2.2,1.2,3.3,1.3,3.1.1,6.2-1.4,9.3.7.7.5,2.3-.3,3.4-.7,4.1-1.7,8-3.7,12.2-5,2.2-.7,4.2-1.1,5.8-3,.5-.6,1.6-.6,2.4-.9,3.3-.9,6.9-1.5,10-2.9,2.6-1.2,4.9-1.5,7.6-.6,3.5,1.2,6.9,2.5,10.4,3.5,2.7.7,4,2.1,3.6,4.8-.3,2-3.5,3.8-5.7,2.9-2.2-1-2.3-.1-3.5,1.5-1.7,2.2-4.8,3.7-7.6,4.8-2.6,1-5.4,1.5-8.6,1.1-3.2-.3-6.7,1.9-10,3.2-2.7,1-5.3,2.8-8.1,3.1-2.8.4-5.5.3-8.2,1.6-3.3,1.6-7.1,1.9-10.6,3-1.8.6-3.3.4-4.6-1-.6-.8-1.5-1.2-2.4-1.9Z"/>
    <path class="cls-1" d="M300.2,545.91c7.2.9,14.3,2,21.3,2.2,16.1.3,30.8-4.7,43.7-14,6-4.3,11-9.9,16.5-14.9.3-.2.5-.5.7-.7,1.9-1.9,4.1-2.6,6.1-.7,1.9,1.8,1.2,4.5-.4,6-5.4,5.3-10.8,10.5-16.7,15.3-9.4,7.6-20.2,12.2-31.9,14.8-10.2,2.3-20.3,2.4-30.7,1.4-10.7-1.1-20.8-4.3-30-9.3-7.4-4-14.1-9.3-20.9-14.4-1.3-1-2.5-3.4-2.3-4.9.4-3.1,3.9-3.8,6.5-1.9,5.5,4.1,10.9,8.4,16.6,12.2,6.6,4.2,13.9,6.8,21.5,8.9Z"/>
    <path class="cls-1" d="M319.6,434.91c.5,1.3,1,2.3,1.5,3.2.7-.7,1.3-1.4,2-2.1,7.3-8,22.9-6.8,28.7,2.4,4.8,7.5,5.4,15.8,4.4,24.6-.9,8.2-3.4,15.8-7.2,22.9-4,7.5-9.3,14-16.7,18.4-1.2.7-2.8,1.2-4,1-1.3-.2-3.4-1.3-3.5-2.1-.1-1.5.6-3.9,1.7-4.6,12.3-7.3,18.1-18.7,21.2-32.1,1.5-6.4,1.9-12.6-.1-18.8-3.4-10.4-10.6-11.5-18.9-6.1-2.4,1.5-4.4,3.6-6.4,5.7-1.6,1.7-3.5,3.1-5.3,2-1.6-.9-3-3-3.5-4.9-1.7-7.2-3-14.4-4.2-21.7-.4-2.2-.7-5,2.1-6.1,2.6-1,4.9.6,5.8,4.1.9,4.8,1.6,9.3,2.4,14.2Z"/>
    <path class="cls-1" d="M362.1,319.41c4.3-1.1,8.5-1.9,12.7-2.9,7.6-1.7,20.4,4.1,24.2,10.6,1.3,2.2,1.5,4.2-.6,5.4-1.8,1.1-4,.6-5.4-1.5-6.6-10-26.1-9.3-33.1-1.1-1.1,1.2-1.6,3-2.8,4-1.2.9-2.9,1.1-4.4,1.5-.4-1.6-1.5-3.3-1.1-4.7,1.2-5.6,5.4-8.7,10.5-11.3Z"/>
    <path class="cls-1" d="M274,340.41c-2,2.6-4.5,2.1-6,.4-4.3-4.7-9.4-4.3-14.5-2.8-8,2.3-14.6,6.6-18.2,14.6-.9,2-2.3,4.3-4.7,3.1-2.2-1-2.9-3-1.9-6,2.7-7.3,8.2-11.8,14.5-15.4,5.9-3.3,12.3-4.9,19.2-4.3,4.4.4,8.2,2.2,10.8,5.7.7,1.2.6,3,.8,4.7Z"/>
    <path class="cls-1" d="M118.9,413.31c1.2,2.9,1.9,5.8,2.8,8.8.3,1.1.9,2.1,1.3,3.1.5-1,1.1-1.9,1.4-3,.6-1.8.9-3.6,1.4-5.3.8-2.7,3.3-2.7,5.1-2,1.7.6,3.2,2.3,2.2,4.8-1.5,3.7-2.8,7.5-4.2,11.2-.7,1.8-1.8,3,1.4,3.6,1.5.3,2.9,2.7,3.8,4.4.2.4-1.8,2.6-3,2.9-2.9.7-5.8-.1-8-2.4-5.4-5.5-8.4-12.2-9.8-19.7-.4-2.4-.7-4.7,1.5-6.1,1-.5,2.5-.2,4.1-.3Z"/>
    <path class="cls-1" d="M500.5,408.91c-.1-2.8-.4-5.4-.6-8-.2-1.6-.8-3.5-.3-4.9.4-1.1,2.3-2.2,3.4-2.2,1.2.1,2.9,1.3,3.3,2.4,1.2,3.6,1.9,7.4,2.8,11.1,1.7,7.7-1.8,14.2-4.8,20.8-1.8,4-5.2,4.7-7.6,1.6-.6-.8-.7-2.3-.4-3.2.8-2.2,1.8-4.4,3-6.4,1.4-2.3.2-3.2-1.6-4.1-2-1-4.2-1.9-6-3.1-1.7-1.2-2.8-2.9-1.4-5,1.4-2,3.4-2.1,5.4-1.3,1.7.7,3.1,1.7,4.8,2.3Z"/>
  </g>
</svg>