<?xml version="1.0" encoding="UTF-8"?>
<svg id="Contours" xmlns="http://www.w3.org/2000/svg" viewBox="0 0 1978.65 1481.3">
  <defs>
    <style>
      .cls-1 {
        fill: #3f3f3f;
        stroke-width: 0px;
      }
    </style>
  </defs>
  <path class="cls-1" d="M652.25,217.7c-9-3.5-15.2-.7-19.3,7.5-.4.9-2.5,1.9-3,1.6-1.2-.8-2.9-2.4-2.8-3.4.3-2.5,1-5.3,2.5-7.4,6.3-9,23.1-9.6,30.2-2.6,3.4,3.4,6.1,7.4,9.2,11,.7.8,1.9,1,2.8,1.5.4-.7.7-1.5,1.1-2.2,7.2-12.9,17.7-23.5,34.4-20.5,6,1,11.8,4.9,16.8,8.6,8.2,6.1,13,15.2,18.2,23.9,8.8,14.9,15.2,30.7,20,47.2,3.3,11.6,5.7,23.5,7.6,35.4,2.2,13.9,3.2,28,5.2,41.9,1.4,10.1,6.3,18.9,12.6,26.7,7.4,9.2,16.2,17,28.3,19.3,3.7.7,8.2.6,11.7-.7,12.2-4.5,16.4-.3,21.9,8.6,8.9,14.3,13,30.3,14.4,47,1.1,12.7,2,25.5,3.1,38.2.2,1.8,1.3,3.4,2,5.1.9-1,2-2,2.8-3.1,5.6-7.8,12.4-15.1,16.3-23.8,4.8-10.6,7.8-22.2,10.6-33.6,3.9-15.8,3.8-32.1,2.9-48.2-.7-11.9-3.2-23.6-4.7-35.5-3.2-24.1-11.3-46.8-19.2-69.5-5.7-16.5-12.9-32.4-22.4-47.2-6.5-10.1-11.8-20.9-18.6-30.8-6.5-9.5-13.9-18.4-21.6-27.1-7.3-8.2-15-16.1-23.3-23.3-16.7-14.4-34.8-26.6-57.2-30.8-10.7-2-21.1-3.1-31.5,1-1.6.6-4.2.2-5.5-.8-3.3-2.4-2.2-6.1,2.3-7,8.3-1.7,16.5-3.1,25.4-2.5,15.5,1.2,29.2,6.7,42.5,13.6,9.2,4.8,17.5,11.3,25.5,17.9,8.3,6.8,15.9,14.4,23.3,22.2,14.4,15,26.9,31.5,37.2,49.6,7,12.3,14.4,24.3,20.3,37.1,10.9,23.3,20,47.2,25.7,72.4,3,13.3,5.4,26.8,8,40.2.6,3.1.9,6.4,1,9.6.4,10.5,1.4,21.1.9,31.6-1,18.5-3,36.9-9.9,54.3-2,5-4.8,9.7-7,14.6-.5,1-.1,2.5-.1,3.7.8-.4,1.6-.8,2.5-1.2,10.5-5.1,21.1-1.2,27.7,9.4,8,12.9,7.4,26.8,6.1,41.2-1.2,13.6-5.3,26.3-10.3,38.8-4.2,10.6-9.8,20.5-17.2,29.4-5.3,6.4-11.5,11.5-18.3,16.1-5.6,3.8-11.7,4.2-17.9,3.7-.9-.1-2.5-2.1-2.3-2.7.7-1.9,2.1-4.9,3.2-4.9,19-.1,27.6-14.1,36.5-27.4,6-9,10.5-18.9,13.3-29.5,3.8-14.1,7.1-28.4,5.6-43.1-.6-5.6-2.5-11.3-4.8-16.5-3.6-8.3-11-10.9-19-7.3-4,1.9-7.8,4.1-12.6,3.6-1-.1-2.2,1.2-3.1,2-3.3,2.9-6.4,6-9.8,8.9-3.4,2.9-5.8,5.9-5.8,11,0,17.7.3,35.5-1.1,53.1-1.2,16-4.8,31.7-6.7,47.6-2.3,19.2-8.7,37.2-14.7,55.4-.7,2.1-1,3.9,2,4.9,5.8,2.1,11.5,4.4,17.1,7,7.6,3.5,15,7.2,22.5,11,18.1,9,37.5,16.4,50.2,33,7.4,9.7,13,20.8,18.8,31.6,6.4,12.1,12.1,24.6,18.2,36.9.5,1.1,1.3,2.2,2.1,3.1,1.1,1.1,2.3,2.1,3.5,3.1.8-1.7,1.9-3.3,2.2-5.1,1.2-9,2.7-18,7.2-26,4.7-8.3,12.2-13.6,21.4-15.3,4.1-.8,9.1,1.1,13.1,3,7.5,3.5,7.2,2.5,12.3-1.3,5.6-4.3,12.1-7.6,18.4-10.9,3.9-2.1,8.4-3.2,12.3-5.3,2.7-1.4.2-3.1-.7-4.4-5.6-7.5-11.7-14.7-16.7-22.6-7-11-13.3-22.4-19.6-33.9-9.1-16.4-15.8-33.8-21.6-51.6-3.9-11.9-8-23.8-10.8-36-3.1-13.7-5.1-27.7-7.1-41.6-1.5-10.7-2.5-21.5-3-32.2-.7-14.2-1-28.4-1-42.6,0-7.1,1-14.2,2.1-21.1.2-1.5,2.9-3.5,4.5-3.6,2.8-.2,1.6,2,1.5,3.9-.4,5,.1,10.1-.2,15.2-.5,9.4-1.7,18.8-1.8,28.2-.2,9,.4,18,1,27.1.3,4.6,1.2,9.1,1.9,13.7,2,13,3.2,26.2,6.2,39,3.9,17.1,8.4,34.1,14,50.7,4.9,14.5,11.4,28.6,17.9,42.6,5.4,11.5,11.3,22.8,18,33.5,9.2,14.6,19,28.8,31.3,41.1.6.6,1.1,1.2,1.5,1.9,4.1,6.2,8.3,7.7,15.8,6.2,1.8-.4,3.7-.3,5.5,0,7.6,1.4,12.3-2,15.8-8.6,6.2-11.3,12.9-22.3,19.4-33.5.3-.5.3-1.7-.1-2-.6-.4-1.7-.7-2.3-.5-3.8,1.3-7.5,3-11.3,4.1-1.3.4-2.9-.4-4.4-.7.5-1.4.5-3.5,1.4-4,4.2-2.2,8.5-5.1,13.1-5.7,14.8-1.9,29.6-2.4,44.1,2.2,1.3.4,2.9-.2,4.4-.3-.2-1.3-.3-2.5-.6-3.8-.1-.6-.8-1.1-.8-1.7,0-1.8.2-3.7.3-5.5,1.9.9,4.7,1.3,5.5,2.7,1.6,3.1,3.1,6.8,3,10.2-.1,7.4-.2,15.2-6.9,20.5-.7.6-1.8.7-2.7,1.1-.4-1-1.2-2.1-1.1-3,.4-2.3.9-4.6,2-6.7,2.8-5.4-2-5.6-4.7-7.1-3.3-1.9-5.7-1.2-7.4,2.3-3.6,7.7-7.1,15.4-11,22.9-5.8,11.3-12,22.4-17.9,33.6-.8,1.6-2,3.5,1.1,4.3,10.9,2.8,16.2,10.9,17.6,21.1.8,5.5,3.9,6.8,8,7.9,12.3,3.1,24.7,5.2,37.5,6.3,15.8,1.5,30.6-1.8,45.5-5.6,16.3-4.2,30.9-12.1,44.4-21.9s26.3-20.7,36-34.6c8-11.5,15.7-23.2,23.8-34.6,1.1-1.5,3.8-3.3,5-2.9,3.1,1,2.2,3.8.8,5.9-8.1,11.8-15.9,23.9-24.5,35.3-6,7.9-12.7,15.6-20.1,22.1-16.4,14.2-33.8,27.1-54.9,33.9-12.2,3.9-24.2,7.9-37.2,8-8.9,0-17.8,1.6-26.6.7-10.2-1.1-20.3-4-30.4-6.2-2-.4-3.9-1.4-5.9-1.4-1.1,0-2.8,1.1-3.1,2-2.2,6.3-4.5,12.5-6,19-2.9,12.7,1,24.2,6.8,35.3,6.8,12.9,13.3,25.6,13.3,41.1.1,18-4.5,34.8-9.5,51.7-.8,2.7-.3,3.8,1.2,5.3,3.7,3.6,8.2,6.7,10.7,11,3.5,5.9,5.8,12.6,8.2,19.1,4.9,13.6,9.5,27.4,14.3,41.1,5.6,16,11.3,32,17,48l18,51c2.4,6.8,5,13.6,7.4,20.4,3.2,8.8.1,16.3-9.6,19.9-16,6-31.8,12.6-47.7,18.9-7.3,2.9-14.6,5.8-21.8,8.9-6.4,2.7-6.5,2.9-4.2,8.9,4.5,12,9.6,23.7,13.5,35.9,6.2,19.1,11.3,38.5,15.4,58.2,3.7,17.6,8.8,35.2,16.9,51.4,5.2,10.4,12.2,19.9,17.8,30.2,6.4,11.6,12.1,23.7,18.1,35.5,3.3,6.5,6.4,13,10,19.3,1.1,1.9,3.4,4,5.4,4.5,4.4.9,9,.8,13.5,1.2,13.4,1,26.8,1.9,40.3,3,11.1.9,22.2,2,33.3,3,11.9,1,23.8,2,35.8,3,10.9,1,21.8,2,32.8,3,15.4,1.4,30.9,2.7,46.3,4,11.3,1,22.5,1.9,33.8,3,5.7.5,11.5,1.1,17.1,2.2,1.4.3,3.2,2.6,3.4,4.2.1,1.1-2.3,3.5-3.5,3.5-7.9-.3-15.8-1.1-23.7-1.8-4.7-.4-9.4-.7-14.1-1.1-9.7-.7-19.5-1.2-29.2-2-12.6-1.2-25.2-2.8-37.8-3.9-9.5-.9-19.1-1.2-28.7-2.1-13-1.2-25.9-2.7-38.8-3.9-4.4-.4-8.7-.7-13.1-1-9.7-.7-19.5-1.2-29.2-2-15.6-1.3-31.2-2.6-46.8-4-11.1-1-22.2-2-33.3-3-11.6-1-23.2-2-34.8-3-11.1-1-22.2-2-33.3-3-15.6-1.4-31.2-2.7-46.8-4-11.1-1-22.2-2-33.3-3-15.6-1.4-31.2-2.6-46.8-4-10.9-1-21.8-1.9-32.8-3-12.8-1.3-25.6-2.7-38.3-4-4.5-.5-9.1-.7-13.6-1-13.4-1-26.8-1.9-40.3-3-11.1-.9-22.2-2-33.3-3-11.9-1-23.8-2-35.8-3-10.9-1-21.8-2-32.8-3-15.8-1.4-31.6-2.6-47.3-4-10.9-.9-21.8-1.9-32.8-3-12.8-1.3-25.6-2.8-38.3-3.9-9.5-.9-19.1-1.2-28.7-2.1-13-1.2-25.9-2.7-38.8-3.9-4.5-.4-9.1-.7-13.6-1-9.7-.7-19.5-1.2-29.2-2-15.5-1.3-30.9-2.6-46.3-4-11.3-1-22.5-2-33.8-3-11.4-1-22.8-2-34.3-3-11.3-1-22.5-2-33.8-3-11.4-1-22.8-2-34.3-3-11.4-1-22.8-2-34.3-3-15.3-1.3-30.6-2.7-45.8-4-11.4-1-22.8-2-34.3-3-15.3-1.3-30.6-2.6-45.8-4-10.9-1-21.8-2-32.8-3-12.1-1-24.2-2-36.3-3-10.9-.9-21.8-2.1-32.8-3-13.1-1.1-26.2-1.9-39.3-3-10.1-.9-20.2-1.9-30.3-3-3.2-.3-5.7-1.4-7.5-4.6-1.6-2.9-4.1-5.4-6.7-7.6-13.2-11.6-20.9-26.4-25.1-43.1-2.8-11.1-5.7-22.3-6.8-33.6-1.4-13.1-1.3-26.4-1.1-39.6.1-11.1,1.1-22.1,1.9-33.2.9-12.8,2-25.5,3-38.3.7-8.2,1.4-16.4,1.9-24.7.1-1.8-.3-4.4-1.5-5.2-6.5-4.5-5.6-11-5.4-17.4.2-5.2.4-10.4,1-15.6,1.2-10,2.6-19.9,4-29.8,1.3-9.3,2.4-18.6,4-27.8,1.9-10.8,4.1-21.6,6.3-32.4,2.5-12.5,5-24.9,7.7-37.3,2.1-10,4.4-19.9,6.4-29.8,2.6-12.6,5.1-25.2,7.5-37.9,2.1-11.1,3.6-22.4,6.1-33.5,2.5-11.2,5.4-22.4,9-33.3,4.7-14,10.2-27.8,15.6-41.5,5.2-13.4,10.2-26.8,16-39.9,8.5-19.3,16.7-38.9,26.7-57.4,8.3-15.4,15.8-31.9,29.5-43.8,4-3.4,8.9-5.8,13.4-8.6,7-4.4,13.9-9,21.2-13,2.8-1.5,6.3-1.9,9.5-2.2,5.9-.6,11.4-1.8,16.4-5.1,9.8-6.5,21.2-9,32.1-13.1,19.9-7.4,39.7-15.1,59.5-23,5.1-2,9.5-5.8,15.5-5.1,0,0,.9-2.5.5-3.6-3.2-9.2-6.8-18.2-9.9-27.4-3.7-11.3-2.9-23.1-3.1-34.7-.2-12.2,2.8-23.5,8.1-34.2,6.4-12.9,16.4-22.1,30.7-24.7,10.9-2,21.5,1.2,30.6,7.7,4.6,3.3,8.9,7,12.9,11,3.1,3.1,4.7,2.4,6.7-.9,3.6-5.7,7.4-11.2,10.9-17,4.2-6.7,10-10.9,17.6-13.3,16.1-5.1,28.2-15.6,37.4-29.6,5.4-8.2,8.9-17.3,11-26.9,1.2-5.6,3.4-6.6,8.7-6.4,10.9.4,21.8.5,32.7,0,12.3-.6,24.3-3.4,35.2-9,11.4-5.9,23.3-11.4,33.6-19,15.8-11.8,27.4-27.8,36.3-45.2,6.5-12.7,11.1-26.4,12.5-40.8.9-9.4,1.5-18.8,2-28.2.1-2.7,1-4.4,3.7-3.6,1.3.4,3.2,2.2,3.2,3.4,1,18.6-1.7,36.7-7.3,54.4-5.7,18-15.8,33.4-27.7,48.1-13.3,16.5-30.5,27.3-49,36.4-11.3,5.6-23.4,9.3-36.1,10.5-9.4.9-18.8,1.5-28.2,2-2.5.1-5-.7-7.6-.9-2.9-.3-4.2,1-5.1,3.9-3.4,11.7-9,22.4-16.5,32.2-9.3,12.1-20.8,21.4-35.3,25.6-11.5,3.3-15.8,12-21.1,20.7-9.2,15-13.6,31.5-17.1,48.4-3,14.4-1.6,28.8-1.6,43.2,0,9.8,1.4,19.6,2.9,29.2,3.4,23,8.7,45.6,16.3,67.7,5.1,14.9,10.2,29.8,17.7,43.6,6.1,11,12.9,21.7,19.5,32.4,8.9,14.6,19.2,28.1,31.8,39.9,6.4,6,12.4,12.4,18.7,18.6,3.9,3.8,6.8,3.5,9.9-.9,3.8-5.4,7.1-11.2,11.4-16.2,6.9-8,15.9-12.9,26.5-14.3,12.6-1.6,25.2-2.9,37.8-4,9.7-.9,19.5-1.1,29.2-2.1,12.7-1.4,25.3-3.3,37.9-4.9,6.7-.8,13.4-1.4,20.2-2,3.4-.3,6.8-.4,10.1-1.1,1.7-.4,4.1-.9,2.4-4.1-2.6-4.9-4.9-10-7.1-15-1.5-3.4-3.9-4.8-7.5-4.8-4.3,0-8.7.2-13-.1-2.6-.2-5.2-1.1-7.9-1.4-1.7-.2-3.8-.5-4.9.3-.8.5-.2,3-.2,4.6,0,.6.1,1.3.1,1.9-.1,2.2-.2,4.4-.3,6.5-2.2-1.2-5.4-1.9-6.5-3.8-5.2-8.7-.7-24.2,7.9-29.1,2.5-1.4,4.7-1.7,6.3.9,1.3,2.1,1.5,4.2-1.8,5.2-.8.3-1.5,2.5-1.4,3.7.1.8,1.6,1.7,2.6,2.1,7.6,2.9,15.6,2,23.2.8,10.4-1.7,20.8-4.4,30.6-8.1,9-3.5,17.3-9,25.9-13.6.8-.4,1.6-.9,2.4-1.4,2.9-1.7,6.2-3.4,8.2.4.5,1-2,4.7-3.9,5.8-7.5,4.6-15.3,8.9-23.1,13.1-5.6,3-5.8,4.2-3.1,9.6,6.2,12.4,12,25,18,37.5,3.2,6.7,5.4,14.2,9.9,19.8,4.4,5.4,11.1,8.8,16.9,13.1,1.2.9,2.8,1.5,4,2.4,7,5.1,7.2,5,13.2-.8,4-3.9,8.3-7.5,12.3-11.3,16-15.5,29.3-33,40.9-52,13.3-21.9,24.2-44.9,31.4-69.5,4.4-14.8,7.2-30.1,10.4-45.2,3.3-15.8,5.1-31.7,5.1-47.9,0-6.5.7-13.1.9-19.6.4-10.2,1.1-20.5.9-30.8-.3-14.4-.5-28.9-2.1-43.2-1.9-17.7-5.2-35.3-13-51.6-3.9-8.1-6.7-8.8-11.6-8.2-2.6.3-5.2.9-7.8,1.7-8.2,2.5-15.6-.2-22.5-4.1-16.2-9.3-27.4-22.9-33.2-40.7-1-3-1.3-6.1-1.8-9.3-2-14.5-3.5-29.1-6.2-43.5-2.6-13.6-5.8-27.2-10-40.3-4.3-13.2-9.4-26.1-17-37.9-3.3-5.1-6.1-10.6-9.9-15.4-5.3-6.7-12.1-11.9-20.9-12.8-11.3-1.1-17.3,6.8-23,14.8-1.8,2.5-4,6.7-6,6.7-5.2.1-10.4-1.4-14.1-6.4-1.1-2-4.5-3.9-7.6-6.5M446.45,866.9c1.9-4.9-2.3-7.3-4.8-9.5-9.8-8.9-15.1-20.8-20.3-32.2-6.4-14.1-10.4-29.4-14.7-44.4-2.3-8-4-16.3-4.5-24.6-.7-13.1-.4-26.3-.1-39.5.1-3.3,1.8-6.6,2.4-10,.4-2.4,1.1-5.3.4-7.4-2.2-6.1-5.1-11.9-7.6-17.8-8-19-13.9-38.7-19.2-58.5-1.5-5.9-3.6-6.9-9.4-6.3-5.2.5-10.7.5-15.8-.7-13.1-3-22.4-11.7-30.2-22.1-3.7-4.9-7.8-8-14.5-7.2-6.3.8-11.1,4.6-16.7,6.9-19.6,7.9-39.5,14.8-59.3,22.3-9.9,3.8-19.7,8-29.6,11.9-4,1.6-8.2,2.8-12.3,4-2.8.8-5.8,1.2-8.7,2-9.2,2.4-16,9-23.9,13.6-7.3,4.3-14.3,8.3-18.8,15.9-5.4,9.3-11.8,18-16.8,27.6-9.4,17.9-18.5,36-26.8,54.4-7.6,17-13.9,34.6-21,51.8-10.5,25.3-18.6,51.3-23.3,78.3-3.1,17.5-6.5,34.9-10,52.4-3.9,19.7-7.9,39.4-12,59-2.8,13.3-6.2,26.5-8.9,39.8-2,9.7-3.6,19.6-5,29.4-1,7.5-.9,15.2-2.2,22.6-1.9,10.9-3.7,21.7-2.7,32.8.2,2.6,1.6,6.3,3.5,7.3,8.6,4.5,17.3,9,26.5,12,10.3,3.4,21,5.7,29.9,12.2,10.7,7.8,23.2,10.8,35.7,14,6.7,1.7,13.6,3.4,19.8,6.4,3.1,1.5,5.3,1.8,7.9.4,12.6-6.5,25.4-12.8,37.8-19.8,15.1-8.6,29.7-18,41.8-30.7,3.6-3.7,7.1-7.6,11-10.9,16.3-14.1,32.8-27.9,49-42.2,8.9-7.9,17.2-16.4,25.8-24.7.8-.7,1.9-1.1,2.7-1.8,14.6-11.5,29.4-22.7,43.5-34.8,9.9-8.4,18.8-18.1,28.4-27,2.6-2.4,5.9-4.1,9-6.1,1.8-1.2,4.4-1.9,5.4-3.6,10.6-17.8,25.4-32.9,34.9-51.5,7.4-14.4,15.5-28.7,23.7-43.7M570.45,987.9c-5.9,3.9-11.7,7.8-17.7,11.6-11.9,7.7-24.2,14.4-37.9,18.4-7.1,2.1-14.4,4.1-20.8,7.6-10.5,5.7-18.7,14.2-26.1,23.7-11.8,15.1-24,29.9-36.4,44.4-12.8,15-25.8,29.8-39.3,44.2-13.1,14.1-26.7,27.6-40.2,41.3-16.5,16.8-33,33.7-49.5,50.5-4.4,4.4-9.3,8.4-13.7,12.8-5.9,6-11.4,12.4-17.4,18.2-5.4,5.2-11.4,9.7-16.7,15-3.9,3.8-6.9,8.5-10.7,12.5-15,15.8-29.8,31.8-45.3,47.1-10.7,10.6-25.2,13.6-39.1,17.7-1.4.4-2.5,1.4-3.8,2.1,1.7.6,3.3,1.7,5,1.8,2.5.1,5.1-1,7.6-.8,4.9.4,9.8,1.5,14.7,1.9,9.7.8,19.4,1.4,29.2,2,4.5.3,9.1.6,13.6,1,13,1.3,25.9,2.8,38.8,3.9,9.5.9,19.1,1.2,28.7,2.1,12.8,1.2,25.6,2.7,38.3,3.9,11.2,1.1,22.5,2,33.8,3,15.4,1.3,30.9,2.6,46.3,4,10.9,1,21.8,2,32.8,3,11.9,1,23.8,2,35.8,3,11.1,1,22.2,2.1,33.3,3,13.4,1.1,26.8,2,40.3,3,4.5.3,9.1.6,13.6,1,15.3,1.3,30.6,2.8,45.8,3.9,5.3.4,7.3-1.5,7.6-6.9.5-9.4.4-18.7,1.1-28.1,1.1-15,2-30,4.1-44.8,2.2-15.3,5.2-30.4,5-46,0-5.9,1.6-12.3,4-17.8,4.3-9.9,10.2-19.1,14.6-28.9,5.5-12.1,10.3-24.4,15.1-36.7,4.4-11.2,8.5-22.5,12.5-33.8,1.5-4.3,2-8.2-1.2-12.8-4.9-6.9-8.6-14.7-12.2-22.4-5.5-11.7-7.7-24-6.2-37.2,1.4-12.7,15.4-26.8,28.3-26.5,8.4.2,16.8,1.4,25.2,1.8,1.2.1,3.3-1.5,3.6-2.6,3.5-14.9,6.7-29.9,10.2-44.8.8-3.4,1.8-5.4-3.1-5.7-1.4-.1-3.1-2.9-3.9-4.8-.9-2.2-.4-4.8-1.2-7-.7-1.8-2-4.1-3.6-4.7-2.4-.9-5.3-.3-6.3,2.9-.7,2.2-1.2,4.5-2,6.7-1,2.7-1.9,5.7-5.7,5.3-6.1-.7-3.6-6-3-8.1,3.1-9.5,6.8-18.8,10.8-28,2-4.6,8.1-5.8,11.1-1.9,3.1,4.1,5.4,9.2,6.6,14.2,1.3,5.5.8,11.3,1.3,17,.1.9,1,1.8,1.5,2.7.5-.8,1.2-1.6,1.4-2.4.5-3,.4-6.1,1.1-9.1,3.1-13.9,6.4-27.7,9.5-41.5,1-4.5,2.6-9.5,1.8-13.8-1.5-7.7-4.4-15.1-7.5-22.3-1.9-4.5-.2-6.7,3.1-8.8,2.8-1.7,5.7-3.2,8.4-5,.5-.3.5-2.3,0-3-4.7-5.8-9.7-11.2-14.3-17.1-2.5-3.3-4-7.4-6.6-10.7-1.1-1.4-4.1-2.4-5.9-2-1.2.3-1.9,3.3-2.5,5.2-.8,2.5-1,5.3-2.1,7.6-1.4,3.1-.8,5,1.2,7.8,9.7,12.8,4.8,29.1-7.8,36-9.7,5.3-20.1,3.7-29.3-2.4-3.8-2.5-7.2-2.8-11.3-1.7-11.3,2.9-22.7,5.4-34,8.4-5.5,1.5-11.9,1.6-15.7,6.5-5.9,7.6-11.2,15.7-17.1,23.4-9.6,12.3-19.4,24.4-29.6,37M219.45,1118.9c-4.5,4.1-8.6,8.7-13.5,12.3-8.8,6.5-17.8,13-27.3,18.5-11.6,6.8-23.8,12.5-35.7,18.7-8,4.2-16.1,8.1-23.7,12.8-13.5,8.3-26.6,17.1-39.9,25.6-4.6,2.9-8.7,2.7-10.2-.3-1.1-2.3,2-6.4,5.9-8.3,4.6-2.3,9.1-4.8,13.4-7.4,9.7-5.9,19.4-12,29-18,.6-.4,1.5-1.4,1.3-1.8-.2-.8-1-1.7-1.8-2-2.7-.8-5.5-1.3-8.1-2.1-11.4-3.5-23-6.4-34-10.8-8.4-3.3-16-8.7-24.2-12.8-3.4-1.7-7.5-1.9-11.1-3.3-6-2.4-11.9-5.2-17.8-7.7-4-1.7-5.6-.6-5.8,3.8-.2,4.5-.6,9.1-1,13.6-1,13.1-2.2,26.2-3,39.3-.9,14.9-1.4,29.8-2,44.7-.1,1.3,0,2.6-.1,4-.3,5.9-1.5,11.9-.7,17.6,1.4,10.6,3.4,21.1,5.9,31.5,3,12.3,5.4,25.1,13.1,35.5,4.4,6.1,9.6,12.7,16,16,15.3,7.9,32.4,10.9,49.6,11.7,21.6,1.1,43.3.6,64.4-5.1,9.3-2.5,19.4-5.3,26.8-10.9,11.8-8.9,21.9-20.1,32.3-30.7,11.3-11.5,22-23.6,33.4-35.1,8.2-8.3,17.2-15.7,25.6-23.8,5.2-5,9.9-10.6,14.9-15.8,5.3-5.5,10.8-10.8,16.2-16.2,18.3-18.6,36.6-37,54.7-55.8,17.6-18.3,35.1-36.7,52.3-55.4,6.4-7,12.1-14.6,18.1-22,6.3-7.9,12.4-15.9,18.8-23.7,4.9-6,9.7-12.1,14.9-17.8,9.2-9.9,19-19,32.1-23.7,13.4-4.7,27.4-7.6,39.7-15.3,13.6-8.6,28-15.7,37.4-30.1,10.1-15.4,22-29.6,32.9-44.4,3.3-4.5,7.2-7.8,12.7-9.2,14.5-3.7,29-7.2,43.4-11.1,6.9-1.8,13.1-1.3,19,3,2.3,1.7,5.2,2.8,7.9,3.7,4.1,1.5,13.2-.7,15.2-3.7,3.8-5.6,7.4-11.7,2.7-18.3-3.6-5.1-8.4-9.5-12.2-14.5-5.4-7.2-12.9-11.7-21.1-14-7.8-2.2-16.1-3.3-24.2-3-13,.5-26,2.1-38.8,3.9-4.7.7-9.7,2.8-13.6,5.5-5.1,3.5-9.2,8.4-13.9,12.4-1.1.9-3.5,1.7-4.3,1.1-1.6-1.2-4-2.3-2.1-5.8,4.6-8.5,11.8-14.8,20-18,10.5-4.1,22.2-6.2,33.5-7.1,12.9-1,26,.3,39.1.7,2.7.1,5.8-.1,8,1.1,8.4,4.9,17.9,8.4,23.6,17,.5.7,1.3,1.3,2,1.9.5-.7,1.4-1.4,1.5-2.1.4-4,1.5-8.3.6-12.1-1.7-7.3-4.2-14.6-7.2-21.5-4-9.2-8.4-18.3-13.2-27-3.7-6.8-10.6-8.8-17.9-8.2-5.8.5-11.7,1.2-17.2,3-20.3,6.5-40.4,13.5-60.6,20.3-4.7,1.6-9.4,3.2-14.1,4.4-1.1.3-3.6-.8-3.7-1.4-.1-1.8.3-3.9,1.3-5.3.7-1.1,2.6-1.6,4-2.2,14.6-5.7,29.1-11.9,44-16.9,14.4-4.8,29.2-8.3,44.3-10.2,11.6-1.5,21,1.8,27.2,11.8,5.1,8.3,9.5,17,13.8,25.8,2.8,5.8,5.6,11.8,6.9,18.1.9,4.5,2.6,5.7,6.7,5.5,5.2-.3,9.2,1.7,11.7,6.5s4.9,9.8,8,14.2c3.3,4.7,6.6,10.1,13.7,9.2,7.2-.9,13.5-3.9,17.9-9.5,1.6-2,2.1-6,1.3-8.6-1.9-6.3-5-12.3-7.1-18.5-.9-2.6-.2-5.6-.6-8.4-.8-5.6-4.1-9.9-7.1-14.6-6.4-10.3-15-18.2-24.2-25.6-3.8-3-7.7-7.1-13.3-2.8-.7.6-2.7-.5-4.1-.7-6.2-1.1-12.4-2.2-18.7-3.2-9.6-1.5-19.1-3.2-28.7-4.2-6.4-.6-12.9-.3-19.4-.1-7,.2-14,1-21,1.2-3.5.1-7.2-1.4-10.6-.8-15.2,2.8-30.5,3.2-45.8,2.7-1.9-.1-4.1-2.2-5.3-4-.4-.5,1.6-3.4,3.1-4.4,1.2-.8,3.2-.5,4.8-.4,2.4.2,4.8,1.1,7.1.9,10.1-.8,20.2-2.2,30.3-2.8,10.7-.7,21.4-.8,32.1-1,8.6-.2,17.1-.3,25.7.1,5.7.3,11.3,1.6,16.9,2.5,7.5,1.1,15.1,2.3,22.6,3.3.9.1,2-.7,3-1.1-.7-.6-1.4-1.3-2.1-1.8-1.7-1.1-3.5-2-5.2-3.2-8.4-6-16.6-12.1-25.1-18-4.3-3-8.8-5.8-14.5-4.9-8.8,1.4-17.5,2.9-26.3,4-10.1,1.2-20.2,2.1-30.3,3-14.8,1.4-29.6,2.6-44.3,4-9.4.9-18.9,1.7-28.2,3.1-5.3.8-10.7,2.4-15.6,4.5-8.3,3.6-13,10.9-17.6,18.3-7.3,11.7-15.1,23.1-22.5,34.7-5.3,8.3-10.2,16.7-15.2,25.2-8,13.5-15.9,27-23.7,40.7-7.2,12.7-13.5,25.8-21.2,38.2-7.3,11.6-15.6,22.6-23.8,33.6-4,5.3-7.5,11.5-15.2,12.5-1.1.1-2.2,1.2-3.1,2.1-10,9.6-19.7,19.5-30,28.8-8,7.2-16.6,13.6-25.1,20.3-7.5,5.9-15.5,11.3-22.6,17.7-12.2,10.9-23.8,22.3-35.7,33.5-5.1,4.9-10.2,9.8-15.5,14.5-10.4,8.8-20.8,17.3-31.6,26.4M1204.95,1085.4c-3-7.8-6.2-15.4-9-23.3-4.4-12.4-8.4-24.9-12.6-37.3-3.4-10.1-6.8-20.2-10.5-30.1-2.1-5.8-4.7-11.4-10-15.4-11.5-8.6-22.9-17.3-34.2-26.1-19.3-15.1-38.4-30.4-57.7-45.5-1.3-1-3.7-1.8-5-1.2-3.7,1.6-5.8,10-4.2,13.8,1.2,3,2.6,6.1,3,9.2,1.8,16.4-9.3,31-22.7,36.8-15.1,6.5-33.3-.6-37.3-15.5-4.6-17.2,5.3-35.9,22.6-42,2.3-.8,4.9-2.3,6.1-4.3,2.8-4.4,4.3-9.8,7.5-13.8,4.4-5.2-.5-6.8-2.8-8.8-5.3-4.6-11.1-8.6-16.6-12.9-9-6.9-18-13.8-26.8-20.9-2.3-1.9-3.3-1.6-3.9,1.1-.3,1.4-.8,2.7-1,4.1-1.4,8.9-2.6,17.9-4,26.8-1.9,11.7-4,23.3-6,35-1.2,7-2.6,13.9-3.8,20.9-1.5,8.9-2.9,17.8-4.2,26.7-1.1,7.2-2,14.5-3.2,21.7-1.8,11-3.8,22.1-5.8,33.1-1.3,7.6-2.7,15.2-4,22.8-1.1,6.6-2.2,13.1-3,19.8-.8,7.6,3.3,13.8,5.9,20.5,8.5,21.7,16.9,43.3,25.4,65,6.5,16.6,13.1,33.2,19.6,49.8,6.9,17.5,13.8,35,20.6,52.4.9,2.3,1.6,3.5,4.9,2.1,14.5-6.3,29.2-12.2,44-18.1,25.4-10.2,50.9-20.3,76.4-30.4,13.2-5.2,26.4-10.4,39.5-15.6,12.3-4.9,24.5-10,36.8-15,2.9-1.2,4.8-2.9,3.8-6.1-1.1-3.7-2.6-7.2-4-10.9-3.3-9-6.8-17.9-10-26.9-4.5-13.3-9.1-26.9-13.8-41.5M739.45,1137.9c-8.8,3-17.5,6.1-26.3,9-8.1,2.7-8.1,2.8-4.9,10.9,8,20.4,15.9,40.7,23.7,61.2,7.9,20.9,15.5,41.9,23.4,62.8,8.1,21.5,16.5,42.8,24.6,64.3,1.6,4.2,3.7,4.7,7.3,3.1,4.1-1.8,8.2-3.6,12.3-5.2,10.6-4.3,21.1-8.6,31.7-12.8,3.2-1.3,4.9-3,2.7-6.5-.5-.8-.8-1.7-1-2.6-2.6-9.8-5.1-19.5-7.7-29.3-.8-3-1.9-6-2.3-9-.9-6.2,3.9-7.8,8.3-9.8,21.1-9.3,42.2-18.8,63.3-28.2,7.1-3.2,10-2.2,12.3,4.8,4.2,12.8,7.9,25.7,12.2,38.5.8,2.3,1.6,6.2,5.8,4.5,5.5-2.1,10.9-4.4,16.3-6.5l45-18c10.3-4.1,20.5-8.3,30.8-12.5,2.2-.9,3.7-1.7,2.2-4.9-3.1-6.8-5.5-14-8.3-21.1-7.3-18.5-14.7-36.9-22-55.4-8.5-21.6-17-43.3-25.3-65-4.7-12.1-9-24.3-13.8-36.3-.9-2.2-2.6-5.3-6.7-3-3.3,1.8-7.3,2.3-11,3.5-36.2,11.9-72.5,23.7-108.7,35.7-27.6,9.1-55.2,18.5-83.9,27.8M781.95,989.4c-.5-2.1-.9-4.3-1.4-6.4-1.1-4.9-3.9-9.8,1.7-14.1.7-.5.2-3.2-.4-4.6-3.9-8.1-7.9-16-12-24.1-4.9-9.8-5-9.9-15.9-7.2-1.5.4-3.4,2.4-3.8,4-2.2,8.3-3.9,16.7-5.8,25.1-2.8,12.2-5.6,24.4-8.3,36.6-2.9,13.1-5.7,26.3-8.7,39.4-2,9.1-4.3,18.2-6.3,27.4-3,13.3-5.9,26.5-8.9,39.8-2.1,9.5-4.3,18.9-6.1,28.5-1.1,6.1-.8,6.1,5,4.2,34.9-11.5,69.9-22.8,104.8-34.3,22-7.2,43.9-14.6,65.9-21.9,19.3-6.4,38.7-12.7,58.1-19.2,3.1-1,7.2-1,8.2-5.2.6-2.6.7-5.4,1.1-8.1,1.3-8.9,2.5-17.9,4-26.8,1.9-11.4,4.1-22.7,5.9-34,1.5-8.9,2.6-17.9,4.1-26.8,1.9-11.7,4-23.3,6-35,1.5-8.7,2.7-17.5,4.2-26.3,1.9-11.5,3.8-23.1,5.9-34.6,1.1-6,2.4-12,3.7-18,.2-1,.3-2.1.5-3.1-1.1.1-2.3,0-3.3.3-9,3.6-17.9,7.4-27,10.9-19.2,7.5-38.5,14.8-57.7,22.3-15.8,6.2-31.5,12.5-47.3,18.7-14.5,5.7-28.9,11.5-43.5,16.9-4.8,1.8-5.3,3.9-3.1,8,5.1,9.5,10,19.2,14.9,28.8,3.2,6.3,3.1,6.1,10,3.7,3.4-1.2,7.2-4.7,10.7-.7,1.9,2.1,3.2,5,3.9,7.8,4.2,15.3,8.5,30.6,11.9,46,2.7,12.2,2.8,12.4-8.2,16.2-13.6,4.6-27.6,8.2-41.4,12.3-8.8,2.6-10.2.7-12-7.1-3.2-12.9-4.1-26.3-9.4-39.4M864.45,1396.9c-6.4,7.1-14.2,12-23.2,15.3-.9.3-1.6,1.6-2.3,2.4,1,.4,1.9,1.2,3,1.3,4.7.4,9.4.7,14.1,1.1,11.4,1,22.8,2,34.2,3,11.2,1,22.5,2,33.7,3,11.7,1,23.5,2,35.2,3,11.2,1,22.5,2.1,33.7,3,9.7.8,19.4,1.3,29.2,2,4.2.3,8.4.6,12.6,1,13.1,1.3,26.2,2.8,39.3,3.9,9.7.9,19.4,1.3,29.2,2.1,4.9.4,9.8,1.5,14.7,1.9,3,.3,6.4,1,8.1-2.8,1.8-4.1,3.4-8.3,5.6-12.2,7.7-13.8,11.6-28.7,12.3-44.4.6-16,.4-31.9-2.7-47.8-1.8-9.3-1.1-19.1-3.4-28.2-4.1-15.9-6.1-32-7.7-48.2-1-10.3-1.4-20.8-2-31.2-.2-2.7-.2-3.9-3.7-2.4-9.5,4-19.3,7.4-28.8,11.2-32.4,13-64.8,26.1-97.2,39.2-3.6,1.5-7.5,2.7-9,7-1,2.6-2,5.2-3.2,7.7-6.6,13.2-12.7,27-23.7,37.1-13.3,12.2-27.2,23.7-41.6,34.6-12.7,9.7-26.4,18.1-39.8,27-5.4,3.5-10.8,6.6-16.6,10.4M773.95,787.4c-4.8,4.8-9.7,9.6-14.4,14.6-.8.9-1.4,3.2-.9,4,3.7,5.4,8,10.3,11.4,15.8,2.2,3.5,4.7,7.7,4.6,11.5-.3,8.9,3.2,16.2,6.7,23.8,2.7,5.9,3.2,12.4-.4,18.5-.4.7-.1,1.8-.2,2.7.8,0,1.7.1,2.4-.2,8.6-3.7,17.2-7.6,25.9-11.2,12.2-5.1,24.4-10.2,36.8-15,16.4-6.4,33.2-11.7,49.2-18.9,21.6-9.7,43.9-17.2,66.4-24.3,2.6-.8,4.5-2.3,2.6-6-7.5-14.7-14.4-29.7-22.1-44.3-4.3-8.1-9.3-16.1-15.2-23.1-7.9-9.5-19.1-14.9-29.9-20.4-9.4-4.8-19.4-8.6-29-13.2-6.4-3.1-12.3-7.2-18.7-10.3-7.9-3.8-9-3.1-12.4,4.1-4.5,9.5-9,19-14.2,28.1-10.8,19-22.6,37.2-38.4,52.6-3.5,3.5-6.5,7.2-10.2,11.2M913.95,1353.4c6.3-4.8,12.7-9.6,19-14.5,11.7-9.1,23.5-18.1,31.4-30.9,4.8-7.7,9.5-15.4,14.1-23.2.5-.9.5-2.1.8-3.1-1.1.1-2.3-.2-3.2.2-21.6,8.9-43.2,18.1-64.8,26.9-25.3,10.2-50.6,20.2-76,30.2-16,6.4-32,12.8-48.1,19-6.4,2.5-12.6-.4-15-6.5-.8-2.1-1.4-4.4-2.2-6.6-6.3-16.7-12.7-33.4-19-50.1-6.7-17.6-13.4-35.1-20-52.7-4.2-11.3-8-22.7-12.1-34-.3-.9-1.6-1.5-2.5-2.3-.3,1-.7,2.1-.7,3.1-.1,1.1.2,2.2.3,3.4.7,16.1,1,32.1,2.2,48.1.5,6.7,1.7,13.5,4,19.8,7.4,20.5,12.8,41.4,18.1,62.5,2.1,8.4,5.4,16.9,10,24.2,4.1,6.4,10.4,11.6,16.3,16.6,6.3,5.4,13.6,9.6,21.8,11.1,12.7,2.3,25.4,5.1,38.4,3.1,7.2-1.1,14.9-1.1,21.3-4,12.3-5.5,24-12.2,35.5-19.3,10.3-6.1,20-13.5,30.4-21M639.95,1368.4c.8,5.2,1.3,10.4,2.5,15.4,2.1,8.4,5.6,14.9,16.2,15.3,14.5.5,28.9,2.5,43.3,3.8,8.2.7,16.4,1.3,24.7,2,13.1,1.3,26.2,2.8,39.3,3.9,9.7.9,19.4,1.3,29.1,2.1,4.4.4,8.8,1.3,13.2,1.8,8.1,1,15.8-.9,23.2-4,.6-.3,1-1.2,1.4-1.9-.8-.3-1.6-1-2.3-.9-2.5.2-5.1.9-7.6.9-6.9-.2-13.7-.4-20.6-1-13.9-1.2-27.3-3.9-38.6-12.9-8.5-6.8-17.3-13.2-23-23-6.1-10.7-8.6-22.5-11.9-34.1-2.9-10.2-4.9-20.6-8.2-30.6-5.3-16.1-12.4-31.8-10.9-49.5.3-3-1.6-2.2-3.1-1.2-1.1.7-2,1.7-3,2.3-5.2,3.1-11,5.5-15.5,9.5-10.5,9.3-20.8,18.9-30.1,29.2-5.4,5.9-10.3,13.1-12.8,20.6-3.2,9.6-4.1,20.1-5.2,30.3-.7,7-.1,14-.1,22M1150.95,1337.4c.7,7.7,1.6,15.4,2,23.2.9,17.2.2,34.3-5.8,50.6-3.2,8.8-7.6,17.2-11.6,25.7-1,2.1-2.5,3.8,1.6,4.1,9.3.8,18.5,2.1,27.8,2.9,9.7.8,19.4,1.4,29.2,2,4.4.3,8.7.6,13.1,1,9.8,1,19.5,2,29.3,3,3.3.3,3.8-1,2.3-3.8-1.3-2.4-2.5-5-3.8-7.4-7-13.4-13.8-27-21.1-40.3-6.1-11.2-13.1-21.9-18.9-33.2-8.3-15.9-12.5-33.2-17-50.4-5-19.3-9.5-38.7-15.2-57.7-3.8-13-9-25.6-14-38.2-1.1-2.9-3.3-5.5-7.6-3.1-5.2,2.9-6,4.4-5.3,10.8,1.5,13.3,2.6,26.6,4.1,39.8.9,7.7,2,15.5,3.2,23.2,1.8,11.7,3.8,23.4,5.8,35.1.6,4,1.3,7.8,1.9,12.7M1102.95,858.4c.7,6.4.8,12.9,2.2,19.1.9,4.1,3.7,7.8,5.8,11.5,1.5,2.5,1.6,5-1.1,6.1-1.4.6-4.2-.1-5.3-1.3-2.4-2.6-4.4-5.7-6.1-8.9-3.7-7.3-5.9-14.9-4-23.3.2-.8-.3-1.9-.5-2.8-.7.5-1.7.9-2.2,1.6-6.5,9.8-13,19.6-19.4,29.4-1.7,2.6-2.6,5.1.6,7.6,6.4,5,12.7,10.3,19.1,15.4,9.6,7.6,19.4,15.1,29,22.7,10,8,20,16.1,30.1,23.9,1.8,1.4,3.9,2.6,4.9-1.7,1.8-8.5,4.4-16.8,6.6-25.2,3.1-12,3.8-24.1-.9-35.8-4-9.8-8.6-19.5-13.4-28.9-4.7-9.1-4.8-19.1-5.1-28.7-.2-6.1,3.5-12.4,5.4-18.6,2.2-7.1,5.1-14.2,2.2-21.7-3.2-8.4-10.1-11.7-15.4-6-2.1,2.2-3.8,4.7-5.5,7.2-8.9,12.6-16.8,25.8-22,40.3-2,5.7-3.3,11.5-5,18.1M365.45,610.9c.9-.3,1.7-.9,2.6-1,5.5-.4,6.8-1.9,5.9-7.2-.7-4.2-1.6-8.4-2-12.7-.8-9.4-1.9-18.8-2-28.1-.2-24.8-2.3-49.9,8-73.6,1.3-3,.5-4.9-1.3-7.2-6.7-8.9-15.6-14.6-25.7-18.6-10.4-4.2-27.2.1-34,8.8-9.5,12.2-12.8,26.7-14,41.6-.9,11.3,1.5,22.3,3.9,33.3,3.8,17.6,12.6,32.8,23.7,46.6,8.6,10.5,20.3,16.4,34.9,18.1M635.95,1308.4c-.3,1-1,2.1-.9,3.1,0,1.5.5,2.9.8,4.4.8-1.2,1.7-2.4,2.3-3.7,4-10.2,9.7-19.4,17.4-27.3,14-14.3,28.2-28.6,46.6-37.2,6.2-2.9,6.7-5.7,6.2-11.7-.9-10.9-.2-22-.3-33,0-2.7-1.5-5.7-.8-8,1.4-4.1-.5-6.9-2.4-9.8-5.5-8.6-11-17.1-16.6-25.6-.6-1-1.4-1.8-2.2-2.8-.7,1.3-1.5,2.5-2,3.8-1,2.8-1.7,5.6-2.8,8.4-4,10.1-8,20.4-12.4,30.3-5.4,12.3-10.7,24.6-17,36.4-6.4,12.1-12.2,24.2-12.8,38.2-.2,5.5.4,11.1-.1,16.6-.6,5.8-2,11.3-3,17.9M876.95,850.4c-2.9.9-5.9,1.8-8.8,2.8-17.3,6.6-34.6,13.1-51.8,19.8-9.9,3.9-19.6,8.2-29.4,12.3-1.9.8-4.2,1.6-2.6,4.5,2.5,4.6,5.2,9.2,7.5,13.9,1.6,3.3,3.9,3.9,7.1,2.6,27.1-10.5,54.3-20.9,81.4-31.5,32.4-12.6,64.8-25.4,97.2-38.1,3.3-1.3,4.3-3.3,2.2-6.6-1.8-2.9-3.7-5.8-4.8-9-2.1-6-2.3-6.3-8.4-4.5-4.4,1.3-8.9,2.8-13.3,4.2-11.1,3.6-22.5,6.9-33.4,11.1-14.2,5.7-28.2,12-42.9,18.5M1090.95,819.4c1.3-6.2-2.4-11.3-4.1-16.8-.3-.8-2-1.5-3.1-1.6-13.1-1.5-24.6-7.4-36.1-13-8.9-4.4-17.2-10-26-14.6-3.4-1.8-7.8-3.9-11-3.1-8.5,2.2-17.7,9.5-18.8,20.4-.9,8.5-1.9,17.1-4.2,25.3-1.5,5.3.2,9.6,1.4,14.3.2.8,2.8,2,3.2,1.7,6.1-5.3,12.8-8.9,21.2-8,.5,0,1-.5,1.5-.8-.4-.4-.7-.8-1.1-1.2-3.3-3.2-6.5-6.5-10-9.5-2.7-2.3-2.3-4.6-.2-6.5,2.2-2,4.8-1.4,6.8.9,1.8,2.1,3.4,4.3,5.4,6.1,7.8,6.6,17.2,10.4,26.6,14.1,9.1,3.6,17.9,7.9,28.1,7,7.3-.8,18.1-6.2,20.4-14.7M887.95,1308.4c6.8-2.8,13.6-5.9,20.5-8.4,3.6-1.3,4.1-2.9,3-6.2-3.9-11.9-7.6-23.8-11.5-35.7-.9-2.8-2.9-4.1-6-2.7-6.8,3.2-13.7,6.4-20.6,9.4-11.7,5.2-23.5,10-35.1,15.4-3,1.4-6.4,2.7-4.5,8.3,3.5,10.4,5.6,21.3,8.2,32.1.9,3.8,2.4,5.3,6.4,3.5,5.2-2.3,10.6-4.2,15.9-6.2,7.7-3,15.5-6,23.7-9.5M424.95,734.4c-3.7-6.1-7.3-12.3-11-18.4-.4-.7-1.1-1.3-1.7-1.9-.4.8-1.2,1.6-1.2,2.5-.4,4-1,8-1,12.1.1,7.7.2,15.4,1,23,1.1,9.8,2.1,19.6,4.5,29.1,2.8,11.2,6.3,22.3,10.5,33.1,5.3,13.7,11.9,26.8,22.1,37.8,3.9,4.2,4.1,4.1,7.4-.8,1-1.4,2.1-2.8,3.2-4.2,3.8-5,4.8-9.3.4-15.2-10.7-14.3-15.9-31.6-23-47.8-5.2-11.8-9.2-24.3-8-37.6.4-4.4.2-7.9-3.2-11.7M707.95,1082.4c1-4.2,1.5-8.7,3.1-12.7,2-4.7-1-6.3-4-6.7-6.5-.9-13-1.2-19.5-1.1-8.7.2-16.9,6.2-19.7,14.5-4.4,13.3-.8,25.7,4.8,37.4,5.9,12.4,13.2,24.2,19.9,36.2,1.2,2.2,2.2,4.4,3.6,6.5.6.9,1.8,1.3,2.8,1.9,0-1.2.5-2.7-.1-3.6-3.4-6.1-4.4-12.6-2.9-19.4,4-17.3,8-34.7,12-53M1097.45,825.9c-3.4,3.7-6.2,8.5-10.3,10.9-5.7,3.3-9.9,7.4-12.8,13.2-1.2,2.4-2.6,4.6-3.9,6.9-8.5,14.8-17.1,29.6-25.3,44.5-.9,1.6.1,4.2.2,6.4,3.1-.9,6.7,4,9.7-1.2,10.3-17.9,20.8-35.7,31.3-53.5,7.9-13.4,15.7-26.9,24.1-40,10.8-16.9,21.4-33.9,30.5-51.9,7.4-14.6,14.7-29.2,22-43.9.3-.5.1-1.8-.3-2-3.1-2-13,.1-14.7,3.3-4.5,8-8.7,16.1-13.2,24-3.5,6.1-7,12.2-11.1,17.9-1.7,2.3-1.6,3.1.2,5.1,2.7,3,4.8,6,3.3,10.9-3.4,11.1-10.8,17.7-21.2,21.5-3.6,1.3-8,8-6.9,11.2,2,5.6.9,10.9-1.6,16.7M833.95,970.4c-1.4-6.8-3.1-8.5-6.9-7.1-11.2,4.2-22.5,8.3-33.7,12.7-1.8.7-4.4,3.3-4.1,4.4,2,8.6,4.5,17,7.2,25.4,1.1,3.4,3,4.7,7.3,3.2,11.1-3.9,22.4-7.4,33.8-9.9,3.9-.9,3.7-2.6,3.2-4.7-2-7.6-4.4-15.3-6.8-24M783.95,949.4c2,4.2,3.9,8.4,6,12.5,1.9,3.7,4.5,5.1,8.6,3,2.7-1.4,5.6-2.8,8.5-3.5,3.8-.9,3.5-3.1,2.3-5.5-5.4-10.6-11-21.1-16.5-31.6-6-11.4-11.9-22.7-17.9-34.1-1.8-3.4-3.8-5.8-8.2-2.8-2.2,1.5-5.2,2-7.9,2.5-2.6.4-3.5,1.4-2.6,3.9.6,1.7,1.3,3.5,2.1,5.1,8.4,16.7,16.8,33.3,25.6,50.5M1012.95,946.4c.6,6.3,7.6,13.6,15.5,13.5,10.8-.1,18.6-4.7,24-14,4.3-7.4,5.3-15.2,1.1-22.6-4-6.9-10.6-8.9-18.9-7.6-12.5,2.1-24.8,17.2-21.7,30.7M453.45,800.9c3.9,8.2,7.7,16.5,11.7,24.6.9,1.7,2.7,2.9,4,4.4.6-1.5,1.2-3.1,1.9-4.6.4-.8.9-1.6,1.4-2.4,3.8-5.8,7.7-11.5,11.2-17.4.7-1.1.5-3.8-.4-4.7-4.6-4.7-9.8-8.8-14.3-13.6-9.7-10.4-19.1-21-28.7-31.5-.6-.7-1.4-1.1-2.1-1.7-.4,1-1,1.9-1.2,3-.1.7.6,1.4.8,2.1,3.5,14.5,8.6,28.2,15.7,41.8M1116.45,778.9c.7-1.9,2.6-4.9,2-5.6-1.8-2-4.6-4.2-7-4.2-7.9.1-15.9.4-23.6,1.9-10.2,2-20.1,5.1-30.1,7.9-.8.2-1.3,1.7-1.6,2.6-.1.2,1.2.9,1.9,1.3,2.8,1.3,5.6,2.6,8.4,3.9,9.6,4.5,19.3,7.7,30.1,4.2,7.3-2.3,15.3-3.5,19.9-12M1024.45,836.9c-6-5.4-12.8-5.9-20.1-3-5.5,2.3-6.3,5.6-1.7,9.1,13.9,11,27.9,21.9,41.9,32.8,1,.8,3.4,1.1,4.2.4.9-.7,1.2-3,.7-4.2-1.2-3-2.8-5.9-4.6-8.6-5.8-9.1-10.9-19-20.4-26.5M704.45,764.9c1.2.8,2.4,1.6,3.5,2.5-.3-1.6-.3-3.4-.9-4.8-5.6-12.2-11.4-24.3-17.1-36.4-4.6-9.7-4.1-11.3-14.3-7.5-.7.3-1.6.2-2.4.3-2.9.1-4.3,1.1-2.7,4.2,2.2,4.4,4.2,8.9,6.3,13.4,3.2,6.7,6,13.5,13.3,17.4,5.1,2.7,9.3,6.9,14.3,10.9M1063.95,767.4c4.8-1.2,9.7-2.2,14.5-3.6,1.2-.4,3.2-1.9,3.1-2.7-.6-3.7-8.7-7.8-12.3-6.2-9.6,4.5-19.1,9.2-28.5,14-.9.4-1.7,2.2-1.5,3.1.2.8,1.9,1.7,2.9,1.7,1.5.1,3.1-.5,4.6-.9,5.5-1.5,11.1-3.2,17.2-5.4M1058.45,841.9c-1.1-.1-2.3,0-3.3-.4-5.3-2.1-10.5-4.5-15.7-6.6-1.1-.4-2.5-.2-3.7-.2.5.9.8,2,1.5,2.8,1.9,2.3,4.2,4.2,5.8,6.6,3.9,5.8,7.4,11.9,11.1,17.8.5.8,1.2,1.6,2,1.8.5.1,1.5-.7,1.9-1.3,2.9-5.1,5.6-10.3,8.5-15.4,1.3-2.3.8-3.6-1.8-4.2-1.9-.2-3.6-.5-6.3-.9M834.95,1009.4c-10.9,2.9-21.8,5.8-32.8,8.8-3.9,1-3.8,4.3-3,7,.3,1,3.7,2,5.3,1.5,11-3.4,21.9-7.2,32.9-10.7,3-1,8-.7,7.2-5-.9-5.4-5.7-2.4-9.6-1.6M746.45,901.9c-3.3,1.5-4.2,3.3-2.7,7.1,2,4.7,2.7,9.9,4.2,14.7.5,1.4,1.2,4.6,4.1,1.6,1.1-1.1,3.2-1.4,4.4-2.5,1.1-1,2.6-3,2.3-3.8-2.4-5.3-5.1-10.5-8-15.6-.4-.9-2.1-1-4.3-1.5M629.95,1385.4c0,1.8.2,3.7,0,5.5-.7,4.1.3,6.8,5.1,6.5.8,0,1.6-.3,2.4-.4-.1-.6-.3-1.2-.4-1.8-1-4.1-2.2-8.1-3-12.2-.9-4.5-1.3-9.1-2.1-13.6-.2-.9-1.3-1.6-1.9-2.4-.3.8-1,1.5-.9,2.3.1,5,.5,10.1.8,16.1M713.95,976.4c.7-1,1.7-2,1.9-3.1.1-.7-1.1-1.6-1.7-2.4-1,1.6-2.1,3.1-3.1,4.7.8.4,1.6.9,2.9.8Z"/>
  <path class="cls-1" d="M1956.95,1071.9c1,4.4,2.4,8.3,2.9,12.3,1,8.2,1.3,16.4,2.1,24.7,1.2,12.8,2.5,25.6,4,38.3,1.4,12,3.4,23.9,4.9,35.9,1.5,12.4,3.1,24.9,3.9,37.3.8,12,.8,24,1.1,36.1.3,10.7.5,21.4,1.1,32.1.3,5.7,1.6,11.4,1.7,17.2,0,2-2,4.1-3.2,6.1-1.6-1.6-3.7-3-4.5-5-1.2-3-2-6.4-2.1-9.6-.8-25.9-.9-51.8-2.3-77.7-.8-13.9-3.8-27.7-5.8-41.5-1.1-7.9-2.2-15.8-3-23.8-1.5-14.9-2.3-29.9-4.2-44.8-1.8-14.3-4.7-28.4-6.8-42.6-1.3-8.4-1.8-16.9-3.1-25.2-2.1-13.4-4.3-26.8-6.9-40.2-3.1-16.1-6.7-32.2-10.1-48.3-5-24.4-10-48.8-15-73.3-4.7-23.2-9.1-46.5-14.1-69.7-3.2-14.6-7-29-11-43.4-4.1-14.8-8.3-29.5-13.1-44.1-2.1-6.5-5.9-12.4-11.9-16.5-9.1-6.2-17.9-12.9-27.2-19-4.2-2.8-9.2-4.4-13.6-6.8-8-4.4-15.7-9.6-24-13.4-9.2-4.3-18.7-8.1-28.4-11-10.6-3.1-21.6-5.1-32.6-7.1-14.5-2.6-29-4.9-43.6-7-10.3-1.5-20.6-2.2-30.8-4.2-13.2-2.5-26.3-5.4-39.3-9-11.7-3.2-23.2-4-35-.9-2.6.7-5.4.7-8.1,1.1-7.4,1-9.2,3-7.4,10,3.8,15,2.5,30.2,1.6,45.2-1.6,28-8,55.2-17.8,81.5-6.6,17.8-14.3,35.2-24.5,51.4-6,9.5-12.1,19.1-18.4,28.4-4.1,6-8.6,11.9-13.4,17.4-16.5,18.8-34.7,35.8-56,49.1-18.2,11.3-37.5,20.2-58.6,25.2-15.5,3.6-31.2,3.7-46.8,2.7-14.2-.9-27.6-5.5-40.7-11.4-17.9-8-31.8-20.7-44.4-35-15.5-17.5-24.8-38.6-31.9-60.7-1-2.9-.2-5.8,3.2-6.3,2.6-.4,4.7.4,5.8,3.9,3,9.4,6,18.9,10.5,27.6,4.9,9.6,10.8,18.7,17.2,27.3,11.4,15.2,26.2,26.9,43.2,35.3,12.1,5.9,25.1,9.1,38.6,10.7,32.8,3.8,62.3-6.1,90.4-21.3,15.1-8.2,28.5-19,41.4-30.6,22.8-20.4,40.2-44.9,55.3-71.1,12.1-21,21.3-43.5,27.2-67.2,3.1-12.6,6.3-25.1,8.9-37.8,1.3-6.6,1.7-13.4,2.1-20.1.5-9,1.1-18.1.9-27.1-.1-8.1-1-16.1-2.1-24.1-.2-1.4-2.8-3.4-4.5-3.6-6.7-.7-13.4-.9-20.1-1.1-4.3-.1-5.4,1.8-3.7,5.9,4.6,11.9,6.9,24.2,7.5,36.9.3,6.5,1.2,13.1.9,19.6-1.1,21.8-5,43.1-13.3,63.5-7.1,17.6-15.5,34.5-26.7,50-10.3,14.3-21.9,27.2-35,39-15.1,13.5-31.8,24.2-50,32.7-11.8,5.5-24.2,9.3-37.2,11.7-13.1,2.4-26.2,2.2-39.2,1.6-11.6-.6-23-3.9-33.8-8.8-13.2-5.9-25.2-13.8-34.7-24.7-6.8-7.8-12.5-16.7-18.4-25.4-.8-1.2,0-4.4,1.1-5.8.5-.7,4.3-.4,5.1.6,3.6,4.5,6.7,9.5,10.1,14.3,11.2,15.8,25.8,27.1,43.9,34.2,13.2,5.2,26.7,7.7,40.7,7.9,17.8.2,34.7-4.4,51.2-10.3,16.1-5.7,30.6-14.7,44.1-25.1,8.1-6.3,16-12.8,23.1-20.2,12.7-13.2,23.6-27.9,33-43.8,10.7-18.1,18-37.7,22.9-58,4.1-17,5.9-34.4,3.9-51.7-1.5-13.1-5.6-25.9-8.8-38.8-.4-1.5-1.9-2.7-2.9-4-1,1.2-2.1,2.2-3,3.5-1.5,2-2.6,4.4-4.4,6.1-.8.8-3.3,1-3.9.4-1-1.1-1.7-3.1-1.6-4.6.1-1.4,1.3-2.7,2-4.1,5.3-11.1,10.9-22.1,15.7-33.5,4.3-10.4,8-21,11.4-31.8,2.1-6.7,3.1-13.7,4.7-20.6,2.3-9.7,5.1-19.3,6.9-29.1,1.9-10.2,2.7-20.5,4.1-30.8.5-3.7,1.3-7.5,2-11.2,1-5.3,2.1-10.5,3-15.8,1.1-6.1,2-12.2,3-18.3,1.3-8.3,2.7-16.5,4-24.8.5-3.7.6-7.4,1-11.1,1.3-11.1,2.7-22.2,4-33.3.1-.5,0-1,0-1.5.3-20.2,1.2-40.4.8-60.6-.3-13.3-2.9-26.5-3.7-39.9-.8-14.3-3.8-28.1-8.2-41.6-1.8-5.4-5.1-10.2-7.2-15.5-.9-2.3-1.3-6.7-.2-7.5,3-1.9,5.2.3,7.1,3.4,8,13.5,12,28.3,14.4,43.5,1.4,9.2,2.3,18.5,3,27.7,1.2,14.2,2.5,28.5,2.9,42.8.3,12.7,0,25.5-1,38.2-1.1,15-3.2,30-4.9,44.9-1,8.9-1.8,17.9-3.1,26.7-1.4,9.5-3.3,19-4.8,28.5-1.5,9.6-2.7,19.2-4.2,28.8-.8,5.3-2,10.5-3,15.8-1.4,8.1-2.4,16.3-4.1,24.3-2.3,10.8-5.8,21.4-7.7,32.2-3.2,18.2-12.2,34.4-17.2,51.9-.7,2.3-2.3,4.4-3.4,6.6,2.7.3,5.4.8,8.1.9,9.9.4,19.9-.2,29.5,1.3,8.4,1.3,16-1.8,23.9-2.1,15.3-.5,30.6-.9,45.5,4.6,8.9,3.3,18.5,4.5,27.9,6.2,10.4,1.9,20.9,3.5,31.4,5,6.5.9,13.1,1.2,19.7,2.1,7.6,1.1,15.2,2.6,22.8,4,8.8,1.6,17.7,3,26.4,5.1,18,4.4,35.1,10.8,50.6,21.6,5.5,3.8,12.6,5.2,18.3,8.8,11.2,6.9,22,14.5,33,21.8,13.1,8.6,18.1,22.2,22.2,36.2,3.6,12.5,7.4,25,10.5,37.6,4.2,17,7.7,34.1,11.5,51.2,2.5,11.3,5.2,22.5,7.6,33.8,2.6,11.8,5,23.6,7.4,35.4,3.4,16.6,6.6,33.3,10,49.9,3.6,17.7,7.4,35.3,11,52.9,2,9.8,4.2,19.6,5.9,29.5,1,5.7,1.3,11.4,2.1,17.2,2.1,9.9,3.5,20.1,4.8,30.7Z"/>
  <path class="cls-1" d="M545.25,486.2c9.5-1.3,14.5,4.8,18.8,11.4,7.8,11.9,7.8,25.1,6.1,38.7-1.3,10.2-4,19.6-10.2,27.8-7.4,9.7-17.7,15.2-28.2,3-3.2-3.8-6.2-8.6-7.3-13.4-4.6-19.3-4.7-38.4,6.8-55.6,3.2-4.9,9.1-7.9,14-11.9M538.95,504.4c0-1.4-.1-2.7-.1-4.1-.8.6-2,.9-2.4,1.7-.6,1.2-.6,2.7-.8,4.1,1-.4,1.9-.8,3.3-1.7Z"/>
  <path class="cls-1" d="M748.75,654.2c0,4.2-3.8,6.9-9.9,7.8-3.4.5-8.6.2-9.8,2.2-4.3,7-9.8,2.9-14.8,2.8-2.7,0-4.8-.3-5.6,3.6-.5,2.2-3.4,4.5-7,2.7-1.3-.7-3.5-.7-4.8-.1-3.6,1.6-6.1.9-8.4-2.2-.3-.5-1.5-.3-2.3-.4,0,.7-.1,1.5,0,2.2.8,5.8-1.2,7.4-6.9,6-1.4-.4-3,.4-4.4.1-5.9-1.1-9.9,4.4-15.4,4.3-.5,0-1.2.4-1.6.9-2.7,3.3-5.5,4.8-8.8.6-.3-.3-1.9.3-2.9.6-2.1.9-4.1,2.5-6.1,2.5-1,0-1.9-3.1-2.9-4.8-.4-.7-.9-1.3-1.4-1.9-.6.5-1.5,1-1.7,1.6-1.8,5.2-5.1,7.3-10.7,6.6-1.4-.2-3.3,1.6-4.7,2.9-2.7,2.5-5,3.2-7.6-.1-.4-.6-2.6-.5-3.3.1-2.1,1.6-3.6,4-5.8,5.5-1.6,1.1-3.8,1.4-5.8,2-.7-2.4-2.6-5.4-1.8-7,4-7.7,7.8-15.9,13.6-22.2,3.7-4,10.7-5,16.3-7.3.2-.1.6.2.8.4,5.3,4.8,10.8,1.1,15.9,0,3.3-.7,6.1-.3,9.2-.1,4.3.3,8.8-1,13.1-2.1s9-.9,12.3-5.6c1.5-2,7-.8,10.6-1.7,4.6-1.1,9.3-2.6,13.7-4.3,2.7-1.1,5-2.9,7.7.2.8.8,3.9,3.3,3.7-1.4,0-.7,2.1-1.7,3.4-2.3,2.5-1.1,5.5-1.5,7.7-3,3.5-2.5,6.5-2.2,9.9-.1,4.5,2.8,9.1,5.3,13.6,8.1,1,.4,1.7,1.6,2.9,2.9Z"/>
  <path class="cls-1" d="M706.95,540.9c.1-12.3,1.2-24.1,7.3-34.4,3.4-5.7,7.3-12,15.5-12.7,6.2-.5,10.1,3.2,12.8,7.4,4.1,6.5,7.3,13.7,7.5,21.9.1,5.2,1,10.4.9,15.6-.3,12.9-2.9,25.4-10,36.2-6.7,10.3-17.3,11.7-25.7.5-4.5-6-6.6-13.3-7.2-20.9-.4-4.4-.7-8.7-1.1-13.6M737.95,566.4c-.4-1.2-.8-2.3-1.2-3.5-.6.9-1.2,1.7-1.8,2.6.9.5,1.7,1,3,.9Z"/>
  <path class="cls-1" d="M1520.75,489.2c-3.5-8.2-8.2-15.2-15.8-19.7-9.2-5.5-19-7.3-29.9-5.7-14.5,2.2-26,9.1-37,18.3-12.7,10.6-20.7,23.9-26.5,38.9-1.7,4.3-2.2,9.1-3.7,13.5-.5,1.4-2.5,2.4-3.8,3.5-.7-1.5-1.8-2.9-1.9-4.4-.4-7.9,2.9-15,6-22,5.9-13.4,14.6-24.8,25.4-34.4,10.8-9.7,23.4-17.4,37.6-19.9,20.5-3.6,39,1.8,50.8,20.4,6,9.5,10.3,20.2,8.3,32.3-1,6.1.3,12.8-1.4,18.7-2.6,8.8-6,17.6-10.7,25.5-5.2,8.8-11.3,17.7-18.7,24.6-9.9,9.2-21.3,17-35,20.2-4.5,1-9.1,1.3-13.6,2.1-3.4.5-5.9,1.9-3.7,5.8,3.1,5.4,6.4,10.8,10,15.8,5.3,7.4,10.8,14.7,16.8,21.5,5.3,6.2,11.6,11.4,20.1,12.9,1.1.2,2,1.2,3.1,1.8-.9,1.1-1.7,2.5-2.8,3.1-5.8,2.9-10.3-.6-14.5-3.8-11.5-8.9-20.9-19.8-28.6-32-4.4-6.9-7.7-14.6-12.2-21.4-2-2.9-5.8-4.7-9-6.7-1.8-1.1-4.3-1.4-5.8-2.7-1.4-1.2-1.9-3.3-2.8-5.1,1.9-.3,4-1.1,5.7-.6,3,.7,5.7,2.4,8.6,3.3,10.1,3.2,20.2,2.4,29.9-1.1,18.6-6.8,33.2-18.7,43.7-35.8,6-9.8,11.3-19.9,13-31.1,1.4-9.1.6-18.5.5-27.8-.2-2.6-1.3-5.2-2.1-8Z"/>
  <path class="cls-1" d="M1013.95,235.9c-9.3,3-18,2.4-27.1.6-11.7-2.3-21.6-8.1-30.8-14.8-7.1-5.2-12.8-12.4-19.4-18.4-8.2-7.4-13.4-17-18.1-26.6-4.4-9.1-6.7-19.2-9.6-29-.9-2.9-1.2-6.1-.9-9,.1-1.7,2-3.2,3-4.8.9,1.4,2.4,2.6,2.7,4.1,1.8,7.9,3.2,16,5.2,23.9.9,3.4,3,5.7,7.5,6.2,7.9.9,15.7,2.9,23.6,4.5,10.3,2.1,20.5,5.7,31.2,4.2,8.3-1.1,16.1-3.9,22.5-9.5,4.5-3.9,8.5-8.4,12.7-12.6,2.5-2.4,3-4.7-.2-7-3-2.1-5.7-4.7-8.8-6.6-11-7-19.5-16.6-27-27.1-1.7-2.3-3.6-4.5-4.8-7-.5-1.1.6-2.9.9-4.4,1.2.3,2.7.3,3.4,1.1,5,5.7,9.3,12,14.7,17.3,6,6,12.8,11.3,19.4,16.8,1.8,1.5,4.2,2.2,5.9,3.8,5.3,4.7,11.5,3.2,17.6,3,.7,0,1.6-.9,2.2-.7,2.1.6,4,1.5,6,2.3-1.4,1.2-2.6,2.7-4.2,3.5-2.1,1-4.6,2.3-6.6,1.9-8.5-1.7-12,4.6-15.9,9.7-8.9,11.6-20.4,18.4-34.6,21.6-8.7,1.9-16.9.1-25.2-1.4-8.5-1.5-16.8-4.6-25.2-6.6-2-.5-4.4.5-6.6.8.4,1.8.5,3.8,1.4,5.4,9,16.7,22,29.7,38,39.6,10.4,6.4,21.6,10.9,33.9,10.8,5.6-.1,11.2-2.7,16.8-3.8,1.5-.3,3.2.7,4.8,1-.6,1.3-.9,3-1.9,3.7-1.7,1.6-3.9,2.5-6.5,3.5Z"/>
  <path class="cls-1" d="M380.25,215.2l9-9c8.1-7.8,15.9-15.9,24.4-23.1,5.8-5,12.5-9,19.1-13,1-.6,3.4.8,5.1,1.2-.6,1.4-.7,3.2-1.8,4-5.7,4.6-11.8,8.7-17.3,13.6-9.8,8.7-19.5,17.6-28.9,26.8-15.1,14.8-26.9,32.3-37.8,50.3-10.3,16.9-19.4,34.5-24.3,53.9-3,11.7-5.7,23.4-7.5,35.3-1.5,9.4-2,19.1-2,28.6,0,12.9,2.5,25.5,6.1,37.9,1.3,4.6,3.3,9,4.4,13.6.4,1.7-.8,3.7-1.3,5.6-1.8-1-4.5-1.6-5.2-3.2-4.7-9.3-7.8-19.3-9.1-29.7-1.1-8.9-2.9-17.8-2.9-26.7.1-26.3,5.3-51.7,14.3-76.5,8.3-22.8,20.3-43.6,34.4-63.2,6.5-9,14-17.4,21.3-26.4Z"/>
  <path class="cls-1" d="M1210.25,42.7c-2-2.4-4-4.3-5.4-6.6-.6-1.1-.1-2.9-.1-4.3,1.6.1,3.7-.5,4.7.3,2.8,2.2,5.1,5.2,7.8,7.6,10.9,9.2,23.8,14.5,37.4,18.4,4.5,1.3,8.8,3,13.2,4.3,10.2,3,20.6,2.1,30.9.7,5.2-.7,10.4-1.6,15.7-2,15.2-1.1,30.5-2.8,45.8-2.8,10,.1,20,2.8,30.1,4.4,5.6.9,11.3,1.6,16.8,2.9,17.6,4,34.1,11,49.7,19.9,10.7,6.1,20.9,12.9,29.3,22.1,4.5,4.9,9.8,9.4,13.5,14.9,4.3,6.4,7.4,13.6,10.7,20.5.6,1.3.1,4.4-.9,4.8-1.9.9-3.6,0-4.8-2.5-5.1-11.4-11.3-22.3-20.2-31.1-6-5.9-12.9-11.1-19.9-15.9-12.7-8.7-26.5-15.6-40.9-20.7-11.4-4-23.6-5.8-35.5-8.6-14.3-3.3-28.8-4.7-43.3-3.9-11.3.6-22.6,2.5-33.9,3.8-3.4.4-6.7.8-10.1,1-5.7.4-11.4.7-17.1,1-11.3.7-22.2-1.9-32.4-6.2-11.5-4.8-22.7-10.4-33.9-15.9-2.6-1.3-4.6-3.9-7.2-6.1Z"/>
  <path class="cls-1" d="M1392.25,313.2c-12.6,11.5-24.6,23.2-39,32.1-11.2,6.9-22.1,14.4-32.9,21.8-1.3.9-2.6,3.6-2.2,5,3.5,12.5,8.8,24,17.9,33.6,5,5.3,9.1,11.3,13.9,16.7,2.9,3.2,6.9,5.5,9.6,8.9,8.6,10.8,15.2,22.3,19,36.2,3.1,11.1,2,22.6,6.3,33.3,3.3,8.1,5.6,16.7,8.3,25.1.3.8-.1,1.8-.2,2.8-1.1-.1-2.8.2-3.3-.5-2.4-3.1-4.9-6.2-6.6-9.7-3.1-6.5-5.8-13.3-8.3-20.1-1.1-3.1-1.4-6.5-1.8-9.7-.8-7.5-.9-15.2-2.2-22.6-.8-4.8-2.4-9.8-5-13.8-4.4-6.7-7.6-14.2-14.6-19.6-11.5-8.8-19.6-21.1-27.8-32.9-4.7-6.8-7.7-15.1-10.2-23.2-1.4-4.3-3.6-3.9-6-2.9-9.5,3.7-18.8,7.7-28.2,11.6-2.1.9-4.5,2-6.6,1.8-1.8-.1-3.6-1.9-5.4-2.9,1.2-1.3,2.1-3.3,3.6-3.8,7.1-2.6,14.7-4.1,21.5-7.3,13.1-6.2,25.9-13.2,38.6-20.2,6.3-3.5,12.4-7.4,18.1-11.7,9.6-7.2,19.1-14.7,28.1-22.6,6.5-5.6,12.3-12.2,18.4-18.2,1-1,2.3-1.8,3.6-2.1,1.1-.2,2.4.6,3.5.9-.4,1-.6,2.2-1.2,3.1-2.7,3.4-5.7,7-8.9,10.9Z"/>
  <path class="cls-1" d="M561.75,126.7c-3.1,1.4-5.9,2.7-8.8,3.8-13.3,4.9-26.6,9.7-40,14.5-18.2,6.4-36.4,12.6-54.6,19.1-3.2,1.1-5.8,3.6-9,4.9-1.3.5-3.2-.5-4.8-.8.3-1.4.2-3.1,1-4.1,5.8-6.7,14.3-8.9,22-11.9,15.7-6,31.6-11.4,47.6-16.7,6.9-2.3,14.4-3,21.2-5.6,8.5-3.2,16.5-7.7,24.8-11.4,11.7-5.3,23.7-9.7,36.7-10.4,10.2-.6,20.5-2,30.5-.8,17.4,2.1,34.9,5.4,50,15.5,4,2.7,8.5,4.7,12.3,7.6,1.3,1,1.2,3.7,1.8,5.7-2.1,0-4.4.6-6.2-.2-5.2-2.4-10.2-5.3-15.1-8.3-8.7-5.3-18.2-8-28-9.6-9.1-1.5-18.2-3.8-27.3-3.8-18.8-.2-36.8,4.4-54.1,12.5Z"/>
  <path class="cls-1" d="M1184.95,20.9c-3.4,7.1-5,13.9-3.2,21.5.9,3.9,1,8,1.1,12,.2,5.4-4.6,9-9.9,8.1-8.3-1.4-16.7-2.6-25-3.5-5.8-.7-11.7-.8-17.6-1-9.2-.3-18,1.5-26.9,3.8-9.4,2.4-19.1,3.5-28.4,6.3-14.5,4.3-28.5,10.1-40,20.3-4.9,4.3-9.5,9-14.5,13.3-1,.9-3.3,1.4-4.2.9-.9-.6-1.3-2.8-1.2-4.2.1-1.1,1.1-2.3,2-3.1,12-11.2,24.1-22.1,40.2-27.3,13.4-4.3,26.5-9.8,40.2-12.7,15.1-3.1,30.6-6,46.3-4.2,9.6,1.1,19,3.2,28.5,4.6,1.1.2,2.9-1.3,3.5-2.5.5-1.1,0-2.8-.4-4.2-2.1-8.1-1.7-16.2.6-24,3-10.3,10.4-17.6,18.7-24,.8-.6,2.1-1,3-1,1.3.1,2.9.5,3.9,1.4.4.3-.3,2.3-1,3.2-.7,1.1-1.8,1.9-2.8,2.9-4.2,4.3-8.5,8.6-12.9,13.4Z"/>
  <path class="cls-1" d="M1681.95,972.9c-1.3,2-2.6,3.5-4,5-1.3-2.3-3.8-4.7-3.8-7,0-6.4,1.1-12.8,1.8-19.1,1.7-15,2.7-30.2,8.2-44.5,2-5.3,5.7-9.3,11.9-9.3,6.4-.1,9.4,5.3,11.6,9.6,3,6,3.8,13,6.4,19.3,4.3,10.5,3.2,22.3,7.9,32.7.9,2,1.8,4.1,1.9,6.2.1,1.3-1.1,3.3-2.3,3.8-1.1.5-3.4-.1-4.2-1-1.8-1.9-3.5-4.2-4.2-6.7-1.7-5.8-2.6-11.9-4.3-17.7-.4-1.4-3.3-3.2-4.5-2.9-5,1.4-9.8,3.6-14.7,5.4-4,1.5-5.2,4.8-5.7,8.6-.7,5.7-1.3,11.4-2,17.6M1700.95,913.4c-1.9-1.8-3.7-3.6-5.6-5.4-1.5,2.5-3,5.1-4.4,7.6-.2.4-.4.8-.5,1.3-1.5,6.5-3.1,13-4.5,19.5-.2.9.6,2,.9,3,.7-.4,1.4-.8,2.1-1.1,2.2-1.1,4.3-2.5,6.6-3.3,10.6-3.7,10.7-3.6,7.3-14.4-.5-2.1-1.2-4.1-1.9-7.2Z"/>
  <path class="cls-1" d="M1147.95,513.9c-3.8-13.3-4.5-26,1.1-38.4,3.1-6.9,10-9.6,17.1-2.9,5.3,5,7.3,11.7,8.6,18.3,1.3,6.8,1.2,14,1.1,21-.1,6.3-1.7,12.2-6.8,16.6-3.6,3.1-9.8,3.8-12.8,0-3.4-4.3-5.6-9.4-8.3-14.6M1166.95,500.4c0,3.1-.1,6.3.1,9.4,0,.7,1.1,1.4,1.6,2.1.4-.7,1.2-1.3,1.2-2,.1-3.6.2-7.3,0-10.9-.1-1.1-1.1-2.1-1.7-3.1-.3,1.2-.7,2.4-1.2,4.5Z"/>
  <path class="cls-1" d="M647.95,576.9c-2.5.6-4.8,2.1-6.5,1.6-1.2-.4-2.1-3.3-2.4-5.2-1.5-10.8-2.8-21.5-4-32.3-.3-2.8-.8-6.5,3.4-7,4.1-.5,4.4,2.5,4.7,5.8.7,8.3,1.9,16.5,3,24.7.3,2.1,1.1,3.2,3.5,1.4,12.7-9,30.8-6.8,38.4,8.7,6.2,12.5,4.9,25.1.1,37.7-4.5,11.7-11.7,21.5-21.9,28.7-3.8,2.7-8.5,4.3-13.1,5.7-1.4.4-4.4-.8-4.9-2.1-1.3-2.8.6-5.1,3.5-5.7,7.1-1.3,12.5-5.3,17.2-10.4,10.7-11.8,16.2-25.6,15.1-41.7-.7-9.4-7.5-17.8-16.7-18.7-5.9-.6-11.7,2-16.3,6.3-.9.8-1.7,1.7-3.1,2.5Z"/>
  <path class="cls-1" d="M959.95,371.9c0-18.7-.1-36.8,0-55,.1-8.5-3-16.1-8.7-21.8-7-7.1-15.3-12.8-22.9-19.3-1.2-1-1.7-2.9-2.5-4.4,2-.3,4.4-1.5,6-.8,3.4,1.5,6.5,3.8,9.4,6.2,4.6,3.9,9,8.1,13.4,12.3,6.7,6.5,10.6,14.5,11.2,23.8.6,10.3.9,20.7,1,31.1.2,11.4-.9,23,.2,34.3,2,19.5,2.1,39.2,7.8,58.2,1.6,5.3,3.8,10.4,5.7,15.6.1.3.2.6.2.9-.1,2.5-.1,5-.2,7.6-1.9-1.7-4.8-3-5.6-5.1-3.7-10.3-7.2-20.7-10-31.3-1.6-6-1.6-12.4-2.1-18.6-.9-11-1.9-22.1-2.9-33.7Z"/>
  <path class="cls-1" d="M1043.75,544.7c-5.2,5.2-8.3,4.5-12-1.4-4.7-7.6-6.2-15.9-6.8-24.7-.7-9.1-.3-18,2.1-26.8.2-.6.2-1.2.5-1.8,1.7-3.9,3.8-8,8.5-7.8,4.8.1,6.5,4.1,8.3,8.4,5.7,13.1,5,26.9,4.5,40.5-.3,4.4-3.2,8.9-5.1,13.6M1030.95,506.4c0,2.7.1,5.4.2,8.1,0,.1.8.3,1.3.4.5-2.4,1.1-4.9,1.5-7.3.2-1.1.1-2.3-.3-3.4-.2-.6-1.2-.9-1.9-1.3-.2.9-.5,1.7-.8,3.5M1034.45,495.9c.8-1.5,1.9-2.9,2.4-4.4.1-.4-1.2-1.4-1.9-2.1-1.5,1.9-4.7,3.5-.5,6.5Z"/>
  <path class="cls-1" d="M1741.95,946.9c2.7,7.2,5.4,13.9,8.1,20.6.4,1,.7,2.1.9,3.1.8,3.4-1.1,6.6-3.8,6.9-1.9.2-5-2.8-6-5.1-2.8-6.5-5-13.2-7.2-20-2.5-7.6-4.8-15.3-7.1-23-1.4-4.9-3.1-9.8-3.8-14.8-.3-2.1,1-5.3,2.7-6.5,4.8-3.4,9.9-6.5,15.3-8.6,3.6-1.4,8.1-2.1,11.8-1.3,6.8,1.5,8.3,9.2,4.2,15.7-4.7,7.4-11.4,13.6-16.9,20.5-1,1.3-1.3,3.6-1,5.3.6,2.2,1.9,4.5,2.8,7.2M1747.45,912.9c.6-.9,1.4-1.8,1.7-2.8.4-1.3.4-2.7.5-4-1.2.3-2.4.4-3.5.8-2.3.9-4.5,1.9-6.7,3-6.6,3.3-8.5,8.1-5.4,14.5.4.9,2.8,1.9,3,1.7,3.4-4.1,6.7-8.4,10.4-13.2Z"/>
  <path class="cls-1" d="M1114.25,464.7c-1.9-7.3,4.7-9.8,8.1-13,7.3-6.9,15.7-13,24.5-17.7,10.3-5.5,21.3-9.8,32.4-13.4,8-2.6,16.7-4.4,25.1-4.3,11,.2,22.4,1,32.2,7.6,8.3,5.6,13.4,13.1,13.4,23.3,0,1.3-1.3,2.5-2,3.8-1-.8-2.3-1.5-2.8-2.5-1.1-2-1.9-4.2-2.5-6.4-2.6-10.6-11.2-14.3-20.2-16.9-5.7-1.6-11.9-2.5-17.8-2-9.5.9-19.2,2.4-28.3,5.2-9.5,2.9-18.7,7.1-27.5,11.8-6.8,3.6-12.8,8.7-18.9,13.5-4.4,3.4-8.2,7.5-12.4,11.2-.6.4-2,0-3.3-.2Z"/>
  <path class="cls-1" d="M1036.25,645.7c-7.4-15.4-3-29,5.5-42,4-6.1,8.1-12.1,12.8-17.6,3.2-3.8,7.3-7,11.3-10,1.2-.9,3.7-.2,5.6-.2-.6,1.6-.7,3.7-1.8,4.7-9.1,8.4-18,17.1-23.7,28.1-4.3,8.3-8.5,16.8-6.1,27.2,2.3,10.4,9.7,14.9,18.5,16.7,13,2.7,26.1,1.9,39-2.3,2.7-.9,6.8-2.3,8.4,1.7.3.7-3.8,4.1-6.2,4.7-10.4,2.6-20.9,5-31.8,4.2-9.2-.7-18-2.8-25.5-8.4-2.3-1.7-3.9-4.4-6-6.8Z"/>
  <path class="cls-1" d="M986.75,429.7c-2.5,2.4-3.4.9-3.7-1.2-.3-2-.3-4,0-6,2.2-12.7,4.3-25.4,7.1-38,1.3-5.8,3.9-11.3,5.9-17,3.4-9.9,5.9-20.2,10.2-29.7,4.4-9.6,10.3-18.4,15.9-27.3,2.6-4,6-7.5,9.1-11.2.7-.9,1.6-1.9,2.6-2.2,1.5-.4,3.1-.1,4.6-.1-.4,1.4-.3,3-1.1,4.1-4,5.2-8.4,10.1-12.2,15.4-8.1,11.1-13.4,23.6-17.7,36.6-3.7,11.4-8,22.7-11.1,34.3-2.2,8.4-2.8,17.1-4.3,25.7-1.1,5.6-.6,11.7-5.3,16.6Z"/>
  <path class="cls-1" d="M1462.25,536.7c-7-9.4-9.7-19.7-9.1-30.9.1-1,1.9-1.9,2.9-2.8,1,1.1,2.7,2.2,2.8,3.4.7,9.5,2.9,18.6,8.2,26.5,1,1.5,3.5,2.7,5.4,2.8,1.1,0,3.1-2.3,3.3-3.7.7-4.8.6-9.7,1.2-14.5.2-1.6,1.5-3,2.3-4.5,1.3,1.2,3.3,2.3,3.7,3.7,2.9,11.7-.2,22.1-7,31.8-4.3,6.2-10.3,10.1-16.8,13.4-1.3.7-3.3-.1-5-.2.7-1.8.8-4.3,2.1-5.3,3.7-3.1,7.9-5.7,11.9-8.4,2.1-1.4,2.6-2.8.6-4.7-2.1-2.1-4.2-4.3-6.5-6.6Z"/>
  <path class="cls-1" d="M1163.75,342.7c3.4-1.4,6.6-2.5,9.8-3.8,3.3-1.3,6.8-2.3,9.8-4.1,10.4-6,20.7-12.1,30.7-18.6,8.8-5.8,16.6-12.8,21.9-22.1.5-.8.9-1.9,1.6-2.3,1.6-.8,3.4-1.2,5.1-1.7-.3,1.8-.1,3.8-.9,5.4-8.8,17-24.3,26.7-40,36.1-10.2,6.1-20.7,12-31,18-.8.5-1.6,1.2-2.5,1.2-2.2-.1-4.4-.5-6.7-.8.7-2.3,1.3-4.7,2.2-7.3Z"/>
  <path class="cls-1" d="M1532.95,153.9c2.3-9.5,5.3-18.5,6.8-27.6.8-4.7-1.1-9.9-1.7-14.8-.1-.5,0-1-.1-1.5-.1-2.8-.5-6.3,2.9-6.7,1.1-.1,3.4,3.8,4,6.1,3.6,13.8-.1,26.9-3.7,40.2-4.6,17-13,31.7-24.3,44.9-1.4,1.6-2.8,4-5.5,1.4-2.6-2.5-.5-4.1.9-5.5,9.4-10.6,15.3-23.1,20.7-36.5Z"/>
  <path class="cls-1" d="M1820.95,882.9c3,10.3,5.9,20,9,29.8,2.6,8.1,5.3,16.1,8.4,24,1.2,3,3,5.9-.7,7.8-3.6,1.8-6.3-.5-7.7-3.7-2.2-5.1-4.4-10.2-6-15.5-4-13-7.6-26.2-11.5-39.2-1.8-6.2-.1-9.3,4.9-7.9,1.6.3,2.5,2.7,3.6,4.7Z"/>
  <path class="cls-1" d="M1094.75,316.7c7.3-11.3,14.2-22.5,21.5-33.4,2.4-3.6,5.7-6.7,8.8-9.8,1.2-1.2,2.9-2.3,4.4-2.4,1.8-.1,3.7,1.1,5.5,1.7-1.1,1.3-2.2,2.8-3.4,4-3.3,3.4-7.3,6.4-10.1,10.3-11.7,16.1-23.5,32.3-29.7,51.6-.6,1.9-.4,4-.7,6-.2,1.4.1,3.4-.7,4-1.3.9-3.5,1.6-4.8,1.1s-2.8-2.8-2.6-4.1c.8-4.7,1.9-9.5,3.7-13.9,2.3-5.2,5.2-10,8.1-15.1Z"/>
  <path class="cls-1" d="M748.75,411.2c-12.7-8.4-25.7-10.2-39.2-3.2-2.6,1.4-4.7,3.8-7,5.9-1.9,1.7-3.8,4.9-6.3,2.4-1.2-1.2-.9-5.4.3-7.1,4.4-6.3,11-10.4,18.4-12.1,13.2-3,25.9-1,37.2,6.9,4.5,3.2,8.9,7.1,8.9,13.6,0,4.3-2.5,3.9-4.5,2.2-2.9-2.4-5.1-5.6-7.8-8.6Z"/>
  <path class="cls-1" d="M1761.75,923.2c4.7,4.5,5.2,4.3,8.3-.8,3.1-5.1,7-9.4,13.5-9.3,1.5,0,4.1,2.1,4.2,3.4.2,2.2,2.1,6-2.6,6.4-6,.6-9.2,3.9-9.4,9.9-.1,1.7.4,3.4.8,5.1.8,3.5,2.2,6.9,2.4,10.5.3,4.7-5,7.5-8.3,4.3-2.4-2.3-3.8-6.1-4.4-9.5-.6-3.6-.9-6.8-4.8-8.5-1.4-.6-2.6-2.1-3.5-3.5-1-1.6-2.5-3.5-2.3-5.1.2-3.5,3.1-3.4,6.1-2.9Z"/>
  <path class="cls-1" d="M521.75,427.7c-1.4.1-3.4.2-3.6-.3-.6-2-1.6-5-.6-6.2,5.1-6.8,10.9-12.5,18.8-16.6,8.8-4.6,17.6-6.3,27.1-5.6,7.5.6,13.7,3.7,17.4,10.5.7,1.3,0,3.3,0,5.1-1.9-.3-4.5,0-5.6-1.1-3.7-3.6-7.4-6.8-12.8-6.5-5.2.3-10.5.3-15.4,1.7-9.4,2.6-17.5,7.3-22.5,16.3-.7.9-1.7,1.6-2.8,2.7Z"/>
  <path class="cls-1" d="M1536.95,190.9c8.6-9.9,19.6-13.9,32-16.3,10.3-2,19.7.8,29.3,2.6,4.4.8,8.2,5,12.2,7.8.7.5.8,1.8,1.2,2.7-1,.4-2.1,1.3-3,1.1-3.1-.8-6.3-1.7-9.2-3-11.3-4.6-22.5-6.2-34.8-3.5-8.8,1.9-16,5.3-22.3,11.5-2.4,2.6-4.4,1.5-5.4-2.9Z"/>
  <path class="cls-1" d="M1033.95,427.9c-6.4-2.1-12.1-4.7-18.8-4.1-6.2.6-11,3.5-13.3,9.2-.6,1.5-2.3,2.6-3.5,3.8-.8-1.8-2.5-3.7-2.3-5.5,1-9,12.2-14.7,21.2-14.1,10.3.7,19.3,4,27.9,8.7,5.6,3.1,10.5,7.5,15.7,11.4.8.6,1.7,1.3,1.9,2.2.3,1.5.2,3.1.2,4.7-1.4-.3-3-.2-4.1-.9-6.2-4-12.2-8.2-18.4-12.2-1.7-1.2-3.9-2.1-6.5-3.2Z"/>
  <path class="cls-1" d="M1269.25,313.2c-2.3,2-4.6,3.6-6.5,5.6-8.6,9.1-18.7,16.3-30,21.7-5.1,2.4-10.7,3.9-16.2,5.4-2.8.8-5.3-.3-5.5-3.8-.3-3.7,2.5-2.9,4.7-3.2,9.6-1.2,18.3-5,26.1-10.5,7.6-5.3,14.5-11.7,21.8-17.5,1.3-1,3-1.7,4.6-1.9,1.1-.2,2.3.7,3.5,1.1-.8.9-1.5,1.9-2.5,3.1Z"/>
  <path class="cls-1" d="M947.25,250.7c6.3,1.3,12.3,2.8,18.4,3.3,5.3.5,10.9.6,16-.6,3.4-.8,4,1.2,5.5,2.5.2.2-1,2.6-2.1,3.3-4.9,3.6-10.8,3.3-16.3,2.6-11.4-1.5-22.7-3.8-34-6-1.4-.3-2.5-2.3-3.8-3.5,1-.9,1.9-2.6,2.9-2.6,4.4,0,8.8.4,13.4,1Z"/>
  <path class="cls-1" d="M1149.75,306.7c1.9-3.6,3.3-7.1,5.4-10,.7-1,3.7-1.2,5.2-.6,2.2.8,1.8,2.4.1,4.1-1.5,1.5-2.6,3.5-3.6,5.5-6.1,11.9-14.6,22-23.8,31.5-2.1,2.2-5.6,3.2-8.5,4.6-.4.2-1.5-.3-1.5-.4.2-1.6-.1-3.6.8-4.6,2-2.3,4.9-3.8,6.8-6.1,6.5-7.9,12.6-15.9,19.1-24Z"/>
  <path class="cls-1" d="M1061.95,320.9c8.7-4.2,17-8.4,25.2-12.8,2.4-1.3,4.4-2.1,6.2.7,1.9,3-.5,4.1-2.5,5-11.2,5.2-22.3,10.4-33.7,15.2-2.7,1.1-6.1.9-9.1.7-1.1-.1-2-1.8-3-2.7,1.1-1,2-2.7,3.3-3,4.2-1.2,8.7-2.1,13.6-3.1Z"/>
  <path class="cls-1" d="M1251.95,357.9c-1.7-.3-3-.5-4.1-1-1.4-.8-2.6-1.9-3.9-2.9,1.6-1,3.3-2.9,4.9-2.9,7.8.2,15.2-1.1,22.3-4.2,3.5-1.6,6.8-3.8,10.1-5.7,1.2-.7,2.3-2.2,3.5-2.3,1.6-.1,3.2.8,4.8,1.2-.4,1-.6,2.3-1.3,3.1-8.7,8.9-19.3,13.4-31.7,13.9-1.4-.1-2.7.5-4.6.8Z"/>
  <path class="cls-1" d="M1796.25,918.2c4.4-3.7,7.1-3,8.8,1.9,1.9,5.4,3.9,10.7,5.7,16.1,1,3,1,6.3-2.2,7.6-3.1,1.3-5.5-1.3-6.3-3.9-2.5-7.1-4.3-14.3-6-21.7Z"/>
  <path class="cls-1" d="M1804.25,906.2c-4,.1-7.8.2-11.5-.4-1.4-.2-3.6-2.5-3.5-3.5.2-1.6,2.1-4,3.4-4.1,4.3-.2,8.7.3,12.9,1,1,.2,2.5,2.5,2.2,3.3-.4,1.3-2.1,2.3-3.5,3.7Z"/>
  <path class="cls-1" d="M923.75,1110.7c12.2-3.9,11.2-1.1,15.2,6.9,1.5,3,2.5,6.3,3.6,9.5,2.8,7.8,5.7,15.6,8.5,23.5,2.1,6.1,1.6,7.6-4,9.8-8.6,3.4-17.2,6.7-25.9,9.9-2.6.9-5.5,1.6-8.3,1.5-1.6-.1-4.1-1.6-4.7-3-5.6-13-11-26.1-16-39.4-1.1-3.1.8-6.1,4.4-7.5,9-3.6,17.9-7.3,27.2-11.2M920.45,1127.9c.4.7.8,1.3,1,2.1,1.1,3.2,3.7,5.1,6.7,3.7,2-.9,4.8-3.9,4.5-5.5-.5-3.3-2.2-7.4-4.7-9-3.4-2.2-8.9,3.8-7.5,8.7M911.95,1156.4c2,2.7,2.5,7.1,7.8,5.2,6.2-2.2,3.4-6.2,2.1-9.8-1.3-3.6-3.2-6-7.8-4.7-4.1,1.1-5.3,2.9-2.8,6.6.4.5.5,1.2.7,2.7M938.45,1153.9c1.2-1.5,3.6-3.5,3.3-4.4-1.3-3.4-3.5-6.5-5.4-9.6-.1-.1-.7-.1-.9.1-2.1,1.9-6.9.6-6.4,5.5.6,6.1,4.2,9.7,9.4,8.4M908.95,1139.4c1.7-.9,4.9-2.2,4.8-2.5-.9-3.2-2.1-6.4-3.8-9.2-.4-.7-3.4-.2-5,.4-.9.3-2,2-1.8,2.8.8,3.5.9,7.6,5.8,8.5Z"/>
  <path class="cls-1" d="M792.25,1166.7c4.9,12.3,9.7,24.3,14.3,36.4,1.5,3.9.3,7.2-3.6,8.8-9.9,4.2-19.9,8.3-30,11.9-3.7,1.3-6.6-1-8-4.8-3.9-10.5-8.2-20.9-11.9-31.5-2.8-7.9-1.7-9.5,6.7-12.6,8.1-2.9,16-6.5,24.1-9.2,2.4-.8,5.4.4,8.4,1M776.95,1200.4c-1.6-3.1-4.6-2.4-6.4-1.2-1.1.8-1.1,3.9-.9,5.9.2,1.8,1.7,3.4,1.9,5.1.7,6.1,4.7,3.5,7.4,2.6,3.8-1.3,1.6-4.2.9-6.4-.6-1.9-1.5-3.7-2.9-6M787.95,1202.4c.3,1,.5,2.7,1.1,2.9,2.1.7,4.4.9,6.7,1.3.1-1.7.6-3.4.4-5.1-.4-2.2-1.3-4.4-2.1-6.5-1-2.7-3-4-5.6-2.9-2.1.9-5.2,1.9-2.4,5.5.8,1.2.9,2.9,1.9,4.8M787.95,1179.4c-.7-5.1-4.1-5-7.5-3.4-2.8,1.4-3.3,4.1-1.5,7,2.1,3.5,6.1,2.3,9-3.6M769.95,1184.4c-.6-.6-1.2-1.7-1.8-1.7-1.7,0-4.6-.1-4.9.6-.6,1.7-.4,4.2.5,5.6.8,1.1,3.5,1.9,4.9,1.4,1.8-.6,3.9-2.5,1.3-5.9Z"/>
  <path class="cls-1" d="M356.95,518.9c-1.2,7.8-2.9,15-8,20.6-1.8,2-4,4-6.4,5.1-2.9,1.3-3.3,2.9-2.1,5.2,2.3,4.2,4.6,8.5,7.5,12.4,1.8,2.4,3.3,4.8,1.1,6.7-1.1.9-5.2.2-6.5-1.1-6.4-6.6-10.7-14.8-12.4-23.7-1.7-8.7-1.9-17.7-2-26.6,0-2.7,2.3-5.7,4.2-8.1.7-.9,4.1-1.1,4.8-.4,1,1.2,1.6,4,.9,5.2-3.9,6.2-3.7,12.7-1.9,19.3.4,1.6,1.9,3,3,4.4,1.3-1,3.3-1.7,3.8-3,2.3-5.4,3.9-11,6.2-16.4.9-2.1,2.7-5,4.5-5.3,2.8-.4,3.6,2.5,3.3,5.7Z"/>
  <path class="cls-1" d="M869.25,1306.7c-2.8-7.8-5.5-15.3-7.8-23-.6-2.1-.6-5.1.4-6.9,1.6-2.9,6.6-1,8.1,3.2,2.5,7.1,4.9,14.3,6.9,21.5.4,1.5-.3,4.4-1.4,5.1-1.5.9-3.9.3-6.2.1Z"/>
</svg>