<?xml version="1.0" encoding="UTF-8"?>
<svg xmlns="http://www.w3.org/2000/svg" viewBox="0 0 600 400">
  <defs>
    <style>
      .cls-1 {
        fill: #3f3f3f;
        stroke-width: 0px;
      }

      .cls-2 {
        stroke-width: .7px;
      }

      .cls-2, .cls-3, .cls-4, .cls-5, .cls-6, .cls-7, .cls-8, .cls-9 {
        stroke: #3f3f3f;
      }

      .cls-2, .cls-3, .cls-5, .cls-6, .cls-7, .cls-8, .cls-9 {
        fill: none;
      }

      .cls-2, .cls-4, .cls-8 {
        stroke-linejoin: round;
      }

      .cls-3, .cls-5, .cls-6, .cls-7, .cls-9 {
        stroke-miterlimit: 10;
      }

      .cls-4 {
        fill: #fff;
      }

      .cls-4, .cls-7, .cls-8, .cls-9 {
        stroke-width: .5px;
      }

      .cls-5, .cls-6 {
        stroke-width: 5px;
      }

      .cls-6 {
        stroke-linecap: square;
      }

      .cls-7 {
        opacity: .6;
      }
    </style>
  </defs>
  <g id="_레이어_2" data-name="레이어 2">
    <g>
      <line class="cls-5" x1="38.92" y1="222.22" x2="128.87" y2="222.22"/>
      <line class="cls-5" x1="167.52" y1="110.13" x2="232.26" y2="110.13"/>
      <line class="cls-3" x1="107.89" y1="222.09" x2="107.89" y2="291.22"/>
      <line class="cls-5" x1="167.65" y1="70.21" x2="167.65" y2="224.84"/>
      <polyline class="cls-5" points="232.38 70.21 232.38 222.09 202.23 222.09"/>
      <line class="cls-5" x1="336.96" y1="70.21" x2="336.96" y2="178.04"/>
      <path class="cls-6" d="m561.05,272.57v18.65s-524.37,0-522.88,0v-6.89m0-40l.45-176.1h522.88l-.45,22.1"/>
      <line class="cls-5" x1="167.65" y1="68.24" x2="232.26" y2="109.13"/>
      <line class="cls-5" x1="167.52" y1="109.13" x2="232.38" y2="67.44"/>
      <line class="cls-5" x1="336.96" y1="265.44" x2="336.96" y2="291.35"/>
      <line class="cls-5" x1="486.72" y1="266.14" x2="486.72" y2="291.84"/>
      <line class="cls-5" x1="486.72" y1="69.84" x2="486.72" y2="122.88"/>
    </g>
    <polyline class="cls-9" points="338.17 106.35 272.35 106.35 263.06 114.41 263.06 160.15 232.38 160.15"/>
    <line class="cls-9" x1="488.97" y1="266.14" x2="488.97" y2="122.84"/>
    <line class="cls-7" x1="519.35" y1="75.13" x2="519.35" y2="69.84"/>
    <line class="cls-7" x1="519.35" y1="250.25" x2="519.35" y2="106.94"/>
    <line class="cls-7" x1="519.35" y1="291.84" x2="519.35" y2="283.58"/>
    <line class="cls-7" x1="509.35" y1="75.13" x2="509.35" y2="69.84"/>
    <line class="cls-7" x1="509.35" y1="250.34" x2="509.35" y2="106.94"/>
    <line class="cls-7" x1="509.35" y1="293.79" x2="509.35" y2="285.03"/>
    <line class="cls-7" x1="499.35" y1="75.13" x2="499.35" y2="69.84"/>
    <line class="cls-7" x1="499.35" y1="250.34" x2="499.35" y2="106.94"/>
    <line class="cls-7" x1="499.35" y1="291.84" x2="499.35" y2="285.03"/>
    <line class="cls-7" x1="529.35" y1="75.13" x2="529.35" y2="69.84"/>
    <line class="cls-7" x1="529.35" y1="248.6" x2="529.35" y2="106.94"/>
    <line class="cls-7" x1="529.35" y1="291.84" x2="529.35" y2="285.23"/>
    <line class="cls-7" x1="539.35" y1="75.13" x2="539.35" y2="69.84"/>
    <line class="cls-7" x1="539.35" y1="248.6" x2="539.35" y2="106.94"/>
    <line class="cls-7" x1="539.35" y1="291.84" x2="539.35" y2="285.23"/>
    <line class="cls-7" x1="549.35" y1="75.13" x2="549.35" y2="69.84"/>
    <line class="cls-7" x1="549.35" y1="172.59" x2="549.35" y2="106.94"/>
    <line class="cls-7" x1="549.35" y1="248.6" x2="549.35" y2="188.09"/>
    <line class="cls-7" x1="549.35" y1="291.84" x2="549.35" y2="285.23"/>
    <line class="cls-7" x1="559.05" y1="180.34" x2="556.95" y2="180.34"/>
    <line class="cls-7" x1="541.45" y1="180.34" x2="489.05" y2="180.34"/>
    <line class="cls-7" x1="489.05" y1="190.34" x2="559.05" y2="190.34"/>
    <line class="cls-7" x1="489.05" y1="200.34" x2="559.05" y2="200.34"/>
    <line class="cls-9" x1="168.05" y1="222.34" x2="233.05" y2="222.34"/>
    <line class="cls-7" x1="168.05" y1="212.34" x2="206.14" y2="212.34"/>
    <line class="cls-7" x1="200.55" y1="222.24" x2="200.55" y2="178.8"/>
    <line class="cls-7" x1="200.55" y1="156.79" x2="200.55" y2="109.24"/>
    <line class="cls-7" x1="190.55" y1="109.24" x2="190.55" y2="222.24"/>
    <line class="cls-7" x1="180.55" y1="109.24" x2="180.55" y2="222.24"/>
    <line class="cls-7" x1="168.05" y1="202.34" x2="206.14" y2="202.34"/>
    <line class="cls-7" x1="168.05" y1="192.34" x2="206.14" y2="192.34"/>
    <line class="cls-7" x1="168.05" y1="182.34" x2="233.05" y2="182.34"/>
    <line class="cls-7" x1="168.05" y1="152.34" x2="233.05" y2="152.34"/>
    <line class="cls-7" x1="168.05" y1="142.34" x2="233.05" y2="142.34"/>
    <line class="cls-7" x1="233.05" y1="132.34" x2="229.25" y2="132.34"/>
    <line class="cls-7" x1="218.79" y1="132.34" x2="168.05" y2="132.34"/>
    <line class="cls-7" x1="168.05" y1="122.34" x2="227.08" y2="122.34"/>
    <line class="cls-9" x1="168.05" y1="112.34" x2="233.05" y2="112.34"/>
    <line class="cls-7" x1="489.05" y1="210.34" x2="559.05" y2="210.34"/>
    <line class="cls-7" x1="489.05" y1="220.34" x2="559.05" y2="220.34"/>
    <line class="cls-7" x1="489.05" y1="230.34" x2="559.05" y2="230.34"/>
    <line class="cls-7" x1="489.05" y1="240.34" x2="559.05" y2="240.34"/>
    <line class="cls-7" x1="559.05" y1="250.34" x2="553.4" y2="250.34"/>
    <line class="cls-7" x1="496.84" y1="250.34" x2="489.05" y2="250.34"/>
    <line class="cls-7" x1="519.28" y1="250.34" x2="510.95" y2="250.34"/>
    <line class="cls-7" x1="559.05" y1="260.34" x2="554.06" y2="260.34"/>
    <line class="cls-7" x1="494.26" y1="260.34" x2="489.05" y2="260.34"/>
    <line class="cls-7" x1="518.62" y1="260.34" x2="513.53" y2="260.34"/>
    <line class="cls-7" x1="563.05" y1="270.34" x2="554.06" y2="270.34"/>
    <line class="cls-7" x1="494.26" y1="270.34" x2="489.05" y2="270.34"/>
    <line class="cls-7" x1="518.62" y1="270.34" x2="513.53" y2="270.34"/>
    <line class="cls-7" x1="563.05" y1="280.34" x2="554.06" y2="280.34"/>
    <line class="cls-7" x1="494.26" y1="280.34" x2="489.05" y2="280.34"/>
    <line class="cls-7" x1="518.62" y1="280.34" x2="513.53" y2="280.34"/>
    <line class="cls-7" x1="489.05" y1="170.34" x2="559.05" y2="170.34"/>
    <line class="cls-7" x1="489.05" y1="160.34" x2="559.05" y2="160.34"/>
    <line class="cls-7" x1="489.05" y1="150.34" x2="559.05" y2="150.34"/>
    <line class="cls-7" x1="489.05" y1="140.34" x2="559.05" y2="140.34"/>
    <line class="cls-7" x1="489.05" y1="130.34" x2="559.05" y2="130.34"/>
    <line class="cls-7" x1="489.05" y1="120.34" x2="559.05" y2="120.34"/>
    <line class="cls-7" x1="489.05" y1="110.34" x2="559.05" y2="110.34"/>
    <line class="cls-7" x1="494.98" y1="100.34" x2="489.05" y2="100.34"/>
    <line class="cls-7" x1="559.05" y1="100.34" x2="554.44" y2="100.34"/>
    <line class="cls-7" x1="563.05" y1="90.34" x2="554.44" y2="90.34"/>
    <line class="cls-7" x1="494.98" y1="90.34" x2="489.05" y2="90.34"/>
    <line class="cls-7" x1="563.05" y1="80.34" x2="554.44" y2="80.34"/>
    <line class="cls-7" x1="494.98" y1="80.34" x2="489.05" y2="80.34"/>
    <line class="cls-3" x1="108.02" y1="246.34" x2="39.67" y2="246.34"/>
    <polygon class="cls-1" points="18.05 271.34 18.05 271.34 18.05 256.84 29.05 264.09 18.05 271.34"/>
    <line class="cls-3" x1="563.05" y1="270.34" x2="563.05" y2="92.34"/>
    <line class="cls-3" x1="559.05" y1="270.34" x2="559.05" y2="92.34"/>
    <line class="cls-9" x1="484.5" y1="266.14" x2="484.5" y2="122.84"/>
    <line class="cls-9" x1="486.71" y1="266.14" x2="486.71" y2="122.84"/>
    <line class="cls-9" x1="334.71" y1="222.11" x2="334.71" y2="178.04"/>
    <line class="cls-9" x1="336.96" y1="222.11" x2="336.96" y2="178.04"/>
    <line class="cls-9" x1="339.19" y1="222.11" x2="339.19" y2="178.04"/>
    <line class="cls-9" x1="334.65" y1="221.9" x2="339.13" y2="221.9"/>
    <line class="cls-9" x1="484.47" y1="221.9" x2="488.95" y2="221.9"/>
    <path class="cls-8" d="m309.36,82.01v15.43c0,2.16-1.76,3.92-3.93,3.92h-25.02c-2.17,0-3.92-1.76-3.92-3.92v-15.43c0-2.17,1.75-3.92,3.92-3.92h25.02c.49,0,.96.09,1.39.26l-3.18,3.18c-.22.22-.22.58,0,.8l1.09,1.09c.22.22.58.22.8,0l3.33-3.33c.32.56.5,1.22.5,1.92Z"/>
    <rect class="cls-8" x="233.49" y="119.56" width="29.91" height="23.27" rx="3.92" ry="3.92" transform="translate(379.64 -117.25) rotate(90)"/>
    <circle class="cls-8" cx="248.43" cy="125.06" r="5.51"/>
    <circle class="cls-8" cx="254.02" cy="137.55" r="4.51"/>
    <circle class="cls-8" cx="242.92" cy="138.45" r="4.01"/>
  </g>
  <g id="_레이어_4" data-name="레이어 4">
    <rect class="cls-8" x="43.99" y="73.22" width="88.05" height="117.12" rx="4.99" ry="4.99"/>
    <rect class="cls-8" x="50.49" y="101.46" width="75.96" height="83.61" rx="4.72" ry="4.72"/>
    <rect class="cls-8" x="341.75" y="124.13" width="37.98" height="91.13" rx="4.72" ry="4.72"/>
    <path class="cls-8" d="m350.58,215.26h-4.11c-2.61,0-4.72-2.11-4.72-4.72v-2.91"/>
    <path class="cls-8" d="m341.75,207.63v-75.87"/>
    <path class="cls-8" d="m341.75,131.76v-2.92c0-2.6,2.11-4.71,4.72-4.71h4.11"/>
    <path class="cls-8" d="m350.58,124.13h24.43c2.61,0,4.72,2.11,4.72,4.72v2.91c0,2.6-2.11,4.71-4.72,4.71h-17.37c-1.29,0-2.34,1.05-2.34,2.34v61.77c0,1.29,1.05,2.34,2.34,2.34h17.37c2.61,0,4.72,2.12,4.72,4.72v2.91c0,2.61-2.11,4.72-4.72,4.72h-24.43"/>
    <rect class="cls-8" x="383.69" y="126.25" width="47.12" height="84.08" rx="4.72" ry="4.72"/>
    <rect class="cls-8" x="379.29" y="75.74" width="79.59" height="30.24" rx="4.72" ry="4.72"/>
    <rect class="cls-8" x="138.01" y="73.22" width="25.14" height="104.51"/>
    <rect class="cls-8" x="239.11" y="208.04" width="31.66" height="16.2"/>
    <rect class="cls-8" x="205.41" y="225.89" width="27.63" height="14.82" rx="2.83" ry="2.83"/>
    <rect class="cls-8" x="97.77" y="199.22" width="20.68" height="14.82" rx="2.83" ry="2.83"/>
    <rect class="cls-8" x="341.64" y="251.25" width="20.65" height="11.56" rx="2.83" ry="2.83"/>
    <rect class="cls-8" x="408.56" y="251.25" width="27.44" height="11.56" rx="2.83" ry="2.83"/>
    <rect class="cls-8" x="363.95" y="251.25" width="14.88" height="11.56" rx="2.83" ry="2.83"/>
    <rect class="cls-8" x="460.09" y="181.64" width="22.7" height="17.56" rx="2.83" ry="2.83" transform="translate(661.87 -281.01) rotate(90)"/>
    <rect class="cls-8" x="380.07" y="251.25" width="14.88" height="11.56" rx="2.83" ry="2.83"/>
    <rect class="cls-8" x="42.73" y="193.96" width="80.88" height="24.78"/>
    <rect class="cls-8" x="237.98" y="165.85" width="35.45" height="36.63" rx="3.92" ry="3.92"/>
    <rect class="cls-8" x="521.47" y="256.99" width="29.9" height="25.7" rx="3.92" ry="3.92"/>
    <rect class="cls-8" x="522.97" y="250.53" width="26.91" height="4.08" rx="1.77" ry="1.77"/>
    <path class="cls-8" d="m554.06,280.34v.97c0,2.16-1.75,3.92-3.92,3.92h-.79"/>
    <line class="cls-8" x1="549.35" y1="285.23" x2="539.35" y2="285.23"/>
    <line class="cls-8" x1="539.35" y1="285.23" x2="529.35" y2="285.23"/>
    <path class="cls-8" d="m529.35,285.23h-6.81c-1.32,0-2.48-.65-3.19-1.65"/>
    <path class="cls-8" d="m519.35,283.58c-.46-.64-.73-1.42-.73-2.27v-.97"/>
    <line class="cls-8" x1="518.62" y1="280.34" x2="518.62" y2="270.34"/>
    <line class="cls-8" x1="518.62" y1="270.34" x2="518.62" y2="260.34"/>
    <path class="cls-8" d="m518.62,260.34v-7.82c0-.81.24-1.56.66-2.18h.07"/>
    <path class="cls-8" d="m519.35,250.34v-.09c.71-1,1.87-1.65,3.19-1.65h6.81"/>
    <path class="cls-8" d="m519.35,250.25v.09h-.07s.05-.06.07-.09Z"/>
    <line class="cls-8" x1="529.35" y1="248.6" x2="539.35" y2="248.6"/>
    <line class="cls-8" x1="539.35" y1="248.6" x2="549.35" y2="248.6"/>
    <path class="cls-8" d="m549.35,248.6h.79c1.36,0,2.56.69,3.26,1.74"/>
    <path class="cls-8" d="m553.4,250.34c.42.62.66,1.37.66,2.18v7.82"/>
    <line class="cls-8" x1="554.06" y1="260.34" x2="554.06" y2="270.34"/>
    <line class="cls-8" x1="554.06" y1="270.34" x2="554.06" y2="280.34"/>
    <path class="cls-8" d="m513.53,280.34v2.11c0,1.42-1.15,2.58-2.58,2.58h-1.6"/>
    <line class="cls-8" x1="509.35" y1="285.03" x2="499.35" y2="285.03"/>
    <line class="cls-8" x1="494.26" y1="280.34" x2="494.26" y2="270.34"/>
    <path class="cls-8" d="m499.35,285.03h-2.51c-1.43,0-2.58-1.16-2.58-2.58v-2.11"/>
    <line class="cls-8" x1="494.26" y1="270.34" x2="494.26" y2="260.34"/>
    <path class="cls-8" d="m494.26,260.34v-7.42c0-1.42,1.15-2.58,2.58-2.58h2.51"/>
    <line class="cls-8" x1="499.35" y1="250.34" x2="509.35" y2="250.34"/>
    <path class="cls-8" d="m509.35,250.34h1.6c1.43,0,2.58,1.16,2.58,2.58v7.42"/>
    <line class="cls-8" x1="513.53" y1="260.34" x2="513.53" y2="270.34"/>
    <line class="cls-8" x1="513.53" y1="270.34" x2="513.53" y2="280.34"/>
    <rect class="cls-8" x="532.81" y="193.52" width="24.79" height="40.23" rx="3.92" ry="3.92"/>
    <path class="cls-8" d="m554.44,100.34v2.68c0,2.17-1.76,3.92-3.93,3.92h-51.61c-2.17,0-3.92-1.75-3.92-3.92v-2.68"/>
    <path class="cls-8" d="m494.98,100.34v-21.29c0-2.16,1.75-3.92,3.92-3.92h51.61c2.17,0,3.93,1.76,3.93,3.92v21.29"/>
    <path class="cls-8" d="m210.55,217.97h-.49c-2.17,0-3.92-1.75-3.92-3.92v-22.49c0-2.17,1.75-3.93,3.92-3.93h.49"/>
    <line class="cls-8" x1="220.55" y1="217.97" x2="210.55" y2="217.97"/>
    <line class="cls-8" x1="210.55" y1="187.63" x2="220.55" y2="187.63"/>
    <path class="cls-8" d="m220.55,187.63h5.87c2.17,0,3.92,1.76,3.92,3.93v22.49c0,2.17-1.75,3.92-3.92,3.92h-5.87"/>
    <path class="cls-8" d="m218.79,202.03v1.54c0,.32.26.57.57.57h8.68v8.08c0,2.17-1.75,3.92-3.92,3.92h-11.76c-2.17,0-3.92-1.75-3.92-3.92v-18.45c0-2.17,1.75-3.93,3.92-3.93h11.76c2.17,0,3.92,1.76,3.92,3.93v7.7h-8.68c-.31,0-.57.25-.57.56Z"/>
    <rect class="cls-8" x="305.39" y="148.9" width="27.64" height="28.57" rx="3.92" ry="3.92"/>
    <rect class="cls-8" x="380.72" y="82.64" width="27.64" height="4.68" rx="2.34" ry="2.34" transform="translate(-7.39 121.53) rotate(-17.35)"/>
    <path class="cls-2" d="m241.39,268.34h83.99c2.17,0,3.92,1.76,3.92,3.92v10.4c0,1.52-1.24,2.76-2.76,2.76h-85.15c-1.52,0-2.76-1.24-2.76-2.76v-11.56c0-1.52,1.24-2.76,2.76-2.76Z"/>
    <rect class="cls-8" x="315.41" y="179.64" width="17.62" height="22.7" rx="7.86" ry="7.86"/>
    <rect class="cls-8" x="463.73" y="78.37" width="17.62" height="22.7" rx="5.54" ry="5.54"/>
    <rect class="cls-8" x="340.95" y="102.76" width="17.62" height="19.42" rx="7.86" ry="7.86"/>
    <path class="cls-8" d="m200.55,178.8c-4.67-1.45-8.06-5.81-8.06-10.95v-.1c0-5.15,3.39-9.51,8.06-10.96"/>
    <path class="cls-8" d="m210.55,179.3h-6.61c-1.18,0-2.32-.18-3.39-.5"/>
    <path class="cls-8" d="m200.55,156.79c1.07-.32,2.21-.5,3.39-.5h6.61"/>
    <path class="cls-8" d="m210.55,156.29h3.53c1.93,0,3.7.7,5.07,1.85-.58.76-.91,1.7-.91,2.72v13.87c0,1.02.33,1.96.91,2.72-1.37,1.15-3.14,1.85-5.07,1.85h-3.53"/>
    <path class="cls-8" d="m220.55,156.89c.67-.38,1.44-.6,2.26-.6h2.54c2.53,0,4.58,2.05,4.58,4.57v13.87c0,2.52-2.05,4.57-4.58,4.57h-2.54c-.82,0-1.59-.22-2.26-.6"/>
    <path class="cls-4" d="m219.15,177.45c-.58-.76-.91-1.7-.91-2.72v-13.87c0-1.02.33-1.96.91-2.72"/>
    <path class="cls-4" d="m219.15,158.14c.37-.51.85-.94,1.4-1.25"/>
    <path class="cls-4" d="m220.55,178.7c-.55-.32-1.03-.74-1.4-1.25"/>
    <rect class="cls-8" x="90.82" y="78.53" width="35.63" height="18.3" rx="2.76" ry="2.76"/>
    <rect class="cls-8" x="50.49" y="78.53" width="35.63" height="18.3" rx="2.76" ry="2.76"/>
    <circle class="cls-8" cx="244.92" cy="79.85" r="3.04"/>
    <circle class="cls-8" cx="258.53" cy="82.52" r="2.46"/>
    <circle class="cls-8" cx="251.56" cy="88.68" r="2.74"/>
    <circle class="cls-8" cx="260.08" cy="93.44" r="3.04"/>
    <circle class="cls-8" cx="246.18" cy="216.14" r="2.74"/>
    <circle class="cls-8" cx="253.93" cy="216.44" r="3.35"/>
    <circle class="cls-8" cx="264.73" cy="215.83" r="3.04"/>
    <circle class="cls-8" cx="471.14" cy="188.54" r="2.16"/>
    <circle class="cls-8" cx="475.84" cy="183.73" r="2.16"/>
    <circle class="cls-8" cx="476.49" cy="195.56" r="1.73"/>
    <circle class="cls-8" cx="468.38" cy="195.06" r="1.73"/>
    <circle class="cls-8" cx="248.92" cy="96.49" r="2.74"/>
    <path class="cls-8" d="m306.82,78.35l3.41-3.41c.22-.22.58-.22.81,0l1.08,1.08c.22.23.22.59,0,.81l-3.26,3.26"/>
    <path class="cls-8" d="m228.04,201.47h.64c.31,0,.57.25.57.56v1.54c0,.32-.26.57-.57.57h-.64"/>
    <path class="cls-8" d="m228.04,204.14h-8.68c-.31,0-.57-.25-.57-.57v-1.54c0-.31.26-.56.57-.56h8.68"/>
    <path class="cls-8" d="m220.55,131h8.13c.31,0,.57.26.57.57v.77"/>
    <path class="cls-8" d="m218.79,132.34v-.77c0-.31.26-.57.57-.57h1.19"/>
    <path class="cls-8" d="m220.55,133.68h-1.19c-.31,0-.57-.26-.57-.57v-.77"/>
    <path class="cls-8" d="m229.25,132.34v.77c0,.31-.26.57-.57.57h-8.13"/>
    <path class="cls-8" d="m230.32,122.85c-5.8,0-10.51-4.71-10.51-10.51h10.51v10.51Z"/>
    <rect class="cls-8" x="338.52" y="266.14" width="103.93" height="23.23"/>
    <line class="cls-8" x1="390.48" y1="266.14" x2="390.48" y2="289.37"/>
    <line class="cls-8" x1="364.84" y1="266.14" x2="364.84" y2="289.37"/>
    <line class="cls-8" x1="416.47" y1="266.14" x2="416.47" y2="289.37"/>
    <rect class="cls-8" x="443.63" y="267.83" width="19.84" height="19.84"/>
    <rect class="cls-8" x="463.47" y="267.83" width="19.84" height="19.84"/>
    <line class="cls-8" x1="355.3" y1="169.69" x2="379.73" y2="169.69"/>
    <path class="cls-8" d="m426.98,155.36c0,3.86-2.68,7.11-6.28,7.98-1.41-4.73-5.17-8.45-9.93-9.81.82-3.66,4.09-6.38,8-6.38,4.53,0,8.21,3.67,8.21,8.21Z"/>
    <ellipse class="cls-8" cx="446.45" cy="256.21" rx="7.1" ry="5.87"/>
    <circle class="cls-8" cx="472.54" cy="167.87" r="5.87"/>
    <path class="cls-8" d="m556.95,180.34c0,4.23-3.39,7.67-7.6,7.75"/>
    <path class="cls-8" d="m549.35,188.09h-.15c-4.28,0-7.75-3.47-7.75-7.75"/>
    <path class="cls-8" d="m541.45,180.34c0-4.28,3.47-7.75,7.75-7.75h.15"/>
    <path class="cls-8" d="m549.35,172.59c4.21.08,7.6,3.52,7.6,7.75"/>
    <ellipse class="cls-8" cx="474.63" cy="151.87" rx="5.14" ry="5.4"/>
    <ellipse class="cls-8" cx="473.82" cy="136.59" rx="4.59" ry="5.14"/>
    <ellipse class="cls-8" cx="464.45" cy="143.43" rx="3.47" ry="3.11"/>
    <ellipse class="cls-8" cx="477.54" cy="111.52" rx="3.72" ry="3.11"/>
    <path class="cls-8" d="m421.3,167.49c0,8.03-6.51,14.53-14.53,14.53s-14.52-6.5-14.52-14.53,6.5-14.52,14.52-14.52c1.39,0,2.73.2,4,.56,4.76,1.36,8.52,5.08,9.93,9.81.39,1.32.6,2.71.6,4.15Z"/>
    <ellipse class="cls-8" cx="348.72" cy="94.38" rx="4.85" ry="6.01"/>
    <ellipse class="cls-8" cx="354.48" cy="78.5" rx="8.48" ry="4.85" transform="translate(-8.28 63.46) rotate(-10.11)"/>
    <path class="cls-8" d="m409.9,136.2c1.33,3.84-1.45,8.28-6.19,9.92s-9.67-.14-10.99-3.98.55-10.7,5.29-12.33,10.56,2.56,11.89,6.4Z"/>
    <path class="cls-8" d="m409.66,200.83c-2.32-3.33-.86-8.36,3.26-11.23,4.12-2.87,9.34-2.49,11.66.84,2.32,3.33,2.39,10.44-1.73,13.31s-10.86.41-13.18-2.92Z"/>
    <path class="cls-8" d="m438.05,100.82h-27.72c-.66,0-1.18-.56-1.14-1.22l1.07-16.88c.04-.6.54-1.07,1.14-1.07h26.02c.62,0,1.12.49,1.14,1.1l.63,16.88c.02.65-.5,1.19-1.14,1.19Z"/>
  </g>
  <g id="_레이어_6" data-name="레이어 6">
    <line class="cls-7" x1="210.55" y1="222.24" x2="210.55" y2="217.97"/>
    <line class="cls-7" x1="210.55" y1="156.29" x2="210.55" y2="109.24"/>
    <line class="cls-7" x1="210.55" y1="187.63" x2="210.55" y2="179.3"/>
    <line class="cls-7" x1="220.55" y1="222.24" x2="220.55" y2="217.97"/>
    <line class="cls-7" x1="220.55" y1="131" x2="220.55" y2="116.03"/>
    <line class="cls-7" x1="220.55" y1="156.89" x2="220.55" y2="133.68"/>
    <line class="cls-7" x1="220.55" y1="187.63" x2="220.55" y2="178.7"/>
    <line class="cls-7" x1="168.05" y1="172.34" x2="193.4" y2="172.34"/>
    <line class="cls-7" x1="168.05" y1="162.34" x2="193.84" y2="162.34"/>
  </g>
</svg>