<?xml version="1.0" encoding="UTF-8"?>
<svg id="_레이어_2" data-name="레이어 2" xmlns="http://www.w3.org/2000/svg" viewBox="0 0 600 268.8">
  <defs>
    <style>
      .cls-1 {
        fill: #3f3f3f;
        stroke-width: 0px;
      }

      .cls-2, .cls-3, .cls-4, .cls-5, .cls-6 {
        fill: none;
        stroke: #3f3f3f;
        stroke-miterlimit: 10;
      }

      .cls-3, .cls-4 {
        stroke-width: 5px;
      }

      .cls-4 {
        stroke-linecap: square;
      }

      .cls-5 {
        opacity: .6;
      }

      .cls-5, .cls-6 {
        stroke-width: .5px;
      }
    </style>
  </defs>
  <g>
    <line class="cls-3" x1="37.87" y1="176.98" x2="127.83" y2="176.98"/>
    <line class="cls-3" x1="166.47" y1="64.89" x2="231.21" y2="64.89"/>
    <line class="cls-2" x1="106.84" y1="176.86" x2="106.84" y2="245.99"/>
    <line class="cls-3" x1="166.6" y1="24.97" x2="166.6" y2="179.6"/>
    <polyline class="cls-3" points="231.34 24.97 231.34 176.86 201.19 176.86"/>
    <line class="cls-3" x1="335.91" y1="24.97" x2="335.91" y2="100.91"/>
    <path class="cls-4" d="M560,227.33v18.65s-524.37,0-522.88,0v-6.89M37.12,199.1l.45-176.1h522.88l-.45,22.1"/>
    <line class="cls-3" x1="166.6" y1="23" x2="231.21" y2="63.89"/>
    <line class="cls-3" x1="166.47" y1="63.89" x2="231.34" y2="22.2"/>
    <line class="cls-3" x1="335.91" y1="193.06" x2="335.91" y2="246.11"/>
    <line class="cls-3" x1="485.68" y1="193.56" x2="485.68" y2="246.6"/>
    <line class="cls-3" x1="485.68" y1="24.6" x2="485.68" y2="77.64"/>
  </g>
  <line class="cls-2" x1="337.12" y1="64.6" x2="232" y2="64.6"/>
  <line class="cls-2" x1="487.65" y1="196.16" x2="487.65" y2="77.6"/>
  <line class="cls-5" x1="518.3" y1="246.6" x2="518.3" y2="24.6"/>
  <line class="cls-5" x1="508.3" y1="246.6" x2="508.3" y2="24.6"/>
  <line class="cls-5" x1="498.3" y1="246.6" x2="498.3" y2="24.6"/>
  <line class="cls-5" x1="528.3" y1="246.6" x2="528.3" y2="24.6"/>
  <line class="cls-5" x1="538.3" y1="246.6" x2="538.3" y2="24.6"/>
  <line class="cls-5" x1="548.3" y1="246.6" x2="548.3" y2="24.6"/>
  <line class="cls-5" x1="488" y1="135.1" x2="558" y2="135.1"/>
  <line class="cls-5" x1="488" y1="145.1" x2="558" y2="145.1"/>
  <line class="cls-5" x1="488" y1="155.1" x2="558" y2="155.1"/>
  <line class="cls-6" x1="167" y1="177.1" x2="232" y2="177.1"/>
  <line class="cls-5" x1="167" y1="167.1" x2="232" y2="167.1"/>
  <line class="cls-5" x1="199.5" y1="64" x2="199.5" y2="177"/>
  <line class="cls-5" x1="209.5" y1="64" x2="209.5" y2="177"/>
  <line class="cls-5" x1="219.5" y1="64" x2="219.5" y2="177"/>
  <line class="cls-5" x1="189.5" y1="64" x2="189.5" y2="177"/>
  <line class="cls-5" x1="179.5" y1="64" x2="179.5" y2="177"/>
  <line class="cls-5" x1="167" y1="157.1" x2="232" y2="157.1"/>
  <line class="cls-5" x1="167" y1="147.1" x2="232" y2="147.1"/>
  <line class="cls-5" x1="167" y1="137.1" x2="232" y2="137.1"/>
  <line class="cls-5" x1="167" y1="127.1" x2="232" y2="127.1"/>
  <line class="cls-5" x1="167" y1="117.1" x2="232" y2="117.1"/>
  <line class="cls-5" x1="167" y1="107.1" x2="232" y2="107.1"/>
  <line class="cls-5" x1="167" y1="97.1" x2="232" y2="97.1"/>
  <line class="cls-5" x1="167" y1="87.1" x2="232" y2="87.1"/>
  <line class="cls-5" x1="167" y1="77.1" x2="232" y2="77.1"/>
  <line class="cls-6" x1="167" y1="67.1" x2="232" y2="67.1"/>
  <line class="cls-5" x1="488" y1="165.1" x2="558" y2="165.1"/>
  <line class="cls-5" x1="488" y1="175.1" x2="558" y2="175.1"/>
  <line class="cls-5" x1="488" y1="185.1" x2="558" y2="185.1"/>
  <line class="cls-5" x1="488" y1="195.1" x2="558" y2="195.1"/>
  <line class="cls-5" x1="488" y1="205.1" x2="558" y2="205.1"/>
  <line class="cls-5" x1="488" y1="215.1" x2="558" y2="215.1"/>
  <line class="cls-5" x1="488" y1="225.1" x2="562" y2="225.1"/>
  <line class="cls-5" x1="488" y1="235.1" x2="562" y2="235.1"/>
  <line class="cls-5" x1="488" y1="125.1" x2="558" y2="125.1"/>
  <line class="cls-5" x1="488" y1="115.1" x2="558" y2="115.1"/>
  <line class="cls-5" x1="488" y1="105.1" x2="558" y2="105.1"/>
  <line class="cls-5" x1="488" y1="95.1" x2="558" y2="95.1"/>
  <line class="cls-5" x1="488" y1="85.1" x2="558" y2="85.1"/>
  <line class="cls-5" x1="488" y1="75.1" x2="558" y2="75.1"/>
  <line class="cls-5" x1="488" y1="65.1" x2="558" y2="65.1"/>
  <line class="cls-5" x1="558" y1="55.1" x2="488" y2="55.1"/>
  <line class="cls-5" x1="488" y1="45.1" x2="562" y2="45.1"/>
  <line class="cls-5" x1="488" y1="35.1" x2="562" y2="35.1"/>
  <line class="cls-2" x1="106.98" y1="201.1" x2="38.62" y2="201.1"/>
  <polygon class="cls-1" points="17 226.1 17 226.1 17 211.6 28 218.85 17 226.1"/>
  <g>
    <path class="cls-1" d="M284.33,91.6h-6.08v5.31h-.86v-5.31h-6.08v-.75h13.02v.75ZM277.38,83.87h-4.53v-.72h9.94v.72h-4.51c0,.47-.05.9-.15,1.27-.1.37-.28.72-.54,1.05l.05.02.24-.18c.12-.08.23-.13.34-.13.07,0,.17.03.27.08l4.85,2.56-.48.66-4.9-2.64c-.15-.07-.28-.11-.4-.11-.06,0-.15.02-.26.06-.39.42-.95.84-1.66,1.26-.71.43-1.67.92-2.86,1.47l-.48-.64c1.39-.63,2.44-1.19,3.16-1.67.72-.48,1.22-.95,1.5-1.41.28-.46.42-1.01.43-1.65Z"/>
    <path class="cls-1" d="M292.45,89.7h-6.32v-6.51h.83v2.42h4.64v-2.45h.85v6.54ZM291.61,86.32h-4.64v2.66h4.64v-2.66ZM296.89,94.18c0,.57-.16,1.07-.48,1.52-.32.45-.8.8-1.45,1.06s-1.44.38-2.39.38-1.75-.13-2.41-.38c-.66-.26-1.14-.61-1.46-1.06-.32-.45-.48-.95-.48-1.52s.16-1.05.48-1.5c.32-.44.81-.79,1.46-1.06.66-.26,1.46-.39,2.41-.39s1.73.13,2.38.39c.65.26,1.14.61,1.46,1.06.32.44.48.94.48,1.5ZM295.97,94.04c0-.58-.28-1.08-.85-1.48-.57-.4-1.42-.61-2.56-.61-.78,0-1.42.1-1.94.29-.51.2-.89.45-1.14.77-.25.31-.37.66-.37,1.03v.29c0,.36.12.7.37,1.02.25.32.62.58,1.14.77.51.2,1.16.29,1.94.29s1.42-.1,1.93-.29c.51-.2.88-.45,1.12-.77.24-.31.36-.66.36-1.03v-.29ZM299.03,86.24v.75h-2.27v3.9h-.86v-8.32h.86v3.66h2.27Z"/>
  </g>
  <g>
    <path class="cls-1" d="M187.19,127.39l.1.72c-1.19.19-2.61.34-4.23.44-1.63.1-3.3.15-5.03.15l-.06-.72c1.4,0,2.76-.03,4.08-.1v-2.11c-.86-.06-1.55-.31-2.06-.74-.51-.43-.77-.98-.77-1.65,0-.48.12-.9.38-1.26.25-.36.61-.63,1.08-.82v-.08h-2.51v-.69h8.54v.69h-2.4v.08c.48.19.84.47,1.09.82.25.36.37.78.37,1.26,0,.67-.26,1.22-.78,1.66s-1.22.67-2.08.73v2.08c1.69-.1,3.12-.26,4.3-.46ZM182.31,125.06h.35c.66,0,1.21-.16,1.63-.49s.64-.79.64-1.37-.21-1.07-.63-1.39c-.42-.32-.97-.49-1.64-.49h-.35c-.68,0-1.23.16-1.66.49-.42.32-.63.79-.63,1.39s.21,1.04.64,1.37c.43.33.98.49,1.65.49ZM184.68,118.63h-4.24v-.72h4.24v.72ZM191.61,123.95h-2.27v7.06h-.86v-13.76h.86v5.98h2.27v.72Z"/>
    <path class="cls-1" d="M193.3,124.91l-.62-.54c.94-.78,1.65-1.43,2.14-1.95.49-.52.84-1.03,1.06-1.54.21-.51.32-1.1.32-1.77v-.26h-3.17v-.72h7.18v.72h-3.14v.31c0,.87-.18,1.65-.54,2.33l.1.05.18-.13c.12-.07.21-.11.27-.11.08,0,.18.04.29.13l3.22,2.69-.64.58-3.22-2.77c-.05-.05-.13-.08-.22-.08s-.17.03-.22.08c-.29.43-.66.87-1.13,1.34s-1.08,1.02-1.85,1.66ZM203.75,128.85c0,.57-.16,1.07-.48,1.52-.32.45-.8.8-1.45,1.06s-1.44.38-2.39.38-1.75-.13-2.41-.38c-.66-.26-1.14-.61-1.46-1.06-.32-.45-.48-.95-.48-1.52s.16-1.05.48-1.5c.32-.44.81-.79,1.46-1.06.66-.26,1.46-.39,2.41-.39s1.73.13,2.38.39c.65.26,1.14.61,1.46,1.06.32.44.48.94.48,1.5ZM202.84,128.72c0-.58-.28-1.08-.84-1.49s-1.42-.61-2.57-.61c-.78,0-1.43.1-1.94.29-.52.2-.9.45-1.14.77-.24.32-.36.66-.36,1.03v.29c0,.37.12.71.36,1.02.24.31.62.57,1.14.76.52.2,1.17.29,1.94.29s1.42-.1,1.94-.29c.51-.2.89-.45,1.12-.76.23-.31.35-.65.35-1.02v-.29ZM205.9,120.91v.75h-2.27v3.9h-.86v-8.32h.86v3.66h2.27Z"/>
    <path class="cls-1" d="M211,121.3c-.07,0-.14.03-.19.1-.28.44-.65.9-1.12,1.38-.47.48-1.11,1.08-1.94,1.81l-.62-.58c.96-.82,1.69-1.51,2.18-2.06s.85-1.09,1.06-1.63.32-1.17.32-1.88v-.77h.88v.82c0,.96-.18,1.79-.53,2.5l.06.03.19-.16c.11-.08.2-.13.27-.13.09,0,.17.04.26.13l3.31,2.86-.62.61-3.3-2.93c-.06-.06-.14-.1-.22-.1ZM219,130.91v.75h-8.53c-.41,0-.61-.2-.61-.61v-2.88h7.86v-2.03h-7.97v-.72h8.83v3.47h-7.86v2.02h8.27ZM218.58,124.5h-.86v-7.25h.86v7.25Z"/>
  </g>
  <g>
    <path class="cls-1" d="M397.34,136.4h6v2.14c0,1.16-.17,2.15-.52,2.95-.35.81-.93,1.56-1.75,2.27-.82.71-2.01,1.49-3.57,2.33l-.51-.66c1.47-.79,2.6-1.51,3.37-2.15.77-.65,1.32-1.33,1.63-2.06.31-.72.47-1.62.47-2.67v-1.44h-5.12v-.72ZM408.11,135.25v13.76h-.87v-7.44h-3.31v-.72h3.31v-5.6h.87Z"/>
    <path class="cls-1" d="M414.86,139.3c-.08,0-.14.03-.19.1-.28.44-.65.9-1.12,1.38-.47.48-1.12,1.08-1.94,1.81l-.62-.58c.96-.82,1.69-1.51,2.18-2.06.5-.55.85-1.09,1.06-1.63.21-.54.32-1.17.32-1.88v-.77h.88v.82c0,.96-.18,1.79-.53,2.5l.06.03.19-.16c.11-.08.2-.13.27-.13.08,0,.17.04.26.13l3.31,2.86-.62.61-3.3-2.93c-.06-.06-.14-.1-.22-.1ZM422.86,148.91v.75h-8.53c-.4,0-.61-.2-.61-.61v-2.88h7.86v-2.03h-7.97v-.72h8.83v3.47h-7.86v2.02h8.27ZM422.45,142.5h-.87v-7.25h.87v7.25Z"/>
  </g>
  <g>
    <path class="cls-1" d="M89.49,103.73l-.61-.53c.97-.67,1.7-1.23,2.2-1.67.5-.45.85-.88,1.07-1.31.22-.43.33-.92.33-1.48v-.03h-3.26v-.72h7.33v.72h-3.23v.05c0,.79-.18,1.47-.54,2.02l.08.05.19-.16c.1-.06.18-.1.26-.1s.18.04.3.11l3.3,2.29-.61.56-3.28-2.37c-.07-.06-.16-.1-.26-.1-.11,0-.2.04-.27.11-.27.35-.63.72-1.09,1.1-.46.38-1.09.87-1.9,1.46ZM95.04,96.31h-4.32v-.72h4.32v.72ZM100.17,104.8v4.78h-7.98c-.41,0-.61-.2-.61-.61v-4.18h8.59ZM99.31,105.52h-6.86v3.34h6.86v-3.34ZM100.16,103.91h-.85v-8.66h.85v8.66Z"/>
    <path class="cls-1" d="M106.86,99.3c-.07,0-.14.03-.19.1-.28.44-.65.9-1.12,1.38-.47.48-1.11,1.08-1.94,1.81l-.62-.58c.96-.82,1.69-1.51,2.18-2.06s.85-1.09,1.06-1.63.32-1.17.32-1.88v-.77h.88v.82c0,.96-.18,1.79-.53,2.5l.06.03.19-.16c.11-.08.2-.13.27-.13.09,0,.17.04.26.13l3.31,2.86-.62.61-3.3-2.93c-.06-.06-.14-.1-.22-.1ZM114.86,108.91v.75h-8.53c-.41,0-.61-.2-.61-.61v-2.88h7.86v-2.03h-7.97v-.72h8.83v3.47h-7.86v2.02h8.27ZM114.45,102.5h-.86v-7.25h.86v7.25Z"/>
  </g>
  <line class="cls-2" x1="562" y1="225.1" x2="562" y2="47.1"/>
  <line class="cls-2" x1="558" y1="225.1" x2="558" y2="47.1"/>
</svg>