<?xml version="1.0" encoding="UTF-8"?>
<svg id="_레이어_1" data-name="레이어 1" xmlns="http://www.w3.org/2000/svg" viewBox="0 0 207.13 385.1">
  <defs>
    <style>
      .cls-1 {
        fill: #3f3f3f;
        stroke-width: 0px;
      }

      .cls-2 {
        stroke-miterlimit: 10;
      }

      .cls-2, .cls-3 {
        fill: none;
        stroke: #3f3f3f;
        stroke-linecap: round;
        stroke-width: 2px;
      }

      .cls-3 {
        stroke-linejoin: round;
      }
    </style>
  </defs>
  <g id="_레이어_2" data-name="레이어 2">
    <g id="_레이어_9" data-name="레이어 9">
      <path class="cls-2" d="M165.4,168.5c-.3-2-.3-4.1-.1-6.1.2-1.6.5-3.3,1-4.9"/>
      <path class="cls-2" d="M166.6,157.9c.7,1.8,1.4,3.6,2.2,5.5.9,1.9,1.7,3.7,2.6,5.4"/>
      <path class="cls-2" d="M171.6,157.5c.1,1.6.2,2.9.2,4.8,0,2.3-.1,4.4-.3,6.3"/>
      <path class="cls-2" d="M176.9,162.8c-.8-.1-1.7.2-2.3.7-.8.7-1.3,1.7-1.3,2.8-.1,1.4.7,2.6,1.9,3.2,1.1.3,2.4-.1,3.1-1,.8-.9,1-2.2.7-3.3,0-.3-.5-2.1-2.1-2.4Z"/>
      <path class="cls-2" d="M181.3,162.2c-.3,1.6-.2,3.3.3,4.8.3,1,.8,2,1.4,2.9"/>
      <path class="cls-2" d="M183.1,169.9c.5-.9,1-1.7,1.4-2.6.6-1.1,1-2.4,1.2-3.6.1-.4.1-.8.1-1.1"/>
    </g>
    <g id="_레이어_7" data-name="레이어 7">
      <path class="cls-2" d="M169.1,19.7c3.1,2.5,4.8,6.4,4.5,10.3"/>
      <path class="cls-2" d="M109,51c-1-2-2.8-3.3-4.9-3.8-1.9-.2-3.8.3-5.2,1.5-1.5,1.3-2.4,3.1-2.6,5.1-.1,1.5.1,2.9.6,4.3.7,2.1,1.5,4.9,4.1,6.8,2.3,1.6,5.1,2.2,7.9,1.8"/>
      <path class="cls-2" d="M109,67.6c1.1,4.9,3.2,9.4,6.3,13.3,2.5,3.1,5.5,5.7,8.9,7.8,1,.7,7.9,4.9,14.3,5.5,11.8,1.1,23.4-8.5,27.6-18.2,2.2-4.9,3.2-11.8,3.8-16,.5-3.5.8-6.4.9-8.4"/>
      <path class="cls-2" d="M106,46.7c.1-2.8.3-5.6.5-8.5.1-1.8-.2-15.2-.1-17"/>
      <path class="cls-2" d="M109.9,54.8c-.3-7.4,1.8-14.7,6-20.9"/>
      <path class="cls-2" d="M120.5,38.4c5.2-1.4,10.8-1.4,16,0"/>
      <path class="cls-2" d="M151,40.9c2.2-.3,4.3-.3,6.5-.2,2.1,0,4.2.5,6.1,1.4,1.2.6,2.3,1.3,3.4,2.2"/>
      <path class="cls-1" d="M160.2,47.5c-.3-.3-.7-.5-1.2-.5-.7,0-1.4.1-1.9.5-.7.5-1.1,1.4-.9,2.2,0,.6.1,1.2.4,1.7.2.4.5.7.9,1,.6.3,1.4.4,2,.1.6-.1,1.2-.5,1.5-1,.9-1,.4-3.1-.8-4Z"/>
      <path class="cls-1" d="M129.6,43.2c-.5.1-1,.3-1.5.5-.3.2-.6.6-.7,1-.2.6-.3,1.3-.3,1.9,0,.9.1,1.1.2,1.3.2.3.4.6.6.8.5.3,1,.6,1.6.7.6.2,1.2.2,1.7,0,.9-.3.9-.5,1-.6.6-1.1.8-2.3.5-3.5-.7-1.3-1.9-2-3.1-2.1Z"/>
      <path class="cls-2" d="M146.4,46.7c.9,3,1.9,6.2,2.9,9.5.8,2.9,1.2,4.2.5,5.3-1.4,2.4-6.1,1.9-6.9,1.8"/>
      <path class="cls-2" d="M109.2,70.4c-.2,5.9-.4,11.7-.7,17.6"/>
      <path class="cls-2" d="M141.7,94.8c-.4,2-.7,4-.8,6.1-.1,2.5,0,5,.3,7.5"/>
      <path class="cls-2" d="M108.1,88.6c-3.4.6-6.5,2.2-9,4.6"/>
      <path class="cls-2" d="M98.6,93.9c.5,1.7.4,3.4-.4,5-.6,1.2-2.5,2.4-3.1,2.8"/>
      <path class="cls-2" d="M94.9,102c1.8,2.1,3.6,4.3,5.3,6.4,5.6,6.8,11,13.6,16.3,20.3"/>
      <path class="cls-2" d="M107.1,89.8c-.2,3.7,0,7.4.7,11.1.8,4.2,2,7,3.5,11.1,1.4,3.7,3.3,9.1,5.2,16"/>
      <path class="cls-2" d="M141.5,109.1c1.1,5.7,1.9,10.5,2.5,14,1.6,9.9,2,13,2.1,14.4.3,2.9.3,4.2.7,11.1.3,5.7.3,9.7.6,13.3"/>
      <path class="cls-2" d="M110,105.8c3.9,3.3,8.6,5.7,13.6,6.8,2.9.7,5.9.9,8.9.5s5.9-1.4,8.5-2.9"/>
      <path class="cls-2" d="M142.5,96.6l4.2,1.7"/>
      <path class="cls-2" d="M147.2,98.5c1.6,3.9,3.3,7.2,4.3,9.8,3,7.7,3.9,11,4.4,12.5.7,2.4,1.2,4.4,1.5,5.8"/>
      <path class="cls-2" d="M147.5,145.3c2-2.7,3.9-5.5,5.5-8.4,1.8-3.3,3.3-6.6,4.5-10.2"/>
      <path class="cls-2" d="M150.9,105c2.8,1.4,6.7,3.4,11.4,5.9,5.7,3.1,9.3,5,13.9,8,4,2.5,7.8,5.2,11.4,8.1,3.5,2.9,6.9,6,10.1,9.3"/>
      <path class="cls-2" d="M94.3,102c-2.8.4-5.7,1-8.4,1.8-5,1.5-8.4,3.1-15.1,6.6-6.3,3.2-11.6,6-15.7,8.2"/>
      <path class="cls-2" d="M54.5,118.9c-1.5,3.3-3.7,8.1-6.3,14-3.8,8.6-5.7,12.9-7.4,17.5-3.2,8.6-5.6,17.4-7.4,26.3-1.9,9.3-3.1,18.8-3.7,28.2-1.6,19.2-.6,28.3.1,32.7.2,1.1-.2,3.7,1.2,6.5.3.6,1.9,3.9,6.8,6.3,6.8,3.4,14,2.4,17.9,1.8,15-2.3,22.5-3.4,33.2-6.5,17.5-5,26.5-9.6,29.8-11.3,3.5-1.8,6.3-3.5,8.3-4.8"/>
      <path class="cls-2" d="M49.8,211.2c13.4-1.4,27.7-3.4,42.7-6.3,8.2-1.6,16.2-3.3,23.7-5.2"/>
      <path class="cls-2" d="M88.2,158.9c-2.1,7.3-4.1,14.9-6.1,22.6-2.3,8.8-4.4,17.4-6.3,25.9"/>
      <path class="cls-2" d="M116.1,200c-.2,1.2,0,2.5.6,3.6.2.4.5.8.8,1.1"/>
      <path class="cls-2" d="M124.4,222.4c.4,1.3.9,2.7,1.5,3.9.5,1.1,1.1,2.1,1.6,3.1"/>
      <path class="cls-2" d="M147,161.9c-1.4-.5-4.1-1.9-6.1-1.2-.6.2-1.2.6-1.7,1-1.9,1.5-6.9,3.9-12.8,7.8"/>
      <path class="cls-2" d="M125.6,199c-.9-8.2-1-16.4-.3-24.6.1-1.5.3-3,.5-4.5"/>
      <path class="cls-2" d="M112.9,207.8c3-1.5,5.8-3.3,8.6-5.2,1.4-1,2.7-2,4-2.9"/>
      <path class="cls-2" d="M112.5,208.3c.2,2.4.6,4.8,1.2,7.1.4,1.8,1.1,3.5,2,5.1.6,1,1.4,1.9,2.3,2.8"/>
      <path class="cls-2" d="M118.6,223.6c2.9-.6,5.7-1.4,8.4-2.5,4.1-1.6,7.7-3.1,10.9-6.5,1.9-2.1,3.4-4.5,4.3-7.1.8-2.1.8-3.3,2-9,.4-2,.8-3.7,1.1-4.7"/>
      <path class="cls-2" d="M145.4,193.3l5.2-.2"/>
      <path class="cls-2" d="M138.8,185.6c3-.3,6.2-.5,9.5-.5,1.9,0,3.4-.1,5.2,0"/>
      <path class="cls-2" d="M134.8,178.7c3.1-.7,6.5-1.3,10.1-1.8,2.7-.4,5.3-.7,7.8-.9"/>
      <path class="cls-2" d="M130.4,172c6-2.7,12.4-4.1,19-4.2"/>
      <path class="cls-2" d="M150.2,167.7c1,.7,1.8,1.7,2.3,2.8.6,1.5.8,3.2.4,4.8"/>
      <path class="cls-2" d="M147.9,162.8l2.7,4"/>
      <path class="cls-2" d="M153.1,175.8c.3.6.6,1.2.8,1.8.2,1,.3,2,.1,3-.1,1.1-.2,2.6-.6,4.3"/>
      <path class="cls-2" d="M154.1,175.3c1.1-1.2,2.3-2.2,3.6-3.2.6-.4,1.1-.9,1.4-1.6.1-.7-.1-1.5-.6-2.1-.3-.4-.9-.8-4.1-.8-1.3,0-2.4,0-3.2.1"/>
      <path class="cls-2" d="M154.1,185c.7.3,1.3.8,1.8,1.5.7,1.2.8,2.7.4,4-.3,2-1.2,3.9-2.6,5.4-1.1,1.3-2.4,2.2-4,2.8-1.7.6-3.5.6-5.1.1"/>
      <path class="cls-2" d="M79.4,106.9c9.4,11.2,17,20,22.2,26,6.3,7.2,11.2,12.7,17.5,21.2,4.1,5.5,7.3,10.2,9.4,13.4"/>
      <path class="cls-2" d="M116.9,129.3c5.1,5.4,9.7,11.3,13.9,17.5,3.1,4.6,5.9,9.3,8.4,14.2"/>
      <path class="cls-2" d="M54.6,253.1c-.2,11.1-.3,22.5-.3,34,0,5,0,9.9.1,14.8"/>
      <path class="cls-2" d="M123.7,232.3v32.4c0,14.7,0,29.3.1,43.9"/>
      <path class="cls-2" d="M198.2,136.9c4.2,19.7,6.7,39.6,7.6,59.7.6,15.5.4,31-.8,46.5-1.1,15.5-3.4,30.8-5.2,41.3"/>
      <path class="cls-2" d="M191.3,163.1c-1.4,18.8-2.5,38.1-3.3,58-1.1,27.1-1.6,53.3-1.5,78.6"/>
      <path class="cls-2" d="M147.5,199.8c-.3,17.9-.5,36.2-.5,54.6s.1,35.5.4,52.9"/>
      <path class="cls-2" d="M147.4,308c6.5,1,13.1,1.2,19.6.4,10.2-1.2,13.7-4.1,15.4-5.2,1.5-1.1,2.9-2.2,4.2-3.4"/>
      <path class="cls-2" d="M54.5,301.9c3.7,1,8.7,3,14.9,4.1,8.8,1.6,17.8,2.6,26.8,2.9,9.1.5,18.3.5,27.4,0"/>
      <path class="cls-2" d="M60.9,304.4c-.3,14.3-.8,28.9-1.5,43.8-.6,12.2-1.3,24.1-2.1,35.9"/>
      <path class="cls-2" d="M147.8,333.3l-17.2,5.7"/>
      <path class="cls-2" d="M130.3,333c-.4,11.3-.9,22.7-1.5,34.4-.3,5.6-.7,11.2-1.1,16.7"/>
      <path class="cls-2" d="M124.2,302.3c3.4.1,7.1.2,11,0,4.2-.1,8.2-.4,11.9-.8"/>
      <path class="cls-2" d="M184.8,301.5c-.3,4.1-.7,10-.9,17-.1,1.9-.2,7.7,0,22.5.2,12.9.4,16.6.6,31.9.1,4.7.1,8.6.1,11.1"/>
      <path class="cls-2" d="M51.1,125.2c-8.2.5-16.3,2-24.1,4.4-5,1.6-9.9,3.6-14.7,6"/>
      <path class="cls-2" d="M12.1,136c-.6,3.4-1.4,8.3-2,14.2-.8,7.7-1,13.8-1.1,19-.3,19.7.5,43.9.7,48.9"/>
      <path class="cls-2" d="M9.8,218.5c3.6-.1,7.2-.3,11-.6,2.6-.2,5.2-.4,7.8-.7"/>
      <path class="cls-2" d="M8.7,209.6l-7.5,2.1"/>
      <path class="cls-2" d="M1,211.9c1,9.3,2,17.1,2.9,22.9,3,21,5.7,31.6,6.7,35.7.7,2.9,1.4,5.2,1.8,6.7"/>
      <path class="cls-2" d="M12.8,277.6l5.8,3"/>
      <path class="cls-2" d="M19.2,280.8c7.4.9,15.1,1.7,23.2,2.2,3.9.2,7.7.4,11.4.5"/>
      <path class="cls-2" d="M187,284.2c2.8-.2,5.6-.2,8.4,0,1.5.1,2.9.3,4.2.5"/>
      <path class="cls-2" d="M194.9,284.5l.2,9.2"/>
      <path class="cls-2" d="M195.1,294.1c1.2,3.7,2.2,7.4,3,11.2.8,4.1-1.3,4.3-2.2,6.5-.9,2-2.2,3.8-3.8,5.3"/>
      <path class="cls-2" d="M184.3,329.3c.9,0,2.4-2.6,4.9-4.3,2.2-1.5,2.7-6.9,2.9-7.9"/>
      <path class="cls-2" d="M116.1,33.2l.4-6.2"/>
      <path class="cls-2" d="M116.4,27c5.7-2.7,14.2-7.8,24.2-7.9,2.7,0,5.3.2,7.9.7"/>
      <path class="cls-2" d="M106.6,20.5c3-3.8,8-8.1,10.7-9.3,5.1-2.2,8.8-3.8,13-4.5,2.2-.3,4.4-.5,6.7-.6,9.3-.5,11.3.4,15.8-.5,3.4-.7,6.7-2,9.7-3.9"/>
      <path class="cls-2" d="M157.7,21.4c3.4.8,12,4.7,15.9,8.6"/>
      <path class="cls-2" d="M170.9,51.7c.3-4.6.3-9.2,0-13.7-.2-3.6-.6-7-1-10.1"/>
      <path class="cls-2" d="M157.7,10.3c1.7-1.6,3.2-3.5,4.1-5.7.5-1.2.9-2.4,1.2-3.6"/>
      <path class="cls-2" d="M157.8,10.5c3.1.1,6.2-.1,9.2-.7,1.8-.5,3.5-1.1,5.2-1.8"/>
      <path class="cls-2" d="M165.5,13.4c1.4-.5,2.8-1.2,4.1-2,1.2-.8,2.1-2,2.6-3.4"/>
      <path class="cls-2" d="M165.4,13.8c2.6.9,5.2,1.6,7.9,2.1,2.8.5,5.6.6,8.4.5"/>
      <path class="cls-2" d="M169.6,19.7c2.2.2,4.4.2,6.5-.3,2-.4,3.9-1.1,5.7-2"/>
      <path class="cls-3" d="M129.6,73.5c4.5,5.8,12.4,7.7,19,4.6"/>
      <path class="cls-2" d="M149,19.9c1.8.5,3.5,1.3,5.1,2.2,1.9,1.2,3.6,2.6,5,4.3"/>
    </g>
  </g>
</svg>