<?xml version="1.0" encoding="UTF-8"?>
<svg id="_레이어_1" data-name="레이어 1" xmlns="http://www.w3.org/2000/svg" viewBox="0 0 319.94 558.7">
  <defs>
    <style>
      .cls-1 {
        fill: #3f3f3f;
        stroke-width: 0px;
      }

      .cls-2 {
        stroke-width: 5px;
      }

      .cls-2, .cls-3, .cls-4 {
        fill: none;
        stroke: #3f3f3f;
        stroke-linecap: round;
        stroke-miterlimit: 10;
      }

      .cls-3 {
        stroke-width: 3px;
      }

      .cls-4 {
        stroke-width: 4px;
      }
    </style>
  </defs>
  <g id="_레이어_2" data-name="레이어 2">
    <g id="_레이어_8" data-name="레이어 8">
      <path class="cls-1" d="M76.1,99.8c-.5.6-.9,1.3-1,2.1-.1,1.2.1,2.5.8,3.5.4.8,1.1,1.4,2,1.7.6.2,1.3.3,2,.2,1.2-.1,2.4-.5,3.4-1.1.6-.2,1.2-.6,1.7-1.2.7-1.1.8-2.4.3-3.6-.2-1.1-.8-2.1-1.7-2.8-2-1.7-5.7-.9-7.5,1.2Z"/>
      <path class="cls-1" d="M34.6,116.8c-.6.5-1,1.2-1.5,1.8-.2.6-.3,1.3-.1,1.9.2,1,.7,1.9,1.2,2.7.7,1.1,1.1,1.3,1.3,1.4.4.2.9.4,1.4.5.9,0,1.7-.1,2.5-.4,1.3-.6,1.5-.7,2.1-1.4.5-.4.7-1,.8-1.7.2-1.1-1.3-4.4-2.3-4.8-1.3-.8-3.9-1.1-5.4,0Z"/>
      <path class="cls-3" d="M57.2,177.7c13.5-.5,26.6-4.4,38.1-11.3"/>
      <path class="cls-3" d="M48.7,118.2c-6.6,20-4.9,36,2.5,39.8,1.6.8,4.4,1.6,9.4,0"/>
    </g>
    <g id="_레이어_4" data-name="레이어 4">
      <path class="cls-3" d="M18.5,82.5c-2.2,9.5-2.2,19.3-.2,28.8.8,4.2,1.3,4.4,3.8,14.2,3.6,14,3.1,15.7,5.4,23.4,2.3,7.9,5.7,15.5,10,22.6.4.6,5.6,7.2,15.9,20.3,2.5,3.3,5.2,6.4,8,9.4,2.8,2.8,5.9,5.3,9.4,7.2,12.2,6.4,28.7.1,35-2.4,12.9-5,19.9-12.3,23.5-15.8,5.2-4.8,9.9-10.2,13.8-16.1,6.5-10.7,7.3-21.2,7.7-27.7"/>
      <path class="cls-3" d="M119.2,69.7l-11.7-5.2c-2.7-5.3-6.4-10-10.9-13.8-11.1-9.3-23.7-10.2-29.1-10.5-6.8-.4-13.6.5-20.1,2.7-5.1,1.8-9.9,4.5-14.2,7.8"/>
      <path class="cls-3" d="M141.2,74.1c-2.7,6.1-4.5,12.7-5.2,19.3-1,9.4.6,15.9-.8,16.3-2.2.6-7.9-14.6-9.2-18-2.7-7.2-5-14.5-6.9-22"/>
      <path class="cls-2" d="M56.8,97.3c9.6-8.9,22.3-13.6,35.4-13.2"/>
      <path class="cls-2" d="M35.3,106.3c-5.7,0-11.3,1.6-16.1,4.6"/>
      <path class="cls-3" d="M88.2,211.5c.3,1.4.5,3.9,1.7,6.1,1.5,2.6,3.7,3.7,4.7,4.7,3.5,3.2,5.2,2.9,8.2,5.8,1.3,1.4,2.5,2.9,3.4,4.6,2,3.2,5,7.8,9.3,14.2"/>
      <path class="cls-3" d="M161.4,118.2c.6,2.6,1.6,6.5,2.7,11.2,2.1,9.1,2.1,10.2,3.2,13.8,1.6,5.4,3.4,8.9,6.7,15.6,2.6,5.4,5.5,10.5,8.8,15.4,2.8,4.1,5.9,8,9.2,11.7"/>
      <path class="cls-3" d="M144.9,81.6c2-2.3,4.2-4.3,6.6-6.1,2.1-1.6,3.6-2.4,5.5-2.4.9,0,1.9.2,2.7.5,3.6,1.5,6.5,7.9,7.6,14.3.5,3,2.1,11.8-2.2,20.6-1.4,2.9-2.1,3-7.3,11.2-2.5,3.9-4.4,7.1-5.6,9.2"/>
      <path class="cls-3" d="M47.7,1.5c10.8-.1,21.6,1.8,31.7,5.6"/>
      <path class="cls-3" d="M80,6.2c2-1.7,4.3-3,6.8-3.8,5.9-1.8,10.9-.1,14.4,1.1,5.4,1.9,10.2,5.1,14,9.4"/>
      <path class="cls-3" d="M108.9,6.1c2.6.2,5.1.6,7.6,1.2,7.1,2,13.5,5.8,18.7,11,8.3,7.8,11.9,16.3,14.4,22.5,4.1,10.1,6.3,20.8,6.3,31.7"/>
      <path class="cls-3" d="M152,83.7c-4.2,5.2-4.4,8.2-3.7,10,.6,1.6,2.1,2.1,3.8,4.8.9,1.7,1.3,3.7,1.3,5.6.1,2.3-1.3,4.3-1.7,5.4"/>
      <path class="cls-3" d="M35.7,7.3c1.8-1.5,3.7-2.7,5.9-3.6,1.6-.7,3.3-1.1,5.1-1.4"/>
      <path class="cls-3" d="M13.8,47.2c-5.6,1.1-10.3,5.1-12.3,10.5"/>
      <path class="cls-3" d="M25,42.9c-2.5-2.2-5.6-3.7-8.9-4.3-4.6-.8-9.3.1-13.3,2.6"/>
      <path class="cls-3" d="M34.7,47c1.3-5,.7-10.3-1.8-14.9-2-3.3-4.8-6.1-8.2-7.9-4.9-2.9-10.4-4.3-16.1-4.1"/>
      <path class="cls-3" d="M21.5,54.8c-3.8-.6-7.7.3-10.9,2.5-5.1,3.8-7,11.3-4.4,18.4"/>
      <path class="cls-3" d="M39.7,40.1c3-4.4,4.5-9.7,4.2-15.1-.7-9.4-7.4-17.8-17.2-21.7"/>
      <path class="cls-1" d="M105,281.5c-.4-1.7-.8-3.4-1.1-5.1l-.5-2.6c-.1-.4-.2-.9-.2-1.3l.1-1.3c.2-3.4.5-6.9,1-10.3.2-1.8.6-3.6,1.2-5.4.3-1,.8-1.9,1.5-2.7.6-.8,1.2-1.5,1.9-2.2,1.4-1.2,2.9-2.3,4.6-3.2,1.6-.9,3.1-1.6,4.6-2.3,1.7-.8,3.5-1.4,5.3-1.8.9-.2,1.7-.3,2.4-.5.5-.1,1-.3,1.3-.6.2-.2.3-.4.5-.6.2-.3.3-.5.4-.8.2-.6.4-1.5.9-2.6.9-2,2.5-3.6,4.5-4.5.5-.2.9-.4,1.4-.6l1.2-.4c.7-.2,1.3-.6,1.9-.9,1.4-.8,2.7-1.8,3.9-2.8,2.6-2.1,5.2-4.3,7.7-6.5,5-4.4,9.6-9.3,14.3-14.3l3.5-3.7c1.1-1.2,2.4-2.5,3.6-3.7,2.5-2.4,5-4.7,7.4-7,1.2-1.2,2.4-2.3,3.5-3.6.6-.7,1.2-1.4,1.9-2,.7-.7,1.5-1.3,2.4-1.8,1.7-1,3.6-1.7,5.6-1.8,1.8-.1,3.7-.1,5.5.2,3.5.5,6.9,1.3,10.3,2.4,3.3,1.1,6.4,2.5,9.6,3.6,1.6.6,3.2,1.1,4.8,1.6,1.6.5,3.2.9,4.8,1.3.9.2,1.8.5,2.7.8.9.3,1.7.6,2.5,1,1.6.7,3.2,1.6,4.7,2.5,3,1.8,5.8,3.8,8.5,5.9,2.8,2,5.5,4.1,8.1,6.3,2.7,2.1,5.3,4.3,8,6.5,1.3,1.1,2.7,2.1,3.9,3.3s2.5,2.3,3.8,3.5c5,4.7,9.7,9.8,14.1,15,9,10.3,17.1,21.3,24.4,32.9,1.8,2.9,3.6,5.8,5.3,8.9,1.6,3.1,3.1,6.3,4.3,9.5.6,1.6,1.1,3.3,1.6,5,.2.8.5,1.7.7,2.5.3.8.4,1.7.5,2.6.2,3.5.2,7-.1,10.5-1-3.3-2.1-6.5-3.5-9.6-.3-.8-.6-1.6-.8-2.4-.2-.8-.4-1.6-.7-2.4-.5-1.6-1-3.2-1.6-4.7-2.4-6.2-5.4-12.2-9.2-17.7-7.2-11.4-15.2-22.3-24.1-32.5-4.3-5.1-9-10-13.9-14.7-1.2-1.2-2.5-2.3-3.7-3.4s-2.6-2.1-3.9-3.2c-2.6-2.1-5.2-4.3-7.8-6.4s-5.3-4.2-8-6.2-5.4-3.9-8.2-5.7c-1.4-.9-2.8-1.6-4.2-2.3-.7-.3-1.5-.6-2.2-.9-.7-.3-1.5-.5-2.2-.6-1.7-.4-3.4-.9-5.1-1.4-1.6-.5-3.3-1.1-4.9-1.7-3.2-1.2-6.4-2.5-9.5-3.6-3.1-1-6.3-1.8-9.5-2.3-1.5-.2-3.1-.3-4.6-.2-1.4.1-2.8.5-4,1.3-.6.4-1.2.8-1.7,1.3s-1,1-1.6,1.7c-1.2,1.3-2.4,2.5-3.6,3.7-2.5,2.4-5,4.7-7.4,7-1.2,1.2-2.3,2.3-3.5,3.6l-3.5,3.7c-4.6,5-9.4,10-14.6,14.6-2.6,2.3-5.2,4.4-7.9,6.6-1.4,1.1-2.9,2.2-4.4,3.1-.8.5-1.7.9-2.6,1.2-.5.2-.9.3-1.2.4-.3.1-.6.2-.9.4-1.1.5-2.1,1.4-2.6,2.5-.2.5-.4,1.3-.8,2.3-.4,1.1-1,2.1-1.8,2.9-.9.8-2,1.4-3.1,1.7-1,.2-1.8.4-2.6.5-1.5.3-3,.8-4.3,1.4-3,1.5-6.1,2.9-8.2,4.8-.5.5-1,1-1.4,1.6-.4.5-.7,1.1-.9,1.7-.5,1.5-.8,3-1,4.6-.5,3.3-.7,6.6-1,10l-.1,1.3c-.1.4-.2.8-.3,1.2l-.7,2.5c-.6,2-1,3.7-1.4,5.4Z"/>
      <path class="cls-1" d="M104.5,271.4c-.9,1.3-1.7,2.6-2.5,4-.4.7-.7,1.4-1.1,2-.2.3-.3.7-.5,1l-.7.9c-1.8,2.3-3.4,4.8-4.7,7.4-2.8,5.4-5.2,10.9-7.2,16.6-1,2.8-1.9,5.7-2.7,8.6-.7,3-1.4,5.9-2,8.9-1.2,6-2.1,12-2.9,18s-1.3,12.1-1.7,18.2-.7,12.4-.6,18.4c.1,6.1.5,12.1,1.1,18.2s1.2,12.2,1.9,18.3c2.9,24.4,6.1,48.7,9.2,73.1,1.6,12.2,2.9,24.4,3.8,36.7.5,6.2.8,12.3,1.1,18.5.1,1.5.1,3.1.2,4.6l.1,2.3c.1.8,0,1.5-.1,2.3l-1.5,9.3-2.1-9.1c-.2-.7-.3-1.5-.2-2.3l-.1-2.3c-.1-1.5-.1-3.1-.2-4.6-.3-6.1-.7-12.2-1.1-18.3-.9-12.2-2.2-24.4-3.8-36.5-3.1-24.4-6.4-48.7-9.2-73.1-.7-6.1-1.4-12.2-1.9-18.4s-1-12.3-1.1-18.5.2-12.4.6-18.6,1-12.3,1.7-18.5,1.7-12.3,2.9-18.3c.6-3,1.3-6.1,2-9.1.8-3,1.7-6,2.8-9,2.1-5.9,4.6-11.6,7.4-17.2,1.5-2.8,3.2-5.6,5.1-8.1.2-.3.5-.6.8-.9s.6-.6,1-.8c.7-.5,1.3-.9,2-1.4,1.3-.8,2.7-1.5,4.2-2.3Z"/>
      <path class="cls-1" d="M170.3,268.1l.6,2.5.3,1.2c.1.2.1.4.1.6l-.1.6c-.3,1.5-.6,3-.9,4.4-.5,3-1.1,5.9-1.5,8.9-.9,5.9-1.5,11.9-1.9,18-1.6,24.1.6,48.2,6.6,71.6,1.5,5.8,3.2,11.6,5.1,17.3,1,2.9,2,5.7,3.1,8.5.3.7.5,1.4.8,2.1l.4,1c.2.3.3.7.3,1.1v4.9c-1.1-1.2-2.3-2.3-3.4-3.5-.3-.3-.5-.6-.6-1l-.4-1.1c-.3-.7-.6-1.4-.8-2.1-1.1-2.9-2.1-5.7-3.1-8.6-2-5.8-3.7-11.7-5.2-17.6-3-11.9-5.1-24-6.2-36.2-1.1-12.2-1.3-24.5-.5-36.7.4-6.1,1.1-12.2,1.9-18.3.4-3,1-6,1.5-9.1.3-1.5.6-3,.9-4.5l.1-.6c.1-.2.2-.4.4-.5l.8-1,1.7-1.9Z"/>
      <path class="cls-1" d="M184.6,397.3l1.1,1.5.6.7c.1.1.2.2.2.4v.4l-.1,2.8c-.1,1.9-.1,3.7-.1,5.6,0,3.8.1,7.5.2,11.2.3,7.5.9,15,1.9,22.4s2.3,14.8,4,22.1c.8,3.7,1.7,7.3,2.8,10.9.5,1.8,1,3.6,1.6,5.4l.4,1.3.2.7c.1.2.2.4.1.7l-.9,3.2-2.6-2.1c-.3-.2-.3-.4-.4-.6l-.2-.7-.4-1.4c-.5-1.8-1.1-3.7-1.6-5.5-1-3.7-1.9-7.4-2.8-11.1-1.7-7.4-3-14.9-4-22.5s-1.6-15.1-1.9-22.8c-.1-3.8-.2-7.6-.2-11.4,0-1.9,0-3.8.1-5.7l.1-2.9v-.4c.1-.1.1-.3.3-.4l.6-.7,1-1.1Z"/>
      <path class="cls-1" d="M157.5,546.6l.7-1.8.3-.9c0-.1.1-.3.2-.4l.3-.2c.8-.6,1.7-1.2,2.5-1.8,1.6-1.2,3.2-2.4,4.8-3.8,3.1-2.6,5.9-5.5,8.5-8.6,2.6-3.1,4.9-6.4,7-9.8,2-3.5,3.8-7.2,5.3-11,1.6-3.6,2.8-7.6,4.2-11.5,1.4-4,3.2-7.9,5.4-11.6,2.2-3.7,4.7-7.1,7.6-10.2l2.2-2.3c.7-.8,1.6-1.5,2.3-2.2l1.2-1.1c.2-.2.4-.3.6-.5s.4-.4.7-.4l3.6-.6c-.4,1.1-.9,2.3-1.2,3.4,0,.3-.3.4-.5.6s-.4.3-.6.5l-1.1,1c-.7.7-1.5,1.3-2.2,2l-2.1,2.2c-2.7,3-5.1,6.2-7.1,9.6-2,3.5-3.8,7.1-5.1,10.9-1.4,3.8-2.6,7.8-4.3,11.8-1.6,3.9-3.4,7.7-5.5,11.4-2.2,3.7-4.6,7.2-7.4,10.4s-5.8,6.2-9,9c-1.6,1.4-3.3,2.7-5,3.9-.9.6-1.7,1.2-2.6,1.8l-.3.2h-3.4Z"/>
    </g>
    <g id="_레이어_6_사본" data-name="레이어 6 사본">
      <path class="cls-4" d="M126.1,352.9c-1.2-3.5-2-7.1-2.3-10.8-.2-2.3,0-4.7.4-7"/>
      <path class="cls-4" d="M124.3,335.1c2.9,6.2,7.1,10.9,10.6,16.4"/>
      <path class="cls-4" d="M135,351.2c-.2-2.4-.5-4.9-.9-7.6-.5-3.3-1.1-6.7-1.9-9.9"/>
      <path class="cls-4" d="M141.1,341.3c-2,0-3.7,1.3-4.3,3.2-.6,2-.1,4.2,1.4,5.6,1.4,1.4,3.6,1.6,5.3.5,1.2-.8,1.9-2.2,1.8-3.7,0-1.6-.5-3.1-1.5-4.3-.6-.8-1.6-1.3-2.7-1.3Z"/>
      <path class="cls-4" d="M145.1,339.3c.4,2.6,1.4,5.1,2.9,7.3.7.9,1.4,1.8,2.2,2.6"/>
      <path class="cls-4" d="M150.5,349c.5-.8.9-1.5,1.3-2.4.7-1.3,1.1-2.6,1.4-4,.2-1.5.2-3,0-4.6"/>
    </g>
  </g>
</svg>