<?xml version="1.0" encoding="UTF-8"?>
<svg xmlns="http://www.w3.org/2000/svg" viewBox="0 0 600 463.6">
  <defs>
    <style>
      .cls-1 {
        fill: #3f3f3f;
        stroke-width: 0px;
      }

      .cls-2 {
        fill: none;
        stroke: #3f3f3f;
        stroke-linejoin: round;
        stroke-width: .5px;
      }
    </style>
  </defs>
  <g id="_레이어_2" data-name="레이어 2">
    <polygon class="cls-1" points="220.3 358.33 220.3 358.33 220.3 343.83 231.3 351.08 220.3 358.33"/>
  </g>
  <g id="_레이어_6" data-name="레이어 6">
    <g>
      <g>
        <polygon class="cls-1" points="518.62 284.77 518.62 398.89 279.58 398.89 279.58 372.49 289.56 372.49 289.56 388.93 314.46 388.93 354.28 388.93 384.18 388.93 394.13 388.93 394.13 370 404.08 370 404.08 371.5 404.08 381.45 404.08 388.93 430.25 388.93 433.98 388.93 442.68 388.93 453.14 388.93 454.72 388.93 465.1 388.93 476.99 388.93 495.22 388.93 508.67 388.93 508.67 386.45 508.67 371.5 508.67 356.55 508.67 341.63 508.67 326.68 493.73 326.68 478.8 326.68 463.85 326.68 448.9 326.68 433.98 326.68 419.02 326.68 404.08 326.68 394.13 326.68 394.13 317.72 402.1 317.72 433.98 317.72 433.98 313.14 433.98 297.05 433.98 290.33 443.93 290.33 443.93 302.77 443.93 317.72 458.88 317.72 466.34 317.72 486.26 317.72 488.75 317.72 503.7 317.72 508.67 317.72 508.67 302.77 508.67 287.85 508.67 284.77 518.62 284.77"/>
        <polygon class="cls-1" points="518.62 64.71 518.62 107.47 508.67 107.47 508.67 93.6 508.67 78.67 508.67 74.69 503.7 74.69 448.9 74.69 443.93 74.69 443.93 78.67 443.93 90.63 433.98 90.63 433.98 74.69 411.06 74.69 390.14 74.69 330.4 74.69 250.7 74.69 250.7 107.05 250.7 183.25 273.11 183.25 273.11 193.22 250.7 193.22 250.7 216.11 240.74 216.11 240.74 212.55 240.74 157.75 240.74 102.08 240.74 83.59 240.74 74.69 239.28 74.69 237.81 74.69 236.34 74.69 234.16 74.69 232.7 74.69 231.22 74.69 229.75 74.69 180.98 74.69 151.1 74.69 91.35 74.69 91.35 77.17 91.35 96.11 91.35 107.56 81.38 107.56 81.38 64.71 518.62 64.71"/>
        <polygon class="cls-1" points="443.93 213.12 443.93 220.61 433.98 220.61 433.98 193.22 377.7 193.22 332.88 193.22 319.94 193.22 319.94 183.25 433.98 183.25 433.98 179.77 443.93 179.77 443.93 183.25 443.93 198.2 443.93 213.12"/>
        <polygon class="cls-1" points="289.56 301.77 289.56 327.66 279.58 327.66 279.58 306.18 249.03 278.37 81.38 278.37 81.38 232.56 91.35 232.56 91.35 241.01 91.35 268.4 180.98 268.4 240.74 268.4 240.74 262.94 250.7 262.94 250.7 266.42 289.56 301.77"/>
      </g>
      <g>
        <polyline class="cls-2" points="433.98 90.63 433.98 91.61 438.95 91.61"/>
        <line class="cls-2" x1="250.7" y1="193.22" x2="250.7" y2="216.11"/>
        <line class="cls-2" x1="289.56" y1="301.77" x2="289.56" y2="327.66"/>
        <line class="cls-2" x1="314.46" y1="372.49" x2="314.46" y2="388.93"/>
        <line class="cls-2" x1="314.46" y1="329.67" x2="314.46" y2="372.49"/>
        <line class="cls-2" x1="354.28" y1="372.49" x2="354.28" y2="388.93"/>
        <line class="cls-2" x1="279.58" y1="306.18" x2="279.58" y2="327.66"/>
        <line class="cls-2" x1="279.58" y1="372.49" x2="279.58" y2="398.89"/>
        <polyline class="cls-2" points="289.56 388.93 314.46 388.93 354.28 388.93 384.18 388.93 394.13 388.93"/>
        <polyline class="cls-2" points="289.56 372.49 314.46 372.49 354.28 372.49 384.18 372.49"/>
        <line class="cls-2" x1="279.58" y1="398.89" x2="518.62" y2="398.89"/>
        <polyline class="cls-2" points="394.13 326.68 394.13 317.72 402.1 317.72 433.98 317.72"/>
        <polyline class="cls-2" points="433.98 317.72 433.98 313.14 433.98 297.05 433.98 290.33"/>
        <line class="cls-2" x1="433.98" y1="220.61" x2="433.98" y2="193.22"/>
        <line class="cls-2" x1="428.98" y1="267.92" x2="428.98" y2="226.09"/>
        <line class="cls-2" x1="402.1" y1="317.72" x2="402.1" y2="223.09"/>
        <line class="cls-2" x1="406.08" y1="267.92" x2="406.08" y2="226.09"/>
        <polyline class="cls-2" points="377.7 237.03 377.7 232.05 377.7 223.09 377.7 193.22"/>
        <polyline class="cls-2" points="332.88 237.03 332.88 232.05 332.88 193.22"/>
        <polyline class="cls-2" points="433.98 193.22 377.7 193.22 332.88 193.22 319.94 193.22"/>
        <polyline class="cls-2" points="377.7 237.03 355.3 237.03 332.88 237.03"/>
        <polyline class="cls-2" points="377.7 232.05 355.3 232.05 332.88 232.05"/>
        <line class="cls-2" x1="402.1" y1="223.09" x2="377.7" y2="223.09"/>
        <line class="cls-2" x1="428.98" y1="267.92" x2="406.08" y2="267.92"/>
        <line class="cls-2" x1="428.98" y1="226.09" x2="406.08" y2="226.09"/>
        <line class="cls-2" x1="273.11" y1="193.22" x2="250.7" y2="193.22"/>
        <polyline class="cls-2" points="330.4 95.61 390.14 95.61 411.06 95.61"/>
        <line class="cls-2" x1="250.7" y1="107.05" x2="330.4" y2="107.05"/>
        <line class="cls-2" x1="433.98" y1="90.63" x2="443.93" y2="90.63"/>
        <line class="cls-2" x1="433.98" y1="74.69" x2="433.98" y2="90.63"/>
        <polyline class="cls-2" points="433.98 179.77 433.98 183.25 319.94 183.25"/>
        <line class="cls-2" x1="273.11" y1="183.25" x2="250.7" y2="183.25"/>
        <polyline class="cls-2" points="330.4 107.05 330.4 95.61 330.4 74.69"/>
        <line class="cls-2" x1="390.14" y1="95.61" x2="390.14" y2="74.69"/>
        <line class="cls-2" x1="411.06" y1="95.61" x2="411.06" y2="74.69"/>
        <polyline class="cls-2" points="238.26 104.56 220.82 104.56 200.9 104.56 183.46 104.56"/>
        <line class="cls-2" x1="91.35" y1="232.56" x2="91.35" y2="241.01"/>
        <polyline class="cls-2" points="180.98 260.77 180.98 260.8 180.98 268.4"/>
        <line class="cls-2" x1="81.38" y1="64.71" x2="81.38" y2="107.56"/>
        <line class="cls-2" x1="81.38" y1="232.56" x2="81.38" y2="278.37"/>
        <polyline class="cls-2" points="91.35 268.4 180.98 268.4 240.74 268.4"/>
        <polyline class="cls-2" points="93.84 238.53 143.47 238.53 164.3 238.53 178.49 238.53"/>
        <path class="cls-2" d="m93.84,238.53l-.39.02c-1.04.17-1.9,1.03-2.06,2.06l-.03.4"/>
        <line class="cls-2" x1="81.38" y1="278.37" x2="249.03" y2="278.37"/>
        <line class="cls-2" x1="240.74" y1="268.4" x2="240.74" y2="262.94"/>
        <line class="cls-2" x1="225.8" y1="212.55" x2="225.8" y2="157.75"/>
        <line class="cls-2" x1="180.98" y1="102.08" x2="180.98" y2="74.69"/>
        <path class="cls-2" d="m180.98,102.08l.02.39c.17,1.04,1.02,1.9,2.06,2.06l.4.02"/>
        <polyline class="cls-2" points="443.93 74.69 448.9 74.69 503.7 74.69 508.67 74.69"/>
        <polyline class="cls-2" points="448.9 99.59 458.88 99.59 473.8 99.59 488.75 99.59 503.7 99.59"/>
        <polyline class="cls-2" points="508.67 74.69 508.67 78.67 508.67 93.6 508.67 107.47"/>
        <polyline class="cls-2" points="508.67 284.77 508.67 287.85 508.67 302.77 508.67 317.72"/>
        <polyline class="cls-2" points="488.75 99.59 488.75 108.55 488.75 123.49 488.75 138.42 488.75 153.37 488.75 168.32 488.75 183.25 488.75 198.2 488.75 213.12 488.75 228.07 488.75 243.02 488.75 257.94 488.75 265.43"/>
        <polyline class="cls-2" points="488.75 295.3 488.75 302.77 488.75 317.72"/>
        <polyline class="cls-2" points="503.7 99.59 503.7 108.55 503.7 123.49 503.7 138.42 503.7 153.37 503.7 168.32 503.7 183.25 503.7 198.2 503.7 213.12 503.7 228.07 503.7 243.02 503.7 257.94 503.7 272.89 503.7 287.85 503.7 302.77 503.7 317.72"/>
        <line class="cls-2" x1="443.93" y1="90.63" x2="443.93" y2="91.61"/>
        <polyline class="cls-2" points="458.88 99.59 458.88 108.55 458.88 123.49 458.88 138.42 458.88 153.37 458.88 168.32 458.88 183.25 458.88 198.2 458.88 213.12 458.88 228.07 458.88 243.02 458.88 257.94 458.88 272.89 458.88 287.85 458.88 302.77 458.88 317.72"/>
        <polyline class="cls-2" points="473.8 99.59 473.8 108.55 473.8 123.49 473.8 138.42 473.8 153.37 473.8 168.32 473.8 183.25 473.8 198.2 473.8 213.12 473.8 228.07 473.8 243.02 473.8 257.94 473.8 265.43"/>
        <polyline class="cls-2" points="473.8 295.3 473.8 302.77 473.8 307.74"/>
        <polyline class="cls-2" points="508.67 317.72 503.7 317.72 488.75 317.72 486.26 317.72 466.34 317.72 458.88 317.72 443.93 317.72"/>
        <polyline class="cls-2" points="508.67 302.77 503.7 302.77 488.75 302.77 473.8 302.77 458.88 302.77 443.93 302.77"/>
        <polyline class="cls-2" points="508.67 287.85 503.7 287.85 491.24 287.85"/>
        <polyline class="cls-2" points="461.37 287.85 458.88 287.85 443.93 287.85"/>
        <polyline class="cls-2" points="508.67 108.55 503.7 108.55 488.75 108.55 473.8 108.55 458.88 108.55 443.93 108.55"/>
        <polyline class="cls-2" points="508.67 123.49 503.7 123.49 488.75 123.49 473.8 123.49 458.88 123.49 443.93 123.49"/>
        <polyline class="cls-2" points="508.67 138.42 503.7 138.42 488.75 138.42 473.8 138.42 458.88 138.42 443.93 138.42"/>
        <polyline class="cls-2" points="508.67 153.37 503.7 153.37 488.75 153.37 473.8 153.37 458.88 153.37 443.93 153.37"/>
        <polyline class="cls-2" points="508.67 168.32 503.7 168.32 488.75 168.32 473.8 168.32 458.88 168.32 443.93 168.32"/>
        <polyline class="cls-2" points="508.67 183.25 503.7 183.25 488.75 183.25 473.8 183.25 458.88 183.25 443.93 183.25"/>
        <polyline class="cls-2" points="508.67 198.2 503.7 198.2 488.75 198.2 473.8 198.2 458.88 198.2 443.93 198.2"/>
        <polyline class="cls-2" points="508.67 213.12 503.7 213.12 488.75 213.12 473.8 213.12 458.88 213.12 443.93 213.12"/>
        <polyline class="cls-2" points="508.67 228.07 503.7 228.07 488.75 228.07 473.8 228.07 458.88 228.07 443.93 228.07"/>
        <polyline class="cls-2" points="508.67 243.02 503.7 243.02 488.75 243.02 473.8 243.02 458.88 243.02 443.93 243.02"/>
        <polyline class="cls-2" points="508.67 257.94 503.7 257.94 488.75 257.94 473.8 257.94 458.88 257.94 443.93 257.94"/>
        <polyline class="cls-2" points="488.75 265.43 473.8 265.43 463.85 265.43"/>
        <path class="cls-2" d="m491.24,267.92l-.03-.39c-.17-1.04-1.02-1.9-2.06-2.06l-.39-.03"/>
        <polyline class="cls-2" points="508.67 272.89 503.7 272.89 491.24 272.89"/>
        <polyline class="cls-2" points="461.37 272.89 458.88 272.89 443.93 272.89"/>
        <polyline class="cls-2" points="443.93 317.72 443.93 302.77 443.93 290.33"/>
        <polyline class="cls-2" points="443.93 220.61 443.93 213.12 443.93 198.2 443.93 183.25 443.93 179.77"/>
        <polyline class="cls-2" points="443.93 90.63 443.93 78.67 443.93 74.69"/>
        <polyline class="cls-2" points="495.22 388.93 508.67 388.93 508.67 386.45 508.67 371.5 508.67 356.55 508.67 341.63 508.67 326.68"/>
        <line class="cls-2" x1="465.1" y1="388.93" x2="476.99" y2="388.93"/>
        <polyline class="cls-2" points="404.08 370 404.08 371.5 404.08 381.45 404.08 388.93 430.25 388.93 433.98 388.93 442.68 388.93"/>
        <line class="cls-2" x1="518.62" y1="398.89" x2="518.62" y2="284.77"/>
        <line class="cls-2" x1="518.62" y1="107.47" x2="518.62" y2="64.71"/>
        <line class="cls-2" x1="289.56" y1="301.77" x2="250.7" y2="266.42"/>
        <line class="cls-2" x1="279.58" y1="306.18" x2="249.03" y2="278.37"/>
        <line class="cls-2" x1="250.7" y1="262.94" x2="250.7" y2="266.42"/>
        <line class="cls-2" x1="289.56" y1="372.49" x2="289.56" y2="388.93"/>
        <polyline class="cls-2" points="404.08 327.92 419.02 327.92 433.98 327.92 446.42 327.92 446.42 329.93 433.98 329.93 419.02 329.93 404.08 329.93"/>
        <polyline class="cls-2" points="404.08 326.68 404.08 327.92 401.96 327.92 401.96 328.69 394.13 328.69 394.13 326.68"/>
        <polyline class="cls-2" points="394.13 370 404.08 370 404.08 368.76 401.96 368.76 401.96 368.02 394.13 368.02"/>
        <polyline class="cls-2" points="404.08 327.92 404.08 329.93 404.08 341.63 404.08 356.55 404.08 368.76"/>
        <line class="cls-2" x1="401.96" y1="328.69" x2="401.96" y2="368.02"/>
        <path class="cls-2" d="m404.1,368.76l1.58.03c4.66.02,9.15-.76,13.34-2.19,5.65-1.94,10.74-5.07,14.95-9.13.31-.3.62-.61.93-.92,4.08-4.18,7.27-9.25,9.26-14.92,1.12-3.2,1.85-6.59,2.14-10.12l.11-1.58"/>
        <line class="cls-2" x1="476.31" y1="376.78" x2="476.26" y2="380.85"/>
        <path class="cls-2" d="m491.3,355.48l-.02-.02-.41-.38c-1.01-.93-2.85-1.67-4.22-1.72l-.56-.03"/>
        <path class="cls-2" d="m494.51,360.53l-.28-.7c-.15-.38-.33-.74-.51-1.1-.4-.77-.88-1.5-1.42-2.17-.15-.19-.3-.38-.46-.55l-.54-.57"/>
        <polyline class="cls-2" points="495.28 363.7 495.14 362.91 494.97 362.12 494.77 361.33 494.51 360.57"/>
        <polyline class="cls-2" points="495.5 365.45 495.42 364.57 495.28 363.7"/>
        <polyline class="cls-2" points="495.7 367.23 495.62 366.36 495.5 365.45"/>
        <polyline class="cls-2" points="496.04 376.08 495.93 371.64 495.92 371.5 495.73 367.23"/>
        <polyline class="cls-2" points="495.7 377.15 495.85 376.89 495.9 376.73 495.93 376.65 495.98 376.36 496.02 376.08"/>
        <polyline class="cls-2" points="494.18 378.17 494.46 378.09 494.77 377.97 495.02 377.81 495.28 377.61 495.5 377.41 495.67 377.15"/>
        <polyline class="cls-2" points="494.18 378.17 491.15 378.17 491.15 378.09 490.56 378.09 490.56 378.2 481.66 378.2 481.66 378.09 481.06 378.09 481.06 378.17 478.06 378.17"/>
        <line class="cls-2" x1="477.98" y1="378.17" x2="478.06" y2="378.17"/>
        <polyline class="cls-2" points="476.51 377.15 476.68 377.38 476.91 377.61 477.14 377.81 477.39 377.94 477.67 378.05 477.98 378.17"/>
        <polyline class="cls-2" points="476.2 376.08 476.23 376.36 476.29 376.65 476.33 376.77 476.37 376.89 476.51 377.15"/>
        <polyline class="cls-2" points="476.46 367.23 476.26 371.5 476.26 371.64 476.18 376.08"/>
        <polyline class="cls-2" points="476.68 365.45 476.57 366.36 476.49 367.23"/>
        <polyline class="cls-2" points="476.91 363.7 476.77 364.57 476.68 365.45"/>
        <polyline class="cls-2" points="477.7 360.57 477.45 361.33 477.25 362.12 477.08 362.91 476.94 363.7"/>
        <path class="cls-2" d="m480.9,355.45l-.54.57c-.15.18-.3.35-.46.54-.4.5-.78,1.04-1.1,1.6-.32.54-.61,1.1-.85,1.68l-.28.7"/>
        <path class="cls-2" d="m486.1,353.33l-.57.03c-1.37.05-3.2.79-4.21,1.72l-.41.38-.02.02"/>
        <line class="cls-2" x1="495.22" y1="388.93" x2="476.99" y2="388.93"/>
        <polyline class="cls-2" points="476.01 387.92 476.06 388.29 476.18 388.45 476.29 388.6 476.43 388.74 476.6 388.82 476.79 388.88 476.99 388.91"/>
        <polyline class="cls-2" points="476.01 387.92 476.01 387.89 476.03 386.45 476.12 381.37"/>
        <path class="cls-2" d="m477.27,380.26l-.22.02c-.31.06-.62.28-.78.57-.05.1-.08.2-.1.31l-.03.2"/>
        <line class="cls-2" x1="477.27" y1="380.23" x2="494.94" y2="380.23"/>
        <path class="cls-2" d="m496.07,381.37l-.03-.2c0-.11-.05-.22-.1-.31-.16-.29-.46-.5-.78-.57l-.23-.02"/>
        <polyline class="cls-2" points="496.1 381.37 496.18 386.45 496.21 387.89"/>
        <polyline class="cls-2" points="495.22 388.91 495.42 388.88 495.62 388.82 495.78 388.74 495.93 388.6 496.04 388.45 496.15 388.29 496.21 387.92 496.21 387.89"/>
        <line class="cls-2" x1="495.96" y1="380.85" x2="495.9" y2="376.73"/>
        <polygon class="cls-2" points="465.1 388.93 465.1 386.45 465.1 373.99 463.85 373.99 461.98 373.99 448.9 373.99 442.68 373.99 442.68 386.45 442.68 388.93 453.14 388.93 454.72 388.93 465.1 388.93"/>
        <polyline class="cls-2" points="454.9 385.21 461.98 385.21 461.98 375.23 445.79 375.23 445.79 385.21 452.89 385.21"/>
        <polyline class="cls-2" points="454.86 379.47 454.81 379.3 454.72 379.27 454.64 379.25"/>
        <polyline class="cls-2" points="454.9 379.47 454.9 385.21 454.9 387.44"/>
        <polyline class="cls-2" points="454.64 387.66 454.72 387.64 454.81 387.61 454.86 387.44"/>
        <line class="cls-2" x1="454.64" y1="387.69" x2="453.14" y2="387.69"/>
        <polyline class="cls-2" points="452.91 387.44 452.97 387.61 453.06 387.64 453.14 387.66"/>
        <polyline class="cls-2" points="452.89 387.44 452.89 385.21 452.89 379.47"/>
        <polyline class="cls-2" points="453.14 379.25 453.06 379.27 452.97 379.3 452.91 379.47"/>
        <line class="cls-2" x1="453.14" y1="379.21" x2="454.64" y2="379.21"/>
        <polyline class="cls-2" points="404.08 381.45 419.02 381.45 430.25 381.45 430.25 386.45 430.25 388.93"/>
        <polyline class="cls-2" points="430.25 386.45 433.98 386.45 442.68 386.45"/>
        <line class="cls-2" x1="465.1" y1="386.45" x2="476.03" y2="386.45"/>
        <line class="cls-2" x1="407.07" y1="288.83" x2="427.5" y2="288.83"/>
        <line class="cls-2" x1="496.18" y1="386.45" x2="508.67" y2="386.45"/>
        <polyline class="cls-2" points="404.08 371.5 419.02 371.5 433.98 371.5 448.9 371.5 463.85 371.5 476.26 371.5 476.29 371.5"/>
        <line class="cls-2" x1="495.93" y1="371.5" x2="508.67" y2="371.5"/>
        <polyline class="cls-2" points="404.08 356.55 419.02 356.55 433.98 356.55 434.9 356.55 448.9 356.55 463.85 356.55 478.8 356.55 479.9 356.55"/>
        <polyline class="cls-2" points="492.31 356.55 493.73 356.55 508.67 356.55"/>
        <polyline class="cls-2" points="404.08 341.63 419.02 341.63 433.98 341.63 444.16 341.63 448.9 341.63 463.85 341.63 478.8 341.63 493.73 341.63 508.67 341.63"/>
        <polyline class="cls-2" points="419.02 381.45 419.02 371.5 419.02 366.6 419.02 356.55 419.02 341.63 419.02 329.93"/>
        <line class="cls-2" x1="419.02" y1="327.92" x2="419.02" y2="326.68"/>
        <polyline class="cls-2" points="433.98 388.93 433.98 386.45 433.98 371.5 433.98 357.47 433.98 356.55 433.98 341.63 433.98 329.93"/>
        <line class="cls-2" x1="433.98" y1="327.92" x2="433.98" y2="326.68"/>
        <polyline class="cls-2" points="448.9 373.99 448.9 371.5 448.9 356.55 448.9 341.63 448.9 326.68"/>
        <polyline class="cls-2" points="463.85 373.99 463.85 371.5 463.85 356.55 463.85 341.63 463.85 326.68"/>
        <polyline class="cls-2" points="478.8 358.16 478.8 358.15 478.8 356.55 478.8 341.63 478.8 326.68"/>
        <polyline class="cls-2" points="493.73 358.73 493.73 356.55 493.73 341.63 493.73 326.68"/>
        <polyline class="cls-2" points="314.46 329.67 289.56 329.67 289.56 370.51"/>
        <polyline class="cls-2" points="443.93 135.68 443.93 138.42 443.93 153.37 443.93 168.32 443.93 178.78"/>
        <line class="cls-2" x1="433.98" y1="135.68" x2="433.98" y2="177.76"/>
        <line class="cls-2" x1="433.98" y1="91.61" x2="433.98" y2="134.69"/>
        <polyline class="cls-2" points="433.98 178.78 433.98 179.77 443.93 179.77 443.93 178.78 438.95 178.78"/>
        <polyline class="cls-2" points="438.95 178.78 433.98 178.78 433.98 177.76 436.46 177.76 438.95 177.76"/>
        <polyline class="cls-2" points="438.95 135.68 436.46 135.68 433.98 135.68 433.98 134.69 438.95 134.69"/>
        <polyline class="cls-2" points="438.95 135.68 438.95 177.76 438.95 178.78"/>
        <line class="cls-2" x1="438.95" y1="92.61" x2="438.95" y2="134.69"/>
        <line class="cls-2" x1="436.46" y1="177.76" x2="436.46" y2="135.68"/>
        <line class="cls-2" x1="443.93" y1="289.31" x2="438.95" y2="289.31"/>
        <line class="cls-2" x1="433.98" y1="289.31" x2="433.98" y2="290.33"/>
        <line class="cls-2" x1="438.95" y1="289.31" x2="433.98" y2="289.31"/>
        <polyline class="cls-2" points="433.98 288.33 436.46 288.33 438.95 288.33"/>
        <polyline class="cls-2" points="443.93 135.68 438.95 135.68 438.95 134.69 441.44 134.69 443.93 134.69"/>
        <polyline class="cls-2" points="443.93 92.61 441.44 92.61 438.95 92.61 438.95 91.61 443.93 91.61"/>
        <line class="cls-2" x1="441.44" y1="134.69" x2="441.44" y2="92.61"/>
        <polyline class="cls-2" points="443.93 91.61 443.93 92.61 443.93 93.6 443.93 108.55 443.93 123.49 443.93 134.69 443.93 135.68"/>
        <polyline class="cls-2" points="426.34 266.68 425.92 266.25 420.72 261.02"/>
        <line class="cls-2" x1="355.3" y1="232.05" x2="355.3" y2="237.03"/>
        <polyline class="cls-2" points="422.14 259.64 427.34 264.84 427.76 265.26"/>
        <polyline class="cls-2" points="425.02 266.42 425.25 266.42 425.47 266.37 425.73 266.33 425.92 266.25"/>
        <line class="cls-2" x1="425.02" y1="266.42" x2="410.06" y2="266.42"/>
        <path class="cls-2" d="m407.58,263.93l.02.39c.17,1.04,1.02,1.9,2.06,2.06l.39.03"/>
        <line class="cls-2" x1="407.58" y1="263.93" x2="407.58" y2="230.08"/>
        <path class="cls-2" d="m410.06,227.59l-.39.02c-1.04.17-1.9,1.02-2.06,2.06l-.02.4"/>
        <line class="cls-2" x1="410.06" y1="227.56" x2="425.02" y2="227.56"/>
        <path class="cls-2" d="m427.5,230.08l-.02-.4c-.17-1.04-1.02-1.9-2.06-2.06l-.4-.02"/>
        <line class="cls-2" x1="427.5" y1="230.08" x2="427.5" y2="263.93"/>
        <polyline class="cls-2" points="427.34 264.84 427.42 264.61 427.45 264.38 427.5 264.16 427.5 263.93"/>
        <path class="cls-2" d="m426.34,266.68l.18.14c.94.51,1.9-.42,1.38-1.38l-.14-.17"/>
        <polygon class="cls-2" points="428.5 313.14 428.5 315.23 406.08 315.23 406.08 287.85 428.5 287.85 428.5 297.05 428.5 313.14"/>
        <line class="cls-2" x1="427.5" y1="288.83" x2="427.5" y2="314.24"/>
        <line class="cls-2" x1="407.07" y1="303.78" x2="407.07" y2="288.83"/>
        <polyline class="cls-2" points="151.1 96.11 151.1 77.17 151.1 74.69"/>
        <line class="cls-2" x1="427.5" y1="314.24" x2="409.56" y2="314.24"/>
        <path class="cls-2" d="m419.76,308.39l-.02-.39-.09-.37c-.9-2.48-4.32-2.22-4.83.37l-.03.39.03.39c.51,2.58,3.93,2.85,4.83.37l.09-.37.02-.39Z"/>
        <line class="cls-2" x1="409.56" y1="314.24" x2="409.56" y2="306.49"/>
        <path class="cls-2" d="m425.38,294.69l-.02-.4-.09-.37c-.9-2.48-4.32-2.21-4.83.37l-.03.4.03.39c.51,2.58,3.93,2.85,4.83.37l.09-.37.02-.39Z"/>
        <path class="cls-2" d="m414.17,294.69l-.03-.4-.08-.37c-.9-2.48-4.33-2.21-4.83.37l-.03.4.03.39c.5,2.58,3.93,2.85,4.83.37l.08-.37.03-.39Z"/>
        <line class="cls-2" x1="407.07" y1="303.78" x2="409.56" y2="306.49"/>
        <line class="cls-2" x1="364.42" y1="311.53" x2="364.42" y2="319.01"/>
        <path class="cls-2" d="m359.45,323.99l.57-.02c2.25-.22,4.16-2.14,4.38-4.38l.03-.57"/>
        <line class="cls-2" x1="359.45" y1="323.99" x2="349.47" y2="323.99"/>
        <path class="cls-2" d="m344.5,319.01l.03.57c.22,2.25,2.13,4.16,4.38,4.38l.56.02"/>
        <line class="cls-2" x1="344.5" y1="319.01" x2="344.5" y2="311.53"/>
        <path class="cls-2" d="m422.14,259.61l-.17-.14c-.94-.51-1.9.42-1.38,1.38l.14.17"/>
        <path class="cls-2" d="m374.38,279.17l-.03-.39c-.17-1.04-1.02-1.9-2.06-2.06l-.39-.03"/>
        <polyline class="cls-2" points="371.89 276.68 364.42 276.68 344.5 276.68 337.04 276.68"/>
        <path class="cls-2" d="m337.04,276.68l-.4.03c-1.03.17-1.9,1.02-2.06,2.06l-.02.39"/>
        <line class="cls-2" x1="334.55" y1="279.17" x2="334.55" y2="309.04"/>
        <path class="cls-2" d="m334.55,309.04l.02.4c.17,1.03,1.03,1.9,2.06,2.06l.4.02"/>
        <polyline class="cls-2" points="337.04 311.53 344.5 311.53 364.42 311.53 371.89 311.53"/>
        <path class="cls-2" d="m371.89,311.53l.39-.02c1.04-.17,1.9-1.03,2.06-2.06l.03-.4"/>
        <line class="cls-2" x1="374.38" y1="309.04" x2="374.38" y2="279.17"/>
        <line class="cls-2" x1="364.42" y1="276.68" x2="364.42" y2="269.22"/>
        <path class="cls-2" d="m364.42,269.22l-.03-.57c-.22-2.25-2.13-4.16-4.38-4.38l-.57-.02"/>
        <line class="cls-2" x1="359.45" y1="264.21" x2="349.47" y2="264.21"/>
        <path class="cls-2" d="m349.47,264.25l-.56.02c-2.26.22-4.16,2.14-4.38,4.38l-.03.57"/>
        <line class="cls-2" x1="344.5" y1="269.22" x2="344.5" y2="276.68"/>
        <polyline class="cls-2" points="394.13 388.93 394.13 370 394.13 368.02 384.18 368.02 384.18 372.49 384.18 388.93"/>
        <line class="cls-2" x1="443.93" y1="290.33" x2="433.98" y2="290.33"/>
        <polyline class="cls-2" points="443.93 221.6 443.93 220.61 433.98 220.61 433.98 221.6 438.95 221.6"/>
        <line class="cls-2" x1="105.03" y1="86.13" x2="105.03" y2="96.11"/>
        <polyline class="cls-2" points="443.93 255.97 443.93 257.94 443.93 272.89 443.93 287.85 443.93 289.31 443.93 290.33"/>
        <polyline class="cls-2" points="433.98 255.97 433.98 288.33 433.98 289.31"/>
        <line class="cls-2" x1="433.98" y1="221.6" x2="433.98" y2="254.97"/>
        <polyline class="cls-2" points="438.95 255.97 438.95 288.33 438.95 289.31"/>
        <line class="cls-2" x1="438.95" y1="222.58" x2="438.95" y2="254.97"/>
        <polyline class="cls-2" points="443.93 222.58 443.93 228.07 443.93 243.02 443.93 254.97"/>
        <polyline class="cls-2" points="438.95 255.97 436.46 255.97 433.98 255.97 433.98 254.97 438.95 254.97"/>
        <polygon class="cls-2" points="438.95 255.97 438.95 254.97 441.44 254.97 443.93 254.97 443.93 255.97 438.95 255.97"/>
        <line class="cls-2" x1="436.46" y1="288.33" x2="436.46" y2="255.97"/>
        <line class="cls-2" x1="151.1" y1="77.17" x2="91.35" y2="77.17"/>
        <polygon class="cls-2" points="438.95 222.58 438.95 221.6 443.93 221.6 443.93 222.58 441.44 222.58 438.95 222.58"/>
        <line class="cls-2" x1="441.44" y1="254.97" x2="441.44" y2="222.58"/>
        <line class="cls-2" x1="164.3" y1="238.53" x2="164.89" y2="236.69"/>
        <path class="cls-2" d="m164.86,236.69l.14-.54c.38-2.34-.71-4.5-2.89-5.48l-.54-.2"/>
        <polyline class="cls-2" points="161.62 230.45 161.59 230.44 152.09 227.5"/>
        <path class="cls-2" d="m152.09,227.5l-.54-.14c-2.34-.38-4.5.71-5.48,2.89l-.2.54"/>
        <line class="cls-2" x1="145.87" y1="230.78" x2="143.47" y2="238.53"/>
        <polyline class="cls-2" points="91.35 74.69 91.35 77.17 91.35 96.11"/>
        <line class="cls-2" x1="134.9" y1="83.65" x2="107.52" y2="83.65"/>
        <line class="cls-2" x1="137.42" y1="96.11" x2="137.42" y2="86.13"/>
        <path class="cls-2" d="m137.39,86.13l-.02-.39c-.17-1.04-1.03-1.9-2.06-2.06l-.4-.03"/>
        <path class="cls-2" d="m107.52,83.65l-.4.03c-1.03.17-1.9,1.02-2.06,2.06l-.03.39"/>
        <polyline class="cls-2" points="179.02 256.47 183.7 258.37 187.19 259.81"/>
        <polyline class="cls-2" points="91.35 174.29 151.1 174.29 151.1 96.11 137.42 96.11 105.03 96.11 91.35 96.11 91.35 107.56"/>
        <polyline class="cls-2" points="179.47 255.37 179.48 255.37 184.14 257.27 187.64 258.7"/>
        <line class="cls-2" x1="220.82" y1="104.56" x2="220.82" y2="112.02"/>
        <path class="cls-2" d="m215.85,117l.57-.03c2.25-.22,4.16-2.13,4.38-4.38l.03-.57"/>
        <line class="cls-2" x1="215.85" y1="117.02" x2="205.87" y2="117.02"/>
        <path class="cls-2" d="m200.9,112.02l.03.57c.22,2.25,2.13,4.16,4.38,4.38l.57.03"/>
        <line class="cls-2" x1="200.9" y1="112.02" x2="200.9" y2="104.56"/>
        <path class="cls-2" d="m175.74,85.97l-.02-.7-.12-.71c-1.88-8.43-13.66-7.87-14.75.71l-.02.7.02.7c1.1,8.58,12.87,9.14,14.75.7l.12-.7.02-.7Z"/>
        <path class="cls-2" d="m184.14,257.29v-.02s.11-.54.11-.54l.06-.57c.02-.92-.17-1.74-.51-2.44-.58-1.22-1.62-2.1-2.82-2.53-2.12-.78-4.73-.17-6.16,2.31l-.25.51-.18.54c-1.14,4.3,3.02,7.46,6.56,6.15.73-.26,1.44-.72,2.06-1.4l.37-.42.31-.49"/>
        <line class="cls-2" x1="240.74" y1="157.75" x2="225.8" y2="157.75"/>
        <path class="cls-2" d="m173.51,85.97l-.03-.59-.11-.57c-1.4-5.71-9.49-5.26-10.29.57l-.02.59.02.59c.8,5.83,8.89,6.28,10.29.57l.11-.57.03-.59Z"/>
        <line class="cls-2" x1="240.74" y1="212.55" x2="225.8" y2="212.55"/>
        <path class="cls-2" d="m180.94,260.71l.03.09.19.54.26.59c2.34,4.54,8.65,4.6,11.14.14l.28-.59.2-.62c1.38-4.9-3.2-9.3-8.06-7.69l-.59.22-.57.31"/>
        <polyline class="cls-2" points="187.19 259.81 187.36 259.86 187.56 259.84 187.73 259.78 187.87 259.66 187.95 259.49 188.01 259.33 187.98 259.13 187.93 258.96 187.82 258.81 187.64 258.73"/>
        <line class="cls-2" x1="180.98" y1="241.01" x2="180.98" y2="251.16"/>
        <path class="cls-2" d="m180.98,241.01l-.03-.4c-.17-1.03-1.02-1.9-2.06-2.06l-.39-.02"/>
        <polyline class="cls-2" points="179.47 255.4 179.3 255.34 179.1 255.37 178.94 255.43 178.8 255.54 178.71 255.71 178.66 255.88 178.68 256.08 178.74 256.25 178.86 256.39 179.02 256.47"/>
        <path class="cls-2" d="m169.02,85.97l-.02-.2-.09-.2c-.33-.54-1.16-.43-1.33.2l-.02.2.02.2c.17.63,1,.74,1.33.19l.09-.19.02-.2Z"/>
        <polyline class="cls-2" points="91.35 108.55 91.35 107.56 81.38 107.56 81.38 108.55 86.35 108.55"/>
        <polyline class="cls-2" points="91.35 171.04 91.35 174.29 91.35 231.54"/>
        <line class="cls-2" x1="81.38" y1="171.04" x2="81.38" y2="230.56"/>
        <line class="cls-2" x1="81.38" y1="108.55" x2="81.38" y2="170.05"/>
        <polyline class="cls-2" points="91.35 232.56 91.35 231.54 86.35 231.54"/>
        <line class="cls-2" x1="81.38" y1="231.54" x2="81.38" y2="232.56"/>
        <polyline class="cls-2" points="86.35 231.54 81.38 231.54 81.38 230.56 83.86 230.56 86.35 230.56"/>
        <polyline class="cls-2" points="86.35 171.04 83.86 171.04 81.38 171.04 81.38 170.05 86.35 170.05"/>
        <polyline class="cls-2" points="86.35 171.04 86.35 230.56 86.35 231.54"/>
        <line class="cls-2" x1="86.35" y1="109.53" x2="86.35" y2="170.05"/>
        <line class="cls-2" x1="83.86" y1="230.56" x2="83.86" y2="171.04"/>
        <polyline class="cls-2" points="91.35 171.04 86.35 171.04 86.35 170.05 88.84 170.05 91.35 170.05"/>
        <polyline class="cls-2" points="91.35 109.53 88.84 109.53 86.35 109.53 86.35 108.55 91.35 108.55"/>
        <polyline class="cls-2" points="91.35 108.55 91.35 109.53 91.35 170.05 91.35 171.04"/>
        <line class="cls-2" x1="88.84" y1="170.05" x2="88.84" y2="109.53"/>
        <line class="cls-2" x1="81.38" y1="232.56" x2="91.35" y2="232.56"/>
        <path class="cls-2" d="m239.45,206.9l-.03-.4-.11-.39c-.85-2.61-4.56-2.3-5.03.39l-.02.4.02.39c.47,2.7,4.18,3,5.03.4l.11-.4.03-.39Z"/>
        <path class="cls-2" d="m239.14,201.93l-.02-.31-.09-.28c-.59-1.29-2.49-1.11-2.8.28l-.02.31.02.31c.31,1.39,2.21,1.57,2.8.28l.09-.28.02-.31Z"/>
        <path class="cls-2" d="m239.22,197.89l-.03-.31-.08-.28c-.6-1.29-2.5-1.11-2.8.28l-.03.31.03.31c.3,1.39,2.2,1.57,2.8.28l.08-.28.03-.31Z"/>
        <path class="cls-2" d="m235.61,197.89l-.03-.31-.09-.28c-.59-1.29-2.49-1.11-2.79.28l-.03.31.03.31c.3,1.39,2.2,1.57,2.79.28l.09-.28.03-.31Z"/>
        <polyline class="cls-2" points="461.37 292.81 461.37 287.85 461.37 272.89 461.37 267.92"/>
        <path class="cls-2" d="m461.37,292.81l.02.4c.17,1.04,1.02,1.9,2.06,2.06l.39.02"/>
        <path class="cls-2" d="m463.85,265.43l-.39.03c-1.04.16-1.9,1.02-2.06,2.06l-.02.39"/>
        <polyline class="cls-2" points="491.24 292.81 491.24 287.85 491.24 272.89 491.24 267.92"/>
        <path class="cls-2" d="m488.75,295.3l.39-.02c1.04-.17,1.9-1.02,2.06-2.06l.03-.4"/>
        <polyline class="cls-2" points="488.75 295.3 473.8 295.3 463.85 295.3"/>
        <path class="cls-2" d="m486.74,280.35l-.03-.85-.11-.82c-2.37-12.15-19.31-11.48-20.74.82l-.02.85.02.85c1.43,12.3,18.38,12.98,20.74.82l.11-.82.03-.85Z"/>
        <polyline class="cls-2" points="466.34 317.72 466.34 307.74 473.8 307.74 486.26 307.74 486.26 317.72"/>
        <path class="cls-2" d="m433.64,313.14l-.03-.37-.08-.37c-.84-2.18-3.89-1.92-4.33.37l-.02.37.02.36c.44,2.29,3.49,2.54,4.33.37l.08-.37.03-.36Z"/>
        <path class="cls-2" d="m432.82,308.67l-.02-.31-.09-.28c-.59-1.29-2.49-1.11-2.79.28l-.03.31.03.31c.3,1.39,2.2,1.57,2.79.29l.09-.29.02-.31Z"/>
        <path class="cls-2" d="m433.42,297.05l-.03-.37-.09-.37c-.83-2.18-3.88-1.91-4.32.37l-.03.37.03.37c.44,2.29,3.49,2.54,4.32.37l.09-.37.03-.37Z"/>
        <path class="cls-2" d="m432.2,304.57l-.03-.26-.08-.26c-.5-1.02-1.98-.85-2.24.26l-.02.26.02.26c.26,1.1,1.74,1.27,2.24.26l.08-.26.03-.26Z"/>
        <path class="cls-2" d="m432.62,301.55l-.03-.31-.08-.28c-.6-1.29-2.5-1.11-2.8.28l-.03.31.03.31c.3,1.39,2.2,1.57,2.8.28l.08-.28.03-.31Z"/>
        <path class="cls-2" d="m145.56,255.54l.03.28c.13.61.54,1.02,1.15,1.16l.29.02"/>
        <line class="cls-2" x1="147.03" y1="257.04" x2="161.47" y2="257.04"/>
        <path class="cls-2" d="m161.47,257.01l.28-.02c.62-.14,1.03-.55,1.16-1.16l.03-.28"/>
        <line class="cls-2" x1="162.94" y1="255.54" x2="162.94" y2="246.1"/>
        <path class="cls-2" d="m162.94,246.1l-.03-.29c-.13-.61-.54-1.02-1.16-1.15l-.28-.03"/>
        <line class="cls-2" x1="161.47" y1="244.6" x2="147.03" y2="244.6"/>
        <path class="cls-2" d="m147.03,244.63l-.29.03c-.61.13-1.02.54-1.15,1.15l-.03.29"/>
        <line class="cls-2" x1="145.53" y1="246.1" x2="145.53" y2="255.54"/>
        <path class="cls-2" d="m201.78,95.01l.02.29c.14.61.55,1.02,1.16,1.16l.28.02"/>
        <line class="cls-2" x1="203.24" y1="96.48" x2="217.69" y2="96.48"/>
        <path class="cls-2" d="m217.69,96.48l.28-.02c.61-.14,1.02-.55,1.16-1.16l.02-.29"/>
        <line class="cls-2" x1="219.18" y1="95.01" x2="219.18" y2="85.54"/>
        <path class="cls-2" d="m219.15,85.54l-.02-.28c-.14-.62-.55-1.03-1.16-1.16l-.28-.03"/>
        <line class="cls-2" x1="217.69" y1="84.05" x2="203.24" y2="84.05"/>
        <path class="cls-2" d="m203.24,84.07l-.28.03c-.61.13-1.02.54-1.16,1.16l-.02.28"/>
        <line class="cls-2" x1="201.78" y1="85.54" x2="201.78" y2="95.01"/>
        <path class="cls-2" d="m350.91,282.33l-.02-.48-.09-.48c-1.21-3.94-6.66-3.58-7.32.48l-.02.48.02.48c.66,4.06,6.11,4.42,7.32.48l.09-.48.02-.48Z"/>
        <path class="cls-2" d="m358.06,282.89l-.02-.39-.09-.37c-.9-2.48-4.32-2.22-4.83.37l-.03.39.03.4c.51,2.58,3.93,2.85,4.83.37l.09-.37.02-.4Z"/>
        <path class="cls-2" d="m360.46,294.45l-.02-.54-.11-.54c-1.28-4.79-8.05-4.38-8.76.54l-.03.54.03.54c.71,4.91,7.48,5.34,8.76.54l.11-.54.02-.54Z"/>
        <line class="cls-2" x1="361.31" y1="279.53" x2="361.06" y2="279.57"/>
        <polyline class="cls-2" points="361.06 279.57 362.73 288.38 362.5 288.41"/>
        <line class="cls-2" x1="362.78" y1="279.45" x2="362.53" y2="279.45"/>
        <polyline class="cls-2" points="362.53 279.45 363.24 288.41 362.98 288.41"/>
        <line class="cls-2" x1="365.81" y1="279.31" x2="365.55" y2="279.31"/>
        <polyline class="cls-2" points="365.55 279.31 366.01 285.78 365.9 285.78 365.75 285.78"/>
        <path class="cls-2" d="m367.08,286.97l-.02-.26-.09-.25c-.22-.46-.66-.68-1.07-.68-.51,0-1.02.32-1.16.93l-.03.26.03.26c.26,1.1,1.73,1.27,2.23.26l.09-.26.02-.26Z"/>
        <path class="cls-2" d="m363.52,306.05l-.03-.48-.08-.48c-1.22-3.94-6.66-3.58-7.32.48l-.03.48.03.48c.66,4.06,6.1,4.42,7.32.48l.08-.48.03-.48Z"/>
        <path class="cls-2" d="m354.9,306.18l-.02-.39-.09-.37c-.9-2.48-4.32-2.22-4.83.37l-.02.39.02.4c.51,2.58,3.93,2.85,4.83.37l.09-.37.02-.4Z"/>
        <line class="cls-2" x1="348.79" y1="310.37" x2="349.05" y2="310.31"/>
        <polyline class="cls-2" points="349.05 310.31 347.38 301.49 347.61 301.46"/>
        <line class="cls-2" x1="347.33" y1="310.45" x2="347.58" y2="310.42"/>
        <polyline class="cls-2" points="347.58 310.42 346.87 301.49 347.1 301.46"/>
        <line class="cls-2" x1="344.3" y1="310.6" x2="344.55" y2="310.57"/>
        <polyline class="cls-2" points="344.55 310.57 344.1 304.13 344.36 304.13"/>
        <path class="cls-2" d="m345.4,302.91l-.02-.26-.09-.26c-.5-1.02-1.98-.85-2.23.26l-.02.26.02.25c.26,1.11,1.74,1.27,2.23.26l.09-.26.02-.25Z"/>
        <rect class="cls-2" x="345.66" y="291.15" width="2.8" height="2.66"/>
        <rect class="cls-2" x="345.77" y="294.51" width="2.8" height="2.66"/>
        <polyline class="cls-2" points="274.35 183.25 274.35 140.91 276.36 140.91 276.36 140.97 276.36 183.25"/>
        <polygon class="cls-2" points="275.11 185.39 275.11 193.22 273.11 193.22 273.11 183.25 274.35 183.25 274.35 185.39 275.11 185.39"/>
        <polygon class="cls-2" points="317.94 185.39 317.94 193.22 319.94 193.22 319.94 183.25 318.66 183.25 318.66 185.39 317.94 185.39"/>
        <polyline class="cls-2" points="274.35 183.25 276.36 183.25 318.64 183.25 318.66 183.25"/>
        <line class="cls-2" x1="275.11" y1="185.39" x2="317.94" y2="185.39"/>
        <path class="cls-2" d="m318.64,183.25l-.06-1.64c-1.54-21.86-18.73-39.05-40.58-40.58l-1.64-.06"/>
        <polyline class="cls-2" points="240.74 261.7 198.41 261.7 198.41 259.69 198.44 259.69 240.74 259.69"/>
        <polygon class="cls-2" points="242.9 260.93 250.7 260.93 250.7 262.94 240.74 262.94 240.74 261.7 242.9 261.7 242.9 260.93"/>
        <polygon class="cls-2" points="242.9 218.12 250.7 218.12 250.7 216.11 240.74 216.11 240.74 217.36 242.9 217.36 242.9 218.12"/>
        <polyline class="cls-2" points="240.74 261.7 240.74 259.69 240.74 217.41 240.74 217.36"/>
        <line class="cls-2" x1="242.9" y1="260.93" x2="242.9" y2="218.12"/>
        <path class="cls-2" d="m240.72,217.41l-1.64.06c-21.86,1.54-39.05,18.72-40.58,40.58l-.06,1.64"/>
        <polyline class="cls-2" points="279.58 371.25 237.24 371.25 237.24 369.27 237.27 369.27 279.58 369.27"/>
        <polygon class="cls-2" points="281.73 370.51 289.56 370.51 289.56 372.49 279.58 372.49 279.58 371.25 281.73 371.25 281.73 370.51"/>
        <polygon class="cls-2" points="281.73 329.67 289.56 329.67 289.56 327.66 279.58 327.66 279.58 328.91 281.73 328.91 281.73 329.67"/>
        <polyline class="cls-2" points="279.58 371.25 279.58 369.27 279.58 328.93 279.58 328.91"/>
        <line class="cls-2" x1="281.73" y1="370.51" x2="281.73" y2="329.67"/>
        <path class="cls-2" d="m279.58,328.93l-1.62.03c-21.46.57-38.99,17.26-40.61,38.69l-.09,1.62"/>
        <line class="cls-2" x1="240.74" y1="83.59" x2="239.28" y2="83.59"/>
        <polyline class="cls-2" points="239.28 74.69 239.28 83.59 237.81 83.59"/>
        <polyline class="cls-2" points="237.81 74.69 237.81 83.59 236.34 83.59"/>
        <polyline class="cls-2" points="236.34 74.69 236.34 83.59 234.16 83.59"/>
        <polyline class="cls-2" points="234.16 74.69 234.16 83.59 232.7 83.59"/>
        <polyline class="cls-2" points="232.7 74.69 232.7 83.59 231.22 83.59"/>
        <polyline class="cls-2" points="231.22 74.69 231.22 83.59 229.75 83.59 229.75 74.69"/>
        <polygon class="cls-2" points="97.2 248.47 105.6 246.69 108 258.05 99.63 259.84 97.2 248.47"/>
        <path class="cls-2" d="m360.07,385.26l-.03-.37-.08-.37c-.84-2.18-3.89-1.91-4.33.37l-.02.37.02.37c.44,2.29,3.49,2.54,4.33.37l.08-.37.03-.37Z"/>
        <path class="cls-2" d="m365.22,385.35l-.03-.37-.08-.37c-.84-2.18-3.89-1.92-4.33.37l-.02.37.02.37c.44,2.28,3.49,2.54,4.33.37l.08-.37.03-.37Z"/>
        <path class="cls-2" d="m265.14,277.41l.23.2c.54.28,1.13.25,1.63-.09l.2-.2"/>
        <polyline class="cls-2" points="267.23 277.36 273.61 270.36 273.62 270.35"/>
        <path class="cls-2" d="m273.59,270.35l.19-.22c.29-.54.26-1.14-.08-1.64l-.2-.2"/>
        <line class="cls-2" x1="273.5" y1="268.25" x2="266.52" y2="261.87"/>
        <path class="cls-2" d="m266.5,261.9l-.22-.2c-.54-.29-1.14-.26-1.64.08l-.2.2"/>
        <line class="cls-2" x1="264.4" y1="261.98" x2="258.05" y2="268.97"/>
        <path class="cls-2" d="m258.07,268.99l-.2.23c-.28.53-.25,1.13.09,1.63l.2.2"/>
        <polyline class="cls-2" points="258.13 271.09 265.12 277.43 265.14 277.45"/>
        <path class="cls-2" d="m332.21,296.29l-.03-.59-.11-.59c-1.5-5.86-9.67-5.45-10.57.59l-.03.59.03.59c.9,6.04,9.06,6.45,10.57.59l.11-.59.03-.59Z"/>
        <path class="cls-2" d="m324.23,296.97l-.02-.23-.09-.19c-.34-.59-1.33-.51-1.5.19l-.03.23.03.22.09.17.11.2.17.11.2.09.22.02.22-.02.17-.09.2-.11.11-.2.09-.17.02-.22Z"/>
        <path class="cls-2" d="m327.01,292.96l-.03-.22-.09-.2c-.34-.59-1.33-.5-1.5.2l-.02.22.02.22.09.18.11.19.17.11.2.09.22.03.22-.03.18-.09.19-.11.11-.19.09-.18.03-.22Z"/>
        <path class="cls-2" d="m331.3,295.61l-.03-.22-.09-.2c-.34-.59-1.33-.5-1.5.2l-.02.22.02.22.09.18.11.19.17.11.2.09.22.03.22-.03.18-.09.19-.11.11-.19.09-.18.03-.22Z"/>
        <path class="cls-2" d="m328.9,299.65l-.02-.22-.09-.2c-.34-.59-1.33-.5-1.5.2l-.03.22.03.23.09.17.11.2.17.11.2.08.22.03.22-.03.17-.08.2-.11.11-.2.09-.17.02-.23Z"/>
        <path class="cls-2" d="m325.87,299.49l-.02-.22-.09-.2c-.34-.59-1.33-.5-1.5.2l-.03.22.03.22.09.18.11.19.17.11.2.09.22.03.22-.03.17-.09.2-.11.11-.19.09-.18.02-.22Z"/>
        <path class="cls-2" d="m324.78,294.26l-.03-.23-.09-.19c-.34-.6-1.33-.51-1.5.19l-.02.23.02.22.09.17.11.2.17.11.2.09.22.02.22-.02.18-.09.19-.11.11-.2.09-.17.03-.22Z"/>
        <path class="cls-2" d="m329.78,293.29l-.03-.22-.08-.2c-.34-.59-1.33-.5-1.5.2l-.02.22.02.23.09.17.11.2.17.11.2.08.22.03.23-.03.17-.08.2-.11.11-.2.08-.17.03-.23Z"/>
        <path class="cls-2" d="m331.05,298.21l-.03-.22-.08-.2c-.34-.59-1.33-.5-1.5.2l-.02.22.02.22.09.18.11.19.17.12.2.08.22.03.23-.03.17-.08.2-.12.11-.19.08-.18.03-.22Z"/>
        <polyline class="cls-2" points="503.7 99.59 503.7 93.6 503.7 78.67 503.7 74.69"/>
        <polyline class="cls-2" points="448.9 99.59 448.9 93.6 448.9 78.67 448.9 74.69"/>
        <line class="cls-2" x1="508.67" y1="93.6" x2="503.7" y2="93.6"/>
        <line class="cls-2" x1="448.9" y1="93.6" x2="443.93" y2="93.6"/>
        <line class="cls-2" x1="508.67" y1="78.67" x2="503.7" y2="78.67"/>
        <line class="cls-2" x1="448.9" y1="78.67" x2="443.93" y2="78.67"/>
        <line class="cls-2" x1="518.62" y1="195.62" x2="513.65" y2="195.62"/>
        <polyline class="cls-2" points="508.67 195.62 508.67 196.61 513.65 196.61"/>
        <line class="cls-2" x1="518.62" y1="240.7" x2="518.62" y2="283.77"/>
        <polyline class="cls-2" points="508.67 240.7 508.67 243.02 508.67 257.94 508.67 272.89 508.67 282.78"/>
        <polyline class="cls-2" points="508.67 196.61 508.67 198.2 508.67 213.12 508.67 228.07 508.67 239.69"/>
        <polyline class="cls-2" points="508.67 283.77 508.67 284.77 518.62 284.77 518.62 283.77 513.65 283.77"/>
        <polyline class="cls-2" points="513.65 283.77 508.67 283.77 508.67 282.78 511.16 282.78 513.65 282.78"/>
        <polyline class="cls-2" points="513.65 240.7 511.16 240.7 508.67 240.7 508.67 239.69 513.65 239.69"/>
        <polyline class="cls-2" points="513.65 240.7 513.65 282.78 513.65 283.77"/>
        <line class="cls-2" x1="513.65" y1="197.6" x2="513.65" y2="239.69"/>
        <line class="cls-2" x1="511.16" y1="282.78" x2="511.16" y2="240.7"/>
        <polyline class="cls-2" points="518.62 240.7 513.65 240.7 513.65 239.69 516.14 239.69 518.62 239.69"/>
        <polyline class="cls-2" points="518.62 197.6 516.14 197.6 513.65 197.6 513.65 196.61 518.62 196.61"/>
        <polyline class="cls-2" points="518.62 196.61 518.62 197.6 518.62 239.69 518.62 240.7"/>
        <line class="cls-2" x1="516.14" y1="239.69" x2="516.14" y2="197.6"/>
        <polyline class="cls-2" points="518.62 152.55 518.62 195.62 518.62 196.61"/>
        <polyline class="cls-2" points="508.67 152.55 508.67 153.37 508.67 168.32 508.67 183.25 508.67 194.63"/>
        <polyline class="cls-2" points="508.67 108.46 508.67 108.55 508.67 123.49 508.67 138.42 508.67 151.53"/>
        <polygon class="cls-2" points="508.67 107.47 508.67 108.46 513.65 108.46 516.14 108.46 518.62 108.46 518.62 107.47 508.67 107.47"/>
        <polyline class="cls-2" points="513.65 195.62 508.67 195.62 508.67 194.63 511.16 194.63 513.65 194.63"/>
        <polyline class="cls-2" points="513.65 152.55 511.16 152.55 508.67 152.55 508.67 151.53 513.65 151.53"/>
        <polyline class="cls-2" points="513.65 152.55 513.65 194.63 513.65 195.62"/>
        <line class="cls-2" x1="513.65" y1="108.46" x2="513.65" y2="151.53"/>
        <line class="cls-2" x1="511.16" y1="194.63" x2="511.16" y2="152.55"/>
        <polyline class="cls-2" points="518.62 152.55 513.65 152.55 513.65 151.53 516.14 151.53 518.62 151.53"/>
        <polyline class="cls-2" points="518.62 108.46 518.62 151.53 518.62 152.55"/>
        <line class="cls-2" x1="516.14" y1="151.53" x2="516.14" y2="109.45"/>
        <path class="cls-2" d="m164.53,102.81l-.03-.59-.11-.59c-1.5-5.86-9.67-5.45-10.57.59l-.03.59.03.6c.9,6.04,9.06,6.45,10.57.59l.11-.59.03-.6Z"/>
        <path class="cls-2" d="m156.58,103.52l-.03-.23-.08-.19c-.34-.59-1.33-.51-1.5.19l-.02.23.02.22.09.17.11.2.17.11.2.09.22.02.23-.02.17-.09.2-.11.11-.2.08-.17.03-.22Z"/>
        <path class="cls-2" d="m159.35,99.48l-.03-.23-.08-.19c-.34-.6-1.33-.51-1.5.19l-.03.23.03.22.08.17.11.2.18.11.19.08.23.03.22-.03.17-.08.2-.11.11-.2.08-.17.03-.22Z"/>
        <path class="cls-2" d="m163.62,102.13l-.02-.23-.09-.19c-.34-.59-1.33-.51-1.5.19l-.02.23.02.22.09.17.11.2.17.11.2.09.22.02.22-.02.17-.09.2-.11.11-.2.09-.17.02-.22Z"/>
        <path class="cls-2" d="m161.22,106.17l-.02-.22-.09-.2c-.34-.59-1.33-.51-1.5.2l-.03.22.03.22.08.17.12.2.17.11.19.09.23.02.22-.02.17-.09.2-.11.11-.2.09-.17.02-.22Z"/>
        <path class="cls-2" d="m158.19,106.01l-.02-.23-.09-.19c-.34-.6-1.33-.51-1.5.19l-.03.23.03.22.08.17.12.2.17.11.19.09.23.02.22-.02.17-.09.2-.11.11-.2.09-.17.02-.22Z"/>
        <path class="cls-2" d="m157.12,100.77l-.03-.22-.08-.2c-.34-.59-1.33-.5-1.5.2l-.03.22.03.22.08.18.11.19.17.11.2.09.22.02.23-.02.17-.09.2-.11.11-.19.08-.18.03-.22Z"/>
        <path class="cls-2" d="m162.12,99.84l-.02-.22-.09-.2c-.34-.59-1.33-.5-1.5.2l-.03.22.03.23.08.17.12.2.17.11.2.08.22.03.22-.03.17-.08.2-.11.11-.2.09-.17.02-.23Z"/>
        <path class="cls-2" d="m163.39,104.76l-.02-.22-.09-.2c-.34-.59-1.33-.5-1.5.2l-.03.22.03.22.08.18.12.19.17.11.2.09.22.03.22-.03.17-.09.2-.11.11-.19.09-.18.02-.22Z"/>
        <path class="cls-2" d="m387.46,215.63l-.02-.48-.09-.48c-1.21-3.94-6.66-3.58-7.32.48l-.02.48.02.48c.66,4.06,6.11,4.42,7.32.48l.09-.48.02-.48Z"/>
        <path class="cls-2" d="m393.54,216.31l-.03-.39-.08-.37c-.9-2.48-4.33-2.22-4.83.37l-.03.39.03.4c.5,2.58,3.93,2.85,4.83.37l.08-.37.03-.4Z"/>
        <line class="cls-2" x1="91.35" y1="241.01" x2="91.35" y2="268.4"/>
        <path class="cls-2" d="m238.26,104.56l.39-.02c1.04-.17,1.9-1.02,2.06-2.06l.02-.39"/>
        <path class="cls-2" d="m235.32,180.65l-.02-.29c-.14-.61-.55-1.02-1.16-1.15l-.29-.03"/>
        <line class="cls-2" x1="235.32" y1="180.65" x2="235.32" y2="182.45"/>
        <path class="cls-2" d="m233.85,183.93l.29-.03c.61-.14,1.02-.55,1.16-1.16l.02-.28"/>
        <line class="cls-2" x1="233.85" y1="183.95" x2="231.82" y2="183.95"/>
        <path class="cls-2" d="m230.34,182.45l.03.28c.13.61.55,1.02,1.16,1.16l.28.03"/>
        <line class="cls-2" x1="230.32" y1="182.45" x2="230.32" y2="180.65"/>
        <path class="cls-2" d="m231.82,179.17l-.28.03c-.61.13-1.03.54-1.16,1.15l-.03.29"/>
        <line class="cls-2" x1="231.82" y1="179.14" x2="233.85" y2="179.14"/>
        <polyline class="cls-2" points="433.98 74.69 411.06 74.69 390.14 74.69 330.4 74.69 250.7 74.69 250.7 107.05 250.7 183.25"/>
        <polyline class="cls-2" points="91.35 74.69 151.1 74.69 180.98 74.69 229.75 74.69 231.22 74.69 232.7 74.69 234.16 74.69 236.34 74.69 237.81 74.69 239.28 74.69 240.74 74.69 240.74 83.59 240.74 102.08 240.74 157.75 240.74 212.55 240.74 216.11"/>
        <line class="cls-2" x1="518.62" y1="64.71" x2="81.38" y2="64.71"/>
        <polyline class="cls-2" points="508.67 326.68 493.73 326.68 478.8 326.68 463.85 326.68 448.9 326.68 433.98 326.68 419.02 326.68 404.08 326.68 394.13 326.68"/>
      </g>
    </g>
  </g>
</svg>