<?xml version="1.0" encoding="UTF-8"?>
<svg id="_레이어_1" data-name="레이어 1" xmlns="http://www.w3.org/2000/svg" viewBox="0 0 279.91 105.11">
  <defs>
    <style>
      .cls-1 {
        stroke-width: 0px;
      }
    </style>
  </defs>
  <g>
    <polygon class="cls-1" points="88.47 65.46 88.47 .14 119.63 .14 119.63 11.31 99.87 11.31 99.87 54.17 113.7 54.17 113.7 37.69 106.83 37.69 106.83 26.52 125.1 26.52 125.1 65.46 88.47 65.46"/>
    <polygon class="cls-1" points="145.75 .14 145.75 65.46 134.35 65.46 134.35 0 145.75 .14"/>
    <path class="cls-1" d="M166.56,37.69v27.76h-11.41V.14h35.86v32.46l-24.45,5.1ZM166.56,26.52l13.05-2.64v-12.57h-13.05v15.21Z"/>
  </g>
  <g>
    <path class="cls-1" d="M0,103.81v-18.81h3.1v.94H1.05v16.92h2.05v.94H0Z"/>
    <path class="cls-1" d="M23.71,85v18.81h-3.1v-.94h2.05v-16.92h-2.05v-.94h3.1Z"/>
    <path class="cls-1" d="M27.33,95.18v-1.28h5.21v1.28h-5.21Z"/>
    <path class="cls-1" d="M44.86,100.92l-1.59-4.54h-6.22l-1.59,4.54h-1.26l5.17-14.62h1.61l5.19,14.62h-1.32ZM40.19,87.5h-.08l-2.74,7.77h5.57l-2.74-7.77Z"/>
    <path class="cls-1" d="M50.05,100.92h-1.26v-14.62h5.74c1.26,0,2.22.36,2.9,1.07.68.71,1.02,1.71,1.02,3,0,1.13-.28,2.05-.83,2.74s-1.35,1.12-2.4,1.26l3.6,6.56h-1.4l-3.5-6.47h-3.88v6.47ZM54.54,93.38c.84,0,1.48-.23,1.92-.7.44-.47.66-1.06.66-1.79v-1.01c0-.71-.22-1.3-.66-1.77-.44-.47-1.08-.7-1.92-.7h-4.48v5.97h4.48Z"/>
    <path class="cls-1" d="M66.85,101.17c-1.82,0-3.22-.63-4.21-1.9s-1.49-3.14-1.49-5.62.5-4.36,1.49-5.65,2.39-1.95,4.21-1.95c1.17,0,2.16.28,2.96.83.8.55,1.43,1.31,1.87,2.27l-1.03.61c-.32-.8-.81-1.43-1.46-1.9-.65-.47-1.44-.7-2.36-.7-1.37,0-2.44.49-3.2,1.47-.77.98-1.15,2.38-1.15,4.2v1.66c0,1.81.38,3.19,1.15,4.14.77.95,1.83,1.43,3.2,1.43.98,0,1.79-.25,2.45-.74s1.14-1.16,1.47-2l1.03.61c-.43,1.01-1.07,1.8-1.91,2.38-.84.58-1.85.87-3.04.87Z"/>
    <path class="cls-1" d="M84.11,94.05h-8.02v6.87h-1.26v-14.62h1.26v6.64h8.02v-6.64h1.26v14.62h-1.26v-6.87Z"/>
    <path class="cls-1" d="M94.46,103.81v-18.81h3.1v.94h-2.05v16.92h2.05v.94h-3.1Z"/>
    <path class="cls-1" d="M113.22,85v18.81h-3.1v-.94h2.05v-16.92h-2.05v-.94h3.1Z"/>
    <path class="cls-1" d="M117.24,100.92v-10.72h1.19v1.7h.06c.24-.56.61-1.02,1.11-1.39.5-.37,1.19-.56,2.05-.56,1.14,0,2.04.35,2.67,1.06.64.71.95,1.71.95,3.03v6.89h-1.19v-6.68c0-1.09-.23-1.9-.7-2.43s-1.15-.8-2.04-.8c-.38,0-.74.05-1.09.15s-.66.24-.93.44-.49.44-.65.74c-.16.3-.24.65-.24,1.04v7.54h-1.19Z"/>
    <path class="cls-1" d="M130.88,100.92c-.43,0-.76-.12-.98-.36-.22-.24-.33-.56-.33-.97v-8.37h-1.86v-1.03h1.21c.29,0,.49-.06.6-.18.11-.12.16-.33.16-.64v-2.18h1.09v3h2.43v1.03h-2.43v8.67h2.26v1.03h-2.14Z"/>
    <path class="cls-1" d="M139.8,101.17c-.71,0-1.36-.13-1.94-.38-.58-.25-1.08-.62-1.49-1.1-.41-.48-.73-1.07-.94-1.77-.22-.7-.33-1.49-.33-2.37s.11-1.67.33-2.36c.22-.69.53-1.28.94-1.76.41-.48.9-.85,1.48-1.11s1.21-.39,1.93-.39,1.31.13,1.86.39c.56.26,1.03.62,1.42,1.08.39.46.69,1.02.91,1.67s.32,1.37.32,2.15v.57h-7.94v.52c0,.56.08,1.07.24,1.54.16.47.39.87.69,1.2.3.34.67.6,1.1.79.43.19.92.28,1.47.28,1.56,0,2.65-.72,3.25-2.16l.88.58c-.33.79-.86,1.42-1.58,1.89-.72.47-1.59.71-2.61.71ZM139.78,90.97c-.52,0-.98.09-1.4.28s-.78.45-1.08.79c-.3.34-.53.74-.69,1.2-.16.47-.24.98-.24,1.54v.1h6.64v-.17c0-.56-.08-1.07-.23-1.54-.15-.47-.37-.86-.66-1.18s-.63-.57-1.03-.75c-.4-.18-.83-.27-1.31-.27Z"/>
    <path class="cls-1" d="M147.34,100.92v-10.72h1.19v1.93h.08c.21-.5.57-.95,1.07-1.34.5-.39,1.21-.59,2.14-.59h.71v1.17h-.94c-.89,0-1.63.2-2.2.59-.57.39-.86.94-.86,1.63v7.33h-1.19Z"/>
    <path class="cls-1" d="M153.6,90.2h1.26l3.29,9.45h.08l3.27-9.45h1.21l-3.87,10.72h-1.36l-3.88-10.72Z"/>
    <path class="cls-1" d="M165.66,87.29c-.28,0-.49-.07-.62-.21-.13-.14-.2-.32-.2-.54v-.21c0-.22.07-.4.2-.54.13-.14.34-.21.62-.21s.49.07.62.21c.13.14.2.32.2.54v.21c0,.22-.07.4-.2.54s-.34.21-.62.21ZM165.08,90.2h1.19v10.72h-1.19v-10.72Z"/>
    <path class="cls-1" d="M174,101.17c-.71,0-1.36-.13-1.94-.38-.58-.25-1.08-.62-1.49-1.1-.41-.48-.73-1.07-.94-1.77-.22-.7-.32-1.49-.32-2.37s.11-1.67.32-2.36c.22-.69.53-1.28.94-1.76.41-.48.9-.85,1.48-1.11.57-.26,1.21-.39,1.93-.39s1.3.13,1.86.39,1.03.62,1.42,1.08c.39.46.69,1.02.91,1.67.22.65.32,1.37.32,2.15v.57h-7.94v.52c0,.56.08,1.07.24,1.54.16.47.39.87.69,1.2.3.34.67.6,1.1.79s.92.28,1.47.28c1.56,0,2.65-.72,3.25-2.16l.88.58c-.33.79-.86,1.42-1.58,1.89-.72.47-1.59.71-2.61.71ZM173.98,90.97c-.52,0-.98.09-1.4.28s-.78.45-1.08.79c-.3.34-.53.74-.69,1.2-.16.47-.24.98-.24,1.54v.1h6.64v-.17c0-.56-.08-1.07-.23-1.54-.15-.47-.37-.86-.66-1.18s-.63-.57-1.03-.75c-.4-.18-.83-.27-1.31-.27Z"/>
    <path class="cls-1" d="M180.18,90.2h1.17l2.58,9.65h.04l2.85-9.65h1.11l2.87,9.65h.04l2.56-9.65h1.15l-3.02,10.72h-1.47l-2.7-9.03h-.04l-2.68,9.03h-1.45l-3.02-10.72Z"/>
    <path class="cls-1" d="M202.25,103.81v-18.81h3.1v.94h-2.05v16.92h2.05v.94h-3.1Z"/>
    <path class="cls-1" d="M225.96,85v18.81h-3.1v-.94h2.05v-16.92h-2.05v-.94h3.1Z"/>
    <path class="cls-1" d="M229.98,100.92v-10.72h1.19v1.93h.08c.21-.5.57-.95,1.07-1.34.5-.39,1.21-.59,2.14-.59h.71v1.17h-.94c-.89,0-1.63.2-2.2.59-.57.39-.86.94-.86,1.63v7.33h-1.19Z"/>
    <path class="cls-1" d="M241.21,101.17c-.71,0-1.35-.13-1.93-.38-.57-.25-1.06-.62-1.47-1.1-.41-.48-.72-1.07-.94-1.77-.22-.7-.34-1.49-.34-2.37s.11-1.67.34-2.36c.22-.69.54-1.28.94-1.76.4-.48.89-.85,1.47-1.11s1.21-.39,1.93-.39,1.35.13,1.93.39,1.06.63,1.47,1.11c.41.48.72,1.07.94,1.76.22.69.34,1.48.34,2.36s-.11,1.67-.34,2.37c-.22.7-.54,1.29-.94,1.77-.4.48-.89.85-1.47,1.1-.57.25-1.21.38-1.93.38ZM241.21,100.1c1.05,0,1.87-.33,2.48-.98.61-.66.91-1.62.91-2.89v-1.34c0-1.26-.3-2.22-.91-2.88-.61-.66-1.43-.99-2.48-.99s-1.87.33-2.48.98-.91,1.62-.91,2.89v1.34c0,1.26.3,2.22.91,2.88s1.43.99,2.48.99Z"/>
    <path class="cls-1" d="M248.91,90.2h1.19v13.13c0,.54-.13.98-.4,1.3-.27.32-.69.48-1.28.48h-1.3v-1.03h1.78v-13.89ZM249.5,87.29c-.28,0-.49-.07-.62-.21-.13-.14-.2-.32-.2-.54v-.21c0-.22.07-.4.2-.54.13-.14.34-.21.62-.21s.49.07.62.21c.13.14.2.32.2.54v.21c0,.22-.07.4-.2.54s-.34.21-.62.21Z"/>
    <path class="cls-1" d="M257.83,101.17c-.71,0-1.36-.13-1.94-.38-.58-.25-1.08-.62-1.49-1.1-.41-.48-.73-1.07-.94-1.77-.22-.7-.32-1.49-.32-2.37s.11-1.67.32-2.36c.22-.69.53-1.28.94-1.76.41-.48.9-.85,1.48-1.11.57-.26,1.21-.39,1.93-.39s1.3.13,1.86.39,1.03.62,1.42,1.08c.39.46.69,1.02.91,1.67.22.65.32,1.37.32,2.15v.57h-7.94v.52c0,.56.08,1.07.24,1.54.16.47.39.87.69,1.2.3.34.67.6,1.1.79s.92.28,1.47.28c1.56,0,2.65-.72,3.25-2.16l.88.58c-.33.79-.86,1.42-1.58,1.89-.72.47-1.59.71-2.61.71ZM257.81,90.97c-.52,0-.98.09-1.4.28s-.78.45-1.08.79c-.3.34-.53.74-.69,1.2-.16.47-.24.98-.24,1.54v.1h6.64v-.17c0-.56-.08-1.07-.23-1.54-.15-.47-.37-.86-.66-1.18s-.63-.57-1.03-.75c-.4-.18-.83-.27-1.31-.27Z"/>
    <path class="cls-1" d="M269.14,101.17c-1.48,0-2.62-.49-3.42-1.47-.8-.98-1.21-2.36-1.21-4.15s.4-3.17,1.21-4.15c.8-.98,1.94-1.47,3.42-1.47.99,0,1.79.22,2.41.65s1.08,1.01,1.4,1.72l-1,.5c-.25-.59-.6-1.03-1.06-1.34-.45-.31-1.04-.46-1.75-.46-1.09,0-1.92.35-2.49,1.05-.57.7-.86,1.61-.86,2.74v1.51c0,1.13.29,2.05.86,2.74s1.4,1.05,2.49,1.05c.74,0,1.36-.16,1.86-.48s.91-.78,1.21-1.38l.88.59c-.35.71-.85,1.28-1.5,1.71-.65.43-1.47.64-2.46.64Z"/>
    <path class="cls-1" d="M277.61,100.92c-.43,0-.76-.12-.98-.36-.22-.24-.33-.56-.33-.97v-8.37h-1.86v-1.03h1.21c.29,0,.49-.06.6-.18.11-.12.16-.33.16-.64v-2.18h1.09v3h2.43v1.03h-2.43v8.67h2.26v1.03h-2.14Z"/>
  </g>
  <polygon class="cls-1" points="7.69 102.24 7.69 86.57 15.17 86.57 15.17 89.25 10.43 89.25 10.43 99.54 13.74 99.54 13.74 95.58 12.1 95.58 12.1 92.9 16.48 92.9 16.48 102.24 7.69 102.24"/>
  <polygon class="cls-1" points="105.16 86.58 105.16 102.26 102.42 102.26 102.42 86.55 105.16 86.58"/>
  <path class="cls-1" d="M212.59,95.57v6.66h-2.74v-15.68h8.61v7.79l-5.87,1.22ZM212.59,92.89l3.13-.63v-3.02h-3.13v3.65Z"/>
</svg>